<svg width="601" height="750" xmlns="http://www.w3.org/2000/svg" xmlns:xlink="http://www.w3.org/1999/xlink"><defs><path d="M68.774 6.343L9.538 41.716c-9.26 5.53-12.283 17.522-6.752 26.78 5.53 9.26 17.522 12.285 26.781 6.75L83.16 43.246l5.952 97.666c.632 10.36 9.234 18.342 19.476 18.342a21.23 21.23 0 0 0 1.207-.037c10.767-.656 18.963-9.915 18.307-20.682l-6.36-104.356c-.793-12.285-7.775-23.04-18.673-28.768-5.162-2.713-10.75-4.063-16.33-4.063-6.204 0-12.398 1.672-17.964 4.996" id="a"/><linearGradient x1="0%" y1="50%" y2="50%" id="b"><stop offset="0%"/><stop stop-color="#142747" offset="100%"/></linearGradient><path d="M70.255 5.55L11.02 40.924c-9.261 5.53-12.284 17.522-6.753 26.78 5.531 9.26 17.525 12.285 26.783 6.751l53.588-32.004 5.956 97.666c.63 10.363 9.232 18.342 19.476 18.342.4-.001.802-.012 1.205-.037 10.767-.656 18.963-9.913 18.31-20.682l-6.362-104.354c-.794-12.287-7.776-23.041-18.674-28.77C99.39 1.903 93.8.555 88.223.555c-6.206 0-12.4 1.672-17.968 4.995" id="d"/><path d="M182.56 2.967L.72 98.025l-.09 10.698a9.523 9.523 0 0 0 4.75 8.32l362.586 209.47c5.28 3.051 13.922 3.055 19.204.004l176.964-101.374a9.896 9.896 0 0 0 4.976-8.586v-10.963L201.763 2.973c-2.643-1.527-6.127-2.29-9.61-2.29-3.478 0-6.957.761-9.594 2.284" id="f"/><linearGradient x1="0%" y1="50%" y2="50%" id="g"><stop stop-color="#CDDAEE" offset="0%"/><stop stop-color="#D3DAED" offset="100%"/></linearGradient><path d="M1.533 2.792v85.32c0 1.78.949 3.428 2.492 4.317l113.225 65.362c1.529.882 3.443-.22 3.443-1.986V70.487a4.985 4.985 0 0 0-2.496-4.318L4.972.808A2.272 2.272 0 0 0 3.83.497c-1.199 0-2.296.958-2.296 2.295" id="i"/><path id="k" d="M.672 78.114l106.546 61.858V61.93L.672.069z"/><path id="m" d="M.18.247l28.308 16.027v1.992L.179 2.234z"/><path id="o" d="M.18-8.753L28.487 7.274v1.992L.179-6.766z"/><path id="q" d="M.18.247l28.308 16.027v1.992L.179 2.234z"/><path id="s" d="M.18 10.247l28.308 16.027v1.992L.179 12.234z"/><path d="M73.253 2.077L.748 40.317s-.4 5.662 1.147 6.554l111.091 64.13a9.2 9.2 0 0 0 9.169.02l71.351-40.781c2.949-1.83 1.167-6.566 1.167-6.566L82.425 2.096a9.198 9.198 0 0 0-4.6-1.232 9.205 9.205 0 0 0-4.572 1.213" id="u"/><linearGradient x1="0%" y1="50%" x2="100.001%" y2="50%" id="v"><stop stop-color="#FFF" offset="0%"/><stop stop-color="#99A7D8" offset="100%"/></linearGradient><path d="M2.32 1.28L.901 2.287V51.66c0 5.175 3.667 11.527 8.148 14.113l42.26 24.586 3.344-1.638a3.63 3.63 0 0 0 2.033-3.26V38.275c0-5.175-3.682-11.499-8.183-14.054L7.801 1.005a5.1 5.1 0 0 0-5.482.276" id="x"/><path d="M52.573 1.522L1.24 31.672v.963c0 1.007.54 1.94 1.414 2.444l25.79 14.843c.964.557 2.54.557 3.504 0l50.388-29.077a2.491 2.491 0 0 0 .997-3.245l-.152-.311a1.479 1.479 0 0 0-.596-.637l-26.95-15.47a2.144 2.144 0 0 0-1.088-.284c-.668.002-1.356.268-1.973.624" id="y"/><linearGradient x1="-.001%" y1="50%" x2="99.998%" y2="50%" id="z"><stop stop-color="#D3DAED" offset="0%"/><stop stop-color="#99A7D8" offset="100%"/></linearGradient><path id="B" d="M.97 25.235l26.667 15.394L69.375 16.37 42.708.977z"/><path d="M89.197 1.03L2.201 49.934c-.336.19-.543.545-.543.93v1.65c0 .692.37 1.333.972 1.68l56.045 32.318c1.648.951 4.343.946 5.987-.009l85.857-49.789a2.874 2.874 0 0 0 1.437-2.508l-.007-1.262L95.189 1.03c-.823-.475-1.908-.712-2.996-.712-1.085 0-2.172.237-2.996.712" id="D"/><path id="F" d="M1.137.875l3.673 4.42 39.565 22.623 1.992-3.728L4.81.558z"/><linearGradient x1="46.647%" y1="53.714%" x2="51.511%" y2="40.505%" id="G"><stop stop-color="#FF9700" offset="0%"/><stop stop-color="#FFC107" offset="100%"/></linearGradient><path d="M15.816 99.031v4.485l-1.053-.614v-1.878l-1.8-1.05v1.879l-1.053-.614v-4.485l1.053.614v1.735l1.8 1.05v-1.736l1.053.614zm2.251 1.313v4.485l-1.053-.614V99.73l1.053.614zm4.442 4c0 .481-.17.727-.468.806-.3.073-.709-.075-1.17-.344l-.553-.322v1.657l-1.053-.614v-4.485l1.606.936c.461.27.87.6 1.17 1.02.299.422.468.865.468 1.346zm-1.066-.622c0-.227-.091-.436-.215-.6a1.641 1.641 0 0 0-.507-.418l-.41-.239v1.203l.41.238c.228.133.377.188.507.172.124-.019.215-.128.215-.356zm3.98.904l1.69 5.477-1.144-.667-.319-1.09-1.598-.932-.319.718-1.092-.636 1.69-3.507 1.092.637zm-1.131 2.11l1.118.651-.559-1.937-.559 1.286zm5.93.688l1.69 5.477-1.144-.667-.318-1.09-1.6-.932-.318.718-1.092-.636 1.69-3.507 1.092.637zm-1.13 2.11l1.117.652-.559-1.938-.559 1.286z" id="J"/><filter y="-6.2%" height="124.8%" filterUnits="objectBoundingBox" id="I"><feOffset dy="1" in="SourceAlpha" result="shadowOffsetOuter1"/><feGaussianBlur stdDeviation=".5" in="shadowOffsetOuter1" result="shadowBlurOuter1"/><feColorMatrix values="0 0 0 0 0 0 0 0 0 0 0 0 0 0 0 0 0 0 0.5 0" in="shadowBlurOuter1"/></filter><path d="M33.59 4.717c2.42 1.405 4.458 5.559 6.755 7.509 2.316 1.966 5.564 2.305 7.641 4.711 2.06 2.386 2.347 6.136 4.058 8.842 1.71 2.705 5.292 5.072 6.48 7.824 1.2 2.775-.346 5.127.274 7.805.616 2.656 3.584 6.419 3.584 8.84 0 2.42-2.968 2.736-3.584 4.677-.62 1.958.926 6.106-.273 7.487-.526.606-4.81.437-5.901.297-1.38-.177.375-.401-.58 0-1.711.718-1.998 4.135-4.058 4.128-.583-.002-4.255.061-5.342-.127-2.032-.352-.634-3.516-2.3-4.037-2.296-.718-4.334 1.068-6.754-.337s-4.457-5.558-6.754-7.508c-2.317-1.967-5.565-2.306-7.642-4.712-2.06-2.386-2.346-6.136-4.057-8.841-1.711-2.706-5.292-5.073-6.481-7.825-1.2-2.774.347-5.126-.274-7.805-.615-2.656-3.583-6.418-3.583-8.84 0-2.42 2.968-2.736 3.583-4.677.621-1.957-.925-6.105.274-7.487 1.189-1.37 4.77.422 6.48-.296 1.22-.512-2.252-3.489-1.062-4.066.915-.106 4.528-.065 5.12-.063 2.077.007 5.325 3.44 7.642 4.164.89.279-.46-.186.39-.329 1.343-.225 4.883-.194 6.364.666z" id="L"/><filter x="-58.2%" y="-35.3%" width="216.4%" height="200.5%" filterUnits="objectBoundingBox" id="K"><feOffset dy="10" in="SourceAlpha" result="shadowOffsetOuter1"/><feGaussianBlur stdDeviation="9.5" in="shadowOffsetOuter1" result="shadowBlurOuter1"/><feColorMatrix values="0 0 0 0 0 0 0 0 0 0 0 0 0 0 0 0 0 0 0.251670063 0" in="shadowBlurOuter1"/></filter><path d="M28.792 4.717c2.42 1.405 4.457 5.559 6.754 7.509 2.317 1.966 5.564 2.305 7.642 4.711 2.06 2.386 2.346 6.136 4.057 8.842 1.711 2.705 5.292 5.072 6.481 7.824 1.2 2.775-.347 5.127.274 7.805.615 2.656 3.583 6.419 3.583 8.84 0 2.42-2.968 2.736-3.583 4.677-.621 1.958.925 6.106-.274 7.487-1.189 1.37-4.77-.421-6.48.297-1.712.718-1.999 4.135-4.059 4.128-2.077-.006-5.324-3.44-7.64-4.164-2.298-.718-4.336 1.068-6.755-.337-2.42-1.405-4.458-5.558-6.755-7.508-2.316-1.967-5.564-2.306-7.641-4.712-2.06-2.386-2.347-6.136-4.058-8.841-1.71-2.706-5.292-5.073-6.48-7.825-1.2-2.774.346-5.126-.274-7.805C2.968 22.99 0 19.227 0 16.805c0-2.42 2.968-2.736 3.584-4.677.62-1.957-.926-6.105.273-7.487 1.19-1.37 4.77.422 6.481-.296C12.05 3.626 12.336.21 14.396.216c2.077.007 5.325 3.44 7.641 4.164 2.297.718 4.335-1.068 6.755.337z" id="M"/><path id="N" d="M.095.133L58 33.457v1.991L.095 2.12z"/><path d="M16.011 99.029v1.859c-.227.071-.76.331-1.995-.376-1.242-.71-2.334-2.155-2.334-3.65s1.092-1.682 2.346-.964c1.19.681 1.704 1.6 1.846 1.837l-.695.206c-.188-.316-.54-.822-1.15-1.172-.722-.413-1.281-.207-1.281.703 0 .91.572 1.764 1.3 2.181.728.417.936.25.936.25v-.663l-.943-.54v-.8l1.97 1.129zm5.092 3.228c0 .87-.351 1.19-.728 1.292-.37.1-.95-.01-1.73-.457l-1.52-.871v-4.485l1.52.871c.78.447 1.36.999 1.73 1.53.377.528.728 1.249.728 2.12zm-1.066-.61c0-.553-.208-.991-.397-1.28a2.805 2.805 0 0 0-.936-.855l-.533-.306v2.724l.533.305c.436.25.748.285.936.211.189-.067.397-.247.397-.8zm5.28 2.19c0 .482-.17.73-.468.812-.3.076-.709-.068-1.17-.332l-.553-.317v1.658l-1.053-.603v-4.485l1.606.92c.461.264.87.59 1.17 1.007.299.419.468.86.468 1.34zm-1.066-.61a.995.995 0 0 0-.215-.597 1.617 1.617 0 0 0-.507-.414l-.41-.234v1.202l.41.235c.228.13.377.183.507.167.124-.02.215-.131.215-.359zm4.37 3.725l1.138 2.504-1.223-.7-.942-2.256-.332-.19v1.717l-1.053-.603v-4.485l1.613.923c.5.286.89.614 1.183.996.299.392.494.861.494 1.31 0 .851-.546.87-.878.784zm-.182-1.352c0-.228-.091-.41-.227-.585-.13-.172-.3-.289-.54-.426l-.416-.239v1.15l.416.24c.24.137.41.208.54.185.136-.02.227-.091.227-.325z" id="Q"/><filter x="-11.1%" y="-7.2%" width="122.1%" height="128.6%" filterUnits="objectBoundingBox" id="P"><feOffset dy="1" in="SourceAlpha" result="shadowOffsetOuter1"/><feGaussianBlur stdDeviation=".5" in="shadowOffsetOuter1" result="shadowBlurOuter1"/><feColorMatrix values="0 0 0 0 0 0 0 0 0 0 0 0 0 0 0 0 0 0 0.5 0" in="shadowBlurOuter1"/></filter><path d="M33.59 4.717c2.42 1.405 4.458 5.559 6.755 7.509 2.316 1.966 5.564 2.305 7.641 4.711 2.06 2.386 2.347 6.136 4.058 8.842 1.71 2.705 5.292 5.072 6.48 7.824 1.2 2.775-.346 5.127.274 7.805.616 2.656 3.584 6.419 3.584 8.84 0 2.42-2.968 2.736-3.584 4.677-.62 1.958.926 6.106-.273 7.487-.526.606-4.81.437-5.901.297-1.38-.177.375-.401-.58 0-1.711.718-1.998 4.135-4.058 4.128-.583-.002-4.255.061-5.342-.127-2.032-.352-.634-3.516-2.3-4.037-2.296-.718-4.334 1.068-6.754-.337s-4.457-5.558-6.754-7.508c-2.317-1.967-5.565-2.306-7.642-4.712-2.06-2.386-2.346-6.136-4.057-8.841-1.711-2.706-5.292-5.073-6.481-7.825-1.2-2.774.347-5.126-.274-7.805-.615-2.656-3.583-6.418-3.583-8.84 0-2.42 2.968-2.736 3.583-4.677.621-1.957-.925-6.105.274-7.487 1.189-1.37 4.77.422 6.48-.296 1.22-.512-2.252-3.489-1.062-4.066.915-.106 4.528-.065 5.12-.063 2.077.007 5.325 3.44 7.642 4.164.89.279-.46-.186.39-.329 1.343-.225 4.883-.194 6.364.666z" id="S"/><filter x="-58.2%" y="-35.3%" width="216.4%" height="200.5%" filterUnits="objectBoundingBox" id="R"><feOffset dy="10" in="SourceAlpha" result="shadowOffsetOuter1"/><feGaussianBlur stdDeviation="9.5" in="shadowOffsetOuter1" result="shadowBlurOuter1"/><feColorMatrix values="0 0 0 0 0 0 0 0 0 0 0 0 0 0 0 0 0 0 0.251670063 0" in="shadowBlurOuter1"/></filter><path d="M28.792 4.717c2.42 1.405 4.457 5.559 6.754 7.509 2.317 1.966 5.564 2.305 7.642 4.711 2.06 2.386 2.346 6.136 4.057 8.842 1.711 2.705 5.292 5.072 6.481 7.824 1.2 2.775-.347 5.127.274 7.805.615 2.656 3.583 6.419 3.583 8.84 0 2.42-2.968 2.736-3.583 4.677-.621 1.958.925 6.106-.274 7.487-1.189 1.37-4.77-.421-6.48.297-1.712.718-1.999 4.135-4.059 4.128-2.077-.006-5.324-3.44-7.64-4.164-2.298-.718-4.336 1.068-6.755-.337-2.42-1.405-4.458-5.558-6.755-7.508-2.316-1.967-5.564-2.306-7.641-4.712-2.06-2.386-2.347-6.136-4.058-8.841-1.71-2.706-5.292-5.073-6.48-7.825-1.2-2.774.346-5.126-.274-7.805C2.968 22.99 0 19.227 0 16.805c0-2.42 2.968-2.736 3.584-4.677.62-1.957-.926-6.105.273-7.487 1.19-1.37 4.77.422 6.481-.296C12.05 3.626 12.336.21 14.396.216c2.077.007 5.325 3.44 7.641 4.164 2.297.718 4.335-1.068 6.755.337z" id="T"/><path id="U" d="M.095.133L58 33.457v1.991L.095 2.12z"/><path id="W" d="M0 0l57.905 33.324v1.991L0 1.987z"/><path d="M11.553 97.583v4.485l-1.053-.583V97l1.053.583zm4.227 5.462c0 .429-.201.707-.526.78-.319.078-.735-.036-1.216-.302-.65-.36-1.228-1.019-1.592-1.558l.52-.48c.325.519.825 1.023 1.17 1.214.338.187.598.169.598-.13 0-.306-.332-.606-.527-.786-.195-.18-.533-.483-.682-.631-.11-.113-.338-.324-.533-.62-.195-.29-.351-.637-.351-1.06 0-.428.208-.651.468-.722.253-.074.663.01 1.183.298s1.118.866 1.423 1.341l-.448.486c-.26-.404-.663-.822-1.001-1.01-.338-.187-.585-.193-.585.08s.253.517.455.707c.195.186.526.486.67.624.123.114.422.397.623.71.189.293.351.656.351 1.059zm5.469 2.157c0 1.45-1.047 1.735-2.38.997-1.332-.738-2.378-2.182-2.378-3.632 0-1.45 1.046-1.74 2.379-1.003 1.332.738 2.379 2.189 2.379 3.638zm-1.066-.616c0-.851-.566-1.71-1.313-2.125-.748-.414-1.313-.187-1.313.67 0 .859.565 1.718 1.313 2.132.747.414 1.313.181 1.313-.677zm7.083 5.373v.812l-3.29-1.822-.123-.731 1.521-.53c.423-.149.676-.3.676-.684 0-.384-.28-.785-.721-1.03-.449-.249-.839-.172-1.086.003l-.442-.934c.059-.104.611-.402 1.625.16 1.014.56 1.632 1.442 1.632 2.229 0 .786-.585.93-.943 1.05l-.93.325 2.08 1.152zm4.077-1.414l.286.782-1.995 2.756-1.105-.612 1.97-2.588-2.354-1.304v-.806l3.198 1.772zm4.624 4.81c0 1.182-.553 2.007-1.859 1.284-1.313-.727-1.859-2.16-1.859-3.344 0-1.183.552-2.008 1.859-1.284 1.306.723 1.859 2.16 1.859 3.343zm-1.034-.592c0-.806-.247-1.554-.825-1.875-.579-.32-.826.154-.826.96 0 .806.247 1.567.826 1.887.578.32.825-.166.825-.972zm5.482 3.055c0 1.183-.552 2.008-1.859 1.285-1.313-.728-1.859-2.161-1.859-3.344 0-1.183.553-2.008 1.86-1.284 1.306.723 1.858 2.16 1.858 3.343zm-1.033-.592c0-.806-.247-1.554-.826-1.874-.578-.32-.825.154-.825.96 0 .806.247 1.567.825 1.887.579.32.826-.167.826-.973zm3.837-.104v4.485l-1.014-.562v-3.763l-.813-.45v-.722l1.827 1.012z" id="Z"/><filter x="-6.1%" y="-4.4%" width="112.2%" height="117.7%" filterUnits="objectBoundingBox" id="Y"><feOffset dy="1" in="SourceAlpha" result="shadowOffsetOuter1"/><feGaussianBlur stdDeviation=".5" in="shadowOffsetOuter1" result="shadowBlurOuter1"/><feColorMatrix values="0 0 0 0 0 0 0 0 0 0 0 0 0 0 0 0 0 0 0.5 0" in="shadowBlurOuter1"/></filter><path d="M33.59 4.717c2.42 1.405 4.458 5.559 6.755 7.509 2.316 1.966 5.564 2.305 7.641 4.711 2.06 2.386 2.347 6.136 4.058 8.842 1.71 2.705 5.292 5.072 6.48 7.824 1.2 2.775-.346 5.127.274 7.805.616 2.656 3.584 6.419 3.584 8.84 0 2.42-2.968 2.736-3.584 4.677-.62 1.958.926 6.106-.273 7.487-.526.606-4.81.437-5.901.297-1.38-.177.375-.401-.58 0-1.711.718-1.998 4.135-4.058 4.128-.583-.002-4.255.061-5.342-.127-2.032-.352-.634-3.516-2.3-4.037-2.296-.718-4.334 1.068-6.754-.337s-4.457-5.558-6.754-7.508c-2.317-1.967-5.565-2.306-7.642-4.712-2.06-2.386-2.346-6.136-4.057-8.841-1.711-2.706-5.292-5.073-6.481-7.825-1.2-2.774.347-5.126-.274-7.805-.615-2.656-3.583-6.418-3.583-8.84 0-2.42 2.968-2.736 3.583-4.677.621-1.957-.925-6.105.274-7.487 1.189-1.37 4.77.422 6.48-.296 1.22-.512-2.252-3.489-1.062-4.066.915-.106 4.528-.065 5.12-.063 2.077.007 5.325 3.44 7.642 4.164.89.279-.46-.186.39-.329 1.343-.225 4.883-.194 6.364.666z" id="ab"/><filter x="-58.2%" y="-35.3%" width="216.4%" height="200.5%" filterUnits="objectBoundingBox" id="aa"><feOffset dy="10" in="SourceAlpha" result="shadowOffsetOuter1"/><feGaussianBlur stdDeviation="9.5" in="shadowOffsetOuter1" result="shadowBlurOuter1"/><feColorMatrix values="0 0 0 0 0 0 0 0 0 0 0 0 0 0 0 0 0 0 0.251670063 0" in="shadowBlurOuter1"/></filter><path d="M28.792 4.717c2.42 1.405 4.457 5.559 6.754 7.509 2.317 1.966 5.564 2.305 7.642 4.711 2.06 2.386 2.346 6.136 4.057 8.842 1.711 2.705 5.292 5.072 6.481 7.824 1.2 2.775-.347 5.127.274 7.805.615 2.656 3.583 6.419 3.583 8.84 0 2.42-2.968 2.736-3.583 4.677-.621 1.958.925 6.106-.274 7.487-1.189 1.37-4.77-.421-6.48.297-1.712.718-1.999 4.135-4.059 4.128-2.077-.006-5.324-3.44-7.64-4.164-2.298-.718-4.336 1.068-6.755-.337-2.42-1.405-4.458-5.558-6.755-7.508-2.316-1.967-5.564-2.306-7.641-4.712-2.06-2.386-2.347-6.136-4.058-8.841-1.71-2.706-5.292-5.073-6.48-7.825-1.2-2.774.346-5.126-.274-7.805C2.968 22.99 0 19.227 0 16.805c0-2.42 2.968-2.736 3.584-4.677.62-1.957-.926-6.105.273-7.487 1.19-1.37 4.77.422 6.481-.296C12.05 3.626 12.336.21 14.396.216c2.077.007 5.325 3.44 7.641 4.164 2.297.718 4.335-1.068 6.755.337z" id="ac"/><path d="M13.938 99.59c0 .43-.201.705-.526.773-.319.073-.735-.047-1.216-.32-.65-.37-1.228-1.037-1.592-1.582l.52-.471c.325.523.825 1.035 1.17 1.23.338.193.598.178.598-.12 0-.306-.332-.612-.526-.794-.195-.183-.534-.492-.683-.642-.11-.115-.338-.329-.533-.628-.195-.293-.351-.641-.351-1.064 0-.429.208-.649.468-.715.254-.07.663.02 1.183.315.52.296 1.118.883 1.424 1.362l-.449.48c-.26-.409-.663-.833-1.001-1.025-.338-.192-.585-.203-.585.07s.253.522.455.714c.195.189.526.495.67.634.123.116.422.403.623.72.189.295.351.66.351 1.063zm5.47 2.239c0 1.45-1.047 1.719-2.38.961-1.332-.758-2.379-2.217-2.379-3.667 0-1.45 1.047-1.725 2.38-.967 1.332.757 2.378 2.223 2.378 3.673zm-1.067-.632c0-.852-.565-1.72-1.313-2.144-.747-.425-1.313-.207-1.313.65 0 .859.566 1.726 1.313 2.151.748.425 1.313.2 1.313-.657zm5.43 3.997l.35 1.019c-.227.105-.701.212-1.618-.31-1.32-.75-2.353-2.208-2.353-3.651 0-1.45 1.047-1.72 2.353-.976.923.524 1.424 1.193 1.54 1.383l-.324.686c-.085-.159-.566-.79-1.157-1.126-.76-.433-1.346-.258-1.346.62 0 .877.611 1.725 1.346 2.142.559.318.962.326 1.209.213zm4.598 3.154v.813l-3.29-1.87-.123-.734 1.521-.506c.422-.144.676-.292.676-.675 0-.384-.28-.79-.721-1.041-.449-.255-.839-.185-1.086-.013l-.442-.94c.058-.104.611-.394 1.625.183 1.014.576 1.631 1.467 1.631 2.253 0 .787-.585.922-.942 1.037l-.93.31 2.08 1.183zm5.704-.428v.832l-1.157-.658v3.653l-1.053-.599v-3.653l-1.157-.658v-.832l3.367 1.915zm3.337 1.897l1.17.665-1.56 1.785v1.813l-1.053-.598v-1.814l-1.56-3.559 1.17.666.916 2.308.917-1.266zm5.13 4.328c0 .481-.168.73-.467.813-.3.077-.709-.065-1.17-.327l-.553-.315v1.658l-1.053-.599v-4.485l1.606.913c.461.263.87.586 1.17 1.003.299.417.468.858.468 1.34zm-1.065-.606a.991.991 0 0 0-.215-.597 1.607 1.607 0 0 0-.507-.411l-.41-.233v1.202l.41.233c.228.13.377.182.507.165.124-.02.215-.132.215-.36zm4.922 5.022v.852l-2.964-1.686v-4.485l2.906 1.652v.839l-1.86-1.057v.916l1.756.998v.839l-1.755-.998v1.04l1.917 1.09zm3.742-1.506v4.485l-1.053-.598v-4.485l1.053.598zm2.251 1.28v4.485l-1.053-.598v-4.485l1.053.598z" id="af"/><filter x="-4.8%" y="-3.6%" width="109.6%" height="114.5%" filterUnits="objectBoundingBox" id="ae"><feOffset dy="1" in="SourceAlpha" result="shadowOffsetOuter1"/><feGaussianBlur stdDeviation=".5" in="shadowOffsetOuter1" result="shadowBlurOuter1"/><feColorMatrix values="0 0 0 0 0 0 0 0 0 0 0 0 0 0 0 0 0 0 0.5 0" in="shadowBlurOuter1"/></filter><path d="M33.59 4.717c2.42 1.405 4.458 5.559 6.755 7.509 2.316 1.966 5.564 2.305 7.641 4.711 2.06 2.386 2.347 6.136 4.058 8.842 1.71 2.705 5.292 5.072 6.48 7.824 1.2 2.775-.346 5.127.274 7.805.616 2.656 3.584 6.419 3.584 8.84 0 2.42-2.968 2.736-3.584 4.677-.62 1.958.926 6.106-.273 7.487-.526.606-4.81.437-5.901.297-1.38-.177.375-.401-.58 0-1.711.718-1.998 4.135-4.058 4.128-.583-.002-4.255.061-5.342-.127-2.032-.352-.634-3.516-2.3-4.037-2.296-.718-4.334 1.068-6.754-.337s-4.457-5.558-6.754-7.508c-2.317-1.967-5.565-2.306-7.642-4.712-2.06-2.386-2.346-6.136-4.057-8.841-1.711-2.706-5.292-5.073-6.481-7.825-1.2-2.774.347-5.126-.274-7.805-.615-2.656-3.583-6.418-3.583-8.84 0-2.42 2.968-2.736 3.583-4.677.621-1.957-.925-6.105.274-7.487 1.189-1.37 4.77.422 6.48-.296 1.22-.512-2.252-3.489-1.062-4.066.915-.106 4.528-.065 5.12-.063 2.077.007 5.325 3.44 7.642 4.164.89.279-.46-.186.39-.329 1.343-.225 4.883-.194 6.364.666z" id="ah"/><filter x="-58.2%" y="-35.3%" width="216.4%" height="200.5%" filterUnits="objectBoundingBox" id="ag"><feOffset dy="10" in="SourceAlpha" result="shadowOffsetOuter1"/><feGaussianBlur stdDeviation="9.5" in="shadowOffsetOuter1" result="shadowBlurOuter1"/><feColorMatrix values="0 0 0 0 0 0 0 0 0 0 0 0 0 0 0 0 0 0 0.251670063 0" in="shadowBlurOuter1"/></filter><path d="M28.792 4.717c2.42 1.405 4.457 5.559 6.754 7.509 2.317 1.966 5.564 2.305 7.642 4.711 2.06 2.386 2.346 6.136 4.057 8.842 1.711 2.705 5.292 5.072 6.481 7.824 1.2 2.775-.347 5.127.274 7.805.615 2.656 3.583 6.419 3.583 8.84 0 2.42-2.968 2.736-3.583 4.677-.621 1.958.925 6.106-.274 7.487-1.189 1.37-4.77-.421-6.48.297-1.712.718-1.999 4.135-4.059 4.128-2.077-.006-5.324-3.44-7.64-4.164-2.298-.718-4.336 1.068-6.755-.337-2.42-1.405-4.458-5.558-6.755-7.508-2.316-1.967-5.564-2.306-7.641-4.712-2.06-2.386-2.347-6.136-4.058-8.841-1.71-2.706-5.292-5.073-6.48-7.825-1.2-2.774.346-5.126-.274-7.805C2.968 22.99 0 19.227 0 16.805c0-2.42 2.968-2.736 3.584-4.677.62-1.957-.926-6.105.273-7.487 1.19-1.37 4.77.422 6.481-.296C12.05 3.626 12.336.21 14.396.216c2.077.007 5.325 3.44 7.641 4.164 2.297.718 4.335-1.068 6.755.337z" id="ai"/><path id="aj" d="M0 0l57.905 33.324v1.991L0 1.987z"/></defs><g fill="none" fill-rule="evenodd"><path d="M203.409 573.44v18.895c0 4.675 2.485 8.994 6.526 11.345l2.56 1.845a36.769 36.769 0 0 0 36.015.546l33.36-18.082c3.922-2.126 3.99-7.732.121-9.952-6.337-3.64-13.874-9.136-20.71-8.247-3.2.416-6.379 1.004-9.607.994l-15.454 2.105-32.811.55z" fill="#99A7D8"/><path d="M281.869 583.658l-33.359 18.08a36.773 36.773 0 0 1-36.016-.544l-2.56-1.845a13.125 13.125 0 0 1-6.524-11.345v4.332c0 4.674 2.486 8.994 6.525 11.344l2.56 1.846a36.773 36.773 0 0 0 36.015.546l33.359-18.083c2.735-1.482 3.551-4.64 2.512-7.179-.469 1.146-1.276 2.178-2.512 2.848" fill="#48486A"/><g transform="translate(111.362 437.658)"><mask id="c" fill="#fff"><use xlink:href="#a"/></mask><path d="M68.774 6.343L9.538 41.716c-9.26 5.53-12.283 17.522-6.752 26.78 5.53 9.26 17.522 12.285 26.781 6.75L83.16 43.246l5.952 97.666c.632 10.36 9.234 18.342 19.476 18.342a21.23 21.23 0 0 0 1.207-.037c10.767-.656 18.963-9.915 18.307-20.682l-6.36-104.356c-.793-12.285-7.775-23.04-18.673-28.768-5.162-2.713-10.75-4.063-16.33-4.063-6.204 0-12.398 1.672-17.964 4.996" fill="url(#b)" mask="url(#c)"/></g><path d="M263.223 618.598v18.897c0 4.673 2.485 8.995 6.525 11.345l2.56 1.844a36.767 36.767 0 0 0 36.017.546l33.357-18.083c3.924-2.126 3.993-7.73.124-9.952-6.337-3.639-13.875-9.135-20.71-8.246-3.203.415-6.38 1.004-9.609.993l-15.453 2.105-32.81.551z" fill="#99A7D8"/><path d="M341.682 628.816l-33.359 18.08a36.769 36.769 0 0 1-36.015-.544l-2.56-1.843a13.128 13.128 0 0 1-6.524-11.347v4.334c0 4.673 2.485 8.994 6.524 11.345l2.56 1.843a36.769 36.769 0 0 0 36.015.546l33.36-18.082c2.734-1.483 3.552-4.64 2.513-7.178-.47 1.146-1.278 2.176-2.514 2.846" fill="#48486A"/><path d="M198.474 545.783c.771-.334 1.531-.702 2.27-1.144l35.503-21.203-2.676-34.13-36.753 18.688 1.656 37.789z" fill="#231F20"/><g transform="translate(169.694 483.61)"><mask id="e" fill="#fff"><use xlink:href="#d"/></mask><path d="M70.255 5.55L11.02 40.924c-9.261 5.53-12.284 17.522-6.753 26.78 5.531 9.26 17.525 12.285 26.783 6.751l53.588-32.004 5.956 97.666c.63 10.363 9.232 18.342 19.476 18.342.4-.001.802-.012 1.205-.037 10.767-.656 18.963-9.913 18.31-20.682l-6.362-104.354c-.794-12.287-7.776-23.041-18.674-28.77C99.39 1.903 93.8.555 88.223.555c-6.206 0-12.4 1.672-17.968 4.995" fill="url(#b)" mask="url(#e)"/></g><path d="M352.905 749.562a6.653 6.653 0 0 1-6.616-7.425l24.396-227.697c.426-3.65 5.925-6.27 9.599-5.834 3.65.424 8.479 3.73 8.053 7.38l-28.834 227.698a6.649 6.649 0 0 1-6.598 5.878M40.622 570.81a6.656 6.656 0 0 1-6.616-7.427l24.397-227.698c.424-3.65 5.964-6.27 9.597-5.834 3.65.426 8.48 3.729 8.055 7.379L47.22 564.928a6.653 6.653 0 0 1-6.599 5.882M570.38 624.709a6.65 6.65 0 0 1-6.598-5.88l-22.423-172.85c-.426-3.648 4.403-6.953 8.053-7.379 3.638-.44 9.173 2.188 9.599 5.836l17.986 172.848a6.652 6.652 0 0 1-6.617 7.425" fill="#452F6F"/><path d="M380.284 508.606c-3.673-.436-9.172 2.185-9.6 5.834l-6.551 61.136 15.52 8.99 8.684-68.58c.426-3.65-4.405-6.956-8.053-7.38M51.82 397.515l15.512 8.986 8.722-68.883c.254-2.161-1.353-4.185-3.45-5.578l-14.587 7.625-6.198 57.85zM559.011 444.436c-.426-3.648-5.96-6.276-9.6-5.836-3.648.426-8.479 3.731-8.051 7.38l8.65 66.7 15.197-8.704-6.196-59.54z" fill-opacity=".302" fill="#231F20"/><g transform="translate(31.818 250.314)"><mask id="h" fill="#fff"><use xlink:href="#f"/></mask><path d="M182.56 2.967L.72 98.025l-.09 10.698a9.523 9.523 0 0 0 4.75 8.32l362.586 209.47c5.28 3.051 13.922 3.055 19.204.004l176.964-101.374a9.896 9.896 0 0 0 4.976-8.586v-10.963L201.763 2.973c-2.643-1.527-6.127-2.29-9.61-2.29-3.478 0-6.957.761-9.594 2.284" fill="url(#g)" mask="url(#h)"/></g><path d="M214.375 241.083c5.282-3.048 13.924-3.047 19.204.007l363.425 209.69c5.278 3.053 5.278 8.045-.004 11.095l-178.012 102.76c-5.282 3.049-13.924 3.047-19.204-.007L36.359 354.938c-5.28-3.051-5.278-8.044.004-11.093l178.012-102.762z" fill="#FBFDFF"/><path d="M231.624 329.906l-74.968 42.849c-1.63.931-1.635 3.28-.009 4.219l116.724 67.378a9.669 9.669 0 0 0 9.635.021l74.968-42.848c1.63-.93 1.635-3.279.008-4.217l-116.72-67.38a9.676 9.676 0 0 0-9.638-.022" fill="#000" fill-opacity=".082"/><g transform="translate(236.865 230.873)"><mask id="j" fill="#fff"><use xlink:href="#i"/></mask><path d="M1.533 2.792v85.32c0 1.78.949 3.428 2.492 4.317l113.225 65.362c1.529.882 3.443-.22 3.443-1.986V70.487a4.985 4.985 0 0 0-2.496-4.318L4.972.808A2.272 2.272 0 0 0 3.83.497c-1.199 0-2.296.958-2.296 2.295" mask="url(#j)"/></g><path d="M353.6 298.016l-113.225-65.36c-1.529-.883-3.441.22-3.441 1.987v85.317c0 1.78.95 3.427 2.494 4.318l113.225 65.36c1.529.884 3.44-.22 3.44-1.987v-85.317c0-1.78-.95-3.427-2.493-4.318" fill="#48486A"/><g transform="translate(242.168 241.477)"><mask id="l" fill="#fff"><use xlink:href="#k"/></mask><path fill="#FFF" mask="url(#l)" d="M.672 78.114l106.546 61.858V61.93L.672.069z"/><path d="M19.04 21.093c-.462-.264-1.04.065-1.04.592v25.443c0 .531.287 1.022.754 1.288l14.709 8.594c.461.263 1.039-.066 1.039-.593V30.974c0-.53-.287-1.022-.753-1.287l-14.71-8.594zM37.04 31.093c-.462-.264-1.04.065-1.04.592v25.443c0 .531.287 1.022.754 1.288l14.709 8.594c.461.263 1.039-.066 1.039-.593V40.974c0-.53-.287-1.022-.753-1.287l-14.71-8.594zM56.04 42.093c-.462-.264-1.04.065-1.04.592v25.443c0 .531.287 1.022.754 1.288l14.709 8.594c.461.263 1.039-.066 1.039-.593V51.974c0-.53-.287-1.022-.753-1.287l-14.71-8.594zM75.04 53.093c-.462-.264-1.04.065-1.04.592v25.443c0 .531.287 1.022.754 1.288l14.709 8.594c.461.263 1.039-.066 1.039-.593V62.974c0-.53-.287-1.022-.753-1.287l-14.71-8.594z" fill="#E9F1FD" mask="url(#l)"/><path d="M17.04 53.093c-.462-.264-1.04.065-1.04.592v25.443c0 .531.287 1.022.754 1.288L50.96 99.907c.462.264 1.039-.065 1.039-.592V73.872c0-.531-.287-1.022-.753-1.288L17.04 53.093zM56.04 75.093c-.462-.264-1.04.065-1.04.592v25.443c0 .531.287 1.022.754 1.288l34.207 19.491c.462.264 1.039-.065 1.039-.592V95.872c0-.531-.287-1.022-.753-1.288L56.04 75.093z" fill="#D3DAED" mask="url(#l)"/><g mask="url(#l)"><g transform="translate(19 71)"><mask id="n" fill="#fff"><use xlink:href="#m"/></mask><use fill="#107EFF" xlink:href="#m"/><path fill="#2ECC71" mask="url(#n)" d="M-1.572-3.344l22.035 7.623v11.278L-1.572 5.44z"/><mask id="p" fill="#fff"><use xlink:href="#o"/></mask><use fill="#107EFF" xlink:href="#o"/><path fill="#2ECC71" mask="url(#p)" d="M-5.572-13.344l15.035 6.01v8.89L-5.572-6.418z"/></g><g transform="translate(58 84)"><mask id="r" fill="#fff"><use xlink:href="#q"/></mask><use fill="#107EFF" xlink:href="#q"/><path fill="#2ECC71" mask="url(#r)" d="M-1.572-3.344l22.035 7.623v11.278L-1.572 5.44z"/><mask id="t" fill="#fff"><use xlink:href="#s"/></mask><use fill="#107EFF" xlink:href="#s"/><path fill="#2ECC71" mask="url(#t)" d="M-5.572 5.656l15.035 6.01v8.89l-15.035-7.975z"/></g></g></g><g transform="translate(159.088 326.312)"><mask id="w" fill="#fff"><use xlink:href="#u"/></mask><path d="M73.253 2.077L.748 40.317s-.4 5.662 1.147 6.554l111.091 64.13a9.2 9.2 0 0 0 9.169.02l71.351-40.781c2.949-1.83 1.167-6.566 1.167-6.566L82.425 2.096a9.198 9.198 0 0 0-4.6-1.232 9.205 9.205 0 0 0-4.572 1.213" fill="url(#v)" mask="url(#w)"/></g><path d="M232.342 323.999l-71.35 40.78c-1.551.888-1.557 3.122-.008 4.016l111.09 64.129a9.207 9.207 0 0 0 9.172.019l71.347-40.78c1.552-.888 1.558-3.122.01-4.016l-111.09-64.129a9.208 9.208 0 0 0-9.171-.019" fill="#F9F9F9"/><path d="M226.016 376.805l-18.806 10.75a.61.61 0 0 0-.001 1.058l29.279 16.902a2.43 2.43 0 0 0 2.418.005l18.806-10.748a.611.611 0 0 0 .004-1.06l-29.282-16.902a2.43 2.43 0 0 0-2.418-.005" fill="#E4E9F4"/><path d="M240.21 330.23l6.148 3.549a.366.366 0 0 1-.002.634l-3.052 1.755a.797.797 0 0 1-.792 0l-6.146-3.549a.365.365 0 0 1 0-.634l3.052-1.755a.792.792 0 0 1 .792 0M249.217 335.595l6.148 3.549a.367.367 0 0 1 0 .634l-3.055 1.755a.792.792 0 0 1-.792 0l-6.146-3.549a.366.366 0 0 1 0-.634l3.055-1.755a.789.789 0 0 1 .79 0M258.258 340.675l6.148 3.549a.366.366 0 0 1-.002.634l-3.053 1.755a.792.792 0 0 1-.792 0l-6.148-3.549a.366.366 0 0 1 .002-.634l3.053-1.755a.792.792 0 0 1 .792 0M267.57 345.92l6.149 3.55a.366.366 0 0 1-.002.634l-3.053 1.755a.797.797 0 0 1-.792-.002l-6.148-3.547a.367.367 0 0 1 .002-.636l3.053-1.753a.788.788 0 0 1 .792 0M276.518 350.905l6.148 3.55a.367.367 0 0 1-.002.635l-3.053 1.754a.792.792 0 0 1-.792 0l-6.148-3.548a.367.367 0 0 1 .002-.636l3.053-1.755a.792.792 0 0 1 .792 0M285.216 356.271l6.148 3.55a.366.366 0 0 1-.002.634l-3.053 1.755a.797.797 0 0 1-.791 0l-6.148-3.55a.367.367 0 0 1 .001-.635l3.053-1.754a.792.792 0 0 1 .792 0M294.323 361.291l6.146 3.55a.365.365 0 0 1 0 .634l-3.053 1.755a.792.792 0 0 1-.792 0l-6.148-3.55a.366.366 0 0 1 .002-.634l3.053-1.755a.792.792 0 0 1 .792 0M303.293 366.632l6.148 3.55a.367.367 0 0 1 0 .634l-3.055 1.755a.789.789 0 0 1-.79 0l-6.148-3.55a.367.367 0 0 1 0-.634l3.055-1.755a.789.789 0 0 1 .79 0M312.116 371.838l6.148 3.549a.367.367 0 0 1 0 .634l-3.055 1.755a.797.797 0 0 1-.792 0l-6.148-3.549a.367.367 0 0 1 .002-.634l3.055-1.755a.789.789 0 0 1 .79 0M321.417 377.195l6.147 3.55a.367.367 0 0 1-.001.634l-3.055 1.755a.789.789 0 0 1-.79-.002l-6.148-3.547a.367.367 0 0 1 0-.635l3.055-1.755a.792.792 0 0 1 .792 0M330.448 382.263l6.148 3.549a.367.367 0 0 1 0 .634l-3.054 1.755a.797.797 0 0 1-.792 0l-6.148-3.549a.369.369 0 0 1 .002-.636l3.054-1.753a.789.789 0 0 1 .79 0M227.705 336.916l4.165-2.439a1.744 1.744 0 0 1 1.752-.005l4.067 2.349a.866.866 0 0 1 .021 1.488l-4.046 2.483a1.738 1.738 0 0 1-1.78.025l-4.173-2.402a.866.866 0 0 1-.006-1.499M237.03 342.281l4.165-2.437a1.74 1.74 0 0 1 1.752-.007l4.067 2.349a.865.865 0 0 1 .021 1.488l-4.046 2.483a1.738 1.738 0 0 1-1.78.025l-4.173-2.402a.866.866 0 0 1-.006-1.499M246.084 347.361l4.165-2.437c.54-.318 1.209-.32 1.752-.006l4.067 2.348a.866.866 0 0 1 .021 1.488l-4.046 2.483a1.741 1.741 0 0 1-1.782.025l-4.171-2.402a.866.866 0 0 1-.006-1.499M255.716 352.607l4.165-2.439a1.744 1.744 0 0 1 1.751-.005l4.068 2.349a.866.866 0 0 1 .02 1.488l-4.045 2.483a1.745 1.745 0 0 1-1.782.025l-4.172-2.402a.866.866 0 0 1-.005-1.499M264.201 357.592l4.165-2.439a1.744 1.744 0 0 1 1.751-.005l4.068 2.349a.866.866 0 0 1 .02 1.488l-4.045 2.483a1.742 1.742 0 0 1-1.78.025l-4.174-2.402a.866.866 0 0 1-.005-1.499M272.823 362.93l4.164-2.438c.541-.318 1.21-.32 1.752-.005l4.067 2.347a.866.866 0 0 1 .022 1.488l-4.047 2.483a1.742 1.742 0 0 1-1.78.027l-4.173-2.404a.866.866 0 0 1-.005-1.499M282.036 367.978l4.164-2.438c.541-.318 1.21-.32 1.752-.005l4.067 2.347a.866.866 0 0 1 .021 1.488l-4.046 2.484a1.738 1.738 0 0 1-1.78.024l-4.173-2.402a.866.866 0 0 1-.005-1.498M291.052 373.09l4.164-2.44a1.744 1.744 0 0 1 1.752-.005l4.067 2.349a.866.866 0 0 1 .021 1.488l-4.046 2.483a1.745 1.745 0 0 1-1.781.025l-4.172-2.404a.865.865 0 0 1-.005-1.497M299.916 378.524l4.163-2.439a1.747 1.747 0 0 1 1.754-.005l4.067 2.349a.865.865 0 0 1 .02 1.488l-4.045 2.483a1.745 1.745 0 0 1-1.782.025l-4.171-2.402a.866.866 0 0 1-.006-1.499M309.575 384.211l4.163-2.437c.54-.318 1.21-.32 1.753-.005l4.066 2.347a.865.865 0 0 1 .02 1.488l-4.044 2.483a1.745 1.745 0 0 1-1.781.027l-4.172-2.404a.866.866 0 0 1-.005-1.499M318.308 388.949l4.164-2.439a1.744 1.744 0 0 1 1.752-.005l4.067 2.349a.865.865 0 0 1 .02 1.488l-4.045 2.483a1.745 1.745 0 0 1-1.781.025l-4.172-2.402a.866.866 0 0 1-.005-1.499M218.426 341.961l4.165-2.437c.54-.318 1.209-.32 1.751-.005l4.068 2.347a.866.866 0 0 1 .02 1.488l-4.045 2.483a1.738 1.738 0 0 1-1.78.025l-4.174-2.402a.866.866 0 0 1-.005-1.499M227.751 347.327l4.165-2.439a1.744 1.744 0 0 1 1.751-.005l4.068 2.349a.866.866 0 0 1 .021 1.488l-4.046 2.483a1.742 1.742 0 0 1-1.78.025l-4.174-2.402a.866.866 0 0 1-.005-1.499M236.804 352.407l4.165-2.44a1.744 1.744 0 0 1 1.752-.005l4.067 2.35a.865.865 0 0 1 .021 1.487l-4.046 2.484a1.742 1.742 0 0 1-1.78.024l-4.173-2.402a.867.867 0 0 1-.006-1.498M246.436 357.652l4.164-2.437c.541-.318 1.211-.32 1.752-.006l4.067 2.348a.865.865 0 0 1 .022 1.488l-4.046 2.483a1.738 1.738 0 0 1-1.78.025l-4.174-2.402a.867.867 0 0 1-.005-1.499M254.922 362.637l4.164-2.437c.541-.318 1.21-.32 1.752-.005l4.067 2.347a.866.866 0 0 1 .022 1.488l-4.047 2.483a1.742 1.742 0 0 1-1.78.025l-4.173-2.402a.866.866 0 0 1-.005-1.499M263.543 367.975l4.165-2.439a1.744 1.744 0 0 1 1.752-.005l4.067 2.349a.866.866 0 0 1 .021 1.488l-4.046 2.483a1.742 1.742 0 0 1-1.78.025l-4.173-2.402a.866.866 0 0 1-.006-1.499M272.756 373.024l4.165-2.44a1.744 1.744 0 0 1 1.752-.005l4.067 2.35a.866.866 0 0 1 .021 1.487l-4.046 2.483a1.745 1.745 0 0 1-1.782.025l-4.171-2.402a.866.866 0 0 1-.006-1.498M281.772 378.134l4.165-2.439a1.744 1.744 0 0 1 1.752-.005l4.067 2.349a.866.866 0 0 1 .021 1.488l-4.046 2.483a1.745 1.745 0 0 1-1.782.025l-4.171-2.402a.866.866 0 0 1-.006-1.499M290.636 383.57l4.165-2.439a1.744 1.744 0 0 1 1.752-.005l4.067 2.349a.865.865 0 0 1 .021 1.488l-4.044 2.483a1.745 1.745 0 0 1-1.782.025l-4.173-2.404a.866.866 0 0 1-.006-1.497M300.295 389.257l4.164-2.439a1.744 1.744 0 0 1 1.752-.005l4.067 2.349a.865.865 0 0 1 .021 1.488l-4.046 2.483a1.745 1.745 0 0 1-1.781.025l-4.172-2.402a.866.866 0 0 1-.005-1.499M309.027 393.994l4.165-2.437c.541-.318 1.21-.32 1.754-.005l4.065 2.347a.865.865 0 0 1 .021 1.488l-4.046 2.483a1.738 1.738 0 0 1-1.78.025l-4.173-2.402a.868.868 0 0 1-.006-1.499M209.147 347.007l4.164-2.439a1.744 1.744 0 0 1 1.752-.005l4.067 2.349a.866.866 0 0 1 .022 1.488l-4.046 2.483a1.745 1.745 0 0 1-1.782.025l-4.172-2.402a.866.866 0 0 1-.005-1.499M218.472 352.372l4.164-2.439a1.744 1.744 0 0 1 1.752-.005l4.067 2.349a.866.866 0 0 1 .022 1.488l-4.046 2.483a1.742 1.742 0 0 1-1.78.025l-4.174-2.402a.866.866 0 0 1-.005-1.499M227.526 357.452l4.164-2.44a1.744 1.744 0 0 1 1.752-.005l4.068 2.35a.865.865 0 0 1 .019 1.487l-4.044 2.484a1.745 1.745 0 0 1-1.782.024l-4.172-2.401a.866.866 0 0 1-.005-1.5M237.156 362.698l4.165-2.44a1.744 1.744 0 0 1 1.752-.004l4.067 2.348a.865.865 0 0 1 .021 1.489l-4.046 2.483a1.742 1.742 0 0 1-1.78.025l-4.173-2.402a.866.866 0 0 1-.006-1.5M245.642 367.683l4.165-2.439a1.744 1.744 0 0 1 1.752-.005l4.067 2.349a.866.866 0 0 1 .021 1.488l-4.046 2.483a1.745 1.745 0 0 1-1.782.025l-4.171-2.402a.866.866 0 0 1-.006-1.499M254.264 373.02l4.165-2.437a1.74 1.74 0 0 1 1.752-.007l4.067 2.349a.865.865 0 0 1 .02 1.488l-4.045 2.483a1.745 1.745 0 0 1-1.782.025l-4.172-2.402a.866.866 0 0 1-.005-1.499M263.477 378.069l4.165-2.438a1.74 1.74 0 0 1 1.751-.007l4.068 2.35a.866.866 0 0 1 .02 1.487l-4.045 2.483a1.741 1.741 0 0 1-1.782.025l-4.172-2.402a.866.866 0 0 1-.005-1.498M272.492 383.18l4.165-2.438a1.74 1.74 0 0 1 1.751-.007l4.068 2.349a.865.865 0 0 1 .021 1.488l-4.046 2.483a1.738 1.738 0 0 1-1.78.025l-4.174-2.402a.867.867 0 0 1-.005-1.499M281.357 388.615l4.165-2.439a1.744 1.744 0 0 1 1.751-.005l4.068 2.349a.866.866 0 0 1 .021 1.488l-4.046 2.483a1.742 1.742 0 0 1-1.78.025l-4.174-2.402a.866.866 0 0 1-.005-1.499M291.015 394.302l4.165-2.437a1.74 1.74 0 0 1 1.752-.007l4.067 2.349a.866.866 0 0 1 .021 1.488l-4.046 2.483a1.742 1.742 0 0 1-1.78.025l-4.173-2.402a.866.866 0 0 1-.006-1.499M299.75 399.04l4.162-2.438c.54-.318 1.21-.32 1.753-.005l4.068 2.347a.867.867 0 0 1 .02 1.49l-4.045 2.481a1.745 1.745 0 0 1-1.782.026l-4.172-2.403a.866.866 0 0 1-.005-1.499M199.867 352.052l4.165-2.437a1.74 1.74 0 0 1 1.752-.007l4.067 2.349a.866.866 0 0 1 .021 1.488l-4.046 2.483a1.742 1.742 0 0 1-1.78.025l-4.173-2.402a.866.866 0 0 1-.006-1.499M209.193 357.417l4.164-2.437a1.74 1.74 0 0 1 1.752-.007l4.067 2.349a.866.866 0 0 1 .021 1.488l-4.046 2.483a1.738 1.738 0 0 1-1.78.025l-4.173-2.402a.866.866 0 0 1-.005-1.499M218.246 362.497l4.164-2.437c.541-.319 1.21-.32 1.752-.006l4.067 2.347a.865.865 0 0 1 .022 1.489l-4.047 2.483a1.742 1.742 0 0 1-1.78.024l-4.173-2.401a.867.867 0 0 1-.005-1.5M227.877 367.743l4.165-2.437a1.74 1.74 0 0 1 1.751-.007l4.068 2.349a.866.866 0 0 1 .021 1.488l-4.046 2.483a1.742 1.742 0 0 1-1.78.025l-4.174-2.402a.866.866 0 0 1-.005-1.499M237.156 373.28l4.165-2.437a1.74 1.74 0 0 1 1.752-.007l21.174 12.229a.865.865 0 0 1 .02 1.488l-4.045 2.483a1.738 1.738 0 0 1-1.78.025l-21.28-12.282a.866.866 0 0 1-.006-1.498M263.213 388.225l4.164-2.439a1.744 1.744 0 0 1 1.752-.005l4.068 2.349a.866.866 0 0 1 .02 1.488l-4.045 2.483a1.742 1.742 0 0 1-1.78.025l-4.174-2.404a.865.865 0 0 1-.005-1.497M272.078 393.66l4.164-2.437a1.74 1.74 0 0 1 1.752-.007l4.067 2.349a.866.866 0 0 1 .022 1.488l-4.046 2.483a1.738 1.738 0 0 1-1.78.025l-4.174-2.402a.866.866 0 0 1-.005-1.499M281.736 399.347l4.165-2.437c.54-.318 1.209-.32 1.751-.005l4.068 2.347a.868.868 0 0 1 .021 1.49l-4.046 2.481a1.745 1.745 0 0 1-1.782.027l-4.172-2.404a.866.866 0 0 1-.005-1.499M290.469 404.085l4.165-2.437a1.74 1.74 0 0 1 1.751-.007l4.068 2.349a.865.865 0 0 1 .02 1.488l-4.045 2.483a1.738 1.738 0 0 1-1.78.025l-4.174-2.402a.867.867 0 0 1-.005-1.499" fill="#D3DAED"/><g fill="#000" fill-opacity=".036"><path d="M134.536 337.932v-1.007l53.742-31.563c1.01-.583 2.197-.938 3.205-.355l28.215 16.197c.27.153.486.385.622.664l.158.325c.599 1.23.143 2.713-1.043 3.397l-52.75 30.44c-1.01.582-2.659.582-3.668 0l-27-15.537a2.958 2.958 0 0 1-1.48-2.561"/></g><g transform="translate(134.341 303.336)"><mask id="A" fill="#fff"><use xlink:href="#y"/></mask><path d="M52.573 1.522L1.24 31.672v.963c0 1.007.54 1.94 1.414 2.444l25.79 14.843c.964.557 2.54.557 3.504 0l50.388-29.077a2.491 2.491 0 0 0 .997-3.245l-.152-.311a1.479 1.479 0 0 0-.596-.637l-26.95-15.47a2.144 2.144 0 0 0-1.088-.284c-.668.002-1.356.268-1.973.624" fill="url(#z)" mask="url(#A)"/></g><path d="M136.302 335.745c-.963-.557-.963-1.467 0-2.024l50.47-29.133c.963-.557 2.54-.557 3.505 0l26.481 15.286c.964.557.964 1.467 0 2.024l-50.47 29.133c-.965.557-2.541.557-3.505 0l-26.48-15.286z" fill="#F9F7F9"/><g transform="translate(141.412 306.87)"><mask id="C" fill="#fff"><use xlink:href="#B"/></mask><path mask="url(#C)" d="M.97 25.235l26.667 15.394L69.375 16.37 42.708.977z"/></g><g><path d="M203.488 316.547a.4.4 0 0 1-.198-.054l-6.929-4a.399.399 0 1 1 .398-.688l6.93 4c.19.109.254.353.144.542a.397.397 0 0 1-.345.2" fill="#48486A"/><path d="M150.316 343.307c-1.19-.688-1.19-1.812 0-2.5 1.191-.687 3.139-.687 4.33 0 1.192.688 1.192 1.812 0 2.5-1.191.687-3.139.687-4.33 0" fill="#F1F2F2"/><path d="M272.257 407.273h-2.097a2.75 2.75 0 0 1-2.749-2.75v-17.83a2.75 2.75 0 0 1 2.75-2.748h2.096a2.748 2.748 0 0 1 2.748 2.749v17.829c0 1.52-1.23 2.75-2.748 2.75" fill="#F5C5C8"/><path d="M152.551 409.517c-5.057 0-9.975-2.62-12.69-7.31-4.055-7-1.665-15.962 5.337-20.012l66.583-38.545c7.006-4.053 15.962-1.662 20.016 5.337 4.053 7 1.663 15.961-5.339 20.014l-66.582 38.542a14.587 14.587 0 0 1-7.325 1.974" fill="#F2B1B5"/><path d="M89.929 476.84l-9.079 67.37a23.832 23.832 0 0 0 11.918 20.637l55.257 31.025c14.784 8.535 33.267-2.133 33.267-19.204V439.93c0-8.512 17.73-2.65 10.355-6.905l-77.53-44.758c-14.786-8.533-24.188 71.504-24.188 88.573" fill="#F5F7F9"/><path d="M82.544 368.659l-3.569 33.46a458.53 458.53 0 0 0-2.582 49.7l.06 25.732c-.811 8.024 2.717 57.317 4.338 65.113 1.043 5.005 111.526 35.43 132.064 31.71l-12.727-69.755a168.48 168.48 0 0 0-1.394-15.261l3.5-40.71c2.4-34.074 2.232-76.654-31.286-97.525a86.586 86.586 0 0 0-4.345-2.537l-35.671-19.473a27.22 27.22 0 0 0-27.215 0c-14.003 8.084-18.984 23.164-21.173 39.546" fill="#172234"/><path d="M137.548 354.985c-6.686 0-12.105-5.42-12.105-12.103v-47.58c0-6.683 5.42-12.102 12.105-12.102 6.683 0 12.103 5.419 12.103 12.102v47.58c0 6.684-5.42 12.103-12.103 12.103" fill="#F2B1B5"/><path d="M148.634 340.492h-13.763a8.223 8.223 0 0 1-8.225-8.222V268.1a8.224 8.224 0 0 1 8.225-8.224h51.464v42.922c0 20.819-16.88 37.694-37.7 37.694" fill="#F2B1B5"/><path d="M181.901 259.874v41.88c0 21.395-17.346 38.738-38.741 38.738h4.431c21.397 0 38.743-17.343 38.743-38.738v-41.88h-4.433z" fill="#F5C5C8"/><path d="M199.903 243.906c-3.002-6.136-9.91-10.275-16.743-6.792-3.21 1.637-5.44 2.512-8.588.594-4.168-2.541-5.226-4.174-10.862-3.391-2.289.32-5.292 2.322-7.415 2.27-4.58-.107-7.555-3.721-12.867-2.122-4.1 1.235-4.693 1.463-8.9.93-2.948-.375-5.736-.4-8.545.74-5.428 2.204-5.071 6.262-8.184 9.956-2.625 3.114-6.365 1.044-9.497 3.94-2.677 2.474-3.522 6.723-1.994 10.031.717 1.554 1.923 3.208 1.283 4.793-.45 1.12-1.663 1.697-2.515 2.552-3.117 3.134-.623 8.351 1.755 12.079.461.724.933 1.513.903 2.372-.037 1.13-.908 2.023-1.594 2.921-3.242 4.249-2.574 10.969 1.44 14.495 1.86 1.633 4.481 2.92 4.86 5.365.208 1.352-.368 2.683-.706 4.01-1.297 5.098 1.34 10.923 6.028 13.313 5.473 2.789.463 12.693 8.895 13.483 6.614.62 12.66-7.601 14.07-13.16-.212.836 4.273-1.476 4.635-1.888 1.259-1.43 1.43-3.695 2.01-5.436 1.221-3.666 1.904-6.884 2.164-10.813.091-1.377-.19-16.852 1.263-16.894 2.912-.085 5.89-.184 8.612-1.24 6.491-2.518 3.781-6.74 6.244-11.302 1.196-2.216 4.026-2.688 5.349-4.924 1.454-2.458 1.069-5.712.728-8.404 5.792 1.248 12.992 2.492 18.62.08 4.573-1.962 10.977-5.25 11.1-10.757.05-2.35-.519-4.694-1.55-6.8" fill="#48486A"/><path d="M201.451 250.708c-.122 5.507-6.526 8.794-11.099 10.754-3.136 1.345-6.756 1.536-10.35 1.243 1.828-.175 3.605-.541 5.242-1.243 4.57-1.96 10.977-5.247 11.099-10.754.053-2.351-.518-4.695-1.549-6.801-1.852-3.79-5.2-6.803-9.096-7.745 5.948-1.472 11.576 2.368 14.205 7.745 1.03 2.106 1.6 4.45 1.548 6.8" fill="#6D6D88"/><path d="M164.31 294.334a8.761 8.761 0 0 1-8.763 8.761 8.762 8.762 0 1 1 0-17.524 8.763 8.763 0 0 1 8.764 8.763" fill="#F2B1B5"/><path d="M187.245 447.86c3.303 6.687 8.016 12.321 13.632 16.568l1.357-15.78c.424-6.024.764-12.316.858-18.707-.055-6.491-.352-13.027-1.052-19.471l-18.525-37.518c-3.829-7.756-12.711-10.663-19.837-6.497-7.127 4.165-9.8 13.83-5.97 21.583l29.537 59.823z" fill="#231F20"/><path d="M227 457.054c-2.502 0-5.014-.213-7.513-.647a43.953 43.953 0 0 1-29.674-19.958l-33.099-52.907c-4.288-6.857-2.208-15.894 4.65-20.185 6.86-4.288 15.897-2.208 20.19 4.65l33.098 52.907c2.224 3.558 5.73 5.914 9.862 6.635 4.126.71 8.227-.313 11.525-2.91l44.402-34.94c6.358-5.003 15.569-3.905 20.57 2.449 5.004 6.357 3.904 15.565-2.452 20.569l-44.4 34.941a43.958 43.958 0 0 1-27.16 9.396" fill="#F2B1B5"/><path d="M160.145 367.02c6.856-4.289 15.894-2.21 20.186 4.65l33.1 52.904c2.225 3.56 5.728 5.916 9.863 6.635 4.126.712 8.225-.313 11.525-2.907l44.4-34.943c6.358-5.002 7.58-8.664 1.221-3.66l-44.4 34.94c-3.3 2.595-7.4 3.62-11.525 2.91-4.134-.721-7.64-3.077-9.863-6.635l-33.1-52.907c-4.291-6.857-13.33-8.938-20.188-4.65-3.591 2.248-5.858 5.799-6.6 9.655a14.557 14.557 0 0 1 5.38-5.993" fill="#F5C5C8"/><path d="M181.47 427.206s-3.088-5.761-6.195-10.73l-20.03-32.016c-4.799-7.667-2.469-17.775 5.2-22.571 7.673-4.799 17.778-2.47 22.576 5.2l23.778 37.387s-4.723 10.261-13.356 12.967c-6.327 1.983-11.973 9.763-11.973 9.763" fill="#172234"/><path d="M204.609 373.116l.433-2.05a2.748 2.748 0 0 1 3.258-2.121l17.448 3.683a2.748 2.748 0 0 1 2.121 3.258l-.431 2.05a2.752 2.752 0 0 1-3.26 2.12l-17.446-3.683a2.75 2.75 0 0 1-2.123-3.257" fill="#F2B1B5"/><path d="M108.638 736.159a6.035 6.035 0 0 1-6.003-6.737l28.148-227.288c.387-3.31 5.377-5.689 8.71-5.293 3.31.387 7.692 3.385 7.305 6.695l-32.173 227.287a6.035 6.035 0 0 1-5.987 5.336M4.622 674.065a6.034 6.034 0 0 1-4.244-7.962L58.332 497.45c1.158-3.125 6.567-4.261 9.711-3.091 3.127 1.157 6.678 5.102 5.52 8.229L11.699 670.293a6.034 6.034 0 0 1-7.076 3.772M245.66 663.66a6.036 6.036 0 0 1-6.572-4.594L204.95 547.188c-.773-3.242 3.228-6.734 6.47-7.505 3.233-.783 8.497.995 9.27 4.237l30.14 112.348a6.035 6.035 0 0 1-5.171 7.393" fill="#452F6F"/><g fill="#231F20" fill-opacity=".302"><path d="M68.044 494.36c-3.145-1.17-8.554-.035-9.711 3.092L34.395 567.11c1.275.96 2.598 1.87 4.004 2.681l8.553 4.938 26.612-72.141c1.158-3.125-2.393-7.072-5.52-8.228M131.06 614.72l15.737-111.184c.387-3.31-3.993-6.31-7.304-6.695-3.334-.396-8.324 1.983-8.709 5.293l-13.57 109.57a105.2 105.2 0 0 0 13.846 3.015"/></g><path d="M220.69 543.92c-.43-1.805-2.263-3.134-4.355-3.842-3.487 1.983-7.136 3.356-10.839 4.09-.525.971-.788 2.004-.544 3.02l13.234 43.373 12.99-7.557-10.485-39.084z" fill-opacity=".302" fill="#231F20"/><path d="M36.895 454.114l-17.886 66.113a39.555 39.555 0 0 0 19.39 39.8l55.502 32.04c32.573 18.8 72.72 18.732 105.225-.183l59.202-34.44.02-24.819c0-12.905-14.093-20.867-25.15-14.21l-16.048 11.47c-19.758 11.899-50.079-15.162-57.514-36.992L151.35 474.3a72.144 72.144 0 0 0-29.32-32.811l-15.453-9.087c-25.083-14.752-57.42-4.678-69.682 21.711" fill="#107EFF"/><path d="M23.439 530.191l17.885-66.11c12.262-26.39 44.601-36.466 69.684-21.711l15.453 9.086a72.131 72.131 0 0 1 29.318 32.811l3.984 8.936c-.037-.106-.09-.203-.127-.31l-8.287-18.592a72.144 72.144 0 0 0-29.32-32.812l-15.45-9.086c-25.084-14.752-57.423-4.678-69.685 21.711l-17.885 66.113c-1.33 9.397.797 18.699 5.6 26.424a39.45 39.45 0 0 1-1.17-16.46" fill="#449AFF"/><path d="M258.328 546.37l-59.202 34.442c-32.506 18.915-72.652 18.985-105.225.182L38.4 548.953c-10.717-6.188-17.709-16.896-19.377-28.756l-.013.03a39.555 39.555 0 0 0 19.39 39.8L93.9 592.065c32.573 18.803 72.72 18.734 105.225-.18l59.202-34.44.02-24.82c0-.042-.01-.08-.01-.125l-.01 13.87z" fill="#005ECE"/></g><g><path fill="#7D81B1" d="M534.118 483.755l46.959-27.108v-.633l-67.59-36.589-35.53 31.69z"/><path fill="#48486A" d="M534.118 483.121l46.959-27.108-67.59-37.221-35.53 31.69z"/><path fill="#F1F2F2" d="M532.217 482.488l46.958-27.108.318-8.625-67.908-29.231-35.528 31.691z"/><path fill="#7D81B1" d="M505.942 403.065l75.136 42.739v.634l-46.961 27.107-75.134-43.374z"/><path fill="#5C629E" d="M505.942 402.431l75.136 43.374-46.961 27.107-75.134-43.374z"/><path fill="#FFF" d="M515.73 412.567l21.106 12.14-37.773 21.805-21.104-12.14z"/><path fill="#7D81B1" d="M459.618 429.856v10.548l74.499 43.35.634-.365v-10.16z"/><path fill="#5C629E" d="M458.982 429.539v10.55l75.136 43.666v-10.843z"/><path fill="#E4E9F4" d="M522.086 466.235l39.44-22.766v-.534l-56.768-30.73-29.84 26.617z"/><path fill="#9EA4B2" d="M522.086 465.703l39.44-22.767-56.768-31.262-29.84 26.615z"/><path fill="#FFF" d="M520.49 465.171l39.439-22.767.267-7.243-57.035-24.553-29.84 26.617z"/><path fill="#E4E9F4" d="M498.423 398.466l63.101 35.896v.53l-39.438 22.768-63.103-36.426z"/><path fill="#D3DAED" d="M498.423 397.934l63.101 36.427-39.438 22.768-63.103-36.428z"/><path fill="#FFF" d="M506.643 406.446l17.724 10.196-31.722 18.312-17.726-10.194z"/><path fill="#E4E9F4" d="M459.516 420.967v8.858l62.57 36.41.533-.307v-8.533z"/><path fill="#DCE1F1" d="M458.982 420.701v8.858l63.104 36.675v-9.105z"/></g><g fill="#000" fill-opacity=".024"><path d="M403.58 432.471c-1.733-.998-4.57-.998-6.3 0l-90.757 52.391c-1.732 1-1.732 2.637 0 3.637l58.656 33.86c1.734 1.002 4.568.999 6.298-.007l90.509-52.522c1.73-1.004 1.73-2.644-.003-3.644l-58.404-33.715z"/></g><g transform="translate(305.803 430.588)"><mask id="E" fill="#fff"><use xlink:href="#D"/></mask><path d="M89.197 1.03L2.201 49.934c-.336.19-.543.545-.543.93v1.65c0 .692.37 1.333.972 1.68l56.045 32.318c1.648.951 4.343.946 5.987-.009l85.857-49.789a2.874 2.874 0 0 0 1.437-2.508l-.007-1.262L95.189 1.03c-.823-.475-1.908-.712-2.996-.712-1.085 0-2.172.237-2.996.712" mask="url(#E)"/></g><g><path d="M400.994 429.544c-1.65-.95-4.345-.95-5.995 0l-86.301 49.82c-1.648.952-1.648 2.507 0 3.46l55.78 32.198c1.647.951 4.343.95 5.987-.007l86.07-49.945c1.647-.954 1.645-2.515-.004-3.465l-55.537-32.061z" fill="#FFF"/><path fill="#D3DAED" d="M393.267 436.83l48.366 27.92-24.64 13.928-48.137-27.828z"/><path fill="#E4E9F4" d="M366.424 453.038l21.974 12.805-27.524 15.556-21.716-12.702z"/><path fill="#EDF0F8" d="M392.309 468.163l21.975 12.803-27.525 15.556-21.716-12.7z"/><path fill="#DCE1F1" d="M329.916 473.25l52.546 30.175-2.647 1.528-52.456-30.14zM334.931 483.242l27.64 15.852-2.645 1.527-27.55-15.816z"/></g><g transform="translate(415.397 428.82)"><mask id="H" fill="#fff"><use xlink:href="#F"/></mask><path fill="url(#G)" mask="url(#H)" d="M1.137.875l3.673 4.42 39.565 22.623 1.992-3.728L4.81.558z"/></g><g><path fill="#F9F7F9" d="M420.206 429.38v4.737l-3.671-4.42z"/><path fill="#48486A" d="M417.384 429.622l-.849.074.849 1.021z"/><path d="M460.819 453.166c-.827.475-1.5 1.643-1.499 2.596.002.952.679 1.343 1.504.866.824-.476 1.5-1.644 1.5-2.595 0-.952-.678-1.343-1.505-.867" fill="#FFC107"/><path d="M460.819 453.2c-.81.465-1.47 1.61-1.469 2.543.002.935.665 1.319 1.474.852.808-.468 1.47-1.612 1.47-2.547 0-.931-.664-1.315-1.475-.848" fill="#F5F7F9"/><path d="M460.82 454.432a.887.887 0 0 0-.4.697c0 .254.182.36.403.231a.889.889 0 0 0 .4-.694c0-.257-.18-.36-.402-.234" fill="#48486A"/></g><g><path d="M465 196.54c0 5.111-3.59 7.162-7.981 4.556l-62.216-35.252c-4.39-2.606-8.029-8.92-8.081-14.032l-.84-89.11c-.055-5.111 3.498-7.179 7.899-4.588l63.218 35.355c4.4 2.588 8.001 8.89 8.001 14.001v89.07z" fill-opacity=".565" fill="#107EFF"/><path d="M475 175.87c0 4.61-3.222 6.46-7.162 4.11l-55.832-31.798c-3.94-2.35-7.205-8.046-7.252-12.657l-.753-80.377c-.05-4.611 3.139-6.476 7.088-4.14l56.73 31.89c3.95 2.336 7.181 8.02 7.181 12.63v80.342z" fill-opacity=".565" fill="#107EFF" opacity=".25"/><path d="M462.22 109.355c0-5.114-3.598-11.415-7.994-14.004L391.22 59.827c-1.555-.917-3.003-1.24-4.224-1.06 1.316-2.151 3.955-2.597 7.005-.801l63.007 35.524c4.396 2.59 7.993 8.893 7.993 14.007v89.042c0 3.284-1.483 5.297-3.704 5.633.586-.944.923-2.214.923-3.772v-89.045z" fill="#107EFF"/><path d="M445.198 176.713c0 .8-.221 1.283-.526 1.482-.287.184-.696.17-1.268-.177-.78-.473-1.183-1.081-1.3-1.25l.267-.254c.182.28.559.71 1.02.99.383.232.624.24.825.09.221-.159.377-.538.377-1.221-.149.215-.507.356-1.215-.074-.702-.425-1.378-1.355-1.378-2.213 0-.864.585-1.192 1.528-.621.812.492 1.196 1.232 1.358 1.597.15.331.312.891.312 1.651zm-.715-1.2c0-.507-.319-1.175-.943-1.553-.617-.374-.929-.089-.929.418s.312 1.171.93 1.545c.623.379.942.097.942-.41zm4.698 4.492c0 .982-.813 1.022-1.658.51s-1.313-1.264-1.475-1.649l.35-.15c.196.449.618.972 1.119 1.275.507.307 1.04.318 1.04-.364 0-.683-.527-1.314-1.04-1.625-.293-.177-.618-.29-.793-.24l-.319-.382.39-1.87 2.256 1.368v.507l-1.8-1.092-.235 1.048c.176.028.39.12.637.27.728.44 1.528 1.413 1.528 2.394zm5.477 3.756c0 .643-.448.807-1.06.437-.61-.37-1.059-1.078-1.059-1.722 0-.643.449-.807 1.06-.436.61.37 1.06 1.077 1.06 1.72zm-1.105-4.258l.325.392-2.775 2.861-.325-.392 2.775-2.861zm-1.436.28c0 .643-.449.813-1.06.443-.61-.37-1.06-1.084-1.06-1.728 0-.637.45-.807 1.06-.436.611.37 1.06 1.084 1.06 1.72zm2.086 3.695c0-.39-.234-.817-.604-1.042-.37-.225-.605-.08-.605.31 0 .396.234.817.605 1.042.37.225.604.087.604-.31zm-2.541-3.971c0-.397-.234-.818-.605-1.042-.37-.225-.604-.087-.604.31 0 .39.234.81.604 1.035.37.225.605.087.605-.303z" fill="#ACD2FF"/><g transform="translate(385 50)"><use fill="#000" filter="url(#I)" xlink:href="#J"/><use fill="#FFF" xlink:href="#J"/></g><g transform="translate(393.198 87.611)"><use fill="#000" filter="url(#K)" xlink:href="#L"/><use fill="#00499F" xlink:href="#L"/></g><use fill="#107EFF" xlink:href="#M" transform="translate(393.198 87.611)"/><path d="M421.698 143.33c12.426 7.026 22.5 3.207 22.5-8.53 0-11.735-10.074-26.944-22.5-33.97-12.426-7.024-22.5-3.205-22.5 8.531s10.074 26.945 22.5 33.97z" stroke-opacity=".23" stroke="#FFF" stroke-width="1.25"/><path fill="#FFF" d="M421.19 109.669l1.258.71v18.75l-1.258-.71zM421.19 130.919l1.258.71v12.5l-1.258-.71z"/><path d="M421.82 110.65c-1.734-.98-3.145-3.18-3.145-4.903 0-1.723 1.41-2.328 3.144-1.348 1.734.98 3.144 3.18 3.144 4.903 0 1.723-1.41 2.328-3.144 1.347zm0-5c-1.04-.588-1.887-.226-1.887.808s.846 2.354 1.886 2.941c1.04.588 1.886.226 1.886-.808s-.846-2.354-1.886-2.942z" fill="#FFF" fill-rule="nonzero"/><path d="M421.82 144.4c-2.082-1.177-3.774-3.815-3.774-5.883 0-.82.261-1.45.756-1.824l1.005 1.319c-.33.25-.503.67-.503 1.216 0 1.378 1.128 3.137 2.515 3.921 1.387.785 2.515.301 2.515-1.078 0-1.113-1.078-2.337-2.488-3.822l-.308-.324.563-.8.299.315c1.27 1.338 3.192 3.36 3.192 5.342 0 2.068-1.692 2.794-3.773 1.617z" fill="#FFF"/><path d="M421.538 137.925a46.923 46.923 0 0 0-.377-.395c-1.528-1.593-4.372-4.558-4.372-7.224 0-1.993 1.768-2.032 2.824-2.056l.64 1.439c-1.207.026-2.207.145-2.207 1.328 0 1.879 2.38 4.36 3.66 5.693.145.152.277.29.394.415l-.562.8zM424.615 138.415l-.562-1.437c1.036.071 1.539-.484 1.539-1.696 0-1.848-2.435-4.406-3.744-5.78l-.31-.327.562-.8.3.315c1.444 1.517 4.45 4.673 4.45 7.303 0 1.684-.773 2.52-2.235 2.422z" fill="#FFF"/><path d="M421.82 129.473l-.582-.614c-1.52-1.595-5.078-5.328-5.078-8.284 0-2.854 2.19-3.136 3.773-2.242v1.25c-.877-.496-2.515-.505-2.515 1.703 0 2.174 3.062 5.388 4.37 6.76l.031.032.03.003c1.309.107 4.372.356 4.372-1.818 0-2.208-1.638-4.051-2.516-4.547v-1.25c1.583.894 3.773 3.653 3.773 6.508 0 2.955-3.558 2.665-5.078 2.541l-.58-.042zM419.933 117.083l-2.515-1.422c-6.4-3.618-13.882-9.766-15.688-16.17-.064-.228-.031-.42.087-.515.118-.096.308-.085.51.029 5.336 3.017 7.252 2.962 8.79 2.917.97-.027 1.807-.051 3.157.712 1.675.947 3.144 3.238 3.144 4.902v1.875c0 .69.564 1.569 1.257 1.961l1.258.711v1.25l-1.258-.71c-1.387-.785-2.515-2.544-2.515-3.923v-1.875c0-1.055-1.014-2.448-1.886-2.941-1.003-.567-1.636-.548-2.512-.524-1.492.043-3.505.101-8.493-2.584 1.487 3.697 5.842 8.94 14.149 13.635l2.515 1.422v1.25z" fill="#FFF"/><path fill="#FFF" d="M414.902 111.114l1.258.711v2.5l-1.258-.71zM412.387 109.067l1.258.711v3.125l-1.258-.71zM409.872 107.02l1.258.711v3.125l-1.258-.71zM407.357 104.974l1.258.71v2.5l-1.258-.71zM426.22 120.638l-2.515-1.422v-1.25l2.516 1.422c8.307 4.696 12.66 4.378 14.148 2.36-4.988-2.954-7-5.287-8.493-7.018-.876-1.014-1.51-1.748-2.511-2.315-.873-.493-1.887-.247-1.887.809v1.875c0 1.378-1.128 1.862-2.515 1.078l-1.258-.711v-1.25l1.258.71c.694.393 1.258.151 1.258-.538v-1.875c0-1.665 1.468-2.295 3.144-1.348 1.349.763 2.187 1.734 3.156 2.858 1.539 1.784 3.454 4.004 8.79 7.021.202.114.392.318.51.548.119.23.15.458.087.612-1.806 4.363-9.288 2.052-15.687-1.566z"/><path fill="#FFF" d="M427.478 118.224l1.258.71v2.5l-1.258-.71zM429.993 119.02l1.258.712v3.125l-1.258-.711zM432.509 119.817l1.257.711v3.125l-1.257-.71zM435.024 120.614l1.257.711v2.5l-1.257-.71z"/><g transform="translate(396.5 155)"><mask id="O" fill="#fff"><use xlink:href="#N"/></mask><use fill="#107EFF" xlink:href="#N"/><path fill="#2ECC71" mask="url(#O)" d="M.095.133l54.186 27.29v8.89L.095 7.059z"/></g><g><path d="M465 319.54c0 5.111-3.59 7.162-7.981 4.556l-62.216-35.252c-4.39-2.606-8.029-8.92-8.081-14.032l-.84-89.11c-.055-5.111 3.498-7.179 7.899-4.588l63.218 35.355c4.4 2.588 8.001 8.89 8.001 14.001v89.07z" fill-opacity=".565" fill="#107EFF"/><path d="M475 300.87c0 4.61-3.222 6.46-7.162 4.11l-55.832-31.798c-3.94-2.35-7.205-8.046-7.252-12.657l-.753-80.377c-.05-4.611 3.139-6.476 7.088-4.14l56.73 31.89c3.95 2.336 7.181 8.02 7.181 12.63v80.342z" fill-opacity=".565" fill="#107EFF" opacity=".25"/><path d="M462.22 232.355c0-5.114-3.598-11.415-7.994-14.004l-63.007-35.524c-1.555-.917-3.003-1.24-4.224-1.06 1.316-2.151 3.955-2.597 7.005-.801l63.007 35.524c4.396 2.59 7.993 8.893 7.993 14.007v89.042c0 3.284-1.483 5.297-3.704 5.633.586-.944.923-2.214.923-3.772v-89.045z" fill="#107EFF"/><g transform="translate(385 174.5)"><use fill="#000" filter="url(#P)" xlink:href="#Q"/><use fill="#FFF" xlink:href="#Q"/></g><path d="M440.488 294.002v4.485l-.61-.369v-4.023l-.878-.53v-.461l1.489.898zm4.796 5.14c0 1.164-.507 2.003-1.716 1.273-1.21-.729-1.716-2.179-1.716-3.342 0-1.17.513-2.004 1.716-1.28 1.209.73 1.716 2.18 1.716 3.35zm-.637-.396c0-1.027-.358-1.984-1.08-2.42-.72-.434-1.078.091-1.078 1.118 0 1.02.357 1.984 1.079 2.419.721.435 1.079-.097 1.079-1.117zm4.678 2.834c0 1.164-.507 2.002-1.716 1.273-1.21-.73-1.716-2.18-1.716-3.343 0-1.17.513-2.004 1.716-1.279 1.209.73 1.716 2.18 1.716 3.35zm-.637-.397c0-1.027-.358-1.984-1.08-2.419-.72-.435-1.078.09-1.078 1.117 0 1.02.357 1.984 1.079 2.42.721.434 1.079-.098 1.079-1.118zm5.92 4.818c0 .644-.45.809-1.06.44-.611-.368-1.06-1.074-1.06-1.718 0-.643.449-.808 1.06-.44.61.369 1.06 1.075 1.06 1.718zm-1.106-4.254l.325.39-2.775 2.87-.325-.39 2.775-2.87zm-1.436.284c0 .643-.449.815-1.06.446-.61-.368-1.06-1.08-1.06-1.724 0-.637.45-.809 1.06-.44.611.368 1.06 1.08 1.06 1.718zm2.086 3.69c0-.39-.234-.818-.604-1.041-.37-.224-.605-.079-.605.311 0 .397.234.817.605 1.04.37.224.604.086.604-.31zm-2.541-3.965c0-.396-.234-.817-.605-1.04-.37-.224-.604-.085-.604.311 0 .39.234.81.604 1.034.37.224.605.085.605-.305z" fill="#ACD2FF"/><g transform="translate(393.198 210.111)"><use fill="#000" filter="url(#R)" xlink:href="#S"/><use fill="#00499F" xlink:href="#S"/><use fill="#107EFF" xlink:href="#T"/></g><path fill="#FFFFFE" d="M420.765 229.808l1.682-.369 1.683 2.217-.64-2.442 1.708-.355-2.106-1.157-.645-2.47-.644 1.765-2.105-1.159 1.707 2.231zM412.766 226.915l1.682-.368 1.682 2.215-.64-2.44 1.708-.355-2.106-1.157-.645-2.472-.644 1.767-2.105-1.159 1.707 2.23zM407.448 224.994l-.645 1.766-2.105-1.158 1.708 2.23-.64 1.738 1.682-.368 1.682 2.216-.64-2.441 1.708-.355-2.105-1.156zM404.948 236.33l1.681 2.215-.638-2.44 1.707-.355-2.105-1.156-.645-2.472-.644 1.768-2.106-1.161 1.708 2.23-.64 1.739zM408.093 244.466l-.645-2.472-.645 1.766-2.105-1.158 1.708 2.23-.64 1.738 1.682-.37 1.682 2.218-.64-2.441 1.708-.355zM415.092 254.809l-.645-2.47-.643 1.765-2.106-1.16 1.707 2.231-.639 1.74 1.682-.369 1.681 2.216-.638-2.442 1.707-.355zM423.092 260.704l-.645-2.472-.643 1.767-2.106-1.16 1.708 2.23-.64 1.74 1.682-.369 1.682 2.216-.64-2.442 1.708-.354zM431.591 263.87l-.643-2.47-.646 1.764-2.104-1.158 1.707 2.23-.64 1.74 1.683-.369 1.682 2.218-.641-2.444 1.709-.354zM438.594 261.217l-.646-2.472-.646 1.765-2.104-1.158 1.709 2.231-.642 1.738 1.683-.37 1.683 2.218-.642-2.442 1.709-.354zM442.198 254.697l-2.106-1.157-.645-2.472-.644 1.767-2.105-1.159 1.708 2.23-.639 1.74 1.68-.372 1.682 2.218-.64-2.441zM436.265 246.321l1.683-.369 1.682 2.217-.64-2.443 1.708-.352-2.104-1.156-.646-2.473-.646 1.766-2.104-1.158 1.709 2.23zM430.947 231.4l-.644 1.767-2.105-1.161 1.706 2.231-.639 1.74 1.684-.37 1.68 2.217-.64-2.441 1.709-.357-2.108-1.157z"/><g transform="translate(396.5 277.5)"><mask id="V" fill="#fff"><use xlink:href="#U"/></mask><use fill="#107EFF" xlink:href="#U"/><path fill="#2ECC71" mask="url(#V)" d="M.095.133l60.186 32.57v10.61L.095 8.399z"/></g></g><g><path d="M384 125.87c0 4.61-3.222 6.46-7.162 4.11l-55.832-31.798c-3.94-2.35-7.205-8.046-7.252-12.657l-.753-80.377c-.05-4.611 3.139-6.476 7.088-4.14l56.73 31.89c3.95 2.336 7.181 8.02 7.181 12.63v80.342z" fill-opacity=".565" fill="#107EFF" opacity=".25"/><path d="M376 147.54c0 5.111-3.59 7.162-7.981 4.556l-62.216-35.252c-4.39-2.606-8.029-8.92-8.081-14.032l-.84-89.11c-.055-5.111 3.498-7.179 7.899-4.588l63.218 35.355c4.4 2.588 8.001 8.89 8.001 14.001v89.07z" fill-opacity=".565" fill="#107EFF"/><path d="M373.22 60.355c0-5.114-3.598-11.415-7.994-14.004L302.22 10.827c-1.555-.917-3.003-1.24-4.224-1.06 1.316-2.151 3.955-2.597 7.005-.801l63.007 35.524c4.396 2.59 7.993 8.893 7.993 14.007v89.042c0 3.284-1.483 5.297-3.704 5.633.586-.944.923-2.214.923-3.772V60.355z" fill="#107EFF"/><g transform="translate(306.595 105.633)"><mask id="X" fill="#fff"><use xlink:href="#W"/></mask><use fill="#107EFF" xlink:href="#W"/><path fill="#2ECC71" mask="url(#X)" d="M0 0l35.363 16.917v8.89L0 6.926z"/></g><g transform="translate(296)"><use fill="#000" filter="url(#Y)" xlink:href="#Z"/><use fill="#FFF" xlink:href="#Z"/></g><path d="M355.198 128.067c0 .864-.585 1.234-1.528.731-.838-.447-1.215-1.182-1.358-1.498-.15-.327-.312-.85-.312-1.63 0-.812.221-1.305.526-1.519.3-.21.696-.22 1.287.096.69.367 1.092.914 1.261 1.128l-.266.28c-.273-.373-.598-.703-.988-.91-.39-.21-.624-.191-.832-.03-.208.163-.384.544-.384 1.226.163-.206.507-.366 1.216.012.708.378 1.378 1.256 1.378 2.114zm-.611-.261c0-.507-.312-1.148-.93-1.478-.624-.333-.942-.029-.942.478s.318 1.152.942 1.485c.618.33.93.022.93-.485zm4.737 1.696c0 1.164-.507 2.037-1.716 1.392-1.21-.646-1.716-2.06-1.716-3.224 0-1.17.513-2.04 1.716-1.398 1.209.646 1.716 2.06 1.716 3.23zm-.637-.353c0-1.027-.358-1.959-1.08-2.344-.72-.385-1.078.165-1.078 1.192 0 1.02.357 1.96 1.079 2.344.721.385 1.079-.171 1.079-1.192zm5.92 4.409c0 .643-.45.84-1.06.513-.611-.326-1.06-1.001-1.06-1.645 0-.643.449-.84 1.06-.513.61.326 1.06 1.001 1.06 1.645zm-1.106-4.178l.325.368-2.775 3.062-.325-.369 2.775-3.061zm-1.436.383c0 .644-.449.846-1.06.52-.61-.326-1.06-1.007-1.06-1.651 0-.637.45-.84 1.06-.513.611.326 1.06 1.007 1.06 1.644zm2.086 3.545c0-.39-.234-.8-.604-.998-.37-.198-.605-.037-.605.353 0 .396.234.8.605.999.37.197.604.043.604-.354zm-2.541-3.788c0-.396-.234-.8-.605-.998-.37-.198-.604-.044-.604.353 0 .39.234.794.604.992.37.198.605.043.605-.347z" fill="#ACD2FF"/><g transform="translate(304.198 38.611)"><use fill="#000" filter="url(#aa)" xlink:href="#ab"/><use fill="#00499F" xlink:href="#ab"/><mask id="ad" fill="#fff"><use xlink:href="#ac"/></mask><use fill="#107EFF" xlink:href="#ac"/><path d="M30.694 52.17a14.902 14.902 0 0 1-2.004-1.142 8.353 8.353 0 0 1-.833-.506c-5.405-3.571-10.382-9.305-13.49-15.954.226.153.496.22.721.44a46.519 46.519 0 0 0 1.825 3.312c.585.909 1.125 1.769 1.756 2.544.585-.047 1.239.014 1.802-.023-.699-1.292-1.42-2.598-1.937-3.854.157.024.45.216.676.393.562 1.168 1.17 2.363 1.891 3.532.968.198 1.914.361 2.905.663l.09-.038-.563-1.646c.248.098.406.212.653.379.203.504.36 1.028.586 1.545 1.306.463 2.68 1.102 4.076 1.867.18-.054.045-.474.112-.64l.608.354c.068.266-.022.464.068.721 1.306.827 2.68 1.761 3.94 2.812l.113.043.608-.83c.203.118.473.23.631.412l-.563.992.045.072c1.036.874 2.004 1.846 2.995 2.83.698-.344 1.351-.852 1.937-1.376.247.143.495.265.675.437-.27.344-.608.648-.968.871a4.198 4.198 0 0 1-.99.653v.114l1.575 1.847.226.222c1.373-.27 2.59-.861 3.558-1.732.27.157.495.197.72.442-3.017 2.887-7.994 2.976-13.376.283l-.023-.059-.045.02zm2.32.323v-.045c-1.96-2.594-5.135-4.575-7.206-4.436-.113.026-.338-.06-.36.087 2.386 1.955 5.201 3.635 7.566 4.394zm6.193.822l-.045-.117-1.554-1.79-.113-.065c-1.193.535-2.59.793-4.008.81.045.186.27.43.428.636 1.891.598 3.67.767 5.292.526zm-14.188-6.079a54.018 54.018 0 0 1-4.03-5.548 4.995 4.995 0 0 0-1.712-.039v.046a36.518 36.518 0 0 0 4.662 5.118c.067.107.112.202.202.254v-.045c.18.059.315.342.473.297.135-.035.293-.035.405-.083zm11.823 3.432l-.045-.095c-.878-.896-1.779-1.783-2.747-2.55-.698.8-1.464 1.56-2.32 2.223.315.365.698.724 1.036 1.102 1.464.1 2.882-.145 4.076-.68zm-10.134-3.293l-.067-.22c-.856-1.59-1.532-3.165-2.207-4.717l-.09-.075c-.923-.286-1.824-.514-2.68-.624l.045.163c1.239 1.925 2.545 3.684 3.986 5.294.338.06.676.142 1.013.18zm2.185.837c.067-1.144.022-2.534.022-3.785-.63-.458-1.193-.67-1.824-.992-.608-.262-1.373-.638-1.982-.787a42.25 42.25 0 0 0 2.343 4.932l1.44.632zm2.117 1.411c.878-.627 1.734-1.29 2.319-2.201a27.953 27.953 0 0 0-3.716-2.613c-.045 1.18-.022 2.535 0 3.799.45.33.946.685 1.397 1.015zM24.299 21.161c-.225-.13-.473-.229-.63-.388l.562-1.016-.067-.107a58.769 58.769 0 0 1-2.973-2.795l-.09-.007c-.63.339-1.238.759-1.734 1.244-.113.322-.563-.167-.81-.266.54-.686 1.26-1.155 1.981-1.646-.608-.717-1.216-1.48-1.847-2.142-1.35.262-2.612.894-3.558 1.778-.27-.112-.45-.24-.72-.419 1.621-1.651 4.143-2.46 6.778-2.272 0 0 0 .022.023.035.022.013.067-.006.022-.055 1.78.146 3.67.608 5.675 1.499 6.914 3.082 13.512 9.94 17.34 18.122a5.905 5.905 0 0 1-.72-.418 40.047 40.047 0 0 0-3.446-5.777c-.045-.094-.18-.15-.225-.108-.563.037-1.171-.02-1.712.03.72 1.305 1.419 2.598 1.96 3.89l-.699-.406c-.563-1.169-1.148-2.396-1.891-3.578-.991-.166-1.892-.325-2.905-.64l-.113.025c.158.547.45 1.149.54 1.656l-.607-.353-.608-1.582c-1.33-.476-2.793-1.166-4.144-1.86-.068.165.023.513-.068.643l-.585-.34c-.045-.3.067-.438-.068-.745a46.445 46.445 0 0 1-4.053-2.854l-.608.852zm4.729-2.484c-.473-.389-.991-.69-1.441-1.065-.924.578-1.69 1.34-2.342 2.21l.112.157c1.171.908 2.387 1.796 3.648 2.528l.023-3.83zm4.436 5.965l.023-.055c-.63-1.595-1.419-3.235-2.275-4.846-.383-.268-.743-.318-1.126-.518l-.382-.177c-.046 1.316-.068 2.486 0 3.867 1.283.722 2.567 1.331 3.76 1.729zm-8.895-5.37c.653-.872 1.464-1.584 2.275-2.296-.316-.365-.699-.701-1.014-1.066-1.486-.113-2.905.11-4.098.667v.068a31.766 31.766 0 0 0 2.747 2.597l.09.03zm12.386 6.237c-.72-1.26-1.644-2.524-2.5-3.635-.518-.62-1.036-1.261-1.576-1.848l-.969-.13.068.198a56.781 56.781 0 0 1 2.162 4.713l.067.085c.969.335 1.892.552 2.748.617zm2.41.103c-1.262-1.756-2.726-3.288-4.212-4.72l-1.058-.956c-.18-.014-.338.031-.496.076l.045.095a47.535 47.535 0 0 1 3.986 5.476 5.772 5.772 0 0 0 1.734.03zM25.086 15.07a4.148 4.148 0 0 0-.45-.626c-1.892-.598-3.648-.754-5.27-.513V14c.54.655 1.081 1.332 1.667 1.923 1.283-.551 2.612-.758 4.053-.853zm8.062 4.158c.067-.097-.113-.156-.158-.228-2.387-1.909-5.044-3.475-7.431-4.27-.045.088.112.202.18.31 2.094 2.603 5.36 4.5 7.409 4.188z" fill="#FFF" fill-rule="nonzero" opacity=".413" mask="url(#ad)"/></g><g fill="#FFF" fill-rule="nonzero"><path d="M328.452 76.503c2.478 2.507 5.946 4.635 8.197 4.282 1.464-.241 1.915-1.936 1.532-3.887-.293-1.807-1.824-3.902-3.288-5.32-2.004-1.893-4.099-3.632-6.125-5.514-.203-.209-.473-.57-.428-.794 0-.205.203-.201.36-.2 2.117.637 4.414 2.426 5.945 4.953.18.332.293.67.473 1.003l3.04 1.742c.045-1.816.068-3.918 0-5.777l-3.378-1.939-.045 1.066c-.383-.404-.765-.854-1.148-1.281-2.342-2.361-5.36-4.341-7.68-4.46-1.688-.026-2.589 1.294-2.341 3.416.247 2.077 2.049 4.875 3.873 6.412l5.45 4.78.405.44c.18.264.293.534.248.758-.428.502-1.419-.3-2.162-.755-1.576-1.143-3.198-2.63-4.121-4.645-.99-.576-2.14-1.265-3.22-1.848-.045 1.84.022 3.516.045 5.417a79.967 79.967 0 0 0 3.265 1.874c.045-.247-.045-.686.068-.894l1.035 1.17zM352.48 89.729c-2.928.21-7.386-2.243-10.404-5.724-1.644-1.819-2.725-4.152-3.063-6.1-.608-3.242-.45-6.585 1.712-7.49 2.522-.81 6.193.822 9.458 3.65.155.122.647.536.985.917l.096.098a15.587 15.587 0 0 1 2.702 3.662c1.667 3.47 1.78 7.288.766 9.52-.406.856-1.239 1.35-2.252 1.467zm-3.31-5.198c.337-.327.315-1.022.382-1.597-.022-1.31.09-2.79-.135-4.241-.113-.611-.473-1.389-1.036-1.92-.9-.933-2.117-1.526-2.95-1.532-.698.095-.788.884-.878 1.628-.068 1.53-.18 3.125.248 4.806.337 1.084 1.26 1.847 2.094 2.4.878.51 1.734.87 2.274.456zM314.22 68.873l-1.397-.833a109.198 109.198 0 0 1 0-3.844c.766.422 1.487.863 2.23 1.226V57.69l-.023-.331-2.23-1.34a52.102 52.102 0 0 1 0-3.753l9.932 5.767v3.753c-.743-.386-1.576-.938-2.297-1.266l.022 7.997.045.094 2.23 1.318c.022 1.31.045 2.71-.023 3.853l-8.49-4.908z"/></g></g><g><path d="M384 250.87c0 4.61-3.222 6.46-7.162 4.11l-55.832-31.798c-3.94-2.35-7.205-8.046-7.252-12.657l-.753-80.377c-.05-4.611 3.139-6.476 7.088-4.14l56.73 31.89c3.95 2.336 7.181 8.02 7.181 12.63v80.342z" fill-opacity=".565" fill="#107EFF" opacity=".25"/><path d="M376 270.54c0 5.111-3.59 7.162-7.981 4.556l-62.216-35.252c-4.39-2.606-8.029-8.92-8.081-14.032l-.84-89.11c-.055-5.111 3.498-7.179 7.899-4.588l63.218 35.355c4.4 2.588 8.001 8.89 8.001 14.001v89.07z" fill-opacity=".565" fill="#107EFF"/><path d="M373.22 183.355c0-5.114-3.598-11.415-7.994-14.004l-63.007-35.524c-1.555-.917-3.003-1.24-4.224-1.06 1.316-2.151 3.955-2.597 7.005-.801l63.007 35.524c4.396 2.59 7.993 8.893 7.993 14.007v89.042c0 3.284-1.483 5.297-3.704 5.633.586-.944.923-2.214.923-3.772v-89.045z" fill="#107EFF"/><g transform="translate(296 125)"><use fill="#000" filter="url(#ae)" xlink:href="#af"/><use fill="#FFF" xlink:href="#af"/></g><path d="M355.055 246.758l.169.46-2.158 2.88-.663-.381 2.119-2.76-2.522-1.45V245l3.055 1.758zm3.983 5.534c0 .845-.663.932-1.547.423-.884-.508-1.54-1.354-1.54-2.199 0-.565.337-.767.838-.636v-.019c-.293-.279-.702-.755-.702-1.411 0-.741.65-.79 1.404-.356.754.434 1.404 1.23 1.404 1.971 0 .657-.403.665-.696.614v.013c.494.447.839 1.035.839 1.6zm-.754-2.52c0-.468-.345-.926-.793-1.184-.449-.258-.793-.196-.793.272 0 .474.344.926.793 1.184.448.258.793.203.793-.272zm.13 2.116c0-.533-.397-1.08-.923-1.383-.527-.303-.923-.212-.923.32 0 .534.422 1.095.923 1.383.507.292.923.213.923-.32zm6.075 3.781c0 .644-.448.821-1.06.47-.61-.352-1.059-1.045-1.059-1.689 0-.643.449-.82 1.06-.47.61.352 1.06 1.046 1.06 1.69zm-1.105-4.223l.325.381-2.775 2.947-.325-.382 2.775-2.946zm-1.436.324c0 .643-.449.827-1.06.476-.61-.352-1.06-1.052-1.06-1.696 0-.637.45-.82 1.06-.469.611.352 1.06 1.052 1.06 1.689zm2.086 3.631c0-.39-.234-.81-.604-1.024-.37-.213-.605-.062-.605.328 0 .397.234.811.605 1.024.37.213.604.068.604-.328zm-2.541-3.893c0-.397-.234-.81-.605-1.024-.37-.213-.604-.068-.604.328 0 .39.234.804.604 1.018.37.213.605.068.605-.322z" fill="#ACD2FF"/><g transform="translate(304.198 160.611)"><use fill="#000" filter="url(#ag)" xlink:href="#ah"/><use fill="#00499F" xlink:href="#ah"/><use fill="#107EFF" xlink:href="#ai"/></g><path d="M321.743 196.32c-1.605-3.28-2.545-6.662-2.545-9.709 0-5.614 3.19-8.6 7.857-8.257-2.061.08-3.091 1.508-3.091 4.286 0 2.57.98 6.011 2.622 9.628l-4.843 4.053zm19.125 13.61c1.012.597 1.956 1.142 2.831 1.635-2.601.945-6.123.389-10.001-1.9-4.353-2.567-8.259-6.79-10.916-11.396l4.795-3.954c3.202 6.229 8.155 12.584 13.29 15.614zm-13.143-18.616c-1.418-2.938-2.29-5.755-2.29-7.973 0-4.363 2.512-5.391 7.536-3.086.24.13.483.267.727.41 1.256.742 2.474 1.62 3.636 2.606l-9.609 8.043zm20.473 12.407c0 .589-.035 1.149-.103 1.68-.373 1.085-.888 1.87-1.544 2.354l-8.7-24.035c5.984 5.317 10.347 13.436 10.347 20zm-7.33 3.311c-4.243-2.503-9-8.125-12.096-13.702l8.834-7.285 7.019 22.296c-1.054-.017-2.307-.453-3.757-1.309z" fill="#FFF"/><g transform="translate(306.595 227.133)"><mask id="ak" fill="#fff"><use xlink:href="#aj"/></mask><use fill="#107EFF" xlink:href="#aj"/><path fill="#2ECC71" mask="url(#ak)" d="M0 0l35.363 16.917v8.89L0 6.926z"/></g></g></g></g></svg>