<?xml version="1.0" encoding="UTF-8"?>
<svg width="128px" height="43px" viewBox="0 0 128 43" version="1.1" xmlns="http://www.w3.org/2000/svg" xmlns:xlink="http://www.w3.org/1999/xlink">
    <!-- Generator: Sketch 52.2 (67145) - http://www.bohemiancoding.com/sketch -->
    <title>healthify</title>
    <desc>Created with Sketch.</desc>
    <g id="Page-1" stroke="none" stroke-width="1" fill="none" fill-rule="evenodd">
        <g id="01---Home-Page" transform="translate(-887.000000, -1250.000000)" fill-rule="nonzero">
            <g id="Social" transform="translate(244.000000, 898.000000)">
                <g id="Testimonial" transform="translate(0.000000, 299.000000)">
                    <g id="Testimonial-Copy" transform="translate(584.000000, 0.000000)">
                        <g id="Group-4" transform="translate(59.000000, 53.000000)">
                            <g id="healthify">
                                <polygon id="Shape" fill="#FF9400" points="12.3076923 15.6576087 4.61538462 15.6576087 4.61538462 8.0625 0 12.6195652 0 43 20 23.2527174 12.3076923 23.2527174"></polygon>
                                <polygon id="Shape" fill="#FF9400" points="12 0 4 8.0625 12 8.0625"></polygon>
                                <polygon id="Shape" fill="#ED7B00" points="28 14.78125 20 14.78125 20 22.84375"></polygon>
                                <g id="Group" transform="translate(30.666667, 4.031250)" fill="#FF9400">
                                    <polygon id="Shape" points="9.65758755 8.10515873 3.59792477 8.10515873 3.59792477 0 0 0 0 19.452381 3.59792477 19.452381 3.59792477 11.3472222 9.65758755 11.3472222 9.65758755 19.452381 13.2555123 19.452381 13.2555123 0 9.65758755 0"></polygon>
                                    <path d="M20.754345,5.67361111 C17.4215305,5.67361111 15.1491569,8.10515873 15.1491569,12.562996 C15.1491569,18.1150298 17.9896239,19.6550099 21.0194553,19.6550099 C23.3297017,19.6550099 24.5416342,18.9255456 25.8671855,17.5071429 L23.9735409,15.4808532 C23.1782101,16.3318948 22.4207523,16.696627 21.0194553,16.696627 C19.2394293,16.696627 18.292607,15.521379 18.292607,13.5356151 L26.3216602,13.5356151 L26.3216602,12.1577381 C26.3216602,8.38883929 24.276524,5.67361111 20.754345,5.67361111 Z M18.292607,11.3472222 C18.3304799,10.7393353 18.4062257,10.3746032 18.5955901,9.88829365 C18.9364462,9.07777778 19.6560311,8.51041667 20.754345,8.51041667 C21.814786,8.51041667 22.5343709,9.07777778 22.875227,9.88829365 C23.0645914,10.3746032 23.216083,10.7393353 23.216083,11.3472222 L18.292607,11.3472222 Z M32.9872892,5.67361111 C30.8664073,5.67361111 29.6923476,6.03834325 28.4425422,7.49727183 L30.4119326,9.64513889 C31.0557717,8.83462302 31.6238651,8.55094246 32.8357977,8.55094246 C34.5400778,8.55094246 35.2217899,9.19935516 35.2217899,10.6988095 L35.2217899,11.3472222 L32.1919585,11.3472222 C29.2378729,11.3472222 27.8365759,13.1303571 27.8365759,15.31875 C27.8365759,16.5345238 28.2153048,17.6287202 28.8970169,18.3987103 C29.6544747,19.2092262 30.6770428,19.6144841 32.1162127,19.6144841 C33.5932555,19.6144841 34.464332,19.2092262 35.2217899,18.3176587 L35.2217899,19.452381 L38.4409857,19.452381 L38.4409857,10.4556548 C38.4409857,7.25411706 36.5473411,5.67361111 32.9872892,5.67361111 Z M34.7294423,16.1292659 C34.1613489,16.696627 33.5932555,16.7776786 32.722179,16.7776786 C31.4723735,16.7776786 30.8664073,16.1292659 30.8664073,15.1971726 C30.8664073,14.2245536 31.5102464,13.5356151 32.6464332,13.5356151 L35.183917,13.5356151 L35.183917,14.346131 C35.2217899,15.2782242 35.0702983,15.8050595 34.7294423,16.1292659 Z M63.5885863,5.47098214 C62.4523995,5.47098214 61.4677043,5.95729167 60.5966278,6.88938492 L60.5966278,0 L57.3774319,0 L57.3774319,19.452381 L60.5966278,19.452381 L60.5966278,10.9419643 C60.5966278,9.15882937 61.581323,8.51041667 62.6038911,8.51041667 C63.6264591,8.51041667 64.6111543,9.11830357 64.6111543,10.9419643 L64.6111543,19.452381 L67.8303502,19.452381 L67.8303502,10.3340774 C67.7924773,7.45674603 66.3911803,5.47098214 63.5885863,5.47098214 Z" id="Shape"></path>
                                    <polygon id="Rectangle-path" points="70.2542153 5.87624008 73.4734112 5.87624008 73.4734112 19.452381 70.2542153 19.452381"></polygon>
                                    <polygon id="Rectangle-path" points="70.2542153 0 73.4734112 0 73.4734112 3.44469246 70.2542153 3.44469246"></polygon>
                                    <path d="M52.2645914,1.62103175 L49.0453956,1.62103175 L49.0453956,5.87624008 L46.5836576,5.87624008 L46.5836576,8.51041667 L49.0453956,8.51041667 L49.0453956,15.6024306 C49.0453956,17.5476687 49.9922179,19.452381 52.8326848,19.452381 L54.7263294,19.452381 L54.7263294,16.6155754 L53.4007782,16.6155754 C52.6054475,16.6155754 52.2645914,16.2103175 52.2645914,15.1971726 L52.2645914,8.51041667 L54.7263294,8.51041667 L54.7263294,5.87624008 L52.2645914,5.87624008 L52.2645914,1.62103175 Z M77.8287938,3.8499504 L77.8287938,5.87624008 L75.3670558,5.87624008 L75.3670558,8.51041667 L77.8287938,8.51041667 L77.8287938,19.452381 L81.0479896,19.452381 L81.0479896,8.51041667 L83.5097276,8.51041667 L83.5097276,5.87624008 L81.0479896,5.87624008 L81.0479896,4.25520833 C81.0479896,3.24206349 81.3888457,2.83680556 82.1841764,2.83680556 L83.5097276,2.83680556 L83.5097276,0 L81.616083,0 C78.7756161,0 77.8287938,1.9047123 77.8287938,3.8499504 Z M44.1219196,15.1971726 L44.1219196,0 L40.9027237,0 L40.9027237,15.6024306 C40.9027237,17.5476687 41.849546,19.452381 44.690013,19.452381 L46.5836576,19.452381 L46.5836576,16.6155754 L45.2581064,16.6155754 C44.4627756,16.6155754 44.1219196,16.2103175 44.1219196,15.1971726 Z M93.924773,5.87624008 L91.0843061,14.8324405 L87.8651102,5.87624008 L84.8352789,5.87624008 L89.3800259,19.452381 L88.8498054,21.0734127 C88.5468223,22.0865575 88.1680934,22.2891865 87.259144,22.2891865 L86.539559,22.2891865 L86.539559,25.328621 L87.7893645,25.328621 C88.8498054,25.328621 89.7966278,25.0854663 90.5540856,24.3154762 C90.9328145,23.9102183 91.2357977,23.3428571 91.5009079,22.5728671 L92.4098573,19.8576389 L97.1439689,5.87624008 L93.924773,5.87624008 Z" id="Shape"></path>
                                </g>
                            </g>
                        </g>
                    </g>
                </g>
            </g>
        </g>
    </g>
</svg>