<svg width="128" height="43" xmlns="http://www.w3.org/2000/svg"><g fill-rule="nonzero" fill="none"><path fill="#FF9400" d="M12.308 15.658H4.615V8.063L0 12.62V43l20-19.747h-7.692zM12 0L4 8.063h8z"/><path fill="#ED7B00" d="M28 14.781h-8v8.063z"/><g fill="#FF9400"><path d="M40.324 12.136h-6.06V4.031h-3.597v19.453h3.598v-8.106h6.06v8.106h3.597V4.03h-3.598zM51.421 9.705c-3.333 0-5.605 2.431-5.605 6.89 0 5.551 2.84 7.091 5.87 7.091 2.31 0 3.522-.73 4.848-2.148l-1.894-2.026c-.795.851-1.553 1.216-2.954 1.216-1.78 0-2.727-1.175-2.727-3.161h8.03v-1.378c0-3.769-2.046-6.484-5.568-6.484zm-2.462 5.673c.038-.607.114-.972.303-1.458.341-.811 1.06-1.378 2.159-1.378 1.06 0 1.78.567 2.12 1.378.19.486.342.85.342 1.458h-4.924zm14.695-5.673c-2.12 0-3.295.365-4.545 1.824l1.97 2.147c.643-.81 1.212-1.094 2.423-1.094 1.705 0 2.386.649 2.386 2.148v.648h-3.03c-2.953 0-4.355 1.784-4.355 3.972 0 1.216.379 2.31 1.06 3.08.758.81 1.78 1.216 3.22 1.216 1.477 0 2.348-.406 3.105-1.297v1.135h3.22v-8.997c0-3.202-1.894-4.782-5.454-4.782zm1.742 10.456c-.568.567-1.136.648-2.007.648-1.25 0-1.856-.648-1.856-1.58 0-.973.644-1.662 1.78-1.662h2.538v.81c.037.932-.114 1.46-.455 1.784zm28.86-10.659c-1.137 0-2.122.487-2.993 1.419V4.03h-3.219v19.453h3.22v-8.51c0-1.784.984-2.432 2.007-2.432 1.022 0 2.007.608 2.007 2.431v8.51h3.219v-9.118c-.038-2.877-1.44-4.863-4.242-4.863zM100.92 9.907h3.22v13.577h-3.22zM100.92 4.031h3.22v3.445h-3.22zM82.931 5.652h-3.219v4.255H77.25v2.635h2.462v7.092c0 1.945.947 3.85 3.787 3.85h1.894v-2.837h-1.326c-.795 0-1.136-.405-1.136-1.419v-6.686h2.462V9.907h-2.462V5.652zm25.564 2.23v2.025h-2.461v2.635h2.461v10.942h3.22V12.542h2.461V9.907h-2.461v-1.62c0-1.014.34-1.419 1.136-1.419h1.325V4.031h-1.893c-2.84 0-3.788 1.905-3.788 3.85zM74.79 19.227V4.031h-3.22v15.603c0 1.945.947 3.85 3.788 3.85h1.893v-2.837h-1.325c-.796 0-1.136-.405-1.136-1.419zm49.802-9.32l-2.84 8.956-3.22-8.957h-3.03l4.546 13.577-.53 1.62c-.304 1.014-.682 1.216-1.591 1.216h-.72v3.04h1.25c1.06 0 2.007-.243 2.765-1.013.378-.406.681-.973.947-1.743l.909-2.715 4.734-13.982h-3.22z"/></g></g></svg>