<svg width="80" height="78" xmlns="http://www.w3.org/2000/svg"><g fill="none" fill-rule="evenodd"><path d="M17 12h57.416a5 5 0 0 1 5 5v55.42a5 5 0 0 1-5 5H17a5 5 0 0 1-5-5V17a5 5 0 0 1 5-5z" fill="#EBF4FF"/><g fill="#107EFF"><path d="M46 3.414V21h2V3.414l1.293 1.293 1.414-1.414-3-3a.999.999 0 0 0-1.414 0l-3 3 1.414 1.414L46 3.414zM55 23.414V41h2V23.414l1.293 1.293 1.414-1.414-3-3a.999.999 0 0 0-1.414 0l-3 3 1.414 1.414L55 23.414zM12 3.414V21h2V3.414l1.293 1.293 1.414-1.414-3-3a.999.999 0 0 0-1.414 0l-3 3 1.414 1.414L12 3.414zM3 23.414V41h2V23.414l1.293 1.293 1.414-1.414-3-3a.999.999 0 0 0-1.414 0l-3 3 1.414 1.414L3 23.414zM3 44h2v4H3zM55 44h2v4h-2zM46 24h2v4h-2zM12 24h2v4h-2zM0 54h2v2H0zM4 54h2v2H4zM8 54h2v2H8zM12 54h2v2h-2zM16 54h2v2h-2zM46 54h2v2h-2zM42 54h2v2h-2zM50 54h2v2h-2zM54 54h2v2h-2zM58 54h2v2h-2z"/><path d="M36 50.713V47h12a1.001 1.001 0 0 0 .879-1.476L36 21.747V11c0-.014-.007-.025-.008-.039a.975.975 0 0 0-.062-.305c-.008-.022-.013-.044-.023-.066-.005-.012-.007-.025-.013-.038l-5-10c-.339-.678-1.45-.678-1.789 0l-5 10c-.006.012-.008.025-.013.038-.01.022-.015.043-.023.066a1.035 1.035 0 0 0-.062.305c0 .014-.007.025-.007.039v10.747L11.121 45.524A1 1 0 0 0 12 47h12v3.713L19.446 58H0v2h60v-2H40.554L36 50.713zM34 22v24h-3V12h3v10zm-5 24h-3V12h3v34zm-3 2h8v2h-8v-2zm20.321-3H36v-3h5v-2h-5V25.946L46.321 45zM30 3.236L33.382 10h-6.764L30 3.236zM13.679 45L24 25.946V40h-5v2h5v3H13.679zm11.875 7h8.892l3.75 6H31v-4h-2v4h-7.196l3.75-6z" fill-rule="nonzero"/></g></g></svg>