<svg width="72" height="72" xmlns="http://www.w3.org/2000/svg" xmlns:xlink="http://www.w3.org/1999/xlink"><defs><path d="M36 0c3.025 0 5.573 3.711 8.445 4.48 2.897.777 6.958-1.156 9.555.343 2.575 1.487 2.934 5.964 5.074 8.103 2.139 2.14 6.616 2.499 8.103 5.074 1.5 2.597-.434 6.658.342 9.555C68.29 30.427 72 32.975 72 36c0 3.025-3.711 5.573-4.48 8.445-.777 2.897 1.156 6.958-.343 9.555-1.487 2.575-5.964 2.934-8.103 5.074-2.14 2.139-2.499 6.616-5.074 8.103-2.597 1.5-6.658-.434-9.555.342C41.573 68.29 39.025 72 36 72c-3.025 0-5.573-3.711-8.445-4.48-2.897-.777-6.958 1.156-9.555-.343-2.575-1.487-2.934-5.964-5.074-8.103-2.139-2.14-6.616-2.499-8.103-5.074-1.5-2.597.434-6.658-.342-9.555C3.71 41.573 0 39.025 0 36c0-3.025 3.711-5.573 4.48-8.445.777-2.897-1.156-6.958.343-9.555 1.487-2.575 5.964-2.934 8.103-5.074 2.14-2.139 2.499-6.616 5.074-8.103 2.597-1.5 6.658.434 9.555-.342C30.427 3.71 32.975 0 36 0z" id="a"/></defs><g fill="none" fill-rule="evenodd"><mask id="b" fill="#fff"><use xlink:href="#a"/></mask><path fill="#107EFF" mask="url(#b)" d="M0-1.5h73.5V72H0z"/><path d="M36 60c14.912 0 27-11.417 27-25.5S50.912 9 36 9 9 20.417 9 34.5 21.088 60 36 60z" stroke-opacity=".23" stroke="#FFF" stroke-width="1.5" mask="url(#b)"/><g fill="#FFF" mask="url(#b)"><path d="M35.25 20.25h1.5v22.5h-1.5zM35.25 45.75h1.5v15h-1.5z"/><path d="M36 21a3.754 3.754 0 0 1-3.75-3.75A3.754 3.754 0 0 1 36 13.5a3.754 3.754 0 0 1 3.75 3.75A3.754 3.754 0 0 1 36 21zm0-6c-1.24 0-2.25 1.01-2.25 2.25S34.76 19.5 36 19.5s2.25-1.01 2.25-2.25S37.24 15 36 15z" fill-rule="nonzero"/><path d="M36 61.5a4.505 4.505 0 0 1-4.5-4.5c0-.983.311-1.916.9-2.7l1.2.9A3.003 3.003 0 0 0 36 60c1.655 0 3-1.346 3-3 0-1.337-1.286-2.074-2.968-2.898l-.367-.18.671-1.342.356.175c1.516.743 3.808 1.867 3.808 4.245 0 2.482-2.018 4.5-4.5 4.5z"/><path d="M35.665 53.921c-.133-.066-.285-.14-.45-.218C33.392 52.828 30 51.199 30 48c0-2.391 2.109-3.637 3.368-4.382l.764 1.292c-1.44.85-2.632 1.67-2.632 3.09 0 2.255 2.839 3.618 4.364 4.35.173.083.332.16.471.23l-.67 1.341zM39.335 52.421l-.671-1.341C39.9 50.462 40.5 49.454 40.5 48c0-2.218-2.905-3.636-4.465-4.397l-.371-.182.671-1.341.357.175C38.415 43.095 42 44.844 42 48c0 2.02-.922 3.549-2.665 4.421z"/><path d="M36 43.588l-.693-.343c-1.813-.883-6.057-2.948-6.057-6.495 0-3.425 2.613-5.25 4.5-5.25V33c-1.046 0-3 1.1-3 3.75 0 2.608 3.653 4.387 5.213 5.146l.037.019.037-.018c1.56-.76 5.213-2.538 5.213-5.147 0-2.65-1.954-3.75-3-3.75v-1.5c1.887 0 4.5 1.825 4.5 5.25 0 3.547-4.244 5.612-6.057 6.495l-.693.344zM33.75 30h-3c-7.633 0-16.558-2.302-18.712-8.763a.749.749 0 0 1 .712-.987c6.365 0 8.65-1.365 10.485-2.462C24.392 17.097 25.39 16.5 27 16.5c1.998 0 3.75 1.753 3.75 3.75v2.25c0 .827.673 1.5 1.5 1.5h1.5v1.5h-1.5c-1.654 0-3-1.346-3-3v-2.25c0-1.267-1.21-2.25-2.25-2.25-1.195 0-1.95.452-2.995 1.075-1.781 1.065-4.182 2.5-10.13 2.66 1.773 3.429 6.967 6.765 16.875 6.765h3V30z"/><path d="M27.75 26.25h1.5v3h-1.5zM24.75 25.5h1.5v3.75h-1.5zM21.75 24.75h1.5v3.75h-1.5zM18.75 24h1.5v3h-1.5z"/><g><path d="M41.25 30h-3v-1.5h3c9.908 0 15.102-3.336 16.876-6.765-5.95-.161-8.35-1.596-10.13-2.66C46.95 18.45 46.195 18 45 18c-1.04 0-2.25.983-2.25 2.25v2.25c0 1.654-1.346 3-3 3h-1.5V24h1.5c.827 0 1.5-.673 1.5-1.5v-2.25c0-1.997 1.752-3.75 3.75-3.75 1.61 0 2.608.597 3.765 1.288 1.835 1.097 4.12 2.462 10.485 2.462a.75.75 0 0 1 .712.987C57.808 27.698 48.883 30 41.25 30z"/><path d="M42.75 26.25h1.5v3h-1.5zM45.75 25.5h1.5v3.75h-1.5zM48.75 24.75h1.5v3.75h-1.5zM51.75 24h1.5v3h-1.5z"/></g></g></g></svg>