<?xml version="1.0" encoding="UTF-8"?>
<svg width="72px" height="72px" viewBox="0 0 72 72" version="1.1" xmlns="http://www.w3.org/2000/svg" xmlns:xlink="http://www.w3.org/1999/xlink">
    <!-- Generator: Sketch 52.2 (67145) - http://www.bohemiancoding.com/sketch -->
    <title>GDPR 2</title>
    <desc>Created with Sketch.</desc>
    <defs>
        <path d="M36,0 C39.0252,0 41.5732364,3.71107059 44.4454909,4.48083529 C47.3418545,5.25695294 51.4029818,3.32375294 54,4.82304706 C56.5753091,6.30974118 56.9344364,10.7872941 59.0736,12.9264353 C61.2127636,15.0655765 65.6902909,15.4247294 67.1769818,18 C68.6762182,20.5969765 66.7430182,24.6579882 67.5192,27.5545059 C68.2889455,30.4267765 72,32.9747294 72,36 C72,39.0252706 68.2889455,41.5732235 67.5192,44.4454941 C66.7430182,47.3419059 68.6762182,51.4030235 67.1769818,54 C65.6902909,56.5752706 61.2127636,56.9344235 59.0736,59.0735647 C56.9344364,61.2127059 56.5753091,65.6902588 54,67.1769529 C51.4029818,68.6762471 47.3419636,66.7430471 44.4454909,67.5191647 C41.5732364,68.2889294 39.0252,72 36,72 C32.9748,72 30.4267636,68.2889294 27.5545091,67.5191647 C24.6581455,66.7430471 20.5970182,68.6762471 18,67.1769529 C15.4246909,65.6902588 15.0655636,61.2127059 12.9264,59.0735647 C10.7872364,56.9344235 6.30970909,56.5752706 4.82301818,54 C3.32378182,51.4030235 5.25698182,47.3420118 4.4808,44.4454941 C3.71105455,41.5732235 0,39.0252706 0,36 C0,32.9747294 3.71105455,30.4267765 4.4808,27.5545059 C5.25698182,24.6580941 3.32378182,20.5969765 4.82301818,18 C6.30970909,15.4247294 10.7872364,15.0655765 12.9264,12.9264353 C15.0655636,10.7872941 15.4246909,6.30974118 18,4.82304706 C20.5970182,3.32375294 24.6580364,5.25695294 27.5545091,4.48083529 C30.4268727,3.71107059 32.9748,0 36,0 Z" id="path-1"></path>
    </defs>
    <g id="Page-1" stroke="none" stroke-width="1" fill="none" fill-rule="evenodd">
        <g id="GDPR-2">
            <g id="GDPR">
                <mask id="mask-2" fill="white">
                    <use xlink:href="#path-1"></use>
                </mask>
                <g id="Clip-152"></g>
                <polygon id="Fill-151" fill="#107EFF" mask="url(#mask-2)" points="0 -1.5 73.5 -1.5 73.5 72 0 72"></polygon>
                <g id="flag_blue_white-(1)" mask="url(#mask-2)" fill="#FFFFFE">
                    <g transform="translate(12.000000, 12.000000)">
                        <polygon id="Fill-3" points="22.8019942 6.64285714 24.8267403 5.08136736 26.8518248 6.64285714 26.0813791 4.11772757 28.137931 2.55588023 25.6029381 2.55588023 24.8267403 0 24.0508809 2.55874075 21.5172414 2.55588023 23.5724399 4.11772757"></polygon>
                        <polygon id="Fill-4" points="12.8723132 8.30357143 14.8970593 6.74275376 16.9207903 8.30357143 16.1513597 5.77952875 18.2068966 4.21835368 15.6715652 4.21835368 14.8957058 1.66071429 14.1201848 4.22121297 11.5862069 4.21835368 13.6414054 5.77952875"></polygon>
                        <polygon id="Fill-5" points="6.62068966 9.96428571 5.84463192 12.5247844 3.31034483 12.5219251 5.36606863 14.0827428 4.59542604 16.6071429 6.62068966 15.0463252 8.64595327 16.6071429 7.87531068 14.0827428 9.93103448 12.5219251 7.39674739 12.5219251"></polygon>
                        <polygon id="Fill-6" points="3.31102158 25.0106109 5.33451765 26.5714286 4.56538612 24.0473859 6.62068966 22.4865682 4.08692066 22.4865682 3.31102158 19.9285714 2.5351225 22.4919294 0 22.4865682 2.05665704 24.0473859 1.286172 26.5714286"></polygon>
                        <polygon id="Fill-7" points="7.39674739 32.4504965 6.62068966 29.8928571 5.84463192 32.4533558 3.31034483 32.4504965 5.36606863 34.0113142 4.59542604 36.5357143 6.62068966 34.9720373 8.64595327 36.5357143 7.87531068 34.0113142 9.93103448 32.4504965"></polygon>
                        <polygon id="Fill-8" points="15.671774 40.7523088 14.895875 38.1964286 14.1213294 40.7551693 11.5862069 40.7523088 13.6415104 42.3137986 12.8723789 44.8392857 14.8972285 43.2774384 16.9207246 44.8392857 16.151593 42.3137986 18.2068966 40.7523088"></polygon>
                        <polygon id="Fill-9" points="25.6029381 42.4147822 24.8270787 39.8571429 24.0522343 42.4176415 21.5172414 42.4147822 23.5727782 43.9755999 22.8033476 46.5 24.8280937 44.9388249 26.8518248 46.5 26.0813791 43.9755999 28.137931 42.4147822"></polygon>
                        <polygon id="Fill-10" points="35.5333246 40.7523088 34.7586207 38.1964286 33.9812092 40.7551693 31.4482759 40.7523088 33.5026459 42.3137986 32.7333571 44.8392857 34.7586207 43.2774384 36.7838843 44.8392857 36.0118879 42.3137986 38.0689655 40.7523088"></polygon>
                        <polygon id="Fill-11" points="43.8118943 32.4504965 43.0344828 29.8928571 42.2570712 32.4533558 39.7241379 32.4504965 41.7812155 34.0113142 41.0092191 36.5357143 43.0344828 34.9720373 45.0600848 36.5357143 44.28775 34.0113142 46.3448276 32.4504965"></polygon>
                        <polygon id="Fill-12" points="48 22.4862108 45.4653957 22.4862108 44.6883019 19.9285714 43.9139147 22.4890701 41.3793103 22.4862108 43.435547 24.0470285 42.6662344 26.5714286 44.6883019 25.0077516 46.7127377 26.5714286 45.9437633 24.0470285"></polygon>
                        <polygon id="Fill-13" points="41.0091535 16.6071429 43.0343135 15.0456531 45.0598121 16.6071429 44.2878552 14.0820133 46.3448276 12.5230265 43.8116853 12.5230265 43.0343135 9.96428571 42.2572802 12.525887 39.7241379 12.5230265 41.7811104 14.0820133"></polygon>
                        <polygon id="Fill-14" points="34.7572675 1.66071429 33.9828802 4.22121297 31.4482759 4.21549438 33.5018061 5.77917134 32.7328317 8.30357143 34.7599739 6.73989447 36.7817032 8.30357143 36.0127288 5.77917134 38.0689655 4.21549438 35.5316547 4.21549438"></polygon>
                    </g>
                </g>
            </g>
        </g>
    </g>
</svg>