<?xml version="1.0" encoding="UTF-8"?>
<svg width="72px" height="72px" viewBox="0 0 72 72" version="1.1" xmlns="http://www.w3.org/2000/svg" xmlns:xlink="http://www.w3.org/1999/xlink">
    <!-- Generator: Sketch 52.2 (67145) - http://www.bohemiancoding.com/sketch -->
    <title>hipaa 2</title>
    <desc>Created with Sketch.</desc>
    <defs>
        <path d="M36,0 C39.0252,0 41.5732364,3.71107059 44.4454909,4.48083529 C47.3418545,5.25695294 51.4029818,3.32375294 54,4.82304706 C56.5753091,6.30974118 56.9344364,10.7872941 59.0736,12.9264353 C61.2127636,15.0655765 65.6902909,15.4247294 67.1769818,18 C68.6762182,20.5969765 66.7430182,24.6579882 67.5192,27.5545059 C68.2889455,30.4267765 72,32.9747294 72,36 C72,39.0252706 68.2889455,41.5732235 67.5192,44.4454941 C66.7430182,47.3419059 68.6762182,51.4030235 67.1769818,54 C65.6902909,56.5752706 61.2127636,56.9344235 59.0736,59.0735647 C56.9344364,61.2127059 56.5753091,65.6902588 54,67.1769529 C51.4029818,68.6762471 47.3419636,66.7430471 44.4454909,67.5191647 C41.5732364,68.2889294 39.0252,72 36,72 C32.9748,72 30.4267636,68.2889294 27.5545091,67.5191647 C24.6581455,66.7430471 20.5970182,68.6762471 18,67.1769529 C15.4246909,65.6902588 15.0655636,61.2127059 12.9264,59.0735647 C10.7872364,56.9344235 6.30970909,56.5752706 4.82301818,54 C3.32378182,51.4030235 5.25698182,47.3420118 4.4808,44.4454941 C3.71105455,41.5732235 0,39.0252706 0,36 C0,32.9747294 3.71105455,30.4267765 4.4808,27.5545059 C5.25698182,24.6580941 3.32378182,20.5969765 4.82301818,18 C6.30970909,15.4247294 10.7872364,15.0655765 12.9264,12.9264353 C15.0655636,10.7872941 15.4246909,6.30974118 18,4.82304706 C20.5970182,3.32375294 24.6580364,5.25695294 27.5545091,4.48083529 C30.4268727,3.71107059 32.9748,0 36,0 Z" id="path-1"></path>
    </defs>
    <g id="Page-1" stroke="none" stroke-width="1" fill="none" fill-rule="evenodd">
        <g id="hipaa-2">
            <g id="hipaa">
                <mask id="mask-2" fill="white">
                    <use xlink:href="#path-1"></use>
                </mask>
                <g id="Clip-152"></g>
                <polygon id="Fill-151" fill="#107EFF" mask="url(#mask-2)" points="0 -1.5 73.5 -1.5 73.5 72 0 72"></polygon>
                <path d="M36,60 C50.9116922,60 63,48.5832649 63,34.5 C63,20.4167351 50.9116922,9 36,9 C21.0883078,9 9,20.4167351 9,34.5 C9,48.5832649 21.0883078,60 36,60 Z" id="Stroke-154" stroke-opacity="0.230015851" stroke="#FFFFFF" stroke-width="1.5" mask="url(#mask-2)"></path>
                <g id="38-caduceus-medicine" mask="url(#mask-2)">
                    <g transform="translate(12.000000, 13.500000)">
                        <rect id="Rectangle" fill="#FFFFFF" fill-rule="evenodd" x="23.25" y="6.75" width="1.5" height="22.5"></rect>
                        <rect id="Rectangle" fill="#FFFFFF" fill-rule="evenodd" x="23.25" y="32.25" width="1.5" height="15"></rect>
                        <path d="M24,7.5 C21.93225,7.5 20.25,5.81775 20.25,3.75 C20.25,1.68225 21.93225,0 24,0 C26.06775,0 27.75,1.68225 27.75,3.75 C27.75,5.81775 26.06775,7.5 24,7.5 Z M24,1.5 C22.7595,1.5 21.75,2.5095 21.75,3.75 C21.75,4.9905 22.7595,6 24,6 C25.2405,6 26.25,4.9905 26.25,3.75 C26.25,2.5095 25.2405,1.5 24,1.5 Z" id="Shape" fill="#FFFFFF" fill-rule="nonzero"></path>
                        <path d="M24,48 C21.51825,48 19.5,45.98175 19.5,43.5 C19.5,42.5175 19.81125,41.58375 20.40075,40.79925 L21.6,41.7 C21.207,42.22275 21,42.84525 21,43.5 C21,45.1545 22.3455,46.5 24,46.5 C25.6545,46.5 27,45.1545 27,43.5 C27,42.1635 25.71375,41.42625 24.0315,40.602 L23.66475,40.42125 L24.336,39.0795 L24.69225,39.255 C26.208,39.99825 28.5,41.12175 28.5,43.5 C28.5,45.98175 26.48175,48 24,48 Z" id="Path" fill="#FFFFFF" fill-rule="evenodd"></path>
                        <path d="M23.66475,40.42125 C23.532,40.3545 23.3805,40.28175 23.2155,40.203 C21.39225,39.32775 18,37.6995 18,34.5 C18,32.109 20.109,30.8625 21.36825,30.11775 L22.13175,31.41 C20.69175,32.2605 19.5,33.08025 19.5,34.5 C19.5,36.75525 22.33875,38.118 23.86425,38.85 C24.0375,38.93325 24.19575,39.00975 24.33525,39.0795 L23.66475,40.42125 Z" id="Path" fill="#FFFFFF" fill-rule="evenodd"></path>
                        <path d="M27.33525,38.92125 L26.664,37.5795 C27.9,36.9615 28.5,35.95425 28.5,34.5 C28.5,32.2815 25.59525,30.864 24.0345,30.10275 L23.664,29.92125 L24.33525,28.5795 L24.69225,28.755 C26.415,29.595 30,31.344 30,34.5 C30,36.5205 29.07825,38.049 27.33525,38.92125 Z" id="Path" fill="#FFFFFF" fill-rule="evenodd"></path>
                        <path d="M24,30.0885 L23.307,29.745 C21.49425,28.86225 17.25,26.79675 17.25,23.25 C17.25,19.82475 19.863,18 21.75,18 L21.75,19.5 C20.70375,19.5 18.75,20.60025 18.75,23.25 C18.75,25.8585 22.40325,27.6375 23.96325,28.3965 L24,28.4145 L24.03675,28.39725 C25.59675,27.6375 29.25,25.8585 29.25,23.25 C29.25,20.60025 27.29625,19.5 26.25,19.5 L26.25,18 C28.137,18 30.75,19.82475 30.75,23.25 C30.75,26.79675 26.50575,28.86225 24.693,29.745 L24,30.0885 Z" id="Path" fill="#FFFFFF" fill-rule="evenodd"></path>
                        <g id="Group" stroke-width="1" fill="none" fill-rule="evenodd" transform="translate(0.000000, 3.000000)">
                            <path d="M21.75,13.5 L18.75,13.5 C11.1165,13.5 2.19225,11.19825 0.03825,4.737 C-0.03825,4.50825 0.00075,4.25625 0.14175,4.06125 C0.28275,3.86625 0.50925,3.75 0.75,3.75 C7.11525,3.75 9.39975,2.385 11.235,1.28775 C12.3915,0.597 13.38975,0 15,0 C16.998,0 18.75,1.75275 18.75,3.75 L18.75,6 C18.75,6.82725 19.42275,7.5 20.25,7.5 L21.75,7.5 L21.75,9 L20.25,9 C18.5955,9 17.25,7.6545 17.25,6 L17.25,3.75 C17.25,2.48325 16.04025,1.5 15,1.5 C13.8045,1.5 13.04925,1.9515 12.0045,2.5755 C10.224,3.63975 7.82325,5.0745 1.87425,5.23575 C3.648,8.664 8.84175,12 18.75,12 L21.75,12 L21.75,13.5 Z" id="Path" fill="#FFFFFF"></path>
                            <rect id="Rectangle" fill="#FFFFFF" x="15.75" y="9.75" width="1.5" height="3"></rect>
                            <rect id="Rectangle" fill="#FFFFFF" x="12.75" y="9" width="1.5" height="3.75"></rect>
                            <rect id="Rectangle" fill="#FFFFFF" x="9.75" y="8.25" width="1.5" height="3.75"></rect>
                            <rect id="Rectangle" fill="#FFFFFF" x="6.75" y="7.5" width="1.5" height="3"></rect>
                        </g>
                        <g id="Group" stroke-width="1" fill="none" fill-rule="evenodd" transform="translate(26.250000, 3.000000)">
                            <path d="M3,13.5 L0,13.5 L0,12 L3,12 C12.90825,12 18.102,8.664 19.87575,5.235 C13.926,5.07375 11.526,3.639 9.7455,2.57475 C8.70075,1.9515 7.9455,1.5 6.75,1.5 C5.70975,1.5 4.5,2.48325 4.5,3.75 L4.5,6 C4.5,7.6545 3.1545,9 1.5,9 L0,9 L0,7.5 L1.5,7.5 C2.32725,7.5 3,6.82725 3,6 L3,3.75 C3,1.75275 4.752,0 6.75,0 C8.3595,0 9.3585,0.597 10.515,1.28775 C12.35025,2.385 14.63475,3.75 21,3.75 C21.24075,3.75 21.46725,3.8655 21.60825,4.06125 C21.74925,4.257 21.7875,4.509 21.71175,4.737 C19.55775,11.19825 10.6335,13.5 3,13.5 Z" id="Path" fill="#FFFFFF"></path>
                            <rect id="Rectangle" fill="#FFFFFF" x="4.5" y="9.75" width="1.5" height="3"></rect>
                            <rect id="Rectangle" fill="#FFFFFF" x="7.5" y="9" width="1.5" height="3.75"></rect>
                            <rect id="Rectangle" fill="#FFFFFF" x="10.5" y="8.25" width="1.5" height="3.75"></rect>
                            <rect id="Rectangle" fill="#FFFFFF" x="13.5" y="7.5" width="1.5" height="3"></rect>
                        </g>
                    </g>
                </g>
            </g>
        </g>
    </g>
</svg>