<?xml version="1.0" encoding="UTF-8"?>
<svg width="79px" height="66px" viewBox="0 0 79 66" version="1.1" xmlns="http://www.w3.org/2000/svg" xmlns:xlink="http://www.w3.org/1999/xlink">
    <!-- Generator: Sketch 53.2 (72643) - https://sketchapp.com -->
    <title>feature-guide.svg</title>
    <desc>Created with Sketch.</desc>
    <g id="Home" stroke="none" stroke-width="1" fill="none" fill-rule="evenodd">
        <g id="Artboard" transform="translate(-255.000000, -240.000000)">
            <g id="Why" transform="translate(209.000000, 102.000000)">
                <g id="Group-11" transform="translate(46.000000, 10.000000)">
                    <g id="feature-guide.svg" transform="translate(0.000000, 128.000000)">
                        <path d="M16,5.68434189e-14 L73.4162896,5.68434189e-14 C76.1777133,5.63361535e-14 78.4162896,2.23857625 78.4162896,5 L78.4162896,60.4198895 C78.4162896,63.1813133 76.1777133,65.4198895 73.4162896,65.4198895 L16,65.4198895 C13.2385763,65.4198895 11,63.1813133 11,60.4198895 L11,5 C11,2.23857625 13.2385763,5.73506842e-14 16,5.68434189e-14 Z" id="Rectangle-2-Copy" fill="#EBF4FF"></path>
                        <g id="14-compass-guide" transform="translate(0.000000, 1.000000)" fill="#107EFF" fill-rule="nonzero">
                            <path d="M29,42.59375 C26.611125,42.59375 24.2612187,41.9657187 22.2049375,40.7767187 C21.77175,40.5265937 21.623125,39.9719687 21.8741562,39.5387812 C22.1251875,39.1046875 22.6789063,38.9569687 23.1120937,39.208 C24.892875,40.2365937 26.9292187,40.78125 29,40.78125 C35.496,40.78125 40.78125,35.496 40.78125,29 C40.78125,26.9283125 40.2365937,24.8910625 39.2052812,23.109375 C38.9551562,22.6761875 39.102875,22.1224687 39.5360625,21.8714375 C39.9683437,21.6204062 40.5229687,21.768125 40.774,22.2022187 C41.9648125,24.2594062 42.59375,26.6102187 42.59375,29 C42.59375,36.4955937 36.4955937,42.59375 29,42.59375 Z" id="Path"></path>
                            <path d="M18.009,36.246375 C17.6954375,36.246375 17.3909375,36.0841563 17.2232812,35.79325 C16.0342812,33.737875 15.40625,31.3879688 15.40625,29 C15.40625,21.5044063 21.5044062,15.40625 29,15.40625 C31.3897812,15.40625 33.7405937,16.0351875 35.7977812,17.2250938 C36.231875,17.476125 36.3795937,18.0298438 36.1285625,18.4630313 C35.8775312,18.897125 35.322,19.0448438 34.890625,18.7938125 C33.1089375,17.7634062 31.0716875,17.21875 29,17.21875 C22.504,17.21875 17.21875,22.504 17.21875,29 C17.21875,31.069875 17.7634062,33.1053125 18.792,34.887 C19.042125,35.3201875 18.8944062,35.8748125 18.4612188,36.1249375 C18.3180313,36.2074063 18.1630625,36.246375 18.009,36.246375 Z" id="Path"></path>
                            <path d="M35.1751875,29.5265313 L33.6998125,28.4734688 L42.59375,16.0225 L42.59375,15.40625 L41.9775,15.40625 L29.5265313,24.3001875 L28.4734688,22.8248125 L41.1609688,13.7623125 C41.314125,13.6526562 41.499,13.59375 41.6875,13.59375 L43.5,13.59375 C44.00025,13.59375 44.40625,13.99975 44.40625,14.5 L44.40625,16.3125 C44.40625,16.501 44.3473438,16.685875 44.2376875,16.8390313 L35.1751875,29.5265313 Z" id="Path"></path>
                            <path d="M16.3125,44.40625 L14.5,44.40625 C13.99975,44.40625 13.59375,44.00025 13.59375,43.5 L13.59375,41.6875 C13.59375,41.499 13.6526562,41.314125 13.7623125,41.1609687 L22.8248125,28.4734687 L24.3001875,29.5265312 L15.40625,41.9775 L15.40625,42.59375 L16.0225,42.59375 L28.4734688,33.6998125 L29.5265313,35.1751875 L16.8390313,44.2376875 C16.685875,44.3473438 16.501,44.40625 16.3125,44.40625 Z" id="Path"></path>
                            <path d="M29,35.34375 C25.501875,35.34375 22.65625,32.498125 22.65625,29 C22.65625,25.501875 25.501875,22.65625 29,22.65625 C32.498125,22.65625 35.34375,25.501875 35.34375,29 C35.34375,32.498125 32.498125,35.34375 29,35.34375 Z M29,24.46875 C26.5014687,24.46875 24.46875,26.5014687 24.46875,29 C24.46875,31.4985313 26.5014687,33.53125 29,33.53125 C31.4985313,33.53125 33.53125,31.4985312 33.53125,29 C33.53125,26.5014688 31.4985312,24.46875 29,24.46875 Z" id="Shape"></path>
                            <rect id="Rectangle" x="28.09375" y="28.09375" width="1.8125" height="1.8125"></rect>
                            <path d="M29,58 C13.0092188,58 0,44.9907813 0,29 C0,13.0092187 13.0092188,0 29,0 C44.9907812,0 58,13.0092188 58,29 C58,44.9907812 44.9907813,58 29,58 Z M29,1.8125 C14.0088125,1.8125 1.8125,14.0088125 1.8125,29 C1.8125,43.9911875 14.0088125,56.1875 29,56.1875 C43.9911875,56.1875 56.1875,43.9911875 56.1875,29 C56.1875,14.0088125 43.9911875,1.8125 29,1.8125 Z" id="Shape"></path>
                            <rect id="Rectangle" x="28.09375" y="11.78125" width="1.8125" height="4.53125"></rect>
                            <rect id="Rectangle" x="11.78125" y="28.09375" width="4.53125" height="1.8125"></rect>
                            <rect id="Rectangle" x="28.09375" y="41.6875" width="1.8125" height="4.53125"></rect>
                            <rect id="Rectangle" x="41.6875" y="28.09375" width="4.53125" height="1.8125"></rect>
                            <rect id="Rectangle" x="5.4375" y="28.09375" width="1.8125" height="1.8125"></rect>
                            <rect id="Rectangle" x="28.09375" y="5.4375" width="1.8125" height="1.8125"></rect>
                            <rect id="Rectangle" x="50.75" y="28.09375" width="1.8125" height="1.8125"></rect>
                            <rect id="Rectangle" x="28.09375" y="50.75" width="1.8125" height="1.8125"></rect>
                        </g>
                    </g>
                </g>
            </g>
        </g>
    </g>
</svg>