<svg width="78" height="71" xmlns="http://www.w3.org/2000/svg"><g fill="none" fill-rule="evenodd"><path d="M15 5h57.416a5 5 0 0 1 5 5v55.42a5 5 0 0 1-5 5H15a5 5 0 0 1-5-5V10a5 5 0 0 1 5-5z" fill="#EBF4FF"/><g fill="#107EFF"><path d="M29 64C13.561 64 1 51.439 1 36S13.561 8 29 8s28 12.561 28 28-12.561 28-28 28zm0-54C14.664 10 3 21.664 3 36s11.664 26 26 26 26-11.664 26-26-11.664-26-26-26z" fill-rule="nonzero"/><path d="M29 10c-2.757 0-5-2.243-5-5s2.243-5 5-5 5 2.243 5 5-2.243 5-5 5zm0-8c-1.654 0-3 1.346-3 3s1.346 3 3 3 3-1.346 3-3-1.346-3-3-3z" fill-rule="nonzero"/><path d="M28 12h2v2h-2zM26.293 37.293l1.414 1.414-12 12-1.415-1.414zM7.706 13.292l3.002 3.003-1.414 1.414-3.002-3.003zM5 35h2v2H5zM51 35h2v2h-2zM28 58h2v2h-2z"/><path d="M29 40c-2.206 0-4-1.794-4-4s1.794-4 4-4 4 1.794 4 4-1.794 4-4 4zm0-6c-1.103 0-2 .897-2 2s.897 2 2 2 2-.897 2-2-.897-2-2-2zM4 18a.997.997 0 0 1-.707-.293l-3-3a.999.999 0 0 1 0-1.414l6-6a.999.999 0 0 1 1.414 0l3 3a.999.999 0 0 1 0 1.414l-6 6A.997.997 0 0 1 4 18zm-1.586-4L4 15.586 8.586 11 7 9.414 2.414 14z" fill-rule="nonzero"/><path d="M50.295 13.293l1.414 1.414-3.002 3.002-1.415-1.414z"/><path d="M54 18a.997.997 0 0 1-.707-.293l-6-6a.999.999 0 0 1 0-1.414l3-3a.999.999 0 0 1 1.414 0l6 6a.999.999 0 0 1 0 1.414l-3 3A.997.997 0 0 1 54 18zm-4.586-7L54 15.586 55.586 14 51 9.414 49.414 11z" fill-rule="nonzero"/><path d="M29 56a19.873 19.873 0 0 1-14.14-5.855l1.414-1.414A17.887 17.887 0 0 0 29 54c9.925 0 18-8.075 18-18s-8.075-18-18-18v-2c11.028 0 20 8.972 20 20s-8.972 20-20 20z"/><path d="M29 50a13.916 13.916 0 0 1-9.898-4.099l1.414-1.415A11.923 11.923 0 0 0 29 48c6.617 0 12-5.383 12-12s-5.383-12-12-12v-2c7.72 0 14 6.28 14 14s-6.28 14-14 14zM9 35h2v2H9zM13 35h2v2h-2zM17 35h2v2h-2z"/><path d="M21 35h2v2h-2zM28 5h2v4h-2z"/></g></g></svg>