<svg width="74" height="66" xmlns="http://www.w3.org/2000/svg"><g fill="none" fill-rule="evenodd"><path d="M11 0h57.416a5 5 0 0 1 5 5v55.42a5 5 0 0 1-5 5H11a5 5 0 0 1-5-5V5a5 5 0 0 1 5-5z" fill="#EBF4FF"/><path fill="#231F20" d="M4 20h2v2H4z"/><path d="M59 20H16v2h7.695C20.861 23.992 19 27.28 19 31v10c0 3.72 1.861 7.008 4.695 9H16v2h43a1 1 0 0 0 1-1V21a1 1 0 0 0-1-1zM21 41V31c0-4.962 4.038-9 9-9s9 4.038 9 9v10c0 4.962-4.038 9-9 9s-9-4.038-9-9zm37 9H36.305C39.139 48.008 41 44.72 41 41V31c0-3.72-1.861-7.008-4.695-9H58v28z" fill="#107EFF" fill-rule="nonzero"/><path fill="#107EFF" d="M12 20h2v2h-2zM8 20h2v2H8zM4 50h2v2H4zM0 50h2v2H0zM0 20h2v2H0zM0 25h2v2H0zM0 29h2v2H0zM0 33h2v2H0zM0 37h2v2H0zM0 41h2v2H0zM0 45h2v2H0zM12 50h2v2h-2zM8 50h2v2H8zM52 32h2v-6a1 1 0 0 0-1-1h-6v2h5v5zM5 26v6h2v-5h5v-2H6a1 1 0 0 0-1 1zM12 45H7v-5H5v6a1 1 0 0 0 1 1h6v-2zM52 45h-5v2h6a1 1 0 0 0 1-1v-6h-2v5zM29 29h2c1.654 0 3 1.346 3 3h2c0-2.757-2.243-5-5-5v-2h-2v2c-2.757 0-5 2.243-5 5s2.243 5 5 5h2c1.654 0 3 1.346 3 3s-1.346 3-3 3h-2c-1.654 0-3-1.346-3-3h-2c0 2.757 2.243 5 5 5v2h2v-2c2.757 0 5-2.243 5-5s-2.243-5-5-5h-2c-1.654 0-3-1.346-3-3s1.346-3 3-3zM45 35h3v2h-3zM12 35h3v2h-3zM6 8h11V6H5a1 1 0 0 0-1 1v10h2V8zM20 6h10v2H20zM20 10h21v2H20zM20 14h21v2H20z"/></g></svg>