<svg width="72" height="72" xmlns="http://www.w3.org/2000/svg" xmlns:xlink="http://www.w3.org/1999/xlink"><defs><path d="M36 0c3.025 0 5.573 3.711 8.445 4.48 2.897.777 6.958-1.156 9.555.343 2.575 1.487 2.934 5.964 5.074 8.103 2.139 2.14 6.616 2.499 8.103 5.074 1.5 2.597-.434 6.658.342 9.555C68.29 30.427 72 32.975 72 36c0 3.025-3.711 5.573-4.48 8.445-.777 2.897 1.156 6.958-.343 9.555-1.487 2.575-5.964 2.934-8.103 5.074-2.14 2.139-2.499 6.616-5.074 8.103-2.597 1.5-6.658-.434-9.555.342C41.573 68.29 39.025 72 36 72c-3.025 0-5.573-3.711-8.445-4.48-2.897-.777-6.958 1.156-9.555-.343-2.575-1.487-2.934-5.964-5.074-8.103-2.139-2.14-6.616-2.499-8.103-5.074-1.5-2.597.434-6.658-.342-9.555C3.71 41.573 0 39.025 0 36c0-3.025 3.711-5.573 4.48-8.445.777-2.897-1.156-6.958.343-9.555 1.487-2.575 5.964-2.934 8.103-5.074 2.14-2.139 2.499-6.616 5.074-8.103 2.597-1.5 6.658.434 9.555-.342C30.427 3.71 32.975 0 36 0z" id="a"/></defs><g fill="none" fill-rule="evenodd"><mask id="b" fill="#fff"><use xlink:href="#a"/></mask><path fill="#107EFF" mask="url(#b)" d="M0-1.5h73.5V72H0z"/><g mask="url(#b)" fill="#FFFFFE"><path d="M34.802 18.643l2.025-1.562 2.025 1.562-.77-2.525 2.056-1.562h-2.535L36.827 12l-.776 2.559-2.534-.003 2.055 1.562zM24.872 20.304l2.025-1.561 2.024 1.56-.77-2.523 2.056-1.562h-2.535l-.776-2.557-.776 2.56-2.534-.003 2.055 1.562zM18.62 21.964l-.775 2.56-2.535-.002 2.056 1.56-.77 2.525 2.025-1.56 2.025 1.56-.77-2.524 2.055-1.561h-2.534zM15.311 37.01l2.024 1.561-.77-2.524 2.056-1.56h-2.534l-.776-2.558-.776 2.563L12 34.487l2.057 1.56-.77 2.524zM19.397 44.45l-.776-2.557-.776 2.56-2.535-.003 2.056 1.561-.77 2.525 2.025-1.564 2.025 1.564-.77-2.525 2.055-1.56zM27.672 52.752l-.776-2.556-.775 2.56-2.535-.004 2.056 1.562-.77 2.525 2.025-1.562 2.024 1.562-.77-2.525 2.056-1.562zM37.603 54.415l-.776-2.558-.775 2.56-2.535-.002 2.056 1.56-.77 2.525 2.025-1.561 2.024 1.561-.77-2.524 2.056-1.561zM47.533 52.752l-.774-2.556-.778 2.56-2.533-.004 2.055 1.562-.77 2.525 2.026-1.562 2.025 1.562-.772-2.525 2.057-1.562zM55.812 44.45l-.778-2.557-.777 2.56-2.533-.003 2.057 1.561-.772 2.525 2.025-1.564 2.026 1.564-.772-2.525 2.057-1.56zM60 34.486h-2.535l-.777-2.557-.774 2.56-2.535-.003 2.057 1.561-.77 2.524 2.022-1.563 2.025 1.563-.77-2.524zM53.01 28.607l2.024-1.561 2.026 1.561-.772-2.525 2.057-1.559h-2.533l-.778-2.559-.777 2.562-2.533-.003 2.057 1.559zM46.757 13.66l-.774 2.561-2.535-.006 2.054 1.564-.77 2.525 2.028-1.564 2.022 1.564-.77-2.525 2.057-1.564h-2.537z"/></g></g></svg>