<svg width="596" height="504" xmlns="http://www.w3.org/2000/svg" xmlns:xlink="http://www.w3.org/1999/xlink"><defs><path d="M.44.033v31.509c.005.231.155.46.458.636l26.404 15.227c.612.355 1.616.355 2.23 0l26.389-15.22c.306-.178.46-.41.46-.643V.033H.44z" id="a"/><linearGradient x1="0%" y1="50%" x2="99.999%" y2="50%" id="b"><stop stop-color="#F2F4F9" offset="0%"/><stop stop-color="#D3DAED" offset="100%"/></linearGradient><path d="M55.92 1.3L29.533 16.52c-.614.354-1.618.354-2.23 0L.898 1.291C.595 1.116.445.886.441.656H.439v4.367h.002c.004.232.154.461.457.635l26.404 15.23c.612.354 1.616.354 2.23 0L55.92 5.665c.306-.177.46-.41.46-.643V.656c0 .232-.154.466-.46.643" id="d"/><path d="M55.92 1.02L29.533 16.242c-.614.354-1.618.354-2.23 0L.898 1.013C.595.838.445.608.441.378H.439v4.367h.002c.004.231.154.461.457.635l26.404 15.23c.612.355 1.616.355 2.23 0L55.92 5.388c.306-.175.46-.407.46-.642V.378c0 .232-.154.466-.46.642" id="f"/><path d="M6.071 3.625c6.43-3.709 16.95-3.709 23.38 0 6.429 3.708 6.429 9.776 0 13.484-6.43 3.708-16.95 3.708-23.38 0" id="h"/><path d="M36.188 294.66c-.9 2.747-5.85 4.297-10.3 3.312-3.381-.748-5.442-2.85-4.77-4.898.899-2.747 5.848-4.3 10.3-3.314 3.38.75 5.44 2.853 4.77 4.9zm12.229-3.787c0-.493-.697-.893-1.555-.892l-3.317.001c-.55 0-1.46.579-1.596.405-.23-.288-.147-.624.242-.848l2.345-1.348c.607-.35-3.249-.187-3.856-.537l.03-2.923c-.606-.35-1.588-.35-2.195 0l-2.363 1.36c-.373.214-.932.276-1.415.156-.338-.084-.702-.166-1.016-.238-.492-.11-.813-.382-.813-.686v-1.926c0-.493-.695-.894-1.553-.894h-5.406c-.857 0-1.553.4-1.553.894v1.908c0 .316-.354.585-.868.697-.326.07-.646.148-.961.23-.5.133-1.085.087-1.475-.137l-2.353-1.346c-.609-.347-1.594-.345-2.198.004l-.28 3.18c-.604.35-4.134-.061-3.526.287l2.372 1.355c.373.214.48.535.274.813-.142.195-1.072-.378-1.6-.378l-3.353.006c-.857 0-1.552.402-1.549.896l.013 4.537c.003.494.7.892 1.558.891l1.946-.002-.047 3.746a.536.536 0 0 0-.002.195c.034.198.177.392.442.543l3.83 2.193c.372.212.88.279 1.362.23l.027.014v-.017c.294-.032.58-.099.808-.23l2.36-1.362c.371-.214.93-.275 1.415-.157.336.083.701.166 1.014.236.492.109.815.383.815.686l.005 1.925c.001.494.699.893 1.557.893l5.406-.006c.857-.001 1.552-.401 1.55-.895l-.005-1.907c-.001-.315.354-.587.867-.7.31-.064.615-.139.917-.219.5-.13 1.085-.083 1.474.14l2.35 1.349c.227.129.511.194.806.226v.026l.04-.021c.479.046.982-.021 1.35-.234l3.818-2.2c.252-.145.393-.328.434-.516l.017-.009v-.089l-.001-.039-.048-3.833h1.912c.858-.002 1.552-.4 1.552-.895l-.004-4.538z" id="k"/><filter x="-65.8%" y="-96.8%" width="231.5%" height="328.8%" filterUnits="objectBoundingBox" id="j"><feOffset dy="4" in="SourceAlpha" result="shadowOffsetOuter1"/><feGaussianBlur stdDeviation="8" in="shadowOffsetOuter1" result="shadowBlurOuter1"/><feColorMatrix values="0 0 0 0 0 0 0 0 0 0 0 0 0 0 0 0 0 0 0.08 0" in="shadowBlurOuter1"/></filter><path d="M5.77 1.673L.86 7.693a2.658 2.658 0 0 0 .383 3.742 2.659 2.659 0 0 0 3.746-.382l4.91-6.02a2.66 2.66 0 1 0-4.129-3.36" id="l"/><path d="M1.077 14.693c0 7.886 1.762 15.63-.083 27.381 0 0 9.456 5.238 21.131 5.238 0 0-.728-18.508-.186-27.635.471-7.979-3.087-13.2-10.016-17.196L9.835 1.277C9.145.879 8.48.695 7.843.695c-3.977 0-6.766 7.18-6.766 13.998" id="n"/><path d="M.694 34.385l.122.016c.16.374.476.727.978 1.016l87.78 50.972c1.465.839 3.856.835 5.317-.008l40.14-23.15c.838-.486 1.177-1.145 1.051-1.776l.015.002V27.713L.694.302v34.083z" id="p"/><linearGradient x1="-2.099%" y1="17.345%" x2="104.471%" y2="77.758%" id="q"><stop stop-color="#F2F4F9" offset="0%"/><stop stop-color="#D3DAED" offset="100%"/></linearGradient><path d="M.694 6.459l.122.016c.16.374.476.727.978 1.016l87.78 50.972c1.465.839 3.856.835 5.317-.008l40.14-23.151c.838-.485 1.177-1.144 1.051-1.775l.015.002v-5.195c-.067.492-.417.972-1.067 1.345L94.891 52.834c-1.461.843-3.852.845-5.316.006L1.795 1.868C1.291 1.58.974 1.226.815.855L.694.838v5.62z" id="s"/><linearGradient x1="47.172%" y1="45.18%" x2="53.752%" y2="152.373%" id="t"><stop stop-opacity="0" offset="0%"/><stop offset="100%"/></linearGradient><path d="M.694 5.854l.122.017c.16.374.476.726.978 1.015l87.78 50.972c1.465.839 3.856.835 5.317-.007l40.14-23.152c.838-.484 1.177-1.142 1.051-1.775l.015.002v-5.194c-.067.49-.417.97-1.067 1.346l-40.139 23.15c-1.461.844-3.852.848-5.316.01L1.795 1.265C1.291.976.974.62.815.25L.694.233v5.62z" id="v"/><linearGradient x1="44.283%" y1="50%" x2="50%" y2="148.888%" id="w"><stop stop-opacity="0" offset="0%"/><stop offset="100%"/></linearGradient><path d="M.694 6.58l.122.016c.16.374.476.727.978 1.015l87.78 50.971c1.465.84 3.856.837 5.317-.006l40.14-23.151c.838-.485 1.177-1.144 1.051-1.775l.015.002v-5.195c-.067.49-.417.97-1.067 1.345L94.891 52.955c-1.461.841-3.852.845-5.316.006L1.795 1.99C1.291 1.701.974 1.347.815.975L.694.957V6.58z" id="y"/><linearGradient x1="48.355%" y1="62.976%" x2="48.355%" y2="126.109%" id="z"><stop stop-opacity="0" offset="0%"/><stop offset="100%"/></linearGradient><path d="M.646 13.101L31.1 29.994l18.516-8.458c1.771-.97 1.8-3.502.052-4.51L21.468.739.646 13.101z" id="B"/><path d="M19.752.594L.5 12.024 33.763 30.55l18.516-8.46c1.771-.969 1.8-3.5.052-4.51L22.9.576a3.12 3.12 0 0 0-3.149.018" id="D"/><path d="M.89 1.11l-.417.121 2.756 21.034c0 .827.59 1.84 1.307 2.25l31.437 18.223.463-.32a.606.606 0 0 0 .258-.496l-2.759-20.934c-.004-.827-.595-1.841-1.311-2.254L2.049 1.25a1.492 1.492 0 0 0-1.16-.139" id="F"/><path d="M.096 2.068l2.76 20.572c0 .827.586 1.84 1.305 2.25l30.996 17.715c.719.412 1.302.07 1.295-.756L33.56 21.363c-.006-.825-.597-1.84-1.313-2.254L1.397 1.317A1.17 1.17 0 0 0 .82 1.14c-.427 0-.724.341-.724.928" id="H"/><linearGradient x1="47.172%" y1="45.18%" x2="50%" y2="100%" id="I"><stop stop-opacity="0" offset="0%"/><stop offset="100%"/></linearGradient><path d="M4.366 1.815L1.524 7.232a2.658 2.658 0 0 0 2.355 3.895c.958 0 1.885-.52 2.36-1.426l2.843-5.415A2.657 2.657 0 0 0 7.96.696 2.638 2.638 0 0 0 6.727.39c-.958 0-1.886.52-2.361 1.425" id="K"/><path id="M" d="M.644 14.349v1.635l13.303 7.673L40.46 8.26V6.624L27.512.487z"/><linearGradient x1="100%" y1="50.001%" x2="0%" y2="50.001%" id="N"><stop stop-color="#F2F4F9" offset="0%"/><stop stop-color="#D3DAED" offset="100%"/></linearGradient><path d="M19.703.453L4.45 9.367c-1.728 1.008-3.141 3.471-3.141 5.471l.088 32.507 1.731.766 19.714-12.453V2.253c0-1.415-.708-2.234-1.734-2.234-.424 0-.902.14-1.406.434" id="P"/><linearGradient x1="51.001%" y1="98.361%" x2="50.083%" y2="44.205%" id="Q"><stop stop-color="#F2F4F9" offset="0%"/><stop stop-color="#D3DAED" offset="100%"/></linearGradient><path d="M72.638.73L4.058 40.484c-1.734 1-3.152 3.453-3.152 5.453v55.477a2.52 2.52 0 0 0 1.405 2.26l.49.244c.91.451 2.192.257 3.07-.25l69.208-40.04c1.732-.999 3.15-3.453 3.15-5.453V3.635c0-.92-.386-1.799-1.067-2.42A3.852 3.852 0 0 0 72.638.73" id="S"/><linearGradient x1="100.001%" y1="50%" x2="0%" y2="50%" id="T"><stop stop-color="#5B629E" offset="0%"/><stop stop-color="#484869" offset="100%"/></linearGradient><path id="V" d="M.463 7.846v1.977l11.995-6.919V.928z"/><path id="X" d="M.905 3.876v1.978l5.672-3.298V.58z"/><path id="Z" d="M.962 4.223V6.2l5.67-3.296V.927z"/><path id="ab" d="M.039 2.043v1.976l2.466-1.447V.596z"/><path id="ad" d="M.748 2.262v1.977l2.467-1.448V.815z"/><path id="af" d="M.483 2.711v1.977L2.95 3.24V1.265z"/><path id="ah" d="M.021 2.384V4.36l2.467-1.445V.938z"/><path id="aj" d="M.765 7.664V9.64L12.76 2.72V.746z"/><path d="M168.207 2.47L8.085 95.034a14.667 14.667 0 0 0-7.33 12.772 7.203 7.203 0 0 0 3.65 6.23l73.256 41.57c4.972 2.841 13.098 2.825 18.06-.035l164.085-94.718a7.311 7.311 0 0 0 3.658-6.334V50.82a6.903 6.903 0 0 0-3.457-5.98L186.29 2.396C183.822 1 180.58.302 177.334.302c-3.31.001-6.624.725-9.127 2.169" id="al"/><filter x="-3.4%" y="-3.8%" width="106.9%" height="111.4%" filterUnits="objectBoundingBox" id="am"><feOffset dy="3" in="SourceAlpha" result="shadowOffsetOuter1"/><feGaussianBlur stdDeviation="2.5" in="shadowOffsetOuter1" result="shadowBlurOuter1"/><feColorMatrix values="0 0 0 0 0 0 0 0 0 0 0 0 0 0 0 0 0 0 0.0831918025 0" in="shadowBlurOuter1"/></filter><linearGradient x1="100%" y1="50%" x2="0%" y2="50%" id="an"><stop stop-color="#D3DAED" offset="0%"/><stop stop-color="#99A7D8" offset="100%"/></linearGradient><path d="M.095.132v32.03c.005.234.16.468.467.646L27.4 48.288c.623.36 1.642.36 2.266 0L56.49 32.815c.312-.179.469-.415.469-.652V.132H.095z" id="ap"/><linearGradient x1=".001%" y1="50.002%" y2="50.002%" id="aq"><stop stop-color="#F2F4F9" offset="0%"/><stop stop-color="#D3DAED" offset="100%"/></linearGradient><path d="M56.49 1.552L29.667 17.024c-.624.36-1.643.36-2.266 0L.56 1.544C.255 1.366.1 1.133.097.899H.095v4.439c.005.234.16.468.467.646L27.4 21.464c.623.36 1.642.36 2.266 0L56.49 5.991c.312-.18.469-.416.469-.654V.899c0 .237-.157.473-.469.653" id="as"/><path d="M56.49 1.468l-26.823 15.47c-.624.36-1.643.36-2.266 0L.56 1.458C.255 1.283.1 1.049.097.815H.095v4.44c.005.233.16.467.467.645L27.4 21.38c.623.358 1.642.358 2.266 0L56.49 5.905c.312-.178.469-.417.469-.652V.814c0 .237-.157.473-.469.654" id="au"/><path d="M6.365 3.427c7.43-4.285 19.589-4.285 27.018 0 7.43 4.286 7.43 11.298 0 15.584s-19.588 4.286-27.018 0" id="aw"/><path d="M44.39 9.63h-1.8c-.736-.824-1.7-1.595-2.89-2.283-6.258-3.607-16.493-3.607-22.748 0-1.192.688-2.155 1.46-2.892 2.282h-1.8v4.244h.002c-.015 2.39 1.546 4.782 4.69 6.594 6.255 3.608 16.49 3.608 22.747 0 3.142-1.812 4.705-4.204 4.69-6.594h.001V9.629z" id="az"/><filter x="-80.9%" y="-118.7%" width="261.8%" height="380.6%" filterUnits="objectBoundingBox" id="ay"><feOffset dy="4" in="SourceAlpha" result="shadowOffsetOuter1"/><feGaussianBlur stdDeviation="8" in="shadowOffsetOuter1" result="shadowBlurOuter1"/><feColorMatrix values="0 0 0 0 0 0 0 0 0 0 0 0 0 0 0 0 0 0 0.08 0" in="shadowBlurOuter1"/></filter><path d="M1.084.555v32.028c.002.234.157.47.465.646l26.838 15.48c.624.361 1.643.361 2.267 0l26.824-15.472c.312-.18.467-.416.467-.654V.555H1.084z" id="aA"/><linearGradient x1="-.001%" y1="50%" x2="100.001%" y2="50%" id="aB"><stop stop-color="#F2F4F9" offset="0%"/><stop stop-color="#D3DAED" offset="100%"/></linearGradient><path d="M57.478 1.973L30.654 17.446c-.624.359-1.643.359-2.267 0L1.549 1.966c-.308-.179-.463-.411-.465-.645v4.44c.002.232.157.467.465.645l26.838 15.479c.624.36 1.643.36 2.267 0L57.478 6.414c.312-.18.467-.417.467-.653V1.32c0 .236-.155.473-.467.652" id="aD"/><path d="M57.478 1.888L30.654 17.36c-.624.36-1.643.36-2.267 0L1.549 1.88c-.308-.177-.463-.412-.465-.645v4.44c.002.233.157.469.465.646L28.387 21.8c.624.36 1.643.36 2.267 0L57.478 6.329c.312-.181.467-.418.467-.655V1.235c0 .237-.155.474-.467.653" id="aF"/><path d="M5.873 3.85c7.43-4.286 19.588-4.286 27.017 0 7.43 4.284 7.43 11.298 0 15.583-7.429 4.284-19.587 4.284-27.017 0" id="aH"/><path id="aJ" d="M1.093 11.577l3.182 1.792.03-11.13L1.093.343z"/><linearGradient x1="0%" y1="50%" x2="310.12%" y2="59.34%" id="aK"><stop stop-opacity="0" offset="0%"/><stop offset="100%"/></linearGradient><path d="M40.662 44.11l-2.233.407c-.916-1.022-2.113-1.979-3.593-2.833-7.767-4.48-20.479-4.48-28.246 0-1.48.854-2.675 1.811-3.593 2.833L.764 44.11v2.424h.001c-.017 2.967 1.922 5.938 5.825 8.188 7.767 4.481 20.479 4.481 28.246 0 3.903-2.25 5.843-5.221 5.825-8.188h.001V44.11z" id="aN"/><filter x="-65.2%" y="-111.3%" width="230.3%" height="363.2%" filterUnits="objectBoundingBox" id="aM"><feOffset dy="4" in="SourceAlpha" result="shadowOffsetOuter1"/><feGaussianBlur stdDeviation="8" in="shadowOffsetOuter1" result="shadowBlurOuter1"/><feColorMatrix values="0 0 0 0 0 0 0 0 0 0 0 0 0 0 0 0 0 0 0.0845504982 0" in="shadowBlurOuter1"/></filter><path id="aO" d="M.716 3.467l.03 11.128 4.912-2.73V.633z"/><linearGradient x1="50%" y1="50%" x2="-124.823%" y2="62.836%" id="aP"><stop stop-opacity="0" offset="0%"/><stop offset="100%"/></linearGradient><path d="M.035.787V31.3c.002.223.151.447.444.616l25.568 14.747c.594.343 1.567.343 2.159 0l25.554-14.74c.297-.171.446-.397.446-.623V.787H.035z" id="aR"/><linearGradient x1="-.001%" y1="49.999%" x2="99.999%" y2="49.999%" id="aS"><stop stop-color="#F2F4F9" offset="0%"/><stop stop-color="#D3DAED" offset="100%"/></linearGradient><path d="M53.76 1.76L28.206 16.503c-.592.341-1.565.341-2.16 0L.48 1.754c-.293-.17-.442-.392-.444-.616v4.23c.002.224.151.446.444.616l25.568 14.748c.594.342 1.567.342 2.159 0L53.76 5.99c.297-.17.446-.396.446-.624V1.138c0 .226-.149.452-.446.623" id="aU"/><linearGradient x1="47.172%" y1="45.18%" x2="61.548%" y2="149.182%" id="aV"><stop stop-opacity="0" offset="0%"/><stop offset="100%"/></linearGradient><path d="M53.76 1.114l-25.554 14.74c-.592.342-1.565.342-2.16 0L.48 1.106C.186.938.037.714.035.491V4.72c.002.224.151.446.444.617l25.568 14.747c.594.34 1.567.34 2.159 0L53.76 5.344c.297-.172.446-.397.446-.624V.49c0 .227-.149.452-.446.624" id="aX"/><linearGradient x1="37.8%" y1="0%" x2="50%" y2="199.802%" id="aY"><stop stop-opacity="0" offset="0%"/><stop offset="100%"/></linearGradient><path d="M13.427.133L.23 7.738c-.307.176-.307.466 0 .641l13.197 7.612c.307.178.808.178 1.115 0l13.19-7.607c.306-.176.306-.466 0-.643L14.543.133A1.144 1.144 0 0 0 13.985 0c-.202 0-.404.045-.558.133" id="ba"/><linearGradient x1="47.172%" y1="34.341%" x2="47.172%" y2="147.57%" id="bb"><stop stop-opacity="0" offset="0%"/><stop offset="100%"/></linearGradient><path d="M29.644.157l-7.8 15.56C6.767 45.81-.767 79.185.465 112.815c.05 1.34.106 2.7.172 4.077.997 20.818 4.208 41.474 9.237 61.7l7.576 30.474h25.612l7.577-30.473c5.028-20.227 8.239-40.883 9.235-61.7.068-1.379.123-2.738.174-4.078 1.23-33.63-6.304-67.006-21.383-97.098L30.867.157h-1.223z" id="bd"/><linearGradient x1="50%" y1="103.512%" x2="50%" y2="-.508%" id="be"><stop stop-color="#EDEFF7" offset="0%"/><stop stop-color="#FBFBFD" offset="100%"/></linearGradient><path id="bg" d="M14.626 23.288L.341 100.42l51.717-39.656L40.363 1.064z"/><linearGradient x1="0%" y1="0%" x2="102%" y2="101%" id="bh"><stop stop-color="#107EFF" offset="0%"/><stop stop-color="#720C9C" offset="100%"/></linearGradient><path id="bj" d="M1.24 60.765l51.715 39.656-14.284-77.133L12.936 1.064z"/><path d="M18.995.157l-7.8 15.56a205.304 205.304 0 0 0-9.93 23.302c11.482 3.312 25.172 3.304 36.673-.026a205.582 205.582 0 0 0-9.922-23.276L20.218.157h-1.223z" id="bl"/><path d="M100.567 1.894c10.381 1.615 19.907 4.252 27.705 7.685 13.853 6.093 21.483 14.189 21.483 22.794 0 8.607-7.63 16.7-21.483 22.794-29.065 12.788-76.229 12.79-105.132.003C9.366 49.074 1.78 40.98 1.78 32.373c0-8.607 7.586-16.702 21.36-22.794C30.723 6.222 39.978 3.622 50.07 2l.562-1.476C39.998 2.165 30.23 4.872 22.253 8.4 7.908 14.748.005 23.261.005 32.373c0 9.113 7.903 17.625 22.248 23.973 14.697 6.502 34.031 9.752 53.39 9.752 19.357 0 38.738-3.25 53.513-9.751 14.427-6.347 22.372-14.86 22.372-23.974 0-9.113-7.945-17.627-22.372-23.974-8.123-3.573-18.065-6.3-28.883-7.935l.294 1.43z" id="bn"/><path d="M.317 4.697c0 2.158 1.75 3.91 3.913 3.91a3.911 3.911 0 0 0 0-7.82 3.91 3.91 0 0 0-3.913 3.91" id="bp"/><path d="M.527 4.053a2.942 2.942 0 0 0 2.943 2.94 2.94 2.94 0 1 0 0-5.88 2.943 2.943 0 0 0-2.943 2.94" id="br"/><path d="M1.022 1.953a1.907 1.907 0 0 0 3.814 0 1.906 1.906 0 0 0-3.814 0" id="bt"/><path d="M82.326 1.293c8.41 1.307 16.127 3.445 22.446 6.224 11.222 4.938 17.404 11.498 17.404 18.469 0 6.973-6.182 13.532-17.404 18.468-23.549 10.361-61.76 10.361-85.177.002C8.435 39.518 2.29 32.959 2.29 25.986c0-6.972 6.146-13.53 17.306-18.469C25.738 4.8 33.236 2.693 41.415 1.38L41.87.184c-8.615 1.328-16.531 3.522-22.992 6.38C7.254 11.705.853 18.604.853 25.986c0 7.383 6.401 14.28 18.025 19.422 11.906 5.269 27.57 7.902 43.254 7.902 15.683 0 31.384-2.635 43.356-7.9 11.688-5.143 18.124-12.04 18.124-19.424 0-7.383-6.436-14.281-18.124-19.422-6.582-2.896-14.637-5.107-23.4-6.431l.238 1.16z" id="bv"/><path d="M1.149 4.278a3.17 3.17 0 0 0 3.17 3.169 3.17 3.17 0 0 0 3.174-3.169A3.171 3.171 0 0 0 4.319 1.11a3.17 3.17 0 0 0-3.17 3.168" id="bx"/><path d="M1.12 3.59a2.381 2.381 0 0 0 2.385 2.382 2.382 2.382 0 1 0 0-4.762A2.382 2.382 0 0 0 1.12 3.59" id="bz"/><path d="M.329 2.085a1.545 1.545 0 1 0 3.09 0 1.546 1.546 0 0 0-3.09 0" id="bB"/><path d="M98.53 1.142L4.722 55.25C2.372 56.605.45 59.93.45 62.642v74.48c0 2.417 1.53 3.554 3.526 2.813a4.895 4.895 0 0 1-.073-.842v-74.48c0-2.71 1.922-6.036 4.273-7.391l93.806-54.108c.253-.146.503-.259.744-.35-.245-1.402-1.12-2.199-2.304-2.199-.571 0-1.214.186-1.893.577" id="bD"/><linearGradient x1="46.908%" y1="14.276%" x2="50%" y2="138.507%" id="bE"><stop stop-opacity="0" offset="0%"/><stop offset="100%"/></linearGradient><path d="M.865 3.903c.015 1.234 1.098 2.573 1.498 3.72.556 1.597.786 3.297 1.163 4.94.132.576.298 1.177.715 1.594.2.2.448.349.643.553.249.264.395.608.535.943.38.909.761 1.815 1.145 2.724.481 1.151 1.014 2.365 2.036 3.084 1.022.72 2.693.67 3.296-.425.182-.33.248-.712.3-1.085a20.505 20.505 0 0 0-.464-7.916c-.545-2.117-.726-4.757-1.68-6.705-.306-.625-.69-1.208-1.074-1.787C8.341 2.58 7.69 1.603 6.798.87A3.16 3.16 0 0 0 4.763.15C2.815.15.839 1.78.865 3.903" id="bG"/><path d="M1.314 2.366c-.113.271-.105.573-.084.864.108 1.503.564 3.043 1.612 4.127.692.714 1.662 1.148 2.305 1.908.758.896.529 2.206 1.192 3.198.821 1.226 1.698 2.424 2.863 3.358 2.498 2.003 2.138 3.463 2.142 6.585.005 2.773.186 5.936 2.345 7.681.262.212.551.398.77.654.321.377.465.866.689 1.308.637 1.262 1.995 2.13 3.411 2.176.649.022 1.334-.135 1.804-.58.4-.381.6-.924.755-1.454 1.03-3.498.65-7.387-1.033-10.62-.41-.786-.89-1.532-1.297-2.32a34.936 34.936 0 0 1-1.474-3.295c-.666-1.726-1.212-3.573-1.325-5.054-.22-2.869 1.045-5.725-1.379-8.023-1.744-1.654-4.391-1.8-6.795-1.803-.676-.002-1.782-.13-2.9-.13-1.546 0-3.114.246-3.601 1.42" id="bI"/><path d="M.144 4.048L1.47 40.706l.008.14 1.033 22.875a3.79 3.79 0 0 0 3.957 3.612 3.789 3.789 0 0 0 3.617-3.954L9.059 40.644l1.03-36.382A3.787 3.787 0 0 0 6.404.37C6.36.367 6.313.367 6.267.367 4.145.367.2 2.001.144 4.048" id="bK"/><path d="M5.702 9.447c-1.646.326-2.94 1.711-3.05 3.464l-2.085 33.1 2.09 25.465a3.791 3.791 0 0 0 4.983 3.28c1.679-.562 2.708-2.262 2.564-4.024L8.17 45.938l3.494-22.387 6.822-3.878a3.932 3.932 0 0 0 1.985-3.303l.267-9.448-15.16-5.816.125 8.341z" id="bM"/><path d="M33.978 2.487L.5 21.41v3.958a4.9 4.9 0 0 0 2.459 4.247l64.312 36.998c5.182 2.982 13.61 2.895 18.731-.191l31.076-18.795a2.816 2.816 0 0 0 1.362-2.41v-5.348L52.81 2.487C50.221.993 46.808.246 43.395.246c-3.414 0-6.827.747-9.417 2.24" id="bO"/><linearGradient x1="47.172%" y1="45.18%" x2="45.384%" y2="173.239%" id="bP"><stop stop-opacity="0" offset="0%"/><stop offset="100%"/></linearGradient><linearGradient x1="-9.587%" y1="50%" x2="89.303%" y2="65.025%" id="bS"><stop stop-color="#3023AE" offset="0%"/><stop stop-color="#C86DD7" offset="100%"/></linearGradient><path d="M.888 29.615c.033 3.001 2.176 6.712 4.763 8.244L60.502 70.32c2.587 1.53 4.704.325 4.704-2.677 0-2.814-.077-5.639 0-8.451.052-1.963.106-2.704-1.17-4.309a55.295 55.295 0 0 1-4.135-5.943c-.79-1.32-1.523-2.68-2.45-3.905-2.483-3.294-6.356-5.506-10.454-5.975-2.75-.314-5.576.118-8.273-.504-1.39-.32-2.702-.911-3.986-1.534-1.351-.655-2.724-1.377-3.686-2.53-.983-1.177-1.447-2.69-1.886-4.16-.93-3.112-1.252-7.738-4.389-9.497-1.524-.853-3.31-1.088-5.047-1.236-1.74-.149-3.515-.234-5.154-.834-2.387-.872-4.281-2.779-5.615-4.943-1.355-2.202-1.816-5.029-3.312-7.045C4.856 5.71 3.973 4.666 3.155 3.61 2.773 3.121.576 1.18.572.697l.316 28.918z" id="bR"/></defs><g fill="none" fill-rule="evenodd"><path fill="#EDF0F8" d="M145.753 484.349l-.666-1.15 151.048-87.125.665 1.15zM22.684 286.523l-.666-1.15 151.047-87.124.666 1.15zM.825 228.817l-.665-1.15 151.047-87.124.666 1.15zM109.205 250.973l-.666-1.15L259.587 162.7l.665 1.15zM416.287 253.645l-.666-1.15 151.048-87.123.665 1.15zM70.901 503.465l-.665-1.15 151.047-87.123.666 1.15zM20.045 388.26l-.665-1.151 112.606-64.952.666 1.15zM3.716 413.306l-.661-1.153 69.178-39.606.661 1.153zM506.799 357.618l-.663-1.153 69.18-39.608.663 1.153zM292.546 453.005l-.663-1.153 69.178-39.606.663 1.153zM380.698 166.245l-.663-1.153L419.21 142.6l.663 1.153zM403.561 469.908l-.666-1.15 151.048-87.123.665 1.15zM442.653 329.537l-.666-1.15 151.048-87.124.665 1.15zM335.416 492.881l-.665-1.15 79.657-45.945.665 1.15z"/><g transform="translate(219.962 364.812)"><mask id="c" fill="#fff"><use xlink:href="#a"/></mask><path d="M.44.033v31.509c.005.231.155.46.458.636l26.404 15.227c.612.355 1.616.355 2.23 0l26.389-15.22c.306-.178.46-.41.46-.643V.033H.44z" fill="url(#b)" mask="url(#c)"/></g><g transform="translate(219.962 372.791)"><mask id="e" fill="#fff"><use xlink:href="#d"/></mask><path d="M55.92 1.3L29.533 16.52c-.614.354-1.618.354-2.23 0L.898 1.291C.595 1.116.445.886.441.656H.439v4.367h.002c.004.232.154.461.457.635l26.404 15.23c.612.354 1.616.354 2.23 0L55.92 5.665c.306-.177.46-.41.46-.643V.656c0 .232-.154.466-.46.643" mask="url(#e)"/></g><g transform="translate(219.962 384.76)"><mask id="g" fill="#fff"><use xlink:href="#f"/></mask><path d="M55.92 1.02L29.533 16.242c-.614.354-1.618.354-2.23 0L.898 1.013C.595.838.445.608.441.378H.439v4.367h.002c.004.231.154.461.457.635l26.404 15.23c.612.355 1.616.355 2.23 0L55.92 5.388c.306-.175.46-.407.46-.642V.378c0 .232-.154.466-.46.642" mask="url(#g)"/></g><path d="M249.493 348.98c-.612-.355-1.616-.355-2.23-.001l-26.402 15.214c-.614.354-.614.934 0 1.286l26.402 15.23c.614.353 1.618.353 2.23 0l26.389-15.222c.614-.353.614-.932 0-1.286l-26.389-15.22z" fill="#F6F8FB"/><g transform="translate(230.61 354.174)"><mask id="i" fill="#fff"><use xlink:href="#h"/></mask><path d="M6.071 3.625c6.43-3.709 16.95-3.709 23.38 0 6.429 3.708 6.429 9.776 0 13.484-6.43 3.708-16.95 3.708-23.38 0s-6.43-9.776 0-13.484" mask="url(#i)"/></g><g transform="translate(219.962 54.965)"><use fill="#000" filter="url(#j)" xlink:href="#k"/><use fill="#48486A" xlink:href="#k"/></g><path d="M264.969 340.673l-.016-2.438h-3.5l-.78-.446c-.606-.349-1.59-.349-2.196.001l-.777.445h-4.83v-1.779c0-.495-.694-.893-1.553-.893h-5.405c-.859 0-1.554.398-1.554.893v1.78h-4.909l-.75-.427c-.608-.349-1.591-.347-2.195.004l-.735.422h-3.525v2.385c-.012.238.137.477.454.658l2.372 1.356 27.082-.037 2.346-1.348c.278-.161.422-.366.446-.576h.025z" fill="#48486A"/><path d="M241.079 343.748c.9-2.746 5.85-4.298 10.3-3.312 3.38.748 5.44 2.85 4.77 4.897-.9 2.75-5.848 4.3-10.3 3.314-3.38-.748-5.44-2.85-4.77-4.899m21.513 3.234l4.24-.002c.857 0 1.552-.4 1.552-.894l-.006-3.108c0-.493-.696-.892-1.554-.892l-3.317.001c-.549.002-1.021-.202-1.216-.498a7.205 7.205 0 0 0-.38-.528c-.228-.286-.147-.623.242-.847l2.345-1.35c.607-.349.606-.914 0-1.262l-3.824-2.196c-.607-.35-1.59-.35-2.198 0l-2.362 1.36c-.373.213-.932.273-1.415.155a46.38 46.38 0 0 0-1.016-.237c-.492-.111-.813-.383-.813-.686v-1.926c0-.493-.695-.893-1.554-.893h-5.405c-.857 0-1.554.4-1.554.893v1.906c0 .317-.354.588-.868.698-.326.07-.645.148-.96.23-.5.133-1.085.087-1.475-.137l-2.354-1.345c-.608-.348-1.592-.346-2.197.004l-3.811 2.203c-.606.35-.602.916.006 1.263l2.371 1.355c.374.215.48.535.274.813-.142.195-.287.404-.408.585-.192.283-.665.467-1.192.468l-3.353.004c-.857.002-1.55.403-1.55.896l.014 3.107c.003.495.699.894 1.557.892l3.319-.005c.548 0 1.022.202 1.217.499.115.178.244.353.382.526.228.286.147.623-.24.847l-2.343 1.353c-.605.35-.603.913.004 1.262l3.831 2.194c.608.347 1.59.346 2.196-.003l2.36-1.363c.372-.214.93-.275 1.415-.157.337.083.702.167 1.016.237.493.109.813.382.813.685l.006 1.927c.001.493.698.892 1.557.89l5.406-.003c.857-.002 1.552-.402 1.55-.895l-.005-1.909c-.001-.315.354-.586.867-.698.31-.067.616-.14.917-.22.499-.13 1.085-.084 1.473.14l2.35 1.346c.608.35 1.592.349 2.197-.001l3.818-2.2c.605-.35.604-.914-.003-1.263l-2.367-1.358c-.372-.212-.479-.534-.271-.812.343-.466.699-1.019.716-1.05" fill="#5C629E"/><path d="M500.119 89.565a2.327 2.327 0 0 1-1.981-1.098l-6.785-10.897a12.286 12.286 0 0 1 .912-14.26l5.27-6.462a2.33 2.33 0 0 1 3.277-.334 2.325 2.325 0 0 1 .333 3.274l-5.27 6.463a7.638 7.638 0 0 0-.564 8.862l6.783 10.896a2.326 2.326 0 0 1-1.975 3.556" fill="#F2B1B5"/><g transform="translate(491.506 54.965)"><mask id="m" fill="#fff"><use xlink:href="#l"/></mask><path d="M5.77 1.673L.86 7.693a2.658 2.658 0 0 0 .383 3.742 2.659 2.659 0 0 0 3.746-.382l4.91-6.02a2.66 2.66 0 1 0-4.129-3.36" mask="url(#m)"/></g><g fill="#48486A"><path d="M501.39 144.82c-1.781 0-3.294.36-3.44-1.444l-1.75-28.187 1.743-30.316a3.444 3.444 0 0 1 3.65-3.251c1.906.11 7.685 1.742 7.575 3.646l-5.172 29.837.844 27.704c.156 1.902-1.259 1.843-3.162 1.999a3.488 3.488 0 0 1-.288.012"/><path d="M512.7 150.144c-1.91 0-3.458.18-3.458-1.726L504.3 87.053c0-1.907 6.49-.113 8.4-.113a3.456 3.456 0 0 1 3.457 3.455v58.023c0 1.907-1.548 1.726-3.458 1.726"/></g><g transform="translate(495.499 49.646)"><mask id="o" fill="#fff"><use xlink:href="#n"/></mask><use fill="#7383A0" xlink:href="#n"/><path d="M1.077 14.693c0 7.886 1.762 15.63-.083 27.381 0 0 9.456 5.238 21.131 5.238 0 0-.728-18.508-.186-27.635.471-7.979-3.087-13.2-10.016-17.196L9.835 1.277C9.145.879 8.48.695 7.843.695c-3.977 0-6.766 7.18-6.766 13.998" mask="url(#o)"/></g><path d="M505.35 57.861h1.879c.813 0 1.474-.66 1.474-1.472v-6.41h-4.824v6.41c0 .813.659 1.472 1.472 1.472" fill="#F2B1B5"/><path fill="#FFF" d="M508.702 52.298l1.327.705-2.023 11.336-2.71-6.695z"/><path fill="#FFF" d="M505.297 57.643l-1.418-7.18h-.618l-2.732 9.514z"/><path d="M504.843 51.636l5.17-1.03a2.252 2.252 0 0 0 1.769-2.65l-2.479-12.404-13.275 2.648 1.744 8.722a6.011 6.011 0 0 0 7.07 4.714" fill="#F2B1B5"/><path d="M505.516 40.546c1.02.393 1.883 1.583 2.136 2.562.2.772-.056 1.083-.426 1.758-.209.384-.367.83-.254 1.254a.27.27 0 0 0 .067.131.247.247 0 0 0 .145.059c.438.06.8-.318 1.071-.668.41-.532.976-1.02 1.587-.456.666.613.236 1.294-.025 1.927-.313.763-.686 2.44.158 3.045.678.486 2.16-.147 2.769-.528.093-.058.182-.12.269-.187 1.81-1.414 1.537-4.213 1.815-6.237.227-1.652-.195-3.053-.422-4.65-.22-1.555-.173-2.991-1.32-4.24-1.05-1.142-3.015-1.526-4.168-.488-.637-.812-1.668-1.24-2.694-1.366-1.025-.123-2.063.02-3.085.164-1.988.28-3.319.844-4.956 1.93-.768.509-1.36 1.24-2.014 1.877-.644.625-.626 1.438-.445 2.3.201.966.646 1.865 1.085 2.75.096-.084.139-.215.177-.337.273-.872.284-1.618.94-2.318.614-.655 1.18-.518 2.003-.22.236.083.469.187.663.345.518.423.382 1.097.987 1.49.484.312 1.111.296 1.68.198.568-.099 1.136-.269 1.712-.222.184.016.367.06.545.127" fill="#48486A"/><path d="M508.797 45.573c-.119-.376-.431-.718-.824-.75-.32-.029-.606.141-.872.337-.088.065-.173.133-.258.197-.89.68-2.095 1.441-3.21 1.087-1.43-.453-2.602-.867-4.14-.527-.448.1-.904.26-1.213.598-.615.673-.408 1.767.069 2.544 1.005 1.632 2.947 2.515 4.86 2.662 1.334.103 2.757-.138 3.785-.993 1.15-.955 1.62-2.502 1.827-3.982.054-.39.094-.796-.024-1.173" fill="#48486A"/><g transform="translate(410.309 94.86)"><mask id="r" fill="#fff"><use xlink:href="#p"/></mask><path d="M.694 34.385l.122.016c.16.374.476.727.978 1.016l87.78 50.972c1.465.839 3.856.835 5.317-.008l40.14-23.15c.838-.486 1.177-1.145 1.051-1.776l.015.002V27.713L.694.302v34.083z" fill="url(#q)" mask="url(#r)"/></g><g transform="translate(410.309 122.786)"><mask id="u" fill="#fff"><use xlink:href="#s"/></mask><use fill="#107EFF" xlink:href="#s"/><path d="M.694 6.459l.122.016c.16.374.476.727.978 1.016l87.78 50.972c1.465.839 3.856.835 5.317-.008l40.14-23.151c.838-.485 1.177-1.144 1.051-1.775l.015.002v-5.195c-.067.492-.417.972-1.067 1.345L94.891 52.834c-1.461.843-3.852.845-5.316.006L1.795 1.868C1.291 1.58.974 1.226.815.855L.694.838v5.62z" fill="url(#t)" mask="url(#u)"/></g><g transform="translate(410.309 112.147)"><mask id="x" fill="#fff"><use xlink:href="#v"/></mask><use fill="#107EFF" xlink:href="#v"/><path d="M.694 5.854l.122.017c.16.374.476.726.978 1.015l87.78 50.972c1.465.839 3.856.835 5.317-.007l40.14-23.152c.838-.484 1.177-1.142 1.051-1.775l.015.002v-5.194c-.067.49-.417.97-1.067 1.346l-40.139 23.15c-1.461.844-3.852.848-5.316.01L1.795 1.265C1.291.976.974.62.815.25L.694.233v5.62z" fill="url(#w)" mask="url(#x)"/></g><g transform="translate(410.309 100.179)"><mask id="A" fill="#fff"><use xlink:href="#y"/></mask><use fill="#107EFF" xlink:href="#y"/><path d="M.694 6.58l.122.016c.16.374.476.727.978 1.015l87.78 50.971c1.465.84 3.856.837 5.317-.006l40.14-23.151c.838-.485 1.177-1.144 1.051-1.775l.015.002v-5.195c-.067.49-.417.97-1.067 1.345L94.891 52.955c-1.461.841-3.852.845-5.316.006L1.795 1.99C1.291 1.701.974 1.347.815.975L.694.957V6.58z" fill="url(#z)" mask="url(#A)"/></g><path d="M451.842 70.292c1.457-.85 3.847-.86 5.31-.025l88.18 51.029c1.463.835 1.467 2.208.006 3.05L505.2 147.498c-1.462.842-3.853.846-5.316.007l-87.78-50.972c-1.462-.838-1.468-2.22-.011-3.07l39.749-23.171z" fill="#F6F8FB"/><g transform="translate(462.221 90.87)"><mask id="C" fill="#fff"><use xlink:href="#B"/></mask><use fill="#273143" xlink:href="#B"/><path d="M.646 13.101L31.1 29.994l18.516-8.458c1.771-.97 1.8-3.502.052-4.51L21.468.739.646 13.101z" mask="url(#C)"/></g><g transform="translate(459.56 89.54)"><mask id="E" fill="#fff"><use xlink:href="#D"/></mask><use fill="#45546E" xlink:href="#D"/><path d="M19.752.594L.5 12.024 33.763 30.55l18.516-8.46c1.771-.969 1.8-3.5.052-4.51L22.9.576a3.12 3.12 0 0 0-3.149.018" mask="url(#E)"/></g><path d="M490.797 118.454l16.148-7.19c1.526-.837 1.552-3.022.042-3.892L481.19 92.473l-17.965 10.665 27.573 15.316z" fill="#273143"/><g transform="translate(456.897 78.902)"><mask id="G" fill="#fff"><use xlink:href="#F"/></mask><use fill="#5F708D" xlink:href="#F"/><path d="M.89 1.11l-.417.121 2.756 21.034c0 .827.59 1.84 1.307 2.25l31.437 18.223.463-.32a.606.606 0 0 0 .258-.496l-2.759-20.934c-.004-.827-.595-1.841-1.311-2.254L2.049 1.25a1.492 1.492 0 0 0-1.16-.139" mask="url(#G)"/></g><g transform="translate(456.897 78.902)"><mask id="J" fill="#fff"><use xlink:href="#H"/></mask><use fill="#45546E" xlink:href="#H"/><path d="M.096 2.068l2.76 20.572c0 .827.586 1.84 1.305 2.25l30.996 17.715c.719.412 1.302.07 1.295-.756L33.56 21.363c-.006-.825-.597-1.84-1.313-2.254L1.397 1.317A1.17 1.17 0 0 0 .82 1.14c-.427 0-.724.341-.724.928" fill="url(#I)" mask="url(#J)"/></g><path d="M472.471 99.166c1.267.44 2.656 2.024 3.087 3.52.433 1.496-.25 2.358-1.515 1.915-1.266-.443-2.654-2.027-3.088-3.52-.434-1.493.249-2.355 1.516-1.915" fill="#107EFF"/><path d="M504.53 80.441h-.098a3.61 3.61 0 0 1-3.478-3.226l-2.375-23.057a2.33 2.33 0 0 1 4.637-.476l2.007 19.49 5.574-10.897a2.335 2.335 0 0 1 3.135-1.012 2.326 2.326 0 0 1 1.014 3.132l-7.21 14.089a3.616 3.616 0 0 1-3.205 1.957" fill="#F2B1B5"/><g transform="translate(506.148 60.285)"><mask id="L" fill="#fff"><use xlink:href="#K"/></mask><path d="M4.366 1.815L1.524 7.232a2.658 2.658 0 0 0 2.355 3.895c.958 0 1.885-.52 2.36-1.426l2.843-5.415A2.657 2.657 0 0 0 7.96.696 2.638 2.638 0 0 0 6.727.39c-.958 0-1.886.52-2.361 1.425" mask="url(#L)"/></g><path d="M502.708 53.925a.599.599 0 0 1-.684-.499l-.742-4.738a.6.6 0 0 1 1.185-.186l.742 4.74a.6.6 0 0 1-.5.683" fill="#F2B1B5"/><path d="M502.582 56.166a.597.597 0 0 1-.322-.782l1.84-4.428a.6.6 0 0 1 1.108.458l-1.842 4.429a.6.6 0 0 1-.784.323" fill="#F2B1B5"/><path d="M501.848 55.654a.6.6 0 0 1-.685-.5l-.74-4.737a.599.599 0 1 1 1.184-.186l.741 4.739a.6.6 0 0 1-.5.684" fill="#F2B1B5"/><path d="M500.878 56.514a.6.6 0 0 1-.684-.498l-.742-4.738a.6.6 0 0 1 1.185-.186l.741 4.738a.6.6 0 0 1-.5.684M499.742 57.21a.601.601 0 0 1-.686-.499l-.74-4.738a.6.6 0 0 1 1.183-.186l.743 4.74a.6.6 0 0 1-.5.683" fill="#F2B1B5"/><path d="M376.975 200.992l-.499-.865 74.607-43.034a8.118 8.118 0 0 0 4.054-7.013v-13.954h.999v13.954a9.126 9.126 0 0 1-4.554 7.879l-74.607 43.033z" fill="#48486A"/><path d="M455.134 134.088c-.862-.499-1.57-.088-1.57.91 0 1 .71 2.226 1.576 2.726.865.5 1.573.089 1.57-.911-.002-1-.712-2.226-1.576-2.725M370.985 197.667l-.499-.864 74.607-43.034a8.118 8.118 0 0 0 4.054-7.014v-13.954h.999v13.954a9.126 9.126 0 0 1-4.554 7.88l-74.607 43.032z" fill="#48486A"/><path d="M449.284 130.706c-.863-.499-1.571-.088-1.571.91 0 1 .71 2.225 1.575 2.725.866.5 1.573.09 1.57-.91-.002-1.002-.712-2.227-1.574-2.725" fill="#48486A"/><path d="M206.43 247.479l-90.124-54.282a3.712 3.712 0 0 1-1.865-3.235 3.71 3.71 0 0 1 1.867-3.241l39.541-22.966a3.585 3.585 0 0 0 1.781-3.083l.01-12.72.999-.64-.01 13.363a4.59 4.59 0 0 1-2.278 3.942l-39.543 22.966a2.723 2.723 0 0 0-1.368 2.377c.002.991.515 1.88 1.373 2.377l89.616 53.972v1.17z" fill="#C9D7ED"/><path d="M211.335 241.079l-95.029-57.191a3.708 3.708 0 0 1-1.865-3.234 3.71 3.71 0 0 1 1.867-3.243l39.541-22.964a3.587 3.587 0 0 0 1.781-3.084l.01-6.07 1-.64-.011 6.713a4.59 4.59 0 0 1-2.278 3.943l-39.543 22.964a2.724 2.724 0 0 0-1.368 2.38c.001.99.515 1.878 1.373 2.376L212 240.248l-.665.831z" fill="#48486A"/><g transform="translate(161.394 130.765)"><mask id="O" fill="#fff"><use xlink:href="#M"/></mask><path fill="url(#N)" mask="url(#O)" d="M.644 14.349v1.635l13.303 7.673L40.46 8.26V6.624L27.512.487z"/></g><path fill="#F9F7F9" d="M175.34 152.786l26.512-15.398-12.945-7.771-26.87 15.496z"/><g transform="translate(168.05 100.179)"><mask id="R" fill="#fff"><use xlink:href="#P"/></mask><path d="M19.703.453L4.45 9.367c-1.728 1.008-3.141 3.471-3.141 5.471l.088 32.507 1.731.766 19.714-12.453V2.253c0-1.415-.708-2.234-1.734-2.234-.424 0-.902.14-1.406.434" fill="url(#Q)" mask="url(#R)"/></g><path d="M171.178 148.29v-33.274c0-1.999 1.414-4.462 3.141-5.47l15.252-8.913c1.728-1.011 3.142-.2 3.142 1.799v33.405l-21.535 12.454z" fill="#EBE9EC"/><path d="M174.32 109.546l15.25-8.914c1.729-1.01 3.142-.2 3.142 1.8v26.316l-21.534 12.454v-26.186c0-2 1.413-4.461 3.141-5.47" fill="#C2C2C2"/><g transform="translate(140.096 48.316)"><mask id="U" fill="#fff"><use xlink:href="#S"/></mask><use fill="#273143" xlink:href="#S"/><path d="M72.638.73L4.058 40.484c-1.734 1-3.152 3.453-3.152 5.453v55.477a2.52 2.52 0 0 0 1.405 2.26l.49.244c.91.451 2.192.257 3.07-.25l69.208-40.04c1.732-.999 3.15-3.453 3.15-5.453V3.635c0-.92-.386-1.799-1.067-2.42A3.852 3.852 0 0 0 72.638.73" fill="url(#T)" mask="url(#U)"/></g><path d="M215.174 49.976c1.734-.999 3.151-.181 3.151 1.818v54.861c0 1.999-1.417 4.452-3.15 5.452l-69.202 39.915c-1.733 1-3.15.182-3.15-1.818v-54.86c0-2 1.417-4.454 3.15-5.454l69.201-39.914z" fill="#172234"/><path fill="#48486A" d="M215.533 54.658v41.54l-69.44 39.704V93.998z"/><path d="M215.174 112.108l-69.2 39.914c-1.734 1-3.151.182-3.151-1.818v-8.824l75.502-43.674v8.948c0 2-1.417 4.454-3.15 5.454" fill="#F9F7F9"/><g transform="translate(165.387 77.572)"><mask id="W" fill="#fff"><use xlink:href="#V"/></mask><path mask="url(#W)" d="M.463 7.846v1.977l11.995-6.919V.928z"/></g><g fill="#99A7D8"><path d="M210.863 62.938l-37.967 22.083V87l37.967-22.085zM210.24 79.17l-37.967 22.084v1.977l37.967-22.084zM210.924 94.523l-37.966 22.083v1.977L210.924 96.5zM169.896 86.753L157.9 93.672v1.976l11.995-6.918zM167.348 92.074l-5.672 3.297v1.976l5.672-3.297z"/></g><g transform="translate(164.056 105.498)"><mask id="Y" fill="#fff"><use xlink:href="#X"/></mask><path mask="url(#Y)" d="M.905 3.876v1.978l5.672-3.298V.58z"/></g><g transform="translate(168.05 86.88)"><mask id="aa" fill="#fff"><use xlink:href="#Z"/></mask><path mask="url(#aa)" d="M.962 4.223V6.2l5.67-3.296V.927z"/></g><g fill="#99A7D8"><path d="M204.495 70.585l-26.478 15.247v1.976l26.478-15.245zM212.345 86.009l-26.479 15.245v1.977l26.479-15.246zM204.697 78.6L178.22 93.847v1.977l26.478-15.246zM164.961 97.515l-7.06 4.06v1.977l7.06-4.06z"/></g><g transform="translate(161.394 101.509)"><mask id="ac" fill="#fff"><use xlink:href="#ab"/></mask><path mask="url(#ac)" d="M.039 2.043v1.976l2.466-1.447V.596z"/></g><g transform="translate(176.036 108.158)"><mask id="ae" fill="#fff"><use xlink:href="#ad"/></mask><path mask="url(#ae)" d="M.748 2.262v1.977l2.467-1.448V.815z"/></g><g transform="translate(180.03 105.498)"><mask id="ag" fill="#fff"><use xlink:href="#af"/></mask><path mask="url(#ag)" d="M.483 2.711v1.977L2.95 3.24V1.265z"/></g><g transform="translate(184.022 96.19)"><mask id="ai" fill="#fff"><use xlink:href="#ah"/></mask><path mask="url(#ai)" d="M.021 2.384V4.36l2.467-1.445V.938z"/></g><path fill="#99A7D8" d="M176.7 94.71l-11.994 6.92v1.976l11.995-6.92z"/><g transform="translate(178.698 81.562)"><mask id="ak" fill="#fff"><use xlink:href="#aj"/></mask><path mask="url(#ak)" d="M.765 7.664V9.64L12.76 2.72V.746z"/></g><g fill="#99A7D8"><path d="M184.952 101.79l-11.995 6.919v1.976l11.995-6.919zM178.362 89.803l-11.994 6.918V98.7l11.994-6.92zM170.704 102.105l-11.995 6.919V111l11.995-6.92zM183.387 98.839l-11.994 6.917v1.977l11.994-6.918zM171.387 109.616l-11.994 6.92v1.975l11.994-6.917zM175.811 111l-11.995 6.919v1.976l11.995-6.919zM171.387 117.527l-11.994 6.918v1.976l11.994-6.918zM153.596 92.216l-2.05 1.184v1.976l2.05-1.182zM153.596 96.171l-2.05 1.184v1.976l2.05-1.182zM153.596 100.127l-2.05 1.182v1.976l2.05-1.182zM153.596 104.081l-2.05 1.184v1.976l2.05-1.182zM153.596 108.037l-2.05 1.182v1.976l2.05-1.182zM153.596 111.992l-2.05 1.182v1.976l2.05-1.182zM153.596 115.947l-2.05 1.182v1.976l2.05-1.182zM153.596 119.902l-2.05 1.182v1.976l2.05-1.182zM153.596 123.857l-2.05 1.182v1.977l2.05-1.183zM153.596 127.812l-2.05 1.182v1.977l2.05-1.183zM191.458 70.585l-11.994 6.92v1.976l11.994-6.918z"/></g><g transform="translate(186.685 153.372)"><mask id="ao" fill="#fff"><use xlink:href="#al"/></mask><use filter="url(#am)" xlink:href="#al" fill="#000"/><path d="M168.207 2.47L8.085 95.034a14.667 14.667 0 0 0-7.33 12.772 7.203 7.203 0 0 0 3.65 6.23l73.256 41.57c4.972 2.841 13.098 2.825 18.06-.035l164.085-94.718a7.311 7.311 0 0 0 3.658-6.334V50.82a6.903 6.903 0 0 0-3.457-5.98L186.29 2.396C183.822 1 180.58.302 177.334.302c-3.31.001-6.624.725-9.127 2.169" fill="url(#an)" mask="url(#ao)"/></g><path d="M446.398 197.415c4.985 2.82 5.005 7.468.044 10.33l-164.037 94.508c-4.96 2.861-13.088 2.876-18.06.033l-73.182-41.85c-4.972-2.844-4.98-7.512-.019-10.373l163.537-94.22c4.96-2.862 13.098-2.895 18.085-.076l73.632 41.648z" fill="#F9F7F9"/><path d="M228.698 277.608c-4.863-2.803-4.863-7.395 0-10.198 4.862-2.805 12.818-2.805 17.68 0 4.863 2.803 4.863 7.393 0 10.198-4.862 2.803-12.818 2.803-17.68 0" fill="#EDF0F8"/><path d="M408.11 187.699a.743.743 0 0 0 .372-1.386l-16.314-9.411a.744.744 0 1 0-.743 1.287l16.313 9.41c.118.068.245.1.371.1M389.397 176.906a.743.743 0 0 0 .373-1.386l-3.633-2.096a.743.743 0 1 0-.744 1.286l3.633 2.095c.117.069.245.1.371.1" fill="#99A7D8"/><path fill="#D3DAED" d="M433.383 211.248l-83.172-48.584-137.796 79.378 83.883 48.575z"/><g transform="translate(279.861 328.907)"><mask id="ar" fill="#fff"><use xlink:href="#ap"/></mask><path d="M.095.132v32.03c.005.234.16.468.467.646L27.4 48.288c.623.36 1.642.36 2.266 0L56.49 32.815c.312-.179.469-.415.469-.652V.132H.095z" fill="url(#aq)" mask="url(#ar)"/></g><g transform="translate(279.861 336.886)"><mask id="at" fill="#fff"><use xlink:href="#as"/></mask><path d="M56.49 1.552L29.667 17.024c-.624.36-1.643.36-2.266 0L.56 1.544C.255 1.366.1 1.133.097.899H.095v4.439c.005.234.16.468.467.646L27.4 21.464c.623.36 1.642.36 2.266 0L56.49 5.991c.312-.18.469-.416.469-.654V.899c0 .237-.157.473-.469.653" mask="url(#at)"/></g><g transform="translate(279.861 348.854)"><mask id="av" fill="#fff"><use xlink:href="#au"/></mask><path d="M56.49 1.468l-26.823 15.47c-.624.36-1.643.36-2.266 0L.56 1.458C.255 1.283.1 1.049.097.815H.095v4.44c.005.233.16.467.467.645L27.4 21.38c.623.358 1.642.358 2.266 0L56.49 5.905c.312-.178.469-.417.469-.652V.814c0 .237-.157.473-.469.654" mask="url(#av)"/></g><path d="M309.528 312.914c-.623-.36-1.643-.36-2.266 0l-26.838 15.465c-.624.359-.624.948 0 1.307l26.838 15.48c.623.36 1.643.36 2.266 0l26.824-15.472c.624-.36.624-.948 0-1.307l-26.824-15.473z" fill="#F6F8FB"/><g transform="translate(287.848 319.599)"><mask id="ax" fill="#fff"><use xlink:href="#aw"/></mask><path d="M6.365 3.427c7.43-4.285 19.589-4.285 27.018 0 7.43 4.286 7.43 11.298 0 15.584s-19.588 4.286-27.018 0c-7.429-4.286-7.429-11.298 0-15.584" mask="url(#ax)"/></g><g transform="translate(279.861 304.97)"><use fill="#000" filter="url(#ay)" xlink:href="#az"/><use fill="#E4E9F4" xlink:href="#az"/></g><path d="M296.813 312.318c-1.192.688-2.155 1.46-2.892 2.282h-1.798v4.244c-.015 2.39 1.548 4.782 4.69 6.594.096.056.196.108.296.162v-4.278l3.087-10.492a18.115 18.115 0 0 0-3.383 1.488" fill="#107EFF"/><path d="M296.813 308.04c6.255-3.609 16.491-3.609 22.747 0 6.255 3.607 6.255 9.511 0 13.12-6.256 3.607-16.492 3.607-22.747 0-6.256-3.609-6.256-9.513 0-13.12" fill="#FAFBFD"/><path d="M308.186 305.333c-4.122 0-8.245.903-11.373 2.706-6.256 3.608-6.256 9.512 0 13.12.096.056.197.108.296.162l11.077-5.266v-10.722z" fill="#3B95FF"/><path d="M292.335 316.055h15.85v-10.723c-4.12 0-8.244.903-11.372 2.708-3.768 2.173-5.25 5.178-4.478 8.015" fill="#AE1AEB"/><g transform="translate(531.438 182.628)"><mask id="aC" fill="#fff"><use xlink:href="#aA"/></mask><path d="M1.084.555v32.028c.002.234.157.47.465.646l26.838 15.48c.624.361 1.643.361 2.267 0l26.824-15.472c.312-.18.467-.416.467-.654V.555H1.084z" fill="url(#aB)" mask="url(#aC)"/></g><g transform="translate(531.438 190.606)"><mask id="aE" fill="#fff"><use xlink:href="#aD"/></mask><path d="M57.478 1.973L30.654 17.446c-.624.359-1.643.359-2.267 0L1.549 1.966c-.308-.179-.463-.411-.465-.645v4.44c.002.232.157.467.465.645l26.838 15.479c.624.36 1.643.36 2.267 0L57.478 6.414c.312-.18.467-.417.467-.653V1.32c0 .236-.155.473-.467.652" mask="url(#aE)"/></g><g transform="translate(531.438 202.575)"><mask id="aG" fill="#fff"><use xlink:href="#aF"/></mask><path d="M57.478 1.888L30.654 17.36c-.624.36-1.643.36-2.267 0L1.549 1.88c-.308-.177-.463-.412-.465-.645v4.44c.002.233.157.469.465.646L28.387 21.8c.624.36 1.643.36 2.267 0L57.478 6.329c.312-.181.467-.418.467-.655V1.235c0 .237-.155.474-.467.653" mask="url(#aG)"/></g><path d="M562.093 167.056c-.625-.359-1.643-.36-2.267 0l-26.838 15.464c-.623.36-.623.949 0 1.308l26.838 15.48c.624.36 1.642.36 2.267 0l26.823-15.472c.624-.36.624-.948 0-1.308l-26.823-15.472z" fill="#F6F8FB"/><g transform="translate(540.756 173.319)"><mask id="aI" fill="#fff"><use xlink:href="#aH"/></mask><path d="M5.873 3.85c7.43-4.286 19.588-4.286 27.017 0 7.43 4.284 7.43 11.298 0 15.583-7.429 4.284-19.587 4.284-27.017 0-7.43-4.285-7.43-11.299 0-15.583" mask="url(#aI)"/></g><g transform="translate(555.398 126.775)"><mask id="aL" fill="#fff"><use xlink:href="#aJ"/></mask><use fill="#107EFF" xlink:href="#aJ"/><path fill="url(#aK)" mask="url(#aL)" d="M1.093 11.577l3.182 1.792.03-11.13L1.093.343z"/></g><g transform="translate(539.425 125.445)"><use fill="#000" filter="url(#aM)" xlink:href="#aN"/><use fill="#E4E9F4" xlink:href="#aN"/></g><path d="M546.016 161.206c7.767-4.48 20.478-4.48 28.245 0 7.769 4.48 7.769 11.811 0 16.291-7.767 4.482-20.478 4.482-28.245 0-7.769-4.48-7.769-11.811 0-16.291" fill="#FAFBFD"/><path d="M547.947 162.32c6.705-3.867 17.676-3.867 24.38 0 6.707 3.868 6.707 10.196 0 14.063-6.704 3.867-17.675 3.867-24.38 0-6.703-3.867-6.703-10.195 0-14.062" fill="#D3DAED"/><path d="M549.904 163.585c5.618-3.172 14.81-3.172 20.428 0 5.617 3.171 5.617 8.363 0 11.535-5.619 3.171-14.81 3.171-20.428 0-5.619-3.172-5.619-8.364 0-11.535" fill="#FAFBFD"/><path d="M551.787 164.648c4.582-2.587 12.078-2.587 16.661 0 4.582 2.588 4.582 6.82 0 9.408-4.583 2.587-12.08 2.587-16.66 0-4.583-2.588-4.583-6.82 0-9.408" fill="#D3DAED"/><path d="M553.625 166.041c3.522-1.82 9.287-1.82 12.81 0 3.523 1.82 3.523 4.8 0 6.621-3.523 1.822-9.288 1.822-12.81 0-3.522-1.82-3.522-4.8 0-6.62" fill="#FAFBFD"/><path d="M556.114 167.328c2.153-1.113 5.678-1.113 7.831 0 2.154 1.113 2.154 2.935 0 4.048-2.153 1.113-5.678 1.113-7.83 0-2.154-1.113-2.154-2.935 0-4.048" fill="#D3DAED"/><path d="M560.108 169.845a.913.913 0 0 1-.913-.911v-41.587a.914.914 0 0 1 1.826 0v41.587c0 .503-.41.91-.913.91" fill="#48486A"/><g transform="translate(559.391 125.445)"><mask id="aQ" fill="#fff"><use xlink:href="#aO"/></mask><use fill="#107EFF" xlink:href="#aO"/><path fill="url(#aP)" mask="url(#aQ)" d="M.716 3.467l.03 11.128 4.912-2.73V.633z"/></g><g transform="translate(476.864 217.203)"><mask id="aT" fill="#fff"><use xlink:href="#aR"/></mask><path d="M.035.787V31.3c.002.223.151.447.444.616l25.568 14.747c.594.343 1.567.343 2.159 0l25.554-14.74c.297-.171.446-.397.446-.623V.787H.035z" fill="url(#aS)" mask="url(#aT)"/></g><g transform="translate(476.864 225.182)"><mask id="aW" fill="#fff"><use xlink:href="#aU"/></mask><use fill="#AE1AEB" xlink:href="#aU"/><path d="M53.76 1.76L28.206 16.503c-.592.341-1.565.341-2.16 0L.48 1.754c-.293-.17-.442-.392-.444-.616v4.23c.002.224.151.446.444.616l25.568 14.748c.594.342 1.567.342 2.159 0L53.76 5.99c.297-.17.446-.396.446-.624V1.138c0 .226-.149.452-.446.623" fill="url(#aV)" mask="url(#aW)"/></g><g transform="translate(476.864 237.15)"><mask id="aZ" fill="#fff"><use xlink:href="#aX"/></mask><use fill="#AE1AEB" xlink:href="#aX"/><path d="M53.76 1.114l-25.554 14.74c-.592.342-1.565.342-2.16 0L.48 1.106C.186.938.037.714.035.491V4.72c.002.224.151.446.444.617l25.568 14.747c.594.34 1.567.34 2.159 0L53.76 5.344c.297-.172.446-.397.446-.624V.49c0 .227-.149.452-.446.624" fill="url(#aY)" mask="url(#aZ)"/></g><path d="M505.07 202.627c-.594-.341-1.567-.343-2.16 0l-25.567 14.733c-.593.342-.593.902 0 1.245l25.568 14.748c.592.342 1.565.342 2.159 0l25.553-14.74c.595-.343.595-.903 0-1.246l-25.553-14.74z" fill="#F6F8FB"/><g transform="translate(490.174 210.554)"><mask id="bc" fill="#fff"><use xlink:href="#ba"/></mask><use fill="#AE1AEB" xlink:href="#ba"/><path d="M13.427.133L.23 7.738c-.307.176-.307.466 0 .641l13.197 7.612c.307.178.808.178 1.115 0l13.19-7.607c.306-.176.306-.466 0-.643L14.543.133A1.144 1.144 0 0 0 13.985 0c-.202 0-.404.045-.558.133" fill="url(#bb)" mask="url(#bc)"/><path d="M.23 8.402l1.458.842 11.738-6.765c.308-.176.808-.176 1.114.001l11.733 6.766 1.458-.84c.307-.177.307-.467 0-.643L14.541.154c-.307-.175-.807-.175-1.115 0L.23 7.76c-.307.177-.307.466 0 .643" fill="#DE8DFF" mask="url(#bc)"/></g><g><path d="M518.892 191.065h-1.825c-.83-.976-1.93-1.892-3.333-2.7-6.878-3.967-18.131-3.967-25.009 0-1.403.808-2.502 1.724-3.333 2.7h-1.78v3.821h.012c-.33 2.84 1.358 5.745 5.101 7.903 6.878 3.967 18.131 3.967 25.009 0 3.743-2.158 5.43-5.062 5.102-7.903h.056v-3.82z" fill="#FFC107"/><path d="M492.304 186.787c-.6.202-1.182.424-1.745.67v16.24c.563.245 1.146.468 1.745.67v-17.58zM487.072 189.482v12.184c.503.39 1.04.77 1.653 1.124.03.017.061.03.09.046v-14.518c-.029.015-.06.029-.09.046-.611.352-1.154.729-1.653 1.118M495.791 185.887a26.33 26.33 0 0 0-1.743.384v18.611a26.33 26.33 0 0 0 1.743.385v-19.38zM514.977 189.175v12.814a11.832 11.832 0 0 0 1.745-1.528v-9.765a11.933 11.933 0 0 0-1.745-1.521M518.464 197.732c.345-.936.482-1.894.372-2.846h.055v-3.82h-.427v6.666zM509.744 186.648a24.9 24.9 0 0 0-1.745-.486v18.83a24.902 24.902 0 0 0 1.745-.485v-17.86zM485.327 200.018v-8.952h-1.716v3.82h.014c-.205 1.75.364 3.523 1.702 5.132M513.232 188.103a18.94 18.94 0 0 0-1.745-.82v16.588a19.286 19.286 0 0 0 1.745-.82v-14.948zM499.28 185.457c-.584.037-1.167.091-1.745.162v19.916c.578.07 1.16.125 1.745.163v-20.241zM502.768 205.723V185.43c-.58-.028-1.162-.04-1.745-.036v20.364c.583.004 1.165-.008 1.745-.036M506.256 185.805a28.783 28.783 0 0 0-1.744-.238v20.02a28.784 28.784 0 0 0 1.744-.239v-19.543z" fill="#FFAD33"/><path d="M513.734 183.307c-6.878-3.967-18.131-3.967-25.009 0s-6.878 10.459 0 14.426c6.878 3.966 18.131 3.966 25.009 0 6.878-3.967 6.878-10.46 0-14.426" fill="#FFCD39"/><path d="M512.489 183.703c-6.193-3.572-16.326-3.572-22.517 0-6.192 3.572-6.192 9.416 0 12.987 6.19 3.572 16.324 3.572 22.517 0 6.19-3.57 6.19-9.415 0-12.987" fill="#FFAD33"/><path d="M511.107 184.457c-5.432-3.077-14.323-3.077-19.755 0-5.432 3.078-5.432 8.112 0 11.19 5.432 3.078 14.323 3.078 19.755 0 5.432-3.078 5.432-8.112 0-11.19" fill="#FFCD39"/><path d="M502.547 193.981h-4.912c-1.13 0-2.05-.535-2.05-1.192v-.609h2.917v.107h4.045c.779 0 1.41-.369 1.41-.82 0-.295-.412-.534-.918-.534h-3.62c-2.114 0-3.834-.999-3.834-2.227v-.306c0-1.387 1.942-2.514 4.328-2.514h4.911c1.13 0 2.05.534 2.05 1.19v.693h-2.916v-.188h-4.045c-.778 0-1.411.367-1.411.819v.306c0 .293.412.533.917.533h3.62c2.116 0 3.835 1 3.835 2.229 0 1.385-1.94 2.513-4.327 2.513" fill="#FF9800"/><path fill="#FF9800" d="M499.772 195.041h2.916v-9.979h-2.916z"/><path d="M259.035 244.787h8.773V57.584h-8.773zM272.683 193.794h17.332V6.591h-17.332zM342.773 230.476h14.31V43.27h-14.31zM363.475 247.222h8.774V60.017h-8.774z"/><path d="M330.54 199.805h-24.923l.055 12.114c0 1.837 1.207 3.672 3.62 5.064 4.828 2.785 12.75 2.785 17.607 0 2.427-1.392 3.641-3.227 3.641-5.064h.047l-.047-12.114z" fill="#EDF0F8"/></g><g transform="translate(290.51 .443)"><mask id="bf" fill="#fff"><use xlink:href="#bd"/></mask><path d="M29.644.157l-7.8 15.56C6.767 45.81-.767 79.185.465 112.815c.05 1.34.106 2.7.172 4.077.997 20.818 4.208 41.474 9.237 61.7l7.576 30.474h25.612l7.577-30.473c5.028-20.227 8.239-40.883 9.235-61.7.068-1.379.123-2.738.174-4.078 1.23-33.63-6.304-67.006-21.383-97.098L30.867.157h-1.223z" fill="url(#be)" mask="url(#bf)"/></g><path fill="#107EFF" d="M294.518 136.735l-25.734 22.224-12.54 78.875 49.971-41.398-9.951-57.957z"/><g transform="translate(255.902 137.414)"><mask id="bi" fill="#fff"><use xlink:href="#bg"/></mask><path fill="url(#bh)" mask="url(#bi)" d="M14.626 23.288L.341 100.42l51.717-39.656L40.363 1.064z"/></g><path fill="#107EFF" d="M346.454 136.735l25.735 22.224 12.54 78.875-49.972-41.398 9.952-57.957z"/><g transform="translate(331.774 137.414)"><mask id="bk" fill="#fff"><use xlink:href="#bj"/></mask><path fill="url(#bh)" mask="url(#bk)" d="M1.24 60.765l51.715 39.656-14.284-77.133L12.936 1.064z"/></g><g transform="translate(301.159 .443)"><mask id="bm" fill="#fff"><use xlink:href="#bl"/></mask><path d="M18.995.157l-7.8 15.56a205.304 205.304 0 0 0-9.93 23.302c11.482 3.312 25.172 3.304 36.673-.026a205.582 205.582 0 0 0-9.922-23.276L20.218.157h-1.223z" fill="url(#bh)" mask="url(#bm)"/></g><g><path d="M292.826 126.872c-.394-.226-.749-.468-1.114-.706.11 1.415.241 2.827.37 4.24 8.024 4.341 18.3 6.54 28.616 6.54 10.347 0 20.679-2.21 28.752-6.578.13-1.413.26-2.827.37-4.243-.385.252-.764.506-1.18.746-15.43 8.85-40.469 8.854-55.814.001M336.585 87.374c-1.118 7.803-8.14 13.363-15.82 13.363s-14.702-5.56-15.82-13.363c-1.3-9.087 5.689-17.628 15.82-17.628 10.132 0 17.122 8.541 15.82 17.628" fill="#273143"/><path d="M333.949 87.018c-.93 6.503-6.783 11.138-13.183 11.138-6.402 0-12.253-4.635-13.186-11.138-1.084-7.573 4.741-14.691 13.186-14.691 8.441 0 14.268 7.118 13.183 14.691" fill="#C9D7ED"/><path d="M320.829 72.33l-13.366 13.353c.018.443.054.888.117 1.335.401 2.798 1.718 5.247 3.592 7.133l18.54-18.523c-2.294-2.016-5.354-3.282-8.883-3.298M332.883 79.867a12.813 12.813 0 0 0-1.685-2.692l-18.39 18.372c.868.63 1.812 1.155 2.81 1.568l17.265-17.248z" fill="#E9F1FD"/><path d="M335.915 200.075c-.826 1.062-1.995 2.05-3.494 2.91-6.904 3.961-18.115 3.964-24.986 0a14.496 14.496 0 0 1-1.31-.858l.61 2.457c3.654 2.056 8.41 3.09 13.18 3.09 4.837 0 9.682-1.06 13.376-3.179a16.272 16.272 0 0 0 1.834-1.238l.79-3.182z" fill="#273143"/></g><g transform="translate(245.253 58.955)"><mask id="bo" fill="#fff"><use xlink:href="#bn"/></mask><path d="M100.567 1.894c10.381 1.615 19.907 4.252 27.705 7.685 13.853 6.093 21.483 14.189 21.483 22.794 0 8.607-7.63 16.7-21.483 22.794-29.065 12.788-76.229 12.79-105.132.003C9.366 49.074 1.78 40.98 1.78 32.373c0-8.607 7.586-16.702 21.36-22.794C30.723 6.222 39.978 3.622 50.07 2l.562-1.476C39.998 2.165 30.23 4.872 22.253 8.4 7.908 14.748.005 23.261.005 32.373c0 9.113 7.903 17.625 22.248 23.973 14.697 6.502 34.031 9.752 53.39 9.752 19.357 0 38.738-3.25 53.513-9.751 14.427-6.347 22.372-14.86 22.372-23.974 0-9.113-7.945-17.627-22.372-23.974-8.123-3.573-18.065-6.3-28.883-7.935l.294 1.43z" mask="url(#bo)"/></g><g transform="translate(242.59 90.87)"><mask id="bq" fill="#fff"><use xlink:href="#bp"/></mask><path d="M.317 4.697c0 2.158 1.75 3.91 3.913 3.91a3.911 3.911 0 0 0 0-7.82 3.91 3.91 0 0 0-3.913 3.91" mask="url(#bq)"/></g><g transform="translate(271.875 113.477)"><mask id="bs" fill="#fff"><use xlink:href="#br"/></mask><path d="M.527 4.053a2.942 2.942 0 0 0 2.943 2.94 2.94 2.94 0 1 0 0-5.88 2.943 2.943 0 0 0-2.943 2.94" mask="url(#bs)"/></g><g transform="translate(335.767 121.456)"><mask id="bu" fill="#fff"><use xlink:href="#bt"/></mask><path d="M1.022 1.953a1.907 1.907 0 0 0 3.814 0 1.906 1.906 0 0 0-3.814 0" mask="url(#bu)"/></g><g transform="translate(258.564 39.007)"><mask id="bw" fill="#fff"><use xlink:href="#bv"/></mask><path d="M82.326 1.293c8.41 1.307 16.127 3.445 22.446 6.224 11.222 4.938 17.404 11.498 17.404 18.469 0 6.973-6.182 13.532-17.404 18.468-23.549 10.361-61.76 10.361-85.177.002C8.435 39.518 2.29 32.959 2.29 25.986c0-6.972 6.146-13.53 17.306-18.469C25.738 4.8 33.236 2.693 41.415 1.38L41.87.184c-8.615 1.328-16.531 3.522-22.992 6.38C7.254 11.705.853 18.604.853 25.986c0 7.383 6.401 14.28 18.025 19.422 11.906 5.269 27.57 7.902 43.254 7.902 15.683 0 31.384-2.635 43.356-7.9 11.688-5.143 18.124-12.04 18.124-19.424 0-7.383-6.436-14.281-18.124-19.422-6.582-2.896-14.637-5.107-23.4-6.431l.238 1.16z" mask="url(#bw)"/></g><g transform="translate(278.53 81.562)"><mask id="by" fill="#fff"><use xlink:href="#bx"/></mask><path d="M1.149 4.278a3.17 3.17 0 0 0 3.17 3.169 3.17 3.17 0 0 0 3.174-3.169A3.171 3.171 0 0 0 4.319 1.11a3.17 3.17 0 0 0-3.17 3.168" mask="url(#by)"/></g><g transform="translate(337.098 86.88)"><mask id="bA" fill="#fff"><use xlink:href="#bz"/></mask><path d="M1.12 3.59a2.381 2.381 0 0 0 2.385 2.382 2.382 2.382 0 1 0 0-4.762A2.382 2.382 0 0 0 1.12 3.59" mask="url(#bA)"/></g><g transform="translate(373.038 74.912)"><mask id="bC" fill="#fff"><use xlink:href="#bB"/></mask><path d="M.329 2.085a1.545 1.545 0 1 0 3.09 0 1.546 1.546 0 0 0-3.09 0" mask="url(#bC)"/></g><g><path d="M381.11 164.335a.749.749 0 1 1-1.499 0 .749.749 0 0 1 1.498 0M275.345 238.583a.749.749 0 1 1-1.498 0 .749.749 0 0 1 1.498 0M361.808 136.735a.749.749 0 1 1-1.498 0 .749.749 0 0 1 1.498 0M377.944 119.21a.749.749 0 1 1-1.498 0 .749.749 0 0 1 1.498 0M353.34 228.74a.75.75 0 1 1-1.499-.002.75.75 0 0 1 1.5.003M361.058 98.156a.749.749 0 1 1-1.497 0 .749.749 0 0 1 1.497 0M289.789 154.979a.749.749 0 1 1-1.498 0 .749.749 0 0 1 1.498 0M271.277 209.509a.749.749 0 1 1-1.498 0 .749.749 0 0 1 1.498 0M358.1 212.913a.749.749 0 1 1-1.498 0 .749.749 0 0 1 1.498 0M256.1 153.481a.749.749 0 1 1-1.497 0 .749.749 0 0 1 1.497 0M282.85 126.125a.749.749 0 1 1-1.497 0 .749.749 0 0 1 1.497 0M358.555 190.098a.401.401 0 1 1-.803-.002.401.401 0 0 1 .803.002M339.498 225.751a.4.4 0 0 1-.402.4.4.4 0 1 1 0-.802c.222 0 .402.18.402.402M297.29 196.46a.402.402 0 0 1-.805 0 .401.401 0 0 1 .804 0M344.949 169.431a.4.4 0 0 1-.402.4.4.4 0 1 1 0-.801c.222 0 .402.18.402.401M278.787 177.71a.4.4 0 0 1-.4.4.4.4 0 1 1 0-.8.4.4 0 0 1 .4.4M358.153 108.47a.4.4 0 0 1-.402.4.4.4 0 1 1 0-.801c.222 0 .402.18.402.401M359.961 170.233a.401.401 0 1 1-.803 0 .401.401 0 0 1 .803 0M268.05 193.173a.4.4 0 0 1-.4.4.4.4 0 1 1 0-.802c.22 0 .4.18.4.402M282.502 98.904a.4.4 0 0 1-.4.4.4.4 0 1 1 0-.801c.22 0 .4.18.4.401M261.932 123.81a.4.4 0 0 1-.402.4.4.4 0 1 1 0-.8.4.4 0 0 1 .402.4M363.96 124.211a.401.401 0 1 1-.803.001.401.401 0 0 1 .803 0M270.18 142.16a.401.401 0 1 1-.803 0 .401.401 0 0 1 .803 0M292.516 225.35a.402.402 0 0 1-.804 0 .401.401 0 1 1 .804 0M381.51 188.156a.401.401 0 1 1-.803 0 .401.401 0 0 1 .803 0M304.79 222.213a.401.401 0 1 1-.803 0 .401.401 0 0 1 .802 0" fill="#AE1AEB"/><path d="M485.156 242.087c0-2.71-1.923-3.82-4.272-2.464l-93.806 54.106c-2.35 1.356-4.273 4.682-4.273 7.392v74.48c0 2.71 1.923 3.82 4.273 2.463l93.806-54.106c2.35-1.355 4.272-4.682 4.272-7.392v-74.48z" fill="#45546E"/><path d="M479.203 254.514c0-2.314-1.64-3.26-3.646-2.104l-79.666 46.324c-2.006 1.157-3.646 3.998-3.646 6.312v59.626c0 2.314 1.64 3.26 3.646 2.104l79.666-46.324c2.006-1.157 3.646-3.996 3.646-6.31v-59.628z" fill="#FFF"/></g><g transform="translate(382.356 238.48)"><mask id="bF" fill="#fff"><use xlink:href="#bD"/></mask><use fill="#657794" xlink:href="#bD"/><path d="M98.53 1.142L4.722 55.25C2.372 56.605.45 59.93.45 62.642v74.48c0 2.417 1.53 3.554 3.526 2.813a4.895 4.895 0 0 1-.073-.842v-74.48c0-2.71 1.922-6.036 4.273-7.391l93.806-54.108c.253-.146.503-.259.744-.35-.245-1.402-1.12-2.199-2.304-2.199-.571 0-1.214.186-1.893.577" fill="url(#bE)" mask="url(#bF)"/></g><g><path fill="#E4E9F4" d="M395.897 305.84l38.088-21.97v28.368l-38.088 21.97z"/><path fill="#F6F8FB" d="M395.897 339.956l80.893-46.775v4.167l-80.893 46.774zM395.897 348.277l80.893-46.775v4.166l-80.893 46.775zM395.897 356.597l46.363-26.84v4.167l-46.363 26.84zM437.183 287.927l39.608-22.929v13.507l-39.608 22.928z"/><path d="M387.74 269.663l-14.45-8.432a.5.5 0 1 0-.504.863l14.45 8.43a3.041 3.041 0 0 1 1.525 2.654 3.043 3.043 0 0 1-1.52 2.654l-35.128 20.575a15.39 15.39 0 0 0-7.586 13.23h.998c0-5.068 2.719-9.806 7.093-12.37l35.127-20.576a4.032 4.032 0 0 0 2.014-3.515 4.034 4.034 0 0 0-2.02-3.513" fill="#C9D7ED"/><path d="M384.481 337.856l-10.197 5.834a7.246 7.246 0 0 0-3.649 6.287v38.133a9.342 9.342 0 0 1-4.677 8.092l-10.564 6.093c-4.607 2.657-10.368-.665-10.368-5.98v-93.328a14.838 14.838 0 0 1 7.34-12.8l35.127-20.574c2.358-1.382 2.355-4.79-.005-6.168l-14.452-8.432" stroke="#48486A" stroke-width=".998" stroke-linecap="round"/><path d="M197.456 100.187c.073 0 .148-.003.222-.01l10.848-1.02a13.751 13.751 0 0 0 10.611-6.807l4.349-7.539a2.337 2.337 0 0 0-4.05-2.331l-4.35 7.54a9.068 9.068 0 0 1-6.997 4.489l-10.848 1.02a2.336 2.336 0 0 0-2.109 2.542 2.337 2.337 0 0 0 2.324 2.116" fill="#F2B1B5"/><path d="M216.784 94.58a2.919 2.919 0 0 0 2.526-1.449l4.675-8.016a2.916 2.916 0 0 0-1.054-3.99 2.922 2.922 0 0 0-3.994 1.052l-4.674 8.016a2.917 2.917 0 0 0 2.52 4.387" fill="#EBEDF7"/><path d="M227.988 149.431l3.337 5.67c.28.598.218 1.299-.16 1.839l-3.34 4.768-1.977 1.68c-.914 1.307-2.513 1.368-4.102 1.23l-2.076-.129a1.104 1.104 0 0 1-.934-.634l-.761-1.63c-.113-.365.55.518.8.163l3.984-3.81.087-2.656-1.124-3.41 6.266-3.08z" fill="#48486A"/><path d="M228.983 150.09l1.748 3.74a1.843 1.843 0 0 1-.16 1.837l-3.662 5.23-1.171 1.204c-.914 1.306-2.996 1.384-4.586 1.246l-2.01-.176a1.309 1.309 0 0 1-.962-2.054l2.377-1.516 1.607-2.296-.58-3.395.3-.046 7.1-3.774z" fill="#F9F7F9"/><path d="M227.298 149.337c1.871.177 2.517 1.587 1.435 3.133-1.082 1.546-3.481 2.68-5.329 2.52-1.846-.161-2.493-1.572-1.433-3.135 1.057-1.562 3.455-2.697 5.327-2.518" fill="#48486A"/><path d="M226.49 150.506c1.094.104 1.47.928.839 1.831-.634.905-2.034 1.568-3.115 1.474-1.08-.093-1.458-.92-.839-1.833.62-.913 2.02-1.576 3.115-1.472" fill="#FFF"/><path d="M234.494 159.319l.622 6.55c0 .657-.35 1.266-.922 1.595l-7 4.039a4.468 4.468 0 0 1-4.467 0l-1.827-.994a1.108 1.108 0 0 1-.577-.97v-1.8c.053-.377.28.704.656.487l4.905-2.83 1.203-2.368.425-3.564 6.982-.145z" fill="#48486A"/><path d="M235.117 160.336v4.128c0 .66-.352 1.269-.923 1.597l-7.001 4.039a4.472 4.472 0 0 1-4.466 0l-1.749-1.01a1.31 1.31 0 0 1 0-2.268l4.905-2.829.912-3.323.291.086 8.03-.42z" fill="#F9F7F9"/><path d="M233.91 158.942c1.62.952 1.607 2.502-.029 3.446-1.634.943-4.287.958-5.893.031-1.606-.927-1.594-2.477.027-3.447 1.621-.97 4.273-.983 5.894-.03" fill="#48486A"/><path d="M232.682 159.66c.947.555.94 1.462-.016 2.014-.956.552-2.507.56-3.447.019-.938-.541-.931-1.45.016-2.015.948-.566 2.499-.574 3.447-.018" fill="#FFF"/><path d="M230.964 161.559a2.217 2.217 0 0 1-2.218-2.216v-4.646a2.217 2.217 0 0 1 4.435 0v4.646a2.217 2.217 0 0 1-2.217 2.216M224.822 153.32a2.22 2.22 0 0 1-1.956-1.169l-2.198-4.094a2.216 2.216 0 0 1 3.908-2.095l2.198 4.096a2.214 2.214 0 0 1-1.952 3.262" fill="#EF9EA3"/><path d="M218.585 100.76v13.433l12.13 6.996c2.266 1.309 5.108-.293 5.16-2.91l.15-7.54-17.44-9.98z" fill="#48486A"/><path d="M230.964 158.71a3.545 3.545 0 0 1-3.548-3.543l-3.048-44.552c0-1.958 4.636-2.732 6.596-2.732a3.545 3.545 0 0 1 3.547 3.544v43.74a3.545 3.545 0 0 1-3.547 3.544" fill="#48486A"/><path d="M223.413 152.022a3.547 3.547 0 0 1-3.052-1.732l-8.705-14.627a6.603 6.603 0 0 1-.57-5.528l7.21-20.967a3.549 3.549 0 0 1 4.508-2.2c1.854.636 4.974 4.087 4.338 5.937l-8.546 17.586a3.738 3.738 0 0 0 .236 3.358l7.628 12.818a3.541 3.541 0 0 1-1.236 4.857 3.536 3.536 0 0 1-1.81.498" fill="#48486A"/></g><g transform="translate(213.306 61.614)"><mask id="bH" fill="#fff"><use xlink:href="#bG"/></mask><path d="M.865 3.903c.015 1.234 1.098 2.573 1.498 3.72.556 1.597.786 3.297 1.163 4.94.132.576.298 1.177.715 1.594.2.2.448.349.643.553.249.264.395.608.535.943.38.909.761 1.815 1.145 2.724.481 1.151 1.014 2.365 2.036 3.084 1.022.72 2.693.67 3.296-.425.182-.33.248-.712.3-1.085a20.505 20.505 0 0 0-.464-7.916c-.545-2.117-.726-4.757-1.68-6.705-.306-.625-.69-1.208-1.074-1.787C8.341 2.58 7.69 1.603 6.798.87A3.16 3.16 0 0 0 4.763.15C2.815.15.839 1.78.865 3.903" mask="url(#bH)"/></g><g><path d="M224.791 79.134l7.334 4.073c1.723.955 2.189 2.863 2.79 4.737 2.448 7.628 1.628 26.423 1.628 26.423-4.507 2.709-16.535.688-19.357-3.745 0 0 2.35-9.896.303-16.012a4.479 4.479 0 0 1-.964-4.09l.96-3.657-.003-3.431c-.001-3.75 4.03-6.12 7.31-4.298" fill="#FFF"/><path d="M234.916 87.944c-.602-1.875-1.068-3.782-2.79-4.738l-7.334-4.072a4.856 4.856 0 0 0-2.756-.603 4.9 4.9 0 0 1 1.933.603l7.336 4.072c1.72.956 2.188 2.863 2.788 4.738 2.448 7.628 1.628 27.59 1.628 27.59-.967.583-2.281.863-3.776.904 1.833.05 3.457-.218 4.598-.904 0 0 .82-19.962-1.627-27.59" fill="#D6DCEF"/><path d="M228.093 76.99h-4.663c-5.14 0-6.968-4.163-6.968-9.297a3.646 3.646 0 0 1 3.647-3.644h7.984v12.94z" fill="#F2B1B5"/><path d="M225.724 83.047a2.367 2.367 0 0 1-2.368-2.366v-6.357h4.736v6.357a2.367 2.367 0 0 1-2.368 2.366" fill="#F2B1B5"/><path d="M231.157 115.23c1.699.125 3.259 1.17 4.48.728l.972-13.046c0-.054-.002-.107-.004-.16l-6.1-17.929c-.406-1.194-1.541-1.412-2.731-.94-1.116.443-.993 1.346-.607 2.48l3.945 14.009c.67 1.973.937 4.06.783 6.14l-.738 8.718z" fill="#99A7D8"/><path d="M234.079 120.297a2.218 2.218 0 0 1-2.214-2.379l.852-11.407a15.499 15.499 0 0 0-.782-6.139l-4.767-14.008c-.386-1.136.12-2.441 1.235-2.884a2.22 2.22 0 0 1 2.925 1.344l5.272 15.495c.555 1.632.775 3.357.646 5.075l-.957 12.852a2.218 2.218 0 0 1-2.21 2.051" fill="#F2B1B5"/><path d="M231.327 84.824a2.21 2.21 0 0 0-2.51-1.454c.758.144 1.422.67 1.689 1.454l5.34 15.696c.51 1.498.712 3.085.594 4.663l-.975 13.063a2.213 2.213 0 0 1-1.771 2.007c.073.012.143.033.218.038a2.216 2.216 0 0 0 2.376-2.045l.982-13.177a11.199 11.199 0 0 0-.565-4.44l-5.378-15.805z" fill="#EF9EA3"/><path d="M232.744 98.53a2.66 2.66 0 0 1-2.519-1.804l-3.516-10.334a2.659 2.659 0 0 1 1.662-3.373 2.662 2.662 0 0 1 3.376 1.661l3.517 10.334a2.659 2.659 0 0 1-2.52 3.515" fill="#FFF"/></g><g transform="translate(215.969 58.955)"><mask id="bJ" fill="#fff"><use xlink:href="#bI"/></mask><use fill="#12213A" xlink:href="#bI"/><path d="M1.314 2.366c-.113.271-.105.573-.084.864.108 1.503.564 3.043 1.612 4.127.692.714 1.662 1.148 2.305 1.908.758.896.529 2.206 1.192 3.198.821 1.226 1.698 2.424 2.863 3.358 2.498 2.003 2.138 3.463 2.142 6.585.005 2.773.186 5.936 2.345 7.681.262.212.551.398.77.654.321.377.465.866.689 1.308.637 1.262 1.995 2.13 3.411 2.176.649.022 1.334-.135 1.804-.58.4-.381.6-.924.755-1.454 1.03-3.498.65-7.387-1.033-10.62-.41-.786-.89-1.532-1.297-2.32a34.936 34.936 0 0 1-1.474-3.295c-.666-1.726-1.212-3.573-1.325-5.054-.22-2.869 1.045-5.725-1.379-8.023-1.744-1.654-4.391-1.8-6.795-1.803-.676-.002-1.782-.13-2.9-.13-1.546 0-3.114.246-3.601 1.42" mask="url(#bJ)"/></g><g><path d="M217.282 61.32c.554-1.332 2.497-1.469 4.222-1.407-1.353.06-2.623.373-3.054 1.408-.112.27-.104.573-.083.863.11 1.504.563 3.044 1.612 4.126.69.716 1.663 1.15 2.304 1.909.759.896.53 2.207 1.193 3.198.821 1.227 1.7 2.425 2.863 3.359 2.497 2.001 2.138 3.463 2.143 6.584.004 2.772.185 5.937 2.343 7.68.263.214.55.4.77.656.323.375.466.866.69 1.306.56 1.112 1.677 1.915 2.902 2.125a3.33 3.33 0 0 1-.66.054c-1.414-.047-2.773-.914-3.41-2.179-.223-.44-.368-.93-.69-1.306-.22-.256-.507-.442-.77-.655-2.159-1.744-2.34-4.909-2.344-7.681-.005-3.121.356-4.583-2.143-6.584-1.163-.934-2.042-2.132-2.863-3.36-.663-.99-.434-2.301-1.193-3.197-.641-.758-1.612-1.193-2.304-1.909-1.049-1.082-1.503-2.622-1.61-4.126-.023-.29-.03-.593.082-.863" fill="#FFCD39"/><path d="M236.976 119a2.495 2.495 0 0 1-2.495 2.494 2.495 2.495 0 0 1-2.498-2.494 2.495 2.495 0 0 1 2.498-2.493 2.495 2.495 0 0 1 2.495 2.493" fill="#F2B1B5"/><path d="M233.038 118.396l-.688 1.08a.571.571 0 0 1-.965-.613l.688-1.08a.572.572 0 0 1 .965.613M193.282 97.382l5.078-.677a.575.575 0 0 0 .495-.646l-.024-.175a.575.575 0 0 0-.646-.495l-5.08.677a.574.574 0 0 0-.493.646l.024.176a.575.575 0 0 0 .646.494" fill="#F2B1B5"/><path d="M196.654 95.03l4.734 1.957a.575.575 0 0 0 .752-.312l.068-.163a.575.575 0 0 0-.313-.751l-4.734-1.957a.573.573 0 0 0-.751.312l-.068.164a.574.574 0 0 0 .312.75" fill="#F2B1B5"/><path d="M448.908 415.036l1.425-.41a7.903 7.903 0 0 1 6.782 1.167l1.486-1.1 1.515 3.488 7.31-.62-1.592 6.486c-.101.418-.42.747-.83.868l-3.003.88a7.313 7.313 0 0 1-7.095-1.719l-6.661-6.339c-.899-.852-.53-2.358.663-2.7" fill="#363650"/><path d="M448.908 415.036l1.425-.41a7.903 7.903 0 0 1 6.782 1.167l1.486-1.1 1.515 3.488 7.31-.62-.827 3.366a4.312 4.312 0 0 1-2.976 3.112l-1.283.375a7.315 7.315 0 0 1-7.096-1.718l-6.66-6.34a1.58 1.58 0 0 1-.454-.81c.195-.23.452-.417.778-.51" fill="#48486A"/><path d="M459.186 417.483c-1.532-1.46-1.122-3.132.912-3.718 2.034-.586 4.941.126 6.464 1.583 1.523 1.455 1.111 3.13-.913 3.717-2.022.59-4.932-.123-6.463-1.582" fill="#F9F7F9"/><path d="M463.196 417.706a2.411 2.411 0 0 0 2.412-2.41v-9.29a2.41 2.41 0 0 0-2.412-2.41 2.41 2.41 0 0 0-2.412 2.41v9.29c0 1.33 1.08 2.41 2.412 2.41" fill="#EF9EA3"/></g><g transform="translate(456.897 348.854)"><mask id="bL" fill="#fff"><use xlink:href="#bK"/></mask><use fill="#9ECBFF" xlink:href="#bK"/><path d="M.144 4.048L1.47 40.706l.008.14 1.033 22.875a3.79 3.79 0 0 0 3.957 3.612 3.789 3.789 0 0 0 3.617-3.954L9.059 40.644l1.03-36.382A3.787 3.787 0 0 0 6.404.37C6.36.367 6.313.367 6.267.367 4.145.367.2 2.001.144 4.048" mask="url(#bL)"/></g><g><path d="M438.784 424.303l1.288-.738a7.904 7.904 0 0 1 6.865-.477l1.182-1.422 2.3 3.027 6.953-2.342v6.68c0 .43-.23.826-.6 1.04l-2.708 1.569a7.31 7.31 0 0 1-7.3.017l-7.98-4.572a1.603 1.603 0 0 1 0-2.782" fill="#363650"/><path d="M438.784 424.303l1.288-.738a7.904 7.904 0 0 1 6.865-.477l1.182-1.422 2.3 3.027 6.953-2.342v3.467a4.309 4.309 0 0 1-2.15 3.729l-1.158.67a7.307 7.307 0 0 1-7.3.019l-7.98-4.574a1.565 1.565 0 0 1-.633-.678c.133-.27.34-.512.633-.68" fill="#48486A"/><path d="M449.35 424.236c-1.836-1.054-1.836-2.776 0-3.828 1.835-1.053 4.83-1.053 6.655 0 1.825 1.052 1.825 2.774 0 3.828-1.825 1.053-4.82 1.053-6.655 0" fill="#F9F7F9"/><path d="M452.684 423.848a2.411 2.411 0 0 0 2.412-2.41v-9.293a2.41 2.41 0 0 0-2.412-2.41 2.41 2.41 0 0 0-2.412 2.41v9.293c0 1.33 1.08 2.41 2.412 2.41" fill="#EF9EA3"/><path d="M463.194 359.345c.953 0 1.88-.493 2.39-1.378l4.987-8.625c5.186-8.972 2.876-20.47-5.374-26.746l-1.366-1.038a2.757 2.757 0 0 0-3.862.524 2.753 2.753 0 0 0 .523 3.86l1.364 1.037c6.049 4.6 7.743 13.03 3.94 19.606l-4.987 8.628a2.754 2.754 0 0 0 2.385 4.132" fill="#5C629E"/></g><g transform="translate(446.248 346.195)"><mask id="bN" fill="#fff"><use xlink:href="#bM"/></mask><use fill="#ACD2FF" xlink:href="#bM"/><path d="M5.702 9.447c-1.646.326-2.94 1.711-3.05 3.464l-2.085 33.1 2.09 25.465a3.791 3.791 0 0 0 4.983 3.28c1.679-.562 2.708-2.262 2.564-4.024L8.17 45.938l3.494-22.387 6.822-3.878a3.932 3.932 0 0 0 1.985-3.303l.267-9.448-15.16-5.816.125 8.341z" mask="url(#bN)"/></g><g><path d="M448.9 359.106a3.792 3.792 0 0 1 4.021-3.541c.086.005.172.018.259.028a3.79 3.79 0 0 0-3.27 3.513l-2.087 33.1 2.091 25.465c.148 1.806 1.546 3.197 3.27 3.431-.064.01-.124.03-.19.035a3.79 3.79 0 0 1-4.09-3.465l-2.088-25.466 2.084-33.1z" fill="#FEC55E"/><path d="M465.583 357.967a2.752 2.752 0 0 1-3.766 1.008 2.753 2.753 0 0 1-1.009-3.762l4.988-8.628a15.05 15.05 0 0 0 1.696-4.485c-.028 2.509.117 5.016.456 7.502l.38 3.62-2.745 4.745z" fill="#231F20"/><path d="M467.716 308.154l-11.901 6.865a17.041 17.041 0 0 0-8.531 14.76v33.857c4.832 3.378 17.835-1.33 20.432-6.621l-.776-7.412a51.51 51.51 0 0 1-.437-8.874l1.213-32.575z" fill="#5C629E"/><path d="M458.067 315.617h5.026V299.44h-14.02v7.19c0 4.963 4.026 8.986 8.994 8.986" fill="#F2B1B5"/><path d="M457.359 318.306h2.101a1.88 1.88 0 0 0 1.88-1.877v-9.838h-5.862v9.838a1.88 1.88 0 0 0 1.88 1.877" fill="#F2B1B5"/><path d="M447.284 337.19c.484-.194 1.39-.725 1.555-2.004l1.11-8.599a2.759 2.759 0 0 1 3.087-2.379c1.512.194 1.585 1.778 1.391 3.288l-.12 8.395c-.407 3.163-2.558 5.707-5.612 6.64-.468.143-.94.228-1.41.287v-5.628z" fill="#231F20"/><path d="M440.326 338.647l-7.979-9.067a2.753 2.753 0 0 1 .25-3.887 2.76 2.76 0 0 1 3.891.249l7.979 9.068c.992 1.125 2.255.852 2.617.74.363-.11 1.563-.587 1.756-2.075l1.109-8.599a2.76 2.76 0 0 1 5.47.705l-1.111 8.599c-.409 3.163-2.56 5.707-5.613 6.64a8.159 8.159 0 0 1-2.387.36c-2.256 0-4.42-.96-5.982-2.733" fill="#5C629E"/><path d="M437.803 327.437l-1.314-1.495a2.762 2.762 0 0 0-3.892-.25 2.753 2.753 0 0 0-.25 3.887l1.598 1.816 3.858-3.958z" fill="#F2B1B5"/><path d="M429.76 326.93a3.335 3.335 0 0 0 3.337 3.333 3.334 3.334 0 1 0 0-6.667 3.336 3.336 0 0 0-3.337 3.333" fill="#F2B1B5"/><path d="M430.054 320.98l4.56 4.785c.179.189.477.195.667.016l.382-.363a.475.475 0 0 0 .018-.668l-4.56-4.784a.473.473 0 0 0-.667-.016l-.382.363a.471.471 0 0 0-.018.667" fill="#F2B1B5"/><path d="M448.068 296.607c2.423-2.866 8.088-2.014 11.23-1.01 3.865 1.239 8.71 2.684 9.406 7.353.177 1.183.05 2.385.044 3.582a17.78 17.78 0 0 0 1.858 7.981c1.757 3.527 2.601 5.776.74 9.438-1.103 2.165-1.807 5.54-4.06 6.871-2.316 1.371-7.22 2.223-9.438.545-3.091-2.34-4.648-8.008-4.366-11.646.307-3.93 2.27-7.895 1.08-11.65-.749-2.353-3.914-4.993-5.703-6.645-1.59-1.466-2.396-2.917-.79-4.819" fill="#363650"/><path d="M448.068 296.607c1.42-1.68 3.958-2.066 6.447-1.91-1.865.115-3.602.63-4.684 1.91-1.606 1.902-.8 3.353.79 4.82 1.79 1.651 4.956 4.29 5.701 6.643 1.194 3.756-.772 7.721-1.077 11.65-.283 3.64 1.274 9.307 4.365 11.647.707.535 1.699.79 2.782.877-1.746.15-3.465-.06-4.544-.877-3.091-2.34-4.648-8.008-4.365-11.646.306-3.93 2.27-7.895 1.078-11.65-.748-2.353-3.913-4.993-5.702-6.645-1.59-1.466-2.396-2.917-.79-4.819" fill="#48486A"/><path d="M149.916 338.102a.506.506 0 0 0 .246-.065l82.196-46.641a.499.499 0 1 0-.494-.867l-82.195 46.64a.498.498 0 0 0 .247.933" fill="#C9D7ED"/><path d="M153.91 326.133a.506.506 0 0 0 .246-.065l72.462-41.155a.5.5 0 0 0-.495-.867l-72.461 41.155a.498.498 0 0 0 .248.932" fill="#48486A"/><path d="M108.85 347.296c5.18-2.987 13.654-2.987 18.834 0l61.742 35.612c5.18 2.989 5.228 7.96.108 11.046l-28.66 17.276c-5.119 3.086-13.549 3.174-18.73.191l-62.902-36.19c-5.183-2.982-5.186-7.867-.006-10.853l29.614-17.082z" stroke="#C9D7ED" stroke-width="1.33"/></g><g transform="translate(74.872 308.96)"><mask id="bQ" fill="#fff"><use xlink:href="#bO"/></mask><use fill="#C9D7ED" xlink:href="#bO"/><path d="M33.978 2.487L.5 21.41v3.958a4.9 4.9 0 0 0 2.459 4.247l64.312 36.998c5.182 2.982 13.61 2.895 18.731-.191l31.076-18.795a2.816 2.816 0 0 0 1.362-2.41v-5.348L52.81 2.487C50.221.993 46.808.246 43.395.246c-3.414 0-6.827.747-9.417 2.24" fill="url(#bP)" mask="url(#bQ)"/></g><g><path d="M108.85 308.189c5.18-2.987 13.654-2.987 18.834 0l61.742 35.612c5.18 2.988 5.228 7.959.108 11.045l-28.66 17.276c-5.119 3.087-13.549 3.173-18.73.192l-62.902-36.191c-5.183-2.982-5.186-7.866-.006-10.853l29.614-17.081z" fill="#F9F7F9"/><path d="M110.51 321.062c2.28-1.315 6.014-1.315 8.295 0l45.097 25.787c2.282 1.315 2.303 3.504.048 4.864l-12.623 7.61c-2.256 1.36-5.97 1.397-8.252.083l-45.606-26.04c-2.283-1.312-2.285-3.465-.003-4.78l13.043-7.524z" fill="#EBE9EC"/><path d="M141.097 343.773a.98.98 0 0 0 1.386.028l1.96-1.88a.98.98 0 1 0-1.358-1.413l-1.96 1.88a.978.978 0 0 0-.028 1.385" fill="#F2B1B5"/><path d="M113.769 437.264l3.363-1.967v-1.512l3.493-.504 7.896-4.572c1.972-1.14 1.715-4.061-.427-4.84a5.942 5.942 0 0 0-4.626.239l-6.076 2.952-8.414 3.09.174 3.068a4.291 4.291 0 0 0 4.285 4.046h.332z" fill="#363650"/><path d="M112.455 436.282h.332l3.362-1.967v-1.512l3.494-.504 7.896-4.57c1.371-.794 1.641-2.44.972-3.636 1.728.992 1.838 3.56.01 4.617l-7.896 4.57-3.492.505v1.512l-3.364 1.966h-.331a4.288 4.288 0 0 1-3.504-1.818c.712.52 1.577.837 2.521.837" fill="#48486A"/><path d="M100.883 428.462l3.364-1.969v-1.512l3.493-.504 7.896-4.57c1.971-1.141 1.714-4.061-.427-4.84a5.942 5.942 0 0 0-4.626.239l-6.076 2.952-8.414 3.09.174 3.067a4.291 4.291 0 0 0 4.285 4.047h.331z" fill="#363650"/><path d="M99.57 427.48h.331l3.363-1.968V424l3.494-.504 7.896-4.57c1.37-.794 1.641-2.44.972-3.635 1.727.992 1.838 3.558.01 4.617l-7.896 4.569-3.493.504v1.512l-3.363 1.968h-.332a4.288 4.288 0 0 1-3.503-1.818 4.266 4.266 0 0 0 2.52.837" fill="#48486A"/><path d="M100.515 424.447c2.443 0 4.422-.996 4.422-3.435l2.457-65.45c0-2.44-4.436-4.418-6.879-4.418a4.42 4.42 0 0 0-4.422 4.418v65.45c0 2.44 1.98 3.435 4.422 3.435" fill="#D3DAED"/><path d="M113.098 431.976c2.283 0 4.218-.28 4.403-2.593l2.484-38.288-.023-.329-2.457-35.869a4.407 4.407 0 0 0-4.713-4.106c-2.437.166-10.415 2.336-10.248 4.77l7.422 35.535-1.28 37.582c-.196 2.43 1.62 3.089 4.054 3.283.12.01.24.015.358.015" fill="#D3DAED"/><path d="M122.949 330.919a.978.978 0 0 0 .891 1.058l4.08.35a.98.98 0 1 0 .168-1.95l-4.08-.35a.98.98 0 0 0-1.06.892" fill="#F2B1B5"/><path d="M120.427 334.11a25.44 25.44 0 0 0 1.678-.85l6.039-3.346a2.946 2.946 0 1 0-2.86-5.152l-6.04 3.346c-7.338 4.073-10.442 7.016-16.648 1.346a2.947 2.947 0 0 0-3.977 4.348c7.61 6.953 12.561 4.582 21.808.309" fill="#F2B1B5"/><path d="M98.286 334.163a3.433 3.433 0 0 1-.217-4.854 3.44 3.44 0 0 1 4.859-.217c6.05 5.527 8.92 2.55 16.078-1.412a3.425 3.425 0 0 1 4.676 1.336 3.436 3.436 0 0 1-1.339 4.673c-.563.312-1.133.601-1.709.867-9.427 4.356-14.589 6.695-22.348-.393" fill="#5C629E"/><path d="M102.928 329.093c5.583 5.1 8.466 2.955 14.504-.523.868 2.145 1.421 4.37 1.746 6.656-8.519 3.904-13.544 5.649-20.891-1.063a3.432 3.432 0 0 1-.217-4.855 3.439 3.439 0 0 1 4.858-.215" fill="#231F20"/><path d="M95.69 320.19c.607-4.187 4.525-6.926 8.25-4.914.402.231.798.47 1.186.72 10.686 6.812 13.122 15.676 13.122 25.252l-.2 8.102 1.476 20.743c-1.672 1.11-3.802 1.539-6.109 1.443-.215-.008-1.416-6.894-1.634-6.912-.533-.043-1.073 6.76-1.618 6.666-6.252-1.084-12.106-3.686-14.473-8.364l.736-24.426s-1.74-11.377-.736-18.31" fill="#5C629E"/><path d="M104.707 321.12a2.163 2.163 0 0 0 2.163-2.16v-9.994h-4.326v9.994c0 1.192.97 2.16 2.163 2.16" fill="#F2B1B5"/><path d="M99.597 315.56h5.27c4.307 0 7.798-3.49 7.798-7.792V296.91H99.597v18.65z" fill="#F2B1B5"/><path d="M111.44 307.865V296.91h1.226v10.956c0 4.249-3.448 7.695-7.702 7.695h-1.226c4.254 0 7.702-3.446 7.702-7.695" fill="#F7D0D3"/><path d="M95.327 306.504c.019-.485.03-.97.024-1.457-.03-1.891-.186-3.785.093-5.665.352-2.353 1.543-4.766 3.711-5.745 1.3-.587 2.78-.588 4.207-.579l8.702.058c1.271.006 2.67.046 3.763.783 2.053 1.387 1.042 4.035-.189 5.614-.66.849-1.5 1.641-2.48 2.107-.942.45-2.543.076-3.156 1.03-.84 1.317.754 5.518-1.084 6.03-1.422.395-1.233-1.079-1.458-1.897-.141-.515-.53-1.031-1.064-1.055-.67-.03-1.114.703-1.24 1.361-.246 1.304.136 2.63.298 3.945.164 1.316.035 2.819-.962 3.694-.358.314-.8.516-1.249.68-1.316.478-3.72 1.058-4.933.104-1.72-1.348-2.817-2.73-3.018-4.974-.12-1.344-.018-2.688.035-4.034" fill="#48486A"/><path d="M133.627 348.875c.624 0 1.25-.022 1.879-.069l10.655-.53a2.946 2.946 0 0 0 2.797-3.087c-.08-1.625-1.488-2.891-3.09-2.795l-10.724.533c-8.468.612-16.273-4.172-19.523-11.92l-2.018-4.81a2.945 2.945 0 0 0-3.858-1.576 2.943 2.943 0 0 0-1.58 3.853l2.018 4.81a25.408 25.408 0 0 0 23.444 15.591" fill="#F2B1B5"/><path d="M108.523 329.75a3.436 3.436 0 0 1 2.252-4.307c1.817-.568 3.095.611 3.665 2.42l2.21 4.805a19.06 19.06 0 0 0 1.27 3.056c.23 1.808.328 3.651.328 5.524l-.136 5.51a25.861 25.861 0 0 1-8.025-12.032l-1.564-4.976z" fill="#231F20"/><path d="M109.729 333.475l-2.017-4.81a3.435 3.435 0 0 1 1.844-4.498 3.437 3.437 0 0 1 4.5 1.842l2.018 4.81a19.043 19.043 0 0 0 18.965 11.624l4.054-.297a3.431 3.431 0 0 1 3.681 3.175 3.438 3.438 0 0 1-3.178 3.678l-4.053.296a25.905 25.905 0 0 1-25.814-15.82" fill="#5C629E"/><path d="M193.322 335.378c0 3.004-2.117 4.21-4.703 2.679l-54.852-32.463c-2.587-1.531-4.73-5.242-4.762-8.244l-.494-45.174c-.034-3.004 2.06-4.217 4.653-2.696l55.443 32.522c2.593 1.522 4.715 5.222 4.715 8.226v45.15z" fill="#E9F1FD"/><path d="M191.681 336.47v-45.15c0-3.003-2.12-6.704-4.713-8.226l-55.443-32.522c-.918-.538-1.77-.728-2.492-.623.776-1.26 2.332-1.524 4.132-.47l55.443 32.524c2.593 1.52 4.713 5.222 4.713 8.226v45.15c0 1.93-.874 3.11-2.184 3.307.346-.555.544-1.3.544-2.215" fill="#C9D7ED"/></g><g transform="translate(128.116 267.736)"><mask id="bT" fill="#fff"><use xlink:href="#bR"/></mask><use fill="url(#bS)" xlink:href="#bR"/><path d="M.888 29.615c.033 3.001 2.176 6.712 4.763 8.244L60.502 70.32c2.587 1.53 4.704.325 4.704-2.677 0-2.814-.077-5.639 0-8.451.052-1.963.106-2.704-1.17-4.309a55.295 55.295 0 0 1-4.135-5.943c-.79-1.32-1.523-2.68-2.45-3.905-2.483-3.294-6.356-5.506-10.454-5.975-2.75-.314-5.576.118-8.273-.504-1.39-.32-2.702-.911-3.986-1.534-1.351-.655-2.724-1.377-3.686-2.53-.983-1.177-1.447-2.69-1.886-4.16-.93-3.112-1.252-7.738-4.389-9.497-1.524-.853-3.31-1.088-5.047-1.236-1.74-.149-3.515-.234-5.154-.834-2.387-.872-4.281-2.779-5.615-4.943-1.355-2.202-1.816-5.029-3.312-7.045C4.856 5.71 3.973 4.666 3.155 3.61 2.773 3.121.576 1.18.572.697l.316 28.918z" mask="url(#bT)"/></g><path d="M193.236 336.304c-.012.068-.024.137-.039.201-.058.27-.135.52-.236.742-.02.04-.042.073-.06.11a2.8 2.8 0 0 1-.321.493c-.04.049-.079.1-.121.146-.143.15-.3.278-.47.383-.056.032-.116.057-.175.085-.138.07-.286.122-.44.162-.067.017-.13.039-.2.05-.01.002-.022 0-.034.002.344-.555.541-1.295.541-2.207v-19.905c.161.209.308.427.473.633.85 1.073 1.106 1.766 1.167 2.689v7.041c-.076 2.811 0 5.636 0 8.45 0 .334-.034.637-.085.925" fill="#D3DAED"/></g></svg>