<svg width="553" height="495" xmlns="http://www.w3.org/2000/svg" xmlns:xlink="http://www.w3.org/1999/xlink"><defs><path d="M178.803 1.276L4.788 102.328c-2.397 1.394-4.359 4.804-4.359 7.578v243.6l2.7-1.568 176.038-104.734c2.399-1.393 4.361-4.802 4.361-7.576l1.236-237.036-2.71-1.397a3.387 3.387 0 0 0-3.25.081" id="a"/><path id="c" d="M.233 9.024v73.033l13.584-8.046V.98z"/><path d="M4.723 15.71c-5.959-3.442-5.959-9.077 0-12.52 5.962-3.444 15.715-3.444 21.674 0 5.961 3.443 5.961 9.078 0 12.52" id="e"/><path d="M5.36 17.014C-1 13.34-1 7.329 5.36 3.656c6.358-3.674 16.762-3.674 23.12 0 6.359 3.673 6.359 9.685 0 13.358" id="g"/><path d="M4.632 16.139c-5.96-3.444-5.96-9.078 0-12.522 5.961-3.443 15.714-3.443 21.673 0 5.962 3.444 5.962 9.078 0 12.522" id="i"/><path d="M.948.063l.321 62.892c-.795 1.875.033 3.94 2.558 5.396 3.837 2.218 10.117 2.218 13.954 0 1.919-1.108 2.879-2.57 2.879-4.032V.063H.948z" id="k"/><path d="M8.44 5.42c10.469-6.047 27.6-6.047 38.069 0 10.468 6.05 10.468 15.945 0 21.994-10.468 6.048-27.6 6.048-38.069 0" id="m"/><path d="M7.182 4.422c8.8-5.084 23.203-5.084 32.004 0 8.802 5.084 8.802 13.405 0 18.49-8.8 5.085-23.203 5.085-32.004 0" id="o"/><path d="M69.817.997L4.182 38.973C2.235 40.098.645 42.856.645 45.105v68.882c0 .652.367 1.246.95 1.537l1.407.706 71.107-41.081.725-70.463V3.212c0-.452-.23-.872-.608-1.115l-1.602-1.033a2.686 2.686 0 0 0-2.806-.067" id="q"/><path id="s" d="M.421 6.38v2.18l9.494-5.495V.885z"/><path id="u" d="M.238 5.374v2.18L7.736 3.23V1.048z"/><path id="w" d="M1.39 3.385v2.18L6.58 2.54V.361z"/><path id="y" d="M.108 6.676v2.18l9.279-5.344v-2.18z"/><path id="A" d="M1.117 3.904v2.18l5.34-3.061V.843z"/><path id="C" d="M.389 3.868v2.18L6.386 2.62V.44z"/><path d="M51.699.746L2.934 28.584C1.524 29.39.372 31.378.372 33v38.961a3.24 3.24 0 0 0 2.71 3.199l.107.016a3.283 3.283 0 0 0 2.169-.393l48.934-28.183c1.406-.812 2.556-2.806 2.556-4.429V3.763c0-.653-.208-1.288-.593-1.813l-.206-.278a3.342 3.342 0 0 0-4.35-.926" id="E"/><path d="M4.557 1.414C2.14 2.81.16 6.294.16 9.152c0 2.86 1.98 3.97 4.397 2.464 2.418-1.502 4.396-4.985 4.396-7.737C8.954 1.935 7.968.81 6.534.81c-.595 0-1.268.193-1.977.603" id="G"/><path id="I" d="M.528 6.857l1.614-.909.014 7.316 3.688-2.131.002-7.307 1.5-.869L3.929.777z"/><path d="M30.017 2.324l-2.054 4.91A19.401 19.401 0 0 1 8.64 19.095l-4.131-.305a3.497 3.497 0 0 0-3.75 3.24 3.505 3.505 0 0 0 3.239 3.755l4.127.301a26.387 26.387 0 0 0 26.3-16.145l2.055-4.908A3.506 3.506 0 0 0 33.249.173c-1.371 0-2.67.809-3.233 2.15" id="K"/><path d="M3.9 55.21L97.22 1.403c1.167-.678 2.631.166 2.631 1.516v66.388a5.184 5.184 0 0 1-2.577 4.48l-93.32 54.236c-1.17.679-2.633-.163-2.633-1.516V59.69c0-1.846.982-3.553 2.578-4.48" id="M"/><filter x="-19.8%" y="-13%" width="139.6%" height="130.7%" filterUnits="objectBoundingBox" id="L"><feOffset dy="3" in="SourceAlpha" result="shadowOffsetOuter1"/><feGaussianBlur stdDeviation="6" in="shadowOffsetOuter1" result="shadowBlurOuter1"/><feColorMatrix values="0 0 0 0 0 0 0 0 0 0 0 0 0 0 0 0 0 0 0.15160779 0" in="shadowBlurOuter1"/></filter><path d="M97.22 1.405L3.9 55.21a5.18 5.18 0 0 0-2.579 4.48v66.819c0 1.215 1.184 2.01 2.273 1.664-.006-.055-.022-.106-.022-.163V61.19c0-1.846.982-3.553 2.577-4.48L99.47 2.906a1.71 1.71 0 0 1 .358-.149 1.754 1.754 0 0 0-1.738-1.59c-.29 0-.588.074-.871.238" id="N"/><path d="M50.091 1.972c-.765.443-1.523.998-2.248 1.648l1.412 1.581A11.593 11.593 0 0 1 51.15 3.81c1.749-1.01 3.342-1.201 4.49-.538 1.144.66 1.776 2.14 1.776 4.158h2.12c0-2.81-1.006-4.938-2.839-5.997a5.112 5.112 0 0 0-2.585-.672c-1.257 0-2.625.405-4.021 1.211zm-8.386 14.534h2.12c0-3.167 1.616-7.078 4.115-9.963l-1.6-1.39c-2.86 3.298-4.636 7.649-4.636 11.353zm8.386 3.62c-1.642.95-3.165 1.178-4.293.643-.983-.465-1.629-1.486-1.87-2.95l-2.094.346c.355 2.151 1.441 3.757 3.058 4.523a5.183 5.183 0 0 0 2.233.484c1.265 0 2.639-.406 4.025-1.208 3.984-2.3 7.44-7.557 8.221-12.502l-2.093-.33c-.689 4.363-3.713 8.988-7.187 10.995zm-19.782-7.35c-2.823 1.63-5.438 4.757-6.993 8.363l1.947.84c1.381-3.202 3.664-5.954 6.108-7.365 1.746-1.01 3.34-1.201 4.487-.54 1.147.663 1.777 2.14 1.777 4.159 0 3.995-2.475 8.914-5.886 11.697l1.338 1.643c3.864-3.152 6.667-8.76 6.667-13.34 0-2.809-1.006-4.94-2.834-5.997a5.109 5.109 0 0 0-2.588-.674c-1.258 0-2.627.407-4.023 1.214zM9.751 23.978C5.13 26.65 1.366 33.171 1.366 38.513c0 2.81 1.01 4.94 2.838 5.998.78.448 1.653.674 2.586.674 1.258 0 2.627-.407 4.023-1.215l-1.06-1.837c-1.75 1.012-3.343 1.202-4.489.54-1.146-.663-1.777-2.14-1.777-4.16 0-4.587 3.355-10.402 7.326-12.697 1.263-.73 2.466-1.036 3.474-.886l.312-2.1a5.713 5.713 0 0 0-.822-.058c-1.27-.002-2.644.41-4.024 1.206zm12.173 3.333c0 2.81 1.008 4.938 2.838 5.996.779.45 1.653.674 2.586.674 1.257 0 2.627-.407 4.023-1.213l-1.062-1.837c-1.746 1.009-3.34 1.2-4.486.537-1.146-.66-1.78-2.138-1.78-4.157 0-1.051.173-2.18.51-3.36l-2.037-.585c-.392 1.369-.592 2.696-.592 3.945zM15.495 25.4c.765.536 1.278 1.48 1.484 2.732l2.09-.344c-.3-1.831-1.117-3.259-2.362-4.128l-1.212 1.74zm1.581 4.035c0 3.563-2.063 8.052-5.019 10.924l1.477 1.522c3.388-3.289 5.664-8.29 5.664-12.446h-2.122z" id="P"/><path d="M.007 3.93L.004 40.953l.007.141L1.052 65.58c.093 2.053 1.784.887 3.816.887l.177-.003c.542-.024 1.056.024 1.513.069 1.32.135 2.201.27 2.132-1.299L7.653 40.89l1.04-36.744A3.824 3.824 0 0 0 4.98.213L4.842.21C2.759.21.066 1.863.008 3.93" id="R"/><path d="M9.723.426c-1.35.114-2.558.23-3.21.188A3.827 3.827 0 0 0 2.455 4.19L.354 37.62l2.109 28.485c.163 2.001 1.835 1.44 3.806 1.44.103 0 .21-.005.316-.014 2.105-.172 3.67.054 3.497-2.05L8.018 37.547l8.33-36.175c.056-.893-1.324-1.14-3.094-1.14-1.11 0-2.374.097-3.532.194" id="T"/><path d="M36.627 1.038L.374 20.158s-.2 2.831.573 3.278L56.493 55.5a4.6 4.6 0 0 0 4.585.01L96.753 35.12c1.474-.915.583-3.283.583-3.283L41.213 1.048a4.6 4.6 0 0 0-4.586-.01" id="V"/><linearGradient x1="0%" y1="50%" x2="100.001%" y2="50%" id="W"><stop stop-color="#FFF" offset="0%"/><stop stop-color="#99A7D8" offset="100%"/></linearGradient><path id="Y" d="M.336 39.057l53.273 30.93V30.964L.336.035z"/><path id="aa" d="M.09.123l14.154 8.014v.996L.09 1.117z"/><path id="ac" d="M.09-4.377l14.154 8.014v.996L.09-3.383z"/><path id="ae" d="M.09.123l14.154 8.014v.996L.09 1.117z"/><path id="ag" d="M.09 5.123l14.154 8.014v.996L.09 6.117z"/><path d="M5.242.282c-.94.126-1.94.258-2.78.73-.347.198-.757.444-.956.794-.306.537-.5 1.211-.437 1.83.147 1.442 1.976 1.94 2.135 3.305.081.686-.374 1.453-.432 2.146-.078.905.066 1.83.444 2.658.71 1.563 2.2 2.893 2.124 4.61-.033.762-.387 1.475-.498 2.232-.39 2.687 2.432 4.734 1.692 7.45-.477 1.748-2.46 3.022-2.276 4.825.075.728.51 1.372.632 2.094.252 1.48-.828 3.08-.175 4.43 2.24 4.645 10.015 3.84 13.612 1.825.898-.503 1.768-1.13 2.296-2.015 1.142-1.917.359-4.389-.7-6.353-.405-.75-.858-1.509-.939-2.357-.173-1.773 1.28-3.283 1.632-5.028.522-2.587-1.27-4.952-1.164-7.52.117-2.85.876-5.22.024-8.103a11.784 11.784 0 0 0-.45-1.267c-1.533-3.679-5.118-5.53-8.896-6.15A18.723 18.723 0 0 0 7.133.161c-.633 0-1.264.038-1.892.12" id="ai"/><path d="M1.087 6.951c3.376 1.08 7.091 1.627 10.816 1.627 3.752 0 7.504-.558 10.912-1.655a71.407 71.407 0 0 0-1.232-4.92L21.633.98C15.672 3.074 7.937 3.056 2.034.928L1.087 6.95z" id="ak"/><path d="M96.069.49L2.746 54.292a5.183 5.183 0 0 0-2.576 4.48v66.82c0 1.216 1.183 2.008 2.272 1.665-.006-.056-.022-.107-.022-.164V60.276c0-1.847.982-3.555 2.577-4.48L98.319 1.99c.115-.067.237-.11.358-.148A1.754 1.754 0 0 0 96.94.25c-.29 0-.588.075-.87.238" id="am"/><path d="M.3 51.041v1.96L88.329 2.79l.027-1.972L.3 51.04zm.181 8.56v1.96l88.03-50.212.025-1.97L.481 59.6zm.18 8.56v1.963l88.03-50.213.026-1.97L.662 68.161zm.182 8.564v1.959L88.871 28.47l.026-1.968L.843 76.725zM.3 40.694v2.96l16.918-9.637-.031-2.955L.3 40.694zm.543 44.689v1.974l49.978-28.525.028-1.968L.843 85.383z" id="ao"/><linearGradient x1="-6.904%" y1="77.466%" x2="92.986%" y2="18.495%" id="ap"><stop stop-color="#FFC107" offset="0%"/><stop stop-color="#AE1AEB" offset="100%"/></linearGradient></defs><g fill="none" fill-rule="evenodd"><g transform="translate(128.5 -1.45)"><mask id="b" fill="#fff"><use xlink:href="#a"/></mask><path d="M178.803 1.276L4.788 102.328c-2.397 1.394-4.359 4.804-4.359 7.578v243.6l2.7-1.568 176.038-104.734c2.399-1.393 4.361-4.802 4.361-7.576l1.236-237.036-2.71-1.397a3.387 3.387 0 0 0-3.25.081" mask="url(#b)"/></g><path d="M131.63 110.436c0-2.773 1.962-6.184 4.359-7.577L310.369 1.536c2.396-1.393 4.358-.263 4.358 2.511v240.05L131.63 350.487v-240.05z" fill="#F9FCFF"/><path d="M135.988 102.86L310.368 1.536c2.398-1.393 4.359-.262 4.359 2.511v11.389L131.629 121.825v-11.388c0-2.774 1.962-6.184 4.36-7.577" fill="#273143"/><path d="M157.24 97.816c.78-.45 1.419-.08 1.419.824 0 .904-.64 2.015-1.422 2.467-.783.451-1.422.08-1.42-.824.004-.906.643-2.016 1.423-2.467M151.045 101.491c.78-.452 1.418-.08 1.418.824 0 .904-.64 2.013-1.422 2.465-.782.452-1.42.08-1.418-.824.002-.905.642-2.015 1.422-2.465M144.85 105.165c.78-.45 1.42-.08 1.42.824 0 .903-.64 2.014-1.422 2.464-.783.454-1.422.083-1.42-.822.002-.905.643-2.016 1.423-2.466" fill="#172234"/><path fill="#C9D7ED" d="M300.335 43.089v69.341l-152.86 88.022v-68.893z"/><path fill="#EDF0F8" d="M300.555 200.566v5.316l-153.08 88.996v-5.283zM300.555 214.971v5.317l-153.08 88.995V304zM300.555 230.097v5.317l-153.08 88.995v-5.283zM300.335 123.01v55.298l-43.943 25.913v-54.94zM191.419 185.875v55.298l-43.943 25.913v-54.94zM245.876 154.613v55.298l-43.942 25.914v-54.94z"/><path fill="#F8F9FC" d="M372.07 82.021l13.926-8.045 13.585 8.045-13.585 8.046z"/><path fill="#E4E9F4" d="M372.07 82.021v111.804l13.926 7.61V90.067z"/><path fill="#EDF0F8" d="M399.581 82.021v111.367l-13.585 8.047V90.067z"/><path d="M349.804 133.118l13.928-8.047 13.585 8.047c-.917 3.488-2.304 5.782-4.161 6.882-1.857 1.1-4.998 1.487-9.424 1.163l-13.928-8.045z" fill="#4098FF"/><path d="M349.804 133.118v73.466l13.928 7.612c2.179-19.956 3.268-34.87 3.268-44.742s-1.09-19.302-3.268-28.291l-13.928-8.045z" fill="#0063D7"/><g transform="translate(363.5 132.139)"><mask id="d" fill="#fff"><use xlink:href="#c"/></mask><use fill="#107EFF" xlink:href="#c"/><path mask="url(#d)" d="M.233 9.024v73.033l13.584-8.046V.98z"/></g><path fill="#EFF1F9" d="M327.54 119.864l13.928-8.046 13.585 8.046-13.585 8.047z"/><path fill="#C2CAE8" d="M327.54 119.864v99.48l13.928 7.612V127.91z"/><path fill="#D6DCEF" d="M355.053 119.864v99.045l-13.586 8.047V127.91z"/><g transform="translate(-2 397.815)"><mask id="f" fill="#fff"><use xlink:href="#e"/></mask><path d="M4.723 15.71c-5.959-3.442-5.959-9.077 0-12.52 5.962-3.444 15.715-3.444 21.674 0 5.961 3.443 5.961 9.078 0 12.52-5.96 3.444-15.712 3.444-21.673 0" mask="url(#f)"/></g><g transform="translate(16 387.308)"><mask id="h" fill="#fff"><use xlink:href="#g"/></mask><path d="M5.36 17.014C-1 13.34-1 7.329 5.36 3.656c6.358-3.674 16.762-3.674 23.12 0 6.359 3.673 6.359 9.685 0 13.358-6.358 3.673-16.762 3.673-23.12 0" mask="url(#h)"/></g><g transform="translate(37 376.801)"><mask id="j" fill="#fff"><use xlink:href="#i"/></mask><path d="M4.632 16.139c-5.96-3.444-5.96-9.078 0-12.522 5.961-3.443 15.714-3.443 21.673 0 5.962 3.444 5.962 9.078 0 12.522-5.959 3.443-15.712 3.443-21.673 0" mask="url(#j)"/></g><path d="M22.942 401.003c-3.837-2.217-3.837-5.845 0-8.062 3.838-2.217 10.117-2.217 13.956 0 3.837 2.217 3.837 5.845 0 8.062-3.839 2.219-10.118 2.219-13.956 0" fill="#AE1AEB"/><g transform="translate(41.5 321.264)"><mask id="l" fill="#fff"><use xlink:href="#k"/></mask><use fill="#107EFF" xlink:href="#k"/><path d="M.948.063l.321 62.892c-.795 1.875.033 3.94 2.558 5.396 3.837 2.218 10.117 2.218 13.954 0 1.919-1.108 2.879-2.57 2.879-4.032V.063H.948z" mask="url(#l)"/></g><path fill="#AE1AEB" d="M20.392 397.298h19.383v-48.563h-19.71z"/><path d="M45.326 326.36c-3.837-2.219-3.837-5.847 0-8.064 3.839-2.215 10.118-2.215 13.955 0 3.838 2.217 3.838 5.845 0 8.063-3.837 2.217-10.116 2.217-13.955 0" fill="#4197FB"/><path d="M22.942 352.765c-3.837-2.217-3.837-5.845 0-8.062 3.838-2.219 10.117-2.219 13.956 0 3.837 2.217 3.837 5.845 0 8.062-3.839 2.218-10.118 2.218-13.956 0" fill="#C441F9"/><path d="M3.762 412.297c-3.792-2.217-3.792-5.844 0-8.061 3.79-2.219 9.994-2.219 13.785 0 3.792 2.217 3.792 5.844 0 8.061-3.79 2.219-9.995 2.219-13.785 0" fill="#E4E9F4"/><path fill="#E4E9F4" d="M.926 408.008h19.466v-31.554H.68z"/><path d="M3.558 380.485c-3.837-2.219-3.837-5.847 0-8.062 3.838-2.219 10.117-2.219 13.956 0 3.837 2.215 3.837 5.843 0 8.062-3.839 2.218-10.118 2.218-13.956 0" fill="#EDF0F8"/><g transform="translate(395.5 146.649)"><mask id="n" fill="#fff"><use xlink:href="#m"/></mask><path d="M8.44 5.42c10.469-6.047 27.6-6.047 38.069 0 10.468 6.05 10.468 15.945 0 21.994-10.468 6.048-27.6 6.048-38.069 0-10.47-6.049-10.47-15.945 0-21.994" mask="url(#n)"/></g><path d="M441.86 157.122h-2.153c-.882-.986-2.037-1.91-3.464-2.736-7.492-4.33-19.752-4.33-27.243 0-1.428.825-2.581 1.75-3.465 2.736h-2.154v5.093h.002c-.018 2.865 1.854 5.735 5.617 7.91 7.491 4.327 19.75 4.327 27.243 0 3.764-2.175 5.636-5.045 5.616-7.91h.002v-5.093z" fill="#E4E9F4"/><path d="M409 154.386c-1.428.824-2.582 1.75-3.465 2.736h-2.154v5.092h.002c-.018 2.867 1.854 5.737 5.617 7.91.116.068.236.13.353.195v-5.133l3.699-12.585c-1.452.478-2.817 1.07-4.052 1.785" fill="#107EFF"/><path d="M409 149.253c7.491-4.33 19.75-4.33 27.243 0 7.491 4.327 7.491 11.41 0 15.738-7.492 4.329-19.752 4.329-27.243 0-7.491-4.328-7.491-11.41 0-15.738" fill="#FAFBFD"/><path d="M422.622 146.006c-4.938 0-9.876 1.082-13.622 3.247-7.49 4.327-7.49 11.41 0 15.738.116.067.236.13.353.195l13.269-6.32v-12.86z" fill="#4098FF"/><path d="M403.637 158.866h18.984v-12.86c-4.938 0-9.876 1.082-13.621 3.246-4.514 2.608-6.287 6.213-5.363 9.614" fill="#AE1AEB"/><g transform="translate(437.5 128.637)"><mask id="p" fill="#fff"><use xlink:href="#o"/></mask><path d="M7.182 4.422c8.8-5.084 23.203-5.084 32.004 0 8.802 5.084 8.802 13.405 0 18.49-8.8 5.085-23.203 5.085-32.004 0-8.802-5.085-8.802-13.406 0-18.49" mask="url(#p)"/></g><path d="M471.388 138.543c-.935 2.861-6.083 4.476-10.71 3.451-3.515-.78-5.655-2.97-4.96-5.102.935-2.86 6.082-4.477 10.71-3.449 3.515.78 5.656 2.969 4.96 5.1zm12.715-3.941c-.001-.515-.726-.93-1.618-.93h-3.449c-.57 0-1.516.603-1.659.423-.237-.3-.151-.65.252-.883l2.438-1.405c.631-.363-3.378-.195-4.01-.558l.035-3.046c-.632-.362-1.655-.362-2.286.002l-2.456 1.415c-.387.224-.969.287-1.471.162a42.728 42.728 0 0 0-1.056-.246c-.512-.116-.845-.4-.845-.716v-2.004c0-.515-.723-.932-1.615-.932h-5.62c-.892 0-1.616.417-1.616.932v1.986c0 .329-.368.61-.902.725-.339.074-.672.155-.999.24-.519.138-1.128.09-1.534-.142l-2.447-1.4c-.633-.363-1.654-.361-2.284.002l-.291 3.311c-.627.365-4.298-.063-3.665.299l2.466 1.412c.387.223.5.557.285.847-.15.201-1.116-.395-1.665-.393l-3.484.004c-.893.002-1.614.419-1.613.932l.015 4.726c.002.514.726.93 1.619.929l2.023-.003-.048 3.902a.534.534 0 0 0-.003.201c.036.207.185.409.46.566l3.983 2.283c.386.222.915.291 1.416.242l.026.013v-.016c.307-.035.604-.104.841-.24l2.454-1.419c.387-.223.966-.286 1.47-.163.351.085.73.172 1.056.246.512.112.846.396.848.713l.004 2.007c.002.513.726.929 1.619.927l5.62-.004c.893-.002 1.614-.419 1.611-.932l-.004-1.986c-.002-.329.367-.613.901-.728.323-.07.64-.146.951-.228.52-.137 1.13-.089 1.535.144l2.443 1.403c.236.137.531.203.836.237v.027l.043-.022c.498.048 1.022-.023 1.404-.243l3.97-2.292c.262-.15.407-.341.452-.536l.017-.01v-.092c0-.014 0-.027-.002-.04l-.05-3.992 1.988-.001c.893-.002 1.614-.418 1.614-.933l-.003-4.723z" fill="#DCE1F1"/><path d="M480.556 129.222l-.016-2.539h-3.64l-.81-.465c-.63-.363-1.652-.363-2.284.002l-.807.463h-5.022v-1.853c0-.515-.721-.931-1.614-.931h-5.62c-.893 0-1.616.416-1.616.93v1.854h-5.103l-.778-.445c-.633-.362-1.656-.36-2.285.004l-.763.441h-3.665v2.483c-.012.248.143.497.473.684l2.464 1.413 28.16-.038 2.437-1.405c.29-.166.44-.38.462-.598h.027z" fill="#DCE1F1"/><path d="M455.718 132.424c.935-2.861 6.083-4.476 10.71-3.45 3.515.78 5.655 2.97 4.96 5.1-.935 2.862-6.082 4.478-10.71 3.451-3.515-.78-5.656-2.97-4.96-5.101m22.367 3.368l4.408-.003c.891 0 1.614-.417 1.613-.93l-.003-3.237c-.002-.513-.726-.93-1.617-.93l-3.45.002c-.57 0-1.062-.211-1.263-.52a7.752 7.752 0 0 0-.396-.548c-.237-.299-.152-.65.252-.883l2.437-1.405c.632-.363.632-.951 0-1.316l-3.975-2.288c-.631-.361-1.654-.361-2.284.002l-2.457 1.415c-.387.224-.97.287-1.472.162a50.831 50.831 0 0 0-1.056-.246c-.51-.115-.844-.4-.844-.714v-2.006c0-.514-.723-.93-1.614-.93h-5.62c-.893 0-1.618.416-1.618.93v1.986c0 .329-.367.61-.901.727-.34.072-.67.153-1 .238-.518.138-1.127.09-1.534-.142l-2.445-1.4c-.633-.364-1.656-.36-2.286.004L447 126.053c-.629.365-.626.955.006 1.315l2.466 1.413c.388.222.5.557.285.846-.149.201-.3.42-.426.608-.2.296-.69.488-1.24.488l-3.484.006c-.892.001-1.612.417-1.61.932l.013 3.235c.001.515.727.93 1.618.929l3.45-.006c.572 0 1.062.211 1.265.52.123.184.255.367.399.547.237.299.151.65-.25.883l-2.435 1.408c-.63.364-.627.953.004 1.314l3.983 2.285c.631.362 1.653.36 2.283-.003l2.454-1.418c.387-.224.967-.287 1.47-.164.35.085.73.173 1.057.245.51.115.845.399.846.714l.005 2.007c.001.513.726.929 1.618.929l5.62-.006c.893 0 1.615-.419 1.612-.932l-.005-1.986c-.001-.329.37-.61.902-.728.322-.069.64-.146.952-.228.52-.137 1.13-.087 1.533.144l2.444 1.403c.631.364 1.654.364 2.284-.001l3.97-2.29c.63-.365.628-.954-.004-1.315l-2.46-1.414c-.388-.224-.5-.557-.283-.847.357-.485.726-1.061.744-1.094" fill="#EDF0F8"/><path fill="#F6F8FB" d="M183.25 460.49l-.75-1.297 189.906-109.91.75 1.299zM82.751 495.014L82 493.715l189.908-109.909.75 1.299zM341.64 276.772l-.75-1.299 168.51-97.527.75 1.298zM421.84 214.461l-.75-1.298 130.823-75.714.75 1.299z"/><g transform="translate(281.5 10.558)"><mask id="r" fill="#fff"><use xlink:href="#q"/></mask><path d="M69.817.997L4.182 38.973C2.235 40.098.645 42.856.645 45.105v68.882c0 .652.367 1.246.95 1.537l1.407.706 71.107-41.081.725-70.463V3.212c0-.452-.23-.872-.608-1.115l-1.602-1.033a2.686 2.686 0 0 0-2.806-.067" mask="url(#r)"/></g><g><path d="M357.24 15.329c0-2.249-1.593-3.169-3.537-2.044l-65.57 37.882c-1.945 1.124-3.538 3.883-3.538 6.13v69.436l72.645-41.97V15.33z" fill="#172234"/><path d="M288.133 51.167l65.57-37.882c1.945-1.125 3.536-.205 3.536 2.044v9.902l-72.643 41.97v-9.904c0-2.247 1.591-5.006 3.537-6.13" fill="#273143"/><path d="M304.561 47.183c.733-.423 1.334-.076 1.334.77 0 .845-.6 1.884-1.334 2.307-.73.424-1.332.079-1.332-.768s.602-1.885 1.332-2.309M298.032 51.02c.732-.422 1.332-.076 1.332.77s-.6 1.885-1.332 2.308c-.732.423-1.332.076-1.332-.769 0-.846.6-1.885 1.332-2.308M291.502 54.858c.732-.424 1.332-.077 1.332.77 0 .845-.6 1.885-1.332 2.307-.732.423-1.332.078-1.332-.769 0-.846.6-1.885 1.332-2.308" fill="#172234"/><path fill="#45546E" d="M321.202 51.653l-33.254 19.21v2.18l33.254-19.21zM334.623 43.927l-11.417 6.636v2.18l11.416-6.637z"/></g><g transform="translate(319 52.586)"><mask id="t" fill="#fff"><use xlink:href="#s"/></mask><path mask="url(#t)" d="M.421 6.38v2.18l9.494-5.495V.885z"/></g><g><path fill="#2ECC71" d="M317.796 59.831l-12.915 7.522v2.18l12.915-7.522z"/><path fill="#45546E" d="M316.21 67.2l-28.262 16.33v2.182l28.263-16.333z"/></g><g transform="translate(319 60.09)"><mask id="v" fill="#fff"><use xlink:href="#u"/></mask><path mask="url(#v)" d="M.238 5.374v2.18L7.736 3.23V1.048z"/></g><g fill="#45546E"><path d="M353.887 45.498l-23.744 13.716v2.18l23.744-13.717zM315.968 73.339L296.7 84.622v2.18l19.268-11.284z"/></g><g transform="translate(316 69.097)"><mask id="x" fill="#fff"><use xlink:href="#w"/></mask><path mask="url(#x)" d="M1.39 3.385v2.18L6.58 2.54V.361z"/></g><g><path fill="#45546E" d="M333.627 69.77l-40.653 23.424v2.18l40.653-23.425z"/><path fill="#2ECC71" d="M350.635 60.049l-15.026 8.63v2.18l15.026-8.63z"/><path fill="#45546E" d="M325.542 80.851l-37.593 21.608v2.18l37.593-21.608zM343.122 70.734l-15.596 9.027v2.18l15.596-9.028z"/></g><g transform="translate(344.5 63.093)"><mask id="z" fill="#fff"><use xlink:href="#y"/></mask><path mask="url(#z)" d="M.108 6.676v2.18l9.279-5.344v-2.18z"/></g><g transform="translate(293.5 100.618)"><mask id="B" fill="#fff"><use xlink:href="#A"/></mask><path mask="url(#B)" d="M1.117 3.904v2.18l5.34-3.061V.843z"/></g><g><path fill="#45546E" d="M306.745 97.446l-5.16 2.924v2.181l5.16-2.924z"/><path fill="#2ECC71" d="M323.838 94.284l-35.89 20.793v2.18l35.89-20.794z"/><path fill="#45546E" d="M339.956 85.027l-11.44 6.629v2.179l11.44-6.627z"/></g><g transform="translate(347.5 76.602)"><mask id="D" fill="#fff"><use xlink:href="#C"/></mask><path mask="url(#D)" d="M.389 3.868v2.18L6.386 2.62V.44z"/></g><g transform="translate(67 147.149)"><mask id="F" fill="#fff"><use xlink:href="#E"/></mask><use fill="#E9F1FD" xlink:href="#E"/><path d="M51.699.746L2.934 28.584C1.524 29.39.372 31.378.372 33v38.961a3.24 3.24 0 0 0 2.71 3.199l.107.016a3.283 3.283 0 0 0 2.169-.393l48.934-28.183c1.406-.812 2.556-2.806 2.556-4.429V3.763c0-.653-.208-1.288-.593-1.813l-.206-.278a3.342 3.342 0 0 0-4.35-.926" mask="url(#F)"/></g><path d="M121.286 149.17c1.409-.806 2.562-.137 2.562 1.487v38.462c0 1.624-1.15 3.617-2.556 4.43L72.287 221.86c-1.405.812-2.554.147-2.554-1.477v-38.757c0-1.624 1.152-3.613 2.56-4.419l48.993-28.037z" fill="#F6F9FF"/><g transform="translate(101.5 166.662)"><mask id="H" fill="#fff"><use xlink:href="#G"/></mask><path d="M4.557 1.414C2.14 2.81.16 6.294.16 9.152c0 2.86 1.98 3.97 4.397 2.464 2.418-1.502 4.396-4.985 4.396-7.737C8.954 1.935 7.968.81 6.534.81c-.595 0-1.268.193-1.977.603" mask="url(#H)"/></g><g><path d="M80.298 185.517l12.076 8.913 5.001-9.518 12 5.054 14.472-7.858v7.011c0 1.625-1.149 3.618-2.554 4.43l-49.005 28.31c-1.406.812-2.555.149-2.555-1.475v-16.198l10.565-18.669z" fill="#48486A"/><path fill="#6D6D88" d="M80.25 185.602v11.956l3-4.128 4.125 2.877V195.2l5-.769-12.077-8.914zM97.375 184.912v2.888h2.5l.5 2.166 1.285-1.54 7.715 1.54z"/></g><g transform="translate(97 328.77)"><mask id="J" fill="#fff"><use xlink:href="#I"/></mask><path mask="url(#J)" d="M.528 6.857l1.614-.909.014 7.316 3.688-2.131.002-7.307 1.5-.869L3.929.777z"/></g><g><g transform="translate(214 165.16)"><use fill="#000" filter="url(#L)" xlink:href="#M"/><use fill="#FFF" xlink:href="#M"/></g></g><g transform="translate(214 165.16)"><mask id="O" fill="#fff"><use xlink:href="#N"/></mask><use fill="#E9F1FD" xlink:href="#N"/><path d="M97.22 1.405L3.9 55.21a5.18 5.18 0 0 0-2.579 4.48v66.819c0 1.215 1.184 2.01 2.273 1.664-.006-.055-.022-.106-.022-.163V61.19c0-1.846.982-3.553 2.577-4.48L99.47 2.906a1.71 1.71 0 0 1 .358-.149 1.754 1.754 0 0 0-1.738-1.59c-.29 0-.588.074-.871.238" mask="url(#O)"/></g><g transform="translate(221.5 201.184)"><mask id="Q" fill="#fff"><use xlink:href="#P"/></mask><use fill="#AE1AEB" xlink:href="#P"/><path d="M50.091 1.972c-.765.443-1.523.998-2.248 1.648l1.412 1.581A11.593 11.593 0 0 1 51.15 3.81c1.749-1.01 3.342-1.201 4.49-.538 1.144.66 1.776 2.14 1.776 4.158h2.12c0-2.81-1.006-4.938-2.839-5.997a5.112 5.112 0 0 0-2.585-.672c-1.257 0-2.625.405-4.021 1.211zm-8.386 14.534h2.12c0-3.167 1.616-7.078 4.115-9.963l-1.6-1.39c-2.86 3.298-4.636 7.649-4.636 11.353zm8.386 3.62c-1.642.95-3.165 1.178-4.293.643-.983-.465-1.629-1.486-1.87-2.95l-2.094.346c.355 2.151 1.441 3.757 3.058 4.523a5.183 5.183 0 0 0 2.233.484c1.265 0 2.639-.406 4.025-1.208 3.984-2.3 7.44-7.557 8.221-12.502l-2.093-.33c-.689 4.363-3.713 8.988-7.187 10.995zm-19.782-7.35c-2.823 1.63-5.438 4.757-6.993 8.363l1.947.84c1.381-3.202 3.664-5.954 6.108-7.365 1.746-1.01 3.34-1.201 4.487-.54 1.147.663 1.777 2.14 1.777 4.159 0 3.995-2.475 8.914-5.886 11.697l1.338 1.643c3.864-3.152 6.667-8.76 6.667-13.34 0-2.809-1.006-4.94-2.834-5.997a5.109 5.109 0 0 0-2.588-.674c-1.258 0-2.627.407-4.023 1.214zM9.751 23.978C5.13 26.65 1.366 33.171 1.366 38.513c0 2.81 1.01 4.94 2.838 5.998.78.448 1.653.674 2.586.674 1.258 0 2.627-.407 4.023-1.215l-1.06-1.837c-1.75 1.012-3.343 1.202-4.489.54-1.146-.663-1.777-2.14-1.777-4.16 0-4.587 3.355-10.402 7.326-12.697 1.263-.73 2.466-1.036 3.474-.886l.312-2.1a5.713 5.713 0 0 0-.822-.058c-1.27-.002-2.644.41-4.024 1.206zm12.173 3.333c0 2.81 1.008 4.938 2.838 5.996.779.45 1.653.674 2.586.674 1.257 0 2.627-.407 4.023-1.213l-1.062-1.837c-1.746 1.009-3.34 1.2-4.486.537-1.146-.66-1.78-2.138-1.78-4.157 0-1.051.173-2.18.51-3.36l-2.037-.585c-.392 1.369-.592 2.696-.592 3.945zM15.495 25.4c.765.536 1.278 1.48 1.484 2.732l2.09-.344c-.3-1.831-1.117-3.259-2.362-4.128l-1.212 1.74zm1.581 4.035c0 3.563-2.063 8.052-5.019 10.924l1.477 1.522c3.388-3.289 5.664-8.29 5.664-12.446h-2.122z" mask="url(#Q)"/></g><g><path fill="#C9D7ED" d="M308.64 207.637v4.2l-84.131 48.908v-4.171zM308.64 219.015v4.2l-84.131 48.909v-4.172zM281.037 247.188v4.199l-56.529 32.684v-4.173z"/><path d="M304.964 347.42l1.438-.414a7.944 7.944 0 0 1 6.839 1.18l1.498-1.11 1.526 3.52 7.37-.627-1.603 6.552a1.214 1.214 0 0 1-.838.877l-3.027.888c-2.525.74-5.25.08-7.155-1.735l-6.716-6.403c-.906-.862-.534-2.382.668-2.728" fill="#48486A"/><path d="M304.964 347.42l1.438-.414a7.944 7.944 0 0 1 6.839 1.18l1.498-1.11 1.526 3.52 7.37-.627-.83 3.4a4.356 4.356 0 0 1-3.003 3.143l-1.295.38a7.362 7.362 0 0 1-7.153-1.737l-6.717-6.4a1.585 1.585 0 0 1-.456-.82c.193-.234.454-.422.783-.515" fill="#FFF"/><path d="M315.328 349.89c-1.544-1.472-1.131-3.16.92-3.754 2.05-.593 4.984.128 6.518 1.597 1.533 1.473 1.12 3.163-.92 3.756-2.04.594-4.973-.125-6.518-1.599" fill="#48486A"/><path d="M319.372 350.118a2.433 2.433 0 0 0 2.431-2.435v-9.384a2.432 2.432 0 1 0-4.864 0v9.384a2.434 2.434 0 0 0 2.433 2.435" fill="#EF9EA3"/></g><g transform="translate(314.5 280.737)"><mask id="S" fill="#fff"><use xlink:href="#R"/></mask><use fill="#307AD1" xlink:href="#R"/><path d="M.007 3.93L.004 40.953l.007.141L1.052 65.58c.093 2.053 1.784.887 3.816.887l.177-.003c.542-.024 1.056.024 1.513.069 1.32.135 2.201.27 2.132-1.299L7.653 40.89l1.04-36.744A3.824 3.824 0 0 0 4.98.213L4.842.21C2.759.21.066 1.863.008 3.93" mask="url(#S)"/></g><g><path d="M294.757 356.78l1.297-.745a7.946 7.946 0 0 1 6.921-.482l1.193-1.436 2.32 3.057 7.01-2.365v6.747c0 .432-.23.831-.603 1.049l-2.732 1.585a7.364 7.364 0 0 1-7.36.017l-8.046-4.618c-1.085-.621-1.085-2.187 0-2.81" fill="#48486A"/><path d="M294.757 356.78l1.297-.745a7.946 7.946 0 0 1 6.921-.482l1.193-1.436 2.32 3.057 7.01-2.365v3.5a4.354 4.354 0 0 1-2.168 3.768l-1.167.675a7.357 7.357 0 0 1-7.36.018l-8.046-4.617a1.574 1.574 0 0 1-.64-.686c.134-.273.343-.518.64-.687" fill="#FFF"/><path d="M305.41 356.71c-1.849-1.062-1.849-2.802 0-3.864 1.85-1.063 4.871-1.063 6.712 0 1.839 1.062 1.839 2.802 0 3.865-1.84 1.064-4.862 1.064-6.711 0" fill="#48486A"/><path d="M308.772 356.32a2.434 2.434 0 0 0 2.433-2.435V344.5a2.433 2.433 0 1 0-4.866 0v9.384a2.434 2.434 0 0 0 2.433 2.434" fill="#EF9EA3"/><path d="M319.37 291.172c.96 0 1.895-.498 2.408-1.39l5.03-8.713c5.23-9.06 2.9-20.673-5.418-27.012l-1.376-1.047a2.782 2.782 0 0 0-3.369 4.426l1.376 1.05c6.099 4.645 7.807 13.158 3.972 19.8l-5.03 8.712a2.783 2.783 0 0 0 2.406 4.174" fill="#48486A"/></g><g transform="translate(302.5 286.741)"><mask id="U" fill="#fff"><use xlink:href="#T"/></mask><use fill="#307AD1" xlink:href="#T"/><path d="M9.723.426c-1.35.114-2.558.23-3.21.188A3.827 3.827 0 0 0 2.455 4.19L.354 37.62l2.109 28.485c.163 2.001 1.835 1.44 3.806 1.44.103 0 .21-.005.316-.014 2.105-.172 3.67.054 3.497-2.05L8.018 37.547l8.33-36.175c.056-.893-1.324-1.14-3.094-1.14-1.11 0-2.374.097-3.532.194" mask="url(#U)"/></g><g><path d="M321.779 289.782a2.778 2.778 0 0 1-3.797 1.018 2.783 2.783 0 0 1-1.018-3.8l5.03-8.714a15.19 15.19 0 0 0 1.708-4.53c-.026 2.534.12 5.066.462 7.579l.382 3.653-2.767 4.794z" fill="#231F20"/><path d="M323.93 239.472l-12 6.933a17.21 17.21 0 0 0-8.602 14.906v34.196c4.872 3.41 17.984-1.344 20.601-6.687l-.781-7.486a51.923 51.923 0 0 1-.44-8.964l1.221-32.898z" fill="#48486A"/><path d="M130.403 353.838l37.484 21.424c.815.466.818 1.64.005 2.11L109.53 411.06a4.834 4.834 0 0 1-4.818.01L67.23 389.647a1.216 1.216 0 0 1-.005-2.109l58.36-33.69a4.838 4.838 0 0 1 4.82-.01" fill-opacity=".034" fill="#000"/><path d="M68.359 338.436l56.612-32.68c.765-.442 1.721.11 1.721.993v42.659c0 .89-.475 1.713-1.247 2.159l-56.613 32.68a1.146 1.146 0 0 1-1.72-.994v-42.658c0-.89.475-1.714 1.247-2.16" fill="#48486A"/><g transform="matrix(-1 0 0 1 165.615 352.584)"><mask id="X" fill="#fff"><use xlink:href="#V"/></mask><path d="M36.627 1.038L.374 20.158s-.2 2.831.573 3.278L56.493 55.5a4.6 4.6 0 0 0 4.585.01L96.753 35.12c1.474-.915.583-3.283.583-3.283L41.213 1.048a4.6 4.6 0 0 0-4.586-.01" fill="url(#W)" mask="url(#X)"/></g><path d="M128.988 351.427l35.674 20.39c.776.444.78 1.561.005 2.008l-55.545 32.065a4.604 4.604 0 0 1-4.586.01l-35.674-20.391a1.157 1.157 0 0 1-.004-2.008l55.545-32.064a4.604 4.604 0 0 1 4.585-.01" fill="#F9F9F9"/><path d="M132.15 377.83l9.404 5.375a.305.305 0 0 1 0 .53l-14.64 8.45a1.215 1.215 0 0 1-1.208.003l-9.403-5.374a.306.306 0 0 1-.002-.53l14.64-8.451a1.215 1.215 0 0 1 1.21-.003" fill="#E4E9F4"/><path d="M125.054 354.543l-3.074 1.774a.183.183 0 0 0 0 .317l1.527.878c.123.07.274.07.396 0l3.073-1.775a.183.183 0 0 0 0-.317l-1.526-.877a.396.396 0 0 0-.396 0M120.55 357.225L117.477 359a.183.183 0 0 0 0 .317l1.527.877c.123.071.274.071.396 0l3.073-1.774a.183.183 0 0 0 0-.317l-1.527-.878a.394.394 0 0 0-.396 0M116.03 359.765l-3.074 1.775a.183.183 0 0 0 0 .317l1.527.877c.123.071.274.071.396 0l3.074-1.774a.183.183 0 0 0 0-.317l-1.527-.878a.396.396 0 0 0-.396 0M111.373 362.388l-3.073 1.775a.183.183 0 0 0 0 .317l1.527.877c.123.07.274.07.396 0l3.074-1.774a.184.184 0 0 0-.001-.318l-1.527-.877a.394.394 0 0 0-.396 0M106.9 364.88l-3.074 1.775a.184.184 0 0 0 .001.318l1.526.877c.123.07.274.07.396 0l3.074-1.774a.184.184 0 0 0 0-.318l-1.527-.878a.396.396 0 0 0-.396 0M102.55 367.563l-3.073 1.775a.183.183 0 0 0 0 .317l1.527.878c.123.07.274.07.396 0l3.074-1.775a.184.184 0 0 0 0-.318l-1.527-.877a.396.396 0 0 0-.396 0M97.997 370.073l-3.073 1.775a.183.183 0 0 0 0 .317l1.527.878c.123.07.274.07.396 0l3.074-1.775a.183.183 0 0 0-.001-.317l-1.527-.878a.396.396 0 0 0-.396 0M93.512 372.744l-3.074 1.774a.183.183 0 0 0 0 .318l1.528.877c.122.07.274.07.395 0l3.074-1.774a.183.183 0 0 0 0-.318l-1.528-.877a.394.394 0 0 0-.395 0M89.101 375.347l-3.074 1.774a.183.183 0 0 0 0 .317l1.527.878c.123.07.274.07.396 0l3.074-1.775a.184.184 0 0 0 0-.317l-1.528-.877a.394.394 0 0 0-.395 0M84.45 378.025l-3.073 1.775a.184.184 0 0 0 0 .317l1.528.878c.123.07.273.07.395-.001l3.074-1.774a.183.183 0 0 0 0-.317l-1.528-.878a.396.396 0 0 0-.395 0M79.935 380.56l-3.074 1.774a.183.183 0 0 0 0 .317l1.527.877c.123.071.274.07.396 0l3.074-1.774a.184.184 0 0 0-.001-.318l-1.527-.877a.394.394 0 0 0-.395 0M131.306 357.886l-2.082-1.22a.872.872 0 0 0-.876-.002l-2.034 1.174a.433.433 0 0 0-.01.744l2.023 1.242a.869.869 0 0 0 .89.012l2.086-1.2a.433.433 0 0 0 .003-.75M126.644 360.568l-2.083-1.218a.87.87 0 0 0-.876-.004l-2.033 1.175a.433.433 0 0 0-.01.744l2.022 1.241a.869.869 0 0 0 .89.013l2.087-1.201a.433.433 0 0 0 .003-.75M122.117 363.108l-2.083-1.218a.868.868 0 0 0-.876-.003l-2.033 1.174a.433.433 0 0 0-.01.744l2.022 1.241a.87.87 0 0 0 .891.013l2.086-1.201a.433.433 0 0 0 .003-.75M117.3 365.731l-2.081-1.22a.872.872 0 0 0-.876-.002l-2.034 1.175a.433.433 0 0 0-.01.744l2.022 1.241a.873.873 0 0 0 .891.013l2.086-1.201a.433.433 0 0 0 .003-.75M113.058 368.224l-2.082-1.22a.872.872 0 0 0-.876-.002l-2.034 1.174a.433.433 0 0 0-.01.744l2.023 1.242a.871.871 0 0 0 .89.012l2.087-1.2a.433.433 0 0 0 .002-.75M108.747 370.892l-2.082-1.218a.868.868 0 0 0-.876-.003l-2.033 1.174a.433.433 0 0 0-.011.744l2.023 1.241a.871.871 0 0 0 .89.014l2.087-1.202a.433.433 0 0 0 .002-.75M104.141 373.417l-2.082-1.219a.868.868 0 0 0-.876-.003l-2.034 1.174a.433.433 0 0 0-.01.744l2.023 1.242a.869.869 0 0 0 .89.012l2.086-1.201a.433.433 0 0 0 .003-.75M99.633 375.972l-2.082-1.22a.872.872 0 0 0-.876-.002l-2.034 1.175a.433.433 0 0 0-.01.744l2.023 1.241a.873.873 0 0 0 .89.013l2.086-1.202a.432.432 0 0 0 .003-.749M95.2 378.69l-2.08-1.22a.873.873 0 0 0-.878-.002l-2.033 1.174a.433.433 0 0 0-.01.744l2.022 1.242a.873.873 0 0 0 .891.012l2.086-1.2a.433.433 0 0 0 .003-.75M90.371 381.533l-2.081-1.218a.87.87 0 0 0-.877-.003l-2.033 1.174a.432.432 0 0 0-.01.744l2.022 1.241a.873.873 0 0 0 .891.014l2.086-1.202a.433.433 0 0 0 .002-.75M86.005 383.902l-2.082-1.22a.872.872 0 0 0-.876-.002l-2.034 1.175a.433.433 0 0 0-.01.744l2.023 1.241a.873.873 0 0 0 .89.013l2.086-1.201a.433.433 0 0 0 .003-.75M135.946 360.408l-2.082-1.218a.868.868 0 0 0-.876-.003l-2.034 1.174a.433.433 0 0 0-.01.744l2.022 1.241a.869.869 0 0 0 .89.013l2.087-1.201a.433.433 0 0 0 .003-.75M131.283 363.091l-2.082-1.22a.872.872 0 0 0-.876-.002l-2.034 1.175a.433.433 0 0 0-.01.744l2.023 1.241a.871.871 0 0 0 .89.013l2.087-1.201a.433.433 0 0 0 .002-.75M126.757 365.631l-2.083-1.22a.872.872 0 0 0-.875-.002l-2.034 1.174a.433.433 0 0 0-.01.744l2.022 1.242a.871.871 0 0 0 .89.012l2.087-1.2a.434.434 0 0 0 .003-.75M121.94 368.254l-2.081-1.219a.868.868 0 0 0-.876-.003l-2.034 1.174a.433.433 0 0 0-.01.744l2.023 1.242a.869.869 0 0 0 .89.012l2.086-1.2a.434.434 0 0 0 .003-.75M117.698 370.746l-2.082-1.218a.868.868 0 0 0-.876-.003l-2.034 1.174a.433.433 0 0 0-.01.744l2.023 1.241a.871.871 0 0 0 .89.013l2.086-1.201a.433.433 0 0 0 .003-.75M113.387 373.415l-2.082-1.22a.872.872 0 0 0-.876-.002l-2.034 1.175a.433.433 0 0 0-.01.744l2.023 1.241a.871.871 0 0 0 .89.013l2.086-1.201a.433.433 0 0 0 .003-.75M108.78 375.94l-2.082-1.22a.872.872 0 0 0-.875-.003l-2.034 1.175a.433.433 0 0 0-.01.744l2.022 1.241a.873.873 0 0 0 .891.013l2.086-1.201a.433.433 0 0 0 .003-.75M104.273 378.495l-2.083-1.22a.872.872 0 0 0-.875-.002l-2.034 1.174a.433.433 0 0 0-.01.744l2.022 1.242a.873.873 0 0 0 .891.012l2.086-1.2a.433.433 0 0 0 .003-.75M99.84 381.213l-2.082-1.22a.872.872 0 0 0-.876-.002l-2.033 1.174a.433.433 0 0 0-.01.744l2.021 1.242a.873.873 0 0 0 .891.012l2.087-1.202a.433.433 0 0 0 .003-.748M95.012 384.056l-2.083-1.22a.872.872 0 0 0-.876-.002l-2.033 1.175a.433.433 0 0 0-.01.744l2.022 1.241a.873.873 0 0 0 .891.013l2.086-1.201a.433.433 0 0 0 .003-.75M90.645 386.425l-2.082-1.219a.87.87 0 0 0-.877-.002l-2.033 1.173a.432.432 0 0 0-.01.744l2.023 1.242a.869.869 0 0 0 .89.012l2.086-1.2a.434.434 0 0 0 .003-.75M140.585 362.931l-2.082-1.22a.872.872 0 0 0-.876-.002l-2.033 1.175a.433.433 0 0 0-.011.744l2.023 1.241a.873.873 0 0 0 .891.013l2.086-1.201a.433.433 0 0 0 .002-.75M135.923 365.614l-2.082-1.22a.872.872 0 0 0-.876-.002l-2.034 1.174a.433.433 0 0 0-.01.744l2.023 1.242a.871.871 0 0 0 .89.012l2.086-1.2a.433.433 0 0 0 .003-.75M131.396 368.154l-2.082-1.22a.872.872 0 0 0-.876-.003l-2.034 1.175a.433.433 0 0 0-.01.744l2.023 1.242a.873.873 0 0 0 .89.012l2.086-1.201a.433.433 0 0 0 .003-.75M126.58 370.777l-2.082-1.22a.872.872 0 0 0-.876-.002l-2.033 1.174a.433.433 0 0 0-.01.744l2.022 1.242a.871.871 0 0 0 .89.012l2.087-1.2a.433.433 0 0 0 .003-.75M122.338 373.27l-2.083-1.22a.872.872 0 0 0-.876-.003l-2.033 1.175a.433.433 0 0 0-.01.744l2.022 1.241a.873.873 0 0 0 .891.013l2.086-1.201a.433.433 0 0 0 .003-.75M118.027 375.938l-2.083-1.219a.87.87 0 0 0-.875-.003l-2.034 1.174a.433.433 0 0 0-.01.744l2.022 1.242a.873.873 0 0 0 .891.012l2.086-1.2a.433.433 0 0 0 .003-.75M113.42 378.462l-2.082-1.219a.87.87 0 0 0-.876-.003l-2.034 1.174a.433.433 0 0 0-.01.744l2.023 1.242a.87.87 0 0 0 .89.012l2.087-1.2a.433.433 0 0 0 .002-.75M108.913 381.017l-2.083-1.218a.87.87 0 0 0-.875-.004l-2.034 1.175a.433.433 0 0 0-.01.744l2.022 1.241a.869.869 0 0 0 .89.013l2.087-1.201a.434.434 0 0 0 .003-.75M104.48 383.735l-2.082-1.22a.872.872 0 0 0-.876-.002l-2.034 1.175a.433.433 0 0 0-.01.744l2.023 1.241a.871.871 0 0 0 .89.013l2.087-1.201a.433.433 0 0 0 .002-.75M99.651 386.579l-2.082-1.219a.87.87 0 0 0-.876-.003l-2.034 1.174a.433.433 0 0 0-.01.744l2.023 1.242a.871.871 0 0 0 .89.012l2.087-1.2a.433.433 0 0 0 .002-.75M95.284 388.947l-2.081-1.218a.87.87 0 0 0-.877-.003l-2.034 1.174a.433.433 0 0 0-.01.745l2.023 1.24a.873.873 0 0 0 .89.014l2.087-1.202a.433.433 0 0 0 .002-.75M145.225 365.454l-2.082-1.219a.87.87 0 0 0-.876-.003l-2.034 1.174a.433.433 0 0 0-.01.744l2.023 1.242a.871.871 0 0 0 .89.012l2.086-1.2a.433.433 0 0 0 .003-.75M140.563 368.136l-2.083-1.218a.87.87 0 0 0-.876-.004l-2.033 1.175a.433.433 0 0 0-.01.744l2.022 1.241a.869.869 0 0 0 .89.013l2.087-1.201a.433.433 0 0 0 .003-.75M136.036 370.676l-2.082-1.218a.868.868 0 0 0-.876-.003l-2.034 1.173a.433.433 0 0 0-.01.745l2.023 1.241a.871.871 0 0 0 .89.012l2.086-1.2a.434.434 0 0 0 .003-.75M131.22 373.3l-2.082-1.22a.87.87 0 0 0-.876-.003l-2.034 1.175a.433.433 0 0 0-.01.744l2.023 1.241a.871.871 0 0 0 .89.013l2.087-1.201a.433.433 0 0 0 .002-.75M126.58 376.068l-2.082-1.219a.87.87 0 0 0-.876-.003l-10.587 6.114a.433.433 0 0 0-.01.744l2.023 1.242a.869.869 0 0 0 .89.012l10.64-6.14a.433.433 0 0 0 .003-.75M113.552 383.54l-2.082-1.22a.872.872 0 0 0-.876-.002l-2.033 1.175a.433.433 0 0 0-.011.744l2.023 1.241a.871.871 0 0 0 .89.013l2.087-1.202a.432.432 0 0 0 .002-.749M109.12 386.258l-2.082-1.219a.87.87 0 0 0-.876-.003l-2.034 1.174a.433.433 0 0 0-.01.744l2.023 1.242a.869.869 0 0 0 .89.012l2.086-1.2a.433.433 0 0 0 .003-.75M104.29 389.101l-2.082-1.218a.868.868 0 0 0-.875-.003l-2.034 1.174a.434.434 0 0 0-.01.745l2.022 1.24a.873.873 0 0 0 .891.014l2.086-1.202a.433.433 0 0 0 .003-.75M99.924 391.47l-2.082-1.218a.87.87 0 0 0-.876-.004l-2.033 1.175a.433.433 0 0 0-.011.744l2.023 1.241a.869.869 0 0 0 .89.013l2.087-1.201a.434.434 0 0 0 .002-.75" fill="#D3DAED"/><g transform="matrix(-1 0 0 1 124.075 310.166)"><mask id="Z" fill="#fff"><use xlink:href="#Y"/></mask><path fill="#FFF" mask="url(#Z)" d="M.336 39.057l53.273 30.93V30.964L.336.035z"/><path d="M9.52 10.546a.347.347 0 0 0-.52.297v12.721c0 .265.144.511.377.644l7.354 4.297a.346.346 0 0 0 .52-.296V15.487a.742.742 0 0 0-.377-.644L9.52 10.546zM18.52 15.546a.347.347 0 0 0-.52.297v12.721c0 .265.144.511.377.644l7.354 4.297a.346.346 0 0 0 .52-.296V20.487a.742.742 0 0 0-.377-.644l-7.354-4.297zM28.02 21.046a.347.347 0 0 0-.52.297v12.721c0 .265.144.511.377.644l7.354 4.297a.346.346 0 0 0 .52-.296V25.987a.742.742 0 0 0-.377-.644l-7.354-4.297zM37.52 26.546a.347.347 0 0 0-.52.297v12.721c0 .265.144.511.377.644l7.354 4.297a.346.346 0 0 0 .52-.296V31.487a.742.742 0 0 0-.377-.644l-7.354-4.297z" fill="#E9F1FD" mask="url(#Z)"/><path d="M8.52 26.546a.347.347 0 0 0-.52.297v12.721c0 .265.144.511.377.644l17.103 9.746a.346.346 0 0 0 .52-.297V36.936a.742.742 0 0 0-.376-.644L8.52 26.546zM28.02 37.546a.347.347 0 0 0-.52.297v12.721c0 .265.144.511.377.644l17.103 9.746a.346.346 0 0 0 .52-.297V47.936a.742.742 0 0 0-.376-.644L28.02 37.546z" fill="#D3DAED" mask="url(#Z)"/><g mask="url(#Z)"><g transform="translate(9.5 35.5)"><mask id="ab" fill="#fff"><use xlink:href="#aa"/></mask><use fill="#107EFF" xlink:href="#aa"/><path fill="#2ECC71" mask="url(#ab)" d="M-.786-1.672L10.23 2.14v5.638L-.786 2.72z"/><mask id="ad" fill="#fff"><use xlink:href="#ac"/></mask><use fill="#107EFF" xlink:href="#ac"/><path fill="#2ECC71" mask="url(#ad)" d="M-2.786-6.672L4.73-3.667V.778L-2.786-3.21z"/></g><g transform="translate(29 42)"><mask id="af" fill="#fff"><use xlink:href="#ae"/></mask><use fill="#107EFF" xlink:href="#ae"/><path fill="#2ECC71" mask="url(#af)" d="M-.786-1.672L10.23 2.14v5.638L-.786 2.72z"/><mask id="ah" fill="#fff"><use xlink:href="#ag"/></mask><use fill="#107EFF" xlink:href="#ag"/><path fill="#2ECC71" mask="url(#ah)" d="M-2.786 2.828L4.73 5.833v4.445L-2.786 6.29z"/></g></g></g><path d="M315.266 247.008h4.004v-16.337h-14.14v6.195c0 5.602 4.538 10.142 10.136 10.142" fill="#F2B1B5"/><path d="M313.71 249.725h1.672a2.118 2.118 0 0 0 2.118-2.12v-9.712h-5.91v9.711c0 1.172.949 2.121 2.12 2.121" fill="#F2B1B5"/><path d="M303.328 268.797c.486-.197 1.4-.733 1.567-2.024l1.12-8.684a2.783 2.783 0 0 1 3.113-2.403c1.523.196 1.6 1.796 1.401 3.32l-.118 8.479c-.414 3.196-2.582 5.765-5.661 6.706a8.33 8.33 0 0 1-1.422.29v-5.684z" fill="#231F20"/><path d="M296.311 270.268l-8.044-9.158a2.78 2.78 0 1 1 4.174-3.673l8.046 9.158c.999 1.138 2.272.861 2.638.749.366-.111 1.577-.595 1.77-2.097l1.121-8.683a2.782 2.782 0 0 1 3.112-2.405 2.783 2.783 0 0 1 2.402 3.115l-1.12 8.684c-.413 3.196-2.58 5.766-5.66 6.707-.8.245-1.608.363-2.408.363-2.275 0-4.456-.97-6.031-2.76" fill="#48486A"/><path d="M293.768 258.946l-1.327-1.508a2.777 2.777 0 0 0-3.923-.254 2.782 2.782 0 0 0-.252 3.927l1.61 1.833 3.892-3.998z" fill="#F2B1B5"/><path d="M285.657 258.434a3.366 3.366 0 0 0 3.365 3.367 3.366 3.366 0 0 0 3.363-3.367 3.365 3.365 0 1 0-6.728 0" fill="#F2B1B5"/><path d="M285.993 252.466l4.52 4.75a.533.533 0 0 0 .752.02l.305-.291a.533.533 0 0 0 .016-.753l-4.518-4.751a.533.533 0 0 0-.753-.018l-.304.29a.532.532 0 0 0-.018.753" fill="#F2B1B5"/><path d="M304.119 227.81c2.442-2.896 8.155-2.034 11.322-1.02 3.897 1.25 8.784 2.71 9.486 7.426.177 1.193.05 2.409.043 3.617a17.99 17.99 0 0 0 1.872 8.06c1.773 3.564 2.624 5.834.746 9.532-1.11 2.188-1.821 5.596-4.09 6.94-2.336 1.385-7.283 2.246-9.52.55-3.115-2.364-4.686-8.087-4.4-11.762.308-3.969 2.29-7.973 1.087-11.768-.753-2.374-3.945-5.04-5.75-6.708-1.603-1.483-2.415-2.948-.796-4.867" fill="#5C629E"/><path d="M304.119 227.81c1.432-1.698 3.988-2.088 6.498-1.93-1.878.116-3.632.636-4.72 1.93-1.622 1.92-.81 3.384.794 4.867 1.806 1.668 4.997 4.334 5.75 6.708 1.203 3.795-.779 7.8-1.088 11.768-.285 3.675 1.287 9.398 4.403 11.762.712.542 1.713.8 2.805.887-1.761.152-3.494-.061-4.583-.887-3.115-2.364-4.686-8.087-4.4-11.762.308-3.969 2.29-7.973 1.087-11.768-.753-2.374-3.945-5.04-5.75-6.708-1.603-1.483-2.415-2.948-.796-4.867" fill="#FEC55E"/></g><g transform="translate(296.5 390.31)"><mask id="aj" fill="#fff"><use xlink:href="#ai"/></mask><path d="M5.242.282c-.94.126-1.94.258-2.78.73-.347.198-.757.444-.956.794-.306.537-.5 1.211-.437 1.83.147 1.442 1.976 1.94 2.135 3.305.081.686-.374 1.453-.432 2.146-.078.905.066 1.83.444 2.658.71 1.563 2.2 2.893 2.124 4.61-.033.762-.387 1.475-.498 2.232-.39 2.687 2.432 4.734 1.692 7.45-.477 1.748-2.46 3.022-2.276 4.825.075.728.51 1.372.632 2.094.252 1.48-.828 3.08-.175 4.43 2.24 4.645 10.015 3.84 13.612 1.825.898-.503 1.768-1.13 2.296-2.015 1.142-1.917.359-4.389-.7-6.353-.405-.75-.858-1.509-.939-2.357-.173-1.773 1.28-3.283 1.632-5.028.522-2.587-1.27-4.952-1.164-7.52.117-2.85.876-5.22.024-8.103a11.784 11.784 0 0 0-.45-1.267c-1.533-3.679-5.118-5.53-8.896-6.15A18.723 18.723 0 0 0 7.133.161c-.633 0-1.264.038-1.892.12" mask="url(#aj)"/></g><g transform="translate(289 450.35)"><mask id="al" fill="#fff"><use xlink:href="#ak"/></mask><path d="M1.087 6.951c3.376 1.08 7.091 1.627 10.816 1.627 3.752 0 7.504-.558 10.912-1.655a71.407 71.407 0 0 0-1.232-4.92L21.633.98C15.672 3.074 7.937 3.056 2.034.928L1.087 6.95z" mask="url(#al)"/></g><g fill="#FFF"><path d="M71.247 232.963l93.321-53.804c1.169-.68 2.631.163 2.631 1.516v66.387a5.184 5.184 0 0 1-2.577 4.48l-93.32 54.236c-1.17.679-2.632-.165-2.632-1.516v-66.818c0-1.846.981-3.553 2.577-4.48"/></g><g transform="translate(68.5 178.67)"><mask id="an" fill="#fff"><use xlink:href="#am"/></mask><use fill="#E9F1FD" xlink:href="#am"/><path d="M96.069.49L2.746 54.292a5.183 5.183 0 0 0-2.576 4.48v66.82c0 1.216 1.183 2.008 2.272 1.665-.006-.056-.022-.107-.022-.164V60.276c0-1.847.982-3.555 2.577-4.48L98.319 1.99c.115-.067.237-.11.358-.148A1.754 1.754 0 0 0 96.94.25c-.29 0-.588.075-.87.238" mask="url(#an)"/></g><g transform="translate(73 205.687)"><mask id="aq" fill="#fff"><use xlink:href="#ao"/></mask><path d="M.3 51.041v1.96L88.329 2.79l.027-1.972L.3 51.04zm.181 8.56v1.96l88.03-50.212.025-1.97L.481 59.6zm.18 8.56v1.963l88.03-50.213.026-1.97L.662 68.161zm.182 8.564v1.959L88.871 28.47l.026-1.968L.843 76.725zM.3 40.694v2.96l16.918-9.637-.031-2.955L.3 40.694zm.543 44.689v1.974l49.978-28.525.028-1.968L.843 85.383z" fill="url(#ap)" mask="url(#aq)"/></g></g></svg>