<?xml version="1.0" encoding="UTF-8"?>
<svg width="604px" height="667px" viewBox="0 0 604 667" version="1.1" xmlns="http://www.w3.org/2000/svg" xmlns:xlink="http://www.w3.org/1999/xlink">
    <!-- Generator: Sketch 52.2 (67145) - http://www.bohemiancoding.com/sketch -->
    <title>Group 15</title>
    <desc>Created with Sketch.</desc>
    <defs>
        <path d="M30.632,198.062729 L30.632,207.032729 L28.526,205.804864 L28.526,202.047864 L24.925,199.948368 L24.925,203.705368 L22.819,202.477503 L22.819,193.507503 L24.925,194.735368 L24.925,198.206368 L28.526,200.305864 L28.526,196.834864 L30.632,198.062729 Z M35.1343333,200.687732 L35.1343333,209.657732 L33.0283333,208.429867 L33.0283333,199.459867 L35.1343333,200.687732 Z M44.0176666,208.687996 C44.0176666,209.649996 43.6796666,210.141931 43.0816666,210.300278 C42.4836666,210.445626 41.6646666,210.150123 40.7416666,209.611984 L39.6366666,208.967734 L39.6366666,212.282734 L37.5306666,211.05487 L37.5306666,202.08487 L40.7416666,203.956984 C41.6646666,204.495123 42.4836666,205.154626 43.0816666,205.997278 C43.6796666,206.839931 44.0176666,207.725996 44.0176666,208.687996 Z M41.8856666,207.444973 C41.8856666,206.989973 41.7036666,206.571861 41.4566666,206.245852 C41.1966666,205.912264 40.8976666,205.672937 40.4426666,205.407658 L39.6236666,204.930155 L39.6236666,207.335155 L40.4426666,207.812658 C40.8976666,208.077937 41.1966666,208.187264 41.4566666,208.156852 C41.7036666,208.118861 41.8856666,207.899973 41.8856666,207.444973 Z M49.8459999,209.252099 L53.2259999,220.205746 L50.9379999,218.871769 L50.3009999,216.693378 L47.1029999,214.828843 L46.4659999,216.264452 L44.2819999,214.991111 L47.6619999,207.978758 L49.8459999,209.252099 Z M47.5839999,213.471281 L49.8199999,214.77494 L48.7019999,210.899111 L47.5839999,213.471281 Z M59.4443332,214.848231 L62.8243332,225.801878 L60.5363332,224.467901 L59.8993332,222.28951 L56.7013332,220.424975 L56.0643332,221.860584 L53.8803332,220.587243 L57.2603332,213.57489 L59.4443332,214.848231 Z M57.1823332,219.067413 L59.4183332,220.371072 L58.3003332,216.495242 L57.1823332,219.067413 Z" id="path-1"></path>
        <filter x="-8.7%" y="-7.7%" width="117.5%" height="121.7%" filterUnits="objectBoundingBox" id="filter-2">
            <feOffset dx="0" dy="1" in="SourceAlpha" result="shadowOffsetOuter1"></feOffset>
            <feGaussianBlur stdDeviation="1" in="shadowOffsetOuter1" result="shadowBlurOuter1"></feGaussianBlur>
            <feColorMatrix values="0 0 0 0 0   0 0 0 0 0   0 0 0 0 0  0 0 0 0.121744792 0" type="matrix" in="shadowBlurOuter1"></feColorMatrix>
        </filter>
        <path d="M67.1805556,9.4343688 C72.019475,12.2446372 76.0951535,20.5513195 80.6894311,24.4515396 C85.322272,28.3843239 91.8181955,29.0627771 95.9722222,33.8749486 C100.091524,38.6467867 100.665962,46.1468528 104.087633,51.5577929 C107.509305,56.9687329 114.671276,61.7029797 117.049293,67.2058411 C119.447377,72.7550975 116.355152,77.4590132 117.596683,82.8160104 C118.82792,88.1282203 124.763889,95.6536881 124.763889,100.495722 C124.763889,105.337755 118.82792,105.968433 117.596683,109.850529 C116.355152,113.765284 119.447377,122.061072 117.049293,124.824889 C115.998341,126.036139 107.431167,125.697812 105.24726,125.417616 C102.48958,125.063806 105.997116,124.615928 104.087633,125.417616 C100.665962,126.854192 100.091524,133.687033 95.9722222,133.67419 C94.8050729,133.670581 87.4613637,133.79623 85.2872683,133.419585 C81.2246183,132.715764 84.0207165,126.387729 80.6894311,125.34622 C76.0951535,123.910062 72.019475,127.482732 67.1805556,124.672464 C62.3416361,121.862196 58.2659576,113.555513 53.6716801,109.655293 C49.0388391,105.722509 42.5429157,105.044056 38.3888889,100.231884 C34.2695866,95.4600461 33.6951492,87.95998 30.2734778,82.54904 C26.8518063,77.1380999 19.6898356,72.4038532 17.3118184,66.9009918 C14.9137343,61.3517353 18.0059593,56.6478196 16.7644278,51.2908225 C15.5331914,45.9786125 9.59722222,38.4531447 9.59722222,33.6111111 C9.59722222,28.7690775 15.5331914,28.1383996 16.7644278,24.2563043 C18.0059593,20.3415493 14.9137343,12.0457606 17.3118184,9.28194415 C19.6898356,6.5412145 26.8518063,10.1257918 30.2734778,8.68921644 C32.7102743,7.66613693 25.7685367,1.7123473 28.1484934,0.558858795 C29.9784325,0.346989707 37.2032118,0.428946453 38.3888889,0.432643317 C42.5429157,0.445487088 49.0386646,7.31212466 53.6716801,8.7606126 C55.4523089,9.31725038 52.7538987,8.38732827 54.4532823,8.10238551 C57.1387183,7.65210718 64.2170109,7.71324986 67.1805556,9.4343688 Z" id="path-3"></path>
        <filter x="-58.2%" y="-35.3%" width="216.4%" height="200.5%" filterUnits="objectBoundingBox" id="filter-4">
            <feOffset dx="0" dy="20" in="SourceAlpha" result="shadowOffsetOuter1"></feOffset>
            <feGaussianBlur stdDeviation="19" in="shadowOffsetOuter1" result="shadowBlurOuter1"></feGaussianBlur>
            <feColorMatrix values="0 0 0 0 0   0 0 0 0 0   0 0 0 0 0  0 0 0 0.251670063 0" type="matrix" in="shadowBlurOuter1"></feColorMatrix>
        </filter>
        <path d="M57.5833333,9.4343688 C62.4222528,12.2446372 66.4979313,20.5513195 71.0922088,24.4515396 C75.7250497,28.3843239 82.2209732,29.0627771 86.375,33.8749486 C90.4943023,38.6467867 91.0687396,46.1468528 94.4904111,51.5577929 C97.9120826,56.9687329 105.074053,61.7029797 107.45207,67.2058411 C109.850155,72.7550975 106.75793,77.4590132 107.999461,82.8160104 C109.230697,88.1282203 115.166667,95.6536881 115.166667,100.495722 C115.166667,105.337755 109.230697,105.968433 107.999461,109.850529 C106.75793,113.765284 109.850155,122.061072 107.45207,124.824889 C105.074053,127.565618 97.9120826,123.981041 94.4904111,125.417616 C91.0687396,126.854192 90.4943023,133.687033 86.375,133.67419 C82.2209732,133.661346 75.7252242,126.794708 71.0922088,125.34622 C66.4979313,123.910062 62.4222528,127.482732 57.5833333,124.672464 C52.7444139,121.862196 48.6687354,113.555513 44.0744578,109.655293 C39.4416169,105.722509 32.9456934,105.044056 28.7916667,100.231884 C24.6723644,95.4600461 24.097927,87.95998 20.6762556,82.54904 C17.2545841,77.1380999 10.0926134,72.4038532 7.71459621,66.9009918 C5.31651212,61.3517353 8.40873712,56.6478196 7.16720556,51.2908225 C5.93596919,45.9786125 0,38.4531447 0,33.6111111 C0,28.7690775 5.93596919,28.1383996 7.16720556,24.2563043 C8.40873712,20.3415493 5.31651212,12.0457606 7.71459621,9.28194415 C10.0926134,6.5412145 17.2545841,10.1257918 20.6762556,8.68921644 C24.097927,7.25264105 24.6723644,0.419799602 28.7916667,0.432643317 C32.9456934,0.445487088 39.4414424,7.31212466 44.0744578,8.7606126 C48.6689098,10.1968724 52.7444139,6.62410041 57.5833333,9.4343688 Z" id="path-5"></path>
        <polygon id="path-7" points="0.190972222 0.265873016 116 66.9131139 116 70.8964298 0.190972222 4.24070265"></polygon>
        <path d="M31.022,197.057552 L31.022,200.775552 C30.567,200.917991 29.501,201.438534 27.031,200.02406 C24.548,198.602142 22.364,195.713449 22.364,192.723449 C22.364,189.733449 24.548,189.359142 27.057,190.795949 C29.436,192.158311 30.463,193.994435 30.749,194.470216 L29.358,194.882644 C28.981,194.25075 28.279,193.237742 27.057,192.537949 C25.614,191.711599 24.496,192.124363 24.496,193.944363 C24.496,195.764363 25.64,197.472488 27.096,198.306283 C28.552,199.140078 28.968,198.806306 28.968,198.806306 L28.968,197.480306 L27.083,196.400839 L27.083,194.801839 L31.022,197.057552 Z M41.2053333,203.513156 C41.2053333,205.255156 40.5033333,205.893147 39.7493333,206.09836 C39.0083333,206.298018 37.8513333,206.077449 36.2913333,205.184097 L33.2493333,203.44206 L33.2493333,194.47206 L36.2913333,196.214097 C37.8513333,197.107449 39.0083333,198.212018 39.7493333,199.27336 C40.5033333,200.329147 41.2053333,201.771156 41.2053333,203.513156 Z M39.0733333,202.292241 C39.0733333,201.187241 38.6573333,200.312014 38.2803333,199.732121 C37.9033333,199.165227 37.2793333,198.521886 36.4083333,198.023098 L35.3423333,197.412641 L35.3423333,202.859641 L36.4083333,203.470098 C37.2793333,203.968886 37.9033333,204.040227 38.2803333,203.892121 C38.6573333,203.757014 39.0733333,203.397241 39.0733333,202.292241 Z M49.6336666,206.675738 C49.6336666,207.637738 49.2956666,208.133178 48.6976666,208.297727 C48.0996666,208.449275 47.2806666,208.162265 46.3576666,207.633699 L45.2526666,207.000908 L45.2526666,210.315908 L43.1466666,209.109882 L43.1466666,200.139882 L46.3576666,201.978699 C47.2806666,202.507265 48.0996666,203.158275 48.6976666,203.994727 C49.2956666,204.831178 49.6336666,205.713738 49.6336666,206.675738 Z M47.5016666,205.454823 C47.5016666,204.999823 47.3196666,204.583599 47.0726666,204.260152 C46.8126666,203.92926 46.5136666,203.693034 46.0586666,203.432473 L45.2396666,202.963463 L45.2396666,205.368463 L46.0586666,205.837473 C46.5136666,206.098034 46.8126666,206.20426 47.0726666,206.171152 C47.3196666,206.130599 47.5016666,205.909823 47.5016666,205.454823 Z M56.2419999,212.904076 L58.5169999,217.911881 L56.0729999,216.512296 L54.1879999,212.000829 L53.5249999,211.621155 L53.5249999,215.053155 L51.4189999,213.847129 L51.4189999,204.877129 L54.6429999,206.72339 C55.6439999,207.296624 56.4239999,207.9513 57.0089999,208.715307 C57.6069999,209.499759 57.9969999,210.438097 57.9969999,211.335097 C57.9969999,213.038097 56.9049999,213.075751 56.2419999,212.904076 Z M55.8779999,210.199627 C55.8779999,209.744627 55.6959999,209.380403 55.4229999,209.029066 C55.1629999,208.685174 54.8249999,208.452615 54.3439999,208.177164 L53.5119999,207.70071 L53.5119999,210.00171 L54.3439999,210.478164 C54.8249999,210.753615 55.1629999,210.895174 55.4229999,210.849066 C55.6959999,210.810403 55.8779999,210.667627 55.8779999,210.199627 Z" id="path-9"></path>
        <filter x="-9.7%" y="-9.0%" width="119.4%" height="125.1%" filterUnits="objectBoundingBox" id="filter-10">
            <feOffset dx="0" dy="1" in="SourceAlpha" result="shadowOffsetOuter1"></feOffset>
            <feGaussianBlur stdDeviation="1" in="shadowOffsetOuter1" result="shadowBlurOuter1"></feGaussianBlur>
            <feColorMatrix values="0 0 0 0 0   0 0 0 0 0   0 0 0 0 0  0 0 0 0.121744792 0" type="matrix" in="shadowBlurOuter1"></feColorMatrix>
        </filter>
        <path d="M67.1805556,9.4343688 C72.019475,12.2446372 76.0951535,20.5513195 80.6894311,24.4515396 C85.322272,28.3843239 91.8181955,29.0627771 95.9722222,33.8749486 C100.091524,38.6467867 100.665962,46.1468528 104.087633,51.5577929 C107.509305,56.9687329 114.671276,61.7029797 117.049293,67.2058411 C119.447377,72.7550975 116.355152,77.4590132 117.596683,82.8160104 C118.82792,88.1282203 124.763889,95.6536881 124.763889,100.495722 C124.763889,105.337755 118.82792,105.968433 117.596683,109.850529 C116.355152,113.765284 119.447377,122.061072 117.049293,124.824889 C115.998341,126.036139 107.431167,125.697812 105.24726,125.417616 C102.48958,125.063806 105.997116,124.615928 104.087633,125.417616 C100.665962,126.854192 100.091524,133.687033 95.9722222,133.67419 C94.8050729,133.670581 87.4613637,133.79623 85.2872683,133.419585 C81.2246183,132.715764 84.0207165,126.387729 80.6894311,125.34622 C76.0951535,123.910062 72.019475,127.482732 67.1805556,124.672464 C62.3416361,121.862196 58.2659576,113.555513 53.6716801,109.655293 C49.0388391,105.722509 42.5429157,105.044056 38.3888889,100.231884 C34.2695866,95.4600461 33.6951492,87.95998 30.2734778,82.54904 C26.8518063,77.1380999 19.6898356,72.4038532 17.3118184,66.9009918 C14.9137343,61.3517353 18.0059593,56.6478196 16.7644278,51.2908225 C15.5331914,45.9786125 9.59722222,38.4531447 9.59722222,33.6111111 C9.59722222,28.7690775 15.5331914,28.1383996 16.7644278,24.2563043 C18.0059593,20.3415493 14.9137343,12.0457606 17.3118184,9.28194415 C19.6898356,6.5412145 26.8518063,10.1257918 30.2734778,8.68921644 C32.7102743,7.66613693 25.7685367,1.7123473 28.1484934,0.558858795 C29.9784325,0.346989707 37.2032118,0.428946453 38.3888889,0.432643317 C42.5429157,0.445487088 49.0386646,7.31212466 53.6716801,8.7606126 C55.4523089,9.31725038 52.7538987,8.38732827 54.4532823,8.10238551 C57.1387183,7.65210718 64.2170109,7.71324986 67.1805556,9.4343688 Z" id="path-11"></path>
        <filter x="-58.2%" y="-35.3%" width="216.4%" height="200.5%" filterUnits="objectBoundingBox" id="filter-12">
            <feOffset dx="0" dy="20" in="SourceAlpha" result="shadowOffsetOuter1"></feOffset>
            <feGaussianBlur stdDeviation="19" in="shadowOffsetOuter1" result="shadowBlurOuter1"></feGaussianBlur>
            <feColorMatrix values="0 0 0 0 0   0 0 0 0 0   0 0 0 0 0  0 0 0 0.251670063 0" type="matrix" in="shadowBlurOuter1"></feColorMatrix>
        </filter>
        <path d="M57.5833333,9.4343688 C62.4222528,12.2446372 66.4979313,20.5513195 71.0922088,24.4515396 C75.7250497,28.3843239 82.2209732,29.0627771 86.375,33.8749486 C90.4943023,38.6467867 91.0687396,46.1468528 94.4904111,51.5577929 C97.9120826,56.9687329 105.074053,61.7029797 107.45207,67.2058411 C109.850155,72.7550975 106.75793,77.4590132 107.999461,82.8160104 C109.230697,88.1282203 115.166667,95.6536881 115.166667,100.495722 C115.166667,105.337755 109.230697,105.968433 107.999461,109.850529 C106.75793,113.765284 109.850155,122.061072 107.45207,124.824889 C105.074053,127.565618 97.9120826,123.981041 94.4904111,125.417616 C91.0687396,126.854192 90.4943023,133.687033 86.375,133.67419 C82.2209732,133.661346 75.7252242,126.794708 71.0922088,125.34622 C66.4979313,123.910062 62.4222528,127.482732 57.5833333,124.672464 C52.7444139,121.862196 48.6687354,113.555513 44.0744578,109.655293 C39.4416169,105.722509 32.9456934,105.044056 28.7916667,100.231884 C24.6723644,95.4600461 24.097927,87.95998 20.6762556,82.54904 C17.2545841,77.1380999 10.0926134,72.4038532 7.71459621,66.9009918 C5.31651212,61.3517353 8.40873712,56.6478196 7.16720556,51.2908225 C5.93596919,45.9786125 0,38.4531447 0,33.6111111 C0,28.7690775 5.93596919,28.1383996 7.16720556,24.2563043 C8.40873712,20.3415493 5.31651212,12.0457606 7.71459621,9.28194415 C10.0926134,6.5412145 17.2545841,10.1257918 20.6762556,8.68921644 C24.097927,7.25264105 24.6723644,0.419799602 28.7916667,0.432643317 C32.9456934,0.445487088 39.4414424,7.31212466 44.0744578,8.7606126 C48.6689098,10.1968724 52.7444139,6.62410041 57.5833333,9.4343688 Z" id="path-13"></path>
        <polygon id="path-15" points="0.190972222 0.265873016 116 66.9131139 116 70.8964298 0.190972222 4.24070265"></polygon>
        <polygon id="path-17" points="3.18463493e-12 1.11581546e-17 115.809028 66.6472409 115.809028 70.6305568 3.18463493e-12 3.97482963"></polygon>
        <path d="M22.106,195.166458 L22.106,204.136458 L20,202.97 L20,194 L22.106,195.166458 Z M30.5603333,206.089089 C30.5603333,206.947089 30.1573333,207.503878 29.5073333,207.65086 C28.8703333,207.805042 28.0383333,207.57822 27.0763333,207.045393 C25.7763333,206.325358 24.6193333,205.008526 23.8913333,203.929306 L24.9313333,202.971335 C25.5813333,204.007352 26.5823333,205.01678 27.2713333,205.398399 C27.9473333,205.772817 28.4673333,205.735831 28.4673333,205.137831 C28.4673333,204.526831 27.8043333,203.925613 27.4143333,203.566603 C27.0243333,203.207592 26.3483333,202.599173 26.0493333,202.303565 C25.8283333,202.077159 25.3733333,201.656147 24.9833333,201.063136 C24.5933333,200.483125 24.2813333,199.790317 24.2813333,198.945317 C24.2813333,198.087317 24.6973333,197.641728 25.2173333,197.500743 C25.7243333,197.352556 26.5433333,197.520179 27.5833333,198.096207 C28.6233333,198.672236 29.8193333,199.828668 30.4303333,200.778085 L29.5333333,201.75026 C29.0133333,200.942246 28.2073333,200.105824 27.5313333,199.731406 C26.8553333,199.356987 26.3613333,199.343374 26.3613333,199.889374 C26.3613333,200.435374 26.8683333,200.924188 27.2713333,201.303399 C27.6613333,201.675409 28.3243333,202.276627 28.6103333,202.552035 C28.8573333,202.779842 29.4553333,203.345058 29.8583333,203.971269 C30.2353333,204.55708 30.5603333,205.283089 30.5603333,206.089089 Z M41.4976666,210.404987 C41.4976666,213.303987 39.4046666,213.87373 36.7396666,212.397657 C34.0746666,210.921585 31.9816666,208.033327 31.9816666,205.134327 C31.9816666,202.235327 34.0746666,201.652585 36.7396666,203.128657 C39.4046666,204.60473 41.4976666,207.505987 41.4976666,210.404987 Z M39.3656666,209.172129 C39.3656666,207.469129 38.2346666,205.750698 36.7396666,204.922657 C35.2446666,204.094616 34.1136666,204.547186 34.1136666,206.263186 C34.1136666,207.979186 35.2446666,209.697616 36.7396666,210.525657 C38.2346666,211.353698 39.3656666,210.888129 39.3656666,209.172129 Z M53.5313332,219.917116 L53.5313332,221.542116 L46.9533332,217.898736 L46.7063332,216.43593 L49.7483332,215.377813 C50.5933332,215.078836 51.1003332,214.77465 51.1003332,214.00765 C51.1003332,213.24065 50.5413332,212.437034 49.6573332,211.94741 C48.7603332,211.450586 47.9803332,211.603564 47.4863332,211.953951 L46.6023332,210.086327 C46.7193332,209.87813 47.8243332,209.28116 49.8523332,210.404416 C51.8803332,211.527671 53.1153332,213.290705 53.1153332,214.863705 C53.1153332,216.436705 51.9453332,216.724673 51.2303332,216.965653 L49.3713332,217.613002 L53.5313332,219.917116 Z M61.6866665,217.089139 L62.2586665,218.653955 L58.2676665,224.165446 L56.0576665,222.941385 L59.9966665,217.765093 L55.2906665,215.158564 L55.2906665,213.546564 L61.6866665,217.089139 Z M70.9339998,226.708992 C70.9339998,229.074992 69.8289998,230.724961 67.2159998,229.27769 C64.5899998,227.823218 63.4979998,224.956388 63.4979998,222.590388 C63.4979998,220.224388 64.6029998,218.574419 67.2159998,220.02169 C69.8289998,221.468961 70.9339998,224.342992 70.9339998,226.708992 Z M68.8669998,225.525135 C68.8669998,223.913135 68.3729998,222.417522 67.2159998,221.77669 C66.0589998,221.135858 65.5649998,222.084245 65.5649998,223.696245 C65.5649998,225.308245 66.0589998,226.829858 67.2159998,227.47069 C68.3729998,228.111522 68.8669998,227.137135 68.8669998,225.525135 Z M79.8303331,231.636435 C79.8303331,234.002435 78.7253331,235.652404 76.1123331,234.205133 C73.4863331,232.750661 72.3943331,229.883831 72.3943331,227.517831 C72.3943331,225.151831 73.4993331,223.501862 76.1123331,224.949133 C78.7253331,226.396404 79.8303331,229.270435 79.8303331,231.636435 Z M77.7633331,230.452578 C77.7633331,228.840578 77.2693331,227.344965 76.1123331,226.704133 C74.9553331,226.063301 74.4613331,227.011688 74.4613331,228.623688 C74.4613331,230.235688 74.9553331,231.757301 76.1123331,232.398133 C77.2693331,233.038965 77.7633331,232.064578 77.7633331,230.452578 Z M85.4376664,230.244188 L85.4376664,239.214188 L83.4096664,238.090932 L83.4096664,230.563932 L81.7846664,229.663888 L81.7846664,228.220888 L85.4376664,230.244188 Z" id="path-19"></path>
        <filter x="-5.3%" y="-5.5%" width="110.7%" height="115.5%" filterUnits="objectBoundingBox" id="filter-20">
            <feOffset dx="0" dy="1" in="SourceAlpha" result="shadowOffsetOuter1"></feOffset>
            <feGaussianBlur stdDeviation="1" in="shadowOffsetOuter1" result="shadowBlurOuter1"></feGaussianBlur>
            <feColorMatrix values="0 0 0 0 0   0 0 0 0 0   0 0 0 0 0  0 0 0 0.121744792 0" type="matrix" in="shadowBlurOuter1"></feColorMatrix>
        </filter>
        <path d="M67.1805556,9.4343688 C72.019475,12.2446372 76.0951535,20.5513195 80.6894311,24.4515396 C85.322272,28.3843239 91.8181955,29.0627771 95.9722222,33.8749486 C100.091524,38.6467867 100.665962,46.1468528 104.087633,51.5577929 C107.509305,56.9687329 114.671276,61.7029797 117.049293,67.2058411 C119.447377,72.7550975 116.355152,77.4590132 117.596683,82.8160104 C118.82792,88.1282203 124.763889,95.6536881 124.763889,100.495722 C124.763889,105.337755 118.82792,105.968433 117.596683,109.850529 C116.355152,113.765284 119.447377,122.061072 117.049293,124.824889 C115.998341,126.036139 107.431167,125.697812 105.24726,125.417616 C102.48958,125.063806 105.997116,124.615928 104.087633,125.417616 C100.665962,126.854192 100.091524,133.687033 95.9722222,133.67419 C94.8050729,133.670581 87.4613637,133.79623 85.2872683,133.419585 C81.2246183,132.715764 84.0207165,126.387729 80.6894311,125.34622 C76.0951535,123.910062 72.019475,127.482732 67.1805556,124.672464 C62.3416361,121.862196 58.2659576,113.555513 53.6716801,109.655293 C49.0388391,105.722509 42.5429157,105.044056 38.3888889,100.231884 C34.2695866,95.4600461 33.6951492,87.95998 30.2734778,82.54904 C26.8518063,77.1380999 19.6898356,72.4038532 17.3118184,66.9009918 C14.9137343,61.3517353 18.0059593,56.6478196 16.7644278,51.2908225 C15.5331914,45.9786125 9.59722222,38.4531447 9.59722222,33.6111111 C9.59722222,28.7690775 15.5331914,28.1383996 16.7644278,24.2563043 C18.0059593,20.3415493 14.9137343,12.0457606 17.3118184,9.28194415 C19.6898356,6.5412145 26.8518063,10.1257918 30.2734778,8.68921644 C32.7102743,7.66613693 25.7685367,1.7123473 28.1484934,0.558858795 C29.9784325,0.346989707 37.2032118,0.428946453 38.3888889,0.432643317 C42.5429157,0.445487088 49.0386646,7.31212466 53.6716801,8.7606126 C55.4523089,9.31725038 52.7538987,8.38732827 54.4532823,8.10238551 C57.1387183,7.65210718 64.2170109,7.71324986 67.1805556,9.4343688 Z" id="path-21"></path>
        <filter x="-58.2%" y="-35.3%" width="216.4%" height="200.5%" filterUnits="objectBoundingBox" id="filter-22">
            <feOffset dx="0" dy="20" in="SourceAlpha" result="shadowOffsetOuter1"></feOffset>
            <feGaussianBlur stdDeviation="19" in="shadowOffsetOuter1" result="shadowBlurOuter1"></feGaussianBlur>
            <feColorMatrix values="0 0 0 0 0   0 0 0 0 0   0 0 0 0 0  0 0 0 0.251670063 0" type="matrix" in="shadowBlurOuter1"></feColorMatrix>
        </filter>
        <path d="M57.5833333,9.4343688 C62.4222528,12.2446372 66.4979313,20.5513195 71.0922088,24.4515396 C75.7250497,28.3843239 82.2209732,29.0627771 86.375,33.8749486 C90.4943023,38.6467867 91.0687396,46.1468528 94.4904111,51.5577929 C97.9120826,56.9687329 105.074053,61.7029797 107.45207,67.2058411 C109.850155,72.7550975 106.75793,77.4590132 107.999461,82.8160104 C109.230697,88.1282203 115.166667,95.6536881 115.166667,100.495722 C115.166667,105.337755 109.230697,105.968433 107.999461,109.850529 C106.75793,113.765284 109.850155,122.061072 107.45207,124.824889 C105.074053,127.565618 97.9120826,123.981041 94.4904111,125.417616 C91.0687396,126.854192 90.4943023,133.687033 86.375,133.67419 C82.2209732,133.661346 75.7252242,126.794708 71.0922088,125.34622 C66.4979313,123.910062 62.4222528,127.482732 57.5833333,124.672464 C52.7444139,121.862196 48.6687354,113.555513 44.0744578,109.655293 C39.4416169,105.722509 32.9456934,105.044056 28.7916667,100.231884 C24.6723644,95.4600461 24.097927,87.95998 20.6762556,82.54904 C17.2545841,77.1380999 10.0926134,72.4038532 7.71459621,66.9009918 C5.31651212,61.3517353 8.40873712,56.6478196 7.16720556,51.2908225 C5.93596919,45.9786125 0,38.4531447 0,33.6111111 C0,28.7690775 5.93596919,28.1383996 7.16720556,24.2563043 C8.40873712,20.3415493 5.31651212,12.0457606 7.71459621,9.28194415 C10.0926134,6.5412145 17.2545841,10.1257918 20.6762556,8.68921644 C24.097927,7.25264105 24.6723644,0.419799602 28.7916667,0.432643317 C32.9456934,0.445487088 39.4414424,7.31212466 44.0744578,8.7606126 C48.6689098,10.1968724 52.7444139,6.62410041 57.5833333,9.4343688 Z" id="path-23"></path>
        <path d="M26.877,199.180526 C26.877,200.038526 26.474,200.589365 25.824,200.72675 C25.187,200.871527 24.355,200.63242 23.393,200.08539 C22.093,199.34616 20.936,198.012246 20.208,196.922277 L21.248,195.979661 C21.898,197.025276 22.899,198.049483 23.588,198.441275 C24.264,198.825674 24.784,198.796366 24.784,198.198366 C24.784,197.587366 24.121,196.976359 23.731,196.61159 C23.341,196.246821 22.665,195.628421 22.366,195.328398 C22.145,195.098729 21.69,194.670999 21.3,194.07223 C20.91,193.486461 20.598,192.789046 20.598,191.944046 C20.598,191.086046 21.014,190.646599 21.534,190.513291 C22.041,190.372591 22.86,190.552306 23.9,191.14369 C24.94,191.735074 26.136,192.909165 26.747,193.867603 L25.85,194.826535 C25.33,194.010843 24.524,193.16252 23.848,192.778121 C23.172,192.393721 22.678,192.372814 22.678,192.918814 C22.678,193.464814 23.185,193.961113 23.588,194.346275 C23.978,194.724044 24.641,195.335051 24.927,195.614681 C25.174,195.846135 25.772,196.420181 26.175,197.052342 C26.552,197.643719 26.877,198.374526 26.877,199.180526 Z M37.8143333,203.657914 C37.8143333,206.556914 35.7213333,207.095754 33.0563333,205.580332 C30.3913333,204.064911 28.2983333,201.145751 28.2983333,198.246751 C28.2983333,195.347751 30.3913333,194.795911 33.0563333,196.311332 C35.7213333,197.826754 37.8143333,200.758914 37.8143333,203.657914 Z M35.6823333,202.393577 C35.6823333,200.690577 34.5513333,198.955447 33.0563333,198.105332 C31.5613333,197.255218 30.4303333,197.691088 30.4303333,199.407088 C30.4303333,201.123088 31.5613333,202.858218 33.0563333,203.708332 C34.5513333,204.558447 35.6823333,204.109577 35.6823333,202.393577 Z M46.5416666,210.388611 L47.2436666,212.425795 C46.7886666,212.635064 45.8396666,212.849426 44.0066666,211.807112 C41.3676666,210.306476 39.3006666,207.3891 39.3006666,204.5031 C39.3006666,201.6041 41.3936666,201.06526 44.0066666,202.551112 C45.8526666,203.600819 46.8536666,204.937026 47.0876666,205.317087 L46.4376666,206.689472 C46.2686666,206.372372 45.3066666,205.110342 44.1236666,204.437643 C42.6026666,203.572744 41.4326666,203.921437 41.4326666,205.676437 C41.4326666,207.431437 42.6546666,209.127313 44.1236666,209.962643 C45.2416666,210.598381 46.0476666,210.614703 46.5416666,210.388611 Z M55.7369999,216.69643 L55.7369999,218.32143 L49.1589999,214.580927 L48.9119999,213.114473 L51.9539999,212.101271 C52.7989999,211.814771 53.3059999,211.51807 53.3059999,210.75107 C53.3059999,209.98407 52.7469999,209.172201 51.8629999,208.669525 C50.9659999,208.159456 50.1859999,208.300918 49.6919999,208.644011 L48.8079999,206.763335 C48.9249999,206.556865 50.0299999,205.976211 52.0579999,207.12941 C54.0859999,208.282608 55.3209999,210.063877 55.3209999,211.636877 C55.3209999,213.209877 54.1509999,213.48057 53.4359999,213.710993 L51.5769999,214.330894 L55.7369999,216.69643 Z M67.1466665,215.839405 L67.1466665,217.503405 L64.8326665,216.187575 L64.8326665,223.493575 L62.7266665,222.296023 L62.7266665,214.990023 L60.4126665,213.674194 L60.4126665,212.010194 L67.1466665,215.839405 Z M73.8199998,219.634118 L76.1599998,220.964732 L73.0399998,224.53358 L73.0399998,228.16058 L70.9339998,226.963028 L70.9339998,223.336028 L67.8139998,216.218876 L70.1539998,217.54949 L71.9869998,222.166804 L73.8199998,219.634118 Z M84.0813331,228.290106 C84.0813331,229.252106 83.7433331,229.748906 83.1453331,229.915861 C82.5473331,230.069815 81.7283331,229.7861 80.8053331,229.261247 L79.7003331,228.632901 L79.7003331,231.947901 L77.5943331,230.750349 L77.5943331,221.780349 L80.8053331,223.606247 C81.7283331,224.1311 82.5473331,224.778815 83.1453331,225.612861 C83.7433331,226.446906 84.0813331,227.328106 84.0813331,228.290106 Z M81.9493331,227.077769 C81.9493331,226.622769 81.7673331,226.207277 81.5203331,225.884823 C81.2603331,225.554977 80.9613331,225.319954 80.5063331,225.061224 L79.6873331,224.595509 L79.6873331,227.000509 L80.5063331,227.466224 C80.9613331,227.724954 81.2603331,227.829977 81.5203331,227.795823 C81.7673331,227.754277 81.9493331,227.532769 81.9493331,227.077769 Z M91.7946664,237.122204 L91.7946664,238.825204 L85.8666664,235.454315 L85.8666664,226.484315 L91.6776664,229.788673 L91.6776664,231.465673 L87.9596664,229.351475 L87.9596664,231.184475 L91.4696664,233.180396 L91.4696664,234.857396 L87.9596664,232.861475 L87.9596664,234.941475 L91.7946664,237.122204 Z M99.278333,234.110704 L99.278333,243.080704 L97.172333,241.883151 L97.172333,232.913151 L99.278333,234.110704 Z M103.780666,236.670903 L103.780666,245.640903 L101.674666,244.443351 L101.674666,235.473351 L103.780666,236.670903 Z" id="path-25"></path>
        <filter x="-4.2%" y="-4.5%" width="108.4%" height="112.7%" filterUnits="objectBoundingBox" id="filter-26">
            <feOffset dx="0" dy="1" in="SourceAlpha" result="shadowOffsetOuter1"></feOffset>
            <feGaussianBlur stdDeviation="1" in="shadowOffsetOuter1" result="shadowBlurOuter1"></feGaussianBlur>
            <feColorMatrix values="0 0 0 0 0   0 0 0 0 0   0 0 0 0 0  0 0 0 0.121744792 0" type="matrix" in="shadowBlurOuter1"></feColorMatrix>
        </filter>
        <path d="M67.1805556,9.4343688 C72.019475,12.2446372 76.0951535,20.5513195 80.6894311,24.4515396 C85.322272,28.3843239 91.8181955,29.0627771 95.9722222,33.8749486 C100.091524,38.6467867 100.665962,46.1468528 104.087633,51.5577929 C107.509305,56.9687329 114.671276,61.7029797 117.049293,67.2058411 C119.447377,72.7550975 116.355152,77.4590132 117.596683,82.8160104 C118.82792,88.1282203 124.763889,95.6536881 124.763889,100.495722 C124.763889,105.337755 118.82792,105.968433 117.596683,109.850529 C116.355152,113.765284 119.447377,122.061072 117.049293,124.824889 C115.998341,126.036139 107.431167,125.697812 105.24726,125.417616 C102.48958,125.063806 105.997116,124.615928 104.087633,125.417616 C100.665962,126.854192 100.091524,133.687033 95.9722222,133.67419 C94.8050729,133.670581 87.4613637,133.79623 85.2872683,133.419585 C81.2246183,132.715764 84.0207165,126.387729 80.6894311,125.34622 C76.0951535,123.910062 72.019475,127.482732 67.1805556,124.672464 C62.3416361,121.862196 58.2659576,113.555513 53.6716801,109.655293 C49.0388391,105.722509 42.5429157,105.044056 38.3888889,100.231884 C34.2695866,95.4600461 33.6951492,87.95998 30.2734778,82.54904 C26.8518063,77.1380999 19.6898356,72.4038532 17.3118184,66.9009918 C14.9137343,61.3517353 18.0059593,56.6478196 16.7644278,51.2908225 C15.5331914,45.9786125 9.59722222,38.4531447 9.59722222,33.6111111 C9.59722222,28.7690775 15.5331914,28.1383996 16.7644278,24.2563043 C18.0059593,20.3415493 14.9137343,12.0457606 17.3118184,9.28194415 C19.6898356,6.5412145 26.8518063,10.1257918 30.2734778,8.68921644 C32.7102743,7.66613693 25.7685367,1.7123473 28.1484934,0.558858795 C29.9784325,0.346989707 37.2032118,0.428946453 38.3888889,0.432643317 C42.5429157,0.445487088 49.0386646,7.31212466 53.6716801,8.7606126 C55.4523089,9.31725038 52.7538987,8.38732827 54.4532823,8.10238551 C57.1387183,7.65210718 64.2170109,7.71324986 67.1805556,9.4343688 Z" id="path-27"></path>
        <filter x="-58.2%" y="-35.3%" width="216.4%" height="200.5%" filterUnits="objectBoundingBox" id="filter-28">
            <feOffset dx="0" dy="20" in="SourceAlpha" result="shadowOffsetOuter1"></feOffset>
            <feGaussianBlur stdDeviation="19" in="shadowOffsetOuter1" result="shadowBlurOuter1"></feGaussianBlur>
            <feColorMatrix values="0 0 0 0 0   0 0 0 0 0   0 0 0 0 0  0 0 0 0.251670063 0" type="matrix" in="shadowBlurOuter1"></feColorMatrix>
        </filter>
        <path d="M57.5833333,9.4343688 C62.4222528,12.2446372 66.4979313,20.5513195 71.0922088,24.4515396 C75.7250497,28.3843239 82.2209732,29.0627771 86.375,33.8749486 C90.4943023,38.6467867 91.0687396,46.1468528 94.4904111,51.5577929 C97.9120826,56.9687329 105.074053,61.7029797 107.45207,67.2058411 C109.850155,72.7550975 106.75793,77.4590132 107.999461,82.8160104 C109.230697,88.1282203 115.166667,95.6536881 115.166667,100.495722 C115.166667,105.337755 109.230697,105.968433 107.999461,109.850529 C106.75793,113.765284 109.850155,122.061072 107.45207,124.824889 C105.074053,127.565618 97.9120826,123.981041 94.4904111,125.417616 C91.0687396,126.854192 90.4943023,133.687033 86.375,133.67419 C82.2209732,133.661346 75.7252242,126.794708 71.0922088,125.34622 C66.4979313,123.910062 62.4222528,127.482732 57.5833333,124.672464 C52.7444139,121.862196 48.6687354,113.555513 44.0744578,109.655293 C39.4416169,105.722509 32.9456934,105.044056 28.7916667,100.231884 C24.6723644,95.4600461 24.097927,87.95998 20.6762556,82.54904 C17.2545841,77.1380999 10.0926134,72.4038532 7.71459621,66.9009918 C5.31651212,61.3517353 8.40873712,56.6478196 7.16720556,51.2908225 C5.93596919,45.9786125 0,38.4531447 0,33.6111111 C0,28.7690775 5.93596919,28.1383996 7.16720556,24.2563043 C8.40873712,20.3415493 5.31651212,12.0457606 7.71459621,9.28194415 C10.0926134,6.5412145 17.2545841,10.1257918 20.6762556,8.68921644 C24.097927,7.25264105 24.6723644,0.419799602 28.7916667,0.432643317 C32.9456934,0.445487088 39.4414424,7.31212466 44.0744578,8.7606126 C48.6689098,10.1968724 52.7444139,6.62410041 57.5833333,9.4343688 Z" id="path-29"></path>
        <polygon id="path-31" points="3.18463493e-12 1.11581546e-17 115.809028 66.6472409 115.809028 70.6305568 3.18463493e-12 3.97482963"></polygon>
    </defs>
    <g id="Page-1" stroke="none" stroke-width="1" fill="none" fill-rule="evenodd">
        <g id="Gridiron" transform="translate(-746.000000, -4054.000000)">
            <g id="How" transform="translate(173.000000, 2525.000000)">
                <g id="Audit" transform="translate(87.000000, 1529.000000)">
                    <g id="Group-3">
                        <g id="Group-15" transform="translate(486.000000, 0.000000)">
                            <polygon id="Fill-593" fill="#F6F8FB" points="0.75 615.322184 1.13686838e-13 614.023821 168.51 516.496476 169.26 517.794839"></polygon>
                            <polygon id="Fill-594" fill="#F6F8FB" points="80.9502 553.011705 80.2002 551.713341 211.0242 476 211.7742 477.298363"></polygon>
                            <polygon id="Fill-593" fill="#F6F8FB" points="392.75 535.322184 392 534.023821 560.51 436.496476 561.26 437.794839"></polygon>
                            <polygon id="Fill-594" fill="#F6F8FB" points="472.9502 473.011705 472.2002 471.713341 603.0242 396 603.7742 397.298363"></polygon>
                            <polygon id="Fill-594" fill="#F6F8FB" points="352.9502 161.011705 352.2002 159.713341 483.0242 84 483.7742 85.2983633"></polygon>
                            <polygon id="Fill-594" fill="#F6F8FB" points="280.9502 217.011705 280.2002 215.713341 411.0242 140 411.7742 141.298363"></polygon>
                            <polygon id="Fill-594" fill="#F6F8FB" points="128.9502 153.011705 128.2002 151.713341 259.0242 76 259.7742 77.2983633"></polygon>
                            <path d="M395,351.739053 C395,360.961101 401.44476,364.659855 409.32468,359.958508 L520.987879,296.363499 C528.867798,291.662152 535.397771,280.272336 535.491954,271.050288 L536.99887,110.295518 C537.097538,101.073471 530.72005,97.3431029 522.822191,102.017353 L409.360559,165.797525 C401.4627,170.467259 395,181.834494 395,191.056542 L395,351.739053 Z" id="Fill-367" fill="#EBF4FF" opacity="0.250372024" transform="translate(466.000000, 231.000000) scale(-1, 1) translate(-466.000000, -231.000000) "></path>
                            <path d="M395,601.739053 C395,610.961101 401.44476,614.659855 409.32468,609.958508 L520.987879,546.363499 C528.867798,541.662152 535.397771,530.272336 535.491954,521.050288 L536.99887,360.295518 C537.097538,351.073471 530.72005,347.343103 522.822191,352.017353 L409.360559,415.797525 C401.4627,420.467259 395,431.834494 395,441.056542 L395,601.739053 Z" id="Fill-367" fill="#EBF4FF" opacity="0.250372024" transform="translate(466.000000, 481.000000) scale(-1, 1) translate(-466.000000, -481.000000) "></path>
                            <path d="M213,251.739053 C213,260.961101 219.44476,264.659855 227.32468,259.958508 L338.987879,196.363499 C346.867798,191.662152 353.397771,180.272336 353.491954,171.050288 L354.99887,10.2955184 C355.097538,1.07347082 348.72005,-2.65689711 340.822191,2.01735326 L227.360559,65.7975252 C219.4627,70.4672594 213,81.8344944 213,91.056542 L213,251.739053 Z" id="Fill-367" fill="#EBF4FF" opacity="0.250372024" transform="translate(284.000000, 131.000000) scale(-1, 1) translate(-284.000000, -131.000000) "></path>
                            <path d="M213,501.739053 C213,510.961101 219.44476,514.659855 227.32468,509.958508 L338.987879,446.363499 C346.867798,441.662152 353.397771,430.272336 353.491954,421.050288 L354.99887,260.295518 C355.097538,251.073471 348.72005,247.343103 340.822191,252.017353 L227.360559,315.797525 C219.4627,320.467259 213,331.834494 213,341.056542 L213,501.739053 Z" id="Fill-367" fill="#EBF4FF" opacity="0.250372024" transform="translate(284.000000, 381.000000) scale(-1, 1) translate(-284.000000, -381.000000) "></path>
                            <g id="Group-14" transform="translate(156.000000, 16.000000)">
                                <g id="HIPAA" transform="translate(178.000000, 100.000000)">
                                    <path d="M37,251.739053 C37,260.961101 43.4447604,264.659855 51.3246798,259.958508 L162.987879,196.363499 C170.867798,191.662152 177.397771,180.272336 177.491954,171.050288 L178.99887,10.2955184 C179.097538,1.07347082 172.72005,-2.65689711 164.822191,2.01735326 L51.3605587,65.7975252 C43.4626999,70.4672594 37,81.8344944 37,91.056542 L37,251.739053 Z" id="Fill-367" fill="#ACD2FF" opacity="0.250372024" transform="translate(108.000000, 131.000000) scale(-1, 1) translate(-108.000000, -131.000000) "></path>
                                    <path d="M0.762835592,293.07893 C0.762835592,303.302841 7.94453007,307.40342 16.7254885,302.191328 L141.156953,231.6875 C149.937912,226.475409 157.214562,213.848229 157.319514,203.624318 L158.998741,25.4055082 C159.108691,15.1815979 152.001962,11.0459711 143.201012,16.2280216 L16.7654701,86.9371294 C7.96452087,92.1141731 0.762835592,104.716319 0.762835592,114.940229 L0.762835592,293.07893 Z" id="Fill-367" fill="#107EFF" transform="translate(79.881418, 159.223056) scale(-1, 1) translate(-79.881418, -159.223056) "></path>
                                    <path d="M8.55259361,118.709716 C8.55259361,108.481942 15.7468682,95.8800433 24.538761,90.7010434 L150.552594,19.6531077 C153.662957,17.819922 156.55864,17.1737992 159,17.5344259 C156.368922,13.2319492 151.09179,12.3403999 144.990885,15.9316406 L18.9770526,86.9795764 C10.1851597,92.1585762 2.99088515,104.765484 2.99088515,114.993257 L2.99088515,293.07893 C2.99088515,299.645341 5.95646399,303.672339 10.3998397,304.343506 C9.2265888,302.455224 8.55259361,299.915811 8.55259361,296.800398 L8.55259361,118.709716 Z" id="Fill-369" fill="#00499F" transform="translate(80.995443, 159.021511) scale(-1, 1) translate(-80.995443, -159.021511) "></path>
                                    <path d="M119.396,253.426902 C119.396,255.025902 118.954,255.992986 118.343,256.389632 C117.771,256.757917 116.952,256.729484 115.808,256.036055 C114.248,255.090469 113.442,253.873916 113.208,253.537078 L113.741,253.028153 C114.105,253.58679 114.859,254.446823 115.782,255.006295 C116.549,255.471208 117.03,255.489764 117.433,255.18804 C117.875,254.870956 118.187,254.111073 118.187,252.746073 C117.888,253.175836 117.173,253.457442 115.756,252.598535 C114.352,251.747508 113,249.888 113,248.172 C113,246.443 114.17,245.787189 116.055,246.929772 C117.68,247.914758 118.447,249.393671 118.772,250.123668 C119.071,250.785905 119.396,251.905902 119.396,253.426902 Z M117.966,251.026115 C117.966,250.012115 117.329,248.677001 116.081,247.920532 C114.846,247.171943 114.222,247.742709 114.222,248.756709 C114.222,249.770709 114.846,251.097943 116.081,251.846532 C117.329,252.603001 117.966,252.040115 117.966,251.026115 Z M127.361286,260.010019 C127.361286,261.973019 125.736286,262.054034 124.046286,261.029649 C122.356286,260.005264 121.420286,258.501913 121.095286,257.732916 L121.797286,257.430429 C122.187286,258.329826 123.032286,259.375018 124.033286,259.981769 C125.047286,260.5964 126.113286,260.61855 126.113286,259.25355 C126.113286,257.88855 125.060286,256.62628 124.033286,256.003769 C123.448286,255.649174 122.798286,255.42418 122.447286,255.523423 L121.810286,254.760309 L122.590286,251.021102 L127.101286,253.755421 L127.101286,254.769421 L123.500286,252.586694 L123.032286,254.682018 C123.383286,254.738775 123.812286,254.920811 124.306286,255.220247 C125.762286,256.102793 127.361286,258.047019 127.361286,260.010019 Z M138.316571,267.521509 C138.316571,268.808509 137.419571,269.135797 136.197571,268.395088 C134.975571,267.654379 134.078571,266.239667 134.078571,264.952667 C134.078571,263.665667 134.975571,263.338379 136.197571,264.079088 C137.419571,264.819797 138.316571,266.234509 138.316571,267.521509 Z M136.106571,259.005929 L136.756571,259.789923 L131.205571,265.512213 L130.555571,264.728219 L136.106571,259.005929 Z M133.233571,259.565475 C133.233571,260.852475 132.336571,261.192763 131.114571,260.452054 C129.892571,259.711345 128.995571,258.283633 128.995571,256.996633 C128.995571,255.722633 129.892571,255.382345 131.114571,256.123054 C132.336571,256.863763 133.233571,258.291475 133.233571,259.565475 Z M137.406571,266.956917 C137.406571,266.176917 136.938571,265.321241 136.197571,264.872088 C135.456571,264.422935 134.988571,264.711259 134.988571,265.491259 C134.988571,266.284259 135.456571,267.126935 136.197571,267.576088 C136.938571,268.025241 137.406571,267.749917 137.406571,266.956917 Z M132.323571,259.013883 C132.323571,258.220883 131.855571,257.378207 131.114571,256.929054 C130.373571,256.4799 129.905571,256.755225 129.905571,257.548225 C129.905571,258.328225 130.373571,259.1709 131.114571,259.620054 C131.855571,260.069207 132.323571,259.793883 132.323571,259.013883 Z" id="95%" fill="#ACD2FF"></path>
                                    <g id="Hipaa">
                                        <use fill="black" fill-opacity="1" filter="url(#filter-2)" xlink:href="#path-1"></use>
                                        <use fill="#FFFFFF" fill-rule="evenodd" xlink:href="#path-1"></use>
                                    </g>
                                    <g id="ISO" transform="translate(15.395833, 75.222222)">
                                        <g id="Clip-152">
                                            <use fill="black" fill-opacity="1" filter="url(#filter-4)" xlink:href="#path-3"></use>
                                            <use fill="#00499F" fill-rule="evenodd" xlink:href="#path-3"></use>
                                        </g>
                                        <g id="g2537">
                                            <mask id="mask-6" fill="white">
                                                <use xlink:href="#path-5"></use>
                                            </mask>
                                            <use id="Clip-152" fill="#107EFF" xlink:href="#path-5"></use>
                                        </g>
                                    </g>
                                    <g id="38-caduceus-medicine" transform="translate(27.395833, 94.222222)">
                                        <path d="M45,92.4396701 C69.8528204,106.489616 90,98.8514484 90,75.3793403 C90,51.9072321 69.8528204,21.4896158 45,7.43967014 C20.1471796,-6.61027549 0,1.02789184 0,24.5 C0,47.9721082 20.1471796,78.3897245 45,92.4396701 Z" id="Stroke-154" stroke-opacity="0.230015851" stroke="#FFFFFF" stroke-width="2.5"></path>
                                        <polygon id="Rectangle" fill="#FFFFFF" points="43.9848485 25.1157786 46.5 26.5376591 46.5 64.0376591 43.9848485 62.6157786"></polygon>
                                        <polygon id="Rectangle" fill="#FFFFFF" points="43.9848485 67.6157786 46.5 69.0376591 46.5 94.0376591 43.9848485 92.6157786"></polygon>
                                        <path d="M45.2424242,27.0767189 C41.7752879,25.1166565 38.9545455,20.7182675 38.9545455,17.2720175 C38.9545455,13.8257675 41.7752879,12.6166565 45.2424242,14.5767189 C48.7095606,16.5367812 51.530303,20.9351702 51.530303,24.3814202 C51.530303,27.8276702 48.7095606,29.0367812 45.2424242,27.0767189 Z M45.2424242,17.0767189 C43.1623939,15.9008236 41.469697,16.626398 41.469697,18.693898 C41.469697,20.761398 43.1623939,23.4008236 45.2424242,24.5767189 C47.3224545,25.7526141 49.0151515,25.0270397 49.0151515,22.9595397 C49.0151515,20.8920397 47.3224545,18.2526141 45.2424242,17.0767189 Z" id="Shape" fill="#FFFFFF" fill-rule="nonzero"></path>
                                        <path d="M45.2424242,94.5767189 C41.0811061,92.2242175 37.6969697,86.9473272 37.6969697,82.8110772 C37.6969697,81.1735772 38.2188636,79.9123674 39.2073182,79.1636665 L41.2181818,81.80171 C40.5592121,82.3004273 40.2121212,83.1417078 40.2121212,84.2329578 C40.2121212,86.9904578 42.4682121,90.5083846 45.2424242,92.0767189 C48.0166364,93.6450531 50.2727273,92.67798 50.2727273,89.92048 C50.2727273,87.69298 48.1159848,85.2449674 45.2952424,82.2765784 L44.6802879,81.6276786 L45.8058182,80.0277201 L46.4031667,80.6579167 C48.9447273,83.333477 52.7878788,87.3786105 52.7878788,91.3423605 C52.7878788,95.4786105 49.4037424,96.9292202 45.2424242,94.5767189 Z" id="Path" fill="#FFFFFF"></path>
                                        <path d="M44.6802879,81.6276786 C44.457697,81.3905921 44.2036667,81.1257322 43.927,80.8380753 C40.8698333,77.6510295 35.1818182,71.7216967 35.1818182,66.3891967 C35.1818182,62.4041967 38.7181212,62.3258607 40.8295909,62.2782794 L42.109803,65.1557666 C39.6952576,65.2082613 37.6969697,65.4448272 37.6969697,67.8110772 C37.6969697,71.5698272 42.4568939,76.5319862 45.014803,79.1980387 C45.305303,79.5010159 45.5706515,79.7785243 45.8045606,80.0270092 L44.6802879,81.6276786 Z" id="Path" fill="#FFFFFF"></path>
                                        <path d="M50.8348636,82.6070203 L49.7093333,79.7344787 C51.7818182,79.8761083 52.7878788,78.7661105 52.7878788,76.3423605 C52.7878788,72.6448605 47.9172879,67.5288888 45.3002727,64.7806721 L44.6790303,64.1269676 L45.8045606,62.5270092 L46.4031667,63.1579167 C49.2918182,66.1909466 55.3030303,72.5042411 55.3030303,77.7642411 C55.3030303,81.1317411 53.7574697,82.8054955 50.8348636,82.6070203 Z" id="Path" fill="#FFFFFF"></path>
                                        <path d="M45.2424242,64.7242189 L44.0804242,63.4948101 C41.0408636,60.3052174 33.9242424,52.8395064 33.9242424,46.9282564 C33.9242424,41.2195064 38.3056364,40.6551723 41.469697,42.443898 L41.469697,44.943898 C39.7153788,43.9521364 36.4393939,43.9338869 36.4393939,48.3501369 C36.4393939,52.6976369 42.5650455,59.125627 45.180803,61.8693828 L45.2424242,61.9342189 L45.3040455,61.9403049 C47.919803,62.1528107 54.0454545,62.6508008 54.0454545,58.3033008 C54.0454545,53.8870508 50.7694697,50.2013014 49.0151515,49.2095397 L49.0151515,46.7095397 C52.1792121,48.4982654 56.5606061,54.0164314 56.5606061,59.7251814 C56.5606061,65.6364314 49.4439848,65.0557203 46.4044242,64.8086277 L45.2424242,64.7242189 Z" id="Path" fill="#FFFFFF"></path>
                                        <path d="M41.469697,39.943898 L36.4393939,37.1001369 C23.6397879,29.8641868 8.67589394,17.5684584 5.06413636,4.75788797 C4.93586364,4.30412206 5.00125758,3.92109096 5.23768182,3.72974773 C5.47410606,3.5384045 5.85389394,3.55935846 6.25757576,3.78757029 C16.9306212,9.82132042 20.761197,9.7118445 23.8384848,9.62276536 C25.7776667,9.56778527 27.4515,9.51904677 30.1515152,11.0454355 C33.501697,12.9393804 36.4393939,17.5213869 36.4393939,20.8501369 L36.4393939,24.6001369 C36.4393939,25.9788869 37.5674394,27.7378504 38.9545455,28.5220175 L41.469697,29.943898 L41.469697,32.443898 L38.9545455,31.0220175 C36.1803333,29.4536832 33.9242424,25.9357564 33.9242424,23.1782564 L33.9242424,19.4282564 C33.9242424,17.3170064 31.8957727,14.5315097 30.1515152,13.5454355 C28.1469394,12.4121967 26.8805606,12.4487799 25.1287576,12.4984401 C22.1432727,12.5844179 18.1177727,12.699948 8.14268182,7.32951977 C11.1168485,14.7246435 19.8255606,25.2079049 36.4393939,34.6001369 L41.469697,37.443898 L41.469697,39.943898 Z" id="Path" fill="#FFFFFF"></path>
                                        <polygon id="Rectangle" fill="#FFFFFF" points="31.4090909 28.0063758 33.9242424 29.4282564 33.9242424 34.4282564 31.4090909 33.0063758"></polygon>
                                        <polygon id="Rectangle" fill="#FFFFFF" points="26.3787879 23.9126147 28.8939394 25.3344953 28.8939394 31.5844953 26.3787879 30.1626147"></polygon>
                                        <polygon id="Rectangle" fill="#FFFFFF" points="21.3484848 19.8188536 23.8636364 21.2407342 23.8636364 27.4907342 21.3484848 26.0688536"></polygon>
                                        <polygon id="Rectangle" fill="#FFFFFF" points="16.3181818 15.7250925 18.8333333 17.1469731 18.8333333 22.1469731 16.3181818 20.7250925"></polygon>
                                        <path d="M54.0454545,47.0533008 L49.0151515,44.2095397 L49.0151515,41.7095397 L54.0454545,44.5533008 C70.6592879,53.9455328 79.368,53.3087942 82.3421667,49.275168 C72.3658182,43.3665288 68.3415758,38.7002699 65.3560909,35.2387477 C63.6042879,33.2096578 62.3379091,31.741241 60.3333333,30.6080022 C58.5890758,29.621928 56.5606061,30.1139314 56.5606061,32.2251814 L56.5606061,35.9751814 C56.5606061,38.7326814 54.3045152,39.6997545 51.530303,38.1314202 L49.0151515,36.7095397 L49.0151515,34.2095397 L51.530303,35.6314202 C52.9174091,36.4155874 54.0454545,35.9320508 54.0454545,34.5533008 L54.0454545,30.8033008 C54.0454545,27.4745508 56.9831515,26.2140573 60.3333333,28.1080022 C63.0320909,29.63368 64.7071818,31.5756525 66.6463636,33.8231724 C69.7236515,37.3915932 73.5542273,41.8321173 84.2272727,47.8658674 C84.6309545,48.0940793 85.0107424,48.5012832 85.2471667,48.96119 C85.4835909,49.4210968 85.5477273,49.8773547 85.4207121,50.1855498 C81.8089545,58.9124793 66.8450606,54.2892509 54.0454545,47.0533008 Z" id="Path" fill="#FFFFFF"></path>
                                        <polygon id="Rectangle" fill="#FFFFFF" points="56.5606061 42.2251814 59.0757576 43.6470619 59.0757576 48.6470619 56.5606061 47.2251814"></polygon>
                                        <polygon id="Rectangle" fill="#FFFFFF" points="61.5909091 43.8189425 64.1060606 45.240823 64.1060606 51.490823 61.5909091 50.0689425"></polygon>
                                        <polygon id="Rectangle" fill="#FFFFFF" points="66.6212121 45.4127036 69.1363636 46.8345841 69.1363636 53.0845841 66.6212121 51.6627036"></polygon>
                                        <polygon id="Rectangle" fill="#FFFFFF" points="71.6515152 47.0064647 74.1666667 48.4283452 74.1666667 53.4283452 71.6515152 52.0064647"></polygon>
                                    </g>
                                    <g id="Group-16" transform="translate(22.000000, 210.000000)">
                                        <mask id="mask-8" fill="white">
                                            <use xlink:href="#path-7"></use>
                                        </mask>
                                        <use id="Fill-278" fill="#00499F" xlink:href="#path-7"></use>
                                        <polygon id="Fill-278" fill="#2ECC71" mask="url(#mask-8)" points="0.190972222 0.265873016 108.5625 54.8462356 108.5625 72.6277783 0.190972222 14.1155143"></polygon>
                                    </g>
                                </g>
                                <g id="4-copy-4" transform="translate(178.000000, 350.000000)">
                                    <path d="M37,251.739053 C37,260.961101 43.4447604,264.659855 51.3246798,259.958508 L162.987879,196.363499 C170.867798,191.662152 177.397771,180.272336 177.491954,171.050288 L178.99887,10.2955184 C179.097538,1.07347082 172.72005,-2.65689711 164.822191,2.01735326 L51.3605587,65.7975252 C43.4626999,70.4672594 37,81.8344944 37,91.056542 L37,251.739053 Z" id="Fill-367" fill="#ACD2FF" opacity="0.250372024" transform="translate(108.000000, 131.000000) scale(-1, 1) translate(-108.000000, -131.000000) "></path>
                                    <path d="M0.762835592,289.07893 C0.762835592,299.302841 7.94453007,303.40342 16.7254885,298.191328 L141.156953,227.6875 C149.937912,222.475409 157.214562,209.848229 157.319514,199.624318 L158.998741,21.4055082 C159.108691,11.1815979 152.001962,7.04597108 143.201012,12.2280216 L16.7654701,82.9371294 C7.96452087,88.1141731 0.762835592,100.716319 0.762835592,110.940229 L0.762835592,289.07893 Z" id="Fill-367" fill="#107EFF" transform="translate(79.881418, 155.223056) scale(-1, 1) translate(-79.881418, -155.223056) "></path>
                                    <path d="M8.55259361,114.709716 C8.55259361,104.481942 15.7468682,91.8800433 24.538761,86.7010434 L150.552594,15.6531077 C153.662957,13.819922 156.55864,13.1737992 159,13.5344259 C156.368922,9.2319492 151.09179,8.3403999 144.990885,11.9316406 L18.9770526,82.9795764 C10.1851597,88.1585762 2.99088515,100.765484 2.99088515,110.993257 L2.99088515,289.07893 C2.99088515,295.645341 5.95646399,299.672339 10.3998397,300.343506 C9.2265888,298.455224 8.55259361,295.915811 8.55259361,292.800398 L8.55259361,114.709716 Z" id="Fill-369" fill="#00499F" transform="translate(80.995443, 155.021511) scale(-1, 1) translate(-80.995443, -155.021511) "></path>
                                    <g id="GDPR">
                                        <use fill="black" fill-opacity="1" filter="url(#filter-10)" xlink:href="#path-9"></use>
                                        <use fill="#FFFFFF" fill-rule="evenodd" xlink:href="#path-9"></use>
                                    </g>
                                    <path d="M109.977,238.003485 L109.977,246.973485 L108.755,246.236474 L108.755,238.189474 L107,237.131 L107,236.208 L109.977,238.003485 Z M119.567286,248.285567 C119.567286,250.612567 118.553286,252.289005 116.135286,250.830663 C113.717286,249.372322 112.703286,246.472759 112.703286,244.145759 C112.703286,241.805759 113.730286,240.137162 116.135286,241.587663 C118.553286,243.046005 119.567286,245.945567 119.567286,248.285567 Z M118.293286,247.491194 C118.293286,245.437194 117.578286,243.523964 116.135286,242.653663 C114.692286,241.783363 113.977286,242.834133 113.977286,244.888133 C113.977286,246.929133 114.692286,248.855363 116.135286,249.725663 C117.578286,250.595964 118.293286,249.532194 118.293286,247.491194 Z M127.649571,253.160147 C127.649571,255.487147 126.635571,257.163584 124.217571,255.705243 C121.799571,254.246901 120.785571,251.347339 120.785571,249.020339 C120.785571,246.680339 121.812571,245.011742 124.217571,246.462243 C126.635571,247.920584 127.649571,250.820147 127.649571,253.160147 Z M126.375571,252.365773 C126.375571,250.311773 125.660571,248.398543 124.217571,247.528243 C122.774571,246.657942 122.059571,247.708712 122.059571,249.762712 C122.059571,251.803712 122.774571,253.729942 124.217571,254.600243 C125.660571,255.470543 126.375571,254.406773 126.375571,252.365773 Z M138.214857,262.00227 C138.214857,263.28927 137.317857,263.619272 136.095857,262.882261 C134.873857,262.14525 133.976857,260.733252 133.976857,259.446252 C133.976857,258.159252 134.873857,257.82925 136.095857,258.566261 C137.317857,259.303272 138.214857,260.71527 138.214857,262.00227 Z M136.004857,253.493377 L136.654857,254.275405 L131.103857,260.014492 L130.453857,259.232464 L136.004857,253.493377 Z M133.131857,254.061617 C133.131857,255.348617 132.234857,255.691619 131.012857,254.954608 C129.790857,254.217596 128.893857,252.792599 128.893857,251.505599 C128.893857,250.231599 129.790857,249.888596 131.012857,250.625608 C132.234857,251.362619 133.131857,252.787617 133.131857,254.061617 Z M137.304857,261.440432 C137.304857,260.660432 136.836857,259.806172 136.095857,259.359261 C135.354857,258.91235 134.886857,259.20209 134.886857,259.98209 C134.886857,260.77509 135.354857,261.61635 136.095857,262.063261 C136.836857,262.510172 137.304857,262.233432 137.304857,261.440432 Z M132.221857,253.512779 C132.221857,252.719779 131.753857,251.878519 131.012857,251.431608 C130.271857,250.984697 129.803857,251.261437 129.803857,252.054437 C129.803857,252.834437 130.271857,253.675697 131.012857,254.122608 C131.753857,254.569519 132.221857,254.292779 132.221857,253.512779 Z" id="100%" fill="#ACD2FF"></path>
                                    <g id="ISO" transform="translate(15.395833, 70.222222)">
                                        <g id="g2537">
                                            <g id="Clip-152">
                                                <use fill="black" fill-opacity="1" filter="url(#filter-12)" xlink:href="#path-11"></use>
                                                <use fill="#00499F" fill-rule="evenodd" xlink:href="#path-11"></use>
                                            </g>
                                            <mask id="mask-14" fill="white">
                                                <use xlink:href="#path-13"></use>
                                            </mask>
                                            <use id="Clip-152" fill="#107EFF" xlink:href="#path-13"></use>
                                        </g>
                                        <polygon id="Fill-3" fill="#FFFFFE" points="55.1345633 39.3942933 58.4985946 38.6561257 61.863188 43.0896524 60.5831246 38.2052445 64 37.4955068 59.7882149 35.1823954 58.4985946 30.2418185 57.2095365 33.7709226 53 31.4543094 56.4146267 35.9159064"></polygon>
                                        <polygon id="Fill-4" fill="#FFFFFE" points="39.136812 33.6083321 42.5008433 32.8712775 45.863188 37.3024562 44.5848112 32.4207744 48 31.7112237 43.7876527 29.3978035 42.4985946 24.4546223 41.2100986 27.9869462 37 25.6700263 40.4146267 30.1305101"></polygon>
                                        <polygon id="Fill-5" fill="#FFFFFE" points="28.5 29.7665975 27.2106124 33.2984317 23 30.9812296 26.4154994 35.4416009 25.1351089 38.9186001 28.5 38.1820177 31.8648911 42.6145949 30.5845006 37.7312153 34 37.022427 29.7893876 34.7099597"></polygon>
                                        <polygon id="Fill-6" fill="#FFFFFE" points="23.5011244 52.4366364 26.8630788 56.8676008 25.5851988 51.9861918 29 51.27702 24.7902484 48.9650255 23.5011244 44.0212162 22.2120004 47.5579299 18 45.2358227 21.41705 49.6970455 20.1369212 53.1735966"></polygon>
                                        <polygon id="Fill-7" fill="#FFFFFE" points="29.7893876 68.7099597 28.5 63.7665975 27.2106124 67.2984317 23 64.9812296 26.4154994 69.4416009 25.1351089 72.9186001 28.5 72.177283 31.8648911 76.6145949 30.5845006 71.7312153 34 71.022427"></polygon>
                                        <polygon id="Fill-8" fill="#FFFFFE" points="43.7879996 89.395081 42.4988756 84.4547766 41.2120004 87.9850797 37 85.6671133 40.4148012 90.128214 39.1369212 93.6083921 42.5011244 92.8697268 45.8630788 97.3023962 44.5851988 92.4185954 48 91.7083106"></polygon>
                                        <polygon id="Fill-9" fill="#FFFFFE" points="59.7882149 101.185308 58.4991567 96.2421272 57.2117851 99.7750686 53 97.4572225 56.4151888 101.917423 55.136812 105.395528 58.5008433 104.657882 61.863188 109.089652 60.5831246 104.206453 64 103.49842"></polygon>
                                        <polygon id="Fill-10" fill="#FFFFFE" points="76.7871383 107.5182 75.5 102.578986 74.2083632 106.106674 70 103.790705 73.4132502 108.250954 72.1351089 111.730989 75.5 110.992701 78.8648911 115.426984 77.5822513 110.540569 81 109.831903"></polygon>
                                        <polygon id="Fill-11" fill="#FFFFFE" points="90.7916368 102.21238 89.5 97.2677829 88.2083632 100.798382 84 98.4824151 87.4177487 102.944022 86.1351089 106.419786 89.5 105.678468 92.8654534 110.116089 91.5822513 105.231165 95 104.523612"></polygon>
                                        <polygon id="Fill-12" fill="#FFFFFE" points="98 89.1712117 93.7888605 86.8584549 92.4977517 81.9141474 91.2111395 85.4475059 87 83.1300143 90.4163516 87.5908536 89.1381707 91.0690663 92.4977517 90.3248329 95.8612672 94.7613894 94.5836484 89.8795321"></polygon>
                                        <polygon id="Fill-13" fill="#FFFFFE" points="86.1349997 72.4197256 89.4997189 71.6819358 92.8650003 76.1158403 91.582426 71.2300534 95 70.5254362 90.7912897 68.2140135 89.4997189 63.2676285 88.2087103 66.8003983 84 64.4842388 87.417574 68.9427177"></polygon>
                                        <polygon id="Fill-14" fill="#FFFFFE" points="75.4977517 42.5777515 74.2111395 46.11111 70 43.7888837 73.4118549 48.2519881 72.1342361 51.7305095 75.5022483 50.9909065 78.8612672 55.4249934 77.5836484 50.5431361 81 49.830081 76.7843638 47.5148547"></polygon>
                                    </g>
                                    <g id="Group-16" transform="translate(22.000000, 205.000000)">
                                        <mask id="mask-16" fill="white">
                                            <use xlink:href="#path-15"></use>
                                        </mask>
                                        <use id="Fill-278" fill="#107EFF" xlink:href="#path-15"></use>
                                        <polygon id="Fill-278" fill="#2ECC71" mask="url(#mask-16)" points="0.190972222 0.265873016 120.5625 65.4060056 120.5625 86.6277783 0.190972222 16.7950316"></polygon>
                                    </g>
                                </g>
                                <g id="4-copy-3">
                                    <path d="M33,251.739053 C33,260.961101 39.4447604,264.659855 47.3246798,259.958508 L158.987879,196.363499 C166.867798,191.662152 173.397771,180.272336 173.491954,171.050288 L174.99887,10.2955184 C175.097538,1.07347082 168.72005,-2.65689711 160.822191,2.01735326 L47.3605587,65.7975252 C39.4626999,70.4672594 33,81.8344944 33,91.056542 L33,251.739053 Z" id="Fill-367" fill="#ACD2FF" opacity="0.250372024" transform="translate(104.000000, 131.000000) scale(-1, 1) translate(-104.000000, -131.000000) "></path>
                                    <path d="M0.762835592,295.07893 C0.762835592,305.302841 7.94453007,309.40342 16.7254885,304.191328 L141.156953,233.6875 C149.937912,228.475409 157.214562,215.848229 157.319514,205.624318 L158.998741,27.4055082 C159.108691,17.1815979 152.001962,13.0459711 143.201012,18.2280216 L16.7654701,88.9371294 C7.96452087,94.1141731 0.762835592,106.716319 0.762835592,116.940229 L0.762835592,295.07893 Z" id="Fill-367" fill="#107EFF" transform="translate(79.881418, 161.223056) scale(-1, 1) translate(-79.881418, -161.223056) "></path>
                                    <path d="M8.55259361,120.709716 C8.55259361,110.481942 15.7468682,97.8800433 24.538761,92.7010434 L150.552594,21.6531077 C153.662957,19.819922 156.55864,19.1737992 159,19.5344259 C156.368922,15.2319492 151.09179,14.3403999 144.990885,17.9316406 L18.9770526,88.9795764 C10.1851597,94.1585762 2.99088515,106.765484 2.99088515,116.993257 L2.99088515,295.07893 C2.99088515,301.645341 5.95646399,305.672339 10.3998397,306.343506 C9.2265888,304.455224 8.55259361,301.915811 8.55259361,298.800398 L8.55259361,120.709716 Z" id="Fill-369" fill="#00499F" transform="translate(80.995443, 161.021511) scale(-1, 1) translate(-80.995443, -161.021511) "></path>
                                    <g id="Group-9" transform="translate(20.190972, 211.265873)">
                                        <mask id="mask-18" fill="white">
                                            <use xlink:href="#path-17"></use>
                                        </mask>
                                        <use id="Fill-278" fill="#00499F" xlink:href="#path-17"></use>
                                        <polygon id="Fill-278" fill="#2ECC71" mask="url(#mask-18)" points="0 0 70.7268338 33.8335367 70.7268338 51.6150794 0 13.8496413"></polygon>
                                    </g>
                                    <g id="ISO-27001">
                                        <use fill="black" fill-opacity="1" filter="url(#filter-20)" xlink:href="#path-19"></use>
                                        <use fill="#FFFFFF" fill-rule="evenodd" xlink:href="#path-19"></use>
                                    </g>
                                    <path d="M117.396,256.133577 C117.396,257.862577 116.226,258.602938 114.341,257.596576 C112.664,256.70126 111.91,255.232715 111.624,254.599026 C111.325,253.945396 111,252.900885 111,251.340885 C111,249.715885 111.442,248.72986 112.053,248.30206 C112.651,247.88032 113.444,247.861686 114.627,248.493265 C116.005,249.228951 116.811,250.322257 117.149,250.749709 L116.616,251.310151 C116.07,250.563653 115.42,249.904631 114.64,249.488206 C113.86,249.07178 113.392,249.107924 112.976,249.431831 C112.56,249.755737 112.209,250.517345 112.209,251.882345 C112.534,251.470856 113.223,251.149699 114.64,251.906206 C116.057,252.662712 117.396,254.417577 117.396,256.133577 Z M116.174,255.611176 C116.174,254.597176 115.55,253.315036 114.315,252.655695 C113.067,251.989414 112.43,252.598333 112.43,253.612333 C112.43,254.626333 113.067,255.915414 114.315,256.581695 C115.55,257.241036 116.174,256.625176 116.174,255.611176 Z M125.647286,259.004767 C125.647286,261.331767 124.633286,263.078413 122.215286,261.787493 C119.797286,260.496573 118.783286,257.66722 118.783286,255.34022 C118.783286,253.00022 119.810286,251.260514 122.215286,252.544493 C124.633286,253.835413 125.647286,256.664767 125.647286,259.004767 Z M124.373286,258.298604 C124.373286,256.244604 123.658286,254.380881 122.215286,253.610493 C120.772286,252.840105 120.057286,253.940382 120.057286,255.994382 C120.057286,258.035382 120.772286,259.912105 122.215286,260.682493 C123.658286,261.452881 124.373286,260.339604 124.373286,258.298604 Z M136.212571,267.115353 C136.212571,268.402353 135.315571,268.794463 134.093571,268.142063 C132.871571,267.489662 131.974571,266.139773 131.974571,264.852773 C131.974571,263.565773 132.871571,263.173662 134.093571,263.826063 C135.315571,264.478463 136.212571,265.828353 136.212571,267.115353 Z M134.002571,258.75948 L134.652571,259.496501 L129.101571,265.619938 L128.451571,264.882916 L134.002571,258.75948 Z M131.129571,259.526645 C131.129571,260.813645 130.232571,261.218755 129.010571,260.566355 C127.788571,259.913954 126.891571,258.551065 126.891571,257.264065 C126.891571,255.990065 127.788571,255.584954 129.010571,256.237355 C130.232571,256.889755 131.129571,258.252645 131.129571,259.526645 Z M135.302571,266.616523 C135.302571,265.836523 134.834571,265.014667 134.093571,264.619063 C133.352571,264.223458 132.884571,264.545603 132.884571,265.325603 C132.884571,266.118603 133.352571,266.927458 134.093571,267.323063 C134.834571,267.718667 135.302571,267.409523 135.302571,266.616523 Z M130.219571,259.040815 C130.219571,258.247815 129.751571,257.438959 129.010571,257.043355 C128.269571,256.64775 127.801571,256.956895 127.801571,257.749895 C127.801571,258.529895 128.269571,259.33875 129.010571,259.734355 C129.751571,260.129959 130.219571,259.820815 130.219571,259.040815 Z" id="60%" fill="#ACD2FF"></path>
                                    <g id="ISO" transform="translate(15.395833, 77.222222)">
                                        <g id="g2537">
                                            <g id="Clip-152">
                                                <use fill="black" fill-opacity="1" filter="url(#filter-22)" xlink:href="#path-21"></use>
                                                <use fill="#00499F" fill-rule="evenodd" xlink:href="#path-21"></use>
                                            </g>
                                            <mask id="mask-24" fill="white">
                                                <use xlink:href="#path-23"></use>
                                            </mask>
                                            <use id="Clip-152" fill="#107EFF" xlink:href="#path-23"></use>
                                            <path d="M61.3884799,104.338788 C60.1727769,103.769154 58.6863862,102.951434 57.3803033,102.056533 C56.8848397,101.814307 56.299172,101.428651 55.713793,101.043137 C44.9045519,93.9012621 34.9509756,82.4343834 28.7357168,69.1353785 C29.1861097,69.442447 29.7264556,69.5743875 30.1768234,70.0178175 C31.2579547,72.1923344 32.473846,74.3997579 33.8250247,76.6400009 C34.9960462,78.4573157 36.0769264,80.1770112 37.338127,81.7281708 C38.5089602,81.6347544 39.8152565,81.7566018 40.9412074,81.6826288 C39.5449831,79.0976717 38.1036631,76.4866007 37.0678787,73.974395 C37.3829717,74.0210135 37.9686394,74.4066447 38.4190323,74.7590958 C39.5449831,77.0962086 40.7609121,79.4855901 42.2022321,81.8237061 C44.1388023,82.2205494 46.0305027,82.5459767 48.0121436,83.1508555 C48.0121436,83.1508555 48.1922631,83.0735388 48.1922631,83.0735388 C48.1922631,83.0735388 47.0663122,79.7811215 47.0663122,79.7811215 C47.5617507,79.9779748 47.8771199,80.2067025 48.3726085,80.5397709 C48.7778805,81.5485445 49.0930238,82.5957905 49.5434167,83.630794 C52.1557582,84.5564641 54.9031737,85.8337382 57.695459,87.3643517 C58.0558612,87.2553733 57.7856255,86.4160807 57.9206492,86.0849255 C57.9206492,86.0849255 59.1367665,86.7912022 59.1367665,86.7912022 C59.2717902,87.3244976 59.0916707,87.7203168 59.2717902,88.2342928 C61.8841443,89.888032 64.6313464,91.7565381 67.1537852,93.8582555 C67.1537852,93.8582555 67.3789879,93.9435229 67.3789879,93.9435229 C67.3789879,93.9435229 68.5946407,92.2839915 68.5946407,92.2839915 C69.0001763,92.5195119 69.5407106,92.7425552 69.8560798,93.107659 C69.8560798,93.107659 68.7301289,95.0920382 68.7301289,95.0920382 C68.7301289,95.0920382 68.8198309,95.2352033 68.8198309,95.2352033 C70.8918893,96.9845656 72.8284469,98.9279481 74.8103137,100.89767 C76.2063371,100.20738 77.5126335,99.1919355 78.683429,98.1431928 C79.1786792,98.430816 79.6743938,98.6734026 80.0346077,99.0189777 C79.4940483,99.7058925 78.8184527,100.314142 78.0980501,100.760032 C77.5126335,101.284519 76.8818951,101.691425 76.1161581,102.065667 C76.1161581,102.065667 76.1161581,102.293087 76.1161581,102.293087 L79.2688456,105.988937 C79.2688456,105.988937 79.7192385,106.432661 79.7192385,106.432661 C82.4668549,105.890296 84.8987129,104.709609 86.8352579,102.968548 C87.3758173,103.282485 87.8262102,103.362108 88.2766031,103.851126 C82.2416647,109.626102 72.2878875,109.804507 61.5239179,104.417446 C61.5239179,104.417446 61.4786589,104.300104 61.4786589,104.300104 C61.4786589,104.300104 61.3884799,104.338788 61.3884799,104.338788 Z M66.0278092,104.986106 C66.0278092,104.986106 66.0278092,104.895062 66.0278092,104.895062 C62.1093345,99.7080581 55.7588888,95.7469445 51.6152491,96.0245355 C51.3900464,96.0756694 50.9396284,95.904937 50.8945577,96.1972641 C55.6687224,100.107153 61.2987528,103.46794 66.0278092,104.986106 Z M78.4133816,106.629368 C78.4133816,106.629368 78.3232402,106.395119 78.3232402,106.395119 L75.2153849,102.816135 C75.2153849,102.816135 74.9902073,102.68536 74.9902073,102.68536 C72.6032567,103.755511 69.810758,104.271847 66.9734397,104.306958 C67.0636187,104.677859 67.5140116,105.166876 67.8293431,105.577468 C71.6123045,106.773622 75.1705276,107.1116 78.4133816,106.629368 Z M50.0388802,94.4719821 C47.2466326,91.0763415 44.4992422,87.3881738 41.977042,83.376138 C40.7609121,83.124758 39.6349613,83.1531708 38.554056,83.2986238 C38.554056,83.2986238 38.554056,83.3896934 38.554056,83.3896934 C41.3916003,87.1755004 44.544338,90.5986277 47.8771199,93.6261077 C48.0121436,93.8409006 48.10231,94.0296421 48.2824421,94.1342562 C48.2824421,94.1342562 48.2824421,94.0434403 48.2824421,94.0434403 C48.642656,94.1615572 48.9129043,94.7278894 49.2282609,94.6382596 C49.4985594,94.5677808 49.8136775,94.5686509 50.0388802,94.4719821 Z M73.6843503,101.335685 C73.6843503,101.335685 73.5941839,101.146741 73.5941839,101.146741 C71.8374946,99.3533164 70.0359607,97.579154 68.0993905,96.0451081 C66.7033923,97.6452206 65.1719058,99.1666592 63.4604881,100.492759 C64.0907996,101.222846 64.8565366,101.94031 65.5321196,102.696739 C68.459617,102.89562 71.2969604,102.405581 73.6843503,101.335685 Z M53.416783,94.7508226 C53.416783,94.7508226 53.2817342,94.3083032 53.2817342,94.3083032 C51.5701533,91.1308801 50.2189997,87.9806155 48.8678587,84.876134 C48.8678587,84.876134 48.6877015,84.7259578 48.6877015,84.7259578 C46.841122,84.1539829 45.0395756,83.6989903 43.3282081,83.478484 C43.3282081,83.478484 43.4183244,83.8035724 43.4183244,83.8035724 C45.895479,87.6533248 48.5076323,91.1718568 51.3900464,94.3924679 C52.065642,94.5118236 52.741225,94.676732 53.416783,94.7508226 Z M57.7856255,96.4238017 C57.9206492,94.1366549 57.830671,91.3550388 57.830671,88.8530991 C56.5694956,87.9387307 55.4435196,87.5122631 54.1825451,86.8707763 C52.9664278,86.3466513 51.4351296,85.5937051 50.2189997,85.2967522 C51.525296,88.5573667 53.056544,91.8577456 54.9031737,95.1591604 C54.9031737,95.1591604 57.7856255,96.4238017 57.7856255,96.4238017 Z M62.019168,99.2463109 C63.7758447,97.9920433 65.4872122,96.6659397 66.6580705,94.8439665 C64.2262376,92.8403919 61.7491206,91.0832446 59.2266944,89.6183112 C59.1367665,91.9771955 59.1818497,94.6872161 59.2266944,97.2152 C60.1274551,97.8747051 61.1184074,98.5868058 62.019168,99.2463109 Z" id="path47-path-4" fill="#FFFFFF" fill-rule="nonzero" opacity="0.413364955" mask="url(#mask-24)"></path>
                                            <path d="M48.5978113,42.3228652 C48.1474184,42.0612934 47.6519171,41.8645938 47.3365605,41.5450701 C47.3365605,41.5450701 48.4625114,39.5149025 48.4625114,39.5149025 C48.4625114,39.5149025 48.3275128,39.3001242 48.3275128,39.3001242 C46.3007761,37.5313455 44.3191353,35.6528245 42.3823265,33.7092582 C42.3823265,33.7092582 42.2022321,33.6957482 42.2022321,33.6957482 C40.9412074,34.3733964 39.7250775,35.2139378 38.7341504,36.1847997 C38.5089602,36.8274491 37.6081744,35.8494016 37.1129242,35.6528606 C38.1938421,34.2793582 39.6349613,33.342024 41.0762311,32.3594835 C39.860164,30.9255546 38.6442224,29.4002233 37.3829717,28.0764547 C34.6806771,28.5998212 32.1587028,29.864561 30.2669899,31.6316844 C29.7264556,31.4083621 29.3662418,31.1538692 28.8256698,30.7946182 C32.0685364,27.4919638 37.1129242,25.8725852 42.3823265,26.2492273 C42.3823265,26.2492273 42.3823265,26.2945338 42.4274349,26.3207311 C42.4725055,26.3469065 42.5624586,26.3080657 42.4725055,26.210112 C46.0305027,26.502602 49.8136775,27.4261282 53.8220801,29.2080765 C67.6490353,35.3729666 80.8451894,49.0872566 88.5017933,65.4523398 C88.0967221,65.2623958 87.510841,64.9221373 87.0604481,64.615259 C85.1691746,60.741715 82.7817595,56.6711377 80.1696314,53.0617664 C80.0794649,52.8730249 79.8094175,52.7619161 79.7192385,52.8455011 C78.5932877,52.9196896 77.3771327,52.804671 76.2965036,52.904737 C77.7378236,55.516087 79.1338219,58.101103 80.2149281,60.6849365 C80.2149281,60.6849365 78.8184527,59.8739144 78.8184527,59.8739144 C77.6925019,57.5367889 76.5217063,55.0825624 75.0355039,52.7187862 C73.0536496,52.386079 71.2521032,52.0679316 69.2253791,51.4368447 C69.2253791,51.4368447 69.0001763,51.488207 69.0001763,51.488207 C69.3155455,52.581157 69.900937,53.7851379 70.0812825,54.7996838 C70.0812825,54.7996838 68.8651526,54.0933998 68.8651526,54.0933998 C68.8651526,54.0933998 67.6490353,50.930959 67.6490353,50.930959 C64.9915603,49.978405 62.0640755,48.5972 59.3619692,47.2095848 C59.2266944,47.5406322 59.4070399,48.2366376 59.2266944,48.4957339 C59.2266944,48.4957339 58.0558612,47.8157565 58.0558612,47.8157565 C57.9656948,47.2174177 58.1908849,46.9390717 57.9206492,46.3267683 C55.1283764,44.5691982 52.4260567,42.6808176 49.8136775,40.6181385 C49.8136775,40.6181385 48.5978113,42.3228652 48.5978113,42.3228652 Z M58.0558612,37.3531316 C57.1100424,36.5764142 56.0740069,35.9747225 55.1732211,35.2241206 C53.32683,36.3805222 51.7953435,37.9023919 50.4892355,39.6457916 C50.4892355,39.6457916 50.7144382,39.958733 50.7144382,39.958733 C53.056544,41.7738214 55.4885903,43.5496179 58.0108157,45.0144346 C58.0108157,45.0144346 58.0558612,37.3531316 58.0558612,37.3531316 Z M66.928595,49.283774 C66.928595,49.283774 66.9734397,49.173924 66.9734397,49.173924 C65.7124149,45.9849207 64.1360712,42.7038866 62.4247037,39.4812428 C61.6589416,38.9450281 60.938087,38.8453155 60.1727769,38.4461578 C60.1727769,38.4461578 59.4070399,38.0920967 59.4070399,38.0920967 C59.3168734,40.7237975 59.2717902,43.0631785 59.4070399,45.8253109 C61.9743108,47.2709819 64.5411674,48.4889667 66.928595,49.283774 Z M49.1380944,38.5425703 C50.4442024,36.7991705 52.065642,35.375318 53.6870564,33.9518312 C53.056544,33.2214124 52.2908321,32.5492566 51.6603198,31.8192309 C48.6877015,31.5939428 45.8503832,32.0384739 43.4632318,33.1540049 C43.4632318,33.1540049 43.4632318,33.2908628 43.4632318,33.2908628 C45.219921,35.1755346 47.0663122,36.8844506 48.958,38.4837537 C48.958,38.4837537 49.1380944,38.5425703 49.1380944,38.5425703 Z M73.9095531,51.0182725 C72.468233,48.4984232 70.6213773,45.9696623 68.9100099,43.7478705 C67.8742004,42.5093177 66.838416,41.2254223 65.7573224,40.0520202 C65.7573224,40.0520202 63.8207522,39.7914008 63.8207522,39.7914008 C63.8207522,39.7914008 63.9557759,40.1882821 63.9557759,40.1882821 C65.5774414,43.3592741 67.0182969,46.470552 68.279736,49.6135637 C68.279736,49.6135637 68.4147597,49.7835319 68.4147597,49.7835319 C70.3513299,50.4532922 72.1977211,50.8885787 73.9095531,51.0182725 Z M78.7282863,51.224252 C76.2063371,47.7125598 73.2788147,44.6476876 70.3064727,41.7842061 C70.3064727,41.7842061 68.1895696,39.8724489 68.1895696,39.8724489 C67.8293431,39.8449251 67.5140116,39.934988 67.1986424,40.0245852 C67.1986424,40.0245852 67.2888089,40.2133266 67.2888089,40.2133266 C70.1709844,43.6157608 72.7836022,47.2254038 75.2606941,51.1659104 C76.4763845,51.3717668 77.6476572,51.3696498 78.7282863,51.224252 Z M50.174155,30.1373822 C49.9489523,29.7338405 49.5884873,29.2512996 49.2733692,28.8866079 C45.4899434,27.689778 41.977042,27.3785264 38.7341504,27.8603182 C38.7341504,27.8603182 38.7341504,27.9971127 38.7341504,27.9971127 C39.8152565,29.307304 40.8961618,30.6627739 42.0671833,31.843033 C44.6342659,30.7413357 47.2914773,30.3281753 50.174155,30.1373822 Z M66.2978566,38.4548773 C66.4328803,38.2604786 66.0726665,38.1423617 65.9825125,37.9989213 C61.2085738,34.1802456 55.8939125,31.0479333 51.1197604,29.4582578 C51.0298074,29.6334619 51.3449506,29.8622613 51.4802003,30.0767417 C55.6687224,35.2844441 62.1995135,39.07729 66.2978566,38.4548773 Z" id="path47-path-3" fill="#FFFFFF" fill-rule="nonzero" opacity="0.413364955" mask="url(#mask-24)"></path>
                                        </g>
                                        <g id="Group-12" transform="translate(16.795139, 26.408730)" fill="#FFFFFF" fill-rule="nonzero">
                                            <path d="M31.7140209,49.3741619 C36.6682799,54.3895334 43.6041673,58.6450901 48.108021,57.9398455 C51.0355685,57.4566847 51.9363292,54.0676402 51.1705922,50.1656964 C50.5851756,46.5505645 47.5226044,42.3610643 44.5951196,39.5236596 C40.5865036,35.7398453 36.3980065,32.2611094 32.3445333,28.4965755 C31.9392236,28.0794785 31.3986768,27.3560019 31.4888558,26.9081134 C31.4888558,26.4985668 31.894178,26.5065176 32.2095095,26.5075243 C36.4430772,27.7836411 41.0368964,31.3613466 44.099656,36.4154828 C44.4598699,37.0795478 44.6850726,37.7562981 45.0454874,38.4204797 C45.0454874,38.4204797 51.1256848,41.9059249 51.1256848,41.9059249 C51.2156378,38.2736413 51.2607336,34.0694088 51.1256848,30.3518223 C51.1256848,30.3518223 44.3699294,26.4736192 44.3699294,26.4736192 C44.3699294,26.4736192 44.2797504,28.6046584 44.2797504,28.6046584 C43.5139883,27.79611 42.7485024,26.8966397 41.9827529,26.0423102 C37.2987923,21.3207761 31.2636531,17.3609209 26.6245749,17.122839 C23.246647,17.0717212 21.4451005,19.7103921 21.9408152,23.9555623 C22.4360276,28.1097518 26.039108,33.7051069 29.6870959,36.7790554 C29.6870959,36.7790554 40.5865036,46.3388209 40.5865036,46.3388209 C40.5865036,46.3388209 41.3973614,47.2191195 41.3973614,47.2191195 C41.7575502,47.7468192 41.9827529,48.2869652 41.8927999,48.7351497 C41.0368964,49.7391599 39.0552556,48.1333911 37.5690281,47.2246841 C34.4163406,44.9388267 31.1734866,41.9638144 29.3268695,37.9345227 C27.3454295,36.7837744 25.0482311,35.4040977 22.8864205,34.2396663 C22.7962541,37.917551 22.9312778,41.2711111 22.9765996,45.0731664 C25.0033362,46.2955786 27.4804532,47.734198 29.5072149,48.8203882 C29.5973312,48.3267637 29.4170485,47.4488585 29.6422387,47.0337181 C29.6422387,47.0337181 31.7140209,49.3741619 31.7140209,49.3741619 Z" id="path47-path"></path>
                                            <path d="M79.7687186,75.8268264 C73.9137114,76.2477707 64.996158,71.3415323 58.9608053,64.3793522 C55.6730941,60.7412329 53.5113338,56.0740515 52.8357507,52.179134 C51.6196208,45.6955768 51.93499,39.0099427 56.2585107,37.1993943 C61.3029112,35.580023 68.6441082,38.8426712 75.1747111,44.5002918 C75.4843428,44.7427551 76.4695577,45.5708195 77.1451156,46.3327628 C77.1451156,46.3327628 77.3364463,46.5291554 77.3364463,46.5291554 C79.3631704,48.5707043 81.2997406,51.105374 82.7410606,53.8531001 C86.0740936,60.7927093 86.2992838,68.4292728 84.2725471,72.8928868 C83.4619655,74.6055423 81.7954553,75.5938504 79.7687186,75.8268264 Z M73.1479744,65.4312623 C73.8235324,64.7774432 73.7786877,63.3867254 73.9137114,62.2368066 C73.8683896,59.6177043 74.0935798,56.6552922 73.6431869,53.7549608 C73.4180218,52.53269 72.6975815,50.9770184 71.5716307,49.9135604 C69.7700967,48.0485441 67.3377617,46.863416 65.671716,46.850939 C64.2752532,47.0407761 64.0953722,48.6195093 63.9150268,50.1069412 C63.7800031,53.1674818 63.5548129,56.3573395 64.4102769,59.719898 C65.08586,61.8863329 66.9327157,63.413798 68.5992384,64.5182581 C70.3554757,65.5382168 72.0668432,66.2591364 73.1479744,65.4312623 Z" id="path47-path-2"></path>
                                            <path d="M3.24803897,34.1157972 C3.24803897,34.1157972 0.455766225,32.4487896 0.455766225,32.4487896 C0.410657885,30.0115319 0.410657885,27.1912925 0.455766225,24.7608565 C1.98700164,25.6048358 3.42832168,26.4872086 4.91454918,27.2139794 C4.91454918,27.2139794 4.91454918,11.7475384 4.91454918,11.7475384 L4.8694534,11.0842927 C4.8694534,11.0842927 0.410657885,8.40416075 0.410657885,8.40416075 C0.320541642,5.80415978 0.320541642,3.34794499 0.410657885,0.898379502 C0.410657885,0.898379502 20.2727398,12.4335542 20.2727398,12.4335542 C20.2727398,12.4335542 20.2727398,19.9393354 20.2727398,19.9393354 C18.7862989,19.1666903 17.1200648,18.0626261 15.6787071,17.4076644 C15.6787071,17.4076644 15.7237904,33.4005113 15.7237904,33.4005113 L15.8139568,33.5895064 C15.8139568,33.5895064 20.2727398,36.2245274 20.2727398,36.2245274 C20.3177854,38.843482 20.3626677,41.6444808 20.227644,43.9315769 C20.227644,43.9315769 3.24803897,34.1157972 3.24803897,34.1157972 Z" id="path47-path"></path>
                                        </g>
                                    </g>
                                </g>
                                <g id="4-copy-5" transform="translate(0.000000, 250.000000)">
                                    <path d="M33,251.739053 C33,260.961101 39.4447604,264.659855 47.3246798,259.958508 L158.987879,196.363499 C166.867798,191.662152 173.397771,180.272336 173.491954,171.050288 L174.99887,10.2955184 C175.097538,1.07347082 168.72005,-2.65689711 160.822191,2.01735326 L47.3605587,65.7975252 C39.4626999,70.4672594 33,81.8344944 33,91.056542 L33,251.739053 Z" id="Fill-367" fill="#ACD2FF" opacity="0.250372024" transform="translate(104.000000, 131.000000) scale(-1, 1) translate(-104.000000, -131.000000) "></path>
                                    <path d="M0.762835592,291.07893 C0.762835592,301.302841 7.94453007,305.40342 16.7254885,300.191328 L141.156953,229.6875 C149.937912,224.475409 157.214562,211.848229 157.319514,201.624318 L158.998741,23.4055082 C159.108691,13.1815979 152.001962,9.04597108 143.201012,14.2280216 L16.7654701,84.9371294 C7.96452087,90.1141731 0.762835592,102.716319 0.762835592,112.940229 L0.762835592,291.07893 Z" id="Fill-367" fill="#107EFF" transform="translate(79.881418, 157.223056) scale(-1, 1) translate(-79.881418, -157.223056) "></path>
                                    <path d="M8.55259361,116.709716 C8.55259361,106.481942 15.7468682,93.8800433 24.538761,88.7010434 L150.552594,17.6531077 C153.662957,15.819922 156.55864,15.1737992 159,15.5344259 C156.368922,11.2319492 151.09179,10.3403999 144.990885,13.9316406 L18.9770526,84.9795764 C10.1851597,90.1585762 2.99088515,102.765484 2.99088515,112.993257 L2.99088515,291.07893 C2.99088515,297.645341 5.95646399,301.672339 10.3998397,302.343506 C9.2265888,300.455224 8.55259361,297.915811 8.55259361,294.800398 L8.55259361,116.709716 Z" id="Fill-369" fill="#00499F" transform="translate(80.995443, 157.021511) scale(-1, 1) translate(-80.995443, -157.021511) "></path>
                                    <g id="SOC2-Type-II">
                                        <use fill="black" fill-opacity="1" filter="url(#filter-26)" xlink:href="#path-25"></use>
                                        <use fill="#FFFFFF" fill-rule="evenodd" xlink:href="#path-25"></use>
                                    </g>
                                    <path d="M117.11,243.515159 L117.448,244.437615 L113.132,250.196566 L111.806,249.433702 L116.044,243.915876 L111,241.014 L111,240 L117.11,243.515159 Z M125.075286,254.584688 C125.075286,256.274688 123.749286,256.447823 121.981286,255.430671 C120.213286,254.413518 118.900286,252.722133 118.900286,251.032133 C118.900286,249.901133 119.576286,249.497044 120.577286,249.760932 L120.577286,249.721932 C119.992286,249.164374 119.173286,248.212193 119.173286,246.899193 C119.173286,245.417193 120.473286,245.3201 121.981286,246.187671 C123.489286,247.055242 124.789286,248.648148 124.789286,250.130148 C124.789286,251.443148 123.983286,251.460447 123.398286,251.357889 L123.398286,251.383889 C124.386286,252.277297 125.075286,253.453688 125.075286,254.584688 Z M123.567286,249.544117 C123.567286,248.608117 122.878286,247.691726 121.981286,247.175671 C121.084286,246.659616 120.395286,246.783225 120.395286,247.719225 C120.395286,248.668225 121.084286,249.571616 121.981286,250.087671 C122.878286,250.603726 123.567286,250.493117 123.567286,249.544117 Z M123.827286,253.775698 C123.827286,252.709698 123.034286,251.616475 121.981286,251.010671 C120.928286,250.404867 120.135286,250.585644 120.135286,251.651644 C120.135286,252.717644 120.980286,253.840783 121.981286,254.416671 C122.995286,255.000038 123.827286,254.841698 123.827286,253.775698 Z M135.978571,261.338484 C135.978571,262.625484 135.081571,262.980429 133.859571,262.277397 C132.637571,261.574365 131.740571,260.18731 131.740571,258.90031 C131.740571,257.61331 132.637571,257.258365 133.859571,257.961397 C135.081571,258.664429 135.978571,260.051484 135.978571,261.338484 Z M133.768571,252.891044 L134.418571,253.654997 L128.867571,259.548437 L128.217571,258.784484 L133.768571,252.891044 Z M130.895571,253.539171 C130.895571,254.826171 129.998571,255.194116 128.776571,254.491084 C127.554571,253.788052 126.657571,252.387996 126.657571,251.100996 C126.657571,249.826996 127.554571,249.459052 128.776571,250.162084 C129.998571,250.865116 130.895571,252.265171 130.895571,253.539171 Z M135.068571,260.80195 C135.068571,260.02195 134.600571,259.180704 133.859571,258.754397 C133.118571,258.328091 132.650571,258.630844 132.650571,259.410844 C132.650571,260.203844 133.118571,261.032091 133.859571,261.458397 C134.600571,261.884704 135.068571,261.59495 135.068571,260.80195 Z M129.985571,253.015636 C129.985571,252.222636 129.517571,251.39439 128.776571,250.968084 C128.035571,250.541777 127.567571,250.831531 127.567571,251.624531 C127.567571,252.404531 128.035571,253.232777 128.776571,253.659084 C129.517571,254.08539 129.985571,253.795636 129.985571,253.015636 Z" id="78%" fill="#ACD2FF"></path>
                                    <g id="ISO" transform="translate(15.395833, 71.222222)">
                                        <g id="g2537">
                                            <g id="Clip-152">
                                                <use fill="black" fill-opacity="1" filter="url(#filter-28)" xlink:href="#path-27"></use>
                                                <use fill="#00499F" fill-rule="evenodd" xlink:href="#path-27"></use>
                                            </g>
                                            <mask id="mask-30" fill="white">
                                                <use xlink:href="#path-29"></use>
                                            </mask>
                                            <use id="Clip-152" fill="#107EFF" xlink:href="#path-29"></use>
                                        </g>
                                        <path d="M35.0905044,71.419575 C31.8795311,64.8574436 30,58.0937673 30,52 C30,40.7721941 36.380689,34.7991948 45.7137722,35.486651 C41.5921755,35.645309 39.5313771,38.502599 39.5313771,44.058521 C39.5313771,49.1968869 41.4909055,56.0804994 44.77591,63.3127903 L35.0905044,71.419575 Z M73.3397975,98.6362958 C75.3649526,99.8311088 77.2527295,100.92176 79.0031283,101.90825 C73.7996205,103.796932 66.755319,102.685121 59,98.109592 C50.2934213,92.9728331 42.4829828,84.5279516 37.1672708,75.3166774 L46.7589621,67.4077842 C53.16294,79.8658245 63.0676946,92.5758996 73.3397975,98.6362958 Z M47.0545369,61.405556 C44.219014,55.5290395 42.4733381,49.8954158 42.4733381,45.4596857 C42.4733381,36.7341958 47.497695,34.6768972 57.5464089,39.28779 C58.0279435,39.548118 58.5125674,39.8220136 59,40.109592 C61.5115749,41.5913859 63.9485782,43.3484623 66.2726364,45.319808 L47.0545369,61.405556 Z M88,86.219184 C88,87.3972048 87.9297601,88.5173797 87.79324,89.5780851 C87.048137,91.7493803 86.0190299,93.3195279 84.7059189,94.2885279 L67.3070948,46.2179592 C79.2751325,56.8509001 88,73.0899156 88,86.219184 Z M73.3397975,92.8420602 C64.8541588,87.8356527 55.341408,76.590895 49.1483951,65.4375553 L66.8170766,50.8687315 L80.8537258,95.4590166 C78.7456146,95.426031 76.2409719,94.5537122 73.3397975,92.8420602 Z" id="Oval-4" fill="#FFFFFF"></path>
                                    </g>
                                    <g id="Group-9" transform="translate(20.190972, 204.265873)">
                                        <mask id="mask-32" fill="white">
                                            <use xlink:href="#path-31"></use>
                                        </mask>
                                        <use id="Fill-278" fill="#00499F" xlink:href="#path-31"></use>
                                        <polygon id="Fill-278" fill="#2ECC71" mask="url(#mask-32)" points="0 0 70.7268338 33.8335367 70.7268338 51.6150794 0 13.8496413"></polygon>
                                    </g>
                                </g>
                            </g>
                        </g>
                    </g>
                </g>
            </g>
        </g>
    </g>
</svg>