<svg width="604" height="667" xmlns="http://www.w3.org/2000/svg" xmlns:xlink="http://www.w3.org/1999/xlink"><defs><path d="M30.632 198.063v8.97l-2.106-1.228v-3.757l-3.601-2.1v3.757l-2.106-1.227v-8.97l2.106 1.227v3.471l3.601 2.1v-3.471l2.106 1.228zm4.502 2.625v8.97l-2.106-1.228v-8.97l2.106 1.228zm8.884 8c0 .962-.338 1.454-.936 1.612-.598.146-1.417-.15-2.34-.688l-1.105-.644v3.315l-2.106-1.228v-8.97l3.21 1.872c.924.538 1.743 1.198 2.34 2.04.599.843.937 1.729.937 2.691zm-2.132-1.243c0-.455-.182-.873-.43-1.2-.26-.333-.558-.572-1.013-.837l-.82-.478v2.405l.82.478c.455.265.754.374 1.014.344.247-.038.429-.257.429-.712zm7.96 1.807l3.38 10.954-2.288-1.334-.637-2.179-3.198-1.864-.637 1.435-2.184-1.273 3.38-7.012 2.184 1.273zm-2.262 4.22l2.236 1.303-1.118-3.876-1.118 2.572zm11.86 1.376l3.38 10.954-2.288-1.334-.637-2.178-3.198-1.865-.637 1.436-2.184-1.274 3.38-7.012 2.184 1.273zm-2.262 4.22l2.236 1.303-1.118-3.876-1.118 2.572z" id="b"/><filter x="-8.7%" y="-7.7%" width="117.5%" height="121.7%" filterUnits="objectBoundingBox" id="a"><feOffset dy="1" in="SourceAlpha" result="shadowOffsetOuter1"/><feGaussianBlur stdDeviation="1" in="shadowOffsetOuter1" result="shadowBlurOuter1"/><feColorMatrix values="0 0 0 0 0 0 0 0 0 0 0 0 0 0 0 0 0 0 0.121744792 0" in="shadowBlurOuter1"/></filter><path d="M67.18 9.434c4.84 2.81 8.915 11.117 13.51 15.018 4.632 3.932 11.128 4.61 15.282 9.423 4.12 4.772 4.694 12.272 8.116 17.683 3.421 5.41 10.583 10.145 12.961 15.648 2.398 5.55-.694 10.253.548 15.61 1.23 5.312 7.167 12.838 7.167 17.68 0 4.842-5.936 5.472-7.167 9.355-1.242 3.914 1.85 12.21-.548 14.974-1.05 1.211-9.618.873-11.802.593-2.757-.354.75-.802-1.16 0-3.421 1.436-3.995 8.269-8.115 8.256-1.167-.003-8.51.122-10.685-.254-4.062-.704-1.266-7.032-4.598-8.074-4.594-1.436-8.67 2.137-13.508-.674-4.84-2.81-8.915-11.116-13.51-15.017-4.632-3.932-11.128-4.61-15.282-9.423-4.12-4.772-4.694-12.272-8.116-17.683-3.421-5.41-10.583-10.145-12.961-15.648-2.398-5.55.694-10.253-.548-15.61-1.23-5.312-7.167-12.838-7.167-17.68 0-4.842 5.936-5.473 7.167-9.355 1.242-3.914-1.85-12.21.548-14.974 2.378-2.74 9.54.844 12.961-.593C32.71 7.666 25.77 1.712 28.148.56c1.83-.212 9.055-.13 10.24-.126 4.155.012 10.65 6.88 15.284 8.328 1.78.556-.918-.374.781-.659 2.686-.45 9.764-.389 12.728 1.332z" id="d"/><filter x="-58.2%" y="-35.3%" width="216.4%" height="200.5%" filterUnits="objectBoundingBox" id="c"><feOffset dy="20" in="SourceAlpha" result="shadowOffsetOuter1"/><feGaussianBlur stdDeviation="19" in="shadowOffsetOuter1" result="shadowBlurOuter1"/><feColorMatrix values="0 0 0 0 0 0 0 0 0 0 0 0 0 0 0 0 0 0 0.251670063 0" in="shadowBlurOuter1"/></filter><path d="M57.583 9.434c4.84 2.81 8.915 11.117 13.51 15.018 4.632 3.932 11.128 4.61 15.282 9.423 4.12 4.772 4.694 12.272 8.115 17.683 3.422 5.41 10.584 10.145 12.962 15.648 2.398 5.55-.694 10.253.547 15.61 1.232 5.312 7.168 12.838 7.168 17.68 0 4.842-5.936 5.472-7.168 9.355-1.241 3.914 1.851 12.21-.547 14.974-2.378 2.74-9.54-.844-12.962.593-3.421 1.436-3.996 8.269-8.115 8.256-4.154-.013-10.65-6.88-15.283-8.328-4.594-1.436-8.67 2.137-13.509-.674-4.839-2.81-8.914-11.116-13.509-15.017-4.632-3.932-11.128-4.61-15.282-9.423-4.12-4.772-4.694-12.272-8.116-17.683-3.421-5.41-10.583-10.145-12.961-15.648-2.398-5.55.694-10.253-.548-15.61C5.936 45.979 0 38.453 0 33.61c0-4.842 5.936-5.473 7.167-9.355 1.242-3.914-1.85-12.21.548-14.974 2.378-2.74 9.54.844 12.961-.593C24.098 7.253 24.672.42 28.792.433c4.154.012 10.65 6.88 15.282 8.328 4.595 1.436 8.67-2.137 13.51.673z" id="e"/><path id="f" d="M.191.266L116 66.913v3.983L.191 4.241z"/><path d="M31.022 197.058v3.718c-.455.142-1.521.663-3.991-.752-2.483-1.422-4.667-4.31-4.667-7.3s2.184-3.365 4.693-1.928c2.379 1.362 3.406 3.198 3.692 3.674l-1.391.413c-.377-.632-1.079-1.645-2.301-2.345-1.443-.826-2.561-.414-2.561 1.406 0 1.82 1.144 3.528 2.6 4.362 1.456.834 1.872.5 1.872.5v-1.326l-1.885-1.08v-1.598l3.939 2.256zm10.183 6.455c0 1.742-.702 2.38-1.456 2.585-.74.2-1.898-.02-3.458-.914l-3.042-1.742v-8.97l3.042 1.742c1.56.893 2.717 1.998 3.458 3.06.754 1.055 1.456 2.497 1.456 4.24zm-2.132-1.22c0-1.106-.416-1.981-.793-2.56-.377-.568-1-1.211-1.872-1.71l-1.066-.61v5.447l1.066.61c.871.499 1.495.57 1.872.422.377-.135.793-.495.793-1.6zm10.56 4.383c0 .962-.337 1.457-.935 1.622-.598.151-1.417-.136-2.34-.664L45.253 207v3.315l-2.106-1.206v-8.97l3.21 1.839c.924.528 1.743 1.18 2.34 2.016.599.836.937 1.719.937 2.68zm-2.131-1.221c0-.455-.182-.871-.43-1.195-.26-.33-.558-.567-1.013-.828l-.82-.469v2.405l.82.47c.455.26.754.366 1.014.333.247-.04.429-.261.429-.716zm8.74 7.45l2.275 5.007-2.444-1.4-1.885-4.511-.663-.38v3.432l-2.106-1.206v-8.97l3.224 1.846c1.001.574 1.781 1.228 2.366 1.992.598.785.988 1.723.988 2.62 0 1.703-1.092 1.74-1.755 1.57zm-.364-2.705c0-.455-.182-.82-.455-1.17-.26-.345-.598-.577-1.079-.853l-.832-.476v2.3l.832.477c.481.276.819.417 1.079.371.273-.039.455-.181.455-.65z" id="i"/><filter x="-9.7%" y="-9%" width="119.4%" height="125.1%" filterUnits="objectBoundingBox" id="h"><feOffset dy="1" in="SourceAlpha" result="shadowOffsetOuter1"/><feGaussianBlur stdDeviation="1" in="shadowOffsetOuter1" result="shadowBlurOuter1"/><feColorMatrix values="0 0 0 0 0 0 0 0 0 0 0 0 0 0 0 0 0 0 0.121744792 0" in="shadowBlurOuter1"/></filter><path d="M67.18 9.434c4.84 2.81 8.915 11.117 13.51 15.018 4.632 3.932 11.128 4.61 15.282 9.423 4.12 4.772 4.694 12.272 8.116 17.683 3.421 5.41 10.583 10.145 12.961 15.648 2.398 5.55-.694 10.253.548 15.61 1.23 5.312 7.167 12.838 7.167 17.68 0 4.842-5.936 5.472-7.167 9.355-1.242 3.914 1.85 12.21-.548 14.974-1.05 1.211-9.618.873-11.802.593-2.757-.354.75-.802-1.16 0-3.421 1.436-3.995 8.269-8.115 8.256-1.167-.003-8.51.122-10.685-.254-4.062-.704-1.266-7.032-4.598-8.074-4.594-1.436-8.67 2.137-13.508-.674-4.84-2.81-8.915-11.116-13.51-15.017-4.632-3.932-11.128-4.61-15.282-9.423-4.12-4.772-4.694-12.272-8.116-17.683-3.421-5.41-10.583-10.145-12.961-15.648-2.398-5.55.694-10.253-.548-15.61-1.23-5.312-7.167-12.838-7.167-17.68 0-4.842 5.936-5.473 7.167-9.355 1.242-3.914-1.85-12.21.548-14.974 2.378-2.74 9.54.844 12.961-.593C32.71 7.666 25.77 1.712 28.148.56c1.83-.212 9.055-.13 10.24-.126 4.155.012 10.65 6.88 15.284 8.328 1.78.556-.918-.374.781-.659 2.686-.45 9.764-.389 12.728 1.332z" id="k"/><filter x="-58.2%" y="-35.3%" width="216.4%" height="200.5%" filterUnits="objectBoundingBox" id="j"><feOffset dy="20" in="SourceAlpha" result="shadowOffsetOuter1"/><feGaussianBlur stdDeviation="19" in="shadowOffsetOuter1" result="shadowBlurOuter1"/><feColorMatrix values="0 0 0 0 0 0 0 0 0 0 0 0 0 0 0 0 0 0 0.251670063 0" in="shadowBlurOuter1"/></filter><path d="M57.583 9.434c4.84 2.81 8.915 11.117 13.51 15.018 4.632 3.932 11.128 4.61 15.282 9.423 4.12 4.772 4.694 12.272 8.115 17.683 3.422 5.41 10.584 10.145 12.962 15.648 2.398 5.55-.694 10.253.547 15.61 1.232 5.312 7.168 12.838 7.168 17.68 0 4.842-5.936 5.472-7.168 9.355-1.241 3.914 1.851 12.21-.547 14.974-2.378 2.74-9.54-.844-12.962.593-3.421 1.436-3.996 8.269-8.115 8.256-4.154-.013-10.65-6.88-15.283-8.328-4.594-1.436-8.67 2.137-13.509-.674-4.839-2.81-8.914-11.116-13.509-15.017-4.632-3.932-11.128-4.61-15.282-9.423-4.12-4.772-4.694-12.272-8.116-17.683-3.421-5.41-10.583-10.145-12.961-15.648-2.398-5.55.694-10.253-.548-15.61C5.936 45.979 0 38.453 0 33.61c0-4.842 5.936-5.473 7.167-9.355 1.242-3.914-1.85-12.21.548-14.974 2.378-2.74 9.54.844 12.961-.593C24.098 7.253 24.672.42 28.792.433c4.154.012 10.65 6.88 15.282 8.328 4.595 1.436 8.67-2.137 13.51.673z" id="l"/><path id="m" d="M.191.266L116 66.913v3.983L.191 4.241z"/><path id="o" d="M0 0l115.809 66.647v3.984L0 3.975z"/><path d="M22.106 195.166v8.97L20 202.97V194l2.106 1.166zm8.454 10.923c0 .858-.403 1.415-1.053 1.562-.637.154-1.469-.073-2.43-.606-1.3-.72-2.458-2.036-3.186-3.116l1.04-.958c.65 1.036 1.651 2.046 2.34 2.427.676.375 1.196.338 1.196-.26 0-.611-.663-1.212-1.053-1.571-.39-.36-1.066-.968-1.365-1.263-.22-.227-.676-.648-1.066-1.24-.39-.58-.702-1.274-.702-2.119 0-.858.416-1.303.936-1.444.507-.148 1.326.02 2.366.595 1.04.576 2.236 1.733 2.847 2.682l-.897.972c-.52-.808-1.326-1.644-2.002-2.019-.676-.374-1.17-.388-1.17.158s.507 1.035.91 1.414c.39.372 1.053.974 1.34 1.249.246.228.844.793 1.247 1.42.377.585.702 1.311.702 2.117zm10.938 4.316c0 2.899-2.093 3.469-4.758 1.993-2.665-1.476-4.758-4.365-4.758-7.264s2.093-3.481 4.758-2.005 4.758 4.377 4.758 7.276zm-2.132-1.233c0-1.703-1.131-3.421-2.626-4.25-1.495-.827-2.626-.375-2.626 1.341s1.13 3.435 2.626 4.263c1.495.828 2.626.362 2.626-1.354zm14.165 10.745v1.625l-6.578-3.643-.247-1.463 3.042-1.058c.845-.3 1.352-.603 1.352-1.37 0-.767-.559-1.571-1.443-2.06-.897-.497-1.677-.344-2.17.006l-.885-1.868c.117-.208 1.222-.805 3.25.318 2.028 1.124 3.263 2.887 3.263 4.46s-1.17 1.86-1.885 2.102l-1.859.647 4.16 2.304zm8.156-2.828l.572 1.565-3.991 5.511-2.21-1.224 3.939-5.176-4.706-2.606v-1.612l6.396 3.542zm9.247 9.62c0 2.366-1.105 4.016-3.718 2.569-2.626-1.455-3.718-4.322-3.718-6.688 0-2.366 1.105-4.016 3.718-2.568 2.613 1.447 3.718 4.321 3.718 6.687zm-2.067-1.184c0-1.612-.494-3.107-1.651-3.748s-1.651.307-1.651 1.92c0 1.611.494 3.133 1.651 3.774 1.157.64 1.651-.334 1.651-1.946zm10.963 6.111c0 2.366-1.105 4.016-3.718 2.57-2.626-1.455-3.718-4.322-3.718-6.688 0-2.366 1.105-4.016 3.718-2.569s3.718 4.321 3.718 6.687zm-2.067-1.183c0-1.612-.494-3.108-1.65-3.749-1.158-.64-1.652.308-1.652 1.92 0 1.612.494 3.133 1.651 3.774s1.651-.333 1.651-1.945zm7.675-.209v8.97l-2.028-1.123v-7.527l-1.625-.9v-1.443l3.653 2.023z" id="r"/><filter x="-5.3%" y="-5.5%" width="110.7%" height="115.5%" filterUnits="objectBoundingBox" id="q"><feOffset dy="1" in="SourceAlpha" result="shadowOffsetOuter1"/><feGaussianBlur stdDeviation="1" in="shadowOffsetOuter1" result="shadowBlurOuter1"/><feColorMatrix values="0 0 0 0 0 0 0 0 0 0 0 0 0 0 0 0 0 0 0.121744792 0" in="shadowBlurOuter1"/></filter><path d="M67.18 9.434c4.84 2.81 8.915 11.117 13.51 15.018 4.632 3.932 11.128 4.61 15.282 9.423 4.12 4.772 4.694 12.272 8.116 17.683 3.421 5.41 10.583 10.145 12.961 15.648 2.398 5.55-.694 10.253.548 15.61 1.23 5.312 7.167 12.838 7.167 17.68 0 4.842-5.936 5.472-7.167 9.355-1.242 3.914 1.85 12.21-.548 14.974-1.05 1.211-9.618.873-11.802.593-2.757-.354.75-.802-1.16 0-3.421 1.436-3.995 8.269-8.115 8.256-1.167-.003-8.51.122-10.685-.254-4.062-.704-1.266-7.032-4.598-8.074-4.594-1.436-8.67 2.137-13.508-.674-4.84-2.81-8.915-11.116-13.51-15.017-4.632-3.932-11.128-4.61-15.282-9.423-4.12-4.772-4.694-12.272-8.116-17.683-3.421-5.41-10.583-10.145-12.961-15.648-2.398-5.55.694-10.253-.548-15.61-1.23-5.312-7.167-12.838-7.167-17.68 0-4.842 5.936-5.473 7.167-9.355 1.242-3.914-1.85-12.21.548-14.974 2.378-2.74 9.54.844 12.961-.593C32.71 7.666 25.77 1.712 28.148.56c1.83-.212 9.055-.13 10.24-.126 4.155.012 10.65 6.88 15.284 8.328 1.78.556-.918-.374.781-.659 2.686-.45 9.764-.389 12.728 1.332z" id="t"/><filter x="-58.2%" y="-35.3%" width="216.4%" height="200.5%" filterUnits="objectBoundingBox" id="s"><feOffset dy="20" in="SourceAlpha" result="shadowOffsetOuter1"/><feGaussianBlur stdDeviation="19" in="shadowOffsetOuter1" result="shadowBlurOuter1"/><feColorMatrix values="0 0 0 0 0 0 0 0 0 0 0 0 0 0 0 0 0 0 0.251670063 0" in="shadowBlurOuter1"/></filter><path d="M57.583 9.434c4.84 2.81 8.915 11.117 13.51 15.018 4.632 3.932 11.128 4.61 15.282 9.423 4.12 4.772 4.694 12.272 8.115 17.683 3.422 5.41 10.584 10.145 12.962 15.648 2.398 5.55-.694 10.253.547 15.61 1.232 5.312 7.168 12.838 7.168 17.68 0 4.842-5.936 5.472-7.168 9.355-1.241 3.914 1.851 12.21-.547 14.974-2.378 2.74-9.54-.844-12.962.593-3.421 1.436-3.996 8.269-8.115 8.256-4.154-.013-10.65-6.88-15.283-8.328-4.594-1.436-8.67 2.137-13.509-.674-4.839-2.81-8.914-11.116-13.509-15.017-4.632-3.932-11.128-4.61-15.282-9.423-4.12-4.772-4.694-12.272-8.116-17.683-3.421-5.41-10.583-10.145-12.961-15.648-2.398-5.55.694-10.253-.548-15.61C5.936 45.979 0 38.453 0 33.61c0-4.842 5.936-5.473 7.167-9.355 1.242-3.914-1.85-12.21.548-14.974 2.378-2.74 9.54.844 12.961-.593C24.098 7.253 24.672.42 28.792.433c4.154.012 10.65 6.88 15.282 8.328 4.595 1.436 8.67-2.137 13.51.673z" id="u"/><path d="M26.877 199.18c0 .859-.403 1.41-1.053 1.547-.637.145-1.469-.095-2.431-.642-1.3-.739-2.457-2.073-3.185-3.163l1.04-.942c.65 1.045 1.651 2.07 2.34 2.461.676.385 1.196.355 1.196-.243 0-.61-.663-1.222-1.053-1.586-.39-.365-1.066-.984-1.365-1.284-.221-.23-.676-.657-1.066-1.256-.39-.586-.702-1.283-.702-2.128 0-.858.416-1.297.936-1.43.507-.141 1.326.038 2.366.63 1.04.591 2.236 1.765 2.847 2.724l-.897.959c-.52-.816-1.326-1.664-2.002-2.049-.676-.384-1.17-.405-1.17.14 0 .547.507 1.043.91 1.428.39.378 1.053.99 1.339 1.269.247.231.845.805 1.248 1.437.377.592.702 1.323.702 2.129zm10.937 4.478c0 2.899-2.093 3.438-4.758 1.922-2.665-1.515-4.758-4.434-4.758-7.333 0-2.9 2.093-3.451 4.758-1.936 2.665 1.516 4.758 4.448 4.758 7.347zm-2.132-1.264c0-1.703-1.13-3.439-2.626-4.289-1.495-.85-2.626-.414-2.626 1.302s1.131 3.451 2.626 4.301c1.495.85 2.626.402 2.626-1.314zm10.86 7.995l.702 2.037c-.455.21-1.404.423-3.237-.619-2.64-1.5-4.706-4.418-4.706-7.304 0-2.899 2.093-3.438 4.706-1.952 1.846 1.05 2.847 2.386 3.08 2.766l-.65 1.372c-.168-.317-1.13-1.579-2.313-2.251-1.521-.865-2.691-.517-2.691 1.238s1.222 3.451 2.69 4.287c1.119.635 1.925.652 2.419.426zm9.195 6.307v1.625l-6.578-3.74-.247-1.467 3.042-1.013c.845-.286 1.352-.583 1.352-1.35 0-.767-.559-1.579-1.443-2.081-.897-.51-1.677-.37-2.171-.026l-.884-1.88c.117-.207 1.222-.788 3.25.365 2.028 1.154 3.263 2.935 3.263 4.508s-1.17 1.844-1.885 2.074l-1.859.62 4.16 2.365zm11.41-.857v1.664l-2.314-1.315v7.306l-2.106-1.198v-7.306l-2.314-1.316v-1.664l6.734 3.83zm6.673 3.795l2.34 1.33-3.12 3.57v3.627l-2.106-1.198v-3.627l-3.12-7.117 2.34 1.33 1.833 4.618 1.833-2.533zm10.261 8.656c0 .962-.338 1.459-.936 1.626-.598.154-1.417-.13-2.34-.655l-1.105-.628v3.315l-2.106-1.198v-8.97l3.211 1.826c.923.525 1.742 1.173 2.34 2.007.598.834.936 1.715.936 2.677zm-2.132-1.212c0-.455-.182-.87-.429-1.193-.26-.33-.559-.565-1.014-.824l-.819-.465V227l.82.465c.454.259.753.364 1.013.33.247-.042.43-.263.43-.718zm9.846 10.044v1.703l-5.928-3.37v-8.97l5.81 3.304v1.677l-3.717-2.115v1.833l3.51 1.996v1.677l-3.51-1.996v2.08l3.835 2.181zm7.483-3.011v8.97l-2.106-1.198v-8.97l2.106 1.198zm4.503 2.56v8.97l-2.106-1.198v-8.97l2.106 1.198z" id="x"/><filter x="-4.2%" y="-4.5%" width="108.4%" height="112.7%" filterUnits="objectBoundingBox" id="w"><feOffset dy="1" in="SourceAlpha" result="shadowOffsetOuter1"/><feGaussianBlur stdDeviation="1" in="shadowOffsetOuter1" result="shadowBlurOuter1"/><feColorMatrix values="0 0 0 0 0 0 0 0 0 0 0 0 0 0 0 0 0 0 0.121744792 0" in="shadowBlurOuter1"/></filter><path d="M67.18 9.434c4.84 2.81 8.915 11.117 13.51 15.018 4.632 3.932 11.128 4.61 15.282 9.423 4.12 4.772 4.694 12.272 8.116 17.683 3.421 5.41 10.583 10.145 12.961 15.648 2.398 5.55-.694 10.253.548 15.61 1.23 5.312 7.167 12.838 7.167 17.68 0 4.842-5.936 5.472-7.167 9.355-1.242 3.914 1.85 12.21-.548 14.974-1.05 1.211-9.618.873-11.802.593-2.757-.354.75-.802-1.16 0-3.421 1.436-3.995 8.269-8.115 8.256-1.167-.003-8.51.122-10.685-.254-4.062-.704-1.266-7.032-4.598-8.074-4.594-1.436-8.67 2.137-13.508-.674-4.84-2.81-8.915-11.116-13.51-15.017-4.632-3.932-11.128-4.61-15.282-9.423-4.12-4.772-4.694-12.272-8.116-17.683-3.421-5.41-10.583-10.145-12.961-15.648-2.398-5.55.694-10.253-.548-15.61-1.23-5.312-7.167-12.838-7.167-17.68 0-4.842 5.936-5.473 7.167-9.355 1.242-3.914-1.85-12.21.548-14.974 2.378-2.74 9.54.844 12.961-.593C32.71 7.666 25.77 1.712 28.148.56c1.83-.212 9.055-.13 10.24-.126 4.155.012 10.65 6.88 15.284 8.328 1.78.556-.918-.374.781-.659 2.686-.45 9.764-.389 12.728 1.332z" id="z"/><filter x="-58.2%" y="-35.3%" width="216.4%" height="200.5%" filterUnits="objectBoundingBox" id="y"><feOffset dy="20" in="SourceAlpha" result="shadowOffsetOuter1"/><feGaussianBlur stdDeviation="19" in="shadowOffsetOuter1" result="shadowBlurOuter1"/><feColorMatrix values="0 0 0 0 0 0 0 0 0 0 0 0 0 0 0 0 0 0 0.251670063 0" in="shadowBlurOuter1"/></filter><path d="M57.583 9.434c4.84 2.81 8.915 11.117 13.51 15.018 4.632 3.932 11.128 4.61 15.282 9.423 4.12 4.772 4.694 12.272 8.115 17.683 3.422 5.41 10.584 10.145 12.962 15.648 2.398 5.55-.694 10.253.547 15.61 1.232 5.312 7.168 12.838 7.168 17.68 0 4.842-5.936 5.472-7.168 9.355-1.241 3.914 1.851 12.21-.547 14.974-2.378 2.74-9.54-.844-12.962.593-3.421 1.436-3.996 8.269-8.115 8.256-4.154-.013-10.65-6.88-15.283-8.328-4.594-1.436-8.67 2.137-13.509-.674-4.839-2.81-8.914-11.116-13.509-15.017-4.632-3.932-11.128-4.61-15.282-9.423-4.12-4.772-4.694-12.272-8.116-17.683-3.421-5.41-10.583-10.145-12.961-15.648-2.398-5.55.694-10.253-.548-15.61C5.936 45.979 0 38.453 0 33.61c0-4.842 5.936-5.473 7.167-9.355 1.242-3.914-1.85-12.21.548-14.974 2.378-2.74 9.54.844 12.961-.593C24.098 7.253 24.672.42 28.792.433c4.154.012 10.65 6.88 15.282 8.328 4.595 1.436 8.67-2.137 13.51.673z" id="A"/><path id="B" d="M0 0l115.809 66.647v3.984L0 3.975z"/></defs><g fill="none" fill-rule="evenodd"><path fill="#F6F8FB" d="M.75 615.322L0 614.024l168.51-97.528.75 1.299zM80.95 553.012l-.75-1.299L211.024 476l.75 1.298zM392.75 535.322l-.75-1.298 168.51-97.528.75 1.299zM472.95 473.012l-.75-1.299L603.024 396l.75 1.298zM352.95 161.012l-.75-1.299L483.024 84l.75 1.298zM280.95 217.012l-.75-1.299L411.024 140l.75 1.298zM128.95 153.012l-.75-1.299L259.024 76l.75 1.298z"/><path d="M537 351.74c0 9.221-6.445 12.92-14.325 8.219l-111.663-63.596c-7.88-4.7-14.41-16.09-14.504-25.313l-1.507-160.754c-.099-9.223 6.279-12.953 14.177-8.279l113.461 63.78c7.898 4.67 14.361 16.037 14.361 25.26v160.682zM537 601.74c0 9.221-6.445 12.92-14.325 8.219l-111.663-63.596c-7.88-4.7-14.41-16.09-14.504-25.313l-1.507-160.754c-.099-9.223 6.279-12.953 14.177-8.279l113.461 63.78c7.898 4.67 14.361 16.037 14.361 25.26v160.682zM355 251.74c0 9.221-6.445 12.92-14.325 8.219l-111.663-63.596c-7.88-4.7-14.41-16.09-14.504-25.313l-1.507-160.754c-.099-9.223 6.279-12.953 14.177-8.279l113.461 63.78C348.537 70.468 355 81.835 355 91.058v160.682zM355 501.74c0 9.221-6.445 12.92-14.325 8.219l-111.663-63.596c-7.88-4.7-14.41-16.09-14.504-25.313l-1.507-160.754c-.099-9.223 6.279-12.953 14.177-8.279l113.461 63.78c7.898 4.67 14.361 16.037 14.361 25.26v160.682z" fill="#EBF4FF" opacity=".25"/><path d="M513 367.74c0 9.221-6.445 12.92-14.325 8.219l-111.663-63.596c-7.88-4.7-14.41-16.09-14.504-25.313l-1.507-160.754c-.099-9.223 6.279-12.953 14.177-8.279l113.461 63.78c7.898 4.67 14.361 16.037 14.361 25.26v160.682z" fill="#ACD2FF" opacity=".25"/><path d="M493 409.079c0 10.224-7.182 14.324-15.963 9.112l-124.431-70.503c-8.781-5.213-16.058-17.84-16.163-28.064l-1.679-178.218c-.11-10.224 6.997-14.36 15.798-9.178l126.435 70.71C485.798 208.113 493 220.715 493 230.94V409.08z" fill="#107EFF"/><path d="M487.438 234.71c0-10.228-7.194-22.83-15.986-28.009l-126.014-71.048c-3.11-1.833-6.006-2.48-8.447-2.119 2.631-4.302 7.908-5.194 14.009-1.602l126.014 71.048c8.792 5.179 15.986 17.785 15.986 28.013V409.08c0 6.566-2.966 10.593-7.409 11.265 1.173-1.889 1.847-4.428 1.847-7.544V234.71z" fill="#00499F"/><path d="M453.396 369.427c0 1.599-.442 2.566-1.053 2.963-.572.368-1.391.34-2.535-.354-1.56-.946-2.366-2.162-2.6-2.499l.533-.509c.364.559 1.118 1.419 2.041 1.978.767.465 1.248.484 1.651.182.442-.317.754-1.077.754-2.442-.299.43-1.014.711-2.431-.147-1.404-.851-2.756-2.711-2.756-4.427 0-1.729 1.17-2.385 3.055-1.242 1.625.985 2.392 2.464 2.717 3.194.299.662.624 1.782.624 3.303zm-1.43-2.4c0-1.015-.637-2.35-1.885-3.106-1.235-.75-1.859-.178-1.859.836s.624 2.34 1.859 3.09c1.248.756 1.885.193 1.885-.82zm9.395 8.983c0 1.963-1.625 2.044-3.315 1.02-1.69-1.025-2.626-2.528-2.95-3.297l.701-.303c.39.9 1.235 1.945 2.236 2.552 1.014.614 2.08.637 2.08-.728s-1.053-2.628-2.08-3.25c-.585-.355-1.235-.58-1.586-.48l-.637-.764.78-3.739 4.511 2.734v1.014l-3.6-2.182-.469 2.095c.351.057.78.239 1.274.538 1.456.883 3.055 2.827 3.055 4.79zm10.956 7.512c0 1.287-.897 1.614-2.12.873-1.221-.74-2.118-2.155-2.118-3.442 0-1.287.897-1.615 2.119-.874 1.222.74 2.119 2.156 2.119 3.443zm-2.21-8.516l.65.784-5.551 5.722-.65-.784 5.55-5.722zm-2.873.56c0 1.286-.897 1.627-2.12.886-1.221-.74-2.118-2.168-2.118-3.455 0-1.274.897-1.615 2.119-.874 1.222.74 2.119 2.168 2.119 3.442zm4.173 7.39c0-.78-.468-1.635-1.21-2.084-.74-.45-1.208-.16-1.208.62 0 .792.468 1.635 1.209 2.084.74.45 1.209.174 1.209-.62zm-5.083-7.942c0-.793-.468-1.636-1.21-2.085-.74-.45-1.208-.174-1.208.62 0 .78.468 1.622 1.209 2.071.74.45 1.209.174 1.209-.606z" fill="#ACD2FF"/><g transform="translate(334 116)"><use fill="#000" filter="url(#a)" xlink:href="#b"/><use fill="#FFF" xlink:href="#b"/></g><g transform="translate(349.396 191.222)"><use fill="#000" filter="url(#c)" xlink:href="#d"/><use fill="#00499F" xlink:href="#d"/></g><use fill="#107EFF" xlink:href="#e" transform="translate(349.396 191.222)"/><path d="M406.396 302.662c24.853 14.05 45 6.412 45-17.06 0-23.473-20.147-53.89-45-67.94-24.853-14.05-45-6.412-45 17.06 0 23.472 20.147 53.89 45 67.94z" stroke-opacity=".23" stroke="#FFF" stroke-width="2.5"/><path fill="#FFF" d="M405.38 235.338l2.516 1.422v37.5l-2.515-1.422zM405.38 277.838l2.516 1.422v25l-2.515-1.422z"/><path d="M406.638 237.299c-3.467-1.96-6.288-6.359-6.288-9.805 0-3.446 2.821-4.655 6.288-2.695 3.467 1.96 6.288 6.358 6.288 9.805 0 3.446-2.82 4.655-6.288 2.695zm0-10c-2.08-1.176-3.772-.45-3.772 1.617 0 2.068 1.692 4.707 3.772 5.883 2.08 1.176 3.773.45 3.773-1.617 0-2.068-1.693-4.707-3.773-5.883z" fill="#FFF" fill-rule="nonzero"/><path d="M406.638 304.799c-4.161-2.353-7.545-7.63-7.545-11.766 0-1.637.522-2.898 1.51-3.647l2.011 2.638c-.659.499-1.006 1.34-1.006 2.431 0 2.758 2.256 6.276 5.03 7.844 2.774 1.568 5.03.601 5.03-2.156 0-2.228-2.156-4.676-4.977-7.644l-.615-.65 1.126-1.6.597.631c2.542 2.676 6.385 6.72 6.385 10.685 0 4.136-3.384 5.586-7.546 3.234z" fill="#FFF"/><path d="M406.076 291.85a93.845 93.845 0 0 0-.753-.79c-3.057-3.187-8.745-9.116-8.745-14.449 0-3.985 3.536-4.063 5.647-4.11l1.28 2.877c-2.414.052-4.412.289-4.412 2.655 0 3.759 4.76 8.721 7.318 11.387.29.303.555.58.79.83l-1.125 1.6zM412.23 292.83l-1.125-2.873c2.073.141 3.079-.969 3.079-3.392 0-3.698-4.87-8.814-7.488-11.562l-.621-.654 1.125-1.6.599.631c2.889 3.033 8.9 9.346 8.9 14.606 0 3.368-1.546 5.042-4.468 4.843z" fill="#FFF"/><path d="M406.638 274.946l-1.162-1.229c-3.04-3.19-10.156-10.655-10.156-16.567 0-5.708 4.381-6.273 7.546-4.484v2.5c-1.755-.992-5.03-1.01-5.03 3.406 0 4.348 6.125 10.776 8.74 13.52l.062.064.062.007c2.616.212 8.741.71 8.741-3.637 0-4.417-3.276-8.102-5.03-9.094v-2.5c3.164 1.788 7.545 7.307 7.545 13.015 0 5.912-7.116 5.33-10.156 5.084l-1.162-.085zM402.866 250.166l-5.03-2.844c-12.8-7.236-27.764-19.531-31.376-32.342-.128-.454-.063-.837.174-1.028.236-.191.616-.17 1.02.058 10.672 6.034 14.503 5.924 17.58 5.835 1.94-.055 3.613-.104 6.313 1.423 3.35 1.894 6.288 6.476 6.288 9.804v3.75c0 1.38 1.128 3.138 2.515 3.922l2.516 1.422v2.5l-2.516-1.422c-2.774-1.568-5.03-5.086-5.03-7.844v-3.75c0-2.11-2.028-4.896-3.773-5.882-2.004-1.134-3.27-1.097-5.022-1.047-2.986.086-7.011.201-16.986-5.17 2.974 7.396 11.682 17.88 28.296 27.271l5.03 2.844v2.5z" fill="#FFF"/><path fill="#FFF" d="M392.805 238.229l2.515 1.421v5l-2.515-1.421zM387.775 234.135l2.515 1.422v6.25l-2.515-1.422zM382.744 230.041l2.515 1.422v6.25l-2.515-1.422zM377.714 225.947l2.515 1.422v5l-2.515-1.422zM415.441 257.276l-5.03-2.844v-2.5l5.03 2.844c16.614 9.392 25.323 8.755 28.297 4.721-9.976-5.908-14-10.575-16.986-14.036-1.752-2.03-3.018-3.498-5.023-4.63-1.744-.987-3.773-.495-3.773 1.616v3.75c0 2.758-2.256 3.725-5.03 2.157l-2.515-1.422v-2.5l2.515 1.422c1.387.784 2.515.3 2.515-1.078v-3.75c0-3.33 2.938-4.59 6.288-2.696 2.699 1.526 4.374 3.468 6.313 5.715 3.077 3.569 6.908 8.01 17.581 14.043.404.228.784.636 1.02 1.095.236.46.3.917.174 1.225-3.612 8.727-18.576 4.103-31.376-3.132z"/><path fill="#FFF" d="M417.956 252.447l2.516 1.422v5l-2.516-1.422zM422.987 254.041l2.515 1.422v6.25l-2.515-1.422zM428.017 255.635l2.515 1.422v6.25l-2.515-1.422zM433.047 257.229l2.515 1.422v5l-2.515-1.422z"/><g transform="translate(356 326)"><mask id="g" fill="#fff"><use xlink:href="#f"/></mask><use fill="#00499F" xlink:href="#f"/><path fill="#2ECC71" mask="url(#g)" d="M.191.266l108.371 54.58v17.782L.192 14.116z"/></g><g><path d="M513 617.74c0 9.221-6.445 12.92-14.325 8.219l-111.663-63.596c-7.88-4.7-14.41-16.09-14.504-25.313l-1.507-160.754c-.099-9.223 6.279-12.953 14.177-8.279l113.461 63.78c7.898 4.67 14.361 16.037 14.361 25.26v160.682z" fill="#ACD2FF" opacity=".25"/><path d="M493 655.079c0 10.224-7.182 14.324-15.963 9.112l-124.431-70.504c-8.781-5.212-16.058-17.839-16.163-28.063l-1.679-178.218c-.11-10.224 6.997-14.36 15.798-9.178l126.435 70.71C485.798 454.113 493 466.715 493 476.94V655.08z" fill="#107EFF"/><path d="M487.438 480.71c0-10.228-7.194-22.83-15.986-28.009l-126.014-71.048c-3.11-1.833-6.006-2.48-8.447-2.119 2.631-4.302 7.908-5.194 14.009-1.602l126.014 71.048c8.792 5.179 15.986 17.785 15.986 28.013V655.08c0 6.566-2.966 10.593-7.409 11.265 1.173-1.889 1.847-4.428 1.847-7.544V480.71z" fill="#00499F"/><g transform="translate(334 366)"><use fill="#000" filter="url(#h)" xlink:href="#i"/><use fill="#FFF" xlink:href="#i"/></g><path d="M443.977 604.003v8.97l-1.222-.737v-8.047L441 603.131v-.923l2.977 1.795zm9.59 10.283c0 2.327-1.014 4.003-3.432 2.545-2.418-1.459-3.432-4.358-3.432-6.685 0-2.34 1.027-4.009 3.432-2.558 2.418 1.458 3.432 4.358 3.432 6.698zm-1.274-.795c0-2.054-.715-3.967-2.158-4.837-1.443-.87-2.158.18-2.158 2.234 0 2.041.715 3.967 2.158 4.838 1.443.87 2.158-.194 2.158-2.235zm9.357 5.67c0 2.326-1.014 4.003-3.432 2.544-2.418-1.458-3.432-4.358-3.432-6.685 0-2.34 1.027-4.008 3.432-2.558 2.418 1.459 3.432 4.358 3.432 6.698zm-1.274-.795c0-2.054-.715-3.967-2.158-4.838-1.443-.87-2.158.18-2.158 2.235 0 2.04.715 3.967 2.158 4.837 1.443.87 2.158-.193 2.158-2.234zm11.839 9.636c0 1.287-.897 1.617-2.12.88-1.221-.737-2.118-2.149-2.118-3.436s.897-1.617 2.119-.88c1.222.737 2.119 2.15 2.119 3.436zm-2.21-8.509l.65.782-5.551 5.74-.65-.783 5.55-5.739zm-2.873.569c0 1.287-.897 1.63-2.12.893-1.221-.737-2.118-2.162-2.118-3.45 0-1.273.897-1.616 2.119-.88 1.222.738 2.119 2.163 2.119 3.437zm4.173 7.378c0-.78-.468-1.634-1.21-2.08-.74-.448-1.208-.158-1.208.622 0 .793.468 1.634 1.209 2.081.74.447 1.209.17 1.209-.623zm-5.083-7.927c0-.793-.468-1.634-1.21-2.081-.74-.447-1.208-.17-1.208.622 0 .78.468 1.622 1.209 2.069.74.447 1.209.17 1.209-.61z" fill="#ACD2FF"/><g transform="translate(349.396 436.222)"><use fill="#000" filter="url(#j)" xlink:href="#k"/><use fill="#00499F" xlink:href="#k"/><use fill="#107EFF" xlink:href="#l"/></g><path fill="#FFFFFE" d="M404.53 475.617l3.364-.739 3.365 4.434-1.28-4.885 3.417-.71-4.212-2.312-1.29-4.941-1.289 3.53-4.21-2.317 3.415 4.461zM388.533 469.83l3.364-.737 3.362 4.432-1.278-4.882 3.415-.71-4.213-2.313-1.289-4.943-1.288 3.532-4.21-2.317 3.414 4.46zM377.896 465.989l-1.29 3.532-4.21-2.318 3.415 4.46-1.28 3.478 3.365-.737 3.365 4.433-1.28-4.884 3.415-.708-4.21-2.313zM372.897 488.659l3.362 4.43-1.278-4.88 3.415-.71-4.21-2.312-1.289-4.944-1.29 3.537-4.211-2.322 3.417 4.461-1.28 3.477zM379.185 504.932l-1.29-4.943-1.289 3.532-4.21-2.318 3.415 4.46-1.28 3.478 3.365-.741 3.365 4.437-1.28-4.884 3.415-.708zM393.184 525.617l-1.29-4.94-1.286 3.53-4.212-2.318 3.415 4.461-1.278 3.48 3.364-.738 3.362 4.433-1.278-4.884 3.415-.71zM409.184 537.408l-1.289-4.944-1.287 3.533-4.212-2.318 3.415 4.46-1.278 3.479 3.364-.738 3.362 4.432-1.28-4.883 3.417-.708zM426.183 543.74l-1.287-4.939-1.292 3.528-4.208-2.316 3.413 4.46-1.278 3.48 3.365-.738 3.365 4.434-1.283-4.886 3.418-.709zM440.187 538.435l-1.291-4.945-1.292 3.53-4.208-2.315 3.418 4.461-1.283 3.476 3.365-.741 3.365 4.437-1.283-4.885 3.418-.707zM447.396 525.393l-4.211-2.312-1.291-4.945-1.287 3.534-4.211-2.318 3.416 4.461-1.278 3.478 3.36-.744 3.363 4.437-1.278-4.882zM435.53 508.642l3.366-.738 3.365 4.434-1.283-4.886 3.418-.704-4.209-2.312-1.291-4.946-1.291 3.533-4.21-2.317 3.418 4.459zM424.894 478.8l-1.287 3.533-4.211-2.322 3.412 4.463-1.278 3.479 3.368-.74 3.36 4.434-1.279-4.882 3.417-.713-4.216-2.315z"/><g transform="translate(356 571)"><mask id="n" fill="#fff"><use xlink:href="#m"/></mask><use fill="#107EFF" xlink:href="#m"/><path fill="#2ECC71" mask="url(#n)" d="M.191.266l120.371 65.14v21.222L.192 16.795z"/></g></g><g><path d="M331 267.74c0 9.221-6.445 12.92-14.325 8.219l-111.663-63.596c-7.88-4.7-14.41-16.09-14.504-25.313l-1.507-160.754c-.099-9.223 6.279-12.953 14.177-8.279l113.461 63.78c7.898 4.67 14.361 16.037 14.361 25.26v160.682z" fill="#ACD2FF" opacity=".25"/><path d="M315 311.079c0 10.224-7.182 14.324-15.963 9.112l-124.431-70.503c-8.781-5.213-16.058-17.84-16.163-28.064l-1.679-178.218c-.11-10.224 6.997-14.36 15.798-9.178l126.435 70.71C307.798 110.113 315 122.715 315 132.94V311.08z" fill="#107EFF"/><path d="M309.438 136.71c0-10.228-7.194-22.83-15.986-28.009L167.438 37.653c-3.11-1.833-6.006-2.48-8.447-2.119 2.631-4.302 7.908-5.194 14.009-1.602l126.014 71.048c8.792 5.179 15.986 17.785 15.986 28.013V311.08c0 6.566-2.966 10.593-7.409 11.265 1.173-1.889 1.847-4.428 1.847-7.544V136.71z" fill="#00499F"/><g transform="translate(176.191 227.266)"><mask id="p" fill="#fff"><use xlink:href="#o"/></mask><use fill="#00499F" xlink:href="#o"/><path fill="#2ECC71" mask="url(#p)" d="M0 0l70.727 33.834v17.781L0 13.85z"/></g><g transform="translate(156 16)"><use fill="#000" filter="url(#q)" xlink:href="#r"/><use fill="#FFF" xlink:href="#r"/></g><path d="M273.396 272.134c0 1.729-1.17 2.469-3.055 1.463-1.677-.896-2.431-2.364-2.717-2.998-.299-.654-.624-1.698-.624-3.258 0-1.625.442-2.611 1.053-3.039.598-.422 1.391-.44 2.574.191 1.378.736 2.184 1.83 2.522 2.257l-.533.56c-.546-.746-1.196-1.405-1.976-1.822-.78-.416-1.248-.38-1.664-.056-.416.324-.767 1.085-.767 2.45.325-.411 1.014-.732 2.431.024 1.417.757 2.756 2.512 2.756 4.228zm-1.222-.523c0-1.014-.624-2.296-1.859-2.955-1.248-.667-1.885-.058-1.885.956s.637 2.303 1.885 2.97c1.235.659 1.859.043 1.859-.97zm9.473 3.394c0 2.327-1.014 4.073-3.432 2.782-2.418-1.29-3.432-4.12-3.432-6.447 0-2.34 1.027-4.08 3.432-2.796 2.418 1.291 3.432 4.12 3.432 6.46zm-1.274-.706c0-2.054-.715-3.918-2.158-4.689-1.443-.77-2.158.33-2.158 2.384 0 2.041.715 3.918 2.158 4.688 1.443.77 2.158-.342 2.158-2.383zm11.84 8.816c0 1.287-.897 1.68-2.12 1.027-1.221-.652-2.118-2.002-2.118-3.29 0-1.286.897-1.678 2.119-1.026 1.222.652 2.119 2.002 2.119 3.29zm-2.21-8.356l.65.738-5.551 6.123-.65-.737 5.55-6.124zm-2.873.768c0 1.287-.897 1.692-2.12 1.04-1.221-.653-2.118-2.016-2.118-3.303 0-1.274.897-1.679 2.119-1.027 1.222.653 2.119 2.016 2.119 3.29zm4.173 7.09c0-.78-.468-1.602-1.21-1.998-.74-.396-1.208-.073-1.208.707 0 .793.468 1.601 1.209 1.997.74.396 1.209.087 1.209-.706zm-5.083-7.576c0-.793-.468-1.602-1.21-1.998-.74-.395-1.208-.086-1.208.707 0 .78.468 1.589 1.209 1.984.74.396 1.209.087 1.209-.693z" fill="#ACD2FF"/><g transform="translate(171.396 93.222)"><use fill="#000" filter="url(#s)" xlink:href="#t"/><use fill="#00499F" xlink:href="#t"/><mask id="v" fill="#fff"><use xlink:href="#u"/></mask><use fill="#107EFF" xlink:href="#u"/><path d="M61.388 104.339a29.803 29.803 0 0 1-4.008-2.282c-.495-.243-1.08-.628-1.666-1.014-10.81-7.142-20.763-18.609-26.978-31.908.45.307.99.44 1.44.883a93.038 93.038 0 0 0 3.649 6.622c1.171 1.817 2.252 3.537 3.513 5.088 1.171-.093 2.477.029 3.603-.045-1.396-2.585-2.837-5.196-3.873-7.709.315.047.9.433 1.351.785 1.126 2.337 2.342 4.727 3.783 7.065 1.937.397 3.829.722 5.81 1.327l.18-.077-1.126-3.293c.496.197.811.426 1.307.759.405 1.009.72 2.056 1.17 3.09 2.613.926 5.36 2.204 8.152 3.734.36-.109.09-.948.226-1.28l1.216.707c.135.533-.045.93.135 1.443 2.612 1.654 5.36 3.523 7.882 5.624l.225.086 1.216-1.66c.405.236.946.459 1.261.824l-1.126 1.984.09.143c2.072 1.75 4.008 3.693 5.99 5.663 1.396-.69 2.703-1.706 3.873-2.755.496.288.991.53 1.352.876a7.604 7.604 0 0 1-1.937 1.741c-.585.525-1.216.931-1.982 1.306v.227l3.153 3.696.45.444c2.748-.543 5.18-1.723 7.116-3.464.54.313.991.393 1.442.882-6.035 5.775-15.99 5.954-26.753.566l-.045-.117-.09.039zm4.64.647v-.09c-3.919-5.188-10.27-9.15-14.413-8.871-.225.05-.675-.12-.72.172 4.774 3.91 10.404 7.27 15.133 8.79zm12.385 1.643l-.09-.234-3.108-3.579-.225-.13c-2.387 1.07-5.18 1.586-8.017 1.621.09.37.541.86.856 1.27 3.783 1.197 7.342 1.535 10.584 1.052zM50.04 94.472c-2.792-3.396-5.54-7.084-8.062-11.096-1.216-.251-2.342-.223-3.423-.077v.09a73.037 73.037 0 0 0 9.323 10.237c.135.215.225.404.405.508v-.09c.36.118.63.684.946.594.27-.07.586-.07.81-.166zm23.645 6.864l-.09-.19c-1.757-1.793-3.558-3.567-5.495-5.1-1.396 1.6-2.927 3.12-4.639 4.447.63.73 1.397 1.447 2.072 2.204 2.928.199 5.765-.291 8.152-1.361zM53.417 94.75l-.135-.443c-1.712-3.177-3.063-6.327-4.414-9.432l-.18-.15c-1.847-.572-3.648-1.027-5.36-1.248l.09.326c2.477 3.85 5.09 7.368 7.972 10.588.676.12 1.351.285 2.027.359zm4.369 1.673c.135-2.287.045-5.069.045-7.57-1.262-.915-2.387-1.342-3.648-1.983-1.217-.524-2.748-1.277-3.964-1.574a84.501 84.501 0 0 0 4.684 9.862l2.883 1.265zm4.233 2.822c1.757-1.254 3.468-2.58 4.64-4.402-2.433-2.004-4.91-3.76-7.432-5.226-.09 2.36-.045 5.07 0 7.597.9.66 1.891 1.372 2.792 2.031zM48.598 42.323c-.45-.262-.946-.458-1.261-.778l1.126-2.03-.135-.215a117.538 117.538 0 0 1-5.946-5.59l-.18-.014c-1.26.677-2.477 1.518-3.468 2.489-.225.642-1.126-.336-1.621-.532 1.08-1.374 2.522-2.311 3.963-3.294-1.216-1.433-2.432-2.959-3.693-4.283-2.702.524-5.224 1.789-7.116 3.556-.54-.224-.9-.478-1.441-.837 3.243-3.303 8.287-4.922 13.556-4.546 0 0 0 .046.045.072.046.026.135-.013.046-.11 3.558.292 7.34 1.215 11.35 2.997 13.826 6.165 27.022 19.88 34.679 36.244a11.81 11.81 0 0 1-1.442-.837c-1.89-3.873-4.278-7.944-6.89-11.553-.09-.189-.36-.3-.45-.216-1.127.074-2.343-.041-3.423.059 1.44 2.611 2.837 5.196 3.918 7.78l-1.397-.811c-1.125-2.337-2.296-4.791-3.782-7.155-1.982-.333-3.784-.651-5.81-1.282l-.226.051c.316 1.093.9 2.297 1.081 3.312l-1.216-.707-1.216-3.162c-2.657-.953-5.585-2.334-8.287-3.721-.135.33.045 1.027-.135 1.286l-1.171-.68c-.09-.599.135-.877-.135-1.49a92.89 92.89 0 0 1-8.107-5.708l-1.216 1.705zm9.458-4.97c-.946-.777-1.982-1.378-2.883-2.129-1.846 1.157-3.378 2.678-4.684 4.422l.225.313c2.343 1.815 4.775 3.59 7.297 5.055l.045-7.66zm8.873 11.93l.044-.11c-1.26-3.188-2.837-6.47-4.548-9.692-.766-.536-1.487-.636-2.252-1.035l-.766-.354c-.09 2.632-.135 4.971 0 7.733 2.567 1.446 5.134 2.664 7.522 3.459zm-17.79-10.74c1.305-1.744 2.927-3.168 4.548-4.591-.63-.73-1.396-1.403-2.027-2.133-2.972-.225-5.81.22-8.197 1.335v.137c1.757 1.885 3.603 3.593 5.495 5.193l.18.059zm24.77 12.475c-1.44-2.52-3.288-5.048-4.999-7.27-1.036-1.239-2.072-2.523-3.153-3.696l-1.936-.26.135.396c1.621 3.171 3.062 6.283 4.324 9.426l.135.17c1.936.67 3.783 1.105 5.495 1.234zm4.82.206c-2.523-3.511-5.45-6.576-8.423-9.44l-2.116-1.912c-.36-.027-.676.063-.991.153l.09.188c2.882 3.403 5.495 7.012 7.972 10.953 1.215.206 2.387.204 3.467.058zM50.173 30.137a8.295 8.295 0 0 0-.9-1.25c-3.784-1.197-7.297-1.508-10.54-1.027v.137c1.081 1.31 2.162 2.666 3.333 3.846 2.567-1.102 5.224-1.515 8.107-1.706zm16.124 8.318c.135-.195-.225-.313-.315-.456-4.774-3.819-10.09-6.951-14.863-8.54-.09.174.225.403.36.618 4.189 5.207 10.72 9 14.818 8.378z" fill="#FFF" fill-rule="nonzero" opacity=".413" mask="url(#v)"/></g><g fill="#FFF" fill-rule="nonzero"><path d="M219.905 169.005c4.954 5.015 11.89 9.271 16.394 8.566 2.928-.483 3.828-3.872 3.063-7.774-.586-3.615-3.648-7.805-6.576-10.642-4.009-3.784-8.197-7.263-12.25-11.027-.406-.418-.946-1.141-.856-1.589 0-.41.405-.402.72-.4 4.234 1.276 8.828 4.853 11.89 9.907.36.664.586 1.341.946 2.005l6.08 3.486c.09-3.632.136-7.837 0-11.554l-6.755-3.878-.09 2.13c-.766-.808-1.532-1.707-2.297-2.562-4.684-4.721-10.72-8.681-15.358-8.92-3.378-.05-5.18 2.588-4.684 6.834.495 4.154 4.098 9.75 7.746 12.823l10.9 9.56.81.88c.36.528.586 1.068.496 1.516-.856 1.004-2.838-.602-4.324-1.51-3.153-2.286-6.396-5.261-8.242-9.29-1.982-1.151-4.279-2.531-6.44-3.695-.09 3.678.044 7.031.09 10.833 2.026 1.223 4.503 2.661 6.53 3.747.09-.493-.09-1.371.135-1.786l2.072 2.34zM267.96 195.458c-5.855.42-14.773-4.486-20.808-11.448-3.288-3.638-5.45-8.305-6.125-12.2-1.216-6.483-.901-13.17 3.422-14.98 5.045-1.619 12.386 1.644 18.917 7.301.31.243 1.295 1.07 1.97 1.833l.191.196c2.027 2.042 3.964 4.576 5.405 7.324 3.333 6.94 3.558 14.576 1.532 19.04-.811 1.712-2.478 2.7-4.504 2.934zm-6.621-10.396c.676-.654.63-2.044.766-3.194-.046-2.62.18-5.582-.27-8.482-.226-1.222-.946-2.778-2.072-3.841-1.802-1.866-4.234-3.05-5.9-3.063-1.397.19-1.577 1.768-1.757 3.256-.135 3.06-.36 6.25.495 9.613.676 2.166 2.523 3.694 4.19 4.798 1.755 1.02 3.467 1.741 4.548.913zM191.439 153.747l-2.792-1.667a218.396 218.396 0 0 1 0-7.688c1.531.844 2.972 1.726 4.459 2.453v-15.467l-.046-.663-4.458-2.68c-.09-2.6-.09-5.056 0-7.506l19.862 11.536v7.505c-1.487-.772-3.153-1.876-4.594-2.531l.045 15.992.09.19 4.459 2.634c.045 2.62.09 5.42-.045 7.708l-16.98-9.816z"/></g></g><g><path d="M331 517.74c0 9.221-6.445 12.92-14.325 8.219l-111.663-63.596c-7.88-4.7-14.41-16.09-14.504-25.313l-1.507-160.754c-.099-9.223 6.279-12.953 14.177-8.279l113.461 63.78c7.898 4.67 14.361 16.037 14.361 25.26v160.682z" fill="#ACD2FF" opacity=".25"/><path d="M315 557.079c0 10.224-7.182 14.324-15.963 9.112l-124.431-70.504c-8.781-5.212-16.058-17.839-16.163-28.063l-1.679-178.218c-.11-10.224 6.997-14.36 15.798-9.178l126.435 70.71C307.798 356.113 315 368.715 315 378.94V557.08z" fill="#107EFF"/><path d="M309.438 382.71c0-10.228-7.194-22.83-15.986-28.009l-126.014-71.048c-3.11-1.833-6.006-2.48-8.447-2.119 2.631-4.302 7.908-5.194 14.009-1.602l126.014 71.048c8.792 5.179 15.986 17.785 15.986 28.013V557.08c0 6.566-2.966 10.593-7.409 11.265 1.173-1.889 1.847-4.428 1.847-7.544V382.71z" fill="#00499F"/><g transform="translate(156 266)"><use fill="#000" filter="url(#w)" xlink:href="#x"/><use fill="#FFF" xlink:href="#x"/></g><path d="M273.11 509.515l.338.923-4.316 5.759-1.326-.763 4.238-5.518-5.044-2.902V506l6.11 3.515zm7.965 11.07c0 1.69-1.326 1.863-3.094.846-1.768-1.017-3.08-2.709-3.08-4.399 0-1.13.675-1.535 1.676-1.271v-.04c-.585-.557-1.404-1.509-1.404-2.822 0-1.482 1.3-1.579 2.808-.711 1.508.867 2.808 2.46 2.808 3.942 0 1.313-.806 1.33-1.39 1.228v.026c.987.893 1.676 2.07 1.676 3.2zm-1.508-5.04c0-.937-.689-1.853-1.586-2.37-.897-.515-1.586-.392-1.586.544 0 .95.69 1.853 1.586 2.369.897.516 1.586.405 1.586-.544zm.26 4.23c0-1.065-.793-2.159-1.846-2.764-1.053-.606-1.846-.425-1.846.64 0 1.067.845 2.19 1.846 2.766 1.014.583 1.846.425 1.846-.641zm12.152 7.563c0 1.287-.897 1.642-2.12.94-1.221-.704-2.118-2.09-2.118-3.378 0-1.287.897-1.642 2.119-.939 1.222.703 2.119 2.09 2.119 3.377zm-2.21-8.447l.65.764-5.551 5.893-.65-.764 5.55-5.893zm-2.873.648c0 1.287-.897 1.655-2.12.952-1.221-.703-2.118-2.103-2.118-3.39 0-1.274.897-1.642 2.119-.939 1.222.703 2.119 2.103 2.119 3.377zm4.173 7.263c0-.78-.468-1.621-1.21-2.048-.74-.426-1.208-.123-1.208.657 0 .793.468 1.621 1.209 2.047.74.427 1.209.137 1.209-.656zm-5.083-7.786c0-.793-.468-1.622-1.21-2.048-.74-.426-1.208-.136-1.208.657 0 .78.468 1.608 1.209 2.034.74.426 1.209.137 1.209-.643z" fill="#ACD2FF"/><g transform="translate(171.396 337.222)"><use fill="#000" filter="url(#y)" xlink:href="#z"/><use fill="#00499F" xlink:href="#z"/><use fill="#107EFF" xlink:href="#A"/></g><path d="M206.486 408.642c-3.21-6.562-5.09-13.326-5.09-19.42 0-11.228 6.38-17.2 15.714-16.513-4.122.159-6.183 3.016-6.183 8.572 0 5.138 1.96 12.022 5.245 19.254l-9.686 8.107zm38.25 27.217a331.628 331.628 0 0 0 5.663 3.271c-5.204 1.89-12.248.777-20.003-3.798-8.707-5.137-16.517-13.582-21.833-22.793l9.592-7.909c6.404 12.458 16.309 25.168 26.58 31.229zm-26.286-37.231c-2.835-5.877-4.58-11.51-4.58-15.946 0-8.726 5.024-10.783 15.072-6.172.482.26.966.534 1.454.822 2.511 1.482 4.948 3.239 7.272 5.21l-19.218 16.086zm40.946 24.813c0 1.178-.07 2.299-.207 3.36-.745 2.17-1.774 3.74-3.087 4.71l-17.4-48.07c11.969 10.632 20.694 26.871 20.694 40zm-14.66 6.623c-8.486-5.006-17.999-16.25-24.192-27.404l17.669-14.569 14.037 44.59c-2.109-.033-4.613-.905-7.514-2.617z" fill="#FFF"/><g transform="translate(176.191 470.266)"><mask id="C" fill="#fff"><use xlink:href="#B"/></mask><use fill="#00499F" xlink:href="#B"/><path fill="#2ECC71" mask="url(#C)" d="M0 0l70.727 33.834v17.781L0 13.85z"/></g></g></g></svg>