<?xml version="1.0" encoding="UTF-8"?>
<svg width="886px" height="77px" viewBox="0 0 886 77" version="1.1" xmlns="http://www.w3.org/2000/svg" xmlns:xlink="http://www.w3.org/1999/xlink">
    <!-- Generator: Sketch 52.2 (67145) - http://www.bohemiancoding.com/sketch -->
    <title>Row</title>
    <desc>Created with Sketch.</desc>
    <defs>
        <polygon id="path-1" points="0.000170807874 33.7750233 29.5082558 33.7750233 29.5082558 0.00825611681 0.000170807874 0.00825611681"></polygon>
    </defs>
    <g id="Page-1" stroke="none" stroke-width="1" fill="none" fill-rule="evenodd">
        <g id="Gridiron" transform="translate(-377.000000, -1084.000000)">
            <g id="Logo-Bar" transform="translate(377.000000, 948.000000)">
                <g id="Row" transform="translate(0.000000, 136.000000)">
                    <g id="element" transform="translate(229.000000, 27.000000)" fill-rule="nonzero">
                        <path d="M0,4.24884721 L10.6964628,4.24884721 L10.6964628,6.52994661 L2.54546997,6.52994661 L2.54546997,10.3041293 L9.77021359,10.3041293 L9.77021359,12.5852287 L2.54546997,12.5852287 L2.54546997,16.4838349 L10.7993793,16.4838349 L10.7993793,18.7649343 L0,18.7649343 L0,4.24884721 Z M16.9537906,4.24884721 L19.4855383,4.24884721 L19.4855383,16.4423604 L27.0601983,16.4423604 L27.0601983,18.7649343 L16.9537906,18.7649343 L16.9537906,4.24884721 Z M32.5113463,4.24884721 L43.1940868,4.24884721 L43.1940868,6.52994661 L35.043094,6.52994661 L35.043094,10.3041293 L42.2678377,10.3041293 L42.2678377,12.5852287 L35.043094,12.5852287 L35.043094,16.4838349 L43.2970034,16.4838349 L43.2970034,18.7649343 L32.5113463,18.7649343 L32.5113463,4.24884721 Z M49.4514146,4.24884721 L52.1443984,4.24884721 L56.5286445,11.1128827 L60.9163212,4.24884721 L63.6127355,4.24884721 L63.6127355,18.7649343 L61.0638349,18.7649343 L61.0638349,8.35482613 L56.5149223,15.1981243 L56.432589,15.1981243 L51.9419958,8.39630067 L51.9419958,18.7649343 L49.4514146,18.7649343 L49.4514146,4.24884721 Z M70.5012849,4.24884721 L81.1840255,4.24884721 L81.1840255,6.52994661 L73.0330327,6.52994661 L73.0330327,10.3041293 L80.2577763,10.3041293 L80.2577763,12.5852287 L73.0330327,12.5852287 L73.0330327,16.4838349 L81.2869421,16.4838349 L81.2869421,18.7649343 L70.5012849,18.7649343 L70.5012849,4.24884721 Z M87.4413533,4.24884721 L89.7878512,4.24884721 L97.5065944,14.2718597 L97.5065944,4.24884721 L99.9971756,4.24884721 L99.9971756,18.7649343 L97.8770941,18.7649343 L89.9319344,8.4377752 L89.9319344,18.7649343 L87.4413533,18.7649343 L87.4413533,4.24884721 Z M110.034972,6.59907084 L105.465476,6.59907084 L105.465476,4.24884721 L117.156799,4.24884721 L117.156799,6.59907084 L112.587303,6.59907084 L112.587303,18.7649343 L110.034972,18.7649343 L110.034972,6.59907084 Z M138.292433,4.26612826 L139.321599,4.26612826 L145.976871,18.7614781 L144.803622,18.7614781 L142.985429,14.734992 L134.556562,14.734992 L132.741799,18.7649343 L131.640592,18.7649343 L138.292433,4.26612826 Z M142.539457,13.7672529 L138.783002,5.43778387 L135.009395,13.7672529 L142.55661,13.7672529 L142.539457,13.7672529 Z M151.836255,4.24884721 L152.844837,4.24884721 L162.79344,16.877843 L162.79344,4.24884721 L163.822605,4.24884721 L163.822605,18.7649343 L163.019856,18.7649343 L152.865421,5.86635406 L152.865421,18.7649343 L151.836255,18.7649343 L151.836255,4.24884721 Z M176.364705,4.26612826 L177.393871,4.26612826 L184.049143,18.7614781 L182.886186,18.7614781 L181.071423,14.7315358 L172.628834,14.7315358 L170.814071,18.7649343 L169.712864,18.7649343 L176.364705,4.26612826 Z M180.611729,13.7672529 L176.855274,5.43778387 L173.081667,13.7672529 L180.628882,13.7672529 L180.611729,13.7672529 Z M189.908527,4.24884721 L190.978859,4.24884721 L190.978859,17.7695455 L199.438602,17.7695455 L199.438602,18.7649343 L189.908527,18.7649343 L189.908527,4.24884721 Z M207.548428,13.0207113 L201.373433,4.24884721 L202.711349,4.24884721 L208.104177,12.0460597 L213.517589,4.24884721 L214.793755,4.24884721 L208.61876,12.999974 L208.61876,18.7649343 L207.548428,18.7649343 L207.548428,13.0207113 Z M225.126579,5.24423604 L220.10425,5.24423604 L220.10425,4.24884721 L231.21924,4.24884721 L231.21924,5.24423604 L226.196911,5.24423604 L226.196911,18.7649343 L225.126579,18.7649343 L225.126579,5.24423604 Z M237.281026,4.24884721 L238.351359,4.24884721 L238.351359,18.7649343 L237.281026,18.7649343 L237.281026,4.24884721 Z M245.078672,11.5483653 L245.078672,11.5068908 C245.078672,7.40091184 248.125003,4 252.282833,4 C254.855747,4 256.399496,4.9539143 257.881494,6.32257394 L257.119912,7.1105901 C255.86433,5.88709132 254.423497,4.97465156 252.262249,4.97465156 C248.804252,4.97465156 246.190171,7.81565718 246.190171,11.4654162 L246.190171,11.5068908 C246.190171,15.1773871 248.845419,18.03913 252.282833,18.03913 C254.361748,18.03913 255.781996,17.2303765 257.243412,15.7787678 L257.963828,16.4700101 C256.440662,17.9838306 254.793997,18.9999567 252.241666,18.9999567 C248.125003,19.0137815 245.078672,15.716556 245.078672,11.5483653 Z M263.390962,16.6497331 L264.077072,15.8409796 C265.67571,17.3133256 267.137125,18.0045679 269.257207,18.0045679 C271.377288,18.0045679 272.900453,16.7810691 272.900453,15.1220877 L272.900453,15.0737007 C272.900453,13.539143 272.097704,12.6543529 268.824957,11.9838479 C265.36696,11.2926057 263.967295,10.0967566 263.967295,7.89860625 L263.967295,7.85713172 C263.967295,5.70045592 265.92271,4.05529938 268.59854,4.05529938 C270.406826,3.99481481 272.171117,4.62434155 273.538536,5.8179671 L272.852426,6.66819506 C271.679813,5.58689481 270.139877,5.00046014 268.550513,5.02995094 C266.430431,5.02995094 265.030766,6.25344971 265.030766,7.76727023 L265.030766,7.80874476 C265.030766,9.34330254 265.812932,10.2764796 269.229762,10.9815467 C272.564259,11.6727889 273.963925,12.868638 273.963925,14.9838392 L273.963925,15.0253138 C273.963925,17.368625 271.967343,18.9861318 269.188596,18.9861318 C266.896986,18.9688508 265.11996,18.2050281 263.390962,16.6497331 Z M277.926213,4.58755591 L276.958797,4.58755591 L276.958797,4.28340932 L279.222962,4.28340932 L279.222962,4.58755591 L278.252115,4.58755591 L278.252115,7.18662674 L277.90906,7.18662674 L277.90906,4.58755591 L277.926213,4.58755591 Z M280.214391,4.28340932 L280.557447,4.28340932 L281.607196,5.86635406 L282.656945,4.28340932 L283,4.28340932 L283,7.18662674 L282.674098,7.18662674 L282.674098,4.83640311 L281.624348,6.39169816 L280.574599,4.83985933 L280.574599,7.18662674 L280.258989,7.18662674 L280.258989,4.28340932 L280.214391,4.28340932 Z" id="Shape" fill="#7383A0"></path>
                        <polygon id="Shape" fill="#307AD1" points="0 0 11 0 11 2 0 2"></polygon>
                    </g>
                    <g id="cityblock" transform="translate(771.000000, 0.000000)" fill-rule="nonzero">
                        <polygon id="Stroke-1" fill="#307AD1" points="33.9101178 3.86934664 84.0898824 17.7177721 84.0898824 27 87 27 87 15.4546724 31 0 31 27 33.9101178 27"></polygon>
                        <path d="M0,38.4990535 C0,34.1650682 3.29861721,31 7.44242834,31 C10.8222597,31 12.7931197,32.7339727 13.7790219,34.8702045 L11.4861383,36.1612191 C10.621113,34.5483972 9.35379427,33.4589854 7.44242834,33.4589854 C4.74725126,33.4589854 2.71500843,35.6368628 2.71500843,38.4990535 C2.71500843,41.3631372 4.74725126,43.5410146 7.44242834,43.5410146 C9.5143339,43.5410146 10.8420911,42.3910273 11.6070152,40.5160273 L14,41.5041645 C13.1359191,44.1041771 10.9431366,46 7.44242834,46 C3.23817875,46 0,42.8349318 0,38.4990535" id="Fill-3" fill="#7383A0"></path>
                        <polygon id="Fill-5" fill="#7383A0" points="16 46 19 46 19 31 16 31"></polygon>
                        <polyline id="Fill-6" fill="#7383A0" points="28.3504903 46 25.6505156 46 25.6505156 33.4167046 21 33.4167046 21 31 33 31 33 33.4167046 28.3504903 33.4167046 28.3504903 46"></polyline>
                        <polyline id="Fill-7" fill="#7383A0" points="43.3310299 31 46 31 41.1614213 39.7093303 41.1614213 46 38.7421318 46 38.7421318 39.7093303 34 31 36.7266582 31 40.0292946 37.0627892 43.3310299 31"></polyline>
                        <path d="M53.2525344,43.5842734 C54.6535756,43.5842734 55.4125491,42.7715329 55.4125491,41.4795593 C55.4125491,40.1875856 54.6343958,39.3758232 53.1356287,39.3758232 L50.4513653,39.3758232 L50.4513653,43.5842734 L53.2525344,43.5842734 Z M50.4513653,33.4167046 L50.4513653,36.9581404 L52.7465522,36.9581404 C53.9338751,36.9581404 54.6343958,36.2715654 54.6343958,35.1879117 C54.6343958,34.1042577 54.0115078,33.4167046 52.8826377,33.4167046 L50.4513653,33.4167046 Z M48,46 L48,31 L53.0579961,31 C55.6454471,31 57.1633939,32.5423485 57.1633939,34.9795918 C57.1633939,36.4593467 56.3651476,37.375758 55.334003,37.9586621 C56.9104027,38.3342245 58,39.6878138 58,41.5206365 C58,44.1671775 56.3459676,46 53.330167,46 L48,46 Z" id="Fill-8" fill="#7383A0"></path>
                        <polyline id="Fill-9" fill="#7383A0" points="61 31 63.4584383 31 63.4584383 43.5842734 69 43.5842734 69 46 61 46 61 31"></polyline>
                        <path d="M77.4995242,43.5410146 C80.2153779,43.5410146 82.283195,41.22211 82.283195,38.4990535 C82.283195,35.6368628 80.2153779,33.4589854 77.4995242,33.4589854 C74.7836708,33.4589854 72.7158536,35.6368628 72.7158536,38.4990535 C72.7158536,41.3631372 74.7836708,43.5410146 77.4995242,43.5410146 Z M77.4995242,31 C81.7360276,31 85,34.1650682 85,38.4990535 C85,42.6333291 81.7360276,46 77.4995242,46 C73.2639726,46 70,42.8349318 70,38.4990535 C70,34.1650682 73.2639726,31 77.4995242,31 Z" id="Fill-10" fill="#7383A0"></path>
                        <path d="M87,38.4990535 C87,34.1650682 90.2986172,31 94.4433727,31 C97.8222597,31 99.7940642,32.7339727 100.779022,34.8702045 L98.4861383,36.1612191 C97.621113,34.5483972 96.3537943,33.4589854 94.4433727,33.4589854 C91.7463069,33.4589854 89.7159527,35.6368628 89.7159527,38.4990535 C89.7159527,41.3631372 91.7463069,43.5410146 94.4433727,43.5410146 C96.514334,43.5410146 97.8420912,42.3910273 98.6060708,40.5160273 L101,41.5041645 C100.134975,44.1041771 97.9431366,46 94.4433727,46 C90.2381788,46 87,42.8349318 87,38.4990535" id="Fill-11" fill="#7383A0"></path>
                        <polyline id="Fill-12" fill="#7383A0" points="111.696356 46 107.497664 39.3132295 105.506696 41.687879 105.506696 46 103 46 103 31 105.506696 31 105.506696 38.0427725 111.118966 31 114.483339 31 109.268141 37.2085153 115 46 111.696356 46"></polyline>
                        <polygon id="Stroke-13" fill="#307AD1" points="33.9101673 73.1053468 33.9101673 50 31 50 31 77 87 61.4443086 87 50.0906717 84.0898329 50.0906717 84.0898329 59.1664291"></polygon>
                    </g>
                    <g id="sc-logo-dark-sm" transform="translate(553.000000, 24.000000)" fill-rule="nonzero">
                        <circle id="Oval" fill="#FFFFFF" cx="13.5" cy="13.5" r="13.5"></circle>
                        <g id="Group" transform="translate(35.000000, 4.000000)" fill="#7383A0">
                            <path d="M6.28325203,17.4331034 C3.84227642,17.4331034 1.80813008,16.6137931 0.45203252,15.3848276 C0.316422764,15.2482759 0.045203252,14.9751724 0.045203252,14.702069 C0.045203252,14.2924138 0.45203252,13.7462069 0.994471545,13.7462069 C1.1300813,13.7462069 1.40130081,13.8827586 1.67252033,13.8827586 C2.89300813,14.8386207 4.38471545,15.657931 6.28325203,15.657931 C9.13105691,15.657931 10.215935,14.1558621 10.215935,12.7903448 C10.215935,8.55724138 0.316422764,10.8786207 0.316422764,5.00689655 C0.316422764,2.27586207 2.75739837,0.364137931 6.01203252,0.364137931 C8.04617886,0.364137931 9.94471545,1.04689655 11.300813,2.13931034 C11.4364228,2.27586207 11.7076423,2.54896552 11.7076423,2.82206897 C11.7076423,3.23172414 11.300813,3.77793103 10.758374,3.77793103 C10.6227642,3.77793103 10.3515447,3.64137931 10.0803252,3.64137931 C8.8598374,2.68551724 7.36813008,2.13931034 5.87642276,2.13931034 C3.84227642,2.13931034 2.48617886,3.23172414 2.48617886,4.7337931 C2.48617886,8.42068966 12.3856911,6.23586207 12.3856911,12.5172414 C12.3856911,14.9751724 10.758374,17.4331034 6.28325203,17.4331034 Z" id="Shape"></path>
                            <path d="M16.7252033,2.13931034 C16.7252033,2.82206897 16.0471545,3.36827586 15.5047154,3.36827586 C14.9622764,3.36827586 14.2842276,2.82206897 14.2842276,2.13931034 C14.2842276,1.45655172 14.9622764,0.910344828 15.5047154,0.910344828 C16.1827642,0.773793103 16.7252033,1.32 16.7252033,2.13931034 Z M15.6403252,17.16 C15.2334959,17.16 14.6910569,16.7503448 14.6910569,16.2041379 L14.6910569,5.68965517 C14.6910569,5.28 15.0978862,4.7337931 15.6403252,4.7337931 C16.0471545,4.7337931 16.5895935,5.14344828 16.5895935,5.68965517 L16.5895935,16.2041379 C16.4539837,16.8868966 16.1827642,17.16 15.6403252,17.16 Z" id="Shape"></path>
                            <path d="M34.8969106,17.16 C34.4900813,17.16 33.9476423,16.7503448 33.9476423,16.2041379 L33.9476423,8.96689655 C33.9476423,7.46482759 33.2695935,6.37241379 31.6422764,6.37241379 C30.4217886,6.37241379 29.0656911,7.32827586 28.523252,8.14758621 L28.523252,16.3406897 C28.523252,16.7503448 28.1164228,17.2965517 27.5739837,17.2965517 C27.0315447,17.2965517 26.6247154,16.8868966 26.6247154,16.3406897 L26.6247154,8.96689655 C26.6247154,7.46482759 25.9466667,6.37241379 24.3193496,6.37241379 C23.0988618,6.37241379 21.7427642,7.32827586 21.2003252,8.14758621 L21.2003252,16.2041379 C21.2003252,16.6137931 20.7934959,17.16 20.2510569,17.16 C19.8442276,17.16 19.3017886,16.7503448 19.3017886,16.2041379 L19.3017886,5.68965517 C19.3017886,5.28 19.7086179,4.7337931 20.2510569,4.7337931 C20.6578862,4.7337931 21.2003252,5.14344828 21.2003252,5.68965517 L21.2003252,6.64551724 C21.6071545,5.96275862 23.2344715,4.59724138 25.1330081,4.59724138 C26.895935,4.59724138 27.980813,5.55310345 28.2520325,6.91862069 C28.9300813,5.8262069 30.5573984,4.59724138 32.1847154,4.59724138 C34.3544715,4.59724138 35.5749593,5.8262069 35.5749593,8.28413793 L35.5749593,16.2041379 C35.7105691,16.8868966 35.4393496,17.16 34.8969106,17.16 Z" id="Shape"></path>
                            <path d="M44.660813,17.4331034 C43.0334959,17.4331034 41.5417886,16.7503448 40.5925203,15.3848276 L40.5925203,20.9834483 C40.5925203,21.3931034 40.1856911,21.9393103 39.643252,21.9393103 C39.100813,21.9393103 38.6939837,21.5296552 38.6939837,20.9834483 L38.6939837,5.68965517 C38.6939837,5.28 39.100813,4.7337931 39.643252,4.7337931 C40.0500813,4.7337931 40.5925203,5.14344828 40.5925203,5.68965517 L40.5925203,6.64551724 C41.5417886,5.41655172 42.8978862,4.59724138 44.660813,4.59724138 C47.7798374,4.59724138 49.9495935,6.91862069 49.9495935,11.0151724 C50.0852033,14.9751724 47.9154472,17.4331034 44.660813,17.4331034 Z M44.118374,6.50896552 C42.6266667,6.50896552 41.2705691,7.46482759 40.4569106,8.42068966 L40.4569106,13.8827586 C41.1349593,14.8386207 42.4910569,15.9310345 44.118374,15.9310345 C46.4237398,15.9310345 48.0510569,13.8827586 48.0510569,11.1517241 C48.0510569,8.42068966 46.5593496,6.50896552 44.118374,6.50896552 Z" id="Shape"></path>
                            <path d="M52.9330081,17.16 C52.5261789,17.16 51.9837398,16.7503448 51.9837398,16.2041379 L51.9837398,1.18344828 C51.9837398,0.773793103 52.3905691,0.227586207 52.9330081,0.227586207 C53.3398374,0.227586207 53.8822764,0.637241379 53.8822764,1.18344828 L53.8822764,16.3406897 C54.0178862,16.8868966 53.4754472,17.16 52.9330081,17.16 Z" id="Shape"></path>
                            <path d="M66.7652033,11.697931 L58.0861789,11.697931 C58.2217886,14.0193103 59.8491057,15.9310345 62.4256911,15.9310345 C63.6461789,15.9310345 64.7310569,15.5213793 65.5447154,14.702069 C65.6803252,14.5655172 65.815935,14.5655172 65.9515447,14.5655172 C66.358374,14.5655172 66.6295935,14.8386207 66.6295935,15.2482759 C66.6295935,16.4772414 63.5105691,17.2965517 62.1544715,17.2965517 C58.6286179,17.2965517 56.0520325,14.702069 56.0520325,10.8786207 C56.0520325,7.46482759 58.6286179,4.46068966 61.883252,4.46068966 C64.8666667,4.46068966 66.900813,6.37241379 67.443252,9.24 C67.5788618,9.64965517 67.5788618,10.0593103 67.5788618,10.4689655 C67.8500813,11.1517241 67.3076423,11.697931 66.7652033,11.697931 Z M62.1544715,6.23586207 C59.5778862,6.23586207 58.3573984,8.42068966 58.2217886,10.1958621 L66.0871545,10.1958621 C65.9515447,8.42068966 64.8666667,6.23586207 62.1544715,6.23586207 Z" id="Shape"></path>
                            <path d="M83.8520325,2.68551724 C83.9876423,2.95862069 84.2588618,3.36827586 84.2588618,3.64137931 C84.2588618,4.32413793 83.580813,5.00689655 82.7671545,5.00689655 C82.3603252,5.00689655 82.0891057,4.87034483 81.6822764,4.59724138 C80.7330081,3.50482759 79.3769106,2.82206897 78.020813,2.82206897 C74.7661789,2.82206897 72.460813,5.41655172 72.460813,8.6937931 C72.460813,11.9710345 74.7661789,14.5655172 78.020813,14.5655172 C79.3769106,14.5655172 80.7330081,13.8827586 81.6822764,12.7903448 C81.9534959,12.5172414 82.3603252,12.3806897 82.7671545,12.3806897 C83.4452033,12.3806897 84.123252,13.0634483 84.123252,13.7462069 C84.123252,14.0193103 83.9876423,14.4289655 83.8520325,14.702069 C82.6315447,16.2041379 80.7330081,17.2965517 78.020813,17.2965517 C73.1388618,17.2965517 69.3417886,13.8827586 69.3417886,8.6937931 C69.3417886,3.50482759 73.1388618,0.0910344828 78.020813,0.0910344828 C80.5973984,0.227586207 82.495935,1.32 83.8520325,2.68551724 Z" id="Shape"></path>
                            <path d="M89.140813,1.8662069 C89.140813,2.82206897 88.4627642,3.50482759 87.5134959,3.50482759 C86.5642276,3.50482759 85.8861789,2.82206897 85.8861789,1.8662069 C85.8861789,0.910344828 86.5642276,0.227586207 87.5134959,0.227586207 C88.4627642,0.227586207 89.140813,1.04689655 89.140813,1.8662069 Z M87.3778862,17.16 C86.6998374,17.16 86.1573984,16.4772414 86.1573984,15.9310345 L86.1573984,6.23586207 C86.1573984,5.55310345 86.8354472,5.00689655 87.5134959,5.00689655 C88.1915447,5.00689655 88.7339837,5.68965517 88.7339837,6.23586207 L88.7339837,15.9310345 C88.7339837,16.6137931 88.1915447,17.16 87.3778862,17.16 Z" id="Shape"></path>
                            <path d="M94.9720325,17.4331034 C92.9378862,17.4331034 91.8530081,16.3406897 91.8530081,14.2924138 L91.8530081,7.32827586 L90.9037398,7.32827586 C90.2256911,7.32827586 89.683252,6.78206897 89.683252,6.09931034 C89.683252,5.41655172 90.2256911,4.87034483 90.9037398,4.87034483 L91.8530081,4.87034483 L91.8530081,2.95862069 C91.8530081,2.27586207 92.5310569,1.72965517 93.2091057,1.72965517 C93.8871545,1.72965517 94.4295935,2.41241379 94.4295935,2.95862069 L94.4295935,5.00689655 L95.9213008,5.00689655 C96.5993496,5.00689655 97.1417886,5.55310345 97.1417886,6.23586207 C97.1417886,6.91862069 96.7349593,7.46482759 95.9213008,7.46482759 L94.4295935,7.46482759 L94.4295935,13.7462069 C94.4295935,14.702069 94.9720325,15.2482759 95.6500813,15.2482759 C95.7856911,15.2482759 96.0569106,15.1117241 96.1925203,15.1117241 C96.8705691,15.1117241 97.4130081,15.5213793 97.4130081,16.3406897 C97.4130081,16.8868966 96.7349593,17.4331034 94.9720325,17.4331034 Z" id="Shape"></path>
                            <path d="M101.616911,1.8662069 C101.616911,2.82206897 100.938862,3.50482759 99.9895935,3.50482759 C99.0403252,3.50482759 98.3622764,2.82206897 98.3622764,1.8662069 C98.3622764,0.910344828 99.0403252,0.227586207 99.9895935,0.227586207 C100.938862,0.227586207 101.616911,1.04689655 101.616911,1.8662069 Z M99.8539837,17.16 C99.175935,17.16 98.6334959,16.4772414 98.6334959,15.9310345 L98.6334959,6.23586207 C98.6334959,5.55310345 99.3115447,5.00689655 99.9895935,5.00689655 C100.667642,5.00689655 101.210081,5.68965517 101.210081,6.23586207 L101.210081,15.9310345 C101.210081,16.6137931 100.667642,17.16 99.8539837,17.16 Z" id="Shape"></path>
                            <path d="M111.923252,17.16 L104.464715,17.16 C103.786667,17.16 103.244228,16.4772414 103.244228,15.7944828 C103.244228,15.5213793 103.379837,15.1117241 103.515447,14.8386207 L109.211057,7.32827586 L104.329106,7.32827586 C103.651057,7.32827586 103.108618,6.78206897 103.108618,6.09931034 C103.108618,5.41655172 103.651057,4.87034483 104.329106,4.87034483 L111.787642,4.87034483 C112.465691,4.87034483 113.00813,5.41655172 113.00813,6.09931034 C113.00813,6.50896552 112.87252,6.78206897 112.736911,7.05517241 L106.905691,14.5655172 L111.923252,14.5655172 C112.601301,14.5655172 113.14374,14.9751724 113.14374,15.7944828 C113.00813,16.6137931 112.601301,17.16 111.923252,17.16 Z" id="Shape"></path>
                            <path d="M124.806179,11.9710345 L116.940813,11.9710345 C117.076423,13.7462069 118.43252,15.3848276 120.602276,15.3848276 C121.551545,15.3848276 122.365203,15.1117241 123.178862,14.5655172 C123.314472,14.4289655 123.585691,14.4289655 123.721301,14.4289655 C124.26374,14.4289655 124.941789,14.8386207 124.941789,15.5213793 C124.941789,16.8868966 121.822764,17.5696552 120.331057,17.5696552 C116.669593,17.5696552 113.957398,14.9751724 113.957398,11.1517241 C113.957398,7.73793103 116.533984,4.7337931 120.059837,4.7337931 C122.907642,4.7337931 124.806179,6.50896552 125.619837,8.96689655 C125.755447,9.37655172 125.891057,10.0593103 125.891057,10.4689655 C126.162276,11.4248276 125.619837,11.9710345 124.806179,11.9710345 Z M120.195447,6.91862069 C118.025691,6.91862069 117.076423,8.6937931 116.805203,10.0593103 L123.450081,10.0593103 C123.585691,8.6937931 122.636423,6.91862069 120.195447,6.91862069 Z" id="Shape"></path>
                            <path d="M137.417886,17.16 C136.739837,17.16 136.197398,16.4772414 136.197398,15.9310345 L136.197398,9.51310345 C136.197398,7.73793103 135.24813,7.05517241 133.892033,7.05517241 C132.671545,7.05517241 131.451057,7.73793103 130.773008,8.55724138 L130.773008,15.7944828 C130.773008,16.4772414 130.094959,17.0234483 129.416911,17.0234483 C128.738862,17.0234483 128.196423,16.3406897 128.196423,15.7944828 L128.196423,6.23586207 C128.196423,5.55310345 128.874472,5.00689655 129.55252,5.00689655 C130.230569,5.00689655 130.773008,5.68965517 130.773008,6.23586207 L130.773008,6.64551724 C131.586667,5.68965517 133.078374,4.59724138 134.976911,4.59724138 C137.553496,4.59724138 138.909593,6.09931034 138.909593,8.55724138 L138.909593,15.7944828 C138.773984,16.6137931 138.095935,17.16 137.417886,17.16 Z" id="Shape"></path>
                        </g>
                        <g id="Group">
                            <path d="M0.81,12.555 C0.945,12.15 0.945,11.745 0.945,11.475 C5.67,11.34 12.69,9.855 13.5,9.45 C13.77,9.315 5.67,12.015 0.81,12.555 Z" id="Shape" fill="#2AA684"></path>
                            <path d="M4.59,16.605 C10.665,17.55 14.85,15.39 14.985,15.66 C14.85,17.145 8.64,20.655 5.94,23.625 C2.835,21.33 0.945,17.82 0.81,13.77 C0.81,13.365 0.81,13.095 0.81,12.555 C5.805,12.96 10.665,11.205 13.23,10.665 C11.205,11.88 8.775,12.69 1.89,13.905 C4.86,14.175 10.665,13.23 13.365,12.15 C11.34,13.635 6.48,14.715 3.78,15.12 C7.155,15.795 11.745,14.445 13.095,14.04 C12.015,14.985 8.37,16.065 4.59,16.605 Z" id="Shape" fill="#307AD1"></path>
                            <path d="M15.66,6.345 C11.205,8.235 6.48,9.855 1.08,10.665 C2.295,5.13 7.155,0.81 13.23,0.675 C19.575,0.54 24.84,4.86 26.055,10.665 C25.515,10.53 24.975,10.53 24.84,10.53 C23.49,9.315 19.575,13.635 18.36,13.095 C19.845,11.34 19.305,8.64 20.655,7.29 C21.6,6.075 21.06,5.535 20.385,5.4 C19.17,4.86 17.415,5.805 15.66,6.345 Z" id="Shape" fill="#307AD1"></path>
                            <path d="M26.46,13.095 C26.595,20.25 21.195,26.055 14.175,26.19 C11.34,26.325 8.64,25.38 6.345,23.895 C9.99,21.06 14.85,19.71 19.44,16.74 C21.465,15.255 23.895,11.475 26.325,11.07 C26.325,11.745 26.46,12.42 26.46,13.095 Z" id="Shape" fill="#307AD1"></path>
                        </g>
                    </g>
                    <g id="vergesense" transform="translate(0.000000, 21.000000)">
                        <polygon id="Fill-1" fill="#7383A0" fill-rule="nonzero" points="47.3908965 18.4972761 47.3908965 10 51 10 51 25 47.3908965 25 37 10 41.5028569 10"></polygon>
                        <polygon id="Fill-2" fill="#7383A0" fill-rule="nonzero" points="63.7647171 10 63.7647171 12.9828848 56.332011 12.9828848 56.332011 16.0727396 63.0169782 16.0727396 63.0169782 18.9269097 56.332011 18.9269097 56.332011 22.0385092 64 22.0385092 64 25 53 25 53 10"></polygon>
                        <g id="Group-22">
                            <path d="M75.4863192,16.2551341 C75.8904507,15.8931613 76.0923456,15.3193271 76.0923456,14.5329491 C76.0923456,13.7469121 75.8832767,13.2071941 75.465139,12.9151595 C75.0473431,12.623125 74.3156021,12.4771077 73.2705995,12.4771077 L70.8249724,12.4771077 L70.8249724,16.7979225 L73.2077423,16.7979225 C74.322776,16.7979225 75.0818462,16.6171068 75.4863192,16.2551341 M79.4155835,14.5227142 C79.4155835,16.8603551 78.4887801,18.3703376 76.6358562,19.0519789 L80.3352131,24.2707317 L76.322253,24.2707317 L73.0823692,19.6159194 L70.8249724,19.6159194 L70.8249724,24.2707317 L67.5645917,24.2707317 L67.5645917,9.67992168 L73.1032078,9.67992168 C75.3746109,9.67992168 76.9942111,10.0627053 77.9630334,10.8279313 C78.9315141,11.5934985 79.4155835,12.8247517 79.4155835,14.5227142" id="Fill-3" fill="#7383A0" fill-rule="nonzero"></path>
                            <path d="M92.0403352,16.8395102 L95.3215544,16.8395102 L95.3215544,22.0163001 C93.8724204,23.630678 91.8657694,24.4375257 89.3019433,24.4375257 C87.1559131,24.4375257 85.3549149,23.7279092 83.8989487,22.3083346 C82.4426407,20.8891014 81.7146575,19.0973193 81.7146575,16.9333297 C81.7146575,14.7700224 82.4566469,12.9642527 83.9406258,11.5163618 C85.4249462,10.0694944 87.2150127,9.34554895 89.3125334,9.34554895 C91.4093709,9.34554895 93.2315492,10.0346959 94.7783854,11.4123074 L93.0853377,13.8546851 C92.4304603,13.2839213 91.8275086,12.891244 91.2775071,12.6752887 C90.726481,12.4596744 90.1310447,12.3518672 89.4901736,12.3518672 C88.2497668,12.3518672 87.2047642,12.7725197 86.3548242,13.6145072 C85.5048842,14.4568358 85.0799143,15.5662941 85.0799143,16.9439057 C85.0799143,18.3218584 85.4874619,19.4244935 86.302557,20.2524933 C87.1179939,21.0808343 88.0898907,21.4946636 89.2182475,21.4946636 C90.3472874,21.4946636 91.2877557,21.2790493 92.0403352,20.8474797 L92.0403352,16.8395102 Z" id="Fill-5" fill="#7383A0" fill-rule="nonzero"></path>
                            <polygon id="Fill-7" fill="#7383A0" fill-rule="nonzero" points="108.552674 9.6797511 108.552674 12.5813327 101.27865 12.5813327 101.27865 15.5869686 107.820933 15.5869686 107.820933 18.3633436 101.27865 18.3633436 101.27865 21.3901317 108.782581 21.3901317 108.782581 24.2709023 98.0179275 24.2709023 98.0179275 9.6797511"></polygon>
                            <path d="M114.896239,12.5916357 C114.582636,12.849213 114.425834,13.1903748 114.425834,13.614439 C114.425834,14.0391855 114.617481,14.3762533 115.000774,14.6270073 C115.383725,14.8774202 116.26851,15.1732075 117.655128,15.5140282 C119.041746,15.85519 120.117836,16.3665916 120.884422,17.048233 C121.650666,17.7305567 122.0343,18.7253846 122.0343,20.033058 C122.0343,21.3414138 121.543056,22.4024271 120.56057,23.2167805 C119.578083,24.0304515 118.285409,24.4377987 116.683231,24.4377987 C114.370151,24.4377987 112.286637,23.5818237 110.433713,21.8702146 L112.377506,19.4906106 C113.952013,20.8682223 115.408321,21.5570281 116.746089,21.5570281 C117.344941,21.5570281 117.815346,21.4284101 118.156962,21.1708328 C118.498236,20.9135968 118.669044,20.5656117 118.669044,20.1272188 C118.669044,19.6888257 118.487646,19.3411818 118.125533,19.0832635 C117.763079,18.8260275 117.045344,18.5653798 115.972329,18.3006381 C114.272449,17.8973848 113.028626,17.3719956 112.241543,16.7248116 C111.454461,16.0776275 111.060578,15.0619887 111.060578,13.6772128 C111.060578,12.2924368 111.558653,11.224259 112.555146,10.4730206 C113.550956,9.72144108 114.794779,9.34548071 116.285932,9.34548071 C117.261245,9.34548071 118.236899,9.51299118 119.212554,9.84664747 C120.187526,10.1809861 121.037807,10.6538364 121.762374,11.2662219 L120.111345,13.6458258 C118.843267,12.6854553 117.533171,12.2054405 116.181739,12.2054405 C115.638229,12.2054405 115.209842,12.3343997 114.896239,12.5916357" id="Fill-9" fill="#307AD1" fill-rule="nonzero"></path>
                            <polygon id="Fill-11" fill="#307AD1" fill-rule="nonzero" points="135.139329 9.6797511 135.139329 12.5813327 127.865305 12.5813327 127.865305 15.5869686 134.407589 15.5869686 134.407589 18.3633436 127.865305 18.3633436 127.865305 21.3901317 135.369237 21.3901317 135.369237 24.2709023 124.604583 24.2709023 124.604583 9.6797511"></polygon>
                            <polygon id="Fill-13" fill="#307AD1" fill-rule="nonzero" points="148.286514 9.6797511 151.546894 9.6797511 151.546894 24.2709023 148.286514 24.2709023 141.326093 15.1281059 141.326093 24.2709023 138.06537 24.2709023 138.06537 9.6797511 141.117024 9.6797511 148.286514 19.0729603"></polygon>
                            <path d="M158.350173,12.5916357 C158.036569,12.849213 157.880109,13.1903748 157.880109,13.614439 C157.880109,14.0391855 158.071414,14.3762533 158.455048,14.6270073 C158.837999,14.8774202 159.722784,15.1732075 161.109402,15.5140282 C162.495679,15.85519 163.572111,16.3665916 164.338696,17.048233 C165.104599,17.7305567 165.488233,18.7253846 165.488233,20.033058 C165.488233,21.3414138 164.99699,22.4024271 164.014503,23.2167805 C163.032358,24.0304515 161.739684,24.4377987 160.137165,24.4377987 C157.824084,24.4377987 155.74057,23.5818237 153.887645,21.8702146 L155.831781,19.4906106 C157.405946,20.8682223 158.862254,21.5570281 160.200021,21.5570281 C160.799215,21.5570281 161.269278,21.4284101 161.610895,21.1708328 C161.952169,20.9135968 162.122977,20.5656117 162.122977,20.1272188 C162.122977,19.6888257 161.94192,19.3411818 161.579466,19.0832635 C161.217353,18.8260275 160.499618,18.5653798 159.426604,18.3006381 C157.726382,17.8973848 156.4829,17.3719956 155.695477,16.7248116 C154.908393,16.0776275 154.51451,15.0619887 154.51451,13.6772128 C154.51451,12.2924368 155.012586,11.224259 156.00908,10.4730206 C157.005231,9.72144108 158.249054,9.34548071 159.740207,9.34548071 C160.715519,9.34548071 161.690832,9.51299118 162.666487,9.84664747 C163.641459,10.1809861 164.492082,10.6538364 165.216649,11.2662219 L163.565278,13.6458258 C162.297201,12.6854553 160.987104,12.2054405 159.635672,12.2054405 C159.092162,12.2054405 158.663776,12.3343997 158.350173,12.5916357" id="Fill-15" fill="#307AD1" fill-rule="nonzero"></path>
                            <polygon id="Fill-17" fill="#307AD1" fill-rule="nonzero" points="178.593228 9.6797511 178.593228 12.5813327 171.319546 12.5813327 171.319546 15.5869686 177.861488 15.5869686 177.861488 18.3633436 171.319546 18.3633436 171.319546 21.3901317 178.823478 21.3901317 178.823478 24.2709023 168.058823 24.2709023 168.058823 9.6797511"></polygon>
                            <g id="Group-21">
                                <g id="Fill-19-Clipped">
                                    <mask id="mask-2" fill="white">
                                        <use xlink:href="#path-1"></use>
                                    </mask>
                                    <g id="path-1"></g>
                                    <path d="M14.7542134,0.00825611681 L18.4429802,2.11868333 L3.68825442,10.5603922 C3.68825442,14.7809055 3.68825442,19.002101 3.68859603,23.2226143 L5.53297945,24.2781691 L7.37702126,23.2229555 L5.53297945,22.1677419 C5.53297945,18.6503632 5.53297945,15.1329845 5.53263784,11.6156058 L20.287022,3.17389694 L22.1314054,4.22911054 L23.9754472,5.28432415 C19.0575469,8.09788593 14.1396466,10.9121301 9.22140468,13.7260329 L9.22140468,20.0569735 L11.0654465,21.1121871 L12.9101716,20.0573147 L11.0654465,19.0024422 L11.0654465,14.7809055 L25.8198306,6.33953775 L29.5082558,8.44996497 L29.5082558,16.8916738 L29.5082558,25.3333826 L22.1314054,29.5542371 L14.7542134,33.7750916 L11.0654465,31.6646643 C15.9836884,28.8507614 20.9019303,26.0368584 25.8201723,23.2229555 C25.8205139,19.0024422 25.8201723,14.7809055 25.8201723,10.5603922 L23.9757888,9.50517857 L22.131747,10.5603922 L23.9754472,11.6156058 C23.9757888,11.6156058 23.9757888,21.2718509 23.9757888,22.1677419 L9.22140468,30.6094507 L7.37702126,29.5542371 L5.53297945,28.4990235 C10.4508798,25.6851206 15.3691217,22.8712176 20.2873636,20.0573147 L20.2873636,13.7260329 L18.4429802,12.6708194 L16.5985968,13.7260329 L18.4429802,14.7809055 L18.4429802,19.0024422 C13.5250799,21.8163451 8.60717956,24.6305892 3.68859603,27.4438099 L0.000170807874,25.3333826 L0.000170807874,16.8916738 L0.000170807874,8.44996497 L7.37702126,4.22911054 L14.7542134,0.00825611681 Z M13.8321924,17.8076934 L15.6762342,17.8076934 L15.6762342,15.9753131 L13.8321924,15.9753131 L13.8321924,17.8076934 Z" id="Fill-19" fill="#7383A0" fill-rule="nonzero" mask="url(#mask-2)"></path>
                                </g>
                            </g>
                        </g>
                    </g>
                </g>
            </g>
        </g>
    </g>
</svg>