<svg width="886" height="77" xmlns="http://www.w3.org/2000/svg" xmlns:xlink="http://www.w3.org/1999/xlink"><defs><path id="a" d="M0 33.775h29.508V.008H0z"/></defs><g fill="none" fill-rule="evenodd"><g fill-rule="nonzero"><path d="M229 31.249h10.696v2.28h-8.15v3.775h7.224v2.281h-7.225v3.899h8.254v2.28H229V31.25zm16.954 0h2.532v12.193h7.574v2.323h-10.106V31.249zm15.557 0h10.683v2.28h-8.15v3.775h7.224v2.281h-7.225v3.899h8.254v2.28h-10.786V31.25zm16.94 0h2.693l4.385 6.864 4.387-6.864h2.697v14.516h-2.55v-10.41l-4.548 6.843h-.082l-4.491-6.802v10.369h-2.49V31.249zm21.05 0h10.683v2.28h-8.151v3.775h7.225v2.281h-7.225v3.899h8.254v2.28H299.5V31.25zm16.94 0h2.347l7.719 10.023V31.249h2.49v14.516h-2.12l-7.945-10.327v10.327h-2.49V31.249zm22.594 2.35h-4.57v-2.35h11.692v2.35h-4.57v12.166h-2.552V33.599zm28.257-2.333h1.03l6.655 14.495h-1.173l-1.819-4.026h-8.428l-1.815 4.03h-1.101l6.651-14.499zm4.247 9.501l-3.756-8.33-3.774 8.33h7.548-.018zm9.297-9.518h1.009l9.948 12.629v-12.63h1.03v14.517h-.803l-10.155-12.899v12.899h-1.029V31.249zm24.529.017h1.029l6.655 14.495h-1.163l-1.815-4.03h-8.442l-1.815 4.034h-1.101l6.652-14.499zm4.247 9.501l-3.757-8.33-3.773 8.33h7.547-.017zm9.297-9.518h1.07v13.52h8.46v.996h-9.53V31.249zm17.64 8.772l-6.176-8.772h1.338l5.393 7.797 5.414-7.797h1.276L437.619 40v5.765h-1.07V40.02zm17.578-7.777h-5.023v-.995h11.115v.995h-5.022v13.52h-1.07v-13.52zm12.154-.995h1.07v14.516h-1.07V31.249zm7.798 7.3v-.042c0-4.106 3.046-7.507 7.204-7.507 2.573 0 4.116.954 5.598 2.323l-.761.788c-1.256-1.224-2.697-2.136-4.858-2.136-3.458 0-6.072 2.84-6.072 6.49v.042c0 3.67 2.655 6.532 6.093 6.532 2.079 0 3.499-.809 4.96-2.26l.72.691c-1.522 1.514-3.169 2.53-5.721 2.53-4.117.014-7.163-3.283-7.163-7.452zm18.312 5.1l.686-.808c1.599 1.472 3.06 2.164 5.18 2.164 2.12 0 3.643-1.224 3.643-2.883v-.048c0-1.535-.802-2.42-4.075-3.09-3.458-.691-4.858-1.887-4.858-4.085v-.042c0-2.157 1.956-3.802 4.632-3.802a7.148 7.148 0 0 1 4.94 1.763l-.687.85a6.176 6.176 0 0 0-4.301-1.638c-2.12 0-3.52 1.223-3.52 2.737v.042c0 1.534.782 2.467 4.199 3.173 3.334.69 4.734 1.887 4.734 4.002v.041c0 2.344-1.997 3.961-4.775 3.961-2.292-.017-4.069-.781-5.798-2.336zm14.535-12.061h-.967v-.305h2.264v.305h-.97v2.599h-.344v-2.6h.017zm2.288-.305h.343l1.05 1.583 1.05-1.583H512v2.904h-.326v-2.35l-1.05 1.555-1.05-1.552v2.347h-.315v-2.904h-.045z" fill="#7383A0"/><path fill="#307AD1" d="M229 27h11v2h-11z"/></g><g fill-rule="nonzero"><path fill="#307AD1" d="M804.91 3.87l50.18 13.848V27H858V15.455L802 0v27h2.91z"/><path d="M771 38.5c0-4.335 3.299-7.5 7.442-7.5 3.38 0 5.351 1.734 6.337 3.87l-2.293 1.291c-.865-1.613-2.132-2.702-4.044-2.702-2.695 0-4.727 2.178-4.727 5.04 0 2.864 2.032 5.042 4.727 5.042 2.072 0 3.4-1.15 4.165-3.025l2.393.988c-.864 2.6-3.057 4.496-6.558 4.496-4.204 0-7.442-3.165-7.442-7.5M787 46h3V31h-3zM799.35 46h-2.7V33.417H792V31h12v2.417h-4.65V46M814.331 31H817l-4.839 8.71V46h-2.419v-6.29L805 31h2.727l3.302 6.063L814.331 31M824.253 43.584c1.4 0 2.16-.812 2.16-2.104s-.779-2.104-2.277-2.104h-2.685v4.208h2.802zm-2.802-10.167v3.541h2.296c1.187 0 1.887-.686 1.887-1.77s-.622-1.771-1.751-1.771h-2.432zM819 46V31h5.058c2.587 0 4.105 1.542 4.105 3.98 0 1.48-.798 2.396-1.829 2.979 1.576.375 2.666 1.729 2.666 3.562 0 2.646-1.654 4.479-4.67 4.479H819zM832 31h2.458v12.584H840V46h-8V31M848.5 43.541c2.715 0 4.783-2.319 4.783-5.042 0-2.862-2.068-5.04-4.783-5.04-2.716 0-4.784 2.178-4.784 5.04 0 2.864 2.068 5.042 4.784 5.042zm0-12.541c4.236 0 7.5 3.165 7.5 7.5 0 4.133-3.264 7.5-7.5 7.5-4.236 0-7.5-3.165-7.5-7.5s3.264-7.5 7.5-7.5zM858 38.5c0-4.335 3.299-7.5 7.443-7.5 3.38 0 5.351 1.734 6.336 3.87l-2.293 1.291c-.865-1.613-2.132-2.702-4.043-2.702-2.697 0-4.727 2.178-4.727 5.04 0 2.864 2.03 5.042 4.727 5.042 2.071 0 3.4-1.15 4.163-3.025l2.394.988c-.865 2.6-3.057 4.496-6.557 4.496-4.205 0-7.443-3.165-7.443-7.5M882.696 46l-4.198-6.687-1.991 2.375V46H874V31h2.507v7.043L882.119 31h3.364l-5.215 6.209L886 46h-3.304" fill="#7383A0"/><path fill="#307AD1" d="M804.91 73.105V50H802v27l56-15.556V50.091h-2.91v9.075z"/></g><g transform="translate(553 24)" fill-rule="nonzero"><circle fill="#FFF" cx="13.5" cy="13.5" r="13.5"/><g fill="#7383A0"><path d="M41.283 21.433c-2.44 0-4.475-.82-5.831-2.048-.136-.137-.407-.41-.407-.683 0-.41.407-.956.95-.956.135 0 .406.137.678.137 1.22.956 2.712 1.775 4.61 1.775 2.848 0 3.933-1.502 3.933-2.868 0-4.233-9.9-1.911-9.9-7.783 0-2.731 2.441-4.643 5.696-4.643 2.034 0 3.933.683 5.289 1.775.135.137.407.41.407.683 0 .41-.407.956-.95.956-.135 0-.406-.137-.678-.137-1.22-.955-2.712-1.502-4.204-1.502-2.034 0-3.39 1.093-3.39 2.595 0 3.687 9.9 1.502 9.9 7.783 0 2.458-1.628 4.916-6.103 4.916zM51.725 6.14c0 .682-.678 1.228-1.22 1.228-.543 0-1.22-.546-1.22-1.229 0-.682.677-1.229 1.22-1.229.678-.136 1.22.41 1.22 1.23zM50.64 21.16c-.407 0-.949-.41-.949-.956V9.69c0-.41.407-.956.95-.956.406 0 .949.41.949.956v10.514c-.136.683-.407.956-.95.956zM69.897 21.16c-.407 0-.95-.41-.95-.956v-7.237c0-1.502-.677-2.595-2.305-2.595-1.22 0-2.576.956-3.119 1.776v8.193c0 .41-.407.956-.949.956a.93.93 0 0 1-.95-.956v-7.374c0-1.502-.677-2.595-2.305-2.595-1.22 0-2.576.956-3.119 1.776v8.056c0 .41-.407.956-.949.956-.407 0-.95-.41-.95-.956V9.69c0-.41.408-.956.95-.956.407 0 .95.41.95.956v.956c.406-.683 2.033-2.049 3.932-2.049 1.763 0 2.848.956 3.119 2.322.678-1.093 2.305-2.322 3.933-2.322 2.17 0 3.39 1.23 3.39 3.687v7.92c.136.683-.136.956-.678.956zM79.66 21.433c-1.627 0-3.118-.683-4.067-2.048v5.598c0 .41-.407.956-.95.956a.93.93 0 0 1-.949-.956V9.69c0-.41.407-.956.95-.956.406 0 .949.41.949.956v.956c.949-1.23 2.305-2.049 4.068-2.049 3.119 0 5.289 2.322 5.289 6.418.135 3.96-2.035 6.418-5.29 6.418zm-.542-10.924c-1.491 0-2.847.956-3.661 1.912v5.462c.678.956 2.034 2.048 3.661 2.048 2.306 0 3.933-2.048 3.933-4.78 0-2.73-1.492-4.642-3.933-4.642zM87.933 21.16c-.407 0-.95-.41-.95-.956V5.184c0-.41.408-.956.95-.956.407 0 .95.41.95.955v15.158c.135.546-.408.819-.95.819zM101.765 15.698h-8.679c.136 2.321 1.763 4.233 4.34 4.233 1.22 0 2.305-.41 3.119-1.229.135-.136.27-.136.407-.136.406 0 .678.273.678.682 0 1.23-3.12 2.049-4.476 2.049-3.525 0-6.102-2.595-6.102-6.418 0-3.414 2.577-6.418 5.831-6.418 2.984 0 5.018 1.911 5.56 4.779.136.41.136.82.136 1.229.271.683-.271 1.229-.814 1.229zm-4.61-5.462c-2.577 0-3.798 2.185-3.933 3.96h7.865c-.135-1.775-1.22-3.96-3.933-3.96zM118.852 6.686c.136.273.407.682.407.955 0 .683-.678 1.366-1.492 1.366-.407 0-.678-.137-1.085-.41-.949-1.092-2.305-1.775-3.661-1.775-3.255 0-5.56 2.595-5.56 5.872 0 3.277 2.305 5.872 5.56 5.872 1.356 0 2.712-.683 3.661-1.776.271-.273.678-.41 1.085-.41.678 0 1.356.683 1.356 1.366 0 .273-.135.683-.271.956-1.22 1.502-3.119 2.595-5.831 2.595-4.882 0-8.68-3.414-8.68-8.603 0-5.19 3.798-8.603 8.68-8.603 2.576.137 4.475 1.229 5.831 2.595zM124.14 5.866c0 .956-.677 1.639-1.627 1.639-.949 0-1.627-.683-1.627-1.639s.678-1.638 1.627-1.638c.95 0 1.628.819 1.628 1.638zm-1.762 15.294c-.678 0-1.22-.683-1.22-1.229v-9.695c0-.683.677-1.23 1.355-1.23.679 0 1.221.684 1.221 1.23v9.695c0 .683-.542 1.229-1.356 1.229zM129.972 21.433c-2.034 0-3.119-1.092-3.119-3.14v-6.965h-.95a1.22 1.22 0 0 1-1.22-1.229 1.22 1.22 0 0 1 1.22-1.229h.95V6.96c0-.683.678-1.23 1.356-1.23s1.22.683 1.22 1.23v2.048h1.492c.678 0 1.22.546 1.22 1.229s-.406 1.229-1.22 1.229h-1.491v6.281c0 .956.542 1.502 1.22 1.502.136 0 .407-.136.543-.136.678 0 1.22.41 1.22 1.229 0 .546-.678 1.092-2.441 1.092zM136.617 5.866c0 .956-.678 1.639-1.627 1.639-.95 0-1.628-.683-1.628-1.639s.678-1.638 1.628-1.638c.949 0 1.627.819 1.627 1.638zm-1.763 15.294c-.678 0-1.22-.683-1.22-1.229v-9.695c0-.683.678-1.23 1.356-1.23s1.22.684 1.22 1.23v9.695c0 .683-.542 1.229-1.356 1.229zM146.923 21.16h-7.458c-.678 0-1.22-.683-1.22-1.366 0-.273.135-.682.27-.955l5.696-7.51h-4.882a1.22 1.22 0 0 1-1.22-1.23 1.22 1.22 0 0 1 1.22-1.229h7.459c.678 0 1.22.547 1.22 1.23 0 .409-.135.682-.271.955l-5.831 7.51h5.017c.678 0 1.22.41 1.22 1.23-.135.819-.542 1.365-1.22 1.365zM159.806 15.971h-7.865c.135 1.775 1.492 3.414 3.661 3.414.95 0 1.763-.273 2.577-.82.135-.136.407-.136.542-.136.543 0 1.22.41 1.22 1.092 0 1.366-3.118 2.049-4.61 2.049-3.661 0-6.374-2.595-6.374-6.418 0-3.414 2.577-6.418 6.103-6.418 2.848 0 4.746 1.775 5.56 4.233.135.41.271 1.092.271 1.502.271.956-.271 1.502-1.085 1.502zm-4.61-5.052c-2.17 0-3.12 1.775-3.39 3.14h6.644c.136-1.365-.814-3.14-3.255-3.14zM172.418 21.16c-.678 0-1.22-.683-1.22-1.229v-6.418c0-1.775-.95-2.458-2.306-2.458-1.22 0-2.44.683-3.119 1.502v7.237c0 .683-.678 1.23-1.356 1.23s-1.22-.683-1.22-1.23v-9.558c0-.683.677-1.23 1.356-1.23.678 0 1.22.684 1.22 1.23v.41c.814-.956 2.305-2.049 4.204-2.049 2.576 0 3.933 1.502 3.933 3.96v7.237c-.136.82-.814 1.366-1.492 1.366z"/></g><path d="M.81 12.555c.135-.405.135-.81.135-1.08C5.67 11.34 12.69 9.855 13.5 9.45c.27-.135-7.83 2.565-12.69 3.105z" fill="#2AA684"/><path d="M4.59 16.605c6.075.945 10.26-1.215 10.395-.945-.135 1.485-6.345 4.995-9.045 7.965C2.835 21.33.945 17.82.81 13.77v-1.215c4.995.405 9.855-1.35 12.42-1.89-2.025 1.215-4.455 2.025-11.34 3.24 2.97.27 8.775-.675 11.475-1.755-2.025 1.485-6.885 2.565-9.585 2.97 3.375.675 7.965-.675 9.315-1.08-1.08.945-4.725 2.025-8.505 2.565z" fill="#307AD1"/><path d="M15.66 6.345c-4.455 1.89-9.18 3.51-14.58 4.32C2.295 5.13 7.155.81 13.23.675c6.345-.135 11.61 4.185 12.825 9.99-.54-.135-1.08-.135-1.215-.135-1.35-1.215-5.265 3.105-6.48 2.565 1.485-1.755.945-4.455 2.295-5.805.945-1.215.405-1.755-.27-1.89-1.215-.54-2.97.405-4.725.945zM26.46 13.095c.135 7.155-5.265 12.96-12.285 13.095-2.835.135-5.535-.81-7.83-2.295C9.99 21.06 14.85 19.71 19.44 16.74c2.025-1.485 4.455-5.265 6.885-5.67 0 .675.135 1.35.135 2.025z" fill="#307AD1"/></g><path fill="#7383A0" fill-rule="nonzero" d="M47.39 39.497V31H51v15h-3.61L37 31h4.503zM63.765 31v2.983h-7.433v3.09h6.685v2.854h-6.685v3.112H64V46H53V31zM75.486 37.255c.404-.362.606-.936.606-1.722 0-.786-.209-1.326-.627-1.618-.418-.292-1.15-.438-2.194-.438h-2.446v4.32h2.383c1.115 0 1.874-.18 2.278-.542m3.93-1.732c0 2.337-.927 3.847-2.78 4.529l3.7 5.219h-4.014l-3.24-4.655h-2.257v4.655h-3.26V30.68h5.538c2.272 0 3.891.383 4.86 1.148.969.765 1.453 1.997 1.453 3.695M92.04 37.84h3.282v5.176c-1.45 1.615-3.456 2.422-6.02 2.422-2.146 0-3.947-.71-5.403-2.13-1.456-1.419-2.184-3.21-2.184-5.375 0-2.163.742-3.969 2.226-5.417 1.484-1.447 3.274-2.17 5.372-2.17 2.096 0 3.919.689 5.465 2.066l-1.693 2.443c-.655-.571-1.257-.964-1.807-1.18a4.86 4.86 0 0 0-1.788-.323c-1.24 0-2.285.42-3.135 1.263-.85.842-1.275 1.951-1.275 3.329 0 1.378.407 2.48 1.223 3.308.815.829 1.787 1.243 2.915 1.243 1.13 0 2.07-.216 2.822-.648V37.84zM108.553 30.68v2.901h-7.274v3.006h6.542v2.776h-6.542v3.027h7.504v2.88H98.018V30.68z"/><path d="M114.896 33.592c-.313.257-.47.598-.47 1.022 0 .425.191.762.575 1.013.383.25 1.268.546 2.654.887 1.387.341 2.463.853 3.23 1.534.766.683 1.15 1.677 1.15 2.985 0 1.308-.492 2.37-1.474 3.184-.983.813-2.276 1.22-3.878 1.22-2.313 0-4.396-.855-6.25-2.567l1.945-2.38c1.574 1.378 3.03 2.067 4.368 2.067.599 0 1.07-.129 1.411-.386.341-.257.512-.605.512-1.044 0-.438-.181-.786-.543-1.044-.363-.257-1.08-.518-2.154-.782-1.7-.404-2.943-.929-3.73-1.576-.788-.647-1.181-1.663-1.181-3.048s.498-2.453 1.494-3.204c.996-.752 2.24-1.128 3.73-1.128.976 0 1.952.168 2.928.502a7.848 7.848 0 0 1 2.55 1.42l-1.652 2.379c-1.268-.96-2.578-1.44-3.93-1.44-.543 0-.971.128-1.285.386M135.14 30.68v2.901h-7.275v3.006h6.543v2.776h-6.543v3.027h7.504v2.88h-10.764V30.68zM148.287 30.68h3.26v14.59h-3.26l-6.96-9.142v9.143h-3.262V30.68h3.052l7.17 9.393zM158.35 33.592c-.313.257-.47.598-.47 1.022 0 .425.191.762.575 1.013.383.25 1.268.546 2.654.887 1.387.341 2.463.853 3.23 1.534.766.683 1.15 1.677 1.15 2.985 0 1.308-.492 2.37-1.474 3.184-.983.813-2.275 1.22-3.878 1.22-2.313 0-4.396-.855-6.25-2.567l1.945-2.38c1.574 1.378 3.03 2.067 4.368 2.067.6 0 1.07-.129 1.41-.386.342-.257.513-.605.513-1.044 0-.438-.181-.786-.544-1.044-.362-.257-1.08-.518-2.152-.782-1.7-.404-2.944-.929-3.732-1.576-.787-.647-1.18-1.663-1.18-3.048s.498-2.453 1.494-3.204c.996-.752 2.24-1.128 3.731-1.128.976 0 1.95.168 2.926.502a7.85 7.85 0 0 1 2.55 1.42l-1.65 2.379c-1.269-.96-2.579-1.44-3.93-1.44-.544 0-.972.128-1.286.386M178.593 30.68v2.901h-7.273v3.006h6.541v2.776h-6.541v3.027h7.503v2.88H168.06V30.68z" fill="#307AD1" fill-rule="nonzero"/><g transform="translate(0 21)"><mask id="b" fill="#fff"><use xlink:href="#a"/></mask><path d="M14.754.008l3.689 2.11L3.688 10.56v12.663l1.845 1.055 1.844-1.055-1.844-1.055V11.616l14.754-8.442 1.844 1.055 1.844 1.055-14.754 8.442v6.331l1.844 1.055 1.845-1.055-1.845-1.055v-4.221L25.82 6.34l3.688 2.11V25.333l-7.377 4.221-7.377 4.221-3.689-2.11 14.755-8.442V10.56l-1.844-1.055-1.844 1.055 1.843 1.056v10.552L9.222 30.609l-1.844-1.055L5.533 28.5l14.754-8.442v-6.331l-1.844-1.055-1.844 1.055 1.844 1.055v4.221L3.689 27.444 0 25.334V8.45l7.377-4.22L14.754.007zm-.922 17.8h1.844v-1.833h-1.844v1.833z" fill="#7383A0" fill-rule="nonzero" mask="url(#b)"/></g></g></svg>