<svg xmlns="http://www.w3.org/2000/svg" width="214" height="172"><g fill="none" fill-rule="evenodd"><g fill="#1F5F87"><path d="M203.896 159.59h3.245c.998 0 1.737.2 2.217.596.48.397.72.998.72 1.805 0 .755-.21 1.309-.633 1.66-.423.353-.947.56-1.575.625l2.4 3.705h-1.401l-2.285-3.61h-1.382v3.61h-1.306v-8.39zm1.306 3.726h1.363c.294 0 .573-.01.835-.03.262-.018.496-.073.7-.162a1.1 1.1 0 0 0 .49-.413c.122-.186.183-.445.183-.778 0-.281-.055-.505-.163-.672a1.106 1.106 0 0 0-.423-.384 1.854 1.854 0 0 0-.595-.182 4.68 4.68 0 0 0-.662-.048h-1.728v2.669z"/><path d="M199.46 163.757c0-1.011.193-1.952.577-2.822a7.138 7.138 0 0 1 1.565-2.266 7.296 7.296 0 0 1 5.097-2.054 7.21 7.21 0 0 1 5.069 2.054 7.216 7.216 0 0 1 1.555 2.266c.384.87.576 1.811.576 2.822 0 1.037-.192 1.994-.576 2.87a7.302 7.302 0 0 1-1.555 2.285 7 7 0 0 1-2.285 1.508 7.24 7.24 0 0 1-2.784.537c-.985 0-1.917-.179-2.793-.537a7.083 7.083 0 0 1-2.304-1.508 7.222 7.222 0 0 1-1.565-2.284c-.384-.877-.576-1.834-.576-2.87zm1.306 0c0 .883.15 1.7.452 2.448.3.749.716 1.399 1.248 1.949.53.55 1.158.982 1.881 1.296.723.314 1.507.47 2.352.47.832 0 1.607-.156 2.323-.47a5.81 5.81 0 0 0 1.872-1.296c.532-.55.948-1.2 1.248-1.949.301-.749.452-1.565.452-2.448a6.33 6.33 0 0 0-.452-2.4 5.9 5.9 0 0 0-1.248-1.93 5.885 5.885 0 0 0-1.872-1.286 5.732 5.732 0 0 0-2.323-.47 5.848 5.848 0 0 0-4.233 1.757 5.9 5.9 0 0 0-1.248 1.93 6.33 6.33 0 0 0-.452 2.4z"/></g><path fill="#1F5F87" d="M22.463 138.458a69.173 69.173 0 0 1 11.23 5.74c3.606 2.275 5.353 5.963 5.242 11.065 0 4.548-1.775 8.32-5.324 11.315-3.55 2.995-7.987 4.492-13.311 4.492-3.661.222-7.238-.388-10.733-1.83-3.494-1.442-6.517-3.494-9.068-6.156L0 162.418l4.825-6.988.999 1.331c1.996 1.775 4.27 3.19 6.822 4.243 2.55 1.054 5.158 1.58 7.82 1.58 2.218 0 4.326-.554 6.323-1.663 1.996-1.11 2.995-2.995 2.995-5.658 0-2.218-1.11-3.937-3.328-5.158-2.219-1.22-4.825-2.44-7.82-3.66A60.58 60.58 0 0 1 7.32 140.62c-3.55-2.33-5.324-5.99-5.324-10.982 0-4.658 1.774-8.43 5.324-11.314 3.55-2.884 8.098-4.326 13.644-4.326 5.657 0 9.817.97 12.48 2.912 2.662 1.94 4.048 2.967 4.159 3.078l.5.5-4.327 7.32-.998-.832c-1.775-1.553-3.716-2.717-5.824-3.494a16.24 16.24 0 0 0-6.49-.998c-1.108 0-2.91.36-5.407 1.081-2.496.721-3.744 2.746-3.744 6.073 0 2.219 1.137 3.938 3.411 5.159 2.274 1.22 4.853 2.44 7.738 3.66zm57.737 4.825h-1.997c-5.324 0-10.51.61-15.557 1.83-5.048 1.22-7.571 4.216-7.571 8.986 0 1.996.86 3.965 2.579 5.907 1.72 1.94 4.354 2.911 7.903 2.911 4.327 0 7.848-1.969 10.566-5.906 2.718-3.938 4.077-8.126 4.077-12.563v-1.165zM68.885 114c6.656 0 11.758 1.83 15.308 5.49 3.55 3.661 5.324 8.93 5.324 15.808v34.11H80.7v-6.989c-1.886 2.662-4.27 4.715-7.155 6.157-2.884 1.442-5.99 2.163-9.318 2.163-4.437 0-8.624-1.415-12.562-4.243-3.938-2.829-5.907-6.96-5.907-12.396 0-4.77 1.331-8.458 3.993-11.065a23.71 23.71 0 0 1 9.318-5.657 42.878 42.878 0 0 1 10.816-2.08c3.66-.222 6.544-.333 8.652-.333H80.2v-.166c0-4.216-.97-7.35-2.912-9.401-1.941-2.053-4.909-3.079-8.902-3.079-2.551.111-5.02.583-7.404 1.415-2.385.832-4.52 1.969-6.406 3.41l-.999.666-4.492-7.32.832-.5c2.662-1.997 5.63-3.522 8.902-4.576A29.497 29.497 0 0 1 68.885 114zm50.416 40.266l14.476-39.101h9.484l-20.466 54.575h-9.151l-20.466-54.575h9.817l14.642 39.101c.111.333.222.749.333 1.248.111.5.222.97.333 1.414a9.13 9.13 0 0 1 .499-1.164 5.94 5.94 0 0 0 .5-1.498zm35.441-18.303l30.283.167c-.444-5.103-2.08-8.68-4.909-10.732-2.828-2.053-5.74-3.079-8.735-3.079-4.215-.11-7.903 1.137-11.065 3.744-3.161 2.607-5.02 5.907-5.574 9.9zM171.547 114c7.876 0 13.617 2.634 17.222 7.903 3.605 5.27 5.463 11.065 5.574 17.388 0 .666-.028 1.47-.083 2.413l-.084 1.414v.832h-39.933c.333 4.77 2.024 9.068 5.075 12.895 3.05 3.827 7.737 5.74 14.06 5.74 2.662-.11 5.296-.693 7.903-1.747a21.925 21.925 0 0 0 6.905-4.409l1.331-.998 4.327 7.487-.5.333c-2.773 2.662-5.879 4.631-9.317 5.907a30.38 30.38 0 0 1-10.65 1.913h-2.329c-7.543-.332-13.866-3.272-18.968-8.818-5.103-5.547-7.488-12.091-7.155-19.634 0-8.43 2.496-15.308 7.488-20.632 4.991-5.325 11.37-7.987 19.134-7.987z"/><path d="M56.987 65.771L91.181.521h9.485v91.015h12.479v8.985h-34.61v-8.985h11.98V29.64c0-1.33.029-2.69.084-4.076.055-1.387.25-2.8.582-4.243h-.499a33.366 33.366 0 0 1-.915 3.744 74.002 74.002 0 0 1-1.248 3.744L62.895 77.726H51.082L25.458 28.808a94.98 94.98 0 0 1-1.248-3.661 27.537 27.537 0 0 1-.915-3.827h-.5c.222 1.442.36 2.856.416 4.243.056 1.387.084 2.745.084 4.076v61.897H35.44v8.985H.666v-8.985h12.312V9.506H.5V.521h21.964l34.524 65.25zM200 50.438c0 6.101-.721 11.703-2.163 16.805-1.442 5.103-3.522 9.651-6.24 13.644a41.34 41.34 0 0 1-9.9 10.233c-3.882 2.829-8.208 5.075-12.978 6.74a52.74 52.74 0 0 1-10.483 2.245c-3.55.389-7.099.527-10.649.416h-28.951V9.506h-12.48V.521h41.431c3.55-.11 7.1.028 10.65.416a61.517 61.517 0 0 1 10.482 2.08 43.381 43.381 0 0 1 12.812 6.406c3.882 2.829 7.182 6.267 9.9 10.316 2.718 4.05 4.825 8.653 6.323 13.81C199.25 38.709 200 44.338 200 50.44zm-10.316.167c0-9.318-2.357-17.582-7.072-24.792-4.714-7.21-10.676-11.87-17.887-13.977a49.7 49.7 0 0 0-8.402-1.914 50.418 50.418 0 0 0-8.736-.416h-17.803v82.03h17.803c2.884.111 5.74-.027 8.57-.416a41.357 41.357 0 0 0 8.402-2.08c6.767-1.996 12.646-6.6 17.637-13.81 4.992-7.21 7.488-15.419 7.488-24.625z" fill="#19BBD4"/></g></svg>