<svg width="593" height="48" xmlns="http://www.w3.org/2000/svg" xmlns:xlink="http://www.w3.org/1999/xlink"><defs><path d="M24 0c2.017 0 3.715 2.474 5.63 2.987 1.931.518 4.639-.771 6.37.228 1.717.991 1.956 3.977 3.382 5.403 1.427 1.426 4.412 1.665 5.403 3.382 1 1.731-.29 4.439.228 6.37C45.526 20.285 48 21.983 48 24s-2.474 3.715-2.987 5.63c-.518 1.931.771 4.639-.228 6.37-.991 1.717-3.976 1.956-5.403 3.382-1.426 1.426-1.665 4.412-3.382 5.403-1.731 1-4.439-.29-6.37.228C27.715 45.526 26.017 48 24 48s-3.715-2.474-5.63-2.987c-1.931-.518-4.639.771-6.37-.228-1.717-.991-1.956-3.977-3.382-5.403C7.19 37.956 4.206 37.717 3.215 36c-1-1.731.29-4.439-.228-6.37C2.474 27.715 0 26.017 0 24s2.474-3.715 2.987-5.63c.518-1.931-.771-4.639.228-6.37.991-1.717 3.976-1.956 5.403-3.382C10.044 7.192 10.283 4.206 12 3.215c1.731-1 4.439.29 6.37-.228C20.285 2.474 21.983 0 24 0z" id="a"/><path d="M62.925 20.03V29h-2.106v-8.97h2.106zm8.454 6.24c0 .884-.35 1.599-1.053 2.145-.624.494-1.434.741-2.43.741-1.153 0-2.215-.45-3.186-1.352l1.04-1.534c.321.33.702.6 1.144.813.442.212.841.318 1.196.318.347 0 .633-.082.858-.247a.792.792 0 0 0 .338-.676.766.766 0 0 0-.097-.39.806.806 0 0 0-.293-.286 3.893 3.893 0 0 0-.318-.175 3.795 3.795 0 0 0-.345-.137 88.44 88.44 0 0 1-1.365-.507c-.511-.243-.866-.46-1.066-.65-.468-.433-.702-1.01-.702-1.729 0-.797.312-1.452.936-1.963.564-.477 1.352-.715 2.366-.715.512 0 1.036.106 1.573.319.538.212.962.474 1.274.786l-.897 1.469a3.258 3.258 0 0 0-.955-.657 2.514 2.514 0 0 0-1.047-.253c-.355 0-.639.07-.851.208a.672.672 0 0 0-.319.598c0 .13.026.245.078.345.052.1.13.186.234.26.104.073.197.13.28.168.082.04.188.085.318.137.13.052.362.14.696.267l.643.24c.546.2.962.442 1.248.728.468.468.702 1.044.702 1.729zm9.586-5.122c.901.84 1.352 1.967 1.352 3.38 0 1.413-.451 2.537-1.352 3.373-.902.837-2.037 1.255-3.406 1.255-1.37 0-2.505-.418-3.406-1.255-.902-.836-1.352-1.96-1.352-3.373 0-1.413.45-2.54 1.352-3.38.901-.84 2.036-1.261 3.406-1.261 1.369 0 2.504.42 3.406 1.261zm-1.521 5.369c.494-.52.74-1.2.74-2.041 0-.84-.246-1.517-.74-2.028-.494-.511-1.123-.767-1.885-.767-.763 0-1.391.256-1.885.767s-.741 1.187-.741 2.028c0 .84.247 1.519.74 2.035.495.515 1.123.773 1.886.773.762 0 1.39-.256 1.885-.767zm14.906.858V29h-6.578l-.247-1.326 3.042-2.743c.468-.425.81-.795 1.027-1.111.217-.317.325-.653.325-1.008 0-.381-.13-.687-.39-.917-.26-.23-.61-.344-1.053-.344-.806 0-1.53.403-2.17 1.209l-.885-1.378c.061-.13.204-.299.43-.507.225-.208.597-.422 1.117-.643a4.309 4.309 0 0 1 1.703-.332c1.006 0 1.8.243 2.386.728.585.485.877 1.127.877 1.924 0 .347-.05.674-.15.982-.099.307-.257.6-.474.877a6.318 6.318 0 0 1-.533.617 23.69 23.69 0 0 1-.728.67l-1.859 1.677h4.16zm8.156-7.345l.572 1.248L99.087 29h-2.21l3.939-7.358H96.11V20.03h6.396zm8.87 2.236c.251.676.377 1.43.377 2.262 0 .832-.123 1.586-.37 2.262a3.736 3.736 0 0 1-1.236 1.69c-.576.45-1.28.676-2.112.676-.633 0-1.194-.128-1.683-.383a3.073 3.073 0 0 1-1.17-1.047 4.995 4.995 0 0 1-.65-1.469 6.702 6.702 0 0 1-.215-1.729c0-.832.123-1.586.37-2.262a3.736 3.736 0 0 1 1.236-1.69c.576-.45 1.28-.676 2.112-.676.832 0 1.536.225 2.112.676.577.45.986 1.014 1.229 1.69zm-2.106 4.303c.277-.529.416-1.222.416-2.08 0-.858-.136-1.545-.41-2.06-.273-.516-.686-.774-1.241-.774s-.968.258-1.242.773c-.273.516-.409 1.203-.409 2.061 0 .858.136 1.55.41 2.073.273.525.686.787 1.241.787s.966-.26 1.235-.78zm11.002-4.303c.252.676.377 1.43.377 2.262 0 .832-.123 1.586-.37 2.262a3.736 3.736 0 0 1-1.235 1.69c-.577.45-1.28.676-2.113.676-.632 0-1.193-.128-1.683-.383a3.073 3.073 0 0 1-1.17-1.047 4.995 4.995 0 0 1-.65-1.469 6.702 6.702 0 0 1-.215-1.729c0-.832.124-1.586.37-2.262a3.736 3.736 0 0 1 1.236-1.69c.576-.45 1.28-.676 2.112-.676.832 0 1.536.225 2.113.676.576.45.986 1.014 1.228 1.69zm-2.106 4.303c.278-.529.416-1.222.416-2.08 0-.858-.136-1.545-.41-2.06-.272-.516-.686-.774-1.24-.774-.555 0-.97.258-1.242.773-.273.516-.41 1.203-.41 2.061 0 .858.137 1.55.41 2.073.273.525.687.787 1.241.787.555 0 .967-.26 1.235-.78zm8.09-6.539V29h-2.027v-7.527h-1.625V20.03h3.653z" id="d"/><filter x="-5.3%" y="-27%" width="110.7%" height="175.5%" filterUnits="objectBoundingBox" id="c"><feOffset dy="1" in="SourceAlpha" result="shadowOffsetOuter1"/><feGaussianBlur stdDeviation="1" in="shadowOffsetOuter1" result="shadowBlurOuter1"/><feColorMatrix values="0 0 0 0 0 0 0 0 0 0 0 0 0 0 0 0 0 0 0.5 0" in="shadowBlurOuter1"/></filter><path d="M24 0c2.017 0 3.715 2.474 5.63 2.987 1.931.518 4.639-.771 6.37.228 1.717.991 1.956 3.977 3.382 5.403 1.427 1.426 4.412 1.665 5.403 3.382 1 1.731-.29 4.439.228 6.37C45.526 20.285 48 21.983 48 24s-2.474 3.715-2.987 5.63c-.518 1.931.771 4.639-.228 6.37-.991 1.717-3.976 1.956-5.403 3.382-1.426 1.426-1.665 4.412-3.382 5.403-1.731 1-4.439-.29-6.37.228C27.715 45.526 26.017 48 24 48s-3.715-2.474-5.63-2.987c-1.931-.518-4.639.771-6.37-.228-1.717-.991-1.956-3.977-3.382-5.403C7.19 37.956 4.206 37.717 3.215 36c-1-1.731.29-4.439-.228-6.37C2.474 27.715 0 26.017 0 24s2.474-3.715 2.987-5.63c.518-1.931-.771-4.639.228-6.37.991-1.717 3.976-1.956 5.403-3.382C10.044 7.192 10.283 4.206 12 3.215c1.731-1 4.439.29 6.37-.228C20.285 2.474 21.983 0 24 0z" id="e"/><path d="M68.632 20.03V29h-2.106v-3.757h-3.601V29h-2.106v-8.97h2.106v3.471h3.601V20.03h2.106zm4.502 0V29h-2.106v-8.97h2.106zm8.884 2.821c0 .91-.312 1.63-.936 2.158-.546.45-1.326.676-2.34.676h-1.105V29H75.53v-8.97h3.21c1.015 0 1.795.225 2.34.676.625.511.937 1.226.937 2.145zm-2.132 0c0-.425-.143-.741-.43-.949-.233-.165-.571-.247-1.013-.247h-.82v2.405h.82c.442 0 .78-.082 1.014-.247.286-.208.429-.529.429-.962zm7.96-2.834L91.226 29h-2.288l-.637-1.807h-3.198L84.466 29h-2.184l3.38-8.983h2.184zm-2.262 5.538h2.236l-1.118-3.224-1.118 3.224zm11.86-5.538l3.38 8.983h-2.288l-.637-1.807h-3.198L94.064 29H91.88l3.38-8.983h2.184zm-2.262 5.538h2.236L96.3 22.331l-1.118 3.224z" id="h"/><filter x="-8.7%" y="-27.8%" width="117.5%" height="177.9%" filterUnits="objectBoundingBox" id="g"><feOffset dy="1" in="SourceAlpha" result="shadowOffsetOuter1"/><feGaussianBlur stdDeviation="1" in="shadowOffsetOuter1" result="shadowBlurOuter1"/><feColorMatrix values="0 0 0 0 0 0 0 0 0 0 0 0 0 0 0 0 0 0 0.5 0" in="shadowBlurOuter1"/></filter><path d="M24 0c2.017 0 3.715 2.474 5.63 2.987 1.931.518 4.639-.771 6.37.228 1.717.991 1.956 3.977 3.382 5.403 1.427 1.426 4.412 1.665 5.403 3.382 1 1.731-.29 4.439.228 6.37C45.526 20.285 48 21.983 48 24s-2.474 3.715-2.987 5.63c-.518 1.931.771 4.639-.228 6.37-.991 1.717-3.976 1.956-5.403 3.382-1.426 1.426-1.665 4.412-3.382 5.403-1.731 1-4.439-.29-6.37.228C27.715 45.526 26.017 48 24 48s-3.715-2.474-5.63-2.987c-1.931-.518-4.639.771-6.37-.228-1.717-.991-1.956-3.977-3.382-5.403C7.19 37.956 4.206 37.717 3.215 36c-1-1.731.29-4.439-.228-6.37C2.474 27.715 0 26.017 0 24s2.474-3.715 2.987-5.63c.518-1.931-.771-4.639.228-6.37.991-1.717 3.976-1.956 5.403-3.382C10.044 7.192 10.283 4.206 12 3.215c1.731-1 4.439.29 6.37-.228C20.285 2.474 21.983 0 24 0z" id="i"/><path d="M69.022 23.891v3.718l-.156.143a4.127 4.127 0 0 1-.201.175c-.04.03-.12.094-.241.189a2.424 2.424 0 0 1-.299.208c-.078.043-.193.108-.344.195-.152.087-.29.154-.416.202-.126.047-.282.101-.468.162-.187.06-.371.108-.553.143a7.336 7.336 0 0 1-1.313.117c-.84 0-1.61-.173-2.308-.52-.697-.347-1.265-.877-1.703-1.593-.437-.715-.656-1.553-.656-2.515 0-1.439.453-2.567 1.358-3.387.906-.819 2.018-1.228 3.335-1.228.45 0 .877.048 1.28.143.404.095.722.195.956.299.234.104.477.253.728.449.251.195.403.32.455.377l.273.292-1.391 1.209c-.624-.685-1.391-1.027-2.301-1.027-.745 0-1.358.258-1.84.774-.48.515-.721 1.215-.721 2.099 0 .884.245 1.584.734 2.1.49.515 1.112.773 1.866.773.433 0 .806-.048 1.118-.143.312-.095.516-.19.611-.286l.143-.143V25.49h-1.885v-1.599h3.939zm10.183.624c0 1.456-.485 2.596-1.456 3.419-.84.71-1.993 1.066-3.458 1.066H71.25v-8.97h3.042c1.465 0 2.618.36 3.458 1.079.971.806 1.456 1.941 1.456 3.406zm-2.132 0c0-.893-.264-1.595-.793-2.106-.459-.425-1.083-.637-1.872-.637h-1.066v5.447h1.066c.798 0 1.422-.217 1.872-.65.529-.494.793-1.179.793-2.054zm10.56-1.664c0 .91-.311 1.63-.935 2.158-.546.45-1.326.676-2.34.676h-1.105V29h-2.106v-8.97h3.21c1.015 0 1.795.225 2.34.676.625.511.937 1.226.937 2.145zm-2.131 0c0-.425-.143-.741-.43-.949-.233-.165-.571-.247-1.013-.247h-.82v2.405h.82c.442 0 .78-.082 1.014-.247.286-.208.429-.529.429-.962zm8.74 2.444L96.517 29h-2.444l-1.885-3.432h-.663V29h-2.106v-8.97h3.224c.997 0 1.785.212 2.366.637.659.485.988 1.17.988 2.054 0 .529-.106.986-.319 1.372-.212.385-.437.66-.676.825-.238.165-.491.29-.76.377zm-.819-1.586c.303-.217.455-.52.455-.91s-.152-.693-.455-.91c-.208-.156-.568-.234-1.079-.234h-.832v2.301h.832c.503 0 .862-.082 1.079-.247z" id="l"/><filter x="-9.7%" y="-27%" width="119.4%" height="175.7%" filterUnits="objectBoundingBox" id="k"><feOffset dy="1" in="SourceAlpha" result="shadowOffsetOuter1"/><feGaussianBlur stdDeviation="1" in="shadowOffsetOuter1" result="shadowBlurOuter1"/><feColorMatrix values="0 0 0 0 0 0 0 0 0 0 0 0 0 0 0 0 0 0 0.5 0" in="shadowBlurOuter1"/></filter><path d="M24 0c2.017 0 3.715 2.474 5.63 2.987 1.931.518 4.639-.771 6.37.228 1.717.991 1.956 3.977 3.382 5.403 1.427 1.426 4.412 1.665 5.403 3.382 1 1.731-.29 4.439.228 6.37C45.526 20.285 48 21.983 48 24s-2.474 3.715-2.987 5.63c-.518 1.931.771 4.639-.228 6.37-.991 1.717-3.976 1.956-5.403 3.382-1.426 1.426-1.665 4.412-3.382 5.403-1.731 1-4.439-.29-6.37.228C27.715 45.526 26.017 48 24 48s-3.715-2.474-5.63-2.987c-1.931-.518-4.639.771-6.37-.228-1.717-.991-1.956-3.977-3.382-5.403C7.19 37.956 4.206 37.717 3.215 36c-1-1.731.29-4.439-.228-6.37C2.474 27.715 0 26.017 0 24s2.474-3.715 2.987-5.63c.518-1.931-.771-4.639.228-6.37.991-1.717 3.976-1.956 5.403-3.382C10.044 7.192 10.283 4.206 12 3.215c1.731-1 4.439.29 6.37-.228C20.285 2.474 21.983 0 24 0z" id="m"/><path d="M64.877 26.27c0 .884-.351 1.599-1.053 2.145-.624.494-1.434.741-2.431.741-1.153 0-2.214-.45-3.185-1.352l1.04-1.534c.32.33.702.6 1.144.813.442.212.84.318 1.196.318.347 0 .633-.082.858-.247a.792.792 0 0 0 .338-.676.766.766 0 0 0-.097-.39.806.806 0 0 0-.293-.286 3.893 3.893 0 0 0-.319-.175 3.795 3.795 0 0 0-.344-.137 88.44 88.44 0 0 1-1.365-.507c-.511-.243-.867-.46-1.066-.65-.468-.433-.702-1.01-.702-1.729 0-.797.312-1.452.936-1.963.563-.477 1.352-.715 2.366-.715.511 0 1.036.106 1.573.319.537.212.962.474 1.274.786L63.85 22.5a3.258 3.258 0 0 0-.956-.657 2.514 2.514 0 0 0-1.046-.253c-.355 0-.64.07-.852.208a.672.672 0 0 0-.318.598c0 .13.026.245.078.345.052.1.13.186.234.26.104.073.197.13.28.168.082.04.188.085.318.137.13.052.362.14.695.267l.644.24c.546.2.962.442 1.248.728.468.468.702 1.044.702 1.729zm9.585-5.122c.902.84 1.352 1.967 1.352 3.38 0 1.413-.45 2.537-1.352 3.373-.901.837-2.036 1.255-3.406 1.255-1.369 0-2.504-.418-3.406-1.255-.901-.836-1.352-1.96-1.352-3.373 0-1.413.451-2.54 1.352-3.38.902-.84 2.037-1.261 3.406-1.261 1.37 0 2.505.42 3.406 1.261zm-1.52 5.369c.493-.52.74-1.2.74-2.041 0-.84-.247-1.517-.74-2.028-.495-.511-1.123-.767-1.886-.767-.762 0-1.39.256-1.885.767-.494.511-.74 1.187-.74 2.028 0 .84.246 1.519.74 2.035.494.515 1.123.773 1.885.773.763 0 1.391-.256 1.885-.767zm11.6-.221l.702 1.638c-.789.815-1.868 1.222-3.237 1.222-1.352 0-2.475-.418-3.367-1.255-.893-.836-1.34-1.96-1.34-3.373 0-1.413.45-2.537 1.346-3.373.897-.837 2.017-1.255 3.36-1.255.798 0 1.459.115 1.983.345.525.23.89.452 1.099.669l-.65 1.742c-.13-.173-.42-.373-.871-.598a3.183 3.183 0 0 0-1.443-.338c-.78 0-1.424.247-1.93.741-.508.494-.761 1.17-.761 2.028 0 .85.257 1.521.773 2.015.516.494 1.155.741 1.918.741.996 0 1.802-.316 2.418-.949zm9.195 1.079V29h-6.578l-.247-1.326 3.042-2.743c.468-.425.81-.795 1.027-1.111.217-.317.325-.653.325-1.008 0-.381-.13-.687-.39-.917-.26-.23-.611-.344-1.053-.344-.806 0-1.53.403-2.171 1.209l-.884-1.378c.06-.13.204-.299.429-.507.225-.208.598-.422 1.118-.643a4.309 4.309 0 0 1 1.703-.332c1.005 0 1.8.243 2.385.728.586.485.878 1.127.878 1.924 0 .347-.05.674-.15.982-.1.307-.257.6-.474.877a6.318 6.318 0 0 1-.533.617 23.69 23.69 0 0 1-.728.67l-1.859 1.677h4.16zm11.41-7.345v1.664h-2.314V29h-2.106v-7.306h-2.314V20.03h6.734zm6.673 0h2.34l-3.12 5.343V29h-2.106v-3.627l-3.12-5.343h2.34l1.833 3.575 1.833-3.575zm10.261 2.821c0 .91-.312 1.63-.936 2.158-.546.45-1.326.676-2.34.676H117.7V29h-2.106v-8.97h3.211c1.014 0 1.794.225 2.34.676.624.511.936 1.226.936 2.145zm-2.132 0c0-.425-.143-.741-.429-.949-.234-.165-.572-.247-1.014-.247h-.819v2.405h.82c.441 0 .78-.082 1.013-.247.286-.208.43-.529.43-.962zm9.846 4.446V29h-5.928v-8.97h5.81v1.677h-3.717v1.833h3.51v1.677h-3.51v2.08h3.835zm7.483-7.267V29h-2.106v-8.97h2.106zm4.503 0V29h-2.106v-8.97h2.106z" id="p"/><filter x="-4.2%" y="-27%" width="108.4%" height="175.5%" filterUnits="objectBoundingBox" id="o"><feOffset dy="1" in="SourceAlpha" result="shadowOffsetOuter1"/><feGaussianBlur stdDeviation="1" in="shadowOffsetOuter1" result="shadowBlurOuter1"/><feColorMatrix values="0 0 0 0 0 0 0 0 0 0 0 0 0 0 0 0 0 0 0.5 0" in="shadowBlurOuter1"/></filter></defs><g fill="none" fill-rule="evenodd"><g><mask id="b" fill="#fff"><use xlink:href="#a"/></mask><path fill="#107EFF" mask="url(#b)" d="M0-1h49v49H0z"/><g mask="url(#b)" fill="#FFF" fill-rule="nonzero"><path d="M25.586 38.61a8.178 8.178 0 0 1-1.67.019c-.207.019-.451 0-.695-.019-4.505-.36-8.654-2.729-11.244-6.764.187.019.413-.057.6.019.45.644.958 1.27 1.52 1.875.489.474.94.929 1.465 1.27.488-.322 1.032-.588 1.502-.89-.582-.74-1.183-1.479-1.615-2.274.132-.057.376-.038.564 0 .469.7.976 1.402 1.576 2.027.807-.303 1.596-.625 2.422-.853l.075-.075-.47-1.1c.207-.037.339-.018.545 0 .169.323.3.683.488 1.005a18.12 18.12 0 0 1 3.398-.417c.15-.133.037-.417.094-.587h.506c.057.189-.018.397.057.568 1.089.057 2.234.17 3.285.436l.094-.02.506-.984c.17 0 .395-.038.526.038l-.47 1.098.038.038c.864.228 1.671.569 2.497.91.582-.625 1.126-1.364 1.614-2.084.207 0 .413-.02.563.038a7.383 7.383 0 0 1-.807 1.193 8.2 8.2 0 0 1-.826 1.023v.095l1.314.777.188.076a13.898 13.898 0 0 0 2.966-3.164c.225 0 .413-.076.6.018-2.515 3.866-6.663 6.348-11.15 6.708l-.018-.038-.038.038zm1.934-.853v-.038c-1.634-1.212-4.28-1.326-6.007-.208-.094.076-.282.114-.3.246 1.989.474 4.336.512 6.307 0zm5.162-2.311l-.038-.076-1.295-.74h-.094a16.311 16.311 0 0 1-3.341 2.616c.037.132.225.227.356.322a13.212 13.212 0 0 0 4.412-2.122zm-11.826 1.8c-1.164-.74-2.31-1.61-3.36-2.672-.507.19-.977.474-1.427.796v.038a13.327 13.327 0 0 0 3.886 2.008c.056.057.093.114.169.114v-.038c.15-.038.262.133.394.019.112-.095.244-.17.338-.265zm9.855-2.861l-.038-.057c-.732-.322-1.483-.625-2.29-.796a32.09 32.09 0 0 1-1.933 2.975c.262.151.581.265.863.417 1.22-.626 2.403-1.516 3.398-2.54zm-8.448 2.16l-.056-.152c-.713-.91-1.276-1.895-1.84-2.861l-.075-.019c-.77.208-1.52.455-2.233.777l.037.114c1.033 1.004 2.121 1.837 3.323 2.482.281-.114.563-.209.844-.341zm1.821-.36c.057-.986.02-2.123.02-3.165-.527-.075-.996.02-1.521.057-.507.076-1.145.133-1.652.303a16.883 16.883 0 0 0 1.952 2.975l1.201-.17zm1.765.151c.732-.947 1.445-1.914 1.933-2.956a13.08 13.08 0 0 0-3.097-.379c-.038 1.005-.019 2.123 0 3.165.375.057.788.113 1.164.17z" opacity=".413"/><path d="M20.218 29.894c2.065.89 4.956.985 6.833-.398 1.22-.91 1.595-2.539 1.276-3.979-.244-1.364-1.52-2.368-2.74-2.842-1.671-.606-3.417-1.042-5.106-1.63-.17-.075-.394-.246-.357-.454 0-.17.17-.266.3-.341 1.765-.493 3.68-.114 4.956 1.25.15.19.244.417.394.607l2.535-.02c.037-1.534.056-3.296 0-4.812l-2.816.019-.038.91c-.319-.152-.638-.342-.957-.512-1.952-.834-4.468-1.024-6.401 0-1.408.795-2.159 2.33-1.952 3.979.206 1.61 1.708 3.07 3.228 3.467l4.543 1.345.338.17c.15.134.244.304.206.513-.356.625-1.182.435-1.802.416-1.314-.19-2.665-.644-3.435-1.875-.826 0-1.783-.02-2.684.018-.038 1.554.018 2.918.037 4.491.845.019 1.878.019 2.722-.019.038-.227-.037-.55.057-.777l.863.474zM40.247 29.288c-2.44 1.591-6.157 1.705-8.673.265-1.37-.72-2.271-2.141-2.553-3.6-.507-2.407-.375-5.268 1.427-7.068 2.102-1.894 5.162-2.311 7.884-1.534.129.026.54.132.821.286l.08.036c.845.36 1.652.947 2.252 1.743 1.39 2.084 1.483 5.21.639 7.56-.338.91-1.033 1.724-1.877 2.312zm-2.76-2.729c.282-.436.263-1.004.32-1.516-.02-1.08.074-2.368-.113-3.467-.094-.455-.395-.928-.864-1.1-.75-.34-1.764-.245-2.459.152-.582.417-.657 1.118-.732 1.782-.056 1.307-.15 2.69.206 3.884.282.739 1.052.928 1.746.985.732 0 1.446-.113 1.896-.72zM8.354 30.424l-1.164-.018a90.91 90.91 0 0 1 0-3.203c.638-.019 1.239 0 1.858-.056v-6.443l-.018-.265-1.859-.038a43.386 43.386 0 0 1 0-3.126h8.278V20.4c-.62.038-1.314-.019-1.914.057l.018 6.65.038.058 1.858.018c.02 1.08.038 2.236-.018 3.222l-7.077.019z"/><path d="M20.255 15.873c-.188 0-.394.038-.526-.02l.47-1.117-.057-.057c-.844-.246-1.67-.55-2.478-.89l-.075.037a15.117 15.117 0 0 0-1.445 1.876c-.094.322-.47.133-.676.17.45-.833 1.051-1.572 1.652-2.33-.507-.303-1.014-.644-1.54-.89a13.696 13.696 0 0 0-2.965 3.202c-.225.038-.376.019-.6 0 1.35-2.16 3.453-4.055 5.65-5.173 0 0 0 .019.018.019.019 0 .056-.038.019-.057 1.483-.739 3.06-1.27 4.73-1.497 5.763-.777 11.263 1.743 14.454 6.708a3.192 3.192 0 0 1-.6 0c-.789-1.156-1.784-2.274-2.872-3.146-.038-.056-.15-.037-.188.02-.47.302-.976.549-1.427.852.601.739 1.183 1.478 1.634 2.293h-.582c-.47-.701-.958-1.44-1.577-2.066-.826.341-1.577.645-2.422.872l-.094.076c.132.379.376.739.451 1.118h-.507l-.507-1.023c-1.107.246-2.327.379-3.454.454-.056.17.02.417-.056.569h-.488c-.038-.228.056-.398-.056-.588a21.675 21.675 0 0 1-3.38-.417l-.506 1.005zm3.942-4.358c-.394-.095-.826-.095-1.202-.19a16.88 16.88 0 0 0-1.952 2.975l.094.076c.976.19 1.99.34 3.041.34l.019-3.201zm3.698 2.823l.019-.057c-.526-1.023-1.183-2.008-1.896-2.937-.32-.038-.62.095-.939.114l-.319.038c-.037 1.118-.056 2.103 0 3.22 1.07-.018 2.14-.132 3.135-.378zm-7.415-.17c.545-1.043 1.22-2.028 1.896-3.013-.263-.152-.582-.247-.845-.398a12.667 12.667 0 0 0-3.416 2.539v.057c.732.36 1.502.625 2.29.833l.075-.019zm10.325-.796c-.601-.701-1.37-1.308-2.084-1.82-.432-.265-.864-.549-1.314-.776l-.807.36.056.132a23.025 23.025 0 0 1 1.802 2.88l.056.038c.808-.19 1.577-.454 2.29-.814zm2.008-1.08c-1.051-.853-2.271-1.421-3.51-1.895l-.882-.284c-.15.075-.282.19-.413.303l.037.057c1.201.72 2.29 1.591 3.323 2.633a7.268 7.268 0 0 0 1.445-.814zm-11.901-1.876a1.473 1.473 0 0 0-.375-.303c-1.577.416-3.042 1.136-4.393 2.122v.057c.45.284.901.587 1.39.795 1.069-1.08 2.176-1.894 3.378-2.671zm6.72-.436c.056-.114-.094-.076-.131-.114-1.99-.436-4.205-.455-6.195.038-.037.095.094.114.15.17 1.746 1.156 4.468 1.156 6.176-.094z" opacity=".413"/></g></g><g><use fill="#000" filter="url(#c)" xlink:href="#d"/><use fill="#FFF" xlink:href="#d"/></g><g transform="translate(169)"><mask id="f" fill="#fff"><use xlink:href="#e"/></mask><path fill="#107EFF" mask="url(#f)" d="M0-1h49v49H0z"/><path d="M24 40c9.941 0 18-7.611 18-17S33.941 6 24 6 6 13.611 6 23s8.059 17 18 17z" stroke-opacity=".23" stroke="#FFF" mask="url(#f)"/><g fill="#FFF" mask="url(#f)"><path d="M23.5 13.5h1v15h-1zM23.5 30.5h1v10h-1z"/><path d="M24 14a2.503 2.503 0 0 1-2.5-2.5c0-1.379 1.121-2.5 2.5-2.5 1.378 0 2.5 1.121 2.5 2.5 0 1.378-1.122 2.5-2.5 2.5zm0-4c-.827 0-1.5.673-1.5 1.5S23.173 13 24 13s1.5-.673 1.5-1.5S24.827 10 24 10z" fill-rule="nonzero"/><path d="M24 41c-1.655 0-3-1.346-3-3 0-.655.207-1.277.6-1.8l.8.6A2.002 2.002 0 0 0 24 40c1.103 0 2-.897 2-2 0-.891-.858-1.383-1.979-1.932l-.245-.12.448-.895.237.117C25.472 35.665 27 36.414 27 38c0 1.654-1.346 3-3 3z"/><path d="M23.776 35.948c-.088-.045-.189-.093-.299-.146C22.261 35.219 20 34.133 20 32c0-1.594 1.406-2.425 2.245-2.921l.51.861C21.794 30.507 21 31.054 21 32c0 1.504 1.892 2.412 2.91 2.9l.313.153-.447.895zM26.224 34.948l-.448-.895C26.6 33.641 27 32.97 27 32c0-1.479-1.936-2.424-2.977-2.931l-.247-.121.448-.895.238.117C25.61 28.73 28 29.896 28 32c0 1.347-.614 2.366-1.776 2.948z"/><path d="M24 29.059l-.462-.229c-1.209-.588-4.038-1.965-4.038-4.33 0-2.284 1.742-3.5 3-3.5v1c-.697 0-2 .733-2 2.5 0 1.739 2.435 2.925 3.476 3.431l.024.012.024-.012c1.04-.506 3.476-1.692 3.476-3.431 0-1.767-1.302-2.5-2-2.5v-1c1.258 0 3 1.216 3 3.5 0 2.364-2.83 3.741-4.038 4.33l-.462.229zM22.5 20h-2c-5.089 0-11.038-1.535-12.475-5.842A.5.5 0 0 1 8.5 13.5c4.244 0 5.766-.91 6.99-1.641.771-.461 1.437-.859 2.51-.859 1.332 0 2.5 1.169 2.5 2.5V15c0 .551.448 1 1 1h1v1h-1c-1.103 0-2-.897-2-2v-1.5c0-.845-.806-1.5-1.5-1.5-.797 0-1.3.301-1.997.717-1.187.71-2.788 1.666-6.753 1.773C10.432 16.777 13.895 19 20.5 19h2v1z"/><path d="M18.5 17.5h1v2h-1zM16.5 17h1v2.5h-1zM14.5 16.5h1V19h-1zM12.5 16h1v2h-1z"/><g><path d="M27.5 20h-2v-1h2c6.605 0 10.068-2.224 11.25-4.51-3.966-.108-5.566-1.064-6.753-1.774-.696-.415-1.2-.716-1.997-.716-.693 0-1.5.655-1.5 1.5V15c0 1.103-.897 2-2 2h-1v-1h1c.552 0 1-.449 1-1v-1.5c0-1.331 1.168-2.5 2.5-2.5 1.073 0 1.739.398 2.51.859 1.223.731 2.747 1.641 6.99 1.641a.5.5 0 0 1 .475.658C38.539 18.465 32.589 20 27.5 20z"/><path d="M28.5 17.5h1v2h-1zM30.5 17h1v2.5h-1zM32.5 16.5h1V19h-1zM34.5 16h1v2h-1z"/></g></g></g><g transform="translate(169)"><use fill="#000" filter="url(#g)" xlink:href="#h"/><use fill="#FFF" xlink:href="#h"/></g><g><g transform="translate(495)"><mask id="j" fill="#fff"><use xlink:href="#i"/></mask><path fill="#107EFF" mask="url(#j)" d="M0-1h49v49H0z"/><g mask="url(#j)" fill="#FFFFFE"><path d="M23.201 12.429l1.35-1.041 1.35 1.04-.513-1.683 1.37-1.041h-1.69L24.552 8l-.517 1.706-1.69-.002 1.371 1.041zM16.582 13.536l1.35-1.04 1.349 1.04-.513-1.683 1.37-1.04h-1.69l-.518-1.706-.517 1.707-1.689-.002 1.37 1.041zM12.414 14.643l-.518 1.707-1.69-.002 1.371 1.04-.513 1.683 1.35-1.04 1.35 1.04-.514-1.683 1.37-1.04h-1.689zM10.207 24.674l1.35 1.04-.513-1.682 1.37-1.041h-1.69l-.517-1.705-.517 1.709L8 22.99l1.371 1.04-.514 1.683zM12.931 29.634l-.517-1.705-.518 1.707-1.69-.002 1.371 1.04-.513 1.683 1.35-1.042 1.35 1.042-.514-1.683 1.37-1.04zM18.448 35.168l-.517-1.704-.517 1.706-1.69-.002 1.37 1.041-.512 1.684 1.35-1.041 1.348 1.04-.512-1.683 1.37-1.04zM25.069 36.277l-.518-1.706-.516 1.707-1.69-.001 1.37 1.04L23.202 39l1.35-1.04 1.35 1.04-.514-1.683 1.37-1.04zM31.689 35.168l-.517-1.704-.518 1.706-1.688-.002 1.37 1.041-.514 1.684 1.35-1.041 1.35 1.04-.514-1.683 1.371-1.04zM37.208 29.634l-.518-1.705-.519 1.707-1.688-.002 1.371 1.04-.515 1.683 1.35-1.042 1.351 1.042-.515-1.683 1.372-1.04zM40 22.99h-1.69l-.518-1.704-.516 1.707-1.69-.002 1.371 1.04-.513 1.683 1.348-1.042 1.35 1.042-.513-1.683zM35.34 19.071l1.35-1.04 1.35 1.04-.515-1.683 1.372-1.04h-1.69l-.517-1.705-.518 1.708-1.69-.002 1.372 1.039zM31.172 9.107l-.517 1.707-1.69-.004 1.37 1.043-.513 1.683 1.351-1.043 1.348 1.043-.513-1.683 1.371-1.043h-1.691z"/></g></g><g transform="translate(495)"><use fill="#000" filter="url(#k)" xlink:href="#l"/><use fill="#FFF" xlink:href="#l"/></g></g><g><g transform="translate(311)"><mask id="n" fill="#fff"><use xlink:href="#m"/></mask><path fill="#107EFF" mask="url(#n)" d="M0-1h49v49H0z"/><path d="M19.35 24.44l-3.507 5.004A10.451 10.451 0 0 1 14 23.5a10.5 10.5 0 0 1 5.69-9.336c-1.493.938-2.239 2.413-2.239 4.425 0 1.86.71 3.934 1.899 5.85zm.718 1.059c2.319 3.142 5.905 5.628 9.624 5.628.733 0 1.417-.008 2.05-.025A10.464 10.464 0 0 1 24.5 34c-3.152 0-5.98-1.39-7.905-3.589l3.473-4.912zm7.065-12.166l-6.958 9.93c-1.027-1.523-1.659-3.19-1.659-4.796 0-3.159 1.82-4.977 5.458-5.454a10.519 10.519 0 0 1 3.16.32zm.375.104C31.84 14.73 35 18.747 35 23.5c0 .427-.025.847-.075 1.26-.27.946-.642 1.734-1.118 2.365l-6.3-13.688zm4.905 14.935c-.764.438-1.67.658-2.721.658-3.072 0-6.517-2.04-8.759-4.755l6.397-9.05 5.083 13.147z" fill="#FFF" mask="url(#n)"/></g><g transform="translate(311)"><use fill="#000" filter="url(#o)" xlink:href="#p"/><use fill="#FFF" xlink:href="#p"/></g></g></g></svg>