<?xml version="1.0" encoding="UTF-8"?>
<svg width="593px" height="48px" viewBox="0 0 593 48" version="1.1" xmlns="http://www.w3.org/2000/svg" xmlns:xlink="http://www.w3.org/1999/xlink">
    <!-- Generator: Sketch 52.2 (67145) - http://www.bohemiancoding.com/sketch -->
    <title>Protocols</title>
    <desc>Created with Sketch.</desc>
    <defs>
        <path d="M24,0 C26.0168,0 27.7154909,2.47404706 29.6303273,2.98722353 C31.5612364,3.50463529 34.2686545,2.21583529 36,3.21536471 C37.7168727,4.20649412 37.9562909,7.19152941 39.3824,8.61762353 C40.8085091,10.0437176 43.7935273,10.2831529 44.7846545,12 C45.7841455,13.7313176 44.4953455,16.4386588 45.0128,18.3696706 C45.5259636,20.2845176 48,21.9831529 48,24 C48,26.0168471 45.5259636,27.7154824 45.0128,29.6303294 C44.4953455,31.5612706 45.7841455,34.2686824 44.7846545,36 C43.7935273,37.7168471 40.8085091,37.9562824 39.3824,39.3823765 C37.9562909,40.8084706 37.7168727,43.7935059 36,44.7846353 C34.2686545,45.7841647 31.5613091,44.4953647 29.6303273,45.0127765 C27.7154909,45.5259529 26.0168,48 24,48 C21.9832,48 20.2845091,45.5259529 18.3696727,45.0127765 C16.4387636,44.4953647 13.7313455,45.7841647 12,44.7846353 C10.2831273,43.7935059 10.0437091,40.8084706 8.6176,39.3823765 C7.19149091,37.9562824 4.20647273,37.7168471 3.21534545,36 C2.21585455,34.2686824 3.50465455,31.5613412 2.9872,29.6303294 C2.47403636,27.7154824 0,26.0168471 0,24 C0,21.9831529 2.47403636,20.2845176 2.9872,18.3696706 C3.50465455,16.4387294 2.21585455,13.7313176 3.21534545,12 C4.20647273,10.2831529 7.19149091,10.0437176 8.6176,8.61762353 C10.0437091,7.19152941 10.2831273,4.20649412 12,3.21536471 C13.7313455,2.21583529 16.4386909,3.50463529 18.3696727,2.98722353 C20.2845818,2.47404706 21.9832,0 24,0 Z" id="path-1"></path>
        <text id="text-3" font-family="Gibson-SemiBold, Gibson Light" font-size="13" font-weight="bold" letter-spacing="0.7583333" fill="#FFFFFF">
            <tspan x="60" y="29">ISO 27001</tspan>
        </text>
        <filter x="-5.1%" y="-16.7%" width="110.1%" height="146.7%" filterUnits="objectBoundingBox" id="filter-4">
            <feOffset dx="0" dy="1" in="SourceAlpha" result="shadowOffsetOuter1"></feOffset>
            <feGaussianBlur stdDeviation="1" in="shadowOffsetOuter1" result="shadowBlurOuter1"></feGaussianBlur>
            <feColorMatrix values="0 0 0 0 0   0 0 0 0 0   0 0 0 0 0  0 0 0 0.5 0" type="matrix" in="shadowBlurOuter1"></feColorMatrix>
        </filter>
        <path d="M24,0 C26.0168,0 27.7154909,2.47404706 29.6303273,2.98722353 C31.5612364,3.50463529 34.2686545,2.21583529 36,3.21536471 C37.7168727,4.20649412 37.9562909,7.19152941 39.3824,8.61762353 C40.8085091,10.0437176 43.7935273,10.2831529 44.7846545,12 C45.7841455,13.7313176 44.4953455,16.4386588 45.0128,18.3696706 C45.5259636,20.2845176 48,21.9831529 48,24 C48,26.0168471 45.5259636,27.7154824 45.0128,29.6303294 C44.4953455,31.5612706 45.7841455,34.2686824 44.7846545,36 C43.7935273,37.7168471 40.8085091,37.9562824 39.3824,39.3823765 C37.9562909,40.8084706 37.7168727,43.7935059 36,44.7846353 C34.2686545,45.7841647 31.5613091,44.4953647 29.6303273,45.0127765 C27.7154909,45.5259529 26.0168,48 24,48 C21.9832,48 20.2845091,45.5259529 18.3696727,45.0127765 C16.4387636,44.4953647 13.7313455,45.7841647 12,44.7846353 C10.2831273,43.7935059 10.0437091,40.8084706 8.6176,39.3823765 C7.19149091,37.9562824 4.20647273,37.7168471 3.21534545,36 C2.21585455,34.2686824 3.50465455,31.5613412 2.9872,29.6303294 C2.47403636,27.7154824 0,26.0168471 0,24 C0,21.9831529 2.47403636,20.2845176 2.9872,18.3696706 C3.50465455,16.4387294 2.21585455,13.7313176 3.21534545,12 C4.20647273,10.2831529 7.19149091,10.0437176 8.6176,8.61762353 C10.0437091,7.19152941 10.2831273,4.20649412 12,3.21536471 C13.7313455,2.21583529 16.4386909,3.50463529 18.3696727,2.98722353 C20.2845818,2.47404706 21.9832,0 24,0 Z" id="path-5"></path>
        <text id="text-7" font-family="Gibson-SemiBold, Gibson Light" font-size="13" font-weight="bold" letter-spacing="0.7583333" fill="#FFFFFF">
            <tspan x="60" y="29">HIPAA</tspan>
        </text>
        <filter x="-8.3%" y="-16.7%" width="116.7%" height="146.7%" filterUnits="objectBoundingBox" id="filter-8">
            <feOffset dx="0" dy="1" in="SourceAlpha" result="shadowOffsetOuter1"></feOffset>
            <feGaussianBlur stdDeviation="1" in="shadowOffsetOuter1" result="shadowBlurOuter1"></feGaussianBlur>
            <feColorMatrix values="0 0 0 0 0   0 0 0 0 0   0 0 0 0 0  0 0 0 0.5 0" type="matrix" in="shadowBlurOuter1"></feColorMatrix>
        </filter>
        <path d="M24,0 C26.0168,0 27.7154909,2.47404706 29.6303273,2.98722353 C31.5612364,3.50463529 34.2686545,2.21583529 36,3.21536471 C37.7168727,4.20649412 37.9562909,7.19152941 39.3824,8.61762353 C40.8085091,10.0437176 43.7935273,10.2831529 44.7846545,12 C45.7841455,13.7313176 44.4953455,16.4386588 45.0128,18.3696706 C45.5259636,20.2845176 48,21.9831529 48,24 C48,26.0168471 45.5259636,27.7154824 45.0128,29.6303294 C44.4953455,31.5612706 45.7841455,34.2686824 44.7846545,36 C43.7935273,37.7168471 40.8085091,37.9562824 39.3824,39.3823765 C37.9562909,40.8084706 37.7168727,43.7935059 36,44.7846353 C34.2686545,45.7841647 31.5613091,44.4953647 29.6303273,45.0127765 C27.7154909,45.5259529 26.0168,48 24,48 C21.9832,48 20.2845091,45.5259529 18.3696727,45.0127765 C16.4387636,44.4953647 13.7313455,45.7841647 12,44.7846353 C10.2831273,43.7935059 10.0437091,40.8084706 8.6176,39.3823765 C7.19149091,37.9562824 4.20647273,37.7168471 3.21534545,36 C2.21585455,34.2686824 3.50465455,31.5613412 2.9872,29.6303294 C2.47403636,27.7154824 0,26.0168471 0,24 C0,21.9831529 2.47403636,20.2845176 2.9872,18.3696706 C3.50465455,16.4387294 2.21585455,13.7313176 3.21534545,12 C4.20647273,10.2831529 7.19149091,10.0437176 8.6176,8.61762353 C10.0437091,7.19152941 10.2831273,4.20649412 12,3.21536471 C13.7313455,2.21583529 16.4386909,3.50463529 18.3696727,2.98722353 C20.2845818,2.47404706 21.9832,0 24,0 Z" id="path-9"></path>
        <text id="text-11" font-family="Gibson-SemiBold, Gibson Light" font-size="13" font-weight="bold" letter-spacing="0.7583333" fill="#FFFFFF">
            <tspan x="60" y="29">GDPR</tspan>
        </text>
        <filter x="-9.2%" y="-16.7%" width="118.4%" height="146.7%" filterUnits="objectBoundingBox" id="filter-12">
            <feOffset dx="0" dy="1" in="SourceAlpha" result="shadowOffsetOuter1"></feOffset>
            <feGaussianBlur stdDeviation="1" in="shadowOffsetOuter1" result="shadowBlurOuter1"></feGaussianBlur>
            <feColorMatrix values="0 0 0 0 0   0 0 0 0 0   0 0 0 0 0  0 0 0 0.5 0" type="matrix" in="shadowBlurOuter1"></feColorMatrix>
        </filter>
        <path d="M24,0 C26.0168,0 27.7154909,2.47404706 29.6303273,2.98722353 C31.5612364,3.50463529 34.2686545,2.21583529 36,3.21536471 C37.7168727,4.20649412 37.9562909,7.19152941 39.3824,8.61762353 C40.8085091,10.0437176 43.7935273,10.2831529 44.7846545,12 C45.7841455,13.7313176 44.4953455,16.4386588 45.0128,18.3696706 C45.5259636,20.2845176 48,21.9831529 48,24 C48,26.0168471 45.5259636,27.7154824 45.0128,29.6303294 C44.4953455,31.5612706 45.7841455,34.2686824 44.7846545,36 C43.7935273,37.7168471 40.8085091,37.9562824 39.3824,39.3823765 C37.9562909,40.8084706 37.7168727,43.7935059 36,44.7846353 C34.2686545,45.7841647 31.5613091,44.4953647 29.6303273,45.0127765 C27.7154909,45.5259529 26.0168,48 24,48 C21.9832,48 20.2845091,45.5259529 18.3696727,45.0127765 C16.4387636,44.4953647 13.7313455,45.7841647 12,44.7846353 C10.2831273,43.7935059 10.0437091,40.8084706 8.6176,39.3823765 C7.19149091,37.9562824 4.20647273,37.7168471 3.21534545,36 C2.21585455,34.2686824 3.50465455,31.5613412 2.9872,29.6303294 C2.47403636,27.7154824 0,26.0168471 0,24 C0,21.9831529 2.47403636,20.2845176 2.9872,18.3696706 C3.50465455,16.4387294 2.21585455,13.7313176 3.21534545,12 C4.20647273,10.2831529 7.19149091,10.0437176 8.6176,8.61762353 C10.0437091,7.19152941 10.2831273,4.20649412 12,3.21536471 C13.7313455,2.21583529 16.4386909,3.50463529 18.3696727,2.98722353 C20.2845818,2.47404706 21.9832,0 24,0 Z" id="path-13"></path>
        <text id="text-15" font-family="Gibson-SemiBold, Gibson Light" font-size="13" font-weight="bold" letter-spacing="0.7583333" fill="#FFFFFF">
            <tspan x="58" y="29">SOC2 TYPE II</tspan>
        </text>
        <filter x="-4.1%" y="-16.7%" width="108.1%" height="146.7%" filterUnits="objectBoundingBox" id="filter-16">
            <feOffset dx="0" dy="1" in="SourceAlpha" result="shadowOffsetOuter1"></feOffset>
            <feGaussianBlur stdDeviation="1" in="shadowOffsetOuter1" result="shadowBlurOuter1"></feGaussianBlur>
            <feColorMatrix values="0 0 0 0 0   0 0 0 0 0   0 0 0 0 0  0 0 0 0.5 0" type="matrix" in="shadowBlurOuter1"></feColorMatrix>
        </filter>
    </defs>
    <g id="Page-1" stroke="none" stroke-width="1" fill="none" fill-rule="evenodd">
        <g id="Gridiron" transform="translate(-245.000000, -533.000000)">
            <g id="Billboard" transform="translate(244.000000, 110.000000)">
                <g id="Protocols" transform="translate(1.000000, 423.000000)">
                    <g id="Group-14">
                        <g id="ISO">
                            <mask id="mask-2" fill="white">
                                <use xlink:href="#path-1"></use>
                            </mask>
                            <g id="Clip-152"></g>
                            <polygon id="Fill-151" fill="#107EFF" mask="url(#mask-2)" points="0 -1 49 -1 49 48 0 48"></polygon>
                            <g id="g2537" mask="url(#mask-2)" fill="#FFFFFF" fill-rule="nonzero">
                                <g transform="translate(7.000000, 9.000000)">
                                    <path d="M18.5859366,29.6099525 C18.0792471,29.6667676 17.4597384,29.6857289 16.9153797,29.6289243 C16.7088767,29.6478856 16.4647779,29.6289243 16.2207994,29.6099525 C11.7156453,29.249963 7.56712151,26.8814947 4.97668081,22.8455757 C5.16439884,22.8645264 5.38960814,22.7887711 5.5773157,22.8645264 C6.02791744,23.5087447 6.53468547,24.1340704 7.09783953,24.7403398 C7.5859064,25.2140282 8.03640349,25.6688609 8.56205581,26.0098732 C9.05004419,25.6877324 9.59449186,25.4224859 10.0637738,25.1193011 C9.48184535,24.3803451 8.88112151,23.6414208 8.44941977,22.8455757 C8.58074651,22.7887711 8.82484535,22.8077218 9.01256337,22.8455757 C9.48184535,23.5466778 9.98862907,24.2477852 10.5893529,24.8730158 C11.3964907,24.5698468 12.1849273,24.2477852 13.01085,24.0203662 C13.01085,24.0203662 13.0859215,23.9445898 13.0859215,23.9445898 C13.0859215,23.9445898 12.6166395,22.8455757 12.6166395,22.8455757 C12.823132,22.8077218 12.9545738,22.8267042 13.1610872,22.8455757 C13.3299994,23.1677218 13.4613471,23.5276954 13.6490651,23.8498521 C14.7378558,23.6034824 15.8829436,23.4708908 17.0467326,23.4329683 C17.1969436,23.3003926 17.0843128,23.0161743 17.140589,22.8455757 C17.140589,22.8455757 17.6474512,22.8455757 17.6474512,22.8455757 C17.7037273,23.0350458 17.6286558,23.2434877 17.7037273,23.4140018 C18.7925233,23.4708908 19.9375221,23.5846162 20.9888424,23.8498521 C20.9888424,23.8498521 21.0827041,23.8308908 21.0827041,23.8308908 C21.0827041,23.8308908 21.5893727,22.8455757 21.5893727,22.8455757 C21.7583948,22.8455757 21.9836826,22.8077218 22.1151244,22.8835088 C22.1151244,22.8835088 21.6458424,23.9824331 21.6458424,23.9824331 C21.6458424,23.9824331 21.6832291,24.0203662 21.6832291,24.0203662 C22.5468366,24.2477852 23.3539692,24.5887975 24.179986,24.9298204 C24.7618308,24.3045898 25.3062785,23.5656285 25.7942512,22.8455757 C26.0006651,22.8455757 26.2072727,22.8267042 26.3574052,22.8835088 C26.132107,23.3003926 25.8505273,23.7171761 25.5502727,24.0771708 C25.3062785,24.43725 25.0433948,24.7593169 24.7242453,25.1004349 C24.7242453,25.1004349 24.7242453,25.195162 24.7242453,25.195162 L26.0382453,25.9719401 C26.0382453,25.9719401 26.2259634,26.0478116 26.2259634,26.0478116 C27.3711349,25.1572394 28.3847023,24.0771708 29.1918297,22.8835088 C29.4171279,22.8835088 29.6048459,22.8077218 29.792564,22.9024595 C27.2772785,26.7677852 23.1286709,29.249963 18.6423855,29.6099525 C18.6423855,29.6099525 18.6235221,29.5720246 18.6235221,29.5720246 C18.6235221,29.5720246 18.5859366,29.6099525 18.5859366,29.6099525 Z M20.51955,28.7573028 C20.51955,28.7573028 20.51955,28.7193803 20.51955,28.7193803 C18.8863797,27.5067412 16.2395948,27.3930264 14.5125785,28.5110176 C14.4187169,28.586794 14.2309884,28.6246373 14.2122035,28.7573028 C16.2020145,29.2309912 18.5485395,29.2689243 20.51955,28.7573028 Z M25.6816988,26.4456391 C25.6816988,26.4456391 25.6441291,26.3698732 25.6441291,26.3698732 L24.3488145,25.6309278 C24.3488145,25.6309278 24.2549634,25.6309278 24.2549634,25.6309278 C23.2601128,26.6540915 22.0962349,27.5446796 20.9136767,28.2456655 C20.9512622,28.3783415 21.1389802,28.4730792 21.2704064,28.5678222 C22.8470965,28.1509384 24.3301186,27.4309648 25.6816988,26.4456391 Z M13.855568,28.2456655 C12.6917948,27.5067412 11.5467174,26.6351197 10.4954965,25.5741232 C9.98862907,25.7636039 9.51934709,26.0478116 9.06883953,26.3698732 C9.06883953,26.3698732 9.06883953,26.4078063 9.06883953,26.4078063 C10.2514919,27.2982887 11.5655128,27.9614577 12.9545738,28.4162746 C13.01085,28.4730792 13.0484302,28.5298838 13.123507,28.5298838 C13.123507,28.5298838 13.123507,28.4920563 13.123507,28.4920563 C13.2736395,28.454118 13.3862756,28.6246373 13.5177122,28.5110176 C13.6303692,28.4162746 13.7617064,28.3404085 13.855568,28.2456655 Z M23.7106988,25.3846426 C23.7106988,25.3846426 23.6731186,25.3277535 23.6731186,25.3277535 C22.9409529,25.0056919 22.1900965,24.7025018 21.3829587,24.531993 C20.8011244,25.5361849 20.1628203,26.540382 19.4495233,27.5067412 C19.7122291,27.658368 20.0313785,27.7719771 20.3129529,27.923625 C21.5330965,27.2982887 22.7156651,26.4078063 23.7106988,25.3846426 Z M15.2634349,27.5446796 C15.2634349,27.5446796 15.2071483,27.3930264 15.2071483,27.3930264 C14.4937831,26.4835775 13.9306395,25.4982518 13.3675012,24.531993 C13.3675012,24.531993 13.292414,24.5130211 13.292414,24.5130211 C12.5227831,24.7214736 11.7719215,24.9677588 11.0586453,25.2898996 C11.0586453,25.2898996 11.0962047,25.4035088 11.0962047,25.4035088 C12.1286512,26.4078063 13.2173634,27.2414842 14.4187169,27.8856919 C14.7002965,27.7719771 14.9818709,27.6772394 15.2634349,27.5446796 Z M17.0843128,27.1846796 C17.140589,26.1993539 17.1030872,25.0624965 17.1030872,24.0203662 C16.5774453,23.9445898 16.1081529,24.0393327 15.5825948,24.0771708 C15.0757326,24.1530423 14.437507,24.2098468 13.9306395,24.3803451 C14.4750872,25.4224859 15.1132919,26.4267729 15.8829436,27.3551989 C15.8829436,27.3551989 17.0843128,27.1846796 17.0843128,27.1846796 Z M18.8487994,27.3362218 C19.5809599,26.3888345 20.294236,25.4224859 20.7822349,24.3803451 C19.7686779,24.1340704 18.7362471,24.0013944 17.684932,24.0013944 C17.6474512,25.0056919 17.6662413,26.123588 17.684932,27.1657183 C18.0603576,27.2225229 18.4733738,27.2794173 18.8487994,27.3362218 Z" id="path47-path-4" opacity="0.413364955"></path>
                                    <path d="M17.328307,20.8939912 C15.2634349,21.7845792 12.3726453,21.8793169 10.4954965,20.4960581 C9.27533198,19.5866197 8.8999064,17.9570863 9.21905581,16.5170493 C9.46305,15.1528574 10.7394907,14.1486602 11.9596291,13.6749718 C13.6303692,13.0686074 15.3760814,12.632831 17.0655174,12.0453486 C17.2344453,11.969662 17.4597384,11.7990739 17.4221529,11.5907007 C17.4221529,11.4201127 17.2532198,11.325375 17.1217936,11.2495141 C15.3572965,10.7569331 13.4426512,11.1358838 12.166132,12.5001813 C12.0159994,12.6896461 11.9221378,12.9170546 11.7719215,13.1065194 C11.7719215,13.1065194 9.23777267,13.0874789 9.23777267,13.0874789 C9.2002814,11.5527676 9.18148605,9.7906743 9.23777267,8.27486092 C9.23777267,8.27486092 12.0534855,8.29372711 12.0534855,8.29372711 C12.0534855,8.29372711 12.0910709,9.20318134 12.0910709,9.20318134 C12.4102308,9.05163908 12.7292756,8.86215845 13.0484302,8.69154401 C15.0006453,7.85796127 17.5160145,7.66849648 19.4495233,8.69154401 C20.8574006,9.48738908 21.6082622,11.0222746 21.4016547,12.6705951 C21.1952564,14.2811408 19.6935384,15.7401655 18.1731035,16.138088 C18.1731035,16.138088 13.6303692,17.4833873 13.6303692,17.4833873 C13.6303692,17.4833873 13.292414,17.6539067 13.292414,17.6539067 C13.1422919,17.7865775 13.0484302,17.9570863 13.0859215,18.1655282 C13.4426512,18.7907746 14.2685738,18.601294 14.8880145,18.5823169 C16.2020145,18.3928415 17.5535948,17.938125 18.3232413,16.7065141 C19.1490802,16.7065141 20.1065233,16.6875423 21.0075384,16.7254754 C21.0451186,18.2792324 20.9888424,19.6434243 20.9699529,21.2161268 C20.1252349,21.2350194 19.0928041,21.2350194 18.2480756,21.1971655 C18.2105163,20.969757 18.2856558,20.6476954 18.1917994,20.4203028 C18.1917994,20.4203028 17.328307,20.8939912 17.328307,20.8939912 Z" id="path47-path" transform="translate(15.273153, 14.772519) scale(-1, 1) translate(-15.273153, -14.772519) "></path>
                                    <path d="M33.246586,20.2876268 C30.8062936,21.8793169 27.0895709,21.9929261 24.5741128,20.5529577 C23.2038366,19.8328891 22.3028424,18.4118134 22.021268,16.9528944 C21.5144006,14.546493 21.6458424,11.6854437 23.4478308,9.88541725 C25.5502727,7.99063732 28.6099901,7.57375352 31.3318622,8.35053169 C31.4609128,8.37662324 31.8715378,8.48320775 32.1531017,8.63715845 C32.1531017,8.63715845 32.2328459,8.67267782 32.2328459,8.67267782 C33.0775587,9.03276761 33.8846965,9.62006514 34.4854203,10.4159102 C35.874586,12.5001813 35.9684424,15.6265563 35.1237244,17.9760581 C34.7858843,18.8855123 34.0913041,19.7003081 33.246586,20.2876268 Z M30.4871442,17.5591637 C30.7687081,17.1234085 30.7500174,16.5549824 30.8062936,16.0433451 C30.7874041,14.9633768 30.8812605,13.6749718 30.6935424,12.5758521 C30.5996965,12.1212095 30.2994262,11.6475053 29.8301442,11.4769173 C29.0792878,11.1358838 28.0655215,11.2306373 27.3711349,11.6284648 C26.789107,12.0453486 26.7141349,12.7464507 26.6389692,13.4096356 C26.582693,14.7171021 26.4888366,16.1002447 26.8453831,17.2939067 C27.1269576,18.0328627 27.8967035,18.2223327 28.591289,18.2792324 C29.3232663,18.2792324 30.0365424,18.1655282 30.4871442,17.5591637 Z" id="path47-path-2"></path>
                                    <path d="M1.35374128,21.4245 C1.35374128,21.4245 0.189957558,21.4056074 0.189957558,21.4056074 C0.171156977,20.401331 0.171156977,19.2266197 0.189957558,18.2033609 C0.828156977,18.1844894 1.42888081,18.2033609 2.04832151,18.1465563 C2.04832151,18.1465563 2.04832151,11.7043363 2.04832151,11.7043363 L2.02952616,11.4389842 C2.02952616,11.4389842 0.171156977,11.4012359 0.171156977,11.4012359 C0.133597674,10.3400599 0.133597674,9.31697535 0.171156977,8.27486092 C0.171156977,8.27486092 8.44941977,8.27486092 8.44941977,8.27486092 C8.44941977,8.27486092 8.44941977,11.4012359 8.44941977,11.4012359 C7.82989012,11.4389842 7.135425,11.3821796 6.53468547,11.4580405 C6.53468547,11.4580405 6.55347558,18.108618 6.55347558,18.108618 L6.59105581,18.1655282 C6.59105581,18.1655282 8.44941977,18.1844894 8.44941977,18.1844894 C8.46819419,19.264463 8.48690058,20.4203028 8.43062442,21.4056074 C8.43062442,21.4056074 1.35374128,21.4245 1.35374128,21.4245 Z" id="path47-path"></path>
                                    <path d="M13.2549488,6.87265141 C13.0672308,6.87265141 12.8607122,6.91058451 12.7292756,6.85377993 C12.7292756,6.85377993 13.1985576,5.73578345 13.1985576,5.73578345 C13.1985576,5.73578345 13.1422919,5.67897887 13.1422919,5.67897887 C12.2975738,5.4325088 11.4716512,5.12941901 10.664414,4.78839085 C10.664414,4.78839085 10.5893529,4.82632923 10.5893529,4.82632923 C10.0637738,5.41363732 9.5569064,6.05793486 9.14390058,6.70203697 C9.05004419,7.02419366 8.67460814,6.83471303 8.46819419,6.87265141 C8.91870698,6.03906866 9.51934709,5.30002817 10.12005,4.54212148 C9.61320872,4.23902113 9.10641977,3.89781866 8.58074651,3.65153345 C7.45446453,4.52322887 6.40333779,5.66010739 5.61489593,6.85377993 C5.38960814,6.89151761 5.23947558,6.87265141 5.01417209,6.85377993 C6.36575756,4.69366373 8.46819419,2.7988838 10.664414,1.68107218 C10.664414,1.68107218 10.664414,1.69994366 10.6832145,1.69994366 C10.7019994,1.69994366 10.7394907,1.66200528 10.7019994,1.64296479 C12.1849273,0.904098592 13.7617064,0.373605634 15.4323576,0.14618662 C21.1952564,-0.630765845 26.6952453,1.88941901 29.8864203,6.85377993 C29.7175919,6.87265141 29.4734041,6.87265141 29.285686,6.85377993 C28.4974273,5.69784507 27.5023831,4.57985915 26.4136814,3.70833803 C26.3761012,3.65153345 26.2635488,3.67057923 26.2259634,3.72720951 C25.7566814,4.03048415 25.2498035,4.27676937 24.799411,4.57985915 C25.4001349,5.31889965 25.9819692,6.05793486 26.4325605,6.87265141 C26.4325605,6.87265141 25.8505273,6.87265141 25.8505273,6.87265141 C25.3812453,6.17154401 24.8932727,5.4325088 24.2738424,4.80744718 C23.4478308,5.14828521 22.6969692,5.45157042 21.8522564,5.67897887 C21.8522564,5.67897887 21.7583948,5.75485035 21.7583948,5.75485035 C21.8898366,6.13380634 22.1338203,6.49369014 22.208986,6.87265141 C22.208986,6.87265141 21.7021186,6.87265141 21.7021186,6.87265141 C21.7021186,6.87265141 21.1952564,5.84958803 21.1952564,5.84958803 C20.0876547,6.09567782 18.8675163,6.22853873 17.7413128,6.30420951 C17.684932,6.47482394 17.7600977,6.72110387 17.684932,6.87265141 C17.684932,6.87265141 17.1969436,6.87265141 17.1969436,6.87265141 C17.1593634,6.64523768 17.2532198,6.47482394 17.140589,6.28515317 C15.9768052,6.22853873 14.8505128,6.09567782 13.7617064,5.86845951 C13.7617064,5.86845951 13.2549488,6.87265141 13.2549488,6.87265141 Z M17.1969436,2.51466549 C16.8027384,2.41993838 16.370932,2.41993838 15.9954959,2.32519542 C15.2259436,3.25352113 14.5876395,4.25789789 14.0432703,5.30002817 C14.0432703,5.30002817 14.137132,5.37589965 14.137132,5.37589965 C15.1132919,5.56536972 16.1269378,5.71671655 17.1781692,5.71671655 C17.1781692,5.71671655 17.1969436,2.51466549 17.1969436,2.51466549 Z M20.894986,5.33776585 C20.894986,5.33776585 20.9136767,5.28116197 20.9136767,5.28116197 C20.3880977,4.25789789 19.7310977,3.27257746 19.0178215,2.3442412 C18.6986616,2.3061338 18.3982186,2.43897887 18.0792471,2.45785035 C18.0792471,2.45785035 17.7600977,2.49560915 17.7600977,2.49560915 C17.7225174,3.61360035 17.7037273,4.59892606 17.7600977,5.71671655 C18.8301035,5.69784507 19.8999366,5.58423592 20.894986,5.33776585 Z M13.480132,5.16735211 C14.0245012,4.12522183 14.7002965,3.13991197 15.3760814,2.15476056 C15.1132919,2.00304401 14.7941529,1.90830106 14.5313634,1.75674824 C13.292414,2.382 12.1098558,3.25352113 11.1149215,4.29563556 C11.1149215,4.29563556 11.1149215,4.35264085 11.1149215,4.35264085 C11.8470872,4.71270951 12.6166395,4.97787148 13.4050709,5.18641901 C13.4050709,5.18641901 13.480132,5.16735211 13.480132,5.16735211 Z M23.8045605,4.37150704 C23.2038366,3.67057923 22.4340907,3.06404049 21.7208145,2.55258803 C21.2891023,2.28726232 20.8574006,2.00304401 20.4068145,1.77580986 C20.4068145,1.77580986 19.5996767,2.13572007 19.5996767,2.13572007 C19.5996767,2.13572007 19.6559529,2.26836972 19.6559529,2.26836972 C20.3318424,3.19689085 20.9323727,4.14427817 21.4581244,5.14828521 C21.4581244,5.14828521 21.5144006,5.18641901 21.5144006,5.18641901 C22.3215384,4.99692782 23.0910907,4.73158627 23.8045605,4.37150704 Z M25.8129471,3.29162852 C24.7618308,2.43897887 23.5416767,1.87055282 22.3028424,1.39685387 C22.3028424,1.39685387 21.4205442,1.11264085 21.4205442,1.11264085 C21.2704064,1.1883169 21.1389802,1.30211092 21.0075384,1.41572007 C21.0075384,1.41572007 21.0451186,1.47252465 21.0451186,1.47252465 C22.2463727,2.19252465 23.3352785,3.06404049 24.3676988,4.10615493 C24.8743831,3.89781866 25.3625547,3.61360035 25.8129471,3.29162852 Z M13.9119488,1.41572007 C13.8180872,1.30211092 13.66785,1.1883169 13.5365128,1.11264085 C11.9596291,1.52935563 10.4954965,2.24949824 9.14390058,3.23464965 C9.14390058,3.23464965 9.14390058,3.29162852 9.14390058,3.29162852 C9.59449186,3.57583627 10.0449994,3.87895246 10.5330663,4.08728873 C11.6029936,3.00741021 12.7104855,2.19252465 13.9119488,1.41572007 Z M20.6321023,0.979795775 C20.6883785,0.866160211 20.5382459,0.904098592 20.5006709,0.866160211 C18.5109541,0.430410211 16.2958709,0.411353873 14.3060651,0.904098592 C14.2685738,0.998836268 14.3999215,1.01790317 14.4562919,1.07452289 C16.2020145,2.23045775 18.9239651,2.23045775 20.6321023,0.979795775 Z" id="path47-path-3" opacity="0.413364955"></path>
                                </g>
                            </g>
                        </g>
                        <g id="ISO-27001" fill="#FFFFFF" fill-opacity="1">
                            <use filter="url(#filter-4)" xlink:href="#text-3"></use>
                            <use xlink:href="#text-3"></use>
                        </g>
                    </g>
                    <g id="Group-3" transform="translate(169.000000, 0.000000)">
                        <g id="Protocols-Copy">
                            <g id="hipaa">
                                <mask id="mask-6" fill="white">
                                    <use xlink:href="#path-5"></use>
                                </mask>
                                <g id="Clip-152"></g>
                                <polygon id="Fill-151" fill="#107EFF" mask="url(#mask-6)" points="0 -1 49 -1 49 48 0 48"></polygon>
                                <path d="M24,40 C33.9411282,40 42,32.3888433 42,23 C42,13.6111567 33.9411282,6 24,6 C14.0588718,6 6,13.6111567 6,23 C6,32.3888433 14.0588718,40 24,40 Z" id="Stroke-154" stroke-opacity="0.230015851" stroke="#FFFFFF" mask="url(#mask-6)"></path>
                                <g id="38-caduceus-medicine" mask="url(#mask-6)">
                                    <g transform="translate(8.000000, 9.000000)">
                                        <rect id="Rectangle" fill="#FFFFFF" fill-rule="evenodd" x="15.5" y="4.5" width="1" height="15"></rect>
                                        <rect id="Rectangle" fill="#FFFFFF" fill-rule="evenodd" x="15.5" y="21.5" width="1" height="10"></rect>
                                        <path d="M16,5 C14.6215,5 13.5,3.8785 13.5,2.5 C13.5,1.1215 14.6215,0 16,0 C17.3785,0 18.5,1.1215 18.5,2.5 C18.5,3.8785 17.3785,5 16,5 Z M16,1 C15.173,1 14.5,1.673 14.5,2.5 C14.5,3.327 15.173,4 16,4 C16.827,4 17.5,3.327 17.5,2.5 C17.5,1.673 16.827,1 16,1 Z" id="Shape" fill="#FFFFFF" fill-rule="nonzero"></path>
                                        <path d="M16,32 C14.3455,32 13,30.6545 13,29 C13,28.345 13.2075,27.7225 13.6005,27.1995 L14.4,27.8 C14.138,28.1485 14,28.5635 14,29 C14,30.103 14.897,31 16,31 C17.103,31 18,30.103 18,29 C18,28.109 17.1425,27.6175 16.021,27.068 L15.7765,26.9475 L16.224,26.053 L16.4615,26.17 C17.472,26.6655 19,27.4145 19,29 C19,30.6545 17.6545,32 16,32 Z" id="Path" fill="#FFFFFF" fill-rule="evenodd"></path>
                                        <path d="M15.7765,26.9475 C15.688,26.903 15.587,26.8545 15.477,26.802 C14.2615,26.2185 12,25.133 12,23 C12,21.406 13.406,20.575 14.2455,20.0785 L14.7545,20.94 C13.7945,21.507 13,22.0535 13,23 C13,24.5035 14.8925,25.412 15.9095,25.9 C16.025,25.9555 16.1305,26.0065 16.2235,26.053 L15.7765,26.9475 Z" id="Path" fill="#FFFFFF" fill-rule="evenodd"></path>
                                        <path d="M18.2235,25.9475 L17.776,25.053 C18.6,24.641 19,23.9695 19,23 C19,21.521 17.0635,20.576 16.023,20.0685 L15.776,19.9475 L16.2235,19.053 L16.4615,19.17 C17.61,19.73 20,20.896 20,23 C20,24.347 19.3855,25.366 18.2235,25.9475 Z" id="Path" fill="#FFFFFF" fill-rule="evenodd"></path>
                                        <path d="M16,20.059 L15.538,19.83 C14.3295,19.2415 11.5,17.8645 11.5,15.5 C11.5,13.2165 13.242,12 14.5,12 L14.5,13 C13.8025,13 12.5,13.7335 12.5,15.5 C12.5,17.239 14.9355,18.425 15.9755,18.931 L16,18.943 L16.0245,18.9315 C17.0645,18.425 19.5,17.239 19.5,15.5 C19.5,13.7335 18.1975,13 17.5,13 L17.5,12 C18.758,12 20.5,13.2165 20.5,15.5 C20.5,17.8645 17.6705,19.2415 16.462,19.83 L16,20.059 Z" id="Path" fill="#FFFFFF" fill-rule="evenodd"></path>
                                        <g id="Group" stroke-width="1" fill="none" fill-rule="evenodd" transform="translate(0.000000, 2.000000)">
                                            <path d="M14.5,9 L12.5,9 C7.411,9 1.4615,7.4655 0.0255,3.158 C-0.0255,3.0055 0.0005,2.8375 0.0945,2.7075 C0.1885,2.5775 0.3395,2.5 0.5,2.5 C4.7435,2.5 6.2665,1.59 7.49,0.8585 C8.261,0.398 8.9265,0 10,0 C11.332,0 12.5,1.1685 12.5,2.5 L12.5,4 C12.5,4.5515 12.9485,5 13.5,5 L14.5,5 L14.5,6 L13.5,6 C12.397,6 11.5,5.103 11.5,4 L11.5,2.5 C11.5,1.6555 10.6935,1 10,1 C9.203,1 8.6995,1.301 8.003,1.717 C6.816,2.4265 5.2155,3.383 1.2495,3.4905 C2.432,5.776 5.8945,8 12.5,8 L14.5,8 L14.5,9 Z" id="Path" fill="#FFFFFF"></path>
                                            <rect id="Rectangle" fill="#FFFFFF" x="10.5" y="6.5" width="1" height="2"></rect>
                                            <rect id="Rectangle" fill="#FFFFFF" x="8.5" y="6" width="1" height="2.5"></rect>
                                            <rect id="Rectangle" fill="#FFFFFF" x="6.5" y="5.5" width="1" height="2.5"></rect>
                                            <rect id="Rectangle" fill="#FFFFFF" x="4.5" y="5" width="1" height="2"></rect>
                                        </g>
                                        <g id="Group" stroke-width="1" fill="none" fill-rule="evenodd" transform="translate(17.500000, 2.000000)">
                                            <path d="M2,9 L0,9 L0,8 L2,8 C8.6055,8 12.068,5.776 13.2505,3.49 C9.284,3.3825 7.684,2.426 6.497,1.7165 C5.8005,1.301 5.297,1 4.5,1 C3.8065,1 3,1.6555 3,2.5 L3,4 C3,5.103 2.103,6 1,6 L0,6 L0,5 L1,5 C1.5515,5 2,4.5515 2,4 L2,2.5 C2,1.1685 3.168,0 4.5,0 C5.573,0 6.239,0.398 7.01,0.8585 C8.2335,1.59 9.7565,2.5 14,2.5 C14.1605,2.5 14.3115,2.577 14.4055,2.7075 C14.4995,2.838 14.525,3.006 14.4745,3.158 C13.0385,7.4655 7.089,9 2,9 Z" id="Path" fill="#FFFFFF"></path>
                                            <rect id="Rectangle" fill="#FFFFFF" x="3" y="6.5" width="1" height="2"></rect>
                                            <rect id="Rectangle" fill="#FFFFFF" x="5" y="6" width="1" height="2.5"></rect>
                                            <rect id="Rectangle" fill="#FFFFFF" x="7" y="5.5" width="1" height="2.5"></rect>
                                            <rect id="Rectangle" fill="#FFFFFF" x="9" y="5" width="1" height="2"></rect>
                                        </g>
                                    </g>
                                </g>
                            </g>
                        </g>
                        <g id="Hipaa" fill="#FFFFFF" fill-opacity="1">
                            <use filter="url(#filter-8)" xlink:href="#text-7"></use>
                            <use xlink:href="#text-7"></use>
                        </g>
                    </g>
                    <g id="Group-6" transform="translate(495.000000, 0.000000)">
                        <g id="Protocols-Copy-2">
                            <g id="GDPR">
                                <mask id="mask-10" fill="white">
                                    <use xlink:href="#path-9"></use>
                                </mask>
                                <g id="Clip-152"></g>
                                <polygon id="Fill-151" fill="#107EFF" mask="url(#mask-10)" points="0 -1 49 -1 49 48 0 48"></polygon>
                                <g id="flag_blue_white-(1)" mask="url(#mask-10)" fill="#FFFFFE">
                                    <g transform="translate(8.000000, 8.000000)">
                                        <polygon id="Fill-3" points="15.2013295 4.42857143 16.5511602 3.38757824 17.9012165 4.42857143 17.3875861 2.74515172 18.7586207 1.70392015 17.0686254 1.70392015 16.5511602 0 16.0339206 1.70582717 14.3448276 1.70392015 15.7149599 2.74515172"></polygon>
                                        <polygon id="Fill-4" points="8.58154211 5.53571429 9.93137284 4.49516917 11.2805269 5.53571429 10.7675731 3.85301917 12.137931 2.81223578 10.4477102 2.81223578 9.93047055 1.10714286 9.41345651 2.81414198 7.72413793 2.81223578 9.09427026 3.85301917"></polygon>
                                        <polygon id="Fill-5" points="4.4137931 6.64285714 3.89642128 8.34985627 2.20689655 8.34795007 3.57737908 9.38849518 3.06361736 11.0714286 4.4137931 10.0308835 5.76396885 11.0714286 5.25020712 9.38849518 6.62068966 8.34795007 4.93116493 8.34795007"></polygon>
                                        <polygon id="Fill-6" points="2.20734772 16.6737406 3.5563451 17.7142857 3.04359075 16.0315906 4.4137931 14.9910455 2.72461377 14.9910455 2.20734772 13.2857143 1.69008167 14.9946196 0 14.9910455 1.3711047 16.0315906 0.857448001 17.7142857"></polygon>
                                        <polygon id="Fill-7" points="4.93116493 21.6336644 4.4137931 19.9285714 3.89642128 21.6355706 2.20689655 21.6336644 3.57737908 22.6742095 3.06361736 24.3571429 4.4137931 23.3146915 5.76396885 24.3571429 5.25020712 22.6742095 6.62068966 21.6336644"></polygon>
                                        <polygon id="Fill-8" points="10.4478494 27.1682059 9.93058331 25.4642857 9.4142196 27.1701129 7.72413793 27.1682059 9.09434029 28.2091991 8.58158593 29.8928571 9.93148565 28.8516256 11.280483 29.8928571 10.7677287 28.2091991 12.137931 27.1682059"></polygon>
                                        <polygon id="Fill-9" points="17.0686254 28.2765215 16.5513858 26.5714286 16.0348229 28.2784277 14.3448276 28.2765215 15.7151855 29.3170666 15.2022318 31 16.5520625 29.9592166 17.9012165 31 17.3875861 29.3170666 18.7586207 28.2765215"></polygon>
                                        <polygon id="Fill-10" points="23.6888831 27.1682059 23.1724138 25.4642857 22.6541394 27.1701129 20.9655172 27.1682059 22.3350973 28.2091991 21.822238 29.8928571 23.1724138 28.8516256 24.5225895 29.8928571 24.0079253 28.2091991 25.3793103 27.1682059"></polygon>
                                        <polygon id="Fill-11" points="29.2079295 21.6336644 28.6896552 19.9285714 28.1713808 21.6355706 26.4827586 21.6336644 27.8541437 22.6742095 27.3394794 24.3571429 28.6896552 23.3146915 30.0400565 24.3571429 29.5251667 22.6742095 30.8965517 21.6336644"></polygon>
                                        <polygon id="Fill-12" points="32 14.9908072 30.3102638 14.9908072 29.7922013 13.2857143 29.2759431 14.9927134 27.5862069 14.9908072 28.9570313 16.0313523 28.4441563 17.7142857 29.7922013 16.6718344 31.1418251 17.7142857 30.6291756 16.0313523"></polygon>
                                        <polygon id="Fill-13" points="27.3394356 11.0714286 28.6895424 10.0304354 30.0398747 11.0714286 29.5252368 9.38800886 30.8965517 8.34868431 29.2077902 8.34868431 28.6895424 6.64285714 28.1715201 8.35059133 26.4827586 8.34868431 27.8540736 9.38800886"></polygon>
                                        <polygon id="Fill-14" points="23.1715116 1.10714286 22.6552535 2.81414198 20.9655172 2.81032959 22.3345374 3.85278089 21.8218878 5.53571429 23.1733159 4.49326298 24.5211354 5.53571429 24.0084859 3.85278089 25.3793103 2.81032959 23.6877698 2.81032959"></polygon>
                                    </g>
                                </g>
                            </g>
                        </g>
                        <g id="GDPR" fill="#FFFFFF" fill-opacity="1">
                            <use filter="url(#filter-12)" xlink:href="#text-11"></use>
                            <use xlink:href="#text-11"></use>
                        </g>
                    </g>
                    <g id="Group-13" transform="translate(311.000000, 0.000000)">
                        <g id="Protocols">
                            <g id="hipaa">
                                <mask id="mask-14" fill="white">
                                    <use xlink:href="#path-13"></use>
                                </mask>
                                <g id="Clip-152"></g>
                                <polygon id="Fill-151" fill="#107EFF" mask="url(#mask-14)" points="0 -1 49 -1 49 48 0 48"></polygon>
                                <path d="M19.3498984,24.4396455 L15.8431137,29.4438143 C14.6805199,27.7537841 14,25.706364 14,23.5 C14,19.4347599 16.3102495,15.9091076 19.6894693,14.164322 C18.197167,15.1022045 17.4510159,16.5769592 17.4510159,18.5885861 C17.4510159,20.4490289 18.1605003,22.5227856 19.3498984,24.4396455 Z M20.0679001,25.4987048 C22.3865817,28.641385 25.972786,31.1274987 29.6919957,31.1274987 C30.4252414,31.1274987 31.1087469,31.1191311 31.742512,31.1023959 C29.8584833,32.8977797 27.3079603,34 24.5,34 C21.347618,34 18.5197007,32.610802 16.5950463,30.4112044 L20.0679001,25.4987048 Z M27.1331959,13.3329089 L20.1749185,23.2623449 C19.1482637,21.7403525 18.5162086,20.0734958 18.5162086,18.4674556 C18.5162086,15.3082265 20.3353723,13.4900615 23.9736998,13.0129607 C24.1480485,13.0043541 24.3235158,13 24.5,13 C25.4093633,13 26.2917266,13.1156009 27.1331959,13.3329089 Z M27.5077412,13.4371252 C31.8409962,14.7304236 35,18.7462994 35,23.5 C35,23.9265248 34.9745683,24.3471097 34.9251386,24.760321 C34.6553599,25.7056452 34.2827522,26.4939803 33.8073155,27.1253261 L27.5077412,13.4371252 Z M32.4125559,28.3720122 C31.6492743,28.8103946 30.7424208,29.0295858 29.6919957,29.0295858 C26.6196096,29.0295858 23.1753382,26.9902804 20.9330404,24.2749269 L27.3303208,15.2257011 L32.4125559,28.3720122 Z" id="Oval-4" fill="#FFFFFF" mask="url(#mask-14)"></path>
                            </g>
                        </g>
                        <g id="SOC2-Type-II" fill="#FFFFFF" fill-opacity="1">
                            <use filter="url(#filter-16)" xlink:href="#text-15"></use>
                            <use xlink:href="#text-15"></use>
                        </g>
                    </g>
                </g>
            </g>
        </g>
    </g>
</svg>