<svg xmlns="http://www.w3.org/2000/svg" viewBox="0 0 1500 420"><g data-name="Layer 2"><g data-name="Snaps_Logo-2018 Black"><path d="M220.82 73.31a24.2 24.2 0 0 1-7.69 8.14 20.2 20.2 0 0 1-10.41 2.41A33.23 33.23 0 0 1 189.45 81l-14.33-6.19a156.37 156.37 0 0 0-17.35-6.18 77.49 77.49 0 0 0-22-2.87q-17.81 0-27.3 6.79T99 91.41a18.87 18.87 0 0 0 6.18 14.47A56.35 56.35 0 0 0 121.57 116a224.87 224.87 0 0 0 23.23 8.29q13 3.93 26.55 8.75a235.81 235.81 0 0 1 26.54 11.32 99.31 99.31 0 0 1 23.23 16 71.36 71.36 0 0 1 16.44 23.08q6.18 13.56 6.19 32.56a107.14 107.14 0 0 1-8.45 42.84 91 91 0 0 1-25.19 33.79q-16.74 14.17-41.33 22t-56.56 7.84a172.25 172.25 0 0 1-32-3 221.3 221.3 0 0 1-30.92-8.14 168.51 168.51 0 0 1-27.6-12.22A119.16 119.16 0 0 1 0 283.87l21.72-34.39a27.87 27.87 0 0 1 9.2-9.51q5.58-3.45 14.33-3.46a29.45 29.45 0 0 1 14.63 3.62l14 7.84a115.74 115.74 0 0 0 17.65 7.84q10.09 3.62 25.49 3.62a64.7 64.7 0 0 0 18.4-2.26 32.47 32.47 0 0 0 12.1-6.17 24.22 24.22 0 0 0 8.74-18.7 20.32 20.32 0 0 0-6.33-15.38 55.36 55.36 0 0 0-16.59-10.41 204.63 204.63 0 0 0-23.34-8.17q-13.12-3.76-26.7-8.59a214.21 214.21 0 0 1-26.7-11.62 91.86 91.86 0 0 1-23.38-17.19 79.93 79.93 0 0 1-16.59-25.49Q10.26 120.36 10.26 99A95 95 0 0 1 18 61.09a87.87 87.87 0 0 1 23-31.53Q56.42 16 79.64 8t54.3-8a174.69 174.69 0 0 1 32.73 3 167.41 167.41 0 0 1 29.72 8.44 143 143 0 0 1 25.33 12.82 122.54 122.54 0 0 1 20.22 16.14zM1477.07 73.31a24.2 24.2 0 0 1-7.69 8.14 20.18 20.18 0 0 1-10.38 2.41 33.23 33.23 0 0 1-13.3-2.86l-14.33-6.19a156.37 156.37 0 0 0-17.37-6.18 77.39 77.39 0 0 0-22-2.87q-17.8 0-27.3 6.79t-9.5 18.86a18.84 18.84 0 0 0 6.19 14.47 56.16 56.16 0 0 0 16.43 10.12 224.87 224.87 0 0 0 23.23 8.29q13 3.93 26.55 8.75a236 236 0 0 1 26.55 11.32 99.25 99.25 0 0 1 23.22 16 71.53 71.53 0 0 1 16.45 23.08Q1500 197 1500 216a107.14 107.14 0 0 1-8.45 42.84 91 91 0 0 1-25.19 33.79q-16.74 14.17-41.32 22t-56.57 7.84a172.06 172.06 0 0 1-32-3 220.58 220.58 0 0 1-30.92-8.14A168.24 168.24 0 0 1 1278 299.1a119.86 119.86 0 0 1-21.72-15.23l21.72-34.39a28 28 0 0 1 9.2-9.51q5.58-3.45 14.33-3.46a29.42 29.42 0 0 1 14.63 3.62l14 7.84a116.18 116.18 0 0 0 17.65 7.84q10.1 3.62 25.49 3.62a64.7 64.7 0 0 0 18.4-2.26 32.4 32.4 0 0 0 12.07-6.19 24.27 24.27 0 0 0 8.75-18.7 20.33 20.33 0 0 0-6.34-15.38 55.36 55.36 0 0 0-16.59-10.41 204.63 204.63 0 0 0-23.38-8.15q-13.12-3.76-26.7-8.59a213.44 213.44 0 0 1-26.69-11.62 91.51 91.51 0 0 1-23.38-17.19 79.77 79.77 0 0 1-16.59-25.49q-6.35-15.09-6.34-36.5a95 95 0 0 1 7.69-37.86 87.87 87.87 0 0 1 23.08-31.53Q1312.67 16 1335.89 8t54.3-8a174.69 174.69 0 0 1 32.73 3 167.41 167.41 0 0 1 29.72 8.44A143.44 143.44 0 0 1 1478 24.28a122.87 122.87 0 0 1 20.21 16.14zM555.24 71.34a106.9 106.9 0 0 0-20.51-37.7A94.22 94.22 0 0 0 501.39 8.9Q481.64 0 456 0a127.8 127.8 0 0 0-27.9 2.87 122.41 122.41 0 0 0-23.83 7.84 109.35 109.35 0 0 0-20.67 12.22 225.24 225.24 0 0 0-18.7 15.72A33.86 33.86 0 0 0 331 4.83h-52.39v312.82h93.52V94.42a116.22 116.22 0 0 1 26.09-17.65A65.43 65.43 0 0 1 427 70.29q20.52 0 31.07 12.82t10.56 35.74v198.8h93.52v-198.8a156.59 156.59 0 0 0-6.91-47.51zM1126.75 0a169.89 169.89 0 0 0-35.69 4.07 122.45 122.45 0 0 0-23.79 7.83 109 109 0 0 0-20.64 12.2c-6.43 4.82-12.65 8.83-18.67 14.45a33.8 33.8 0 0 0-33.8-33.68h-52.34V420h93.37V297.57a111.08 111.08 0 0 0 30.12 18.67q16.56 6.93 41 6.93 29.82 0 54.36-12.35a126.31 126.31 0 0 0 42.17-34.34q17.61-22 27.4-51.8t9.79-65.05C1240 61.82 1193.42 0 1126.75 0zm12.42 203.25q-4.51 18.1-12.52 29.41t-18.85 16.45a55.1 55.1 0 0 1-23.83 5.12 70.64 70.64 0 0 1-25.94-4.82q-12.37-4.83-22.93-16.29V100.39q12.06-14.49 25.34-22t33.78-7.54a44.7 44.7 0 0 1 20.22 4.52q9 4.53 15.53 14.94t10.11 27.3q3.62 16.89 3.62 41.63 0 25.92-4.53 44.01zM598.28 163.65c0 122.62 67.21 159.89 113.43 159.89 56 0 82.66-25.53 91.71-33.37v27.48h93.51V4.83h-52.42a33.72 33.72 0 0 0-33.85 33.58v.05C804.62 32.83 786.4 0 725.7 0c-66.78 0-127.42 65.69-127.42 163.65zm96.54.95c0-16.48-.45-96 59.73-96 23.29 0 40.83 11.57 48.87 21.23v132.65c-7 7.64-22.51 29.56-59.13 29.56-49.92-.04-49.47-70.14-49.47-87.44z"/></g></g></svg>