<svg width="179" height="34" xmlns="http://www.w3.org/2000/svg" xmlns:xlink="http://www.w3.org/1999/xlink"><defs><path id="a" d="M0 33.775h29.508V.008H0z"/></defs><g fill="none" fill-rule="evenodd"><path fill="#7383A0" fill-rule="nonzero" d="M47.39 18.497V10H51v15h-3.61L37 10h4.503zM63.765 10v2.983h-7.433v3.09h6.685v2.854h-6.685v3.112H64V25H53V10zM75.486 16.255c.404-.362.606-.936.606-1.722 0-.786-.209-1.326-.627-1.618-.418-.292-1.15-.438-2.194-.438h-2.446v4.32h2.383c1.115 0 1.874-.18 2.278-.542m3.93-1.732c0 2.337-.927 3.847-2.78 4.529l3.7 5.219h-4.014l-3.24-4.655h-2.257v4.655h-3.26V9.68h5.538c2.272 0 3.891.383 4.86 1.148.969.765 1.453 1.997 1.453 3.695M92.04 16.84h3.282v5.176c-1.45 1.615-3.456 2.422-6.02 2.422-2.146 0-3.947-.71-5.403-2.13-1.456-1.419-2.184-3.21-2.184-5.375 0-2.163.742-3.969 2.226-5.417 1.484-1.447 3.274-2.17 5.372-2.17 2.096 0 3.919.689 5.465 2.066l-1.693 2.443c-.655-.571-1.257-.964-1.807-1.18a4.86 4.86 0 0 0-1.788-.323c-1.24 0-2.285.42-3.135 1.263-.85.842-1.275 1.951-1.275 3.329 0 1.378.407 2.48 1.223 3.308.815.829 1.787 1.243 2.915 1.243 1.13 0 2.07-.216 2.822-.648V16.84zM108.553 9.68v2.901h-7.274v3.006h6.542v2.776h-6.542v3.027h7.504v2.88H98.018V9.68z"/><path d="M114.896 12.592c-.313.257-.47.598-.47 1.022 0 .425.191.762.575 1.013.383.25 1.268.546 2.654.887 1.387.341 2.463.853 3.23 1.534.766.683 1.15 1.677 1.15 2.985 0 1.308-.492 2.37-1.474 3.184-.983.813-2.276 1.22-3.878 1.22-2.313 0-4.396-.855-6.25-2.567l1.945-2.38c1.574 1.378 3.03 2.067 4.368 2.067.599 0 1.07-.129 1.411-.386.341-.257.512-.605.512-1.044 0-.438-.181-.786-.543-1.044-.363-.257-1.08-.518-2.154-.782-1.7-.404-2.943-.929-3.73-1.576-.788-.647-1.181-1.663-1.181-3.048s.498-2.453 1.494-3.204c.996-.752 2.24-1.128 3.73-1.128.976 0 1.952.168 2.928.502a7.848 7.848 0 0 1 2.55 1.42l-1.652 2.379c-1.268-.96-2.578-1.44-3.93-1.44-.543 0-.971.128-1.285.386M135.14 9.68v2.901h-7.275v3.006h6.543v2.776h-6.543v3.027h7.504v2.88h-10.764V9.68zM148.287 9.68h3.26v14.59h-3.26l-6.96-9.142v9.143h-3.262V9.68h3.052l7.17 9.393zM158.35 12.592c-.313.257-.47.598-.47 1.022 0 .425.191.762.575 1.013.383.25 1.268.546 2.654.887 1.387.341 2.463.853 3.23 1.534.766.683 1.15 1.677 1.15 2.985 0 1.308-.492 2.37-1.474 3.184-.983.813-2.275 1.22-3.878 1.22-2.313 0-4.396-.855-6.25-2.567l1.945-2.38c1.574 1.378 3.03 2.067 4.368 2.067.6 0 1.07-.129 1.41-.386.342-.257.513-.605.513-1.044 0-.438-.181-.786-.544-1.044-.362-.257-1.08-.518-2.152-.782-1.7-.404-2.944-.929-3.732-1.576-.787-.647-1.18-1.663-1.18-3.048s.498-2.453 1.494-3.204c.996-.752 2.24-1.128 3.731-1.128.976 0 1.95.168 2.926.502a7.85 7.85 0 0 1 2.55 1.42l-1.65 2.379c-1.269-.96-2.579-1.44-3.93-1.44-.544 0-.972.128-1.286.386M178.593 9.68v2.901h-7.273v3.006h6.541v2.776h-6.541v3.027h7.503v2.88H168.06V9.68z" fill="#307AD1" fill-rule="nonzero"/><g><mask id="b" fill="#fff"><use xlink:href="#a"/></mask><path d="M14.754.008l3.689 2.11L3.688 10.56v12.663l1.845 1.055 1.844-1.055-1.844-1.055V11.616l14.754-8.442 1.844 1.055 1.844 1.055-14.754 8.442v6.331l1.844 1.055 1.845-1.055-1.845-1.055v-4.221L25.82 6.34l3.688 2.11V25.333l-7.377 4.221-7.377 4.221-3.689-2.11 14.755-8.442V10.56l-1.844-1.055-1.844 1.055 1.843 1.056v10.552L9.222 30.609l-1.844-1.055L5.533 28.5l14.754-8.442v-6.331l-1.844-1.055-1.844 1.055 1.844 1.055v4.221L3.689 27.444 0 25.334V8.45l7.377-4.22L14.754.007zm-.922 17.8h1.844v-1.833h-1.844v1.833z" fill="#7383A0" fill-rule="nonzero" mask="url(#b)"/></g></g></svg>