<?xml version="1.0" encoding="UTF-8" standalone="no"?>
<?xml-stylesheet type="text/css" href="/assets/css/header.css" ?>
<svg width="1601px" height="451px" viewBox="0 0 1601 451" version="1.1" xmlns="http://www.w3.org/2000/svg" xmlns:xlink="http://www.w3.org/1999/xlink" xmlns:sketch="http://www.bohemiancoding.com/sketch/ns">
    <!-- Generator: Sketch 3.0.3 (7891) - http://www.bohemiancoding.com/sketch -->
    <title>Imported Layers</title>
    <desc>Created with Sketch.</desc>
    <defs>
        <path id="path-1" d="M0.386149497,0.268798419 L1600.38615,0.268798419 L1600.38615,450.268798 L0.386149497,450.268798 L0.386149497,0.268798419 Z"></path>
        <linearGradient x1="50%" y1="57.3010813%" x2="50%" y2="97.7273394%" id="linearGradient-3">
            <stop stop-color="#1891DC" stop-opacity="0" offset="0%"></stop>
            <stop stop-color="#000000" stop-opacity="0.894616168" offset="100%"></stop>
        </linearGradient>
    </defs>
    <g id="Page-1" stroke="none" stroke-width="1" fill="none" fill-rule="evenodd" sketch:type="MSPage">
        <g id="Imported-Layers" sketch:type="MSLayerGroup">
            <mask id="mask-2" sketch:name="Fill 1" fill="white">
                <use xlink:href="#path-1"></use>
            </mask>
            <use id="Fill-1" fill="#000000" sketch:type="MSShapeGroup" xlink:href="#path-1"></use>
            <g id="Group" mask="url(#mask-2)" stroke="#BDD3E8" stroke-opacity="0.36047894" sketch:type="MSShapeGroup">
                <g transform="translate(-332.623970, -636.792328)">
                    <path d="M167.034042,572.592698 L167.034042,646.440565 L183.502187,694.014683 L341.125861,578.737668 L167.034042,572.592698" id="Fill-81" fill="#007DA7"></path>
                    <path d="M341.125861,578.737668 L183.502187,694.014683 L207.028109,741.066526 L341.125861,578.737668" id="Fill-84" fill="#005F7F"></path>
                    <path d="M272.900689,856.343542 L272.900689,856.343542 L230.55403,985.73611 L350.53623,915.158345 L272.900689,856.343542" id="Fill-90" fill="#006486"></path>
                    <path d="M395.235481,997.49907 L228.201438,1025.73018 L256.432544,1101.01312 L395.235481,997.49907" id="Fill-91" fill="#004157"></path>
                    <path d="M230.55403,985.73611 L230.55403,985.73611 L228.201438,1025.73018 L395.235481,997.49907 L230.55403,985.73611" id="Fill-92" fill="#003749"></path>
                    <path d="M350.53623,915.158345 L350.53623,915.158345 L230.55403,985.73611 L395.235481,997.49907 L350.53623,915.158345" id="Fill-93" fill="#005B7A"></path>
                    <path d="M395.235481,997.49907 L256.432544,1101.01312 L345.831046,1188.05903 L395.235481,997.49907" id="Fill-94" fill="#003446"></path>
                    <path d="M423.466586,865.75391 L350.53623,915.158345 L395.235481,997.49907 L423.466586,865.75391" id="Fill-96" fill="#005B79"></path>
                    <path d="M272.900689,856.343542 L350.53623,915.158345 L423.466586,865.75391 L272.900689,856.343542" id="Fill-97" fill="#004D67"></path>
                    <path d="M395.235481,997.49907 L395.235481,997.49907 L345.831046,1188.05903 L425.819179,1202.17459 L395.235481,997.49907" id="Fill-98" fill="#00475F"></path>
                    <path d="M341.125861,578.737668 L341.125861,578.737668 L207.028109,741.066526 L451.697692,686.956907 L341.125861,578.737668" id="Fill-102" fill="#006485"></path>
                    <path d="M451.697692,686.956907 L207.028109,741.066526 L272.900689,856.343542 L451.697692,686.956907" id="Fill-103" fill="#007399"></path>
                    <path d="M451.697692,686.956907 L272.900689,856.343542 L423.466586,865.75391 L451.697692,686.956907" id="Fill-104" fill="#005B7A"></path>
                    <path d="M451.697692,686.956907 L451.697692,686.956907 L423.466586,865.75391 L468.165837,844.580581 L451.697692,686.956907" id="Fill-106" fill="#006F94"></path>
                    <path d="M341.125861,578.737668 L341.125861,578.737668 L451.697692,686.956907 L517.570272,606.968774 L341.125861,578.737668" id="Fill-114" fill="#007096"></path>
                    <path d="M451.697692,686.956907 L451.697692,686.956907 L468.165837,844.580581 L555.211747,719.893197 L451.697692,686.956907" id="Fill-120" fill="#006D92"></path>
                    <path d="M517.570272,606.968774 L517.570272,606.968774 L451.697692,686.956907 L555.211747,719.893197 L517.570272,606.968774" id="Fill-121" fill="#006182"></path>
                    <path d="M555.211747,719.893197 L555.211747,719.893197 L468.165837,844.580581 L557.564339,924.568714 L555.211747,719.893197" id="Fill-122" fill="#006A8D"></path>
                    <path d="M423.466586,865.75391 L423.466586,865.75391 L395.235481,997.49907 L557.564339,924.568714 L423.466586,865.75391" id="Fill-123" fill="#006181"></path>
                    <path d="M468.165837,844.580581 L468.165837,844.580581 L423.466586,865.75391 L557.564339,924.568714 L468.165837,844.580581" id="Fill-124" fill="#005E7D"></path>
                    <path d="M576.385076,957.505004 L395.235481,997.49907 L425.819179,1202.17459 L576.385076,957.505004" id="Fill-128" fill="#004157"></path>
                    <path d="M557.564339,924.568714 L557.564339,924.568714 L395.235481,997.49907 L576.385076,957.505004 L557.564339,924.568714" id="Fill-129" fill="#005B79"></path>
                    <path d="M555.211747,719.893197 L557.564339,924.568714 L630.494695,905.747977 L555.211747,719.893197" id="Fill-130" fill="#006789"></path>
                    <path d="M630.494695,905.747977 L557.564339,924.568714 L576.385076,957.505004 L630.494695,905.747977" id="Fill-131" fill="#004056"></path>
                    <path d="M576.385076,957.505004 L576.385076,957.505004 L425.819179,1202.17459 L635.19988,1204.52718 L576.385076,957.505004" id="Fill-133" fill="#003C50"></path>
                    <path d="M517.570272,606.968774 L517.570272,606.968774 L555.211747,719.893197 L642.257656,675.193946 L517.570272,606.968774" id="Fill-134" fill="#006A8E"></path>
                    <path d="M574.032484,524.628049 L574.032484,524.628049 L517.570272,606.968774 L642.257656,675.193946 L574.032484,524.628049" id="Fill-135" fill="#00749B"></path>
                    <path d="M630.494695,905.747977 L630.494695,905.747977 L576.385076,957.505004 L658.725801,938.684267 L630.494695,905.747977" id="Fill-139" fill="#00516C"></path>
                    <path d="M658.725801,938.684267 L576.385076,957.505004 L635.19988,1204.52718 L658.725801,938.684267" id="Fill-140" fill="#00536F"></path>
                    <path d="M658.725801,938.684267 L658.725801,938.684267 L635.19988,1204.52718 L689.309499,1204.52718 L658.725801,938.684267" id="Fill-144" fill="#005774"></path>
                    <path d="M708.130236,863.401318 L630.494695,905.747977 L658.725801,938.684267 L708.130236,863.401318" id="Fill-147" fill="#003E53"></path>
                    <path d="M555.211747,719.893197 L555.211747,719.893197 L630.494695,905.747977 L708.130236,863.401318 L555.211747,719.893197" id="Fill-148" fill="#005F7F"></path>
                    <path d="M642.257656,675.193946 L642.257656,675.193946 L555.211747,719.893197 L726.950973,731.656158 L642.257656,675.193946" id="Fill-152" fill="#006486"></path>
                    <path d="M555.211747,719.893197 L708.130236,863.401318 L726.950973,731.656158 L555.211747,719.893197" id="Fill-153" fill="#005F7F"></path>
                    <path d="M741.066526,632.847288 L642.257656,675.193946 L726.950973,731.656158 L741.066526,632.847288" id="Fill-161" fill="#007399"></path>
                    <path d="M574.032484,524.628049 L642.257656,675.193946 L745.771711,595.205813 L574.032484,524.628049" id="Fill-163" fill="#0086B3"></path>
                    <path d="M745.771711,595.205813 L642.257656,675.193946 L741.066526,632.847288 L745.771711,595.205813" id="Fill-164" fill="#0079A2"></path>
                    <path d="M745.771711,595.205813 L745.771711,595.205813 L741.066526,632.847288 L757.534671,651.668025 L745.771711,595.205813" id="Fill-165" fill="#006080"></path>
                    <path d="M741.066526,632.847288 L741.066526,632.847288 L726.950973,731.656158 L757.534671,651.668025 L741.066526,632.847288" id="Fill-166" fill="#005D7C"></path>
                    <path d="M726.950973,731.656158 L726.950973,731.656158 L708.130236,863.401318 L788.118369,774.002816 L726.950973,731.656158" id="Fill-172" fill="#00749B"></path>
                    <path d="M757.534671,651.668025 L757.534671,651.668025 L726.950973,731.656158 L788.118369,774.002816 L757.534671,651.668025" id="Fill-173" fill="#007095"></path>
                    <path d="M658.725801,938.684267 L658.725801,938.684267 L689.309499,1204.52718 L806.939106,1108.0709 L658.725801,938.684267" id="Fill-174" fill="#004C65"></path>
                    <path d="M708.130236,863.401318 L708.130236,863.401318 L658.725801,938.684267 L806.939106,1108.0709 L708.130236,863.401318" id="Fill-175" fill="#004C65"></path>
                    <path d="M757.534671,651.668025 L788.118369,774.002816 L865.75391,710.482828 L757.534671,651.668025" id="Fill-178" fill="#007BA4"></path>
                    <path d="M905.747977,583.442852 L745.771711,595.205813 L757.534671,651.668025 L905.747977,583.442852" id="Fill-191" fill="#007DA7"></path>
                    <path d="M905.747977,583.442852 L757.534671,651.668025 L865.75391,710.482828 L905.747977,583.442852" id="Fill-192" fill="#005D7C"></path>
                    <path d="M708.130236,863.401318 L708.130236,863.401318 L806.939106,1108.0709 L924.568714,1039.84573 L708.130236,863.401318" id="Fill-193" fill="#006789"></path>
                    <path d="M905.747977,583.442852 L905.747977,583.442852 L865.75391,710.482828 L938.684267,719.893197 L905.747977,583.442852" id="Fill-194" fill="#006587"></path>
                    <path d="M865.75391,710.482828 L865.75391,710.482828 L788.118369,774.002816 L941.036859,856.343542 L865.75391,710.482828" id="Fill-198" fill="#006A8E"></path>
                    <path d="M865.75391,710.482828 L941.036859,856.343542 L938.684267,719.893197 L865.75391,710.482828" id="Fill-199" fill="#00739A"></path>
                    <path d="M788.118369,774.002816 L788.118369,774.002816 L708.130236,863.401318 L941.036859,856.343542 L788.118369,774.002816" id="Fill-200" fill="#00516C"></path>
                    <path d="M941.036859,856.343542 L708.130236,863.401318 L924.568714,1039.84573 L941.036859,856.343542" id="Fill-201" fill="#006181"></path>
                    <path d="M924.568714,1039.84573 L924.568714,1039.84573 L806.939106,1108.0709 L950.447227,1129.24423 L924.568714,1039.84573" id="Fill-203" fill="#005470"></path>
                    <path d="M924.568714,1039.84573 L924.568714,1039.84573 L950.447227,1129.24423 L962.210188,1110.42349 L924.568714,1039.84573" id="Fill-204" fill="#003A4D"></path>
                    <path d="M924.568714,1039.84573 L924.568714,1039.84573 L962.210188,1110.42349 L997.49907,1103.36572 L924.568714,1039.84573" id="Fill-215" fill="#003446"></path>
                    <path d="M905.747977,583.442852 L905.747977,583.442852 L938.684267,719.893197 L1025.73018,724.598381 L905.747977,583.442852" id="Fill-216" fill="#00769D"></path>
                    <path d="M938.684267,719.893197 L941.036859,856.343542 L1025.73018,724.598381 L938.684267,719.893197" id="Fill-217" fill="#00759C"></path>
                    <path d="M1148.06497,1082.19239 L997.49907,1103.36572 L1108.0709,1190.41163 L1148.06497,1082.19239" id="Fill-226" fill="#003142"></path>
                    <path d="M905.747977,583.442852 L905.747977,583.442852 L1025.73018,724.598381 L1152.77015,618.731735 L905.747977,583.442852" id="Fill-228" fill="#007FAA"></path>
                    <path d="M1173.94348,915.158345 L924.568714,1039.84573 L997.49907,1103.36572 L1173.94348,915.158345" id="Fill-240" fill="#00445B"></path>
                    <path d="M1173.94348,915.158345 L997.49907,1103.36572 L1148.06497,1082.19239 L1173.94348,915.158345" id="Fill-241" fill="#003547"></path>
                    <path d="M941.036859,856.343542 L941.036859,856.343542 L924.568714,1039.84573 L1173.94348,915.158345 L941.036859,856.343542" id="Fill-242" fill="#00536F"></path>
                    <path d="M1025.73018,724.598381 L1025.73018,724.598381 L941.036859,856.343542 L1173.94348,905.747977 L1025.73018,724.598381" id="Fill-243" fill="#006485"></path>
                    <path d="M941.036859,856.343542 L1173.94348,915.158345 L1173.94348,905.747977 L941.036859,856.343542" id="Fill-244" fill="#005E7E"></path>
                    <path d="M1148.06497,1082.19239 L1148.06497,1082.19239 L1108.0709,1190.41163 L1225.70051,1148.06497 L1148.06497,1082.19239" id="Fill-249" fill="#003D52"></path>
                    <path d="M1152.77015,618.731735 L1152.77015,618.731735 L1025.73018,724.598381 L1256.28421,806.939106 L1152.77015,618.731735" id="Fill-253" fill="#007EA8"></path>
                    <path d="M1025.73018,724.598381 L1173.94348,905.747977 L1256.28421,806.939106 L1025.73018,724.598381" id="Fill-254" fill="#005875"></path>
                    <path d="M1173.94348,915.158345 L1173.94348,915.158345 L1148.06497,1082.19239 L1258.6368,1089.25016 L1173.94348,915.158345" id="Fill-255" fill="#00465E"></path>
                    <path d="M1148.06497,1082.19239 L1225.70051,1148.06497 L1258.6368,1089.25016 L1148.06497,1082.19239" id="Fill-256" fill="#004F69"></path>
                    <path d="M1183.35385,578.737668 L1183.35385,578.737668 L1152.77015,618.731735 L1279.81013,729.303566 L1183.35385,578.737668" id="Fill-257" fill="#007096"></path>
                    <path d="M1152.77015,618.731735 L1256.28421,806.939106 L1279.81013,729.303566 L1152.77015,618.731735" id="Fill-258" fill="#006182"></path>
                    <path d="M1173.94348,915.158345 L1258.6368,1089.25016 L1308.04123,950.447227 L1173.94348,915.158345" id="Fill-262" fill="#004A63"></path>
                    <path d="M1173.94348,905.747977 L1173.94348,915.158345 L1308.04123,950.447227 L1173.94348,905.747977" id="Fill-263" fill="#005B79"></path>
                    <path d="M1256.28421,806.939106 L1256.28421,806.939106 L1173.94348,905.747977 L1308.04123,950.447227 L1256.28421,806.939106" id="Fill-264" fill="#00526D"></path>
                    <path d="M1312.74642,712.835421 L1279.81013,729.303566 L1256.28421,806.939106 L1312.74642,712.835421" id="Fill-265" fill="#007399"></path>
                    <path d="M1183.35385,578.737668 L1279.81013,729.303566 L1312.74642,712.835421 L1183.35385,578.737668" id="Fill-266" fill="#006A8E"></path>
                    <path d="M1308.04123,950.447227 L1308.04123,950.447227 L1258.6368,1089.25016 L1315.09901,1115.12868 L1308.04123,950.447227" id="Fill-267" fill="#004860"></path>
                    <path d="M1324.50938,494.044351 L1183.35385,578.737668 L1312.74642,712.835421 L1324.50938,494.044351" id="Fill-269" fill="#00769E"></path>
                    <path d="M1348.0353,936.331675 L1308.04123,950.447227 L1315.09901,1115.12868 L1348.0353,936.331675" id="Fill-286" fill="#004D67"></path>
                    <path d="M1312.74642,712.835421 L1312.74642,712.835421 L1256.28421,806.939106 L1362.15085,877.516871 L1312.74642,712.835421" id="Fill-287" fill="#006F94"></path>
                    <path d="M1256.28421,806.939106 L1308.04123,950.447227 L1362.15085,877.516871 L1256.28421,806.939106" id="Fill-288" fill="#004F69"></path>
                    <path d="M1362.15085,877.516871 L1308.04123,950.447227 L1348.0353,936.331675 L1362.15085,877.516871" id="Fill-289" fill="#00516C"></path>
                    <path d="M1348.0353,936.331675 L1348.0353,936.331675 L1315.09901,1115.12868 L1385.67677,1131.59682 L1348.0353,936.331675" id="Fill-292" fill="#00526D"></path>
                    <path d="M1324.50938,494.044351 L1324.50938,494.044351 L1312.74642,712.835421 L1496.24861,524.628049 L1324.50938,494.044351" id="Fill-300" fill="#00769D"></path>
                    <path d="M1348.0353,936.331675 L1348.0353,936.331675 L1385.67677,1131.59682 L1576.23674,1105.71831 L1348.0353,936.331675" id="Fill-308" fill="#00526E"></path>
                    <path d="M1312.74642,712.835421 L1312.74642,712.835421 L1362.15085,877.516871 L1580.94192,764.592448 L1312.74642,712.835421" id="Fill-314" fill="#006384"></path>
                    <path d="M1496.24861,524.628049 L1496.24861,524.628049 L1312.74642,712.835421 L1580.94192,764.592448 L1496.24861,524.628049" id="Fill-315" fill="#007298"></path>
                    <path d="M1496.24861,524.628049 L1496.24861,524.628049 L1580.94192,764.592448 L1604.46784,762.239856 L1496.24861,524.628049" id="Fill-316" fill="#0083AF"></path>
                    <path d="M1604.46784,762.239856 L1604.46784,762.239856 L1580.94192,764.592448 L1613.87821,788.118369 L1604.46784,762.239856" id="Fill-317" fill="#006587"></path>
                    <path d="M1580.94192,764.592448 L1580.94192,764.592448 L1362.15085,877.516871 L1618.5834,983.383517 L1580.94192,764.592448" id="Fill-318" fill="#006D91"></path>
                    <path d="M1580.94192,764.592448 L1618.5834,983.383517 L1613.87821,788.118369 L1580.94192,764.592448" id="Fill-319" fill="#006D91"></path>
                    <path d="M1362.15085,877.516871 L1362.15085,877.516871 L1348.0353,936.331675 L1618.5834,983.383517 L1362.15085,877.516871" id="Fill-320" fill="#004F6A"></path>
                    <path d="M1348.0353,936.331675 L1576.23674,1105.71831 L1618.5834,983.383517 L1348.0353,936.331675" id="Fill-321" fill="#005F7F"></path>
                    <path d="M1618.5834,983.383517 L1618.5834,983.383517 L1576.23674,1105.71831 L1656.22487,1178.64867 L1618.5834,983.383517" id="Fill-328" fill="#003F54"></path>
                    <path d="M1496.24861,524.628049 L1496.24861,524.628049 L1604.46784,762.239856 L1729.15523,670.488762 L1496.24861,524.628049" id="Fill-338" fill="#00739A"></path>
                    <path d="M1729.15523,670.488762 L1604.46784,762.239856 L1613.87821,788.118369 L1729.15523,670.488762" id="Fill-339" fill="#006486"></path>
                    <path d="M1496.24861,524.628049 L1729.15523,670.488762 L1731.50782,531.685825 L1496.24861,524.628049" id="Fill-346" fill="#00769E"></path>
                    <path d="M1613.87821,788.118369 L1613.87821,788.118369 L1618.5834,983.383517 L1757.38633,943.389451 L1613.87821,788.118369" id="Fill-352" fill="#006283"></path>
                    <path d="M1731.50782,531.685825 L1731.50782,531.685825 L1729.15523,670.488762 L1757.38633,663.430985 L1731.50782,531.685825" id="Fill-353" fill="#00739A"></path>
                    <path d="M1757.38633,663.430985 L1757.38633,663.430985 L1729.15523,670.488762 L1790.32262,764.592448 L1757.38633,663.430985" id="Fill-357" fill="#005876"></path>
                    <path d="M1729.15523,670.488762 L1729.15523,670.488762 L1613.87821,788.118369 L1790.32262,764.592448 L1729.15523,670.488762" id="Fill-358" fill="#006D91"></path>
                    <path d="M1797.3804,837.522804 L1757.38633,943.389451 L1792.67522,948.094635 L1797.3804,837.522804" id="Fill-359" fill="#004B64"></path>
                    <path d="M1613.87821,788.118369 L1613.87821,788.118369 L1757.38633,943.389451 L1797.3804,837.522804 L1613.87821,788.118369" id="Fill-360" fill="#006182"></path>
                    <path d="M1790.32262,764.592448 L1790.32262,764.592448 L1613.87821,788.118369 L1797.3804,837.522804 L1790.32262,764.592448" id="Fill-361" fill="#007298"></path>
                    <path d="M1757.38633,943.389451 L1818.55373,1096.30794 L1792.67522,948.094635 L1757.38633,943.389451" id="Fill-362" fill="#004157"></path>
                    <path d="M1618.5834,983.383517 L1618.5834,983.383517 L1656.22487,1178.64867 L1818.55373,1096.30794 L1618.5834,983.383517" id="Fill-363" fill="#00435A"></path>
                    <path d="M1757.38633,943.389451 L1757.38633,943.389451 L1618.5834,983.383517 L1818.55373,1096.30794 L1757.38633,943.389451" id="Fill-364" fill="#005876"></path>
                    <path d="M1731.50782,531.685825 L1731.50782,531.685825 L1757.38633,663.430985 L1846.78484,665.783578 L1731.50782,531.685825" id="Fill-365" fill="#0089B7"></path>
                    <path d="M1757.38633,663.430985 L1790.32262,764.592448 L1860.90039,705.777644 L1757.38633,663.430985" id="Fill-366" fill="#007096"></path>
                    <path d="M1757.38633,663.430985 L1860.90039,705.777644 L1846.78484,665.783578 L1757.38633,663.430985" id="Fill-367" fill="#005D7C"></path>
                    <path d="M1860.90039,705.777644 L1790.32262,764.592448 L1797.3804,837.522804 L1860.90039,705.777644" id="Fill-368" fill="#005D7C"></path>
                    <path d="M1792.67522,948.094635 L1792.67522,948.094635 L1818.55373,1096.30794 L1867.95816,1089.25016 L1792.67522,948.094635" id="Fill-369" fill="#004C65"></path>
                    <path d="M1931.47815,981.628484 L1931.47815,998.385998 L1955.00407,1006.90944 L1931.47815,981.628484" id="Fill-387" fill="#89E1FF"></path>
                    <path d="M1797.3804,837.522804 L1797.3804,837.522804 L1792.67522,948.094635 L1931.47815,998.385998 L1931.47815,981.628484 L1797.3804,837.522804" id="Fill-388" fill="#005876"></path>
                    <path d="M1931.47815,998.385998 L1931.47815,1029.16261 L1955.00407,1006.90944 L1931.47815,998.385998" id="Fill-389" fill="#A3E8FF"></path>
                    <path d="M1792.67522,948.094635 L1867.95816,1089.25016 L1931.47815,1029.16261 L1931.47815,998.385998 L1792.67522,948.094635" id="Fill-390" fill="#00455C"></path>
                    <path d="M1973.82481,597.558405 L1931.47815,620.300914 L1931.47815,638.14062 L1973.82481,597.558405" id="Fill-391" fill="#88E1FF"></path>
                    <path d="M1931.47815,620.300914 L1846.78484,665.783578 L1860.90039,705.777644 L1931.47815,638.14062 L1931.47815,620.300914" id="Fill-392" fill="#005977"></path>
                    <path d="M1731.50782,531.685825 L1846.78484,665.783578 L1931.47815,620.300914 L1931.47815,586.047172 L1731.50782,531.685825" id="Fill-396" fill="#00688B"></path>
                    <path d="M1931.47815,819.643104 L1931.47815,922.976009 L2037.3448,990.441294 L1931.47815,819.643104" id="Fill-397" fill="#80DFFF"></path>
                    <path d="M1860.90039,705.777644 L1860.90039,705.777644 L1797.3804,837.522804 L1931.47815,922.976009 L1931.47815,819.643104 L1860.90039,705.777644" id="Fill-398" fill="#005F7F"></path>
                    <path d="M1931.47815,922.976009 L1931.47815,981.628484 L1955.00407,1006.90944 L2037.3448,990.441294 L1931.47815,922.976009" id="Fill-399" fill="#9AE6FF"></path>
                    <path d="M1797.3804,837.522804 L1931.47815,981.628484 L1931.47815,922.976009 L1797.3804,837.522804" id="Fill-400" fill="#004C65"></path>
                    <path d="M1955.00407,1006.90944 L1955.00407,1006.90944 L1931.47815,1029.16261 L1931.47815,1128.75724 L2060.87072,1209.23236 L1955.00407,1006.90944" id="Fill-406" fill="#B4ECFF"></path>
                    <path d="M1931.47815,1029.16261 L1867.95816,1089.25016 L1931.47815,1128.75724 L1931.47815,1029.16261" id="Fill-407" fill="#00384B"></path>
                    <path d="M1973.82481,597.558405 L1973.82481,597.558405 L1931.47815,638.14062 L1931.47815,688.307295 L2098.5122,646.96284 L1973.82481,597.558405" id="Fill-419" fill="#62D8FF"></path>
                    <path d="M1931.47815,638.14062 L1860.90039,705.777644 L1931.47815,688.307295 L1931.47815,638.14062" id="Fill-420" fill="#00769D"></path>
                    <path d="M2098.5122,646.96284 L1931.47815,688.307295 L1931.47815,819.643104 L2037.3448,990.441294 L2098.5122,646.96284" id="Fill-421" fill="#73DCFF"></path>
                    <path d="M1931.47815,688.307295 L1860.90039,705.777644 L1931.47815,819.643104 L1931.47815,688.307295" id="Fill-422" fill="#00698C"></path>
                </g>
            </g>
            <g id="Dots" mask="url(#mask-2)" fill="#6EB6F8" sketch:type="MSShapeGroup">
                <g transform="translate(-335.976562, -640.497512)">
                    <path d="M1180.82496,918.86353 C1180.82496,920.816181 1179.24873,922.392418 1177.29607,922.392418 C1175.34342,922.392418 1173.76719,920.816181 1173.76719,918.86353 C1173.76719,916.910878 1175.34342,915.334641 1177.29607,915.334641 C1179.24873,915.334641 1180.82496,916.910878 1180.82496,918.86353" id="Fill-431"></path>
                    <path d="M1314.92271,954.152412 C1314.92271,956.105063 1313.34648,957.6813 1311.39383,957.6813 C1309.44117,957.6813 1307.86494,956.105063 1307.86494,954.152412 C1307.86494,952.19976 1309.44117,950.623524 1311.39383,950.623524 C1313.34648,950.623524 1314.92271,952.19976 1314.92271,954.152412" id="Fill-442"></path>
                    <path d="M458.579173,690.662091 C458.579173,692.614743 457.002936,694.190979 455.050284,694.190979 C453.097633,694.190979 451.521396,692.614743 451.521396,690.662091 C451.521396,688.70944 453.097633,687.133203 455.050284,687.133203 C457.002936,687.133203 458.579173,688.70944 458.579173,690.662091" id="Fill-445"></path>
                    <path d="M1154.94645,1085.89757 C1154.94645,1087.85022 1153.37021,1089.42646 1151.41756,1089.42646 C1149.46491,1089.42646 1147.88867,1087.85022 1147.88867,1085.89757 C1147.88867,1083.94492 1149.46491,1082.36868 1151.41756,1082.36868 C1153.37021,1082.36868 1154.94645,1083.94492 1154.94645,1085.89757" id="Fill-447"></path>
                    <path d="M931.450194,1043.55091 C931.450194,1045.50356 929.873957,1047.0798 927.921306,1047.0798 C925.968654,1047.0798 924.392418,1045.50356 924.392418,1043.55091 C924.392418,1041.59826 925.968654,1040.02203 927.921306,1040.02203 C929.873957,1040.02203 931.450194,1041.59826 931.450194,1043.55091" id="Fill-451"></path>
                    <path d="M1874.83965,1092.95535 C1874.83965,1094.908 1873.26341,1096.48424 1871.31076,1096.48424 C1869.35811,1096.48424 1867.78187,1094.908 1867.78187,1092.95535 C1867.78187,1091.0027 1869.35811,1089.42646 1871.31076,1089.42646 C1873.26341,1089.42646 1874.83965,1091.0027 1874.83965,1092.95535" id="Fill-453"></path>
                    <path d="M1804.26188,841.227989 C1804.26188,843.18064 1802.68564,844.756877 1800.73299,844.756877 C1798.78034,844.756877 1797.2041,843.18064 1797.2041,841.227989 C1797.2041,839.275337 1798.78034,837.6991 1800.73299,837.6991 C1802.68564,837.6991 1804.26188,839.275337 1804.26188,841.227989" id="Fill-458"></path>
                    <path d="M1620.75969,791.823554 C1620.75969,793.776205 1619.18346,795.352442 1617.23081,795.352442 C1615.27815,795.352442 1613.70192,793.776205 1613.70192,791.823554 C1613.70192,789.870902 1615.27815,788.294665 1617.23081,788.294665 C1619.18346,788.294665 1620.75969,789.870902 1620.75969,791.823554" id="Fill-460"></path>
                    <path d="M1797.2041,768.297632 C1797.2041,770.250284 1795.62787,771.82652 1793.67522,771.82652 C1791.72256,771.82652 1790.14633,770.250284 1790.14633,768.297632 C1790.14633,766.344981 1791.72256,764.768744 1793.67522,764.768744 C1795.62787,764.768744 1797.2041,766.344981 1797.2041,768.297632" id="Fill-464"></path>
                    <path d="M872.635391,714.188013 C872.635391,716.140664 871.059154,717.716901 869.106502,717.716901 C867.153851,717.716901 865.577614,716.140664 865.577614,714.188013 C865.577614,712.235361 867.153851,710.659125 869.106502,710.659125 C871.059154,710.659125 872.635391,712.235361 872.635391,714.188013" id="Fill-468"></path>
                    <path d="M764.416152,655.373209 C764.416152,657.325861 762.839915,658.902097 760.887264,658.902097 C758.934612,658.902097 757.358375,657.325861 757.358375,655.373209 C757.358375,653.420558 758.934612,651.844321 760.887264,651.844321 C762.839915,651.844321 764.416152,653.420558 764.416152,655.373209" id="Fill-471"></path>
                    <path d="M715.011717,867.106502 C715.011717,869.059154 713.43548,870.635391 711.482828,870.635391 C709.530177,870.635391 707.95394,869.059154 707.95394,867.106502 C707.95394,865.153851 709.530177,863.577614 711.482828,863.577614 C713.43548,863.577614 715.011717,865.153851 715.011717,867.106502" id="Fill-473"></path>
                    <path d="M945.565747,723.598381 C945.565747,725.551033 943.98951,727.12727 942.036859,727.12727 C940.084207,727.12727 938.507971,725.551033 938.507971,723.598381 C938.507971,721.64573 940.084207,720.069493 942.036859,720.069493 C943.98951,720.069493 945.565747,721.64573 945.565747,723.598381" id="Fill-475"></path>
                    <path d="M1354.91678,940.036859 C1354.91678,941.98951 1353.34054,943.565747 1351.38789,943.565747 C1349.43524,943.565747 1347.859,941.98951 1347.859,940.036859 C1347.859,938.084207 1349.43524,936.507971 1351.38789,936.507971 C1353.34054,936.507971 1354.91678,938.084207 1354.91678,940.036859" id="Fill-487"></path>
                    <path d="M637.376176,909.453161 C637.376176,911.405812 635.799939,912.982049 633.847288,912.982049 C631.894636,912.982049 630.318399,911.405812 630.318399,909.453161 C630.318399,907.500509 631.894636,905.924273 633.847288,905.924273 C635.799939,905.924273 637.376176,907.500509 637.376176,909.453161" id="Fill-490"></path>
                    <path d="M1263.16569,810.644291 C1263.16569,812.596942 1261.58945,814.173179 1259.6368,814.173179 C1257.68415,814.173179 1256.10791,812.596942 1256.10791,810.644291 C1256.10791,808.691639 1257.68415,807.115403 1259.6368,807.115403 C1261.58945,807.115403 1263.16569,808.691639 1263.16569,810.644291" id="Fill-496"></path>
                    <path d="M1286.69161,733.00875 C1286.69161,734.961401 1285.11537,736.537638 1283.16272,736.537638 C1281.21007,736.537638 1279.63383,734.961401 1279.63383,733.00875 C1279.63383,731.056098 1281.21007,729.479862 1283.16272,729.479862 C1285.11537,729.479862 1286.69161,731.056098 1286.69161,733.00875" id="Fill-498"></path>
                    <path d="M1625.46488,987.088702 C1625.46488,989.041353 1623.88864,990.61759 1621.93599,990.61759 C1619.98334,990.61759 1618.4071,989.041353 1618.4071,987.088702 C1618.4071,985.13605 1619.98334,983.559814 1621.93599,983.559814 C1623.88864,983.559814 1625.46488,985.13605 1625.46488,987.088702" id="Fill-505"></path>
                    <path d="M564.445819,928.273898 C564.445819,930.22655 562.869582,931.802786 560.916931,931.802786 C558.96428,931.802786 557.388043,930.22655 557.388043,928.273898 C557.388043,926.321247 558.96428,924.74501 560.916931,924.74501 C562.869582,924.74501 564.445819,926.321247 564.445819,928.273898" id="Fill-509"></path>
                    <path d="M357.41771,918.86353 C357.41771,920.816181 355.841474,922.392418 353.888822,922.392418 C351.936171,922.392418 350.359934,920.816181 350.359934,918.86353 C350.359934,916.910878 351.936171,915.334641 353.888822,915.334641 C355.841474,915.334641 357.41771,916.910878 357.41771,918.86353" id="Fill-510"></path>
                    <path d="M1265.51828,1092.95535 C1265.51828,1094.908 1263.94204,1096.48424 1261.98939,1096.48424 C1260.03674,1096.48424 1258.4605,1094.908 1258.4605,1092.95535 C1258.4605,1091.0027 1260.03674,1089.42646 1261.98939,1089.42646 C1263.94204,1089.42646 1265.51828,1091.0027 1265.51828,1092.95535" id="Fill-512"></path>
                    <path d="M1319.6279,716.540605 C1319.6279,718.493256 1318.05166,720.069493 1316.09901,720.069493 C1314.14636,720.069493 1312.57012,718.493256 1312.57012,716.540605 C1312.57012,714.587953 1314.14636,713.011717 1316.09901,713.011717 C1318.05166,713.011717 1319.6279,714.587953 1319.6279,716.540605" id="Fill-518"></path>
                    <path d="M733.832454,735.361342 C733.832454,737.313994 732.256217,738.89023 730.303566,738.89023 C728.350914,738.89023 726.774677,737.313994 726.774677,735.361342 C726.774677,733.408691 728.350914,731.832454 730.303566,731.832454 C732.256217,731.832454 733.832454,733.408691 733.832454,735.361342" id="Fill-520"></path>
                    <path d="M947.918339,860.048726 C947.918339,862.001377 946.342102,863.577614 944.389451,863.577614 C942.4368,863.577614 940.860563,862.001377 940.860563,860.048726 C940.860563,858.096074 942.4368,856.519838 944.389451,856.519838 C946.342102,856.519838 947.918339,858.096074 947.918339,860.048726" id="Fill-521"></path>
                    <path d="M794.99985,777.708001 C794.99985,779.660652 793.423613,781.236889 791.470961,781.236889 C789.51831,781.236889 787.942073,779.660652 787.942073,777.708001 C787.942073,775.755349 789.51831,774.179112 791.470961,774.179112 C793.423613,774.179112 794.99985,775.755349 794.99985,777.708001" id="Fill-524"></path>
                    <path d="M402.116961,1001.20425 C402.116961,1003.15691 400.540724,1004.73314 398.588073,1004.73314 C396.635421,1004.73314 395.059185,1003.15691 395.059185,1001.20425 C395.059185,999.251603 396.635421,997.675366 398.588073,997.675366 C400.540724,997.675366 402.116961,999.251603 402.116961,1001.20425" id="Fill-527"></path>
                    <path d="M583.266556,961.210188 C583.266556,963.16284 581.69032,964.739076 579.737668,964.739076 C577.785017,964.739076 576.20878,963.16284 576.20878,961.210188 C576.20878,959.257537 577.785017,957.6813 579.737668,957.6813 C581.69032,957.6813 583.266556,959.257537 583.266556,961.210188" id="Fill-537"></path>
                    <path d="M1611.34932,765.94504 C1611.34932,767.897691 1609.77309,769.473928 1607.82044,769.473928 C1605.86779,769.473928 1604.29155,767.897691 1604.29155,765.94504 C1604.29155,763.992388 1605.86779,762.416152 1607.82044,762.416152 C1609.77309,762.416152 1611.34932,763.992388 1611.34932,765.94504" id="Fill-539"></path>
                    <path d="M1799.5567,951.79982 C1799.5567,953.752471 1797.98046,955.328708 1796.02781,955.328708 C1794.07516,955.328708 1792.49892,953.752471 1792.49892,951.79982 C1792.49892,949.847168 1794.07516,948.270931 1796.02781,948.270931 C1797.98046,948.270931 1799.5567,949.847168 1799.5567,951.79982" id="Fill-540"></path>
                    <path d="M1764.26781,947.094635 C1764.26781,949.047287 1762.69158,950.623524 1760.73893,950.623524 C1758.78627,950.623524 1757.21004,949.047287 1757.21004,947.094635 C1757.21004,945.141984 1758.78627,943.565747 1760.73893,943.565747 C1762.69158,943.565747 1764.26781,945.141984 1764.26781,947.094635" id="Fill-545"></path>
                    <path d="M1853.66632,669.488762 C1853.66632,671.441413 1852.09008,673.01765 1850.13743,673.01765 C1848.18478,673.01765 1846.60854,671.441413 1846.60854,669.488762 C1846.60854,667.53611 1848.18478,665.959874 1850.13743,665.959874 C1852.09008,665.959874 1853.66632,667.53611 1853.66632,669.488762" id="Fill-548"></path>
                    <path d="M1369.03233,881.222055 C1369.03233,883.174707 1367.4561,884.750943 1365.50345,884.750943 C1363.55079,884.750943 1361.97456,883.174707 1361.97456,881.222055 C1361.97456,879.269404 1363.55079,877.693167 1365.50345,877.693167 C1367.4561,877.693167 1369.03233,879.269404 1369.03233,881.222055" id="Fill-555"></path>
                    <path d="M649.139137,678.899131 C649.139137,680.851782 647.5629,682.428019 645.610248,682.428019 C643.657597,682.428019 642.08136,680.851782 642.08136,678.899131 C642.08136,676.946479 643.657597,675.370242 645.610248,675.370242 C647.5629,675.370242 649.139137,676.946479 649.139137,678.899131" id="Fill-561"></path>
                    <path d="M1736.03671,674.193946 C1736.03671,676.146598 1734.46047,677.722834 1732.50782,677.722834 C1730.55517,677.722834 1728.97893,676.146598 1728.97893,674.193946 C1728.97893,672.241295 1730.55517,670.665058 1732.50782,670.665058 C1734.46047,670.665058 1736.03671,672.241295 1736.03671,674.193946" id="Fill-563"></path>
                    <path d="M1587.8234,768.297632 C1587.8234,770.250284 1586.24717,771.82652 1584.29452,771.82652 C1582.34186,771.82652 1580.76563,770.250284 1580.76563,768.297632 C1580.76563,766.344981 1582.34186,764.768744 1584.29452,764.768744 C1586.24717,764.768744 1587.8234,766.344981 1587.8234,768.297632" id="Fill-564"></path>
                    <path d="M430.348067,869.459094 C430.348067,871.411746 428.77183,872.987983 426.819179,872.987983 C424.866527,872.987983 423.29029,871.411746 423.29029,869.459094 C423.29029,867.506443 424.866527,865.930206 426.819179,865.930206 C428.77183,865.930206 430.348067,867.506443 430.348067,869.459094" id="Fill-567"></path>
                    <path d="M1180.82496,909.453161 C1180.82496,911.405812 1179.24873,912.982049 1177.29607,912.982049 C1175.34342,912.982049 1173.76719,911.405812 1173.76719,909.453161 C1173.76719,907.500509 1175.34342,905.924273 1177.29607,905.924273 C1179.24873,905.924273 1180.82496,907.500509 1180.82496,909.453161" id="Fill-575"></path>
                    <path d="M475.047318,848.285765 C475.047318,850.238417 473.471081,851.814653 471.518429,851.814653 C469.565778,851.814653 467.989541,850.238417 467.989541,848.285765 C467.989541,846.333114 469.565778,844.756877 471.518429,844.756877 C473.471081,844.756877 475.047318,846.333114 475.047318,848.285765" id="Fill-578"></path>
                    <path d="M665.607282,942.389451 C665.607282,944.342102 664.031045,945.918339 662.078393,945.918339 C660.125742,945.918339 658.549505,944.342102 658.549505,942.389451 C658.549505,940.4368 660.125742,938.860563 662.078393,938.860563 C664.031045,938.860563 665.607282,940.4368 665.607282,942.389451" id="Fill-579"></path>
                    <path d="M1032.61166,728.303566 C1032.61166,730.256217 1031.03542,731.832454 1029.08277,731.832454 C1027.13012,731.832454 1025.55388,730.256217 1025.55388,728.303566 C1025.55388,726.350914 1027.13012,724.774677 1029.08277,724.774677 C1031.03542,724.774677 1032.61166,726.350914 1032.61166,728.303566" id="Fill-583"></path>
                    <path d="M562.093227,723.598381 C562.093227,725.551033 560.51699,727.12727 558.564339,727.12727 C556.611687,727.12727 555.035451,725.551033 555.035451,723.598381 C555.035451,721.64573 556.611687,720.069493 558.564339,720.069493 C560.51699,720.069493 562.093227,721.64573 562.093227,723.598381" id="Fill-584"></path>
                    <path d="M1867.78187,709.482828 C1867.78187,711.43548 1866.20563,713.011717 1864.25298,713.011717 C1862.30033,713.011717 1860.72409,711.43548 1860.72409,709.482828 C1860.72409,707.530177 1862.30033,705.95394 1864.25298,705.95394 C1866.20563,705.95394 1867.78187,707.530177 1867.78187,709.482828" id="Fill-594"></path>
                    <path d="M1764.26781,667.13617 C1764.26781,669.088821 1762.69158,670.665058 1760.73893,670.665058 C1758.78627,670.665058 1757.21004,669.088821 1757.21004,667.13617 C1757.21004,665.183518 1758.78627,663.607282 1760.73893,663.607282 C1762.69158,663.607282 1764.26781,665.183518 1764.26781,667.13617" id="Fill-601"></path>
                </g>
            </g>
            <rect id="Rectangle-3" fill-opacity="0.4" fill="#00267B" sketch:type="MSShapeGroup" mask="url(#mask-2)" x="-92" y="-46" width="1860.90039" height="609"></rect>
            <rect id="Rectangle-2" fill-opacity="0.4" fill="#0099FF" sketch:type="MSShapeGroup" mask="url(#mask-2)" x="-92" y="-46" width="1860.90039" height="609"></rect>
            <rect id="Fade-Up" fill-opacity="0.3" fill="url(#linearGradient-3)" sketch:type="MSShapeGroup" mask="url(#mask-2)" x="-224.404732" y="-18" width="1860.90039" height="503.364459"></rect>
        </g>
    </g>
</svg>