<?xml version="1.0" encoding="UTF-8" standalone="no"?>
<svg width="116px" height="108px" viewBox="0 0 116 108" version="1.1" xmlns="http://www.w3.org/2000/svg" xmlns:xlink="http://www.w3.org/1999/xlink" xmlns:sketch="http://www.bohemiancoding.com/sketch/ns">
    <!-- Generator: Sketch 3.5.1 (25234) - http://www.bohemiancoding.com/sketch -->
    <title>osvaldo</title>
    <desc>Created with Sketch.</desc>
    <defs></defs>
    <g id="Page-1" stroke="none" stroke-width="1" fill="none" fill-rule="evenodd" sketch:type="MSPage">
        <g id="osvaldo" sketch:type="MSLayerGroup" fill="#9B9B9B">
            <path d="M79.4660556,21.5994333 C74.8744,20.3977556 69.2232667,22.3113111 67.3158556,24.9314778 C67.0182889,25.3589556 66.6768333,26.0717111 66.7646111,26.5430778 C67.2719667,28.7708778 70.8822667,27.6051889 70.8866556,27.6051889 C77.1162444,26.4500333 81.5025,34.2578667 73.7131,37.9805222 C66.2932444,41.5416667 61.0379889,36.0020111 59.7581889,34.8977667 C60.6377222,33.8523333 61.4057778,32.7217556 62.1001,31.4902333 C63.7406667,28.4557556 64.7123667,24.8981222 64.7123667,21.0964667 C64.7123667,9.87758889 56.3383667,0.786444444 46.0113111,0.786444444 C35.6552889,0.786444444 27.2812889,9.87758889 27.2812889,21.0964667 C27.2812889,25.0166222 28.3012667,28.6576444 30.0445333,31.7404 C30.7151556,32.9438333 31.5060333,34.0410556 32.3846889,35.0636667 C31.9133222,35.5236222 24.0756444,40.4962333 17.6222222,37.1396111 C15.1117778,35.8484 14.1339333,33.2019 15.2803111,30.8424333 C16.1045444,29.1597333 17.6152,27.9352333 19.4796,27.8228778 C24.0756444,27.4875667 23.1952333,24.3582889 21.4651333,23.4217 C18.8203889,22.0356889 16.2353333,21.9215778 13.3465667,22.7063111 C7.51022222,24.2713889 4.69518889,30.3087444 5.09633333,35.2278111 C5.62651111,41.8690778 8.55477778,47.1392556 14.7676889,49.3135111 C18.8748111,50.7609667 23.1337889,50.9400333 27.4199778,50.2106 C28.8955222,49.9762333 30.3166444,49.5391 31.7790222,49.2108111 C31.8123778,49.2784 28.1906667,51.4868889 26.3578667,52.5182778 C24.7453889,53.3925444 23.0346,54.1044222 21.5537889,55.0963111 C18.4956111,57.2837333 16.7971111,60.1672333 16.9621333,63.8249333 C17.1429556,67.9759444 19.1486778,71.2526889 22.7063111,73.6823778 C25.5353889,75.5810111 28.6585222,76.2604111 32.0186556,75.0745333 C36.0678444,73.6990556 38.5774111,70.0167778 38.1999667,66.0597556 C38.1473,65.4005444 37.9498,64.6895444 37.1290778,64.4323556 C36.3891111,64.2524111 35.7895889,64.6202 35.3691333,65.1775889 C34.9644778,65.7121556 34.6239,66.3582 34.2517222,66.9059333 C33.4134444,68.1286778 32.1880667,68.2937 31.0162333,67.3913444 C29.9620222,66.5785222 29.3739111,65.5471333 29.6284667,64.2524111 C29.8830222,62.9559333 30.8082,62.1554 32.1661222,61.8394 C34.5887889,61.3302889 37.0729,60.9159778 39.4525556,60.2673 C44.1442778,58.8812889 47.4210222,56.0864444 48.9483556,51.5904667 C49.0457889,51.3666333 49.1704333,51.1594778 49.2950778,50.9400333 C51.3113333,52.2119333 53.0589889,54.4388556 53.7515556,56.5736111 C54.7452,59.8389444 53.5847778,62.2642444 50.4458444,63.8679444 C48.2277,65.0160778 45.9841,66.1405111 43.9406333,67.5598778 C40.3847556,69.8921333 39.6781444,73.1153333 39.9555222,77.2154333 C40.3435,82.7392889 43.1804778,81.5191778 43.1804778,81.5191778 C43.8291556,81.2690111 44.2004556,80.1919778 44.2267889,79.2720667 C44.333,75.4528556 46.1069889,73.3760333 49.6602333,72.9582111 C50.9514444,72.8256667 52.2619667,72.8651667 53.5540556,72.7484222 C57.0432222,72.3867778 60.2883667,71.3237889 63.1666,69.3663444 C69.2934889,65.0889333 69.4830889,56.6929889 65.8640111,51.6001222 C65.6823111,51.3534667 65.5348444,51.0690667 65.2583444,50.7276111 C93.6983444,49.5496333 92.1332667,24.8700333 79.4660556,21.5994333" id="Fill-2" sketch:type="MSShapeGroup"></path>
            <path d="M111.001978,61.4373778 C108.067567,57.4118889 103.888467,54.2281889 98.8184222,52.5841111 C98.5770333,51.6817556 98.2619111,50.7723778 97.9230889,49.8665111 C97.0356556,47.572 95.8181778,45.2801222 94.4462111,43.2129556 C93.9520222,42.4808889 93.4648556,41.8085111 92.9645222,41.1493 C92.8012556,41.6566556 92.6292111,42.1973667 92.4211778,42.7003333 L92.4211778,42.7073556 C92.2043667,43.2814222 91.9568333,43.8037 91.6996444,44.3505556 C91.1993111,45.3450778 90.6507,46.2588444 90.0204556,47.1260889 C89.4007444,47.9836778 88.7371444,48.8079111 87.9805,49.5250556 C86.1020556,51.4035 83.8286111,52.7877556 81.4024333,53.7568222 C79.7653778,54.3976 78.0633667,54.8461444 76.3078111,55.0963111 C75.4432,55.2911778 74.5952667,55.3780778 73.7684,55.5106222 C74.1344333,56.9510556 79.2395889,80.4008889 49.9226889,79.2422222 C49.6303889,79.2703111 49.4048,79.2940111 49.4048,79.2940111 C49.389,79.3142 49.2757667,87.8102111 42.4361222,88.3737444 C37.4003111,88.7950778 34.6195111,81.3761 34.5413889,80.9863667 C33.8742778,81.3462556 8.62675556,87.7961667 10.9871,59.5615667 C9.93113333,60.1672333 9.62127778,60.4630444 8.65747778,61.2591889 C5.21746667,64.1260111 2.5578,68.0075444 1.18671111,72.5614556 C0.545055556,74.7330778 0.246611111,76.9845778 0.246611111,79.1500556 C0.248366667,84.1630444 1.92228889,89.0496333 4.88127778,92.9873444 C7.80515556,96.9312 12.0553556,99.9955222 17.1736778,101.504422 C19.3611,102.111844 21.5968,102.4296 23.7701778,102.4296 C28.8990333,102.427844 33.8023,100.733733 37.7909222,97.7650889 C39.0417556,99.4214556 40.4751667,100.911044 42.0911556,102.280378 C44.6507556,104.295756 47.6615333,105.909989 51.0199111,106.867644 C53.3934222,107.573378 55.7888778,107.913956 58.1501,107.913956 C65.7472667,107.913956 72.8888667,104.536267 77.6771444,98.8517778 C79.5099444,99.9375889 81.4893333,100.848722 83.6381333,101.504422 L83.6355,101.504422 C85.8896333,102.118867 88.1358667,102.448033 90.3777111,102.448033 C95.8383667,102.444522 101.108544,100.607333 105.404389,97.3358556 C109.704622,94.1205556 113.042811,89.4516556 114.700056,83.8567 C115.451433,81.3594222 115.783233,78.8463444 115.783233,76.3727667 C115.7806,70.9007 114.063667,65.6972333 111.001978,61.4373778" id="Fill-3" sketch:type="MSShapeGroup"></path>
        </g>
    </g>
</svg>
