<?xml version="1.0" encoding="UTF-8" standalone="no"?>
<svg width="80px" height="83px" viewBox="0 0 80 83" version="1.1" xmlns="http://www.w3.org/2000/svg" xmlns:xlink="http://www.w3.org/1999/xlink" xmlns:sketch="http://www.bohemiancoding.com/sketch/ns">
    <!-- Generator: Sketch 3.0.3 (7891) - http://www.bohemiancoding.com/sketch -->
    <title>magnifying-glass</title>
    <desc>Created with Sketch.</desc>
    <defs></defs>
    <g id="Page-1" stroke="none" stroke-width="1" fill="none" fill-rule="evenodd" sketch:type="MSPage">
        <g id="Home" sketch:type="MSArtboardGroup" transform="translate(-1046.000000, -1661.000000)">
            <g id="2" sketch:type="MSLayerGroup" transform="translate(102.000000, 141.000000)">
                <g id="Why-Aptible" transform="translate(61.000000, 1231.000000)" sketch:type="MSShapeGroup">
                    <g id="magnifying-glass" transform="translate(884.000000, 289.000000)">
                        <g id="Rectangle-path-2-+-Shape-15-+-Shape-14" transform="translate(62.500000, 66.500000) rotate(-45.000000) translate(-62.500000, -66.500000) translate(57.000000, 49.000000)">
                            <rect id="Rectangle-path-2" fill="#B3B3B3" x="2" y="-4.54747351e-13" width="7" height="8.598"></rect>
                            <path d="M5.304,8.331 L1.507,8.331 L-0.494,8.324 L-0.494,34.769 C0.171,34.826 0.842,34.874 1.507,34.917 C2.771,34.982 4.037,35.005 5.304,34.999 L5.304,8.331 L5.304,8.331 Z" id="Shape-15" fill="#2BA4EF"></path>
                            <path d="M8.507,8.331 L4.618,8.331 L4.618,34.998 C5.912,35.006 7.208,34.984 8.507,34.918 C9.172,34.875 9.843,34.826 10.507,34.77 L10.507,8.325 L8.507,8.331 L8.507,8.331 Z" id="Shape-14" fill="#2BA4EF"></path>
                        </g>
                        <path d="M30.509,58.147 L30.509,3.831 C15.659,4.011 3.676,16.099 3.676,30.989 C3.676,45.882 15.659,57.969 30.509,58.147 L30.509,58.147 Z" id="Shape" fill="#FFFFFF"></path>
                        <circle id="Oval-15" fill="#FFFFFF" cx="29.5" cy="30.5" r="29.5"></circle>
                        <path d="M31.304,0.052 L31.304,0.052 C31.149,0.05 30.995,0.04 30.84,0.04 C13.75,0.04 -0.11,13.899 -0.11,30.99 C-0.11,46.96 11.99,60.099 27.51,61.76 C28.537,61.872 29.574,61.926 30.618,61.934 L30.618,61.934 C30.692,61.934 30.765,61.94 30.84,61.94 C32.08,61.94 33.31,61.871 34.51,61.72 C49.87,59.91 61.791,46.84 61.791,30.991 C61.791,14.055 48.179,0.301 31.304,0.052 L31.304,0.052 Z M30.84,56.38 C30.766,56.38 30.693,56.375 30.618,56.374 L30.618,56.374 C16.701,56.255 5.45,44.936 5.45,30.99 C5.45,17.034 16.701,5.715 30.618,5.595 L30.618,5.595 C30.692,5.594 30.765,5.589 30.84,5.589 C44.87,5.589 56.24,16.959 56.24,30.989 C56.24,45.01 44.87,56.38 30.84,56.38 L30.84,56.38 Z" id="Shape" fill="#686868"></path>
                        <path d="M46.4253464,23.6315412 C46.69779,23.9039848 46.69779,24.3126502 46.4253464,24.5850938 L26.7412965,44.2691437 C26.4688529,44.5415873 26.0601875,44.5415873 25.7877439,44.2691437 L21.3605354,39.8419352 C21.0880919,39.5694916 20.6794265,39.1608262 20.4069829,38.8883826 L15.0943327,33.5757325 C14.8218891,33.3032889 14.8218891,32.8946235 15.0943327,32.6221799 L19.5215412,28.1949714 C19.7939848,27.9225278 20.2026502,27.9225278 20.4750938,28.1949714 L25.7877439,33.5076216 C26.0601875,33.7800652 26.4688529,33.7800652 26.7412965,33.5076216 L41.0445854,19.2043327 C41.317029,18.9318891 41.7256944,18.9318891 41.998138,19.2043327 L46.4253464,23.6315412 L46.4253464,23.6315412 Z" id="Shape-13" fill="#1DE807"></path>
                    </g>
                </g>
            </g>
        </g>
    </g>
</svg>