<?xml version="1.0" encoding="UTF-8" standalone="no"?>
<svg width="128px" height="128px" viewBox="0 0 128 128" version="1.1" xmlns="http://www.w3.org/2000/svg" xmlns:xlink="http://www.w3.org/1999/xlink" xmlns:sketch="http://www.bohemiancoding.com/sketch/ns">
    <!-- Generator: Sketch 3.0.3 (7891) - http://www.bohemiancoding.com/sketch -->
    <title>magnifying-glass</title>
    <desc>Created with Sketch.</desc>
    <defs>
        <circle id="path-1" cx="64" cy="64" r="64"></circle>
    </defs>
    <g id="Pricing" stroke="none" stroke-width="1" fill="none" fill-rule="evenodd" sketch:type="MSPage">
        <g id="3-Pricing-2" sketch:type="MSArtboardGroup" transform="translate(-844.000000, -606.000000)">
            <g id="Plans" sketch:type="MSLayerGroup" transform="translate(331.000000, 413.000000)">
                <g id="Prod" transform="translate(10.000000, 11.000000)">
                    <g id="Compliance" transform="translate(425.000000, 182.000000)">
                        <g id="magnifying-glass" transform="translate(78.000000, 0.000000)">
                            <mask id="mask-2" sketch:name="Oval 71" fill="white">
                                <use xlink:href="#path-1"></use>
                            </mask>
                            <use id="Oval-71" fill="#F5F5F5" sketch:type="MSShapeGroup" xlink:href="#path-1"></use>
                            <g id="Rectangle-path-2-+-Shape-15-+-Shape-14" mask="url(#mask-2)" sketch:type="MSShapeGroup">
                                <g transform="translate(95.500000, 99.500000) rotate(-45.000000) translate(-95.500000, -99.500000) translate(90.000000, 82.000000)">
                                    <rect id="Rectangle-path-2" fill="#B3B3B3" x="2" y="-4.54747351e-13" width="7" height="8.598"></rect>
                                    <path d="M5.304,8.331 L1.507,8.331 L-0.494,8.324 L-0.494,34.769 C0.171,34.826 0.842,34.874 1.507,34.917 C2.771,34.982 4.037,35.005 5.304,34.999 L5.304,8.331 L5.304,8.331 Z" id="Shape-15" fill="#2BA4EF"></path>
                                    <path d="M8.507,8.331 L4.618,8.331 L4.618,34.998 C5.912,35.006 7.208,34.984 8.507,34.918 C9.172,34.875 9.843,34.826 10.507,34.77 L10.507,8.325 L8.507,8.331 L8.507,8.331 Z" id="Shape-14" fill="#2BA4EF"></path>
                                </g>
                            </g>
                            <path d="M63.509,91.147 L63.509,36.831 C48.659,37.011 36.676,49.099 36.676,63.989 C36.676,78.882 48.659,90.969 63.509,91.147 L63.509,91.147 Z" id="Shape" fill="#FFFFFF" sketch:type="MSShapeGroup" mask="url(#mask-2)"></path>
                            <path d="M64.304,33.052 L64.304,33.052 C64.149,33.05 63.995,33.04 63.84,33.04 C46.75,33.04 32.89,46.899 32.89,63.99 C32.89,79.96 44.99,93.099 60.51,94.76 C61.537,94.872 62.574,94.926 63.618,94.934 L63.618,94.934 C63.692,94.934 63.765,94.94 63.84,94.94 C65.08,94.94 66.31,94.871 67.51,94.72 C82.87,92.91 94.791,79.84 94.791,63.991 C94.791,47.055 81.179,33.301 64.304,33.052 L64.304,33.052 Z M63.84,89.38 C63.766,89.38 63.693,89.375 63.618,89.374 L63.618,89.374 C49.701,89.255 38.45,77.936 38.45,63.99 C38.45,50.034 49.701,38.715 63.618,38.595 L63.618,38.595 C63.692,38.594 63.765,38.589 63.84,38.589 C77.87,38.589 89.24,49.959 89.24,63.989 C89.24,78.01 77.87,89.38 63.84,89.38 L63.84,89.38 Z" id="Shape" fill="#686868" sketch:type="MSShapeGroup" mask="url(#mask-2)"></path>
                            <path d="M79.4253464,56.6315412 C79.69779,56.9039848 79.69779,57.3126502 79.4253464,57.5850938 L59.7412965,77.2691437 C59.4688529,77.5415873 59.0601875,77.5415873 58.7877439,77.2691437 L54.3605354,72.8419352 C54.0880919,72.5694916 53.6794265,72.1608262 53.4069829,71.8883826 L48.0943327,66.5757325 C47.8218891,66.3032889 47.8218891,65.8946235 48.0943327,65.6221799 L52.5215412,61.1949714 C52.7939848,60.9225278 53.2026502,60.9225278 53.4750938,61.1949714 L58.7877439,66.5076216 C59.0601875,66.7800652 59.4688529,66.7800652 59.7412965,66.5076216 L74.0445854,52.2043327 C74.317029,51.9318891 74.7256944,51.9318891 74.998138,52.2043327 L79.4253464,56.6315412 L79.4253464,56.6315412 Z" id="Shape-13" fill="#1DE807" sketch:type="MSShapeGroup" mask="url(#mask-2)"></path>
                        </g>
                    </g>
                </g>
            </g>
        </g>
    </g>
</svg>