<?xml version="1.0" encoding="UTF-8" standalone="no"?>
<svg width="145px" height="98px" viewBox="0 0 145 98" version="1.1" xmlns="http://www.w3.org/2000/svg" xmlns:xlink="http://www.w3.org/1999/xlink" xmlns:sketch="http://www.bohemiancoding.com/sketch/ns">
    <!-- Generator: Sketch 3.0.3 (7891) - http://www.bohemiancoding.com/sketch -->
    <title>Containers</title>
    <desc>Created with Sketch.</desc>
    <defs></defs>
    <g id="Page-1" stroke="none" stroke-width="1" fill="none" fill-rule="evenodd" sketch:type="MSPage">
        <g id="Home" sketch:type="MSArtboardGroup" transform="translate(-235.000000, -1650.000000)">
            <g id="Containers" sketch:type="MSLayerGroup" transform="translate(235.000000, 1651.000000)">
                <g id="Group-27" transform="translate(96.132812, 71.138066)" sketch:type="MSShapeGroup">
                    <rect id="Rectangle-48" stroke="#2BA4EF" stroke-width="2" fill="#8DD4FF" x="0" y="0" width="24.8619343" height="24.8619343" rx="3"></rect>
                    <g id="data" transform="translate(5.386752, 4.143656)" fill="#2BA4EF">
                        <path d="M7.45858028,0 C3.86567561,0 0,1.05300651 0,3.36672027 L0,13.2079026 C0,15.5205804 3.86567561,16.5746228 7.45858028,16.5746228 C11.051485,16.5746228 14.9171606,15.5205804 14.9171606,13.2079026 L14.9171606,3.36672027 C14.9171606,1.05300651 11.0504194,0 7.45858028,0 L7.45858028,0 Z M13.8516491,13.2079026 C13.8516491,14.4945077 10.9891525,15.5387089 7.45858028,15.5387089 C3.92747527,15.5387089 1.06551147,14.4945077 1.06551147,13.2079026 L1.06551147,11.2728154 C2.16618482,12.3755457 4.8214394,12.9489241 7.45858028,12.9489241 C10.0957212,12.9489241 12.7509757,12.3755457 13.8516491,11.2728154 L13.8516491,13.2079026 L13.8516491,13.2079026 Z M13.8516491,10.1001608 L13.8495181,10.1001608 C13.8495181,10.1053404 13.8516491,10.1110379 13.8516491,10.1162175 C13.8516491,11.3950532 10.9891525,12.4309671 7.45858028,12.4309671 C3.92800803,12.4309671 1.06551147,11.3950532 1.06551147,10.1162175 C1.06551147,10.1110379 1.06764249,10.1053404 1.06764249,10.1001608 L1.06551147,10.1001608 L1.06551147,8.16507358 C2.16618482,9.26780396 4.8214394,9.84118231 7.45858028,9.84118231 C10.0957212,9.84118231 12.7509757,9.26780396 13.8516491,8.16507358 L13.8516491,10.1001608 L13.8516491,10.1001608 Z M13.8516491,6.99241901 L13.8495181,6.99241901 C13.8495181,6.99759858 13.8516491,7.00329611 13.8516491,7.00847568 C13.8516491,8.28731142 10.9891525,9.32322535 7.45858028,9.32322535 C3.92800803,9.32322535 1.06551147,8.28731142 1.06551147,7.00847568 C1.06551147,7.00329611 1.06764249,6.99759858 1.06764249,6.99241901 L1.06551147,6.99241901 L1.06551147,5.21271888 C2.46186425,6.24707894 5.0212228,6.73344053 7.45858028,6.73344053 C9.89593776,6.73344053 12.4552963,6.24707894 13.8516491,5.21271888 L13.8516491,6.99241901 L13.8516491,6.99241901 Z M7.45858028,5.6975266 C3.92747527,5.6975266 1.06551147,4.65332536 1.06551147,3.36672027 C1.06551147,2.07907925 3.92747527,1.03591393 7.45858028,1.03591393 C10.9891525,1.03591393 13.8516491,2.07907925 13.8516491,3.36672027 C13.8516491,4.65332536 10.9891525,5.6975266 7.45858028,5.6975266 L7.45858028,5.6975266 Z M11.7206262,13.4668811 C11.7206262,13.1809688 11.9593007,12.9489241 12.2533819,12.9489241 C12.5474631,12.9489241 12.7861376,13.1809688 12.7861376,13.4668811 C12.7861376,13.7527933 12.5474631,13.984838 12.2533819,13.984838 C11.9593007,13.984838 11.7206262,13.7527933 11.7206262,13.4668811 L11.7206262,13.4668811 Z M11.7206262,10.3591393 C11.7206262,10.073227 11.9593007,9.84118231 12.2533819,9.84118231 C12.5474631,9.84118231 12.7861376,10.073227 12.7861376,10.3591393 C12.7861376,10.6450515 12.5474631,10.8770962 12.2533819,10.8770962 C11.9593007,10.8770962 11.7206262,10.6450515 11.7206262,10.3591393 L11.7206262,10.3591393 Z M11.7206262,7.25139749 C11.7206262,6.96548525 11.9593007,6.73344053 12.2533819,6.73344053 C12.5474631,6.73344053 12.7861376,6.96548525 12.7861376,7.25139749 C12.7861376,7.53730974 12.5474631,7.76935446 12.2533819,7.76935446 C11.9593007,7.76935446 11.7206262,7.53730974 11.7206262,7.25139749 L11.7206262,7.25139749 Z" id="Shape"></path>
                    </g>
                </g>
                <g id="Group-28" transform="translate(96.132812, 47.104863)" sketch:type="MSShapeGroup">
                    <rect id="Rectangle-48" stroke="#2BA4EF" stroke-width="2" fill="#8DD4FF" x="0" y="0" width="24.8619343" height="24.8619343" rx="3"></rect>
                    <g id="data" transform="translate(5.386752, 4.143656)" fill="#2BA4EF">
                        <path d="M7.45858028,0 C3.86567561,0 0,1.05300651 0,3.36672027 L0,13.2079026 C0,15.5205804 3.86567561,16.5746228 7.45858028,16.5746228 C11.051485,16.5746228 14.9171606,15.5205804 14.9171606,13.2079026 L14.9171606,3.36672027 C14.9171606,1.05300651 11.0504194,0 7.45858028,0 L7.45858028,0 Z M13.8516491,13.2079026 C13.8516491,14.4945077 10.9891525,15.5387089 7.45858028,15.5387089 C3.92747527,15.5387089 1.06551147,14.4945077 1.06551147,13.2079026 L1.06551147,11.2728154 C2.16618482,12.3755457 4.8214394,12.9489241 7.45858028,12.9489241 C10.0957212,12.9489241 12.7509757,12.3755457 13.8516491,11.2728154 L13.8516491,13.2079026 L13.8516491,13.2079026 Z M13.8516491,10.1001608 L13.8495181,10.1001608 C13.8495181,10.1053404 13.8516491,10.1110379 13.8516491,10.1162175 C13.8516491,11.3950532 10.9891525,12.4309671 7.45858028,12.4309671 C3.92800803,12.4309671 1.06551147,11.3950532 1.06551147,10.1162175 C1.06551147,10.1110379 1.06764249,10.1053404 1.06764249,10.1001608 L1.06551147,10.1001608 L1.06551147,8.16507358 C2.16618482,9.26780396 4.8214394,9.84118231 7.45858028,9.84118231 C10.0957212,9.84118231 12.7509757,9.26780396 13.8516491,8.16507358 L13.8516491,10.1001608 L13.8516491,10.1001608 Z M13.8516491,6.99241901 L13.8495181,6.99241901 C13.8495181,6.99759858 13.8516491,7.00329611 13.8516491,7.00847568 C13.8516491,8.28731142 10.9891525,9.32322535 7.45858028,9.32322535 C3.92800803,9.32322535 1.06551147,8.28731142 1.06551147,7.00847568 C1.06551147,7.00329611 1.06764249,6.99759858 1.06764249,6.99241901 L1.06551147,6.99241901 L1.06551147,5.21271888 C2.46186425,6.24707894 5.0212228,6.73344053 7.45858028,6.73344053 C9.89593776,6.73344053 12.4552963,6.24707894 13.8516491,5.21271888 L13.8516491,6.99241901 L13.8516491,6.99241901 Z M7.45858028,5.6975266 C3.92747527,5.6975266 1.06551147,4.65332536 1.06551147,3.36672027 C1.06551147,2.07907925 3.92747527,1.03591393 7.45858028,1.03591393 C10.9891525,1.03591393 13.8516491,2.07907925 13.8516491,3.36672027 C13.8516491,4.65332536 10.9891525,5.6975266 7.45858028,5.6975266 L7.45858028,5.6975266 Z M11.7206262,13.4668811 C11.7206262,13.1809688 11.9593007,12.9489241 12.2533819,12.9489241 C12.5474631,12.9489241 12.7861376,13.1809688 12.7861376,13.4668811 C12.7861376,13.7527933 12.5474631,13.984838 12.2533819,13.984838 C11.9593007,13.984838 11.7206262,13.7527933 11.7206262,13.4668811 L11.7206262,13.4668811 Z M11.7206262,10.3591393 C11.7206262,10.073227 11.9593007,9.84118231 12.2533819,9.84118231 C12.5474631,9.84118231 12.7861376,10.073227 12.7861376,10.3591393 C12.7861376,10.6450515 12.5474631,10.8770962 12.2533819,10.8770962 C11.9593007,10.8770962 11.7206262,10.6450515 11.7206262,10.3591393 L11.7206262,10.3591393 Z M11.7206262,7.25139749 C11.7206262,6.96548525 11.9593007,6.73344053 12.2533819,6.73344053 C12.5474631,6.73344053 12.7861376,6.96548525 12.7861376,7.25139749 C12.7861376,7.53730974 12.5474631,7.76935446 12.2533819,7.76935446 C11.9593007,7.76935446 11.7206262,7.53730974 11.7206262,7.25139749 L11.7206262,7.25139749 Z" id="Shape"></path>
                    </g>
                </g>
                <g id="Group-29" transform="translate(119.337284, 71.138066)" sketch:type="MSShapeGroup">
                    <rect id="Rectangle-48" stroke="#2BA4EF" stroke-width="2" fill="#8DD4FF" x="0" y="0" width="24.8619343" height="24.8619343" rx="3"></rect>
                    <g id="data" transform="translate(5.386752, 4.143656)" fill="#2BA4EF">
                        <path d="M7.45858028,0 C3.86567561,0 0,1.05300651 0,3.36672027 L0,13.2079026 C0,15.5205804 3.86567561,16.5746228 7.45858028,16.5746228 C11.051485,16.5746228 14.9171606,15.5205804 14.9171606,13.2079026 L14.9171606,3.36672027 C14.9171606,1.05300651 11.0504194,0 7.45858028,0 L7.45858028,0 Z M13.8516491,13.2079026 C13.8516491,14.4945077 10.9891525,15.5387089 7.45858028,15.5387089 C3.92747527,15.5387089 1.06551147,14.4945077 1.06551147,13.2079026 L1.06551147,11.2728154 C2.16618482,12.3755457 4.8214394,12.9489241 7.45858028,12.9489241 C10.0957212,12.9489241 12.7509757,12.3755457 13.8516491,11.2728154 L13.8516491,13.2079026 L13.8516491,13.2079026 Z M13.8516491,10.1001608 L13.8495181,10.1001608 C13.8495181,10.1053404 13.8516491,10.1110379 13.8516491,10.1162175 C13.8516491,11.3950532 10.9891525,12.4309671 7.45858028,12.4309671 C3.92800803,12.4309671 1.06551147,11.3950532 1.06551147,10.1162175 C1.06551147,10.1110379 1.06764249,10.1053404 1.06764249,10.1001608 L1.06551147,10.1001608 L1.06551147,8.16507358 C2.16618482,9.26780396 4.8214394,9.84118231 7.45858028,9.84118231 C10.0957212,9.84118231 12.7509757,9.26780396 13.8516491,8.16507358 L13.8516491,10.1001608 L13.8516491,10.1001608 Z M13.8516491,6.99241901 L13.8495181,6.99241901 C13.8495181,6.99759858 13.8516491,7.00329611 13.8516491,7.00847568 C13.8516491,8.28731142 10.9891525,9.32322535 7.45858028,9.32322535 C3.92800803,9.32322535 1.06551147,8.28731142 1.06551147,7.00847568 C1.06551147,7.00329611 1.06764249,6.99759858 1.06764249,6.99241901 L1.06551147,6.99241901 L1.06551147,5.21271888 C2.46186425,6.24707894 5.0212228,6.73344053 7.45858028,6.73344053 C9.89593776,6.73344053 12.4552963,6.24707894 13.8516491,5.21271888 L13.8516491,6.99241901 L13.8516491,6.99241901 Z M7.45858028,5.6975266 C3.92747527,5.6975266 1.06551147,4.65332536 1.06551147,3.36672027 C1.06551147,2.07907925 3.92747527,1.03591393 7.45858028,1.03591393 C10.9891525,1.03591393 13.8516491,2.07907925 13.8516491,3.36672027 C13.8516491,4.65332536 10.9891525,5.6975266 7.45858028,5.6975266 L7.45858028,5.6975266 Z M11.7206262,13.4668811 C11.7206262,13.1809688 11.9593007,12.9489241 12.2533819,12.9489241 C12.5474631,12.9489241 12.7861376,13.1809688 12.7861376,13.4668811 C12.7861376,13.7527933 12.5474631,13.984838 12.2533819,13.984838 C11.9593007,13.984838 11.7206262,13.7527933 11.7206262,13.4668811 L11.7206262,13.4668811 Z M11.7206262,10.3591393 C11.7206262,10.073227 11.9593007,9.84118231 12.2533819,9.84118231 C12.5474631,9.84118231 12.7861376,10.073227 12.7861376,10.3591393 C12.7861376,10.6450515 12.5474631,10.8770962 12.2533819,10.8770962 C11.9593007,10.8770962 11.7206262,10.6450515 11.7206262,10.3591393 L11.7206262,10.3591393 Z M11.7206262,7.25139749 C11.7206262,6.96548525 11.9593007,6.73344053 12.2533819,6.73344053 C12.5474631,6.73344053 12.7861376,6.96548525 12.7861376,7.25139749 C12.7861376,7.53730974 12.5474631,7.76935446 12.2533819,7.76935446 C11.9593007,7.76935446 11.7206262,7.53730974 11.7206262,7.25139749 L11.7206262,7.25139749 Z" id="Shape"></path>
                    </g>
                </g>
                <g id="Group-30" transform="translate(48.066406, 47.104863)" sketch:type="MSShapeGroup">
                    <rect id="Rectangle-48" stroke="#2BA4EF" stroke-width="2" fill="#8DD4FF" x="0" y="0" width="24.8619343" height="24.8619343" rx="3"></rect>
                    <g id="data" transform="translate(5.386752, 4.143656)" fill="#2BA4EF">
                        <path d="M7.45858028,0 C3.86567561,0 0,1.05300651 0,3.36672027 L0,13.2079026 C0,15.5205804 3.86567561,16.5746228 7.45858028,16.5746228 C11.051485,16.5746228 14.9171606,15.5205804 14.9171606,13.2079026 L14.9171606,3.36672027 C14.9171606,1.05300651 11.0504194,0 7.45858028,0 L7.45858028,0 Z M13.8516491,13.2079026 C13.8516491,14.4945077 10.9891525,15.5387089 7.45858028,15.5387089 C3.92747527,15.5387089 1.06551147,14.4945077 1.06551147,13.2079026 L1.06551147,11.2728154 C2.16618482,12.3755457 4.8214394,12.9489241 7.45858028,12.9489241 C10.0957212,12.9489241 12.7509757,12.3755457 13.8516491,11.2728154 L13.8516491,13.2079026 L13.8516491,13.2079026 Z M13.8516491,10.1001608 L13.8495181,10.1001608 C13.8495181,10.1053404 13.8516491,10.1110379 13.8516491,10.1162175 C13.8516491,11.3950532 10.9891525,12.4309671 7.45858028,12.4309671 C3.92800803,12.4309671 1.06551147,11.3950532 1.06551147,10.1162175 C1.06551147,10.1110379 1.06764249,10.1053404 1.06764249,10.1001608 L1.06551147,10.1001608 L1.06551147,8.16507358 C2.16618482,9.26780396 4.8214394,9.84118231 7.45858028,9.84118231 C10.0957212,9.84118231 12.7509757,9.26780396 13.8516491,8.16507358 L13.8516491,10.1001608 L13.8516491,10.1001608 Z M13.8516491,6.99241901 L13.8495181,6.99241901 C13.8495181,6.99759858 13.8516491,7.00329611 13.8516491,7.00847568 C13.8516491,8.28731142 10.9891525,9.32322535 7.45858028,9.32322535 C3.92800803,9.32322535 1.06551147,8.28731142 1.06551147,7.00847568 C1.06551147,7.00329611 1.06764249,6.99759858 1.06764249,6.99241901 L1.06551147,6.99241901 L1.06551147,5.21271888 C2.46186425,6.24707894 5.0212228,6.73344053 7.45858028,6.73344053 C9.89593776,6.73344053 12.4552963,6.24707894 13.8516491,5.21271888 L13.8516491,6.99241901 L13.8516491,6.99241901 Z M7.45858028,5.6975266 C3.92747527,5.6975266 1.06551147,4.65332536 1.06551147,3.36672027 C1.06551147,2.07907925 3.92747527,1.03591393 7.45858028,1.03591393 C10.9891525,1.03591393 13.8516491,2.07907925 13.8516491,3.36672027 C13.8516491,4.65332536 10.9891525,5.6975266 7.45858028,5.6975266 L7.45858028,5.6975266 Z M11.7206262,13.4668811 C11.7206262,13.1809688 11.9593007,12.9489241 12.2533819,12.9489241 C12.5474631,12.9489241 12.7861376,13.1809688 12.7861376,13.4668811 C12.7861376,13.7527933 12.5474631,13.984838 12.2533819,13.984838 C11.9593007,13.984838 11.7206262,13.7527933 11.7206262,13.4668811 L11.7206262,13.4668811 Z M11.7206262,10.3591393 C11.7206262,10.073227 11.9593007,9.84118231 12.2533819,9.84118231 C12.5474631,9.84118231 12.7861376,10.073227 12.7861376,10.3591393 C12.7861376,10.6450515 12.5474631,10.8770962 12.2533819,10.8770962 C11.9593007,10.8770962 11.7206262,10.6450515 11.7206262,10.3591393 L11.7206262,10.3591393 Z M11.7206262,7.25139749 C11.7206262,6.96548525 11.9593007,6.73344053 12.2533819,6.73344053 C12.5474631,6.73344053 12.7861376,6.96548525 12.7861376,7.25139749 C12.7861376,7.53730974 12.5474631,7.76935446 12.2533819,7.76935446 C11.9593007,7.76935446 11.7206262,7.53730974 11.7206262,7.25139749 L11.7206262,7.25139749 Z" id="Shape"></path>
                    </g>
                </g>
                <g id="Group-31" transform="translate(24.033203, 23.071659)" sketch:type="MSShapeGroup">
                    <rect id="Rectangle-48" stroke="#2BA4EF" stroke-width="2" fill="#8DD4FF" x="0" y="0" width="24.8619343" height="24.8619343" rx="3"></rect>
                    <g id="data" transform="translate(5.386752, 4.143656)" fill="#2BA4EF">
                        <path d="M7.45858028,0 C3.86567561,0 0,1.05300651 0,3.36672027 L0,13.2079026 C0,15.5205804 3.86567561,16.5746228 7.45858028,16.5746228 C11.051485,16.5746228 14.9171606,15.5205804 14.9171606,13.2079026 L14.9171606,3.36672027 C14.9171606,1.05300651 11.0504194,0 7.45858028,0 L7.45858028,0 Z M13.8516491,13.2079026 C13.8516491,14.4945077 10.9891525,15.5387089 7.45858028,15.5387089 C3.92747527,15.5387089 1.06551147,14.4945077 1.06551147,13.2079026 L1.06551147,11.2728154 C2.16618482,12.3755457 4.8214394,12.9489241 7.45858028,12.9489241 C10.0957212,12.9489241 12.7509757,12.3755457 13.8516491,11.2728154 L13.8516491,13.2079026 L13.8516491,13.2079026 Z M13.8516491,10.1001608 L13.8495181,10.1001608 C13.8495181,10.1053404 13.8516491,10.1110379 13.8516491,10.1162175 C13.8516491,11.3950532 10.9891525,12.4309671 7.45858028,12.4309671 C3.92800803,12.4309671 1.06551147,11.3950532 1.06551147,10.1162175 C1.06551147,10.1110379 1.06764249,10.1053404 1.06764249,10.1001608 L1.06551147,10.1001608 L1.06551147,8.16507358 C2.16618482,9.26780396 4.8214394,9.84118231 7.45858028,9.84118231 C10.0957212,9.84118231 12.7509757,9.26780396 13.8516491,8.16507358 L13.8516491,10.1001608 L13.8516491,10.1001608 Z M13.8516491,6.99241901 L13.8495181,6.99241901 C13.8495181,6.99759858 13.8516491,7.00329611 13.8516491,7.00847568 C13.8516491,8.28731142 10.9891525,9.32322535 7.45858028,9.32322535 C3.92800803,9.32322535 1.06551147,8.28731142 1.06551147,7.00847568 C1.06551147,7.00329611 1.06764249,6.99759858 1.06764249,6.99241901 L1.06551147,6.99241901 L1.06551147,5.21271888 C2.46186425,6.24707894 5.0212228,6.73344053 7.45858028,6.73344053 C9.89593776,6.73344053 12.4552963,6.24707894 13.8516491,5.21271888 L13.8516491,6.99241901 L13.8516491,6.99241901 Z M7.45858028,5.6975266 C3.92747527,5.6975266 1.06551147,4.65332536 1.06551147,3.36672027 C1.06551147,2.07907925 3.92747527,1.03591393 7.45858028,1.03591393 C10.9891525,1.03591393 13.8516491,2.07907925 13.8516491,3.36672027 C13.8516491,4.65332536 10.9891525,5.6975266 7.45858028,5.6975266 L7.45858028,5.6975266 Z M11.7206262,13.4668811 C11.7206262,13.1809688 11.9593007,12.9489241 12.2533819,12.9489241 C12.5474631,12.9489241 12.7861376,13.1809688 12.7861376,13.4668811 C12.7861376,13.7527933 12.5474631,13.984838 12.2533819,13.984838 C11.9593007,13.984838 11.7206262,13.7527933 11.7206262,13.4668811 L11.7206262,13.4668811 Z M11.7206262,10.3591393 C11.7206262,10.073227 11.9593007,9.84118231 12.2533819,9.84118231 C12.5474631,9.84118231 12.7861376,10.073227 12.7861376,10.3591393 C12.7861376,10.6450515 12.5474631,10.8770962 12.2533819,10.8770962 C11.9593007,10.8770962 11.7206262,10.6450515 11.7206262,10.3591393 L11.7206262,10.3591393 Z M11.7206262,7.25139749 C11.7206262,6.96548525 11.9593007,6.73344053 12.2533819,6.73344053 C12.5474631,6.73344053 12.7861376,6.96548525 12.7861376,7.25139749 C12.7861376,7.53730974 12.5474631,7.76935446 12.2533819,7.76935446 C11.9593007,7.76935446 11.7206262,7.53730974 11.7206262,7.25139749 L11.7206262,7.25139749 Z" id="Shape"></path>
                    </g>
                </g>
                <g id="Group-32" transform="translate(0.000000, 71.138066)" sketch:type="MSShapeGroup">
                    <rect id="Rectangle-48" stroke="#2BA4EF" stroke-width="2" fill="#8DD4FF" x="0" y="0" width="24.8619343" height="24.8619343" rx="3"></rect>
                    <g id="data" transform="translate(3.729290, 4.143656)" fill="#2BA4EF">
                        <path d="M7.45858028,0 C3.86567561,0 0,1.05300651 0,3.36672027 L0,13.2079026 C0,15.5205804 3.86567561,16.5746228 7.45858028,16.5746228 C11.051485,16.5746228 14.9171606,15.5205804 14.9171606,13.2079026 L14.9171606,3.36672027 C14.9171606,1.05300651 11.0504194,0 7.45858028,0 L7.45858028,0 Z M13.8516491,13.2079026 C13.8516491,14.4945077 10.9891525,15.5387089 7.45858028,15.5387089 C3.92747527,15.5387089 1.06551147,14.4945077 1.06551147,13.2079026 L1.06551147,11.2728154 C2.16618482,12.3755457 4.8214394,12.9489241 7.45858028,12.9489241 C10.0957212,12.9489241 12.7509757,12.3755457 13.8516491,11.2728154 L13.8516491,13.2079026 L13.8516491,13.2079026 Z M13.8516491,10.1001608 L13.8495181,10.1001608 C13.8495181,10.1053404 13.8516491,10.1110379 13.8516491,10.1162175 C13.8516491,11.3950532 10.9891525,12.4309671 7.45858028,12.4309671 C3.92800803,12.4309671 1.06551147,11.3950532 1.06551147,10.1162175 C1.06551147,10.1110379 1.06764249,10.1053404 1.06764249,10.1001608 L1.06551147,10.1001608 L1.06551147,8.16507358 C2.16618482,9.26780396 4.8214394,9.84118231 7.45858028,9.84118231 C10.0957212,9.84118231 12.7509757,9.26780396 13.8516491,8.16507358 L13.8516491,10.1001608 L13.8516491,10.1001608 Z M13.8516491,6.99241901 L13.8495181,6.99241901 C13.8495181,6.99759858 13.8516491,7.00329611 13.8516491,7.00847568 C13.8516491,8.28731142 10.9891525,9.32322535 7.45858028,9.32322535 C3.92800803,9.32322535 1.06551147,8.28731142 1.06551147,7.00847568 C1.06551147,7.00329611 1.06764249,6.99759858 1.06764249,6.99241901 L1.06551147,6.99241901 L1.06551147,5.21271888 C2.46186425,6.24707894 5.0212228,6.73344053 7.45858028,6.73344053 C9.89593776,6.73344053 12.4552963,6.24707894 13.8516491,5.21271888 L13.8516491,6.99241901 L13.8516491,6.99241901 Z M7.45858028,5.6975266 C3.92747527,5.6975266 1.06551147,4.65332536 1.06551147,3.36672027 C1.06551147,2.07907925 3.92747527,1.03591393 7.45858028,1.03591393 C10.9891525,1.03591393 13.8516491,2.07907925 13.8516491,3.36672027 C13.8516491,4.65332536 10.9891525,5.6975266 7.45858028,5.6975266 L7.45858028,5.6975266 Z M11.7206262,13.4668811 C11.7206262,13.1809688 11.9593007,12.9489241 12.2533819,12.9489241 C12.5474631,12.9489241 12.7861376,13.1809688 12.7861376,13.4668811 C12.7861376,13.7527933 12.5474631,13.984838 12.2533819,13.984838 C11.9593007,13.984838 11.7206262,13.7527933 11.7206262,13.4668811 L11.7206262,13.4668811 Z M11.7206262,10.3591393 C11.7206262,10.073227 11.9593007,9.84118231 12.2533819,9.84118231 C12.5474631,9.84118231 12.7861376,10.073227 12.7861376,10.3591393 C12.7861376,10.6450515 12.5474631,10.8770962 12.2533819,10.8770962 C11.9593007,10.8770962 11.7206262,10.6450515 11.7206262,10.3591393 L11.7206262,10.3591393 Z M11.7206262,7.25139749 C11.7206262,6.96548525 11.9593007,6.73344053 12.2533819,6.73344053 C12.5474631,6.73344053 12.7861376,6.96548525 12.7861376,7.25139749 C12.7861376,7.53730974 12.5474631,7.76935446 12.2533819,7.76935446 C11.9593007,7.76935446 11.7206262,7.53730974 11.7206262,7.25139749 L11.7206262,7.25139749 Z" id="Shape"></path>
                    </g>
                </g>
                <g id="Group-21" transform="translate(48.066406, 71.138066)" stroke="#2BA4EF" sketch:type="MSShapeGroup">
                    <rect id="Rectangle-48" stroke-width="2" fill="#B6E3FF" x="0" y="0" width="24.8619343" height="24.8619343" rx="3"></rect>
                    <path d="M19.8895474,12.4260616 L16.1602573,19.0510052 L8.70167699,19.0510052 L4.97238685,12.4260616 L8.70167699,5.801118 L16.1602573,5.801118 L19.8895474,12.4260616 L19.8895474,12.4260616 Z" id="Shape" transform="translate(12.430967, 12.430967) rotate(-270.000000) translate(-12.430967, -12.430967) "></path>
                </g>
                <g id="Group-22" transform="translate(24.033203, 71.138066)" stroke="#2BA4EF" sketch:type="MSShapeGroup">
                    <rect id="Rectangle-48" stroke-width="2" fill="#B6E3FF" x="0" y="0" width="24.8619343" height="24.8619343" rx="3"></rect>
                    <path d="M19.8895474,12.4260616 L16.1602573,19.0510052 L8.70167699,19.0510052 L4.97238685,12.4260616 L8.70167699,5.801118 L16.1602573,5.801118 L19.8895474,12.4260616 L19.8895474,12.4260616 Z" id="Shape" transform="translate(12.430967, 12.430967) rotate(-270.000000) translate(-12.430967, -12.430967) "></path>
                </g>
                <g id="Group-23" transform="translate(24.033203, 47.104863)" stroke="#2BA4EF" sketch:type="MSShapeGroup">
                    <rect id="Rectangle-48" stroke-width="2" fill="#B6E3FF" x="0" y="0" width="24.8619343" height="24.8619343" rx="3"></rect>
                    <path d="M19.8895474,12.4260616 L16.1602573,19.0510052 L8.70167699,19.0510052 L4.97238685,12.4260616 L8.70167699,5.801118 L16.1602573,5.801118 L19.8895474,12.4260616 L19.8895474,12.4260616 Z" id="Shape" transform="translate(12.430967, 12.430967) rotate(-270.000000) translate(-12.430967, -12.430967) "></path>
                </g>
                <g id="Group-24" transform="translate(48.066406, 23.071659)" stroke="#2BA4EF" sketch:type="MSShapeGroup">
                    <rect id="Rectangle-48" stroke-width="2" fill="#B6E3FF" x="0" y="0" width="24.8619343" height="24.8619343" rx="3"></rect>
                    <path d="M19.8895474,12.4260616 L16.1602573,19.0510052 L8.70167699,19.0510052 L4.97238685,12.4260616 L8.70167699,5.801118 L16.1602573,5.801118 L19.8895474,12.4260616 L19.8895474,12.4260616 Z" id="Shape" transform="translate(12.430967, 12.430967) rotate(-270.000000) translate(-12.430967, -12.430967) "></path>
                </g>
                <g id="Group-25" transform="translate(48.066406, -0.132812)" stroke="#2BA4EF" sketch:type="MSShapeGroup">
                    <rect id="Rectangle-48" stroke-width="2" fill="#B6E3FF" x="0" y="0" width="24.8619343" height="24.8619343" rx="3"></rect>
                    <path d="M19.8895474,12.4260616 L16.1602573,19.0510052 L8.70167699,19.0510052 L4.97238685,12.4260616 L8.70167699,5.801118 L16.1602573,5.801118 L19.8895474,12.4260616 L19.8895474,12.4260616 Z" id="Shape" transform="translate(12.430967, 12.430967) rotate(-270.000000) translate(-12.430967, -12.430967) "></path>
                </g>
                <g id="Group-26" transform="translate(84.530577, 9.811961)" stroke="#2BA4EF" sketch:type="MSShapeGroup">
                    <rect id="Rectangle-48" stroke-width="2" fill="#B6E3FF" x="0" y="0" width="24.8619343" height="24.8619343" rx="3"></rect>
                    <path d="M19.8895474,12.4260616 L16.1602573,19.0510052 L8.70167699,19.0510052 L4.97238685,12.4260616 L8.70167699,5.801118 L16.1602573,5.801118 L19.8895474,12.4260616 L19.8895474,12.4260616 Z" id="Shape" transform="translate(12.430967, 12.430967) rotate(-270.000000) translate(-12.430967, -12.430967) "></path>
                </g>
                <g id="Group-20" transform="translate(72.099609, 47.104863)" stroke="#2BA4EF" sketch:type="MSShapeGroup">
                    <rect id="Rectangle-48" stroke-width="2" fill="#B6E3FF" x="0" y="0" width="24.8619343" height="24.8619343" rx="3"></rect>
                    <path d="M19.8895474,12.4260616 L16.1602573,19.0510052 L8.70167699,19.0510052 L4.97238685,12.4260616 L8.70167699,5.801118 L16.1602573,5.801118 L19.8895474,12.4260616 L19.8895474,12.4260616 Z" id="Shape" transform="translate(12.430967, 12.430967) rotate(-270.000000) translate(-12.430967, -12.430967) "></path>
                </g>
                <g id="Group-19" transform="translate(72.099609, 71.138066)" stroke="#2BA4EF" sketch:type="MSShapeGroup">
                    <rect id="Rectangle-48" stroke-width="2" fill="#B6E3FF" x="0" y="0" width="24.8619343" height="24.8619343" rx="3"></rect>
                    <path d="M19.8895474,12.4260616 L16.1602573,19.0510052 L8.70167699,19.0510052 L4.97238685,12.4260616 L8.70167699,5.801118 L16.1602573,5.801118 L19.8895474,12.4260616 L19.8895474,12.4260616 Z" id="Shape" transform="translate(12.430967, 12.430967) rotate(-270.000000) translate(-12.430967, -12.430967) "></path>
                </g>
            </g>
        </g>
    </g>
</svg>