<?xml version="1.0" encoding="UTF-8" standalone="no"?>
<svg width="82px" height="76px" viewBox="0 0 82 76" version="1.1" xmlns="http://www.w3.org/2000/svg" xmlns:xlink="http://www.w3.org/1999/xlink" xmlns:sketch="http://www.bohemiancoding.com/sketch/ns">
    <!-- Generator: Sketch 3.0.3 (7891) - http://www.bohemiancoding.com/sketch -->
    <title>HIPAA + check_1_</title>
    <desc>Created with Sketch.</desc>
    <defs></defs>
    <g id="Page-1" stroke="none" stroke-width="1" fill="none" fill-rule="evenodd" sketch:type="MSPage">
        <g id="Home" sketch:type="MSArtboardGroup" transform="translate(-1043.000000, -1647.000000)">
            <g id="HIPAA-+-check_1_" sketch:type="MSLayerGroup" transform="translate(1014.000000, 1637.000000)">
                <rect id="Rectangle-46" sketch:type="MSShapeGroup" x="0" y="0" width="139" height="107"></rect>
                <text id="HIPAA" sketch:type="MSTextLayer" font-family="Proxima Nova" font-size="30" font-weight="normal" fill="#2BA4EF">
                    <tspan x="27" y="86">HIPAA</tspan>
                </text>
                <g id="check_1_" transform="translate(47.000000, 11.000000)" sketch:type="MSShapeGroup">
                    <path d="M32,24.6 L32,30 C32,31.1 31.1,32 30,32 L6,32 C4.9,32 4,31.1 4,30 L4,6 C4,4.9 4.9,4 6,4 L27.3,4 L30.8,0.5 C29.9,0.2 29,0 28,0 L8,0 C3.6,0 0,3.6 0,8 L0,28 C0,32.4 3.6,36 8,36 L28,36 C32.4,36 36,32.4 36,28 L36,20.6 L32,24.6 L32,24.6 Z" id="Shape" fill="#AAAAAA"></path>
                    <path d="M43.8,4.9 C44.2,5.3 44.2,5.9 43.8,6.3 L21.8,28.3 C21.4,28.7 20.8,28.7 20.4,28.3 L8.6,16.5 C8.2,16.1 8.2,15.5 8.6,15.1 L13.3,10.4 C13.7,10 14.3,10 14.7,10.4 L20.4,16.1 C20.8,16.5 21.4,16.5 21.8,16.1 L37.7,0.2 C38.1,-0.2 38.7,-0.2 39.1,0.2 L43.8,4.9 L43.8,4.9 Z" id="Shape" fill="#2BA4EF"></path>
                </g>
            </g>
        </g>
    </g>
</svg>