<?xml version="1.0" encoding="UTF-8" standalone="no"?>
<svg width="128px" height="128px" viewBox="0 0 128 128" version="1.1" xmlns="http://www.w3.org/2000/svg" xmlns:xlink="http://www.w3.org/1999/xlink" xmlns:sketch="http://www.bohemiancoding.com/sketch/ns">
    <!-- Generator: Sketch 3.0.3 (7891) - http://www.bohemiancoding.com/sketch -->
    <title>processor</title>
    <desc>Created with Sketch.</desc>
    <defs></defs>
    <g id="Pricing" stroke="none" stroke-width="1" fill="none" fill-rule="evenodd" sketch:type="MSPage">
        <g id="3-Pricing-2" sketch:type="MSArtboardGroup" transform="translate(-456.000000, -605.000000)">
            <g id="Plans" sketch:type="MSLayerGroup" transform="translate(331.000000, 413.000000)">
                <g id="Prod" transform="translate(10.000000, 11.000000)" sketch:type="MSShapeGroup">
                    <g id="Ops" transform="translate(44.000000, 181.000000)">
                        <g id="processor" transform="translate(71.000000, 0.000000)">
                            <path d="M64,0 C28.66,0 0,28.65 0,64 C0,85.85 10.95,105.14 27.67,116.69 C27.75,116.746 27.833,116.796 27.913,116.851 C27.991,116.687 28.082,116.523 28.17,116.359 L28.17,108.331 L82.003,108.331 L82.003,108.664 L100.17,108.664 L100.17,115.51 C100.344,115.826 100.5,116.152 100.635,116.484 L100.67,116.461 C108.529,110.951 115.09,103.732 119.811,95.331 C120.911,93.391 121.901,91.391 122.79,89.331 C126.141,81.561 128,73 128,64 C128,28.65 99.35,0 64,0 L64,0 Z" id="Shape" fill="#F5F5F5"></path>
                            <path d="M56.801,31.84 C55.572,31.841 54.771,31.187 54.379,30.33 L27.67,30.33 L27.67,116.69 C37.99,123.82 50.51,128 64,128 C64.11,128 64.219,127.994 64.33,127.994 C64.335,127.969 64.346,127.943 64.351,127.918 L64.351,31.843 C61.834,31.834 59.318,31.838 56.801,31.84 L56.801,31.84 Z" id="Shape" fill="#686868"></path>
                            <path d="M73.523,30.33 C73.158,31.246 72.336,31.952 71.04,31.922 C68.723,31.867 66.405,31.848 64.088,31.84 L64.088,127.998 C77.704,127.98 90.313,123.715 100.67,116.46 L100.67,30.33 L73.523,30.33 L73.523,30.33 Z" id="Shape" fill="#545454"></path>
                            <rect id="Rectangle-path" fill="#545454" x="28" y="55" width="72.3989258" height="2"></rect>
                            <rect id="Rectangle-path" fill="#545454" x="28" y="80" width="72.3989258" height="2"></rect>
                            <rect id="Rectangle-path" fill="#545454" x="28" y="105" width="72.3989258" height="2"></rect>
                            <path d="M73.524,30.33 C73.484,35.635 69.17,39.924 63.85,39.924 C58.529,39.924 54.216,35.635 54.176,30.33 L73.524,30.33 L73.524,30.33 Z" id="Shape" fill="#2BA4EF"></path>
                            <circle id="Oval" fill="#2BA4EF" cx="90.107" cy="40.107" r="2.107"></circle>
                            <g id="lock" transform="translate(52.000000, 67.000000)" fill="#2BA4EF">
                                <path d="M22,14 L20,14 L20,8 C20,3.582 16.418,0 12,0 C7.582,0 4,3.582 4,8 L4,14 L2,14 C0.9,14 0,14.9 0,16 L0,30 C0,31.1 0.9,32 2,32 L22,32 C23.1,32 24,31.1 24,30 L24,16 C24,14.9 23.1,14 22,14 L22,14 Z M12,26 C10.895,26 10,25.105 10,24 C10,22.895 10.895,22 12,22 C13.105,22 14,22.895 14,24 C14,25.105 13.105,26 12,26 L12,26 Z M16,14 L8,14 L8,8 C8,5.794 9.794,4 12,4 C14.206,4 16,5.794 16,8 L16,14 L16,14 Z" id="Shape"></path>
                            </g>
                        </g>
                    </g>
                </g>
            </g>
        </g>
    </g>
</svg>