<?xml version="1.0" encoding="UTF-8" standalone="no"?>
<svg width="188px" height="82px" viewBox="0 0 188 82" version="1.1" xmlns="http://www.w3.org/2000/svg" xmlns:xlink="http://www.w3.org/1999/xlink" xmlns:sketch="http://www.bohemiancoding.com/sketch/ns">
    <!-- Generator: Sketch 3.0.3 (7891) - http://www.bohemiancoding.com/sketch -->
    <title>Workflow</title>
    <desc>Created with Sketch.</desc>
    <defs></defs>
    <g id="Page-1" stroke="none" stroke-width="1" fill="none" fill-rule="evenodd" sketch:type="MSPage">
        <g id="Home" sketch:type="MSArtboardGroup" transform="translate(-611.000000, -1655.000000)">
            <g id="Workflow" sketch:type="MSLayerGroup" transform="translate(614.500000, 1646.000000)">
                <path d="M90.7639617,22.1006414 C90.7639617,22.1006414 53.6037334,22.1006417 53.6037334,22.1006414 C53.6037334,22.1006411 42.4655315,41.4114543 42.4655315,41.4114543 C42.3190396,41.4114543 39.0753945,41.4621358 39.0753945,41.4621358 C39.0753945,41.3400592 51.8600586,19.1708024 51.8600586,19.1708025 C51.8600586,19.1708027 90.7639617,19.1708027 90.7639617,19.1708027 L90.7639617,16.6316091 C90.7639617,16.4851172 90.861623,16.4607018 90.9592843,16.5339478 L96.0620867,20.4648147 C96.159748,20.5380607 96.159748,20.6845527 96.0620867,20.7577986 L90.9836996,24.6886656 C90.861623,24.8107422 90.7639617,24.7619115 90.7639617,24.6398349 L90.7639617,22.1006414 Z" id="Shape-4" fill="#E09006" sketch:type="MSShapeGroup"></path>
                <path d="M56.7639617,65.1006414 C56.7639617,65.1006414 52.6037334,65.1006417 52.6037334,65.1006414 C52.6037334,65.1006411 41.4655315,84.4114543 41.4655315,84.4114543 C41.3190396,84.4114543 38.0753945,84.4621358 38.0753945,84.4621358 C38.0753945,84.3400592 50.8600586,62.1708024 50.8600586,62.1708025 C50.8600586,62.1708027 56.7639617,62.1708027 56.7639617,62.1708027 L56.7639617,59.6316091 C56.7639617,59.4851172 56.861623,59.4607018 56.9592843,59.5339478 L62.0620867,63.4648147 C62.159748,63.5380607 62.159748,63.6845527 62.0620867,63.7577986 L56.9836996,67.6886656 C56.861623,67.8107422 56.7639617,67.7619115 56.7639617,67.6398349 L56.7639617,65.1006414 Z" id="Shape-7" fill="#23BF2D" sketch:type="MSShapeGroup" transform="translate(50.369708, 71.993952) scale(1, -1) translate(-50.369708, -71.993952) "></path>
                <path d="M103.286965,71.3663087 C103.286965,71.3663087 86.6004568,71.0624614 86.6004568,71.0624611 C86.6004568,71.0624608 81.9622549,79.1149438 81.9622549,79.1149438 C81.815763,79.1149438 78.5721179,79.1656253 78.5721179,79.1656253 C78.5721179,79.0435487 84.856782,68.1326221 84.856782,68.1326223 C84.856782,68.1326224 103.286965,68.43647 103.286965,68.43647 L103.286965,65.8972764 C103.286965,65.7507845 103.384626,65.7263692 103.482287,65.7996151 L108.58509,69.7304821 C108.682751,69.803728 108.682751,69.95022 108.58509,70.023466 L103.506702,73.9543329 C103.384626,74.0764095 103.286965,74.0275789 103.286965,73.9055022 L103.286965,71.3663087 Z" id="Shape-8" fill="#23BF2D" sketch:type="MSShapeGroup" transform="translate(93.366431, 72.455771) scale(1, -1) rotate(-300.000000) translate(-93.366431, -72.455771) "></path>
                <path d="M157.891804,14.5844444 C157.891804,14.5844444 141.320033,14.9241907 141.320033,14.9241904 C141.320033,14.9241901 122.681832,47.2253844 122.681832,47.2253844 C122.53534,47.2253844 119.291695,47.2760659 119.291695,47.2760659 C119.291695,47.1539893 139.576359,11.9943514 139.576359,11.9943516 C139.576359,11.9943517 157.891804,11.6546057 157.891804,11.6546057 L157.891804,9.11541218 C157.891804,8.96892024 157.989466,8.94450492 158.087127,9.01775089 L163.189929,12.9486178 C163.287591,13.0218638 163.287591,13.1683557 163.189929,13.2416017 L158.111542,17.1724686 C157.989466,17.2945452 157.891804,17.2457146 157.891804,17.123638 L157.891804,14.5844444 Z" id="Shape-5" fill="#E09006" sketch:type="MSShapeGroup" transform="translate(141.086008, 28.441856) rotate(-300.000000) translate(-141.086008, -28.441856) "></path>
                <path d="M24.2322077,52.3149947 L17.6400706,52.3149947 C17.4935786,52.3149947 17.3959173,52.1929181 17.3959173,52.0708414 L17.3959173,49.6293092 C17.3959173,49.5072326 17.517994,49.385156 17.6400706,49.385156 L24.2322077,49.385156 L24.2322077,46.8459624 C24.2322077,46.6994705 24.329869,46.6750552 24.4275302,46.7483011 L29.5303327,50.6791681 C29.627994,50.752414 29.627994,50.898906 29.5303327,50.9721519 L24.4519456,54.9030189 C24.329869,55.0250955 24.2322077,54.9762648 24.2322077,54.8541882 L24.2322077,52.3149947 Z" id="Shape" fill="#2BA4EF" sketch:type="MSShapeGroup"></path>
                <path d="M57.1928931,52.0797873 L50.600756,52.0797873 C50.4542641,52.0797873 50.3566028,51.9577107 50.3566028,51.8356341 L50.3566028,49.3941018 C50.3566028,49.2720252 50.4786794,49.1499486 50.600756,49.1499486 L57.1928931,49.1499486 L57.1928931,46.6107551 C57.1928931,46.4642631 57.2905544,46.4398478 57.3882157,46.5130938 L62.4910181,50.4439607 C62.5886794,50.5172067 62.5886794,50.6636986 62.4910181,50.7369446 L57.412631,54.6678115 C57.2905544,54.7898881 57.1928931,54.7410575 57.1928931,54.6189809 L57.1928931,52.0797873 Z" id="Shape-2" fill="#2BA4EF" sketch:type="MSShapeGroup"></path>
                <path d="M90.1535786,52.0797873 L83.5614415,52.0797873 C83.4149496,52.0797873 83.3172883,51.9577107 83.3172883,51.8356341 L83.3172883,49.3941018 C83.3172883,49.2720252 83.4393649,49.1499486 83.5614415,49.1499486 L90.1535786,49.1499486 L90.1535786,46.6107551 C90.1535786,46.4642631 90.2512399,46.4398478 90.3489012,46.5130938 L95.4517036,50.4439607 C95.5493649,50.5172067 95.5493649,50.6636986 95.4517036,50.7369446 L90.3733165,54.6678115 C90.2512399,54.7898881 90.1535786,54.7410575 90.1535786,54.6189809 L90.1535786,52.0797873 Z" id="Shape-3" fill="#2BA4EF" sketch:type="MSShapeGroup"></path>
                <path d="M155.153579,52.0797873 L116.561442,52.0797873 C116.41495,52.0797873 116.317288,51.9577107 116.317288,51.8356341 L116.317288,49.3941018 C116.317288,49.2720252 116.439365,49.1499486 116.561442,49.1499486 L155.153579,49.1499486 L155.153579,46.6107551 C155.153579,46.4642631 155.25124,46.4398478 155.348901,46.5130938 L160.451704,50.4439607 C160.549365,50.5172067 160.549365,50.6636986 160.451704,50.7369446 L155.373317,54.6678115 C155.25124,54.7898881 155.153579,54.7410575 155.153579,54.6189809 L155.153579,52.0797873 Z" id="Shape-6" fill="#2BA4EF" sketch:type="MSShapeGroup"></path>
                <ellipse id="Oval-15" stroke="#2BA4EF" stroke-width="3" fill="#FFFFFF" sketch:type="MSShapeGroup" cx="7.32459677" cy="50.6754032" rx="7.32459677" ry="7.32459677"></ellipse>
                <ellipse id="Oval-16" stroke="#2BA4EF" stroke-width="3" fill="#FFFFFF" sketch:type="MSShapeGroup" cx="40.2852823" cy="50.6754032" rx="7.32459677" ry="7.32459677"></ellipse>
                <ellipse id="Oval-17" stroke="#2BA4EF" stroke-width="3" fill="#FFFFFF" sketch:type="MSShapeGroup" cx="73.2459677" cy="50.6754032" rx="7.32459677" ry="7.32459677"></ellipse>
                <ellipse id="Oval-18" stroke="#2BA4EF" stroke-width="3" fill="#FFFFFF" sketch:type="MSShapeGroup" cx="106.206653" cy="50.6754032" rx="7.32459677" ry="7.32459677"></ellipse>
                <ellipse id="Oval-20" stroke="#23BF2D" stroke-width="3" fill="#FFFFFF" sketch:type="MSShapeGroup" cx="73.2066532" cy="80.6754032" rx="7.32459677" ry="7.32459677"></ellipse>
                <ellipse id="Oval-21" stroke="#2BA4EF" stroke-width="3" fill="#FFFFFF" sketch:type="MSShapeGroup" cx="172.206653" cy="50.6754032" rx="7.32459677" ry="7.32459677"></ellipse>
                <ellipse id="Oval-19" stroke="#E09006" stroke-width="3" fill="#FFFFFF" sketch:type="MSShapeGroup" cx="106.206653" cy="20.15625" rx="7.32459677" ry="7.32459677"></ellipse>
            </g>
        </g>
    </g>
</svg>