<?xml version="1.0" encoding="UTF-8" standalone="no"?>
<svg width="372px" height="257px" viewBox="0 0 372 257" version="1.1" xmlns="http://www.w3.org/2000/svg" xmlns:xlink="http://www.w3.org/1999/xlink">
    <!-- Generator: Sketch 47.1 (45422) - http://www.bohemiancoding.com/sketch -->
    <title>Dark</title>
    <desc>Created with Sketch.</desc>
    <defs></defs>
    <g id="Vector" stroke="none" stroke-width="1" fill="none" fill-rule="evenodd">
        <g id="Dark" fill="#273143">
            <g id="Aptible" transform="translate(37.000000, 90.000000)">
                <path d="M108.864059,43.0601129 C102.599552,43.0601129 97.7452551,44.5416828 97.7452551,49.083943 C97.7452551,52.1382626 99.7807223,53.6250087 102.443039,53.6250087 C105.340324,53.6250087 107.845728,51.6688267 108.629887,49.2404217 C108.785604,48.6149053 108.864059,47.9113487 108.864059,47.2058013 L108.864059,43.0601129 L108.864059,43.0601129 Z M120.373549,51.9013548 C120.373549,55.5039468 120.529664,59.0257115 121,61.1395666 L110.272279,61.1395666 L109.568966,57.303252 L109.334395,57.303252 C106.828592,60.3595624 102.912976,62 98.3717059,62 C90.6201243,62 86,56.3655747 86,50.2589263 C86,40.3155652 94.9272222,35.6204099 108.471383,35.6204099 L108.471383,35.1501777 C108.471383,33.1163536 107.375791,30.2181145 101.503562,30.2181145 C97.5883437,30.2181145 93.4389536,31.5479838 90.9319558,33.0383134 L88.7407719,25.4441226 C91.4026899,23.9573765 96.6484684,22 103.617484,22 C116.380672,22 120.373549,29.5153542 120.373549,38.5142692 L120.373549,51.9013548 L120.373549,51.9013548 Z" id="Fill-1"></path>
                <path d="M134.307198,44.8519377 C134.307198,45.7978226 134.386255,46.5845904 134.543567,47.3725606 C135.333333,50.6037996 138.093905,53.0454651 141.565588,53.0454651 C146.773313,53.0454651 149.851317,48.7108274 149.851317,42.1709953 C149.851317,36.0247475 147.088738,31.3746812 141.724103,31.3746812 C138.331076,31.3746812 135.333333,33.8973081 134.543567,37.4463804 C134.386255,38.072428 134.307198,38.862803 134.307198,39.5718158 L134.307198,44.8519377 Z M122.315024,35.7906811 C122.315024,30.7454273 122.15691,26.49135 122,22.866126 L132.415049,22.866126 L132.965237,28.2256059 L133.123752,28.2256059 C135.964184,24.2063967 140.382945,22 145.98475,22 C154.426988,22 162,29.3286039 162,41.6206987 C162,55.645847 153.085026,62.2646364 144.48628,62.2646364 C139.830349,62.2646364 136.20015,60.3744699 134.464911,57.8534461 L134.307198,57.8534461 L134.307198,77 L122.315024,77 L122.315024,35.7906811 Z" id="Fill-3"></path>
                <path d="M179.562736,11 L179.562736,21.5055083 L188,21.5055083 L188,30.3533094 L179.562736,30.3533094 L179.562736,44.4132858 C179.562736,49.074633 180.723687,51.2052246 184.206932,51.2052246 C185.83242,51.2052246 186.606781,51.1260757 187.68939,50.8902362 L187.768519,59.9726715 C186.296564,60.5267138 183.433359,61 180.182382,61 C176.389314,61 173.216286,59.6572813 171.280974,57.6845857 C169.114182,55.3948927 168.030785,51.680118 168.030785,46.2276836 L168.030785,30.3533094 L163,30.3533094 L163,21.5055083 L168.030785,21.5055083 L168.030785,14.2386761 L179.562736,11 Z" id="Fill-5"></path>
                <polygon id="Fill-7" points="191 61 203 61 203 22 191 22"></polygon>
                <path d="M217.307418,43.6082045 C217.307418,44.4039736 217.385668,45.1149145 217.544979,45.7539534 C218.332702,48.9317784 221.093945,51.4725842 224.565062,51.4725842 C229.694691,51.4725842 232.849997,47.5010099 232.849997,40.513188 C232.849997,34.4770575 230.167405,29.7113299 224.565062,29.7113299 C221.330302,29.7113299 218.332702,32.1737706 217.544979,35.6678835 C217.385668,36.3804401 217.307418,37.0958244 217.307418,37.8919974 L217.307418,43.6082045 Z M205.315009,14.6430185 L217.307418,7 L217.307418,25.8976975 L217.465123,25.8976975 C219.752047,22.5623345 223.776537,20.4194132 229.142122,20.4194132 C238.371682,20.4194132 245.078362,28.1205996 244.999308,40.0337069 C244.999308,54.0146018 236.24166,61 227.406162,61 C222.908156,61 218.489203,59.335752 215.807414,54.7259466 L215.650511,54.7259466 L215.176192,60.1270777 L205,60.1270777 C205.158508,57.5862719 205.315009,52.9029488 205.315009,48.5314702 L205.315009,14.6430185 Z" id="Fill-9"></path>
                <polygon id="Fill-10" points="246 60 258 60 258 4 246 4"></polygon>
                <path d="M286.083284,37.6556015 C286.083284,34.8390982 284.84367,29.9060369 279.502855,29.9060369 C274.47155,29.9060369 272.45698,34.5245608 272.149439,37.6556015 L286.083284,37.6556015 Z M272.225832,45.7957498 C272.61331,50.8076445 277.411892,53.1543324 282.909037,53.1543324 C286.934633,53.1543324 290.188029,52.6056836 293.361095,51.5091823 L294.909431,59.5728861 C291.037803,61.2168417 286.317188,62 281.205552,62 C268.354204,62 261,54.4833524 261,42.4305977 C261,32.7217439 267.038984,22 280.121874,22 C292.35381,22 297,31.6260389 297,41.0987906 C297,43.1381078 296.766883,44.9349525 296.612916,45.8749813 L272.225832,45.7957498 Z" id="Fill-11"></path>
                <path d="M197.385886,19 C193.50805,19 191,16.3314192 191,12.9981972 C191,9.59125964 193.584538,7 197.539272,7 C201.492361,7 203.925157,9.59125964 204,12.9981972 C204,16.3314192 201.492361,19 197.462784,19 L197.385886,19 Z" id="Fill-12"></path>
                <path d="M74.7665864,41.3555908 C76.8387176,44.2540982 77.9980156,47.8072235 78,51.5246043 C78,53.199609 77.7630603,54.9090674 77.268146,56.5996964 C76.1536959,60.4172329 73.8878854,63.5925708 70.9850761,65.8040097 C68.0826638,68.018253 64.5329337,69.2826192 60.8399286,69.2838211 C59.3341508,69.2838211 57.8069414,69.0722921 56.2983855,68.6332093 L56.299973,68.6332093 C54.8477747,68.2097508 53.5078944,67.5827758 52.2791417,66.8171853 C49.0373936,70.7016259 44.2112847,72.9987981 39.0930693,73 C37.4983896,73 35.8775155,72.7792567 34.2748981,72.3097266 C32.0138502,71.6494999 29.9814075,70.560206 28.2557561,69.1560224 C27.1512281,68.2566237 26.1891814,67.2214139 25.3493749,66.098067 C22.6446108,68.1168063 19.336583,69.2710012 15.8745643,69.2734049 C14.4029186,69.2734049 12.9058724,69.0662828 11.4258921,68.6332093 C7.97379548,67.627245 5.10670581,65.5323874 3.11831721,62.8381977 C1.12715042,60.1432068 0.00158753581,56.8408714 0,53.3927093 C0,51.9172148 0.209554727,50.4148786 0.641364467,48.9317723 C1.55578509,45.8021054 3.358432,43.1539874 5.68377508,41.2109659 C6.32196447,40.6761342 6.5414413,40.4886426 7.25305423,40.0615785 C5.65758074,59.2958892 22.6997776,54.8962474 23.1522253,54.6574761 C23.2137424,54.9194836 25.089019,59.9925726 28.4788049,59.700919 C33.0933746,59.3055041 33.1818797,53.5225112 33.1929925,53.505685 C33.1929925,53.505685 33.3457928,53.4880576 33.5307407,53.4668246 C53.317787,54.2440332 49.8744218,38.2735981 49.6358946,37.2680343 C50.1899446,37.2167546 50.7590762,37.1498506 51.3472582,37.0496948 C52.5355287,36.8461783 53.6841109,36.5368974 54.7810981,36.1010196 C56.4245946,35.4500072 57.9529947,34.4969251 59.2353267,33.2245464 C59.7381787,32.7253702 60.1878482,32.1689049 60.6041795,31.5819922 C61.0260671,30.9894707 61.4070757,30.3644989 61.7333143,29.6946572 C61.9111183,29.332494 62.0809847,28.9647221 62.2286255,28.5801241 L62.2298162,28.574916 C62.3667411,28.2247715 62.4786624,27.8678164 62.5866148,27.5116625 C62.9295226,27.9635653 63.266477,28.4246823 63.5839842,28.9118399 C64.5170584,30.3352534 65.3326549,31.8880681 65.9347279,33.4476935 C66.1768271,34.0686591 66.3776503,34.693631 66.5427541,35.3133947 C69.9575436,36.4275273 72.7908981,38.5908915 74.7665864,41.3555908 Z M53.4730083,14.1844578 C62.0262544,16.4207354 63.0899034,33.2416931 43.8969923,34.0341254 C44.0672555,34.2805085 44.1799706,34.4571833 44.3022108,34.6310537 C46.7426503,38.1156725 46.6164412,43.8197427 42.4670195,46.734275 C40.5353853,48.0919863 38.344189,48.7930766 35.9823326,49.0346522 C35.108791,49.1263949 34.2213585,49.0955469 33.3525795,49.2009108 C30.9585755,49.4837506 29.7560171,50.890338 29.6929126,53.4903812 C29.6754497,54.121763 29.4309692,54.8364745 28.9912217,55.0315779 C28.9912217,55.0315779 27.0710972,55.8540569 26.8131226,52.0962132 C26.6190464,49.2778304 27.1044354,47.1012457 29.4936768,45.4951481 C30.8823738,44.5588921 32.3893421,43.7636555 33.8935323,42.9940587 C36.0073362,41.9143797 36.7963415,40.2293594 36.1121136,38.0251317 C35.6620472,36.5696683 34.4805237,35.044096 33.1104803,34.1791509 C33.0346754,34.3297852 32.9358513,34.4688013 32.8838595,34.6230412 C31.8483893,37.6862046 29.6329831,39.6107975 26.466246,40.5238173 C24.8564847,40.9873381 23.1887784,41.2673736 21.5488539,41.6247293 C20.6245111,41.8286464 20.0137067,42.3662825 19.8370934,43.2496562 C19.66048,44.1366355 20.0526014,44.8569556 20.7650081,45.4062098 C21.5635386,46.0247717 22.3846915,45.8933673 22.9490605,45.0696864 C23.2149727,44.6850884 23.4360371,44.2672386 23.7094901,43.887448 C23.9904839,43.4988437 24.3901461,43.2496562 24.900142,43.3942811 C25.4514138,43.5513253 25.5827824,44.019253 25.6260427,44.4939912 C25.8729045,47.2022027 24.1861477,49.6892702 21.4547924,50.6387467 C19.1731065,51.4351852 17.0712091,50.9904937 15.1590222,49.678854 C12.765812,48.0362997 11.4048969,45.7775873 11.2834504,42.9624095 C11.1774824,40.4885625 12.3232864,38.4922581 14.3894643,37.0500153 C15.3900087,36.3521301 16.5453379,35.8593638 17.6232747,35.2616343 C18.873856,34.5641496 21.3150892,33.0505959 21.2900855,32.9981143 C20.3074009,33.2340813 19.3346383,33.5321448 18.3408409,33.6947977 C15.4455725,34.1791509 12.5737202,34.0605665 9.7983107,33.0794408 C5.60324732,31.5943313 3.6327185,28.0095568 3.26718838,23.4873244 C2.99571976,20.1341099 4.90115961,16.0181093 8.84578921,14.9444396 C10.7865517,14.4156173 12.5320474,14.4829219 14.3231846,15.4384078 C15.4931985,16.062979 16.0916995,18.2099177 12.9789387,18.427456 C11.7255792,18.5147918 10.7067781,19.3452832 10.1519343,20.4862575 C9.36927915,22.096762 10.0423943,23.9075779 11.7303418,24.7897498 C16.0916995,27.0672915 21.370653,23.6744153 21.6933196,23.3567213 C21.1007719,22.6672491 20.5721225,21.9144785 20.1176903,21.1028163 C18.9369606,18.9947381 18.2543202,16.5136799 18.2543202,13.8579501 C18.2543202,6.20404772 23.9095196,0 30.8847551,0 C37.8599905,0 43.51519,6.20404772 43.51519,13.8579501 C43.51519,16.4407665 42.8694598,18.8577251 41.7474688,20.9273435 C41.2950211,21.7622418 40.7659748,22.5402516 40.1694583,23.2509568 C41.0318871,24.0069324 44.5927299,27.7759936 49.5942615,25.359035 C54.8573396,22.8146784 51.8886476,17.5056224 47.680487,18.2780236 C47.6765182,18.2780236 45.2412383,19.0824746 44.9149997,17.5557003 C44.8451481,17.2311957 45.0674031,16.7584606 45.2761641,16.4684095 C46.5600837,14.6768235 50.3832668,13.3760006 53.4730083,14.1844578 Z" id="Combined-Shape"></path>
            </g>
        </g>
    </g>
</svg>