<svg width="143px" height="56px" viewBox="0 0 143 56">
  <path d="M35.8891051,28.168 C37.6140078,28.168 39.2832685,28.84 40.507393,30.072 C43.0669261,32.648 43.0669261,36.792 40.507393,39.368 C39.2832685,40.6 37.6140078,41.272 35.8891051,41.272 C34.1642023,41.272 32.4949416,40.6 31.2708171,39.368 C30.0466926,38.136 29.3789883,36.456 29.3789883,34.72 C29.3789883,32.984 30.0466926,31.304 31.2708171,30.072 C32.5505837,28.84 34.1642023,28.168 35.8891051,28.168 L35.8891051,28.168 Z M35.8891051,24.024 C33.1626459,24.024 30.4361868,25.088 28.3774319,27.16 C24.2042802,31.36 24.2042802,38.136 28.3774319,42.336 C30.4361868,44.408 33.1626459,45.472 35.8891051,45.472 C38.6155642,45.472 41.3420233,44.408 43.4007782,42.336 C47.57393,38.136 47.57393,31.36 43.4007782,27.16 C41.3420233,25.032 38.6155642,24.024 35.8891051,24.024 L35.8891051,24.024 L35.8891051,24.024 Z" id="Shape" fill="#D9E6AB"></path>
  <path d="M31.3264591,39.368 C28.7669261,36.792 28.7669261,32.648 31.3264591,30.072 C33.8859922,27.496 38.0035019,27.496 40.563035,30.072 L43.5120623,27.104 C39.2832685,22.96 32.5505837,22.96 28.3774319,27.16 C24.2042802,31.36 24.2042802,38.136 28.3774319,42.336 L31.3264591,39.368 L31.3264591,39.368 Z" id="Shape" fill="#AFCE57"></path>
  <path d="M35.8891051,23.128 C42.2322957,23.128 47.4070039,28.336 47.4070039,34.72 C47.4070039,41.104 42.2879377,46.368 35.8891051,46.368 C29.4902724,46.368 24.3712062,41.16 24.3712062,34.72 C24.3712062,28.28 29.5459144,23.128 35.8891051,23.128 L35.8891051,23.128 Z M35.8891051,18.928 C27.2645914,18.928 20.1980545,26.04 20.1980545,34.72 C20.1980545,43.456 27.2089494,50.512 35.8891051,50.512 C44.5692607,50.512 51.5801556,43.456 51.5801556,34.72 C51.5801556,26.04 44.5692607,18.928 35.8891051,18.928 L35.8891051,18.928 L35.8891051,18.928 Z" id="Shape" fill="#D9E6AB"></path>
  <path d="M27.7653696,42.952 C25.6509728,40.824 24.3712062,37.968 24.3712062,34.72 C24.3712062,28.336 29.5459144,23.128 35.8891051,23.128 L35.8891051,18.984 C27.2645914,18.928 20.1980545,26.04 20.1980545,34.72 C20.1980545,39.088 21.9785992,43.008 24.8163424,45.864 L27.7653696,42.952 L27.7653696,42.952 Z" id="Shape" fill="#C5DA82"></path>
  <path d="M62.1521401,14.224 C60.9836576,14.224 60.0933852,15.176 60.0933852,16.296 L60.0933852,53.48 C60.0933852,54.656 61.0392996,55.552 62.1521401,55.552 C63.2649805,55.552 64.2108949,54.6 64.2108949,53.48 L64.2108949,16.296 C64.2108949,15.12 63.2649805,14.224 62.1521401,14.224 L62.1521401,14.224 Z" id="Shape" fill="#97C21C"></path>
  <ellipse id="Oval" fill="#97C21C" cx="62.1521401" cy="8.288" rx="2.44824903" ry="2.464"></ellipse>
  <path d="M11.4622568,1.68 C11.4622568,1.624 11.4066148,1.568 11.4066148,1.512 C11.4066148,1.456 11.3509728,1.344 11.3509728,1.288 C11.2953307,1.232 11.2953307,1.176 11.2396887,1.064 C11.1840467,1.008 11.1840467,0.952 11.1840467,0.896 C11.0171206,0.672 10.8501946,0.448 10.6276265,0.336 C10.5719844,0.28 10.5163424,0.28 10.4607004,0.28 C10.4050584,0.224 10.3494163,0.224 10.2381323,0.168 C10.1824903,0.168 10.1268482,0.112 10.0155642,0.112 C9.95992218,0.112 9.90428016,0.056 9.84863813,0.056 C9.73735409,0 9.57042802,0 9.45914397,0 L9.45914397,0 L9.45914397,0 C9.34785992,0 9.18093385,0 9.06964981,0.056 C9.01400778,0.056 8.95836576,0.112 8.90272374,0.112 C8.84708171,0.112 8.73579767,0.168 8.68015564,0.168 C8.62451362,0.224 8.5688716,0.224 8.45758755,0.28 C8.40194553,0.336 8.3463035,0.336 8.29066148,0.392 C8.17937743,0.448 8.06809339,0.56 7.95680934,0.672 L1.16848249,7.504 C0.33385214,8.344 0.33385214,9.632 1.16848249,10.472 C2.00311284,11.312 3.28287938,11.312 4.11750973,10.472 L7.40038911,7.168 L7.40038911,53.536 C7.40038911,54.712 8.3463035,55.608 9.45914397,55.608 C10.5719844,55.608 11.5178988,54.656 11.5178988,53.536 L11.5178988,2.072 L11.5178988,2.072 C11.5178988,1.96 11.5178988,1.792 11.4622568,1.68 L11.4622568,1.68 Z" id="Shape" fill="#97C21C"></path>
  <path d="M35.8891051,13.888 C28.9894942,13.888 22.8132296,17.304 19.085214,22.568 L19.085214,2.072 C19.085214,0.896 18.1392996,0 17.0264591,0 C15.9136187,0 14.9677043,0.952 14.9677043,2.072 L14.9677043,53.48 C14.9677043,54.656 15.9136187,55.552 17.0264591,55.552 C18.1392996,55.552 19.085214,54.6 19.085214,53.48 L19.085214,46.872 C22.8688716,52.136 28.9894942,55.552 35.8891051,55.552 C47.3513619,55.552 56.5879377,46.2 56.5879377,34.72 C56.5879377,23.24 47.3513619,13.888 35.8891051,13.888 L35.8891051,13.888 Z M35.8891051,51.408 C26.7638132,51.408 19.3077821,43.96 19.3077821,34.72 C19.3077821,25.536 26.7081712,18.032 35.8891051,18.032 C45.0143969,18.032 52.470428,25.536 52.470428,34.72 C52.470428,43.904 45.0143969,51.408 35.8891051,51.408 L35.8891051,51.408 Z" id="Shape" fill="#97C21C"></path>
  <path d="M139.772763,36.344 C136.823735,33.208 131.815953,32.368 127.030739,31.528 C119.964202,30.296 116.625681,29.344 116.625681,25.872 C116.625681,23.072 117.682879,21.168 119.852918,19.936 C124.805058,17.192 133.985992,18.984 137.101946,20.944 C138.04786,21.56 139.327626,21.28 139.939689,20.328 C140.551751,19.376 140.273541,18.088 139.327626,17.472 C135.599611,15.12 124.693774,12.544 117.849805,16.352 C114.344358,18.312 112.452529,21.616 112.452529,25.928 C112.452529,33.32 120.131128,34.608 126.307393,35.672 C130.480545,36.4 134.764981,37.128 136.768093,39.256 C138.32607,40.936 138.60428,42.728 138.548638,43.96 C138.492996,45.864 137.658366,47.432 136.823735,48.16 C128.533074,55.664 115.791051,47.712 115.624125,47.6 C114.67821,46.984 113.398444,47.264 112.786381,48.216 C112.174319,49.168 112.452529,50.456 113.398444,51.072 C113.84358,51.352 120.520623,55.552 128.032296,55.552 C131.871595,55.552 135.989105,54.432 139.550195,51.184 C141.330739,49.56 142.499222,46.816 142.610506,44.016 C142.777432,42 142.332296,39.032 139.772763,36.344 L139.772763,36.344 Z" id="Shape" fill="#97C21C"></path>
  <path d="M88.3595331,13.888 C76.8972763,13.888 67.6607004,23.24 67.6607004,34.72 C67.6607004,46.2 76.9529183,55.552 88.3595331,55.552 C99.8217899,55.552 109.058366,46.2 109.058366,34.72 C109.058366,23.24 99.8217899,13.888 88.3595331,13.888 L88.3595331,13.888 Z M88.3595331,51.408 C79.2342412,51.408 71.7782101,43.96 71.7782101,34.72 C71.7782101,25.536 79.2342412,18.032 88.3595331,18.032 C97.4848249,18.032 104.940856,25.536 104.940856,34.72 C104.940856,43.904 97.4848249,51.408 88.3595331,51.408 L88.3595331,51.408 Z" id="Shape" fill="#97C21C"></path>
</svg>
