<svg xmlns="http://www.w3.org/2000/svg" width="186" height="50" viewBox="0 0 186 50">
  <g fill="none">
    <path id="aidin-brand-mark" class="customer__brand-mark" fill="#FF3E43" fill-opacity=".8" d="M46.1166623,49.8603659 L3.88166985,49.8603659 C1.73792026,49.8603659 0,48.1335671 0,45.9982927 L0,3.97652439 C0,1.84359756 1.73556079,0.114329268 3.88166985,0.114329268 L46.1166623,0.114329268 C48.2604119,0.114329268 49.9984547,1.84115854 49.9984547,3.97652439 L49.9984547,45.9982927 C49.9984547,48.1312195 48.2628633,49.8603354 46.1166623,49.8603659 L46.1166623,49.8603659 Z M21.0094814,26.5149695 L12.1895269,26.5149695 C11.72563,26.5149695 11.3501367,26.8874085 11.3501367,27.3468293 L11.3501367,34.0401524 C11.3501367,34.4966768 11.7259364,34.8719817 12.1895269,34.8719817 L21.0094814,34.8719817 L21.0094814,43.2295732 C21.0094814,43.691128 21.3837796,44.0647256 21.8455621,44.0647256 L28.5728175,44.0647256 C29.031689,44.0647256 29.4088982,43.6908232 29.4088982,43.2295732 L29.4088982,34.8719817 L37.8088666,34.8719817 C38.2727941,34.8719817 38.6481647,34.4995732 38.6481647,34.0401524 L38.6481647,27.3468293 C38.6481647,26.8902744 38.2724876,26.5149695 37.8088666,26.5149695 L29.4088982,26.5149695 L29.4088982,17.7396341 C29.4088982,17.2780488 29.0345694,16.9042683 28.5728175,16.9042683 L21.8455621,16.9042683 C21.3866906,16.9042683 21.0094814,17.2783537 21.0094814,17.7396341 L21.0094814,26.5149695 Z M25.2091898,14.0125 C27.5286129,14.0125 29.4088982,12.1417683 29.4088982,9.83384146 C29.4088982,7.52621951 27.5286129,5.6554878 25.2091898,5.6554878 C22.8897667,5.6554878 21.0094814,7.52621951 21.0094814,9.83384146 C21.0094814,12.1417683 22.8897667,14.0125 25.2091898,14.0125 L25.2091898,14.0125 Z"/>
    <g id="adin-word-mark" class="customer__word-mark">
      <path fill="#2B2B2B" d="M85.545598,16.1585366 L91.3955585,16.1585366 L91.3955585,48.2566463 L85.545598,48.2566463 L85.545598,43.7706402 C85.0580758,44.3893902 84.4620791,45.0081707 83.7579143,45.6269207 C83.0537496,46.2456707 82.2276277,46.8257622 81.279855,47.3671646 C80.3317759,47.9085976 79.2485634,48.3468902 78.0296046,48.6820427 C76.8109522,49.0171951 75.4703427,49.1847866 74.0077759,49.1847866 C71.8949753,49.1847866 69.850201,48.8238415 67.8731466,48.1019512 C65.8960923,47.380061 64.1491631,46.310122 62.6323591,44.8921341 C61.1155552,43.4741463 59.8969028,41.7081098 58.9760956,39.5940244 C58.0552883,37.479939 57.5947315,35.0049085 57.5947315,32.1689329 C57.5947315,29.3845122 58.0418056,26.9481402 58.935341,24.8598476 C59.8291829,22.7715244 61.0343526,21.03125 62.5511565,19.6390549 C64.0679605,18.2469512 65.8148896,17.189939 67.791944,16.4679878 C69.7689984,15.7460366 71.8410445,15.385061 74.0077759,15.385061 C75.6327479,15.385061 77.081832,15.5783537 78.3547216,15.9652439 C79.6276112,16.3518293 80.7246129,16.8158537 81.6454201,17.3573171 C82.5662273,17.8987805 83.3515947,18.4789634 84.0015222,19.097561 C84.6517562,19.7164024 85.1662438,20.2578049 85.545598,20.7218902 L85.545598,16.1585366 Z M74.6577035,20.3351524 C73.1951367,20.3351524 71.80029,20.5800915 70.4731631,21.069939 C69.1460362,21.5597866 67.9816211,22.307439 66.9793048,23.3129268 C65.9772949,24.3184146 65.1646557,25.5559451 64.5416936,27.0254878 C63.9190379,28.4950305 63.6074036,30.2095122 63.6074036,32.1689329 C63.6074036,33.8705183 63.851318,35.4560671 64.3388402,36.9256402 C64.826056,38.3951829 65.5440099,39.671372 66.4917825,40.7542073 C67.4398616,41.8370122 68.6042768,42.6878049 69.9856409,43.3065854 C71.3670049,43.9253354 72.924257,44.2347256 74.6577035,44.2347256 C76.4453871,44.2347256 78.0296046,43.912439 79.4109687,43.2678963 C80.7923328,42.6233537 81.9702306,41.7467988 82.9452751,40.6381707 C83.9203196,39.5295732 84.6517562,38.2533841 85.1392784,36.8096037 C85.6268007,35.3658232 85.8704086,33.8447256 85.8704086,32.24625 C85.8704086,30.1837195 85.5318089,28.4048171 84.854916,26.9094817 C84.1777166,25.4141463 83.2973575,24.1766159 82.214145,23.1969207 C81.130626,22.2172256 79.9254563,21.4953354 78.5983295,21.03125 C77.2712026,20.5671951 75.9578649,20.3351524 74.6577035,20.3351524 L74.6577035,20.3351524 Z"/>
      <polygon fill="#2B2B2B" points="97.491 48.295 103.341 48.295 103.341 16.197 97.491 16.197"/>
      <path fill="#2B2B2B" d="M100.416099 14.0125C102.73543 14.0125 104.615654 12.1417683 104.615654 9.83384146 104.615654 7.52621951 102.73543 5.6554878 100.416099 5.6554878 98.0967677 5.6554878 96.2162372 7.52621951 96.2162372 9.83384146 96.2162372 12.1417683 98.0967677 14.0125 100.416099 14.0125L100.416099 14.0125zM150.090049 14.0125C152.409687 14.0125 154.289911 12.1417683 154.289911 9.83384146 154.289911 7.52621951 152.409687 5.6554878 150.090049 5.6554878 147.770718 5.6554878 145.890494 7.52621951 145.890494 9.83384146 145.890494 12.1417683 147.770718 14.0125 150.090049 14.0125L150.090049 14.0125z"/>
      <polygon fill="#2B2B2B" points="147.165 48.295 153.015 48.295 153.015 16.197 147.165 16.197"/>
      <path fill="#2B2B2B" d="M135.412596 1L141.262863 1 141.262863 48.2566463 135.412596 48.2566463 135.412596 43.7706402C134.925074 44.3893902 134.329384 45.0081707 133.625219 45.6269207 132.921054 46.2456707 132.094932 46.8257622 131.146853 47.3671646 130.199081 47.9085976 129.115562 48.3468902 127.896909 48.6820427 126.678257 49.0171951 125.337341 49.1847866 123.875081 49.1847866 121.76228 49.1847866 119.717506 48.8238415 117.740451 48.1019512 115.763397 47.380061 114.016468 46.310122 112.499664 44.8921341 110.98286 43.4741463 109.764208 41.7081098 108.8434 39.5940244 107.922593 37.479939 107.462036 35.0049085 107.462036 32.1689329 107.462036 29.3845122 107.908804 26.9481402 108.802646 24.8598476 109.696488 22.7715244 110.901657 21.03125 112.418461 19.6390549 113.934959 18.2469512 115.681888 17.189939 117.659249 16.4679878 119.636303 15.7460366 121.708349 15.385061 123.875081 15.385061 125.500053 15.385061 126.94883 15.5783537 128.222026 15.9652439 129.494916 16.3518293 130.591611 16.8158537 131.512725 17.3573171 132.433532 17.8987805 133.2189 18.4789634 133.868827 19.097561 134.519061 19.7164024 135.033549 20.2578049 135.412596 20.7218902L135.412596 1zM124.525008 20.3351524C123.062442 20.3351524 121.667595 20.5800915 120.340468 21.069939 119.013341 21.5597866 117.848619 22.307439 116.84661 23.3129268 115.8446 24.3184146 115.03196 25.5559451 114.408998 27.0254878 113.786036 28.4950305 113.474708 30.2095122 113.474708 32.1689329 113.474708 33.8705183 113.718316 35.4560671 114.205839 36.9256402 114.693361 38.3951829 115.411315 39.671372 116.359087 40.7542073 117.307166 41.8370122 118.471582 42.6878049 119.852946 43.3065854 121.23431 43.9253354 122.791562 44.2347256 124.525008 44.2347256 126.312386 44.2347256 127.896909 43.912439 129.278273 43.2678963 130.659331 42.6233537 131.837535 41.7467988 132.81258 40.6381707 133.787624 39.5295732 134.519061 38.2533841 135.006583 36.8096037 135.494105 35.3658232 135.737713 33.8447256 135.737713 32.24625 135.737713 30.1837195 135.399114 28.4048171 134.721914 26.9094817 134.045021 25.4141463 133.164662 24.1766159 132.08145 23.1969207 130.997931 22.2172256 129.792761 21.4953354 128.465634 21.03125 127.138507 20.5671951 125.824863 20.3351524 124.525008 20.3351524L124.525008 20.3351524zM158.817035 16.1585366L164.667301 16.1585366 164.667301 19.8710976C164.938181 19.5617073 165.330712 19.1490854 165.845506 18.6335366 166.359993 18.1179878 167.009921 17.6152439 167.795288 17.1253049 168.580962 16.6353659 169.515252 16.2228659 170.598465 15.8878049 171.681984 15.5527439 172.927908 15.385061 174.336237 15.385061 176.340563 15.385061 178.195661 15.7588415 179.901835 16.5067073 181.608316 17.2542683 182.975891 18.35 184.005173 19.79375 184.871743 20.9796951 185.413502 22.2558841 185.630145 23.6223171 185.846787 24.98875 185.955262 26.5742988 185.955262 28.3790244L185.955262 48.2566463 180.104995 48.2566463 180.104995 28.5337195C180.104995 27.5540244 180.023792 26.5485366 179.861387 25.5172561 179.698982 24.4860061 179.26539 23.5320732 178.561226 22.6555183 177.965535 21.933628 177.220616 21.3664329 176.326774 20.9539329 175.433239 20.5414024 174.336237 20.3351524 173.036076 20.3351524 172.0071 20.3351524 170.977819 20.5027439 169.948537 20.8378963 168.919562 21.1730488 167.971483 21.8304878 167.104913 22.8101829 165.967157 24.0992683 165.276474 25.5688415 165.032867 27.2188415 164.788952 28.868872 164.667301 30.2868598 164.667301 31.4728049L164.667301 48.2566463 158.817035 48.2566463 158.817035 16.1585366z"/>
    </g>
  </g>
</svg>
