<svg width="558" height="110" viewBox="0 0 558 110">
  <g fill="#FFFFFF" fill-rule="evenodd" transform="translate(-19 -19)">
    <path fill-rule="nonzero" d="M172.8 77L133.7 77C133.3 83.7 134.8 89.4 138.1 94.2 141.8 99.5 146.9 102.1 153.3 102.1 159.2 102.1 164.7 99 169.9 92.7L173.7 95.6C167.8 103.5 160.3 107.5 151 107.5 142.6 107.5 135.6 104.7 130.2 99.2 124.7 93.7 122 86.7 122 78.3 122 70.2 124.5 63.5 129.5 58.2 134.5 52.9 141 50.2 149.1 50.2 156.6 50.2 162.5 52.8 166.7 57.9 171.1 63.1 173 69.4 172.8 77M134.1 71.6L160.9 71.6C161.2 67 160.4 63.2 158.5 60.2 156.3 56.7 153 54.9 148.6 54.9 144.2 54.9 140.7 56.6 138.1 60.1 135.8 63 134.5 66.9 134.1 71.6M201.8 93.4L211.2 71.4C213.7 65.5 214.9 61.8 214.9 60.3 214.9 58.7 213.8 57.6 211.7 57 209.6 56.4 208.5 55.3 208.5 53.9L208.5 51.9 230 51.9 230 53.9C230 55.3 229.6 56 228.8 56.2 227.1 56.7 226.1 57 225.6 57.3 223.9 58.4 222.4 60.7 220.9 64.2L202.4 106.7 196.2 106.7 176.8 63C175.4 60 174 58 172.5 57 172.3 56.9 171.3 56.6 169.7 56.2 168.9 56.1 168.6 55.3 168.6 53.8L168.6 51.8 194.7 51.8 194.7 53.8C194.7 55.2 193.6 56.2 191.5 56.8 189.4 57.4 188.3 58.3 188.3 59.6 188.3 60.2 188.8 61.7 189.8 64L201.8 93.4zM275.6 77L236.5 77C236.1 83.7 237.6 89.4 240.9 94.2 244.6 99.5 249.7 102.1 256.1 102.1 262 102.1 267.5 99 272.7 92.7L276.5 95.6C270.6 103.5 263.1 107.5 253.8 107.5 245.4 107.5 238.4 104.7 233 99.2 227.5 93.7 224.8 86.7 224.8 78.3 224.8 70.2 227.3 63.5 232.3 58.2 237.3 52.9 243.8 50.2 251.9 50.2 259.4 50.2 265.3 52.8 269.5 57.9 273.8 63.1 275.8 69.4 275.6 77M236.8 71.6L263.6 71.6C263.9 67 263.1 63.2 261.2 60.2 259 56.7 255.7 54.9 251.3 54.9 246.9 54.9 243.4 56.6 240.8 60.1 238.5 63 237.2 66.9 236.8 71.6M294.1 51.4L294.1 68.5C295.2 64.1 296.9 60.1 299.3 56.8 302.4 52.4 305.9 50.2 309.7 50.2 311.8 50.2 313.6 50.8 315 51.9 316.4 53 317.1 54.6 317.1 56.6 317.1 58.3 316.4 59.6 315.1 60.7 313.8 61.8 312.3 62.3 310.5 62.3 309.4 62.3 308.2 62 306.9 61.5 305.6 61 304.8 60.7 304.5 60.7 301.8 60.7 299.3 63.9 297.1 70.3 295 76 294 81.1 294 85.7L294 96.2C294 98.7 294.6 100.2 295.8 100.8 296.8 100.9 297.9 101 299.1 101.1 300.2 101.3 300.8 102.1 300.8 103.7L300.8 105.7 276.6 105.7 276.6 103.7C276.6 102.2 277.1 101.3 278.2 101.2 279.3 101 280.4 100.8 281.4 100.7 282.5 100.1 283.1 98.6 283.1 96.2L283.1 61.5C283.1 59.1 282.5 57.6 281.4 57 280.3 56.8 279.3 56.7 278.2 56.5 277.1 56.3 276.6 55.5 276.6 54L276.6 52 294.1 51.4zM335.5 103L335.5 119.3C335.5 121.7 336.1 123.2 337.2 123.8 338.3 123.9 339.3 124.1 340.5 124.4 341.6 124.6 342.2 125.5 342.2 126.9L342.2 128.9 318.6 128.9 318.6 126.9C318.6 125.5 319.1 124.7 320.1 124.5 321.1 124.2 322.1 124 323.1 123.8 324.2 123.1 324.7 121.7 324.7 119.4L324.7 61.5C324.7 58.7 323.8 57.1 321.9 56.6 320.1 56.1 319.1 55.3 319.1 54.1L319.1 51.8 334.9 51.3 334.9 56.6C340.2 52.2 345.7 50 351.4 50 359.2 50 365.4 52.7 370.3 58.2 374.9 63.5 377.2 70.2 377.2 78.3 377.2 86.5 374.9 93.3 370.2 98.7 365.2 104.6 358.7 107.4 350.7 107.3 345.3 107.5 340.2 106 335.5 103M335.5 59.8L335.5 98C338.9 101 342.9 102.5 347.5 102.5 353.7 102.5 358.2 99.9 361.2 94.6 363.5 90.4 364.7 84.9 364.7 78.2 364.7 71.7 363.5 66.5 361.1 62.5 358.1 57.7 353.6 55.3 347.5 55.3 342.9 55.2 338.9 56.8 335.5 59.8M397.5 19L397.5 96.2C397.5 98.5 398 99.9 399 100.6 399.9 100.8 400.8 101.1 401.8 101.3 402.8 101.6 403.3 102.4 403.3 103.7L403.3 105.7 380.7 105.7 380.7 103.7C380.7 102.3 381.2 101.5 382.2 101.3 383.2 101 384.2 100.8 385.1 100.6 386.2 99.9 386.7 98.5 386.7 96.2L386.7 29C386.7 26.7 386.2 25.3 385.1 24.6 384.2 24.4 383.2 24.1 382.2 23.9 381.2 23.6 380.7 22.8 380.7 21.5L380.7 19.5 397.5 19zM438.8 71.7C438.8 60.1 435.1 54.3 427.6 54.3 424.7 54.3 423.2 55.9 422.9 59.2 422.5 63.3 420.3 65.3 416.4 65.3 414.7 65.3 413.4 64.8 412.2 63.8 411.1 62.8 410.5 61.4 410.5 59.8 410.5 56.7 412.7 54.2 417 52.3 420.5 50.9 424 50.2 427.5 50.2 437 50.2 443.5 53.4 447.1 59.7 449 63.1 449.9 67.1 449.9 71.7L449.9 89.3C449.9 97.4 451.6 101.5 454.9 101.5 455.8 101.5 456.8 101 457.9 100L458.4 100.7C459 101.6 459.3 102.2 459.3 102.4 459.3 103.5 458.3 104.7 456.4 105.8 454.5 107 452.5 107.6 450.6 107.6 445.6 107.6 442.1 105 440.2 99.7 435.3 105 429.9 107.6 423.9 107.6 418.9 107.6 414.5 106.2 410.9 103.5 407 100.6 405 96.7 405 91.8 405.1 80.7 416.3 74 438.8 71.7M439.1 86.8L439.1 75.9C433.3 76.4 428.5 77.8 424.6 80 419.6 82.9 417 86.9 417 92 417 95 417.8 97.5 419.4 99.3 421 101.2 423.3 102.1 426.2 102.1 429.1 102.1 431.8 101.1 434.1 99.2 437.5 96.5 439.1 92.3 439.1 86.8M462.8 54.1L462.8 51.8 478.5 51.3 478.5 56.9C483.5 52.3 489.4 50 496 50 508 50 514 55.1 514 65.2L514 96C514 98.3 514.5 99.7 515.6 100.4 516.5 100.6 517.5 100.9 518.5 101.1 519.5 101.4 520 102.2 520 103.5L520 105.5 497 105.5 497 103.5C497 102.1 497.5 101.3 498.5 101.1 499.5 100.8 500.5 100.6 501.5 100.4 502.6 99.7 503.1 98.3 503.1 96L503.1 68.6C503.1 64.3 502.5 61.3 501.4 59.5 499.7 56.9 496.5 55.7 491.8 55.7 489.6 55.7 487.2 56.3 484.7 57.6 482.1 58.9 480.3 60.5 479.2 62.3L479.2 96.3C479.2 98.6 479.7 100 480.8 100.7 481.8 100.9 482.8 101.2 483.8 101.4 484.8 101.7 485.3 102.5 485.3 103.8L485.3 105.8 462.8 105.8 462.8 103.8C462.8 102.4 463.7 101.5 465.6 101.1 467.4 100.6 468.4 99 468.4 96.2L468.4 61.5C468.4 59.3 467.9 57.9 466.9 57.2 466.8 57.1 466 56.9 464.3 56.4 463.3 56.1 462.8 55.3 462.8 54.1M540.9 107.5C536.5 107.5 532.2 106.7 528.2 105.2 522.7 103.2 520 100.3 520 96.6 520 94.9 520.7 93.4 522 92.3 523.3 91.2 524.9 90.6 526.6 90.6 528.2 90.6 529.7 91.1 531.1 92 532.5 92.9 533.2 94.2 533.2 95.7 533.2 96 533.1 96.5 533 97.2 532.8 97.9 532.8 98.4 532.8 98.7 532.8 101.4 535.4 102.8 540.7 102.8 543.9 102.8 546.7 102.1 549.1 100.7 551.9 99 553.4 96.6 553.4 93.7 553.4 89.9 550.7 86.9 545.4 84.7 540.5 82.8 535.6 80.9 530.6 79.1 525.3 76.3 522.6 72.2 522.6 66.8 522.6 61.7 525.1 57.5 530.2 54.4 534.6 51.7 539.5 50.3 545 50.3 548.8 50.3 552.3 50.9 555.4 52.2 559.5 53.9 561.6 56.5 561.6 59.8 561.6 61.5 561 62.9 559.7 63.9 558.4 64.9 556.9 65.4 555.2 65.4 553.6 65.4 552.2 65 551 64.2 549.6 63.3 548.9 62.1 548.9 60.5 548.9 60.2 548.9 59.8 549 59.3 549.1 58.8 549.1 58.4 549.1 58.2 549.1 56.2 547.1 55.3 543.2 55.3 540.7 55.3 538.5 56 536.4 57.3 534.1 58.9 532.9 60.8 532.9 63.2 532.9 66.8 535.6 69.7 541 71.8 546 73.7 551.1 75.6 556.1 77.4 561.5 80.3 564.2 84.6 564.2 90 564.2 95.6 561.6 100.1 556.5 103.4 552 106.1 546.8 107.5 540.9 107.5M101.7 78C101.7 100.9 83.2 119.4 60.3 119.4 37.5 119.4 19 100.8 19 78 19 55.2 37.5 36.6 60.4 36.6 83.2 36.6 101.7 55.1 101.7 78M45.7 78C45.7 73 41.7 68.9 36.7 68.9 31.7 68.9 27.7 72.9 27.7 78 27.7 83 31.7 87.1 36.7 87.1 41.7 87 45.7 83 45.7 78M69.4 78C69.4 73 65.4 68.9 60.4 68.9 55.4 68.9 51.4 72.9 51.4 78 51.4 83 55.4 87.1 60.4 87.1 65.4 87 69.4 83 69.4 78M93.1 78C93.1 73 89.1 68.9 84.1 68.9 79.1 68.9 75.1 72.9 75.1 78 75.1 83 79.1 87.1 84.1 87.1 89 87 93.1 83 93.1 78"/>
    <text font-family="Helvetica" font-size="12">
      <tspan x="560.667" y="51.494">TM</tspan>
    </text>
  </g>
</svg>
