<svg xmlns="http://www.w3.org/2000/svg" width="338" height="112" viewBox="0 0 338 112">
  <g fill="none">
    <polygon fill="#FF9400" points="32 40 12 40 12 20 0 32 0 112 52 60 32 60"/>
    <polygon fill="#FF9400" points="32 0 12 20 32 20"/>
    <polygon fill="#ED7B00" points="72 40 52 40 52 60"/>
    <g fill="#FF9400" transform="translate(81 12)">
      <polygon points="25.5 20 9.5 20 9.5 0 0 0 0 48 9.5 48 9.5 28 25.5 28 25.5 48 35 48 35 0 25.5 0"/>
      <path d="M54.8 14C46 14 40 20 40 31 40 44.7 47.5 48.5 55.5 48.5 61.6 48.5 64.8 46.7 68.3 43.2L63.3 38.2C61.2 40.3 59.2 41.2 55.5 41.2 50.8 41.2 48.3 38.3 48.3 33.4L69.5 33.4 69.5 30C69.5 20.7 64.1 14 54.8 14zM48.3 28C48.4 26.5 48.6 25.6 49.1 24.4 50 22.4 51.9 21 54.8 21 57.6 21 59.5 22.4 60.4 24.4 60.9 25.6 61.3 26.5 61.3 28L48.3 28zM87.1 14C81.5 14 78.4 14.9 75.1 18.5L80.3 23.8C82 21.8 83.5 21.1 86.7 21.1 91.2 21.1 93 22.7 93 26.4L93 28 85 28C77.2 28 73.5 32.4 73.5 37.8 73.5 40.8 74.5 43.5 76.3 45.4 78.3 47.4 81 48.4 84.8 48.4 88.7 48.4 91 47.4 93 45.2L93 48 101.5 48 101.5 25.8C101.5 17.9 96.5 14 87.1 14zM91.7 39.8C90.2 41.2 88.7 41.4 86.4 41.4 83.1 41.4 81.5 39.8 81.5 37.5 81.5 35.1 83.2 33.4 86.2 33.4L92.9 33.4 92.9 35.4C93 37.7 92.6 39 91.7 39.8zM167.9 13.5C164.9 13.5 162.3 14.7 160 17L160 0 151.5 0 151.5 48 160 48 160 27C160 22.6 162.6 21 165.3 21 168 21 170.6 22.5 170.6 27L170.6 48 179.1 48 179.1 25.5C179 18.4 175.3 13.5 167.9 13.5z"/>
      <rect width="8.5" height="33.5" x="185.5" y="14.5"/>
      <rect width="8.5" height="8.5" x="185.5"/>
      <path d="M138 4L129.5 4 129.5 14.5 123 14.5 123 21 129.5 21 129.5 38.5C129.5 43.3 132 48 139.5 48L144.5 48 144.5 41 141 41C138.9 41 138 40 138 37.5L138 21 144.5 21 144.5 14.5 138 14.5 138 4zM205.5 9.5L205.5 14.5 199 14.5 199 21 205.5 21 205.5 48 214 48 214 21 220.5 21 220.5 14.5 214 14.5 214 10.5C214 8 214.9 7 217 7L220.5 7 220.5 0 215.5 0C208 0 205.5 4.7 205.5 9.5zM116.5 37.5L116.5 0 108 0 108 38.5C108 43.3 110.5 48 118 48L123 48 123 41 119.5 41C117.4 41 116.5 40 116.5 37.5zM248 14.5L240.5 36.6 232 14.5 224 14.5 236 48 234.6 52C233.8 54.5 232.8 55 230.4 55L228.5 55 228.5 62.5 231.8 62.5C234.6 62.5 237.1 61.9 239.1 60 240.1 59 240.9 57.6 241.6 55.7L244 49 256.5 14.5 248 14.5z"/>
    </g>
  </g>
</svg>
