<svg xmlns="http://www.w3.org/2000/svg" width="131" height="38" viewBox="0 0 131 38">
  <g fill="#000000">
    <path d="M36,20.2 C34.2,17.6 31.9,16.5 30.1,16 C29.7,17 29.4,17.6 29.3,17.8 L28,20 C29.8,20.2 31.5,21.2 32.5,22.7 C34.5,25.5 33.3,28.5 33.3,28.6 C33.3,28.7 33.2,28.8 33.2,28.8 C33.2,28.8 33.1,29.1 32.9,29.4 C32.9,29.5 32.8,29.5 32.8,29.6 C32.6,30 32.4,30.2 32.4,30.3 C32.3,30.4 32.3,30.4 32.3,30.5 C32.3,30.5 30.5,32.8 27.5,32.8 C27.3,32.8 27.2,32.8 27,32.8 C23.6,32.5 22.2,29.9 22.2,29.7 C22.2,29.7 22.2,29.6 22.1,29.6 L17.3,21.2 L12.4,21.2 L18.4,31.7 C18.7,32.2 21.2,36.6 26.6,37 C26.9,37 27.2,37 27.5,37 C32.3,37 35.1,33.7 35.6,33 C35.8,32.8 36.1,32.4 36.5,31.8 C36.5,31.8 36.5,31.8 36.5,31.7 C37,30.9 37.2,30.2 37.3,30 C37.6,29.3 39.1,24.7 36,20.2 Z"/>
    <path d="M15.7,30.2 C15.2,31 13.7,32.7 11.1,32.9 C10.9,32.9 10.8,32.9 10.6,32.9 C7.5,32.9 5.8,30.6 5.8,30.6 C5.8,30.5 5.7,30.5 5.7,30.4 C5.5,30.2 5.4,30 5.3,29.7 C5.3,29.6 5.2,29.6 5.2,29.5 C5.1,29.3 5,29.1 4.9,28.8 C4.9,28.7 4.9,28.6 4.8,28.6 C4.8,28.5 3.6,25.5 5.6,22.7 C7.4,20.1 10.1,20 10.6,20 L10.7,20 L10.8,20 L20,20 L22.5,15.6 L13.5,15.6 L10.1,15.6 C8.5,15.7 4.6,16.3 2,20.2 C-1.1,24.7 0.4,29.3 0.7,30.2 C0.8,30.5 1,31.1 1.5,31.9 C1.5,31.9 1.5,31.9 1.5,32 C1.9,32.6 2.2,33.1 2.4,33.3 C2.9,34 5.8,37.3 10.6,37.3 C10.9,37.3 11.2,37.3 11.5,37.3 C14.7,37 16.8,35.5 18.2,34.1 C17.8,33.6 17.5,33.2 17.2,32.7 L15.7,30.2 Z"/>
    <path d="M10,14.3 L13.1,14.3 C12.3,12.6 12.3,10.6 13.1,8.9 C14.5,5.7 17.5,5.2 17.7,5.2 C17.8,5.2 17.9,5.2 17.9,5.2 C17.9,5.2 18.2,5.1 18.7,5.1 C18.8,5.1 18.8,5.1 18.9,5.1 C19,5.1 19.1,5.1 19.1,5.1 C19.6,5.1 19.9,5.2 19.9,5.2 C20,5.2 20.1,5.2 20.1,5.2 C20.2,5.2 23.3,5.7 24.7,8.9 C26.1,12.1 24.5,14.6 24.4,14.7 C24.4,14.7 24.4,14.8 24.3,14.8 L19.5,23.1 L22,27.4 L23.7,24.4 L27.9,17 C28.2,16.5 30.7,12.1 28.4,7 C26.2,2 21.6,1 20.7,0.8 C20.1,0.7 19.4,0.6 18.8,0.6 C18.1,0.6 17.4,0.6 16.7,0.8 C16,1 11.4,2.1 9.2,7.1 C7.9,10 8.2,12.6 8.6,14.4 C9.2,14.3 9.7,14.3 10,14.3 Z"/>
    <g transform="translate(48 9)">
      <polygon points="82.2 18.9 82.2 1.1 78.9 1.1 78.9 8.6 71.8 8.6 71.8 1.1 68.6 1.1 68.6 18.9 71.8 18.9 71.8 11.4 78.9 11.4 78.9 18.9"/>
      <path d="M54.8,14.4 C53.8,13.3 53.2,11.8 53.2,10 C53.2,8.2 53.7,6.7 54.8,5.6 C55.9,4.5 57.2,4 58.7,4 C60.2,4 61.7,4.4 63,5.2 L63,1.9 C61.9,1.3 60.5,0.9 58.6,0.9 C56,0.9 53.9,1.7 52.2,3.4 C50.6,5.1 49.7,7.3 49.7,10 C49.7,12.7 50.5,14.9 52.2,16.6 C53.9,18.3 56,19.1 58.5,19.1 C60.4,19.1 61.9,18.7 63,18 L63,14.7 C61.9,15.6 60.5,16 58.8,16 C57.3,16 55.9,15.5 54.8,14.4 Z"/>
      <polygon points="33.7 3.9 38.1 3.9 38.1 18.9 41.4 18.9 41.4 3.9 45.7 3.9 45.7 1.1 33.7 1.1"/>
      <path d="M20.8 1.1L15 18.9 18.4 18.9 19.6 14.9 26.1 14.9 27.3 18.9 30.8 18.9 25 1.1 20.8 1.1zM25.3 12.1L20.4 12.1 20.6 11.3C21.9 7 22.6 4.4 22.8 3.5L22.9 4C23 4.3 23.2 5.1 23.6 6.4 24.1 8 24.5 9.6 25 11.2L25.3 12.1zM5.7 1.1L.3 1.1.3 18.8 3.5 18.8 3.5 12.8 5.8 12.8C7.6 12.8 9.1 12.3 10.3 11.2 11.5 10.1 12.1 8.7 12.1 6.9 12.1 5.2 11.5 3.8 10.3 2.7 9.2 1.7 7.6 1.1 5.7 1.1zM8 9.3C7.4 9.9 6.5 10.2 5.4 10.2L3.6 10.2 3.6 3.9 5.5 3.9C6.6 3.9 7.5 4.2 8.1 4.7 8.7 5.3 9 6 9 7 8.8 7.9 8.5 8.7 8 9.3z"/>
    </g>
  </g>
</svg>
