<?xml version="1.0" encoding="UTF-8"?>
<svg width="152px" height="29px" viewBox="0 0 152 29" version="1.1" xmlns="http://www.w3.org/2000/svg" xmlns:xlink="http://www.w3.org/1999/xlink">
    <!-- Generator: Sketch 45.2 (43514) - http://www.bohemiancoding.com/sketch -->
    <title>Page 1</title>
    <desc>Created with Sketch.</desc>
    <defs>
        <polygon id="path-1" points="0.000144561069 28.5 24.9739365 28.5 24.9739365 0.00696666667 0.000144561069 0.00696666667"></polygon>
    </defs>
    <g id="Landing-page" stroke="none" stroke-width="1" fill="none" fill-rule="evenodd">
        <g id="landing-page" transform="translate(-40.000000, -15.000000)">
            <g id="Group">
                <g id="Page-1" transform="translate(40.000000, 15.500000)">
                    <polygon id="Fill-1" fill="#FFFFFF" points="39.5353793 15.5810634 39.5353793 8.5 42.5 8.5 42.5 21 39.5353793 21 31 8.5 34.6987753 8.5"></polygon>
                    <polygon id="Fill-2" fill="#FFFFFF" points="54.7968011 8.5 54.7968011 10.9857373 48.3776459 10.9857373 48.3776459 13.5606163 54.1510266 13.5606163 54.1510266 15.9390914 48.3776459 15.9390914 48.3776459 18.532091 55 18.532091 55 21 45.5 21 45.5 8.5"></polygon>
                    <g id="Group-22">
                        <path d="M63.886885,13.7163879 C64.2289165,13.4109485 64.3997877,12.9267364 64.3997877,12.2631758 C64.3997877,11.599903 64.2228449,11.1444788 63.8689594,10.8980545 C63.5153631,10.6516303 62.8960635,10.5284182 62.0116388,10.5284182 L59.9418135,10.5284182 L59.9418135,14.174403 L61.9584404,14.174403 C62.902135,14.174403 63.5445644,14.0218273 63.886885,13.7163879 M67.2123678,12.2545394 C67.2123678,14.2270848 66.4279795,15.5012364 64.859781,16.0764182 L67.9906846,20.4801 L64.5943669,20.4801 L61.8523325,16.5522818 L59.9418135,16.5522818 L59.9418135,20.4801 L57.1824318,20.4801 L57.1824318,8.1681 L61.869969,8.1681 C63.7923421,8.1681 65.1630701,8.4911 65.9830205,9.13681212 C66.8026818,9.78281212 67.2123678,10.8217667 67.2123678,12.2545394" id="Fill-3" fill="#FFFFFF"></path>
                        <path d="M77.8971656,14.2094955 L80.6741837,14.2094955 L80.6741837,18.5777682 C79.4477276,19.9400106 77.7494241,20.6208439 75.5795625,20.6208439 C73.7632972,20.6208439 72.2390453,20.0220561 71.0068068,18.8241924 C69.7742791,17.6266167 69.1581598,16.1146773 69.1581598,14.2886621 C69.1581598,12.4632227 69.7861331,10.9394803 71.0420797,9.71772273 C72.2983154,8.49682879 73.8133154,7.88595 75.5885253,7.88595 C77.363157,7.88595 78.9053344,8.46746515 80.2144795,9.6299197 L78.7815902,11.6908439 C78.227343,11.2092227 77.7170425,10.8778742 77.2515558,10.695647 C76.7852018,10.5137076 76.2812619,10.4227379 75.7388688,10.4227379 C74.6890663,10.4227379 73.8046417,10.7776924 73.0853058,11.4881773 C72.3659699,12.19895 72.006302,13.1351318 72.006302,14.2975864 C72.006302,15.4603288 72.3512247,16.390753 73.0410701,17.0894348 C73.7312047,17.7884045 74.5537572,18.1376015 75.5087276,18.1376015 C76.4642762,18.1376015 77.2602295,17.9556621 77.8971656,17.5914955 L77.8971656,14.2094955 Z" id="Fill-5" fill="#FFFFFF"></path>
                        <polygon id="Fill-7" fill="#FFFFFF" points="91.8721732 8.16795606 91.8721732 10.6163652 85.7158955 10.6163652 85.7158955 13.1525773 91.2528736 13.1525773 91.2528736 15.4953348 85.7158955 15.4953348 85.7158955 18.0493955 92.0667524 18.0493955 92.0667524 20.4802439 82.9562247 20.4802439 82.9562247 8.16795606"></polygon>
                        <path d="M97.2409689,10.6250591 C96.9755548,10.8424076 96.8428477,11.1302864 96.8428477,11.4881197 C96.8428477,11.8465288 97.0050452,12.130953 97.3294403,12.3425439 C97.6535462,12.553847 98.4023725,12.8034379 99.5759193,13.0910288 C100.749466,13.3789076 101.660201,13.8104379 102.308991,14.3856197 C102.957492,14.9613773 103.282176,15.8008318 103.282176,16.9042712 C103.282176,18.0082864 102.866418,18.9035894 102.034903,19.5907561 C101.203388,20.277347 100.10935,20.6210742 98.7533668,20.6210742 C96.7957208,20.6210742 95.0323649,19.8987864 93.4641664,18.4544985 L95.1092714,16.4465439 C96.4418353,17.6089985 97.674363,18.1902258 98.8065653,18.1902258 C99.3133964,18.1902258 99.7115176,18.0816955 100.00064,17.864347 C100.289473,17.6472864 100.434034,17.35365 100.434034,16.9837258 C100.434034,16.6138015 100.28051,16.320453 99.9740405,16.1028167 C99.6672819,15.8857561 99.0598363,15.6658167 98.1517036,15.4424227 C96.7130319,15.10215 95.6603382,14.6588167 94.9942008,14.1127106 C94.3280634,13.5666045 93.9947055,12.7095894 93.9947055,11.5410894 C93.9947055,10.3725894 94.4162456,9.47124091 95.2596149,8.83733182 C96.1024059,8.20313485 97.1550996,7.88589242 98.4171177,7.88589242 C99.2425615,7.88589242 100.068294,8.02724091 100.894027,8.30878636 C101.719182,8.59090758 102.438807,8.98990758 103.052035,9.50665 L101.654707,11.5146045 C100.581486,10.7042258 99.4727027,10.2991803 98.3289355,10.2991803 C97.8689422,10.2991803 97.506383,10.4079985 97.2409689,10.6250591" id="Fill-9" fill="#A0A0A0"></path>
                        <polygon id="Fill-11" fill="#A0A0A0" points="114.37345 8.16795606 114.37345 10.6163652 108.217173 10.6163652 108.217173 13.1525773 113.754151 13.1525773 113.754151 15.4953348 108.217173 15.4953348 108.217173 18.0493955 114.56803 18.0493955 114.56803 20.4802439 105.457502 20.4802439 105.457502 8.16795606"></polygon>
                        <polygon id="Fill-13" fill="#A0A0A0" points="125.500403 8.16795606 128.259784 8.16795606 128.259784 20.4802439 125.500403 20.4802439 119.609539 12.7653803 119.609539 20.4802439 116.849868 20.4802439 116.849868 8.16795606 119.432596 8.16795606 125.500403 16.0941227"></polygon>
                        <path d="M134.017652,10.6250591 C133.752238,10.8424076 133.61982,11.1302864 133.61982,11.4881197 C133.61982,11.8465288 133.781728,12.130953 134.106412,12.3425439 C134.430518,12.553847 135.179344,12.8034379 136.352891,13.0910288 C137.526149,13.3789076 138.437173,13.8104379 139.085963,14.3856197 C139.734175,14.9613773 140.058859,15.8008318 140.058859,16.9042712 C140.058859,18.0082864 139.643101,18.9035894 138.811586,19.5907561 C137.98036,20.277347 136.886322,20.6210742 135.53005,20.6210742 C133.572404,20.6210742 131.809048,19.8987864 130.240849,18.4544985 L131.886243,16.4465439 C133.218518,17.6089985 134.451046,18.1902258 135.583248,18.1902258 C136.090368,18.1902258 136.4882,18.0816955 136.777323,17.864347 C137.066156,17.6472864 137.210717,17.35365 137.210717,16.9837258 C137.210717,16.6138015 137.057482,16.320453 136.750723,16.1028167 C136.444254,15.8857561 135.836808,15.6658167 134.928676,15.4424227 C133.489715,15.10215 132.43731,14.6588167 131.770884,14.1127106 C131.104746,13.5666045 130.771388,12.7095894 130.771388,11.5410894 C130.771388,10.3725894 131.192928,9.47124091 132.036298,8.83733182 C132.879378,8.20313485 133.932072,7.88589242 135.19409,7.88589242 C136.019533,7.88589242 136.844977,8.02724091 137.67071,8.30878636 C138.495865,8.59090758 139.215779,8.98990758 139.829007,9.50665 L138.43139,11.5146045 C137.358169,10.7042258 136.249385,10.2991803 135.105618,10.2991803 C134.645625,10.2991803 134.283066,10.4079985 134.017652,10.6250591" id="Fill-15" fill="#A0A0A0"></path>
                        <polygon id="Fill-17" fill="#A0A0A0" points="151.150104 8.16795606 151.150104 10.6163652 144.994116 10.6163652 144.994116 13.1525773 150.530805 13.1525773 150.530805 15.4953348 144.994116 15.4953348 144.994116 18.0493955 151.344973 18.0493955 151.344973 20.4802439 142.234445 20.4802439 142.234445 8.16795606"></polygon>
                        <g id="Group-21">
                            <mask id="mask-2" fill="white">
                                <use xlink:href="#path-1"></use>
                            </mask>
                            <g id="Clip-20"></g>
                            <path d="M12.4870406,0.00696666667 L15.6089814,1.78778485 L3.12150716,8.91105758 C3.12150716,12.4724061 3.12150716,16.0343303 3.12179628,19.5956788 L4.6827667,20.4863758 L6.243448,19.5959667 L4.6827667,18.7055576 C4.6827667,15.7375273 4.6827667,12.769497 4.68247758,9.80146667 L17.1696627,2.67819394 L18.7306331,3.56860303 L20.2913144,4.45901212 C16.1291121,6.83314848 11.9669098,9.20786061 7.80441842,11.5822848 L7.80441842,16.9244515 L9.36509971,17.8148606 L10.9263593,16.9247394 L9.36509971,16.0346182 L9.36509971,12.4724061 L21.8522848,5.34942121 L24.9739365,7.13023939 L24.9739365,14.2535121 L24.9739365,21.3767848 L18.7306331,24.9384212 L12.4870406,28.5000576 L9.36509971,26.7192394 C13.5275911,24.3448152 17.6900825,21.9703909 21.852574,19.5959667 C21.8528631,16.0346182 21.852574,12.4724061 21.852574,8.91105758 L20.2916035,8.02064848 L18.7309222,8.91105758 L20.2913144,9.80146667 C20.2916035,9.80146667 20.2916035,17.9495879 20.2916035,18.7055576 L7.80441842,25.8288303 L6.243448,24.9384212 L4.6827667,24.0480121 C8.84496899,21.6735879 13.0074604,19.2991636 17.1699518,16.9247394 L17.1699518,11.5822848 L15.6089814,10.6918758 L14.048011,11.5822848 L15.6089814,12.4724061 L15.6089814,16.0346182 C11.4467791,18.4090424 7.28457681,20.7837545 3.12179628,23.157603 L0.000144561069,21.3767848 L0.000144561069,14.2535121 L0.000144561069,7.13023939 L6.243448,3.56860303 L12.4870406,0.00696666667 Z M11.7066999,15.0264667 L13.2673812,15.0264667 L13.2673812,13.4802697 L11.7066999,13.4802697 L11.7066999,15.0264667 Z" id="Fill-19" fill="#FFFFFF" mask="url(#mask-2)"></path>
                        </g>
                    </g>
                </g>
            </g>
        </g>
    </g>
</svg>