<?xml version="1.0" encoding="UTF-8"?>
<svg width="652px" height="222px" viewBox="0 0 652 222" version="1.1" xmlns="http://www.w3.org/2000/svg" xmlns:xlink="http://www.w3.org/1999/xlink">
    <!-- Generator: Sketch 49.2 (51160) - http://www.bohemiancoding.com/sketch -->
    <title>Slice 1</title>
    <desc>Created with Sketch.</desc>
    <defs></defs>
    <g id="Page-1" stroke="none" stroke-width="1" fill="none" fill-rule="evenodd">
        <g id="virta-h" fill="#23AFFF" fill-rule="nonzero">
            <path d="M303.5097,62 L272,62 C273.83196,100.024 280.7934,122.434 301.3114,156.6 L336.1186,156.6 C355.7205,122.434 362.1324,100.024 365.2467,62 L333.9201,62 C333.3705,93.595 327.6916,113.432 318.715,131.802 C309.9216,113.432 304.4256,93.595 303.5097,62 Z" id="Shape"></path>
            <path d="M414.991,36.716 C414.991,47.002 408.579,53.615 397.587,53.615 C386.412,53.615 380,47.002 380,36.716 C380,26.613 386.412,20 397.587,20 C408.579,20 414.991,26.613 414.991,36.716 Z" id="Shape"></path>
            <polygon id="Shape" points="382 62 413.143 62 413.143 156.601 382 156.601"></polygon>
            <path d="M435,67.531 L435,156.804 L466.143,156.804 L466.143,87.369 C468.891,86.267 471.456,85.716 476.22,85.716 C480.799,85.716 485.012,86.267 488.493,87.553 L492.89,62.204 C489.043,60.918 481.349,60 473.47,60 C461.197,60 444.893,62.938 435,67.531 Z" id="Shape"></path>
            <path d="M564.851,157.459 L563.201,132.477 C561.37,132.845 558.255,133.212 554.225,133.212 C546.897,133.212 543.05,128.252 543.05,119.068 L543.05,86.922 L561.187,86.922 L561.187,62.124 L543.05,62.124 L543.05,41 L511.906,42.469 L511.906,62.124 L500,62.124 L500,86.922 L511.906,86.922 L511.906,119.435 C511.906,145.151 523.264,158.928 547.63,158.928 C553.676,158.928 560.27,158.377 564.851,157.459 Z" id="Shape"></path>
            <path d="M651.973,101.514 L651.973,151.293 C644.829,154.599 629.439,159.008 610.021,159.008 C583.823,159.008 571,146.149 571,129.25 C571,111.983 585.106,100.044 608.189,100.044 C612.219,100.044 618.264,100.412 621.746,100.962 L621.746,99.493 C621.746,89.574 615.883,85.716 605.807,85.716 C598.113,85.716 589.502,86.818 581.625,89.942 L576.313,65.695 C584.74,62.387 598.113,60 609.471,60 C637.866,60 651.973,75.43 651.973,101.514 Z M601.777,127.964 C601.777,133.843 605.807,136.965 613.319,136.965 C616.25,136.965 619.547,136.598 621.746,135.68 L621.746,120.066 C618.448,119.331 615.15,118.964 612.585,118.964 C606.723,118.964 601.777,121.719 601.777,127.964 Z" id="Shape"></path>
            <path d="M110.965,0 C117.68,27.259 136.59,31.0283 153.202,8.4187 C148.996,36.1775 165.027,46.9111 189.009,32.3933 C174.522,56.4255 185.234,72.49 212.935,68.2739 C190.373,84.9211 194.133,103.87 221.337,110.598 C194.133,117.326 190.373,136.274 212.935,152.921 C185.234,148.705 174.522,164.771 189.009,188.802 C165.027,174.285 148.996,185.019 153.202,212.777 C136.59,190.168 117.68,193.937 110.965,221.196 C104.252,193.937 85.342,190.168 68.729,212.777 C72.936,185.019 56.904,174.285 32.921,188.802 C47.409,164.771 36.698,148.705 8.9957,152.921 C31.559,136.274 27.797,117.326 0.5942,110.598 C27.797,103.87 31.559,84.9211 8.9957,68.2739 C36.698,72.49 47.409,56.4258 32.921,32.3933 C56.904,46.9111 72.936,36.1775 68.729,8.4187 C85.342,31.0283 104.252,27.259 110.965,0 Z M110.966,185 C151.973,185 185.215,151.689 185.215,110.598 C185.215,69.5066 151.973,36.1958 110.966,36.1958 C69.958,36.1958 36.716,69.5066 36.716,110.598 C36.716,151.689 69.958,185 110.966,185 Z" id="Shape"></path>
        </g>
    </g>
</svg>