<svg xmlns="http://www.w3.org/2000/svg" xmlns:xlink="http://www.w3.org/1999/xlink" width="360" height="200" viewBox="0 0 360 200">
  <defs>
    <filter id="audit-reports-a" width="135.4%" height="159.7%" x="-17.7%" y="-29.9%" filterUnits="objectBoundingBox">
      <feOffset in="SourceAlpha" result="shadowOffsetOuter1"/>
      <feGaussianBlur in="shadowOffsetOuter1" result="shadowBlurOuter1" stdDeviation="20"/>
      <feColorMatrix in="shadowBlurOuter1" result="shadowMatrixOuter1" values="0 0 0 0 0 0 0 0 0 0 0 0 0 0 0 0 0 0 0.27063519 0"/>
      <feMerge>
        <feMergeNode in="shadowMatrixOuter1"/>
        <feMergeNode in="SourceGraphic"/>
      </feMerge>
    </filter>
    <path id="audit-reports-c" d="M14.5460407,25.4330673 L11.8532639,22.2315462 C11.4518779,21.7677421 11.648208,21.8022547 11.7808399,21.833655 C12.316603,21.9614608 12.4256753,21.9824996 12.9972141,21.9900428 C13.0574221,21.9919799 13.1359541,22.0506678 13.1987798,22.1248305 L15.2667904,24.5876665 C15.3427048,24.6748501 15.4474142,24.7366082 15.5172204,24.7353713 L23.5807171,24.7794452 C23.6557588,24.7804127 23.7037506,24.7203665 23.7037506,24.6311309 L23.7037506,15.2083847 C23.7037506,15.1164986 23.6557588,15.0016077 23.5789719,14.9094919 L15.5189656,5.4473809 C15.4439239,5.35894491 15.3453225,5.30078935 15.2702808,5.3007054 L7.21201961,5.25795229 C7.13348755,5.25669325 7.08462316,5.31710839 7.08462316,5.40634397 L7.08462316,14.8290902 C7.08462316,14.9192092 7.13348755,15.0328477 7.21114703,15.1219441 L9.42051542,17.7167471 C10.6194381,19.030856 11.3532765,18.7489093 11.3532765,18.0306072 L11.3532765,8.72713623 C11.3532765,8.59549168 11.4579859,8.55387787 11.5880001,8.63056085 L12.6106619,9.23373168 C12.7380584,9.30887072 12.8436403,9.47451538 12.8436403,9.60615993 L12.8436403,18.9096309 C12.8436403,20.5291239 11.9728072,20.9449659 10.456266,20.0505027 C9.99030909,19.7756791 9.62295363,19.5590111 8.59854662,18.4432526 L6.48428925,15.9637424 C5.96248739,15.3502831 5.63876082,14.5877098 5.63876082,13.9754301 L5.63876082,4.55268392 C5.63876082,3.94040422 5.96248739,3.56058543 6.48428925,3.5635321 L14.5486585,3.60193608 C15.0591168,3.61056156 15.7371102,4.01044529 16.2432057,4.6013881 L24.3067023,14.0752764 C24.8293767,14.6892504 25.1539759,15.4514548 25.1539759,16.062851 L25.1539759,25.4855971 C25.1539759,26.0978769 24.8293767,26.4754139 24.3067023,26.4754867 L16.2432057,26.4331798 C15.9849225,26.4319251 15.6926087,26.3372669 15.3941869,26.1612563 C15.0975103,25.9871585 14.8043239,25.736486 14.5460407,25.4330673 Z M13.614127,15.6046878 C13.614127,15.4739268 13.7170913,15.4304002 13.8462329,15.5065685 L14.888964,16.1215763 C15.0050169,16.1900249 15.1027457,16.3324837 15.1201973,16.4576344 C15.2772614,17.6246326 15.745836,18.4443652 17.8810352,19.7037159 C19.5790727,20.7052265 20.3024402,20.7422396 20.3024402,19.8304464 C20.3024402,19.3038682 20.0982568,18.7938073 17.4578347,16.9740682 C15.2519566,15.4521506 13.8863715,14.152834 13.8863715,12.3663555 C13.8863715,10.7185898 15.2580647,10.5451462 17.5573086,11.9012512 C20.1410132,13.4251325 21.4184679,15.085957 21.5807675,17.1307283 C21.5868755,17.2005949 21.5633159,17.2511963 21.5188144,17.2753098 C21.4743129,17.2967727 21.4132324,17.2890198 21.347789,17.250421 L20.300695,16.6328399 C20.1924953,16.5690232 20.0973843,16.4351764 20.0746972,16.3148896 C19.8233946,15.0357638 19.2125898,14.3141483 17.5564361,13.337341 C15.7013345,12.2431932 15.4858076,12.7698796 15.4858076,13.2602335 C15.4858076,13.8548428 15.7406005,14.1782908 18.2440278,15.9896785 C20.7221504,17.7826072 21.9001312,18.9474188 21.9001312,20.7100422 C21.9001312,22.4894525 20.4359447,22.6445675 17.8810352,21.1376697 C14.3532009,19.0569362 13.614127,16.9803293 13.614127,15.6046878 Z"/>
    <filter id="audit-reports-b" width="284.5%" height="257.1%" x="-92.2%" y="-78.6%" filterUnits="objectBoundingBox">
      <feOffset in="SourceAlpha" result="shadowOffsetOuter1"/>
      <feGaussianBlur in="shadowOffsetOuter1" result="shadowBlurOuter1" stdDeviation="6"/>
      <feColorMatrix in="shadowBlurOuter1" values="0 0 0 0 0.180392157 0 0 0 0 0.8 0 0 0 0 0.443137255 0 0 0 0.0633491848 0"/>
    </filter>
    <polyline id="audit-reports-e" points="164.722 66.83 159.514 66.83 159.514 150.645 164.431 150.645"/>
    <filter id="audit-reports-d" width="349.6%" height="115.5%" x="-124.8%" y="-7.8%" filterUnits="objectBoundingBox">
      <feMorphology in="SourceAlpha" operator="dilate" radius=".5" result="shadowSpreadOuter1"/>
      <feOffset in="shadowSpreadOuter1" result="shadowOffsetOuter1"/>
      <feMorphology in="SourceAlpha" radius="1" result="shadowInner"/>
      <feOffset in="shadowInner" result="shadowInner"/>
      <feComposite in="shadowOffsetOuter1" in2="shadowInner" operator="out" result="shadowOffsetOuter1"/>
      <feGaussianBlur in="shadowOffsetOuter1" result="shadowBlurOuter1" stdDeviation="2"/>
      <feColorMatrix in="shadowBlurOuter1" values="0 0 0 0 0.180392157 0 0 0 0 0.8 0 0 0 0 0.443137255 0 0 0 1 0"/>
    </filter>
    <polyline id="audit-reports-g" points="159.268 108.039 116.904 136.38 101.909 127.693 101.909 111.576"/>
    <filter id="audit-reports-f" width="122.7%" height="145.9%" x="-11.3%" y="-22.9%" filterUnits="objectBoundingBox">
      <feMorphology in="SourceAlpha" operator="dilate" radius=".5" result="shadowSpreadOuter1"/>
      <feOffset in="shadowSpreadOuter1" result="shadowOffsetOuter1"/>
      <feMorphology in="SourceAlpha" radius="1" result="shadowInner"/>
      <feOffset in="shadowInner" result="shadowInner"/>
      <feComposite in="shadowOffsetOuter1" in2="shadowInner" operator="out" result="shadowOffsetOuter1"/>
      <feGaussianBlur in="shadowOffsetOuter1" result="shadowBlurOuter1" stdDeviation="2"/>
      <feColorMatrix in="shadowBlurOuter1" values="0 0 0 0 0.180392157 0 0 0 0 0.8 0 0 0 0 0.443137255 0 0 0 1 0"/>
    </filter>
  </defs>
  <g fill="none" fill-rule="evenodd" filter="url(#audit-reports-a)" transform="translate(11 12)">
    <rect width="338.225" height="191" fill="#222C3E" rx="5"/>
    <circle cx="11" cy="13" r="3" fill="#172234"/>
    <circle cx="21" cy="13" r="3" fill="#172234"/>
    <circle cx="31" cy="13" r="3" fill="#172234"/>
    <rect width="338.225" height="176" y="25" fill="#273143"/>
    <path fill="#45546E" d="M7.555,2.1 L7.555,9 L5.935,9 L5.935,6.11 L3.165,6.11 L3.165,9 L1.545,9 L1.545,2.1 L3.165,2.1 L3.165,4.77 L5.935,4.77 L5.935,2.1 L7.555,2.1 Z M13.375,7.69 L13.375,9 L8.815,9 L8.815,2.1 L13.285,2.1 L13.285,3.39 L10.425,3.39 L10.425,4.8 L13.125,4.8 L13.125,6.09 L10.425,6.09 L10.425,7.69 L13.375,7.69 Z M17.985,2.09 L20.585,9 L18.825,9 L18.335,7.61 L15.875,7.61 L15.385,9 L13.705,9 L16.305,2.09 L17.985,2.09 Z M16.245,6.35 L17.965,6.35 L17.105,3.87 L16.245,6.35 Z M25.175,7.66 L25.175,9 L21.175,9 L21.175,2.1 L22.785,2.1 L22.785,7.66 L25.175,7.66 Z M29.595,2.1 L29.595,3.38 L27.815,3.38 L27.815,9 L26.195,9 L26.195,3.38 L24.415,3.38 L24.415,2.1 L29.595,2.1 Z M36.275,2.1 L36.275,9 L34.655,9 L34.655,6.11 L31.885,6.11 L31.885,9 L30.265,9 L30.265,2.1 L31.885,2.1 L31.885,4.77 L34.655,4.77 L34.655,2.1 L36.275,2.1 Z M42.755,6.92 L43.295,8.18 C42.945,8.54 42.215,9.12 40.805,9.12 C38.775,9.12 37.185,7.78 37.185,5.56 C37.185,3.33 38.795,2 40.805,2 C42.225,2 42.995,2.59 43.175,2.78 L42.675,4.12 C42.545,3.95 41.805,3.4 40.895,3.4 C39.725,3.4 38.825,4.18 38.825,5.53 C38.825,6.88 39.765,7.65 40.895,7.65 C41.755,7.65 42.375,7.31 42.755,6.92 Z M50.805,5.56 C50.805,7.79 49.195,9.12 47.145,9.12 C45.095,9.12 43.485,7.79 43.485,5.56 C43.485,3.33 45.095,1.99 47.145,1.99 C49.195,1.99 50.805,3.33 50.805,5.56 Z M49.165,5.52 C49.165,4.21 48.295,3.37 47.145,3.37 C45.995,3.37 45.125,4.2 45.125,5.52 C45.125,6.84 45.995,7.68 47.145,7.68 C48.295,7.68 49.165,6.84 49.165,5.52 Z M54.175,5.69 L54.175,6.94 L51.385,6.94 L51.385,5.69 L54.175,5.69 Z M61.345,2.1 L61.345,9 L59.685,9 L56.655,4.32 C56.655,4.32 56.685,5.15 56.685,5.88 L56.685,9 L55.105,9 L55.105,2.1 L56.835,2.1 L59.795,6.74 C59.795,6.74 59.765,5.96 59.765,5.23 L59.765,2.1 L61.345,2.1 Z M69.575,5.56 C69.575,7.79 67.965,9.12 65.915,9.12 C63.865,9.12 62.255,7.79 62.255,5.56 C62.255,3.33 63.865,1.99 65.915,1.99 C67.965,1.99 69.575,3.33 69.575,5.56 Z M67.935,5.52 C67.935,4.21 67.065,3.37 65.915,3.37 C64.765,3.37 63.895,4.2 63.895,5.52 C63.895,6.84 64.765,7.68 65.915,7.68 C67.065,7.68 67.935,6.84 67.935,5.52 Z M76.605,5.55 C76.605,6.89 76.065,7.69 75.485,8.18 C74.915,8.66 74.025,9 72.825,9 L70.485,9 L70.485,2.1 L72.825,2.1 C74.025,2.1 74.915,2.44 75.485,2.93 C76.065,3.41 76.605,4.21 76.605,5.55 Z M74.965,5.55 C74.965,4.7 74.645,4.21 74.355,3.93 C74.065,3.66 73.585,3.44 72.915,3.44 L72.095,3.44 L72.095,7.63 L72.915,7.63 C73.585,7.63 74.065,7.41 74.355,7.13 C74.645,6.86 74.965,6.4 74.965,5.55 Z M82.075,7.69 L82.075,9 L77.515,9 L77.515,2.1 L81.985,2.1 L81.985,3.39 L79.125,3.39 L79.125,4.8 L81.825,4.8 L81.825,6.09 L79.125,6.09 L79.125,7.69 L82.075,7.69 Z M84.685,2.1 L84.685,8.86 C84.685,9.59 84.535,10.1 84.255,10.42 C83.995,10.72 83.565,10.93 83.005,10.93 C82.525,10.93 82.065,10.83 81.975,10.78 L82.035,9.59 C82.165,9.64 82.355,9.68 82.575,9.68 C82.965,9.68 83.075,9.38 83.075,8.88 L83.075,2.1 L84.685,2.1 Z M90.605,6.9 C90.605,7.56 90.295,8.16 89.795,8.55 C89.305,8.94 88.665,9.12 87.925,9.12 C86.925,9.12 86.035,8.6 85.475,8.08 L86.275,6.9 C86.775,7.42 87.545,7.77 88.075,7.77 C88.595,7.77 88.995,7.52 88.995,7.06 C88.995,6.59 88.485,6.41 88.185,6.3 C87.885,6.19 87.365,6.01 87.135,5.91 C86.965,5.83 86.615,5.7 86.315,5.41 C86.015,5.13 85.775,4.73 85.775,4.08 C85.775,3.42 86.095,2.9 86.495,2.57 C86.885,2.24 87.515,2.02 88.315,2.02 C89.115,2.02 90.035,2.4 90.505,2.87 L89.815,4 C89.415,3.6 88.795,3.3 88.275,3.3 C87.755,3.3 87.375,3.5 87.375,3.92 C87.375,4.34 87.765,4.5 88.075,4.62 C88.375,4.74 88.885,4.92 89.105,5.01 C89.295,5.08 89.755,5.26 90.065,5.57 C90.355,5.86 90.605,6.28 90.605,6.9 Z M97.045,2.09 L99.645,9 L97.885,9 L97.395,7.61 L94.935,7.61 L94.445,9 L92.765,9 L95.365,2.09 L97.045,2.09 Z M95.305,6.35 L97.025,6.35 L96.165,3.87 L95.305,6.35 Z M105.715,2.1 L105.715,6.12 C105.715,7.09 105.545,7.76 105.055,8.29 C104.575,8.81 103.825,9.11 102.825,9.11 C101.815,9.11 101.075,8.81 100.585,8.29 C100.105,7.76 99.935,7.09 99.935,6.12 L99.935,2.1 L101.565,2.1 L101.565,6.12 C101.565,6.61 101.605,6.99 101.835,7.27 C102.055,7.53 102.375,7.7 102.825,7.7 C103.275,7.7 103.595,7.53 103.815,7.27 C104.045,6.99 104.085,6.61 104.085,6.12 L104.085,2.1 L105.715,2.1 Z M113.045,5.55 C113.045,6.89 112.505,7.69 111.925,8.18 C111.355,8.66 110.465,9 109.265,9 L106.925,9 L106.925,2.1 L109.265,2.1 C110.465,2.1 111.355,2.44 111.925,2.93 C112.505,3.41 113.045,4.21 113.045,5.55 Z M111.405,5.55 C111.405,4.7 111.085,4.21 110.795,3.93 C110.505,3.66 110.025,3.44 109.355,3.44 L108.535,3.44 L108.535,7.63 L109.355,7.63 C110.025,7.63 110.505,7.41 110.795,7.13 C111.085,6.86 111.405,6.4 111.405,5.55 Z M115.575,2.1 L115.575,9 L113.955,9 L113.955,2.1 L115.575,2.1 Z M121.425,2.1 L121.425,3.38 L119.645,3.38 L119.645,9 L118.025,9 L118.025,3.38 L116.245,3.38 L116.245,2.1 L121.425,2.1 Z M128.065,7.66 L128.065,9 L124.065,9 L124.065,2.1 L125.675,2.1 L125.675,7.66 L128.065,7.66 Z M135.365,5.56 C135.365,7.79 133.755,9.12 131.705,9.12 C129.655,9.12 128.045,7.79 128.045,5.56 C128.045,3.33 129.655,1.99 131.705,1.99 C133.755,1.99 135.365,3.33 135.365,5.56 Z M133.725,5.52 C133.725,4.21 132.855,3.37 131.705,3.37 C130.555,3.37 129.685,4.2 129.685,5.52 C129.685,6.84 130.555,7.68 131.705,7.68 C132.855,7.68 133.725,6.84 133.725,5.52 Z M142.585,5.07 L142.585,7.93 C142.235,8.24 141.415,9.11 139.515,9.11 C137.605,9.11 135.925,7.85 135.925,5.55 C135.925,3.25 137.605,2 139.535,2 C141.365,2 142.155,2.96 142.375,3.2 L141.305,4.13 C141.015,3.81 140.475,3.34 139.535,3.34 C138.425,3.34 137.565,4.15 137.565,5.55 C137.565,6.95 138.445,7.76 139.565,7.76 C140.685,7.76 141.005,7.32 141.005,7.32 L141.005,6.3 L139.555,6.3 L139.555,5.07 L142.585,5.07 Z" transform="translate(94 7)"/>
    <g transform="translate(58 71)">
      <path fill="#D5E0F0" d="M56.2300426 48.2626752C56.2282474 48.9599198 55.7507154 49.6563073 54.7969979 50.1851332 54.7969979 50.1851332 54.2072055 19.7197173 54.2093901 18.9980689 54.2110952 18.4347931 54.8086669 17.0657543 54.8086669 17.0657543 55.1636639 16.8686601 55.2349067 16.3794826 55.4580764 16.1445445 55.8341812 15.7486066 56.2409192 15.5800301 56.2426093 15.1424392L56.2300426 48.2626752zM2.01285916 19.5420581C2.01085699 20.2299929 1.48863116 50.1835905 1.48863116 50.1835905.515614873 49.6470507.0309019633 48.9399495.0331460045 48.2328484L.0443662108 15.6868567C.0425254317 16.1699243.623929306 16.3272584 1.07798807 16.7562348 1.28816539 16.9548018 1.19239597 17.4678271 1.49985136 17.6375988 1.49985136 17.6375988 2.01459706 18.9449258 2.01285916 19.5420581zM32.7461438 32.3799647C32.744933 32.7513792 35.0785862 44.9335157 34.7773436 53.8317252 34.6065375 58.8770559 31.7226438 62.9893211 31.7226438 62.9893211 29.8030909 64.0555439 26.6511105 64.0555439 24.718991 62.9893211 24.718991 62.9893211 21.7731915 58.067045 21.6274413 52.164733 21.413095 43.4845462 23.9717787 32.6921681 23.9726874 32.3799647 23.9749008 31.6195344 24.7302112 30.443758 24.7302112 30.443758 25.666084 30.9598835 27.1300692 30.4275142 28.3594166 30.443758 29.66866 30.4610575 30.7443015 30.9934268 31.7352104 30.443758 31.7352104 30.443758 32.7484354 31.677049 32.7461438 32.3799647z"/>
      <path fill="#D5E0F0" d="M43.2656328 22.1845761C46.7733252 20.2380412 54.8085323 17.0658401 54.8085323 17.0658401 54.8085323 17.0658401 54.8116848 35.5839574 54.8085323 44.8893424 54.8053798 54.1947273 54.7973121 50.185219 54.7973121 50.185219L31.7227335 62.9893211 31.7353002 29.8699422C31.7353002 29.8699422 39.0822479 24.5060753 43.2656328 22.1845761zM15.1628532 23.8914864C18.5335381 25.7496539 24.7300317 30.443758 24.7300317 30.443758L24.7192603 62.9893211 1.48849652 50.1835048C1.48849652 50.1835048.536169817 44.7334912.537109262 42.008483.538048706 39.2834747 1.49971672 17.6375131 1.49971672 17.6375131 1.49971672 17.6375131 10.7900998 21.4809056 15.1628532 23.8914864z"/>
      <path fill="#E9F1FD" d="M54.7861816,13.7647415 C56.7183011,14.8309643 56.7290725,16.5747187 54.808622,17.6396559 L31.7353899,30.443758 C29.813593,31.5095523 26.6629591,31.5095523 24.729942,30.443758 L1.49962696,17.6375131 C-0.432941363,16.5725759 -0.442366336,14.8288216 1.47763536,13.7630273 L24.5517651,0.959782288 C26.4717668,-0.106440554 29.6241959,-0.106440554 31.5567642,0.959782288 L54.7861816,13.7647415 Z"/>
      <g transform="rotate(-60 21.396 4.627)">
        <use fill="black" filter="url(#audit-reports-b)" xlink:href="#audit-reports-c"/>
        <use fill="#2ECC71" xlink:href="#audit-reports-c"/>
      </g>
    </g>
    <g stroke-linecap="round">
      <use stroke="black" filter="url(#audit-reports-d)" xlink:href="#audit-reports-e"/>
      <use stroke="#2ECC71" xlink:href="#audit-reports-e"/>
    </g>
    <g stroke-linecap="round">
      <use stroke="black" filter="url(#audit-reports-f)" xlink:href="#audit-reports-g"/>
      <use stroke="#2ECC71" xlink:href="#audit-reports-g"/>
    </g>
    <g transform="translate(166 54)">
      <rect width="135" height="25" fill="#3A475E" rx="5"/>
      <g fill="#93B0D2" fill-rule="nonzero" transform="translate(7 7)">
        <path d="M5.5,8 C3.505,8 2,6.15771429 2,3.71428571 C2,1.98514286 2.39783333,0 5.5,0 C8.60216667,0 9,1.98514286 9,3.71428571 C9,6.15771429 7.495,8 5.5,8 Z M5.5,1.14285714 C3.73366667,1.14285714 3.16666667,1.76742857 3.16666667,3.71428571 C3.16666667,5.23828571 3.9845,6.85714286 5.5,6.85714286 C7.0155,6.85714286 7.83333333,5.23828571 7.83333333,3.71428571 C7.83333333,1.76742857 7.26633333,1.14285714 5.5,1.14285714 Z"/>
        <path d="M9.35,12 L1.65,12 C0.7557,12 0,10.985229 0,9.78434269 L0,8.38016987 L3.54475,6 L4.1547,6.92171344 L1.1,8.9728582 L1.1,9.78434269 C1.1,10.4623338 1.48665,10.8921713 1.65,10.8921713 L9.35,10.8921713 C9.51335,10.8921713 9.9,10.4623338 9.9,9.78434269 L9.9,8.9728582 L6.84475,6.92171344 L7.4547,6 L11,8.38016987 L11,9.78434269 C11,10.985229 10.2443,12 9.35,12 Z"/>
      </g>
      <path fill="#93B0D2" d="M5.85,6.92 L6.39,8.18 C6.04,8.54 5.31,9.12 3.9,9.12 C1.87,9.12 0.28,7.78 0.28,5.56 C0.28,3.33 1.89,2 3.9,2 C5.32,2 6.09,2.59 6.27,2.78 L5.77,4.12 C5.64,3.95 4.9,3.4 3.99,3.4 C2.82,3.4 1.92,4.18 1.92,5.53 C1.92,6.88 2.86,7.65 3.99,7.65 C4.85,7.65 5.47,7.31 5.85,6.92 Z M13.9,5.56 C13.9,7.79 12.29,9.12 10.24,9.12 C8.19,9.12 6.58,7.79 6.58,5.56 C6.58,3.33 8.19,1.99 10.24,1.99 C12.29,1.99 13.9,3.33 13.9,5.56 Z M12.26,5.52 C12.26,4.21 11.39,3.37 10.24,3.37 C9.09,3.37 8.22,4.2 8.22,5.52 C8.22,6.84 9.09,7.68 10.24,7.68 C11.39,7.68 12.26,6.84 12.26,5.52 Z M21.05,2.1 L21.05,9 L19.39,9 L16.36,4.32 C16.36,4.32 16.39,5.15 16.39,5.88 L16.39,9 L14.81,9 L14.81,2.1 L16.54,2.1 L19.5,6.74 C19.5,6.74 19.47,5.96 19.47,5.23 L19.47,2.1 L21.05,2.1 Z M26.62,2.1 L26.62,3.39 L23.92,3.39 L23.92,5.08 L26.46,5.08 L26.46,6.37 L23.92,6.37 L23.92,9 L22.31,9 L22.31,2.1 L26.62,2.1 Z M29.15,2.1 L29.15,9 L27.53,9 L27.53,2.1 L29.15,2.1 Z M36.72,5.07 L36.72,7.93 C36.37,8.24 35.55,9.11 33.65,9.11 C31.74,9.11 30.06,7.85 30.06,5.55 C30.06,3.25 31.74,2 33.67,2 C35.5,2 36.29,2.96 36.51,3.2 L35.44,4.13 C35.15,3.81 34.61,3.34 33.67,3.34 C32.56,3.34 31.7,4.15 31.7,5.55 C31.7,6.95 32.58,7.76 33.7,7.76 C34.82,7.76 35.14,7.32 35.14,7.32 L35.14,6.3 L33.69,6.3 L33.69,5.07 L36.72,5.07 Z M43.58,2.1 L43.58,6.12 C43.58,7.09 43.41,7.76 42.92,8.29 C42.44,8.81 41.69,9.11 40.69,9.11 C39.68,9.11 38.94,8.81 38.45,8.29 C37.97,7.76 37.8,7.09 37.8,6.12 L37.8,2.1 L39.43,2.1 L39.43,6.12 C39.43,6.61 39.47,6.99 39.7,7.27 C39.92,7.53 40.24,7.7 40.69,7.7 C41.14,7.7 41.46,7.53 41.68,7.27 C41.91,6.99 41.95,6.61 41.95,6.12 L41.95,2.1 L43.58,2.1 Z M48.5,6.15 L50.25,9 L48.37,9 L46.92,6.36 L46.41,6.36 L46.41,9 L44.79,9 L44.79,2.1 L47.27,2.1 C48.04,2.1 48.64,2.26 49.09,2.59 C49.55,2.93 49.85,3.48 49.85,4.17 C49.85,5.48 49.01,5.99 48.5,6.15 Z M48.22,4.23 C48.22,3.88 48.08,3.68 47.87,3.53 C47.67,3.38 47.41,3.35 47.04,3.35 L46.4,3.35 L46.4,5.12 L47.04,5.12 C47.41,5.12 47.67,5.08 47.87,4.93 C48.08,4.78 48.22,4.59 48.22,4.23 Z M55.35,7.69 L55.35,9 L50.79,9 L50.79,2.1 L55.26,2.1 L55.26,3.39 L52.4,3.39 L52.4,4.8 L55.1,4.8 L55.1,6.09 L52.4,6.09 L52.4,7.69 L55.35,7.69 Z M62.47,5.55 C62.47,6.89 61.93,7.69 61.35,8.18 C60.78,8.66 59.89,9 58.69,9 L56.35,9 L56.35,2.1 L58.69,2.1 C59.89,2.1 60.78,2.44 61.35,2.93 C61.93,3.41 62.47,4.21 62.47,5.55 Z M60.83,5.55 C60.83,4.7 60.51,4.21 60.22,3.93 C59.93,3.66 59.45,3.44 58.78,3.44 L57.96,3.44 L57.96,7.63 L58.78,7.63 C59.45,7.63 59.93,7.41 60.22,7.13 C60.51,6.86 60.83,6.4 60.83,5.55 Z" transform="translate(27 7)"/>
    </g>
    <g transform="translate(166 82)">
      <rect width="135" height="25" fill="#3A475E" rx="5"/>
      <g fill="#93B0D2" fill-rule="nonzero" transform="translate(7 7)">
        <path d="M5.5,8 C3.505,8 2,6.15771429 2,3.71428571 C2,1.98514286 2.39783333,0 5.5,0 C8.60216667,0 9,1.98514286 9,3.71428571 C9,6.15771429 7.495,8 5.5,8 Z M5.5,1.14285714 C3.73366667,1.14285714 3.16666667,1.76742857 3.16666667,3.71428571 C3.16666667,5.23828571 3.9845,6.85714286 5.5,6.85714286 C7.0155,6.85714286 7.83333333,5.23828571 7.83333333,3.71428571 C7.83333333,1.76742857 7.26633333,1.14285714 5.5,1.14285714 Z"/>
        <path d="M9.35,12 L1.65,12 C0.7557,12 0,10.985229 0,9.78434269 L0,8.38016987 L3.54475,6 L4.1547,6.92171344 L1.1,8.9728582 L1.1,9.78434269 C1.1,10.4623338 1.48665,10.8921713 1.65,10.8921713 L9.35,10.8921713 C9.51335,10.8921713 9.9,10.4623338 9.9,9.78434269 L9.9,8.9728582 L6.84475,6.92171344 L7.4547,6 L11,8.38016987 L11,9.78434269 C11,10.985229 10.2443,12 9.35,12 Z"/>
      </g>
      <path fill="#93B0D2" d="M5.29,6.9 C5.29,7.56 4.98,8.16 4.48,8.55 C3.99,8.94 3.35,9.12 2.61,9.12 C1.61,9.12 0.72,8.6 0.16,8.08 L0.96,6.9 C1.46,7.42 2.23,7.77 2.76,7.77 C3.28,7.77 3.68,7.52 3.68,7.06 C3.68,6.59 3.17,6.41 2.87,6.3 C2.57,6.19 2.05,6.01 1.82,5.91 C1.65,5.83 1.3,5.7 1,5.41 C0.7,5.13 0.46,4.73 0.46,4.08 C0.46,3.42 0.78,2.9 1.18,2.57 C1.57,2.24 2.2,2.02 3,2.02 C3.8,2.02 4.72,2.4 5.19,2.87 L4.5,4 C4.1,3.6 3.48,3.3 2.96,3.3 C2.44,3.3 2.06,3.5 2.06,3.92 C2.06,4.34 2.45,4.5 2.76,4.62 C3.06,4.74 3.57,4.92 3.79,5.01 C3.98,5.08 4.44,5.26 4.75,5.57 C5.04,5.86 5.29,6.28 5.29,6.9 Z M10.71,6.9 C10.71,7.56 10.4,8.16 9.9,8.55 C9.41,8.94 8.77,9.12 8.03,9.12 C7.03,9.12 6.14,8.6 5.58,8.08 L6.38,6.9 C6.88,7.42 7.65,7.77 8.18,7.77 C8.7,7.77 9.1,7.52 9.1,7.06 C9.1,6.59 8.59,6.41 8.29,6.3 C7.99,6.19 7.47,6.01 7.24,5.91 C7.07,5.83 6.72,5.7 6.42,5.41 C6.12,5.13 5.88,4.73 5.88,4.08 C5.88,3.42 6.2,2.9 6.6,2.57 C6.99,2.24 7.62,2.02 8.42,2.02 C9.22,2.02 10.14,2.4 10.61,2.87 L9.92,4 C9.52,3.6 8.9,3.3 8.38,3.3 C7.86,3.3 7.48,3.5 7.48,3.92 C7.48,4.34 7.87,4.5 8.18,4.62 C8.48,4.74 8.99,4.92 9.21,5.01 C9.4,5.08 9.86,5.26 10.17,5.57 C10.46,5.86 10.71,6.28 10.71,6.9 Z M17.58,2.1 L17.58,9 L15.96,9 L15.96,6.11 L13.19,6.11 L13.19,9 L11.57,9 L11.57,2.1 L13.19,2.1 L13.19,4.77 L15.96,4.77 L15.96,2.1 L17.58,2.1 Z M23.4,7.69 L23.4,9 L18.84,9 L18.84,2.1 L23.31,2.1 L23.31,3.39 L20.45,3.39 L20.45,4.8 L23.15,4.8 L23.15,6.09 L20.45,6.09 L20.45,7.69 L23.4,7.69 Z M30.52,5.55 C30.52,6.89 29.98,7.69 29.4,8.18 C28.83,8.66 27.94,9 26.74,9 L24.4,9 L24.4,2.1 L26.74,2.1 C27.94,2.1 28.83,2.44 29.4,2.93 C29.98,3.41 30.52,4.21 30.52,5.55 Z M28.88,5.55 C28.88,4.7 28.56,4.21 28.27,3.93 C27.98,3.66 27.5,3.44 26.83,3.44 L26.01,3.44 L26.01,7.63 L26.83,7.63 C27.5,7.63 27.98,7.41 28.27,7.13 C28.56,6.86 28.88,6.4 28.88,5.55 Z" transform="translate(27 7)"/>
    </g>
    <g transform="translate(166 110)">
      <rect width="135" height="25" fill="#3A475E" rx="5"/>
      <g fill="#93B0D2" fill-rule="nonzero" transform="translate(7 7)">
        <path d="M5.5,8 C3.505,8 2,6.15771429 2,3.71428571 C2,1.98514286 2.39783333,0 5.5,0 C8.60216667,0 9,1.98514286 9,3.71428571 C9,6.15771429 7.495,8 5.5,8 Z M5.5,1.14285714 C3.73366667,1.14285714 3.16666667,1.76742857 3.16666667,3.71428571 C3.16666667,5.23828571 3.9845,6.85714286 5.5,6.85714286 C7.0155,6.85714286 7.83333333,5.23828571 7.83333333,3.71428571 C7.83333333,1.76742857 7.26633333,1.14285714 5.5,1.14285714 Z"/>
        <path d="M9.35,12 L1.65,12 C0.7557,12 0,10.985229 0,9.78434269 L0,8.38016987 L3.54475,6 L4.1547,6.92171344 L1.1,8.9728582 L1.1,9.78434269 C1.1,10.4623338 1.48665,10.8921713 1.65,10.8921713 L9.35,10.8921713 C9.51335,10.8921713 9.9,10.4623338 9.9,9.78434269 L9.9,8.9728582 L6.84475,6.92171344 L7.4547,6 L11,8.38016987 L11,9.78434269 C11,10.985229 10.2443,12 9.35,12 Z"/>
      </g>
      <path fill="#93B0D2" d="M6.75,5.55 C6.75,6.89 6.21,7.69 5.63,8.18 C5.06,8.66 4.17,9 2.97,9 L0.63,9 L0.63,2.1 L2.97,2.1 C4.17,2.1 5.06,2.44 5.63,2.93 C6.21,3.41 6.75,4.21 6.75,5.55 Z M5.11,5.55 C5.11,4.7 4.79,4.21 4.5,3.93 C4.21,3.66 3.73,3.44 3.06,3.44 L2.24,3.44 L2.24,7.63 L3.06,7.63 C3.73,7.63 4.21,7.41 4.5,7.13 C4.79,6.86 5.11,6.4 5.11,5.55 Z M12.22,7.69 L12.22,9 L7.66,9 L7.66,2.1 L12.13,2.1 L12.13,3.39 L9.27,3.39 L9.27,4.8 L11.97,4.8 L11.97,6.09 L9.27,6.09 L9.27,7.69 L12.22,7.69 Z M18.21,4.27 C18.21,5.01 17.95,5.54 17.49,5.93 C17.03,6.31 16.4,6.45 15.69,6.45 L14.84,6.45 L14.84,9 L13.22,9 L13.22,2.1 L15.69,2.1 C16.4,2.1 17.03,2.24 17.49,2.62 C17.95,3 18.21,3.53 18.21,4.27 Z M16.57,4.27 C16.57,3.92 16.43,3.68 16.24,3.54 C16.04,3.4 15.81,3.35 15.46,3.35 L14.83,3.35 L14.83,5.2 L15.46,5.2 C15.81,5.2 16.04,5.15 16.24,5.01 C16.43,4.87 16.57,4.62 16.57,4.27 Z M23,7.66 L23,9 L19,9 L19,2.1 L20.61,2.1 L20.61,7.66 L23,7.66 Z M30.3,5.56 C30.3,7.79 28.69,9.12 26.64,9.12 C24.59,9.12 22.98,7.79 22.98,5.56 C22.98,3.33 24.59,1.99 26.64,1.99 C28.69,1.99 30.3,3.33 30.3,5.56 Z M28.66,5.52 C28.66,4.21 27.79,3.37 26.64,3.37 C25.49,3.37 24.62,4.2 24.62,5.52 C24.62,6.84 25.49,7.68 26.64,7.68 C27.79,7.68 28.66,6.84 28.66,5.52 Z M34.69,2.1 L36.49,2.1 L34.09,6.21 L34.09,9 L32.47,9 L32.47,6.21 L30.07,2.1 L31.87,2.1 L33.28,4.85 L34.69,2.1 Z M41.57,7.69 L41.57,9 L37.01,9 L37.01,2.1 L41.48,2.1 L41.48,3.39 L38.62,3.39 L38.62,4.8 L41.32,4.8 L41.32,6.09 L38.62,6.09 L38.62,7.69 L41.57,7.69 Z M48.69,5.55 C48.69,6.89 48.15,7.69 47.57,8.18 C47,8.66 46.11,9 44.91,9 L42.57,9 L42.57,2.1 L44.91,2.1 C46.11,2.1 47,2.44 47.57,2.93 C48.15,3.41 48.69,4.21 48.69,5.55 Z M47.05,5.55 C47.05,4.7 46.73,4.21 46.44,3.93 C46.15,3.66 45.67,3.44 45,3.44 L44.18,3.44 L44.18,7.63 L45,7.63 C45.67,7.63 46.15,7.41 46.44,7.13 C46.73,6.86 47.05,6.4 47.05,5.55 Z" transform="translate(27 7)"/>
    </g>
    <g transform="translate(166 138)">
      <rect width="135" height="25" fill="#3A475E" rx="5"/>
      <g fill="#93B0D2" fill-rule="nonzero" transform="translate(7 7)">
        <path d="M5.5,8 C3.505,8 2,6.15771429 2,3.71428571 C2,1.98514286 2.39783333,0 5.5,0 C8.60216667,0 9,1.98514286 9,3.71428571 C9,6.15771429 7.495,8 5.5,8 Z M5.5,1.14285714 C3.73366667,1.14285714 3.16666667,1.76742857 3.16666667,3.71428571 C3.16666667,5.23828571 3.9845,6.85714286 5.5,6.85714286 C7.0155,6.85714286 7.83333333,5.23828571 7.83333333,3.71428571 C7.83333333,1.76742857 7.26633333,1.14285714 5.5,1.14285714 Z"/>
        <path d="M9.35,12 L1.65,12 C0.7557,12 0,10.985229 0,9.78434269 L0,8.38016987 L3.54475,6 L4.1547,6.92171344 L1.1,8.9728582 L1.1,9.78434269 C1.1,10.4623338 1.48665,10.8921713 1.65,10.8921713 L9.35,10.8921713 C9.51335,10.8921713 9.9,10.4623338 9.9,9.78434269 L9.9,8.9728582 L6.84475,6.92171344 L7.4547,6 L11,8.38016987 L11,9.78434269 C11,10.985229 10.2443,12 9.35,12 Z"/>
      </g>
      <path fill="#93B0D2" d="M5.85,6.92 L6.39,8.18 C6.04,8.54 5.31,9.12 3.9,9.12 C1.87,9.12 0.28,7.78 0.28,5.56 C0.28,3.33 1.89,2 3.9,2 C5.32,2 6.09,2.59 6.27,2.78 L5.77,4.12 C5.64,3.95 4.9,3.4 3.99,3.4 C2.82,3.4 1.92,4.18 1.92,5.53 C1.92,6.88 2.86,7.65 3.99,7.65 C4.85,7.65 5.47,7.31 5.85,6.92 Z M10.84,6.15 L12.59,9 L10.71,9 L9.26,6.36 L8.75,6.36 L8.75,9 L7.13,9 L7.13,2.1 L9.61,2.1 C10.38,2.1 10.98,2.26 11.43,2.59 C11.89,2.93 12.19,3.48 12.19,4.17 C12.19,5.48 11.35,5.99 10.84,6.15 Z M10.56,4.23 C10.56,3.88 10.42,3.68 10.21,3.53 C10.01,3.38 9.75,3.35 9.38,3.35 L8.74,3.35 L8.74,5.12 L9.38,5.12 C9.75,5.12 10.01,5.08 10.21,4.93 C10.42,4.78 10.56,4.59 10.56,4.23 Z M17.69,7.69 L17.69,9 L13.13,9 L13.13,2.1 L17.6,2.1 L17.6,3.39 L14.74,3.39 L14.74,4.8 L17.44,4.8 L17.44,6.09 L14.74,6.09 L14.74,7.69 L17.69,7.69 Z M22.3,2.09 L24.9,9 L23.14,9 L22.65,7.61 L20.19,7.61 L19.7,9 L18.02,9 L20.62,2.09 L22.3,2.09 Z M20.56,6.35 L22.28,6.35 L21.42,3.87 L20.56,6.35 Z M29.18,2.1 L29.18,3.38 L27.4,3.38 L27.4,9 L25.78,9 L25.78,3.38 L24,3.38 L24,2.1 L29.18,2.1 Z M34.41,7.69 L34.41,9 L29.85,9 L29.85,2.1 L34.32,2.1 L34.32,3.39 L31.46,3.39 L31.46,4.8 L34.16,4.8 L34.16,6.09 L31.46,6.09 L31.46,7.69 L34.41,7.69 Z M41.53,5.55 C41.53,6.89 40.99,7.69 40.41,8.18 C39.84,8.66 38.95,9 37.75,9 L35.41,9 L35.41,2.1 L37.75,2.1 C38.95,2.1 39.84,2.44 40.41,2.93 C40.99,3.41 41.53,4.21 41.53,5.55 Z M39.89,5.55 C39.89,4.7 39.57,4.21 39.28,3.93 C38.99,3.66 38.51,3.44 37.84,3.44 L37.02,3.44 L37.02,7.63 L37.84,7.63 C38.51,7.63 38.99,7.41 39.28,7.13 C39.57,6.86 39.89,6.4 39.89,5.55 Z" transform="translate(27 7)"/>
    </g>
    <path fill="#2ECC71" d="M281.191151 67.1509943L284.730573 70.6904158C284.857629 70.8174719 285.023256 70.881 285.214407 70.881 285.405559 70.881 285.570618 70.8174719 285.698242 70.6904158L291.809416 64.5792416C291.936472 64.4391395 292 64.2865587 292 64.0954073 292 63.9042558 291.936472 63.738629 291.809416 63.6115729L290.841747 62.6439041C290.714124 62.503802 290.549064 62.440274 290.357913 62.440274 290.166761 62.440274 290.001134 62.503802 289.874078 62.6439041L285.214407 67.3035752 283.126489 65.2156568C282.998866 65.0755547 282.833806 65.0120267 282.642655 65.0120267 282.451503 65.0120267 282.285876 65.0755547 282.15882 65.2156568L281.191151 66.1833256C281.064095 66.3103817 281 66.4760085 281 66.66716 281 66.8583114 281.064095 67.0108922 281.191151 67.1509943M281.191151 94.1509943L284.730573 97.6904158C284.857629 97.8174719 285.023256 97.881 285.214407 97.881 285.405559 97.881 285.570618 97.8174719 285.698242 97.6904158L291.809416 91.5792416C291.936472 91.4391395 292 91.2865587 292 91.0954073 292 90.9042558 291.936472 90.738629 291.809416 90.6115729L290.841747 89.6439041C290.714124 89.503802 290.549064 89.440274 290.357913 89.440274 290.166761 89.440274 290.001134 89.503802 289.874078 89.6439041L285.214407 94.3035752 283.126489 92.2156568C282.998866 92.0755547 282.833806 92.0120267 282.642655 92.0120267 282.451503 92.0120267 282.285876 92.0755547 282.15882 92.2156568L281.191151 93.1833256C281.064095 93.3103817 281 93.4760085 281 93.66716 281 93.8583114 281.064095 94.0108922 281.191151 94.1509943M281.191151 123.150994L284.730573 126.690416C284.857629 126.817472 285.023256 126.881 285.214407 126.881 285.405559 126.881 285.570618 126.817472 285.698242 126.690416L291.809416 120.579242C291.936472 120.43914 292 120.286559 292 120.095407 292 119.904256 291.936472 119.738629 291.809416 119.611573L290.841747 118.643904C290.714124 118.503802 290.549064 118.440274 290.357913 118.440274 290.166761 118.440274 290.001134 118.503802 289.874078 118.643904L285.214407 123.303575 283.126489 121.215657C282.998866 121.075555 282.833806 121.012027 282.642655 121.012027 282.451503 121.012027 282.285876 121.075555 282.15882 121.215657L281.191151 122.183326C281.064095 122.310382 281 122.476009 281 122.66716 281 122.858311 281.064095 123.010892 281.191151 123.150994M281.191151 151.150994L284.730573 154.690416C284.857629 154.817472 285.023256 154.881 285.214407 154.881 285.405559 154.881 285.570618 154.817472 285.698242 154.690416L291.809416 148.579242C291.936472 148.43914 292 148.286559 292 148.095407 292 147.904256 291.936472 147.738629 291.809416 147.611573L290.841747 146.643904C290.714124 146.503802 290.549064 146.440274 290.357913 146.440274 290.166761 146.440274 290.001134 146.503802 289.874078 146.643904L285.214407 151.303575 283.126489 149.215657C282.998866 149.075555 282.833806 149.012027 282.642655 149.012027 282.451503 149.012027 282.285876 149.075555 282.15882 149.215657L281.191151 150.183326C281.064095 150.310382 281 150.476009 281 150.66716 281 150.858311 281.064095 151.010892 281.191151 151.150994"/>
  </g>
</svg>
