<svg xmlns="http://www.w3.org/2000/svg" width="360" height="200" viewBox="0 0 360 200">
  <defs>
    <filter id="role-based-access-a" width="135.4%" height="159.7%" x="-17.7%" y="-29.9%" filterUnits="objectBoundingBox">
      <feOffset in="SourceAlpha" result="shadowOffsetOuter1"/>
      <feGaussianBlur in="shadowOffsetOuter1" result="shadowBlurOuter1" stdDeviation="20"/>
      <feColorMatrix in="shadowBlurOuter1" result="shadowMatrixOuter1" values="0 0 0 0 0 0 0 0 0 0 0 0 0 0 0 0 0 0 0.27063519 0"/>
      <feMerge>
        <feMergeNode in="shadowMatrixOuter1"/>
        <feMergeNode in="SourceGraphic"/>
      </feMerge>
    </filter>
  </defs>
  <g fill="none" fill-rule="evenodd" filter="url(#role-based-access-a)" transform="translate(11 12)">
    <rect width="338.225" height="191" fill="#222C3E" rx="5"/>
    <circle cx="11" cy="13" r="3" fill="#172234"/>
    <circle cx="21" cy="13" r="3" fill="#172234"/>
    <circle cx="31" cy="13" r="3" fill="#172234"/>
    <rect width="338.225" height="176" y="25" fill="#273143"/>
    <path fill="#45546E" d="M6.8,2.1 L6.8,9 L5.18,9 L5.18,6.11 L2.41,6.11 L2.41,9 L0.79,9 L0.79,2.1 L2.41,2.1 L2.41,4.77 L5.18,4.77 L5.18,2.1 L6.8,2.1 Z M12.62,7.69 L12.62,9 L8.06,9 L8.06,2.1 L12.53,2.1 L12.53,3.39 L9.67,3.39 L9.67,4.8 L12.37,4.8 L12.37,6.09 L9.67,6.09 L9.67,7.69 L12.62,7.69 Z M17.23,2.09 L19.83,9 L18.07,9 L17.58,7.61 L15.12,7.61 L14.63,9 L12.95,9 L15.55,2.09 L17.23,2.09 Z M15.49,6.35 L17.21,6.35 L16.35,3.87 L15.49,6.35 Z M24.42,7.66 L24.42,9 L20.42,9 L20.42,2.1 L22.03,2.1 L22.03,7.66 L24.42,7.66 Z M28.84,2.1 L28.84,3.38 L27.06,3.38 L27.06,9 L25.44,9 L25.44,3.38 L23.66,3.38 L23.66,2.1 L28.84,2.1 Z M35.52,2.1 L35.52,9 L33.9,9 L33.9,6.11 L31.13,6.11 L31.13,9 L29.51,9 L29.51,2.1 L31.13,2.1 L31.13,4.77 L33.9,4.77 L33.9,2.1 L35.52,2.1 Z M42,6.92 L42.54,8.18 C42.19,8.54 41.46,9.12 40.05,9.12 C38.02,9.12 36.43,7.78 36.43,5.56 C36.43,3.33 38.04,2 40.05,2 C41.47,2 42.24,2.59 42.42,2.78 L41.92,4.12 C41.79,3.95 41.05,3.4 40.14,3.4 C38.97,3.4 38.07,4.18 38.07,5.53 C38.07,6.88 39.01,7.65 40.14,7.65 C41,7.65 41.62,7.31 42,6.92 Z M50.05,5.56 C50.05,7.79 48.44,9.12 46.39,9.12 C44.34,9.12 42.73,7.79 42.73,5.56 C42.73,3.33 44.34,1.99 46.39,1.99 C48.44,1.99 50.05,3.33 50.05,5.56 Z M48.41,5.52 C48.41,4.21 47.54,3.37 46.39,3.37 C45.24,3.37 44.37,4.2 44.37,5.52 C44.37,6.84 45.24,7.68 46.39,7.68 C47.54,7.68 48.41,6.84 48.41,5.52 Z M58.66,2.1 L58.66,6.12 C58.66,7.09 58.49,7.76 58,8.29 C57.52,8.81 56.77,9.11 55.77,9.11 C54.76,9.11 54.02,8.81 53.53,8.29 C53.05,7.76 52.88,7.09 52.88,6.12 L52.88,2.1 L54.51,2.1 L54.51,6.12 C54.51,6.61 54.55,6.99 54.78,7.27 C55,7.53 55.32,7.7 55.77,7.7 C56.22,7.7 56.54,7.53 56.76,7.27 C56.99,6.99 57.03,6.61 57.03,6.12 L57.03,2.1 L58.66,2.1 Z M64.53,6.9 C64.53,7.56 64.22,8.16 63.72,8.55 C63.23,8.94 62.59,9.12 61.85,9.12 C60.85,9.12 59.96,8.6 59.4,8.08 L60.2,6.9 C60.7,7.42 61.47,7.77 62,7.77 C62.52,7.77 62.92,7.52 62.92,7.06 C62.92,6.59 62.41,6.41 62.11,6.3 C61.81,6.19 61.29,6.01 61.06,5.91 C60.89,5.83 60.54,5.7 60.24,5.41 C59.94,5.13 59.7,4.73 59.7,4.08 C59.7,3.42 60.02,2.9 60.42,2.57 C60.81,2.24 61.44,2.02 62.24,2.02 C63.04,2.02 63.96,2.4 64.43,2.87 L63.74,4 C63.34,3.6 62.72,3.3 62.2,3.3 C61.68,3.3 61.3,3.5 61.3,3.92 C61.3,4.34 61.69,4.5 62,4.62 C62.3,4.74 62.81,4.92 63.03,5.01 C63.22,5.08 63.68,5.26 63.99,5.57 C64.28,5.86 64.53,6.28 64.53,6.9 Z M69.95,7.69 L69.95,9 L65.39,9 L65.39,2.1 L69.86,2.1 L69.86,3.39 L67,3.39 L67,4.8 L69.7,4.8 L69.7,6.09 L67,6.09 L67,7.69 L69.95,7.69 Z M74.66,6.15 L76.41,9 L74.53,9 L73.08,6.36 L72.57,6.36 L72.57,9 L70.95,9 L70.95,2.1 L73.43,2.1 C74.2,2.1 74.8,2.26 75.25,2.59 C75.71,2.93 76.01,3.48 76.01,4.17 C76.01,5.48 75.17,5.99 74.66,6.15 Z M74.38,4.23 C74.38,3.88 74.24,3.68 74.03,3.53 C73.83,3.38 73.57,3.35 73.2,3.35 L72.56,3.35 L72.56,5.12 L73.2,5.12 C73.57,5.12 73.83,5.08 74.03,4.93 C74.24,4.78 74.38,4.59 74.38,4.23 Z M81.61,6.9 C81.61,7.56 81.3,8.16 80.8,8.55 C80.31,8.94 79.67,9.12 78.93,9.12 C77.93,9.12 77.04,8.6 76.48,8.08 L77.28,6.9 C77.78,7.42 78.55,7.77 79.08,7.77 C79.6,7.77 80,7.52 80,7.06 C80,6.59 79.49,6.41 79.19,6.3 C78.89,6.19 78.37,6.01 78.14,5.91 C77.97,5.83 77.62,5.7 77.32,5.41 C77.02,5.13 76.78,4.73 76.78,4.08 C76.78,3.42 77.1,2.9 77.5,2.57 C77.89,2.24 78.52,2.02 79.32,2.02 C80.12,2.02 81.04,2.4 81.51,2.87 L80.82,4 C80.42,3.6 79.8,3.3 79.28,3.3 C78.76,3.3 78.38,3.5 78.38,3.92 C78.38,4.34 78.77,4.5 79.08,4.62 C79.38,4.74 79.89,4.92 80.11,5.01 C80.3,5.08 80.76,5.26 81.07,5.57 C81.36,5.86 81.61,6.28 81.61,6.9 Z" transform="translate(125 7)"/>
    <g transform="translate(20 60)">
      <rect width="85" height="85" fill="#3A475E" rx="5"/>
      <g transform="translate(20 58)">
        <rect width="46" height="3" y="1" fill="#45546E" rx="1.5"/>
        <rect width="46" height="3" y="7" fill="#45546E" rx="1.5"/>
        <rect width="46" height="3" y="13" fill="#45546E" rx="1.5"/>
        <rect width="26" height="3" y="1" fill="#2ECC71" rx="1.5"/>
        <rect width="10" height="3" y="7" fill="#2ECC71" rx="1.5"/>
        <rect width="40" height="3" y="13" fill="#2ECC71" rx="1.5"/>
        <rect width="1" height="5" x="25" fill="#2ECC71"/>
        <rect width="1" height="5" x="9" y="6" fill="#2ECC71"/>
        <rect width="1" height="5" x="39" y="12" fill="#2ECC71"/>
      </g>
      <g fill-rule="nonzero" transform="translate(21 26)">
        <path fill="#627699" d="M41,22 L34,22 L34,20 L41,20 C41.297,20 42,19.224 42,18 L42,16.535 L36.445,12.832 L37.554,11.168 L44,15.465 L44,18 C44,20.168 42.626,22 41,22 Z"/>
        <path fill="#627699" d="M35,13 C32.243,13 30,10.757 30,8 C30,5.243 32.243,3 35,3 C37.757,3 40,5.243 40,8 C40,10.757 37.757,13 35,13 Z M35,5 C33.346,5 32,6.346 32,8 C32,9.654 33.346,11 35,11 C36.654,11 38,9.654 38,8 C38,6.346 36.654,5 35,5 Z"/>
        <path fill="#93B0D2" d="M22,14 C18.58,14 16,10.776 16,6.5 C16,3.474 16.682,0 22,0 C27.318,0 28,3.474 28,6.5 C28,10.776 25.42,14 22,14 Z M22,2 C18.972,2 18,3.093 18,6.5 C18,9.167 19.402,12 22,12 C24.598,12 26,9.167 26,6.5 C26,3.093 25.028,2 22,2 Z"/>
        <path fill="#93B0D2" d="M29,22 L15,22 C13.374,22 12,20.168 12,18 L12,15.465 L18.445,11.168 L19.554,12.832 L14,16.535 L14,18 C14,19.224 14.703,20 15,20 L29,20 C29.297,20 30,19.224 30,18 L30,16.535 L24.445,12.832 L25.554,11.168 L32,15.465 L32,18 C32,20.168 30.626,22 29,22 Z"/>
        <path fill="#627699" d="M10,22 L3,22 C1.374,22 0,20.168 0,18 L0,15.465 L6.445,11.168 L7.554,12.832 L2,16.535 L2,18 C2,19.224 2.703,20 3,20 L10,20 L10,22 Z"/>
        <path fill="#627699" d="M9,13 C6.243,13 4,10.757 4,8 C4,5.243 6.243,3 9,3 C11.757,3 14,5.243 14,8 C14,10.757 11.757,13 9,13 Z M9,5 C7.346,5 6,6.346 6,8 C6,9.654 7.346,11 9,11 C10.654,11 12,9.654 12,8 C12,6.346 10.654,5 9,5 Z"/>
      </g>
      <path fill="#93B0D2" d="M8.56,5.56 C8.56,7.79 6.95,9.12 4.9,9.12 C2.85,9.12 1.24,7.79 1.24,5.56 C1.24,3.33 2.85,1.99 4.9,1.99 C6.95,1.99 8.56,3.33 8.56,5.56 Z M6.92,5.52 C6.92,4.21 6.05,3.37 4.9,3.37 C3.75,3.37 2.88,4.2 2.88,5.52 C2.88,6.84 3.75,7.68 4.9,7.68 C6.05,7.68 6.92,6.84 6.92,5.52 Z M16.8,2.1 L18.49,2.1 L16.49,9 L14.86,9 L13.55,4.27 L12.24,9 L10.61,9 L8.61,2.1 L10.3,2.1 L11.5,6.75 L12.74,2.1 L14.36,2.1 L15.61,6.75 L16.8,2.1 Z M25.33,2.1 L25.33,9 L23.67,9 L20.64,4.32 C20.64,4.32 20.67,5.15 20.67,5.88 L20.67,9 L19.09,9 L19.09,2.1 L20.82,2.1 L23.78,6.74 C23.78,6.74 23.75,5.96 23.75,5.23 L23.75,2.1 L25.33,2.1 Z M31.15,7.69 L31.15,9 L26.59,9 L26.59,2.1 L31.06,2.1 L31.06,3.39 L28.2,3.39 L28.2,4.8 L30.9,4.8 L30.9,6.09 L28.2,6.09 L28.2,7.69 L31.15,7.69 Z M35.86,6.15 L37.61,9 L35.73,9 L34.28,6.36 L33.77,6.36 L33.77,9 L32.15,9 L32.15,2.1 L34.63,2.1 C35.4,2.1 36,2.26 36.45,2.59 C36.91,2.93 37.21,3.48 37.21,4.17 C37.21,5.48 36.37,5.99 35.86,6.15 Z M35.58,4.23 C35.58,3.88 35.44,3.68 35.23,3.53 C35.03,3.38 34.77,3.35 34.4,3.35 L33.76,3.35 L33.76,5.12 L34.4,5.12 C34.77,5.12 35.03,5.08 35.23,4.93 C35.44,4.78 35.58,4.59 35.58,4.23 Z M42.81,6.9 C42.81,7.56 42.5,8.16 42,8.55 C41.51,8.94 40.87,9.12 40.13,9.12 C39.13,9.12 38.24,8.6 37.68,8.08 L38.48,6.9 C38.98,7.42 39.75,7.77 40.28,7.77 C40.8,7.77 41.2,7.52 41.2,7.06 C41.2,6.59 40.69,6.41 40.39,6.3 C40.09,6.19 39.57,6.01 39.34,5.91 C39.17,5.83 38.82,5.7 38.52,5.41 C38.22,5.13 37.98,4.73 37.98,4.08 C37.98,3.42 38.3,2.9 38.7,2.57 C39.09,2.24 39.72,2.02 40.52,2.02 C41.32,2.02 42.24,2.4 42.71,2.87 L42.02,4 C41.62,3.6 41,3.3 40.48,3.3 C39.96,3.3 39.58,3.5 39.58,3.92 C39.58,4.34 39.97,4.5 40.28,4.62 C40.58,4.74 41.09,4.92 41.31,5.01 C41.5,5.08 41.96,5.26 42.27,5.57 C42.56,5.86 42.81,6.28 42.81,6.9 Z" transform="translate(21 9)"/>
      <g transform="translate(106)">
        <rect width="85" height="85" fill="#3A475E" rx="5"/>
        <g transform="translate(20 58)">
          <rect width="46" height="3" y="1" fill="#45546E" rx="1.5"/>
          <rect width="46" height="3" y="7" fill="#45546E" rx="1.5"/>
          <rect width="46" height="3" y="13" fill="#45546E" rx="1.5"/>
          <rect width="26" height="3" y="1" fill="#2ECC71" rx="1.5"/>
          <rect width="10" height="3" y="7" fill="#2ECC71" rx="1.5"/>
          <rect width="40" height="3" y="13" fill="#2ECC71" rx="1.5"/>
          <rect width="1" height="5" x="25" fill="#2ECC71"/>
          <rect width="1" height="5" x="9" y="6" fill="#2ECC71"/>
          <rect width="1" height="5" x="39" y="12" fill="#2ECC71"/>
        </g>
        <g fill-rule="nonzero" transform="translate(21 26)">
          <path fill="#627699" d="M41,22 L34,22 L34,20 L41,20 C41.297,20 42,19.224 42,18 L42,16.535 L36.445,12.832 L37.554,11.168 L44,15.465 L44,18 C44,20.168 42.626,22 41,22 Z"/>
          <path fill="#627699" d="M35,13 C32.243,13 30,10.757 30,8 C30,5.243 32.243,3 35,3 C37.757,3 40,5.243 40,8 C40,10.757 37.757,13 35,13 Z M35,5 C33.346,5 32,6.346 32,8 C32,9.654 33.346,11 35,11 C36.654,11 38,9.654 38,8 C38,6.346 36.654,5 35,5 Z"/>
          <path fill="#93B0D2" d="M22,14 C18.58,14 16,10.776 16,6.5 C16,3.474 16.682,0 22,0 C27.318,0 28,3.474 28,6.5 C28,10.776 25.42,14 22,14 Z M22,2 C18.972,2 18,3.093 18,6.5 C18,9.167 19.402,12 22,12 C24.598,12 26,9.167 26,6.5 C26,3.093 25.028,2 22,2 Z"/>
          <path fill="#93B0D2" d="M29,22 L15,22 C13.374,22 12,20.168 12,18 L12,15.465 L18.445,11.168 L19.554,12.832 L14,16.535 L14,18 C14,19.224 14.703,20 15,20 L29,20 C29.297,20 30,19.224 30,18 L30,16.535 L24.445,12.832 L25.554,11.168 L32,15.465 L32,18 C32,20.168 30.626,22 29,22 Z"/>
          <path fill="#627699" d="M10,22 L3,22 C1.374,22 0,20.168 0,18 L0,15.465 L6.445,11.168 L7.554,12.832 L2,16.535 L2,18 C2,19.224 2.703,20 3,20 L10,20 L10,22 Z"/>
          <path fill="#627699" d="M9,13 C6.243,13 4,10.757 4,8 C4,5.243 6.243,3 9,3 C11.757,3 14,5.243 14,8 C14,10.757 11.757,13 9,13 Z M9,5 C7.346,5 6,6.346 6,8 C6,9.654 7.346,11 9,11 C10.654,11 12,9.654 12,8 C12,6.346 10.654,5 9,5 Z"/>
        </g>
        <path fill="#93B0D2" d="M6.85,5.55 C6.85,6.89 6.31,7.69 5.73,8.18 C5.16,8.66 4.27,9 3.07,9 L0.73,9 L0.73,2.1 L3.07,2.1 C4.27,2.1 5.16,2.44 5.73,2.93 C6.31,3.41 6.85,4.21 6.85,5.55 Z M5.21,5.55 C5.21,4.7 4.89,4.21 4.6,3.93 C4.31,3.66 3.83,3.44 3.16,3.44 L2.34,3.44 L2.34,7.63 L3.16,7.63 C3.83,7.63 4.31,7.41 4.6,7.13 C4.89,6.86 5.21,6.4 5.21,5.55 Z M12.32,7.69 L12.32,9 L7.76,9 L7.76,2.1 L12.23,2.1 L12.23,3.39 L9.37,3.39 L9.37,4.8 L12.07,4.8 L12.07,6.09 L9.37,6.09 L9.37,7.69 L12.32,7.69 Z M17.6,2.1 L19.31,2.1 L16.75,9 L15.21,9 L12.65,2.1 L14.37,2.1 L15.99,6.85 L17.6,2.1 Z M24.46,7.69 L24.46,9 L19.9,9 L19.9,2.1 L24.37,2.1 L24.37,3.39 L21.51,3.39 L21.51,4.8 L24.21,4.8 L24.21,6.09 L21.51,6.09 L21.51,7.69 L24.46,7.69 Z M29.46,7.66 L29.46,9 L25.46,9 L25.46,2.1 L27.07,2.1 L27.07,7.66 L29.46,7.66 Z M36.76,5.56 C36.76,7.79 35.15,9.12 33.1,9.12 C31.05,9.12 29.44,7.79 29.44,5.56 C29.44,3.33 31.05,1.99 33.1,1.99 C35.15,1.99 36.76,3.33 36.76,5.56 Z M35.12,5.52 C35.12,4.21 34.25,3.37 33.1,3.37 C31.95,3.37 31.08,4.2 31.08,5.52 C31.08,6.84 31.95,7.68 33.1,7.68 C34.25,7.68 35.12,6.84 35.12,5.52 Z M42.66,4.27 C42.66,5.01 42.4,5.54 41.94,5.93 C41.48,6.31 40.85,6.45 40.14,6.45 L39.29,6.45 L39.29,9 L37.67,9 L37.67,2.1 L40.14,2.1 C40.85,2.1 41.48,2.24 41.94,2.62 C42.4,3 42.66,3.53 42.66,4.27 Z M41.02,4.27 C41.02,3.92 40.88,3.68 40.69,3.54 C40.49,3.4 40.26,3.35 39.91,3.35 L39.28,3.35 L39.28,5.2 L39.91,5.2 C40.26,5.2 40.49,5.15 40.69,5.01 C40.88,4.87 41.02,4.62 41.02,4.27 Z M48.01,7.69 L48.01,9 L43.45,9 L43.45,2.1 L47.92,2.1 L47.92,3.39 L45.06,3.39 L45.06,4.8 L47.76,4.8 L47.76,6.09 L45.06,6.09 L45.06,7.69 L48.01,7.69 Z M52.72,6.15 L54.47,9 L52.59,9 L51.14,6.36 L50.63,6.36 L50.63,9 L49.01,9 L49.01,2.1 L51.49,2.1 C52.26,2.1 52.86,2.26 53.31,2.59 C53.77,2.93 54.07,3.48 54.07,4.17 C54.07,5.48 53.23,5.99 52.72,6.15 Z M52.44,4.23 C52.44,3.88 52.3,3.68 52.09,3.53 C51.89,3.38 51.63,3.35 51.26,3.35 L50.62,3.35 L50.62,5.12 L51.26,5.12 C51.63,5.12 51.89,5.08 52.09,4.93 C52.3,4.78 52.44,4.59 52.44,4.23 Z M59.67,6.9 C59.67,7.56 59.36,8.16 58.86,8.55 C58.37,8.94 57.73,9.12 56.99,9.12 C55.99,9.12 55.1,8.6 54.54,8.08 L55.34,6.9 C55.84,7.42 56.61,7.77 57.14,7.77 C57.66,7.77 58.06,7.52 58.06,7.06 C58.06,6.59 57.55,6.41 57.25,6.3 C56.95,6.19 56.43,6.01 56.2,5.91 C56.03,5.83 55.68,5.7 55.38,5.41 C55.08,5.13 54.84,4.73 54.84,4.08 C54.84,3.42 55.16,2.9 55.56,2.57 C55.95,2.24 56.58,2.02 57.38,2.02 C58.18,2.02 59.1,2.4 59.57,2.87 L58.88,4 C58.48,3.6 57.86,3.3 57.34,3.3 C56.82,3.3 56.44,3.5 56.44,3.92 C56.44,4.34 56.83,4.5 57.14,4.62 C57.44,4.74 57.95,4.92 58.17,5.01 C58.36,5.08 58.82,5.26 59.13,5.57 C59.42,5.86 59.67,6.28 59.67,6.9 Z" transform="translate(13 9)"/>
      </g>
      <g transform="translate(212)">
        <rect width="85" height="85" fill="#3A475E" rx="5"/>
        <g transform="translate(20 58)">
          <rect width="46" height="3" y="1" fill="#45546E" rx="1.5"/>
          <rect width="46" height="3" y="7" fill="#45546E" rx="1.5"/>
          <rect width="46" height="3" y="13" fill="#45546E" rx="1.5"/>
          <rect width="26" height="3" y="1" fill="#2ECC71" rx="1.5"/>
          <rect width="10" height="3" y="7" fill="#2ECC71" rx="1.5"/>
          <rect width="40" height="3" y="13" fill="#2ECC71" rx="1.5"/>
          <rect width="1" height="5" x="25" fill="#2ECC71"/>
          <rect width="1" height="5" x="9" y="6" fill="#2ECC71"/>
          <rect width="1" height="5" x="39" y="12" fill="#2ECC71"/>
        </g>
        <g fill-rule="nonzero" transform="translate(21 26)">
          <path fill="#627699" d="M41,22 L34,22 L34,20 L41,20 C41.297,20 42,19.224 42,18 L42,16.535 L36.445,12.832 L37.554,11.168 L44,15.465 L44,18 C44,20.168 42.626,22 41,22 Z"/>
          <path fill="#627699" d="M35,13 C32.243,13 30,10.757 30,8 C30,5.243 32.243,3 35,3 C37.757,3 40,5.243 40,8 C40,10.757 37.757,13 35,13 Z M35,5 C33.346,5 32,6.346 32,8 C32,9.654 33.346,11 35,11 C36.654,11 38,9.654 38,8 C38,6.346 36.654,5 35,5 Z"/>
          <path fill="#93B0D2" d="M22,14 C18.58,14 16,10.776 16,6.5 C16,3.474 16.682,0 22,0 C27.318,0 28,3.474 28,6.5 C28,10.776 25.42,14 22,14 Z M22,2 C18.972,2 18,3.093 18,6.5 C18,9.167 19.402,12 22,12 C24.598,12 26,9.167 26,6.5 C26,3.093 25.028,2 22,2 Z"/>
          <path fill="#93B0D2" d="M29,22 L15,22 C13.374,22 12,20.168 12,18 L12,15.465 L18.445,11.168 L19.554,12.832 L14,16.535 L14,18 C14,19.224 14.703,20 15,20 L29,20 C29.297,20 30,19.224 30,18 L30,16.535 L24.445,12.832 L25.554,11.168 L32,15.465 L32,18 C32,20.168 30.626,22 29,22 Z"/>
          <path fill="#627699" d="M10,22 L3,22 C1.374,22 0,20.168 0,18 L0,15.465 L6.445,11.168 L7.554,12.832 L2,16.535 L2,18 C2,19.224 2.703,20 3,20 L10,20 L10,22 Z"/>
          <path fill="#627699" d="M9,13 C6.243,13 4,10.757 4,8 C4,5.243 6.243,3 9,3 C11.757,3 14,5.243 14,8 C14,10.757 11.757,13 9,13 Z M9,5 C7.346,5 6,6.346 6,8 C6,9.654 7.346,11 9,11 C10.654,11 12,9.654 12,8 C12,6.346 10.654,5 9,5 Z"/>
        </g>
        <path fill="#93B0D2" d="M5.3,6.9 C5.3,7.56 4.99,8.16 4.49,8.55 C4,8.94 3.36,9.12 2.62,9.12 C1.62,9.12 0.73,8.6 0.17,8.08 L0.97,6.9 C1.47,7.42 2.24,7.77 2.77,7.77 C3.29,7.77 3.69,7.52 3.69,7.06 C3.69,6.59 3.18,6.41 2.88,6.3 C2.58,6.19 2.06,6.01 1.83,5.91 C1.66,5.83 1.31,5.7 1.01,5.41 C0.71,5.13 0.47,4.73 0.47,4.08 C0.47,3.42 0.79,2.9 1.19,2.57 C1.58,2.24 2.21,2.02 3.01,2.02 C3.81,2.02 4.73,2.4 5.2,2.87 L4.51,4 C4.11,3.6 3.49,3.3 2.97,3.3 C2.45,3.3 2.07,3.5 2.07,3.92 C2.07,4.34 2.46,4.5 2.77,4.62 C3.07,4.74 3.58,4.92 3.8,5.01 C3.99,5.08 4.45,5.26 4.76,5.57 C5.05,5.86 5.3,6.28 5.3,6.9 Z M9.62,2.09 L12.22,9 L10.46,9 L9.97,7.61 L7.51,7.61 L7.02,9 L5.34,9 L7.94,2.09 L9.62,2.09 Z M7.88,6.35 L9.6,6.35 L8.74,3.87 L7.88,6.35 Z M16.81,7.66 L16.81,9 L12.81,9 L12.81,2.1 L14.42,2.1 L14.42,7.66 L16.81,7.66 Z M22.1,7.69 L22.1,9 L17.54,9 L17.54,2.1 L22.01,2.1 L22.01,3.39 L19.15,3.39 L19.15,4.8 L21.85,4.8 L21.85,6.09 L19.15,6.09 L19.15,7.69 L22.1,7.69 Z M27.76,6.9 C27.76,7.56 27.45,8.16 26.95,8.55 C26.46,8.94 25.82,9.12 25.08,9.12 C24.08,9.12 23.19,8.6 22.63,8.08 L23.43,6.9 C23.93,7.42 24.7,7.77 25.23,7.77 C25.75,7.77 26.15,7.52 26.15,7.06 C26.15,6.59 25.64,6.41 25.34,6.3 C25.04,6.19 24.52,6.01 24.29,5.91 C24.12,5.83 23.77,5.7 23.47,5.41 C23.17,5.13 22.93,4.73 22.93,4.08 C22.93,3.42 23.25,2.9 23.65,2.57 C24.04,2.24 24.67,2.02 25.47,2.02 C26.27,2.02 27.19,2.4 27.66,2.87 L26.97,4 C26.57,3.6 25.95,3.3 25.43,3.3 C24.91,3.3 24.53,3.5 24.53,3.92 C24.53,4.34 24.92,4.5 25.23,4.62 C25.53,4.74 26.04,4.92 26.26,5.01 C26.45,5.08 26.91,5.26 27.22,5.57 C27.51,5.86 27.76,6.28 27.76,6.9 Z" transform="translate(29 9)"/>
      </g>
    </g>
  </g>
</svg>
