<svg xmlns="http://www.w3.org/2000/svg" xmlns:xlink="http://www.w3.org/1999/xlink" width="360" height="182" viewBox="0 0 360 182">
  <defs>
    <filter id="vuln-scanning-a" width="135.4%" height="287.5%" x="-17.7%" y="-93.8%" filterUnits="objectBoundingBox">
      <feOffset in="SourceAlpha" result="shadowOffsetOuter1"/>
      <feGaussianBlur in="shadowOffsetOuter1" result="shadowBlurOuter1" stdDeviation="20"/>
      <feColorMatrix in="shadowBlurOuter1" result="shadowMatrixOuter1" values="0 0 0 0 0 0 0 0 0 0 0 0 0 0 0 0 0 0 0.27063519 0"/>
      <feMerge>
        <feMergeNode in="shadowMatrixOuter1"/>
        <feMergeNode in="SourceGraphic"/>
      </feMerge>
    </filter>
    <rect id="vuln-scanning-b" width="338.225" height="64" rx="5"/>
  </defs>
  <g fill="none" fill-rule="evenodd" transform="translate(9 14)">
    <g transform="translate(21 85)">
      <path fill="#D5E0F0" d="M74.2261185 62.6774211C74.2237627 63.580577 73.5971151 64.4826227 72.3455867 65.1676223 72.3455867 65.1676223 71.5716239 25.7051139 71.5744906 24.7703472 71.5767282 24.0407239 72.3608995 22.2673786 72.3608995 22.2673786 72.8267491 22.0120782 72.9202383 21.378436 73.2130956 21.0741157 73.7066442 20.5612488 74.2403915 20.342888 74.2426093 19.7760671L74.2261185 62.6774211zM3.07890625 25.4749881C3.07627888 26.3660849 2.39098117 65.1656239 2.39098117 65.1656239 1.11412774 64.4706324.478056853 63.5547091.481001625 62.6387857L.495725489 20.4812629C.493309902 21.1069907 1.25626478 21.310789 1.85210937 21.8664512 2.12791732 22.1236594 2.00224264 22.7881921 2.40570503 23.0081011 2.40570503 23.0081011 3.08118683 24.7015098 3.07890625 25.4749881zM43.4090634 42.1042047C43.4076671 42.5269988 45.1321226 54.9309123 44.7614955 65.757626 44.471254 74.2361231 42.065962 81.7531622 42.065962 81.7531622 39.5470034 83.1342635 35.4107758 83.1342635 32.8753265 81.7531622 32.8753265 81.7531622 30.7167829 75.6755462 30.5316419 68.2767986 30.2480624 56.9441706 31.8947677 42.5152398 31.8959798 42.1042047 31.8988844 41.1192029 32.8900504 39.5961944 32.8900504 39.5961944 34.1181617 40.2647429 36.0392956 39.5751535 37.6525229 39.5961944 39.3705947 39.6186028 40.7821194 40.3081922 42.0824527 39.5961944 42.0824527 39.5961944 43.4120705 41.1937027 43.4090634 42.1042047z"/>
      <path fill="#D5E0F0" d="M57.2134012 28.8978985C61.8164167 26.37651 72.3607229 22.2674896 72.3607229 22.2674896 72.3607229 22.2674896 73.2795551 44.7644869 73.2756667 56.0939456 73.2717783 67.4234043 72.345999 65.1677333 72.345999 65.1677333L42.0660798 81.7531622 42.0825705 38.8529185C42.0825705 38.8529185 51.7236993 31.9049863 57.2134012 28.8978985zM20.335159 31.1088962C24.7583845 33.5158205 32.8898148 39.5961944 32.8898148 39.5961944L32.8756799 81.7531622 2.39080448 65.1655129 2.40552834 23.0079901C2.40552834 23.0079901 14.5969557 27.986419 20.335159 31.1088962z"/>
      <path fill="#E9F1FD" d="M72.3313929,17.9915057 C74.8668422,19.3726071 74.8809771,21.6313295 72.3608406,23.0107656 L42.0826883,39.5961944 C39.560785,40.9767407 35.4263242,40.9767407 32.889697,39.5961944 L2.40541055,23.0079901 C-0.130627654,21.628554 -0.142995699,19.3698315 2.37655178,17.9892853 L32.6558821,1.40496666 C35.1754295,0.023865281 39.3122462,0.023865281 41.8482844,1.40496666 L72.3313929,17.9915057 Z"/>
      <g transform="rotate(-55 30.501 -9.707)">
        <polygon fill="#FFA6A6" points="3.754 .614 .451 4.588 9.129 23.449 18.335 13.78 14.99 5.778"/>
        <path fill="#DC2B2B" fill-rule="nonzero" d="M9.08794291,23.6979317 C9.00697744,23.6534738 8.93001084,23.56212 8.87943273,23.4490303 L0.0664656073,4.74959525 C-0.0180509169,4.57790219 -0.0225660008,4.38746419 0.0563650472,4.29072539 L3.47147995,0.0637796812 C3.52548926,-0.00386924408 3.61060642,-0.0184628165 3.69997549,0.0236359014 L15.0845701,5.38652991 C15.1739392,5.42862863 15.2574478,5.52499726 15.3087181,5.64628397 L18.5499302,13.4152518 C18.624818,13.597418 18.6146946,13.7938482 18.5263087,13.8890643 L9.30032243,23.6799239 C9.24728795,23.7362765 9.16890838,23.7423896 9.08794291,23.6979317 Z M0.641970973,4.78588452 L9.10181166,22.7412576 L17.9581942,13.3429487 L14.9249712,6.08117861 L3.83783654,0.828476395 L0.641970973,4.78588452 Z"/>
        <path fill="#DC2B2B" fill-rule="nonzero" d="M18.0946788,13.8437806 L0.510353461,5.0445041 C0.35488251,4.96782821 0.228703187,4.74370136 0.228703187,4.54260042 C0.228703187,4.34149948 0.355030064,4.24155905 0.510682822,4.31789858 L18.1160872,13.0781768 C18.27174,13.1545163 18.3931976,13.3881048 18.387198,13.5995796 C18.3811983,13.8110545 18.2501497,13.9204565 18.0946788,13.8437806 Z"/>
        <path fill="#DC2B2B" fill-rule="nonzero" d="M9.24666101,23.2736174 C9.21724562,23.2587205 9.18732269,23.2383564 9.15867942,23.2119433 C9.00430126,23.0720333 8.92154893,22.8211979 8.97395485,22.652086 L12.6212502,10.5801399 C12.6753181,10.4068716 12.8481058,10.3740254 13.0039835,10.5088815 C13.1616691,10.6431203 13.2450462,10.8928845 13.1902174,11.0661508 L9.53145269,23.1577629 C9.48948536,23.2952554 9.37138229,23.33678 9.24666101,23.2736174 Z"/>
        <path fill="#DC2B2B" fill-rule="nonzero" d="M9.09856597,23.5698475 C8.9877317,23.5058066 8.88558489,23.3442175 8.85269534,23.1638572 L5.32581488,7.40492114 C5.28305258,7.18697212 5.36294435,7.01934685 5.50425006,7.03086258 C5.6461317,7.04111913 5.79502085,7.2286471 5.83764206,7.44687214 L9.35433021,23.2257477 C9.39495143,23.4478853 9.31561519,23.6144238 9.17723629,23.5971823 C9.15144175,23.5951146 9.12470613,23.5849515 9.09856597,23.5698475 Z"/>
        <path fill="#DC2B2B" fill-rule="nonzero" d="M5.7582317,7.48809462 C5.65941124,7.43603117 5.56553053,7.31027724 5.51936778,7.15380382 L3.57054808,0.44284463 C3.50476918,0.224846771 3.48416812,0.162253192 3.64900045,0.129509647 C3.81383277,0.0967661029 4.07187762,0.333294118 4.13809491,0.55176995 L6.00327176,7.07013952 C6.06820705,7.29114908 6.01186612,7.48854579 5.878348,7.51205055 C5.83997973,7.5183084 5.79904885,7.50959909 5.7582317,7.48809462 Z"/>
        <path fill="#DC2B2B" fill-rule="nonzero" d="M5.7000548,7.5720138 C5.64862044,7.54212102 5.59688793,7.48672518 5.55277099,7.4096724 C5.44441833,7.21940094 5.42395459,6.9674557 5.50739836,6.84623259 L8.73207006,2.62808223 C8.81709117,2.5034202 8.97394368,2.55585597 9.08279706,2.74428465 C9.19159841,2.93357787 9.2109915,3.18785736 9.12592574,3.31261673 L5.89963469,7.53429761 C5.8498433,7.60604977 5.77522808,7.61570324 5.7000548,7.5720138 Z"/>
        <path fill="#DC2B2B" fill-rule="nonzero" d="M12.7298696,11.0787966 C12.6513127,11.0347801 12.574715,10.9371807 12.5258121,10.8059972 L8.90656865,3.17167555 C8.82208175,2.95361718 8.84859048,2.7229483 8.9656,2.65545602 C9.08214149,2.58681486 9.24568919,2.70913777 9.33011932,2.92807223 L12.9476705,10.5659508 C13.0304624,10.7875719 13.0028348,11.0205925 12.8862942,11.0870992 C12.8388415,11.1144695 12.7841359,11.1092028 12.7298696,11.0787966 Z"/>
        <path fill="#DC2B2B" fill-rule="nonzero" d="M12.7673705,11.1368882 C12.7294553,11.1146407 12.6912592,11.0784242 12.655334,11.0281182 C12.5320738,10.8551898 12.3641596,10.8453779 12.4295953,10.6832295 L14.5766649,5.3933266 C14.6438132,5.22881798 14.7981193,5.23305732 14.9228788,5.40331944 C15.0470756,5.57418607 15.0933498,5.84582339 15.0266141,6.01083309 L12.9976083,11.0467827 C12.9502227,11.1620816 12.8598835,11.1911719 12.7673705,11.1368882 Z"/>
      </g>
      <path fill="#307AD1" fill-rule="nonzero" d="M68.2857143,38 L66.5714286,38 C66.2558571,38 66,38.2558571 66,38.5714286 C66,38.887 66.2558571,39.1428571 66.5714286,39.1428571 L68.2857143,39.1428571 C68.6014286,39.1428571 68.8571429,39.3987143 68.8571429,39.7142857 L68.8571429,41.4285714 C68.8571429,41.7441429 69.113,42 69.4285714,42 C69.7441429,42 70,41.7441429 70,41.4285714 L70,39.7142857 C70,38.7675714 69.2324286,38 68.2857143,38 Z M61.4285714,38 L59.7142857,38 C58.7675714,38 58,38.7675714 58,39.7142857 L58,41.4285714 C58,41.7441429 58.2558571,42 58.5714286,42 C58.887,42 59.1428571,41.7441429 59.1428571,41.4285714 L59.1428571,39.7142857 C59.1428571,39.3987143 59.3987143,39.1428571 59.7142857,39.1428571 L61.4285714,39.1428571 C61.7441429,39.1428571 62,38.887 62,38.5715714 C62,38.2558571 61.7441429,38 61.4285714,38 Z M69.4285714,46 C69.113,46 68.8571429,46.2558571 68.8571429,46.5714286 L68.8571429,48.2857143 C68.8571429,48.6014286 68.6014286,48.8571429 68.2857143,48.8571429 L66.5714286,48.8571429 C66.2558571,48.8571429 66,49.113 66,49.4285714 C66,49.7441429 66.2558571,50 66.5714286,50 L68.2857143,50 C69.2324286,50 70,49.2324286 70,48.2857143 L70,46.5714286 C70,46.2558571 69.7441429,46 69.4285714,46 Z M61.4284286,48.8571429 L59.7141429,48.8571429 C59.3985714,48.8571429 59.1427143,48.6014286 59.1427143,48.2857143 L59.1427143,46.5714286 C59.1427143,46.2558571 58.8868571,46 58.5714286,46 C58.2557143,46 58,46.2558571 58,46.5714286 L58,48.2857143 C58,49.2324286 58.7675714,50 59.7142857,50 L61.4285714,50 C61.7441429,50 62,49.7441429 62,49.4285714 C62,49.113 61.744,48.8571429 61.4284286,48.8571429 Z"/>
    </g>
    <polyline stroke="#307AD1" points="89.659 123.643 168.501 78.759 168.501 62.593"/>
    <g filter="url(#vuln-scanning-a)">
      <mask id="vuln-scanning-c" fill="white">
        <use xlink:href="#vuln-scanning-b"/>
      </mask>
      <use fill="#222C3E" xlink:href="#vuln-scanning-b"/>
      <circle cx="11" cy="13" r="3" fill="#172234" mask="url(#vuln-scanning-c)"/>
      <circle cx="21" cy="13" r="3" fill="#172234" mask="url(#vuln-scanning-c)"/>
      <circle cx="31" cy="13" r="3" fill="#172234" mask="url(#vuln-scanning-c)"/>
      <rect width="338.225" height="57" y="25" fill="#273143" mask="url(#vuln-scanning-c)"/>
      <path fill="#45546E" d="M100.395,9.1 L102.105,9.1 L99.545,16 L98.005,16 L95.445,9.1 L97.165,9.1 L98.785,13.85 L100.395,9.1 Z M108.425,9.1 L108.425,13.12 C108.425,14.09 108.255,14.76 107.765,15.29 C107.285,15.81 106.535,16.11 105.535,16.11 C104.525,16.11 103.785,15.81 103.295,15.29 C102.815,14.76 102.645,14.09 102.645,13.12 L102.645,9.1 L104.275,9.1 L104.275,13.12 C104.275,13.61 104.315,13.99 104.545,14.27 C104.765,14.53 105.085,14.7 105.535,14.7 C105.985,14.7 106.305,14.53 106.525,14.27 C106.755,13.99 106.795,13.61 106.795,13.12 L106.795,9.1 L108.425,9.1 Z M113.635,14.66 L113.635,16 L109.635,16 L109.635,9.1 L111.245,9.1 L111.245,14.66 L113.635,14.66 Z M120.605,9.1 L120.605,16 L118.945,16 L115.915,11.32 C115.915,11.32 115.945,12.15 115.945,12.88 L115.945,16 L114.365,16 L114.365,9.1 L116.095,9.1 L119.055,13.74 C119.055,13.74 119.025,12.96 119.025,12.23 L119.025,9.1 L120.605,9.1 Z M126.425,14.69 L126.425,16 L121.865,16 L121.865,9.1 L126.335,9.1 L126.335,10.39 L123.475,10.39 L123.475,11.8 L126.175,11.8 L126.175,13.09 L123.475,13.09 L123.475,14.69 L126.425,14.69 Z M131.135,13.15 L132.885,16 L131.005,16 L129.555,13.36 L129.045,13.36 L129.045,16 L127.425,16 L127.425,9.1 L129.905,9.1 C130.675,9.1 131.275,9.26 131.725,9.59 C132.185,9.93 132.485,10.48 132.485,11.17 C132.485,12.48 131.645,12.99 131.135,13.15 Z M130.855,11.23 C130.855,10.88 130.715,10.68 130.505,10.53 C130.305,10.38 130.045,10.35 129.675,10.35 L129.035,10.35 L129.035,12.12 L129.675,12.12 C130.045,12.12 130.305,12.08 130.505,11.93 C130.715,11.78 130.855,11.59 130.855,11.23 Z M137.035,9.09 L139.635,16 L137.875,16 L137.385,14.61 L134.925,14.61 L134.435,16 L132.755,16 L135.355,9.09 L137.035,9.09 Z M135.295,13.35 L137.015,13.35 L136.155,10.87 L135.295,13.35 Z M145.575,14.02 C145.575,14.78 145.255,15.23 144.815,15.55 C144.375,15.87 143.755,16 143.045,16 L140.225,16 L140.225,9.1 L142.575,9.1 C143.205,9.1 143.815,9.15 144.275,9.39 C144.735,9.63 145.155,10.08 145.155,10.84 C145.155,11.6 144.665,12.18 144.145,12.36 L144.145,12.38 C145.005,12.59 145.575,13.17 145.575,14.02 Z M143.565,11.08 C143.565,10.75 143.425,10.56 143.225,10.44 C143.035,10.32 142.855,10.3 142.505,10.3 L141.835,10.3 L141.835,11.89 L142.465,11.89 C142.825,11.89 143.035,11.87 143.225,11.74 C143.425,11.6 143.565,11.42 143.565,11.08 Z M143.935,13.89 C143.935,13.58 143.825,13.37 143.585,13.2 C143.345,13.03 143.075,13.01 142.725,13.01 L141.835,13.01 L141.835,14.77 L142.725,14.77 C143.075,14.77 143.345,14.75 143.585,14.58 C143.825,14.42 143.935,14.19 143.935,13.89 Z M148.075,9.1 L148.075,16 L146.455,16 L146.455,9.1 L148.075,9.1 Z M153.335,14.66 L153.335,16 L149.335,16 L149.335,9.1 L150.945,9.1 L150.945,14.66 L153.335,14.66 Z M155.685,9.1 L155.685,16 L154.065,16 L154.065,9.1 L155.685,9.1 Z M161.535,9.1 L161.535,10.38 L159.755,10.38 L159.755,16 L158.135,16 L158.135,10.38 L156.355,10.38 L156.355,9.1 L161.535,9.1 Z M166.085,9.1 L167.885,9.1 L165.485,13.21 L165.485,16 L163.865,16 L163.865,13.21 L161.465,9.1 L163.265,9.1 L164.675,11.85 L166.085,9.1 Z M175.035,13.9 C175.035,14.56 174.725,15.16 174.225,15.55 C173.735,15.94 173.095,16.12 172.355,16.12 C171.355,16.12 170.465,15.6 169.905,15.08 L170.705,13.9 C171.205,14.42 171.975,14.77 172.505,14.77 C173.025,14.77 173.425,14.52 173.425,14.06 C173.425,13.59 172.915,13.41 172.615,13.3 C172.315,13.19 171.795,13.01 171.565,12.91 C171.395,12.83 171.045,12.7 170.745,12.41 C170.445,12.13 170.205,11.73 170.205,11.08 C170.205,10.42 170.525,9.9 170.925,9.57 C171.315,9.24 171.945,9.02 172.745,9.02 C173.545,9.02 174.465,9.4 174.935,9.87 L174.245,11 C173.845,10.6 173.225,10.3 172.705,10.3 C172.185,10.3 171.805,10.5 171.805,10.92 C171.805,11.34 172.195,11.5 172.505,11.62 C172.805,11.74 173.315,11.92 173.535,12.01 C173.725,12.08 174.185,12.26 174.495,12.57 C174.785,12.86 175.035,13.28 175.035,13.9 Z M181.115,13.92 L181.655,15.18 C181.305,15.54 180.575,16.12 179.165,16.12 C177.135,16.12 175.545,14.78 175.545,12.56 C175.545,10.33 177.155,9 179.165,9 C180.585,9 181.355,9.59 181.535,9.78 L181.035,11.12 C180.905,10.95 180.165,10.4 179.255,10.4 C178.085,10.4 177.185,11.18 177.185,12.53 C177.185,13.88 178.125,14.65 179.255,14.65 C180.115,14.65 180.735,14.31 181.115,13.92 Z M186.005,9.09 L188.605,16 L186.845,16 L186.355,14.61 L183.895,14.61 L183.405,16 L181.725,16 L184.325,9.09 L186.005,9.09 Z M184.265,13.35 L185.985,13.35 L185.125,10.87 L184.265,13.35 Z M195.435,9.1 L195.435,16 L193.775,16 L190.745,11.32 C190.745,11.32 190.775,12.15 190.775,12.88 L190.775,16 L189.195,16 L189.195,9.1 L190.925,9.1 L193.885,13.74 C193.885,13.74 193.855,12.96 193.855,12.23 L193.855,9.1 L195.435,9.1 Z M202.375,13.15 L204.125,16 L202.245,16 L200.795,13.36 L200.285,13.36 L200.285,16 L198.665,16 L198.665,9.1 L201.145,9.1 C201.915,9.1 202.515,9.26 202.965,9.59 C203.425,9.93 203.725,10.48 203.725,11.17 C203.725,12.48 202.885,12.99 202.375,13.15 Z M202.095,11.23 C202.095,10.88 201.955,10.68 201.745,10.53 C201.545,10.38 201.285,10.35 200.915,10.35 L200.275,10.35 L200.275,12.12 L200.915,12.12 C201.285,12.12 201.545,12.08 201.745,11.93 C201.955,11.78 202.095,11.59 202.095,11.23 Z M209.225,14.69 L209.225,16 L204.665,16 L204.665,9.1 L209.135,9.1 L209.135,10.39 L206.275,10.39 L206.275,11.8 L208.975,11.8 L208.975,13.09 L206.275,13.09 L206.275,14.69 L209.225,14.69 Z M214.885,13.9 C214.885,14.56 214.575,15.16 214.075,15.55 C213.585,15.94 212.945,16.12 212.205,16.12 C211.205,16.12 210.315,15.6 209.755,15.08 L210.555,13.9 C211.055,14.42 211.825,14.77 212.355,14.77 C212.875,14.77 213.275,14.52 213.275,14.06 C213.275,13.59 212.765,13.41 212.465,13.3 C212.165,13.19 211.645,13.01 211.415,12.91 C211.245,12.83 210.895,12.7 210.595,12.41 C210.295,12.13 210.055,11.73 210.055,11.08 C210.055,10.42 210.375,9.9 210.775,9.57 C211.165,9.24 211.795,9.02 212.595,9.02 C213.395,9.02 214.315,9.4 214.785,9.87 L214.095,11 C213.695,10.6 213.075,10.3 212.555,10.3 C212.035,10.3 211.655,10.5 211.655,10.92 C211.655,11.34 212.045,11.5 212.355,11.62 C212.655,11.74 213.165,11.92 213.385,12.01 C213.575,12.08 214.035,12.26 214.345,12.57 C214.635,12.86 214.885,13.28 214.885,13.9 Z M221.475,9.1 L221.475,13.12 C221.475,14.09 221.305,14.76 220.815,15.29 C220.335,15.81 219.585,16.11 218.585,16.11 C217.575,16.11 216.835,15.81 216.345,15.29 C215.865,14.76 215.695,14.09 215.695,13.12 L215.695,9.1 L217.325,9.1 L217.325,13.12 C217.325,13.61 217.365,13.99 217.595,14.27 C217.815,14.53 218.135,14.7 218.585,14.7 C219.035,14.7 219.355,14.53 219.575,14.27 C219.805,13.99 219.845,13.61 219.845,13.12 L219.845,9.1 L221.475,9.1 Z M226.685,14.66 L226.685,16 L222.685,16 L222.685,9.1 L224.295,9.1 L224.295,14.66 L226.685,14.66 Z M231.105,9.1 L231.105,10.38 L229.325,10.38 L229.325,16 L227.705,16 L227.705,10.38 L225.925,10.38 L225.925,9.1 L231.105,9.1 Z M236.285,13.9 C236.285,14.56 235.975,15.16 235.475,15.55 C234.985,15.94 234.345,16.12 233.605,16.12 C232.605,16.12 231.715,15.6 231.155,15.08 L231.955,13.9 C232.455,14.42 233.225,14.77 233.755,14.77 C234.275,14.77 234.675,14.52 234.675,14.06 C234.675,13.59 234.165,13.41 233.865,13.3 C233.565,13.19 233.045,13.01 232.815,12.91 C232.645,12.83 232.295,12.7 231.995,12.41 C231.695,12.13 231.455,11.73 231.455,11.08 C231.455,10.42 231.775,9.9 232.175,9.57 C232.565,9.24 233.195,9.02 233.995,9.02 C234.795,9.02 235.715,9.4 236.185,9.87 L235.495,11 C235.095,10.6 234.475,10.3 233.955,10.3 C233.435,10.3 233.055,10.5 233.055,10.92 C233.055,11.34 233.445,11.5 233.755,11.62 C234.055,11.74 234.565,11.92 234.785,12.01 C234.975,12.08 235.435,12.26 235.745,12.57 C236.035,12.86 236.285,13.28 236.285,13.9 Z"/>
      <g transform="translate(11 32)">
        <rect width="316" height="25" fill="#3A475E" rx="5"/>
        <path fill="#F15C5C" d="M4.91,2.1 L6.62,2.1 L4.06,9 L2.52,9 L-0.04,2.1 L1.68,2.1 L3.3,6.85 L4.91,2.1 Z M12.94,2.1 L12.94,6.12 C12.94,7.09 12.77,7.76 12.28,8.29 C11.8,8.81 11.05,9.11 10.05,9.11 C9.04,9.11 8.3,8.81 7.81,8.29 C7.33,7.76 7.16,7.09 7.16,6.12 L7.16,2.1 L8.79,2.1 L8.79,6.12 C8.79,6.61 8.83,6.99 9.06,7.27 C9.28,7.53 9.6,7.7 10.05,7.7 C10.5,7.7 10.82,7.53 11.04,7.27 C11.27,6.99 11.31,6.61 11.31,6.12 L11.31,2.1 L12.94,2.1 Z M18.15,7.66 L18.15,9 L14.15,9 L14.15,2.1 L15.76,2.1 L15.76,7.66 L18.15,7.66 Z M25.12,2.1 L25.12,9 L23.46,9 L20.43,4.32 C20.43,4.32 20.46,5.15 20.46,5.88 L20.46,9 L18.88,9 L18.88,2.1 L20.61,2.1 L23.57,6.74 C23.57,6.74 23.54,5.96 23.54,5.23 L23.54,2.1 L25.12,2.1 Z M30.94,7.69 L30.94,9 L26.38,9 L26.38,2.1 L30.85,2.1 L30.85,3.39 L27.99,3.39 L27.99,4.8 L30.69,4.8 L30.69,6.09 L27.99,6.09 L27.99,7.69 L30.94,7.69 Z M35.65,6.15 L37.4,9 L35.52,9 L34.07,6.36 L33.56,6.36 L33.56,9 L31.94,9 L31.94,2.1 L34.42,2.1 C35.19,2.1 35.79,2.26 36.24,2.59 C36.7,2.93 37,3.48 37,4.17 C37,5.48 36.16,5.99 35.65,6.15 Z M35.37,4.23 C35.37,3.88 35.23,3.68 35.02,3.53 C34.82,3.38 34.56,3.35 34.19,3.35 L33.55,3.35 L33.55,5.12 L34.19,5.12 C34.56,5.12 34.82,5.08 35.02,4.93 C35.23,4.78 35.37,4.59 35.37,4.23 Z M41.55,2.09 L44.15,9 L42.39,9 L41.9,7.61 L39.44,7.61 L38.95,9 L37.27,9 L39.87,2.09 L41.55,2.09 Z M39.81,6.35 L41.53,6.35 L40.67,3.87 L39.81,6.35 Z M50.09,7.02 C50.09,7.78 49.77,8.23 49.33,8.55 C48.89,8.87 48.27,9 47.56,9 L44.74,9 L44.74,2.1 L47.09,2.1 C47.72,2.1 48.33,2.15 48.79,2.39 C49.25,2.63 49.67,3.08 49.67,3.84 C49.67,4.6 49.18,5.18 48.66,5.36 L48.66,5.38 C49.52,5.59 50.09,6.17 50.09,7.02 Z M48.08,4.08 C48.08,3.75 47.94,3.56 47.74,3.44 C47.55,3.32 47.37,3.3 47.02,3.3 L46.35,3.3 L46.35,4.89 L46.98,4.89 C47.34,4.89 47.55,4.87 47.74,4.74 C47.94,4.6 48.08,4.42 48.08,4.08 Z M48.45,6.89 C48.45,6.58 48.34,6.37 48.1,6.2 C47.86,6.03 47.59,6.01 47.24,6.01 L46.35,6.01 L46.35,7.77 L47.24,7.77 C47.59,7.77 47.86,7.75 48.1,7.58 C48.34,7.42 48.45,7.19 48.45,6.89 Z M52.59,2.1 L52.59,9 L50.97,9 L50.97,2.1 L52.59,2.1 Z M57.85,7.66 L57.85,9 L53.85,9 L53.85,2.1 L55.46,2.1 L55.46,7.66 L57.85,7.66 Z M60.2,2.1 L60.2,9 L58.58,9 L58.58,2.1 L60.2,2.1 Z M66.05,2.1 L66.05,3.38 L64.27,3.38 L64.27,9 L62.65,9 L62.65,3.38 L60.87,3.38 L60.87,2.1 L66.05,2.1 Z M70.6,2.1 L72.4,2.1 L70,6.21 L70,9 L68.38,9 L68.38,6.21 L65.98,2.1 L67.78,2.1 L69.19,4.85 L70.6,2.1 Z M79.2,2.1 L79.2,3.39 L76.5,3.39 L76.5,5.08 L79.04,5.08 L79.04,6.37 L76.5,6.37 L76.5,9 L74.89,9 L74.89,2.1 L79.2,2.1 Z M86.93,5.56 C86.93,7.79 85.32,9.12 83.27,9.12 C81.22,9.12 79.61,7.79 79.61,5.56 C79.61,3.33 81.22,1.99 83.27,1.99 C85.32,1.99 86.93,3.33 86.93,5.56 Z M85.29,5.52 C85.29,4.21 84.42,3.37 83.27,3.37 C82.12,3.37 81.25,4.2 81.25,5.52 C81.25,6.84 82.12,7.68 83.27,7.68 C84.42,7.68 85.29,6.84 85.29,5.52 Z M93.57,2.1 L93.57,6.12 C93.57,7.09 93.4,7.76 92.91,8.29 C92.43,8.81 91.68,9.11 90.68,9.11 C89.67,9.11 88.93,8.81 88.44,8.29 C87.96,7.76 87.79,7.09 87.79,6.12 L87.79,2.1 L89.42,2.1 L89.42,6.12 C89.42,6.61 89.46,6.99 89.69,7.27 C89.91,7.53 90.23,7.7 90.68,7.7 C91.13,7.7 91.45,7.53 91.67,7.27 C91.9,6.99 91.94,6.61 91.94,6.12 L91.94,2.1 L93.57,2.1 Z M101.02,2.1 L101.02,9 L99.36,9 L96.33,4.32 C96.33,4.32 96.36,5.15 96.36,5.88 L96.36,9 L94.78,9 L94.78,2.1 L96.51,2.1 L99.47,6.74 C99.47,6.74 99.44,5.96 99.44,5.23 L99.44,2.1 L101.02,2.1 Z M108.4,5.55 C108.4,6.89 107.86,7.69 107.28,8.18 C106.71,8.66 105.82,9 104.62,9 L102.28,9 L102.28,2.1 L104.62,2.1 C105.82,2.1 106.71,2.44 107.28,2.93 C107.86,3.41 108.4,4.21 108.4,5.55 Z M106.76,5.55 C106.76,4.7 106.44,4.21 106.15,3.93 C105.86,3.66 105.38,3.44 104.71,3.44 L103.89,3.44 L103.89,7.63 L104.71,7.63 C105.38,7.63 105.86,7.41 106.15,7.13 C106.44,6.86 106.76,6.4 106.76,5.55 Z" transform="translate(7 7)"/>
        <path fill="#93B0D2" d="M4.78125,8.92089844 C4.27148183,9.11132908 3.81445515,9.20654297 3.41015625,9.20654297 C2.87695046,9.20654297 2.38623271,9.06372213 1.93798828,8.77807617 C1.48974385,8.49243021 1.14111453,8.06762977 0.892089844,7.50366211 C0.643065161,6.93969445 0.518554688,6.30176137 0.518554688,5.58984375 C0.518554688,4.88378553 0.641600332,4.24951453 0.887695312,3.68701172 C1.13379029,3.12450891 1.48095479,2.69824364 1.92919922,2.40820312 C2.37744365,2.11816261 2.87109105,1.97314453 3.41015625,1.97314453 C3.81445515,1.97314453 4.27148183,2.06835842 4.78125,2.25878906 L4.78125,3.06738281 C4.30956795,2.79492051 3.84082264,2.65869141 3.375,2.65869141 C3.02343574,2.65869141 2.70190575,2.77880739 2.41040039,3.01904297 C2.11889503,3.25927854 1.88378996,3.61156994 1.70507812,4.07592773 C1.52636629,4.54028552 1.43701172,5.04491915 1.43701172,5.58984375 C1.43701172,6.14355746 1.52929595,6.65478281 1.71386719,7.12353516 C1.89843842,7.5922875 2.13427591,7.94311407 2.42138672,8.17602539 C2.70849753,8.40893671 3.02636544,8.52539062 3.375,8.52539062 C3.83789294,8.52539062 4.30663825,8.38916152 4.78125,8.11669922 L4.78125,8.92089844 Z M9.80859375,2.1796875 L10.6611328,2.1796875 L8.56054688,9 L7.65966797,9 L5.54589844,2.1796875 L6.48193359,2.1796875 L7.96289062,6.94335937 L8.15625,7.63769531 L8.32763672,6.94775391 L9.80859375,2.1796875 Z M15.3764648,8.24853516 L15.3764648,9 L11.6938477,9 L11.6938477,2.1796875 L15.3061523,2.1796875 L15.3061523,2.86523438 L12.581543,2.86523438 L12.581543,5.18115234 L15.0336914,5.18115234 L15.0336914,5.86230469 L12.581543,5.86230469 L12.581543,8.24853516 L15.3764648,8.24853516 Z M17.2001953,6.57861328 L17.2001953,5.89746094 L20.6103516,5.89746094 L20.6103516,6.57861328 L17.2001953,6.57861328 Z M26.3847656,9 L22.2583008,9 L22.2583008,8.24853516 C22.2583008,8.05517481 22.2978512,7.8479015 22.3769531,7.62670898 C22.4560551,7.40551647 22.6069325,7.15722794 22.8295898,6.88183594 C23.0522472,6.60644394 23.2880847,6.34130987 23.5371094,6.08642578 L24.0029297,5.61181641 C24.0966802,5.51513624 24.3017562,5.29101738 24.6181641,4.93945312 C24.9345719,4.58788887 25.14331,4.31836031 25.2443848,4.13085938 C25.3454595,3.94335844 25.3959961,3.75878997 25.3959961,3.57714844 C25.3959961,3.28417822 25.2788098,3.05786213 25.0444336,2.89819336 C24.8100574,2.73852459 24.5463882,2.65869141 24.253418,2.65869141 C24.0864249,2.65869141 23.8996592,2.67773418 23.6931152,2.71582031 C23.4865712,2.75390644 23.3056648,2.79858373 23.1503906,2.84985352 C22.9951164,2.9011233 22.7431658,3.00585858 22.3945312,3.1640625 L22.3945312,2.43896484 C22.7636737,2.26318271 23.1335431,2.14233431 23.5041504,2.07641602 C23.8747577,2.01049772 24.1801746,1.97753906 24.4204102,1.97753906 C24.7749041,1.97753906 25.1008286,2.03539981 25.3981934,2.15112305 C25.6955581,2.26684628 25.9167473,2.44628785 26.0617676,2.68945312 C26.2067878,2.9326184 26.2792969,3.19189315 26.2792969,3.46728516 C26.2792969,3.77490388 26.1862802,4.08984214 26.0002441,4.41210938 C25.8142081,4.73437661 25.4633815,5.14892325 24.9477539,5.65576172 L24.4467773,6.15234375 L24.0249023,6.56542969 C23.7582994,6.83496229 23.5429696,7.09570187 23.3789062,7.34765625 C23.2148429,7.59961063 23.1240235,7.8999006 23.1064453,8.24853516 L26.3847656,8.24853516 L26.3847656,9 Z M29.7026367,1.97753906 C30.4790078,1.97753906 31.0707987,2.30346354 31.4780273,2.95532227 C31.8852559,3.60718099 32.0888672,4.48534604 32.0888672,5.58984375 C32.0888672,6.69727116 31.8852559,7.57690104 31.4780273,8.22875977 C31.0707987,8.88061849 30.4790078,9.20654297 29.7026367,9.20654297 C28.9291954,9.20654297 28.3381368,8.88061849 27.9294434,8.22875977 C27.5207499,7.57690104 27.3164063,6.69727116 27.3164063,5.58984375 C27.3164063,4.48534604 27.5207499,3.60718099 27.9294434,2.95532227 C28.3381368,2.30346354 28.9291954,1.97753906 29.7026367,1.97753906 Z M28.3710938,7.04882812 L30.730957,3.35302734 C30.5815422,3.08056504 30.4196786,2.89672899 30.2453613,2.80151367 C30.0710441,2.70629835 29.8901377,2.65869141 29.7026367,2.65869141 C29.2133765,2.65869141 28.8413099,2.9304172 28.5864258,3.47387695 C28.3315417,4.0173367 28.2041016,4.70653879 28.2041016,5.54150391 C28.2041016,5.73193455 28.2099609,5.93701062 28.2216797,6.15673828 C28.2333985,6.37646594 28.2832027,6.67382625 28.3710938,7.04882812 Z M31.0253906,4.16601562 L28.6831055,7.88378906 C28.8090827,8.09765732 28.9541007,8.25805611 29.1181641,8.36499023 C29.2822274,8.47192436 29.465331,8.52539062 29.6674805,8.52539062 C30.2241239,8.52539062 30.6196277,8.21411444 30.8540039,7.59155273 C31.0883801,6.96899103 31.2055664,6.27832411 31.2055664,5.51953125 C31.2055664,5.05077891 31.1455084,4.59961154 31.0253906,4.16601562 Z M34.9013672,8.31884766 L34.9013672,3.05419922 C34.6552722,3.25048926 34.4165051,3.41747978 34.1850586,3.55517578 C33.9536121,3.69287178 33.6357442,3.83349538 33.2314453,3.97705078 L33.2314453,3.23876953 C33.8730501,2.96630723 34.4296851,2.61328342 34.9013672,2.1796875 L35.71875,2.1796875 L35.71875,8.31884766 L37.3579102,8.31884766 L37.3579102,9 L33.2314453,9 L33.2314453,8.31884766 L34.9013672,8.31884766 Z M40.9130859,9 L40.9130859,7.09277344 L38.0170898,7.09277344 L38.0170898,6.40722656 L40.9130859,2.1796875 L41.7348633,2.1796875 L41.7348633,6.40722656 L42.9960938,6.40722656 L42.9960938,7.09277344 L41.7348633,7.09277344 L41.7348633,9 L40.9130859,9 Z M40.9130859,6.40722656 L40.9130859,3.41894531 L38.887207,6.40722656 L40.9130859,6.40722656 Z M44.2045898,6.57861328 L44.2045898,5.89746094 L47.6147461,5.89746094 L47.6147461,6.57861328 L44.2045898,6.57861328 Z M51.3061523,1.97753906 C52.0825234,1.97753906 52.6743144,2.30346354 53.081543,2.95532227 C53.4887716,3.60718099 53.6923828,4.48534604 53.6923828,5.58984375 C53.6923828,6.69727116 53.4887716,7.57690104 53.081543,8.22875977 C52.6743144,8.88061849 52.0825234,9.20654297 51.3061523,9.20654297 C50.532711,9.20654297 49.9416524,8.88061849 49.532959,8.22875977 C49.1242655,7.57690104 48.9199219,6.69727116 48.9199219,5.58984375 C48.9199219,4.48534604 49.1242655,3.60718099 49.532959,2.95532227 C49.9416524,2.30346354 50.532711,1.97753906 51.3061523,1.97753906 Z M49.9746094,7.04882812 L52.3344727,3.35302734 C52.1850578,3.08056504 52.0231942,2.89672899 51.848877,2.80151367 C51.6745597,2.70629835 51.4936533,2.65869141 51.3061523,2.65869141 C50.8168921,2.65869141 50.4448255,2.9304172 50.1899414,3.47387695 C49.9350573,4.0173367 49.8076172,4.70653879 49.8076172,5.54150391 C49.8076172,5.73193455 49.8134765,5.93701062 49.8251953,6.15673828 C49.8369141,6.37646594 49.8867183,6.67382625 49.9746094,7.04882812 Z M52.6289063,4.16601562 L50.2866211,7.88378906 C50.4125983,8.09765732 50.5576164,8.25805611 50.7216797,8.36499023 C50.885743,8.47192436 51.0688466,8.52539062 51.2709961,8.52539062 C51.8276395,8.52539062 52.2231434,8.21411444 52.4575195,7.59155273 C52.6918957,6.96899103 52.809082,6.27832411 52.809082,5.51953125 C52.809082,5.05077891 52.749024,4.59961154 52.6289063,4.16601562 Z M56.5048828,8.31884766 L56.5048828,3.05419922 C56.2587878,3.25048926 56.0200207,3.41747978 55.7885742,3.55517578 C55.5571277,3.69287178 55.2392598,3.83349538 54.8349609,3.97705078 L54.8349609,3.23876953 C55.4765657,2.96630723 56.0332008,2.61328342 56.5048828,2.1796875 L57.3222656,2.1796875 L57.3222656,8.31884766 L58.9614258,8.31884766 L58.9614258,9 L54.8349609,9 L54.8349609,8.31884766 L56.5048828,8.31884766 Z M60.6928711,5.80078125 C60.9038096,5.48730312 61.1652816,5.23169044 61.4772949,5.03393555 C61.7893082,4.83618065 62.1328106,4.73730469 62.5078125,4.73730469 C62.8623065,4.73730469 63.1984847,4.8237296 63.5163574,4.99658203 C63.8342301,5.16943446 64.0766593,5.41039885 64.2436523,5.71948242 C64.4106454,6.028566 64.4941406,6.38818154 64.4941406,6.79833984 C64.4941406,7.44580402 64.2868673,8.00903081 63.8723145,8.48803711 C63.4577616,8.96704341 62.9121128,9.20654297 62.2353516,9.20654297 C61.4384726,9.20654297 60.8430195,8.87329435 60.4489746,8.20678711 C60.0549297,7.54027987 59.8579102,6.69287624 59.8579102,5.66455078 C59.8579102,4.52782635 60.1083959,3.62915369 60.609375,2.96850586 C61.1103541,2.30785802 61.7885699,1.97753906 62.644043,1.97753906 C63.1040062,1.97753906 63.5507791,2.0449212 63.984375,2.1796875 L63.984375,3.00585938 C63.4980444,2.77441291 63.0395529,2.65869141 62.6088867,2.65869141 C61.9995087,2.65869141 61.5278337,2.93847376 61.1938477,3.49804688 C60.8598616,4.05761999 60.6928711,4.76659727 60.6928711,5.625 L60.6928711,5.80078125 Z M62.296875,8.52539062 C62.5166027,8.52539062 62.7377919,8.46020573 62.9604492,8.32983398 C63.1831066,8.19946224 63.3581537,7.99878065 63.4855957,7.7277832 C63.6130377,7.45678575 63.6767578,7.16162269 63.6767578,6.84228516 C63.6767578,6.42626745 63.5690929,6.08496227 63.3537598,5.81835937 C63.1384267,5.55175648 62.831545,5.41845703 62.4331055,5.41845703 C62.0200175,5.41845703 61.6809095,5.5729965 61.4157715,5.88208008 C61.1506334,6.19116365 61.0180664,6.56689232 61.0180664,7.00927734 C61.0180664,7.45459207 61.1477038,7.8186021 61.4069824,8.10131836 C61.6662611,8.38403462 61.962889,8.52539062 62.296875,8.52539062 Z M67.5087891,1.97753906 C68.2851601,1.97753906 68.8769511,2.30346354 69.2841797,2.95532227 C69.6914083,3.60718099 69.8950195,4.48534604 69.8950195,5.58984375 C69.8950195,6.69727116 69.6914083,7.57690104 69.2841797,8.22875977 C68.8769511,8.88061849 68.2851601,9.20654297 67.5087891,9.20654297 C66.7353477,9.20654297 66.1442892,8.88061849 65.7355957,8.22875977 C65.3269023,7.57690104 65.1225586,6.69727116 65.1225586,5.58984375 C65.1225586,4.48534604 65.3269023,3.60718099 65.7355957,2.95532227 C66.1442892,2.30346354 66.7353477,1.97753906 67.5087891,1.97753906 Z M66.1772461,7.04882812 L68.5371094,3.35302734 C68.3876946,3.08056504 68.2258309,2.89672899 68.0515137,2.80151367 C67.8771964,2.70629835 67.69629,2.65869141 67.5087891,2.65869141 C67.0195288,2.65869141 66.6474622,2.9304172 66.3925781,3.47387695 C66.137694,4.0173367 66.0102539,4.70653879 66.0102539,5.54150391 C66.0102539,5.73193455 66.0161132,5.93701062 66.027832,6.15673828 C66.0395508,6.37646594 66.089355,6.67382625 66.1772461,7.04882812 Z M68.831543,4.16601562 L66.4892578,7.88378906 C66.615235,8.09765732 66.7602531,8.25805611 66.9243164,8.36499023 C67.0883797,8.47192436 67.2714834,8.52539062 67.4736328,8.52539062 C68.0302762,8.52539062 68.4257801,8.21411444 68.6601562,7.59155273 C68.8945324,6.96899103 69.0117188,6.27832411 69.0117188,5.51953125 C69.0117188,5.05077891 68.9516608,4.59961154 68.831543,4.16601562 Z M80.3232422,10.6347656 C79.5117147,10.5849607 78.8276395,10.3557149 78.2709961,9.94702148 C77.7143527,9.53832803 77.2697771,8.98681988 76.9372559,8.29248047 C76.6047347,7.59814106 76.4384766,6.90234724 76.4384766,6.20507812 C76.4384766,5.50780901 76.6047347,4.81201519 76.9372559,4.11767578 C77.2697771,3.42333637 77.7143527,2.87182822 78.2709961,2.46313477 C78.8276395,2.05444132 79.5117147,1.82373073 80.3232422,1.77099609 L80.3232422,2.45654297 C79.7109344,2.51220731 79.1843284,2.7180158 78.7434082,3.07397461 C78.302488,3.42993342 77.9560559,3.88329803 77.7041016,4.43408203 C77.4521472,4.98486604 77.3261719,5.57519216 77.3261719,6.20507812 C77.3261719,6.83496409 77.4521472,7.42529021 77.7041016,7.97607422 C77.9560559,8.52685822 78.302488,8.97949042 78.7434082,9.33398438 C79.1843284,9.68847833 79.7109344,9.89501924 80.3232422,9.95361328 L80.3232422,10.6347656 Z M81.5668945,9 L81.5668945,2.1796875 L82.4545898,2.1796875 L82.4545898,5.11523438 L84.9770508,5.11523438 L84.9770508,2.1796875 L85.8603516,2.1796875 L85.8603516,9 L84.9770508,9 L84.9770508,5.79638672 L82.4545898,5.79638672 L82.4545898,9 L81.5668945,9 Z M91.1777344,8.67480469 C90.5244108,8.98535312 89.9062529,9.140625 89.3232422,9.140625 C88.8808572,9.140625 88.4853533,9.03076282 88.1367188,8.81103516 C87.7880842,8.5913075 87.5090343,8.27710165 87.2995605,7.8684082 C87.0900868,7.45971475 86.9853516,7.02246327 86.9853516,6.55664062 C86.9853516,6.1083962 87.0849599,5.67773644 87.2841797,5.26464844 C87.4833994,4.85156043 87.761717,4.53003045 88.1191406,4.30004883 C88.4765643,4.07006721 88.8749978,3.95507813 89.3144531,3.95507813 C89.8974639,3.95507813 90.3654768,4.16308386 90.7185059,4.57910156 C91.071535,4.99511927 91.2480469,5.63671441 91.2480469,6.50390625 L91.2480469,6.6796875 L87.8642578,6.6796875 C87.8642578,7.01953295 87.935302,7.33007672 88.0773926,7.61132812 C88.2194831,7.89257953 88.4062488,8.10351492 88.6376953,8.24414062 C88.8691418,8.38476633 89.132811,8.45507812 89.4287109,8.45507812 C89.9560573,8.45507812 90.5390593,8.27929863 91.1777344,7.92773437 L91.1777344,8.67480469 Z M87.9125977,6.06884766 L90.3603516,6.06884766 L90.3603516,5.95019531 C90.3603516,5.54882612 90.262208,5.22949337 90.065918,4.9921875 C89.8696279,4.75488163 89.6074235,4.63623047 89.2792969,4.63623047 C88.9482405,4.63623047 88.6618664,4.75707887 88.420166,4.9987793 C88.1784656,5.24047972 88.0092778,5.59716561 87.9125977,6.06884766 Z M95.7216797,7.89697266 C95.472655,8.30713096 95.1730975,8.6162099 94.822998,8.82421875 C94.4728986,9.0322276 94.1513687,9.13623047 93.8583984,9.13623047 C93.4482401,9.13623047 93.0798356,8.95898615 92.7531738,8.60449219 C92.426512,8.24999823 92.2631836,7.71240595 92.2631836,6.99169922 C92.2631836,6.423337 92.3715809,5.91577372 92.5883789,5.46899414 C92.8051769,5.02221456 93.095213,4.66919075 93.4584961,4.40991211 C93.8217792,4.15063347 94.2714817,4.02099609 94.8076172,4.02099609 C94.9628914,4.02099609 95.1972641,4.03710921 95.5107422,4.06933594 C95.5576174,4.07519534 95.6279292,4.08251949 95.7216797,4.09130859 L96.543457,4.09130859 L96.543457,7.55859375 C96.543457,8.15039358 96.6049799,8.63085753 96.7280273,9 L95.8754883,9 C95.8110348,8.7304674 95.7597658,8.3627953 95.7216797,7.89697266 Z M95.7216797,6.92578125 L95.7216797,4.82080078 C95.4316392,4.74462853 95.1621106,4.70654297 94.9130859,4.70654297 C94.4091772,4.70654297 93.9895036,4.90136524 93.6540527,5.29101562 C93.3186018,5.68066601 93.1508789,6.21093415 93.1508789,6.88183594 C93.1508789,7.36816649 93.2424307,7.73510618 93.4255371,7.98266602 C93.6086435,8.23022585 93.8173816,8.35400391 94.0517578,8.35400391 C94.3066419,8.35400391 94.5878891,8.22509895 94.8955078,7.96728516 C95.2031265,7.70947137 95.4785144,7.36230687 95.7216797,6.92578125 Z M98.3144531,9 L98.3144531,4.09130859 L99.1318359,4.09130859 L99.1318359,5.16357422 C99.38672,4.75927532 99.6789534,4.45678811 100.008545,4.25610352 C100.338136,4.05541892 100.705076,3.95507812 101.109375,3.95507812 C101.405275,3.95507812 101.70117,4.00048783 101.99707,4.09130859 L101.99707,5.86230469 L101.210449,5.86230469 L101.210449,4.74169922 C101.072753,4.7182616 100.964356,4.70654297 100.885254,4.70654297 C100.580565,4.70654297 100.28174,4.82665896 99.9887695,5.06689453 C99.6957993,5.30713011 99.4101576,5.66747807 99.1318359,6.14794922 L99.1318359,9 L98.3144531,9 Z M107.402344,8.80224609 C107.018553,8.96337971 106.740235,9.05932602 106.567383,9.09008789 C106.39453,9.12084976 106.22754,9.13623047 106.066406,9.13623047 C105.723631,9.13623047 105.410158,9.07031316 105.125977,8.93847656 C104.841795,8.80663997 104.627198,8.6118177 104.482178,8.35400391 C104.337157,8.09619012 104.264648,7.6977566 104.264648,7.15869141 L104.264648,5.18115234 L103.038574,5.18115234 L103.038574,4.5 L104.264648,4.5 L104.264648,2.52246094 L105.082031,2.52246094 L105.082031,4.5 L107.266113,4.5 L107.266113,5.18115234 L105.082031,5.18115234 L105.082031,7.14550781 C105.082031,7.5410176 105.128906,7.82006755 105.222656,7.98266602 C105.316407,8.14526448 105.44165,8.26464806 105.598389,8.34082031 C105.755128,8.41699257 105.940429,8.45507812 106.154297,8.45507812 C106.549807,8.45507812 106.965818,8.33056765 107.402344,8.08154297 L107.402344,8.80224609 Z M109.45459,5.19433594 C109.706544,4.78417764 110.006834,4.4750987 110.355469,4.26708984 C110.704103,4.05908099 111.024901,3.95507812 111.317871,3.95507812 C111.728029,3.95507812 112.097166,4.13232245 112.425293,4.48681641 C112.75342,4.84131037 112.91748,5.37890265 112.91748,6.09960937 C112.91748,6.66797159 112.808351,7.17553488 112.590088,7.62231445 C112.371825,8.06909403 112.081057,8.42211784 111.717773,8.68139648 C111.35449,8.94067512 110.904788,9.0703125 110.368652,9.0703125 C110.216308,9.0703125 109.981935,9.05419938 109.665527,9.02197266 C109.618652,9.01611325 109.54834,9.00878911 109.45459,9 L108.637207,9 L108.637207,1.90722656 L109.45459,1.90722656 L109.45459,5.19433594 Z M109.45459,6.16552734 L109.45459,8.27050781 C109.75049,8.34668007 110.022948,8.38476562 110.271973,8.38476562 C110.767092,8.38476562 111.183836,8.19067577 111.522217,7.80249023 C111.860597,7.4143047 112.029785,6.88330415 112.029785,6.20947266 C112.029785,5.7202124 111.937501,5.35254029 111.75293,5.10644531 C111.568358,4.86035033 111.358888,4.73730469 111.124512,4.73730469 C110.869628,4.73730469 110.589113,4.86620965 110.282959,5.12402344 C109.976805,5.38183723 109.700685,5.72900172 109.45459,6.16552734 Z M115.417969,9 L115.417969,2.59277344 L113.950195,2.59277344 L113.950195,1.90722656 L116.235352,1.90722656 L116.235352,8.31884766 L117.769043,8.31884766 L117.769043,9 L115.417969,9 Z M123.583008,8.67480469 C122.929684,8.98535312 122.311526,9.140625 121.728516,9.140625 C121.286131,9.140625 120.890627,9.03076282 120.541992,8.81103516 C120.193358,8.5913075 119.914308,8.27710165 119.704834,7.8684082 C119.49536,7.45971475 119.390625,7.02246327 119.390625,6.55664062 C119.390625,6.1083962 119.490233,5.67773644 119.689453,5.26464844 C119.888673,4.85156043 120.16699,4.53003045 120.524414,4.30004883 C120.881838,4.07006721 121.280271,3.95507813 121.719727,3.95507813 C122.302737,3.95507813 122.77075,4.16308386 123.123779,4.57910156 C123.476808,4.99511927 123.65332,5.63671441 123.65332,6.50390625 L123.65332,6.6796875 L120.269531,6.6796875 C120.269531,7.01953295 120.340575,7.33007672 120.482666,7.61132812 C120.624757,7.89257953 120.811522,8.10351492 121.042969,8.24414062 C121.274415,8.38476633 121.538084,8.45507812 121.833984,8.45507812 C122.361331,8.45507812 122.944333,8.27929863 123.583008,7.92773437 L123.583008,8.67480469 Z M120.317871,6.06884766 L122.765625,6.06884766 L122.765625,5.95019531 C122.765625,5.54882612 122.667481,5.22949337 122.471191,4.9921875 C122.274901,4.75488163 122.012697,4.63623047 121.68457,4.63623047 C121.353514,4.63623047 121.06714,4.75707887 120.825439,4.9987793 C120.583739,5.24047972 120.414551,5.59716561 120.317871,6.06884766 Z M128.983887,8.67480469 C128.330563,8.98535312 127.712405,9.140625 127.129395,9.140625 C126.68701,9.140625 126.291506,9.03076282 125.942871,8.81103516 C125.594237,8.5913075 125.315187,8.27710165 125.105713,7.8684082 C124.896239,7.45971475 124.791504,7.02246327 124.791504,6.55664062 C124.791504,6.1083962 124.891112,5.67773644 125.090332,5.26464844 C125.289552,4.85156043 125.567869,4.53003045 125.925293,4.30004883 C126.282717,4.07006721 126.68115,3.95507813 127.120605,3.95507813 C127.703616,3.95507813 128.171629,4.16308386 128.524658,4.57910156 C128.877687,4.99511927 129.054199,5.63671441 129.054199,6.50390625 L129.054199,6.6796875 L125.67041,6.6796875 C125.67041,7.01953295 125.741454,7.33007672 125.883545,7.61132812 C126.025635,7.89257953 126.212401,8.10351492 126.443848,8.24414062 C126.675294,8.38476633 126.938963,8.45507812 127.234863,8.45507812 C127.76221,8.45507812 128.345212,8.27929863 128.983887,7.92773437 L128.983887,8.67480469 Z M125.71875,6.06884766 L128.166504,6.06884766 L128.166504,5.95019531 C128.166504,5.54882612 128.06836,5.22949337 127.87207,4.9921875 C127.67578,4.75488163 127.413576,4.63623047 127.085449,4.63623047 C126.754393,4.63623047 126.468019,4.75707887 126.226318,4.9987793 C125.984618,5.24047972 125.81543,5.59716561 125.71875,6.06884766 Z M133.580566,7.89697266 C133.331542,8.30713096 133.031984,8.6162099 132.681885,8.82421875 C132.331785,9.0322276 132.010255,9.13623047 131.717285,9.13623047 C131.307127,9.13623047 130.938722,8.95898615 130.612061,8.60449219 C130.285399,8.24999823 130.12207,7.71240595 130.12207,6.99169922 C130.12207,6.423337 130.230468,5.91577372 130.447266,5.46899414 C130.664064,5.02221456 130.9541,4.66919075 131.317383,4.40991211 C131.680666,4.15063347 132.130368,4.02099609 132.666504,4.02099609 C132.821778,4.02099609 133.056151,4.03710921 133.369629,4.06933594 C133.416504,4.07519534 133.486816,4.08251949 133.580566,4.09130859 L133.580566,1.90722656 L134.402344,1.90722656 L134.402344,9 L133.580566,9 L133.580566,7.89697266 Z M133.580566,6.92578125 L133.580566,4.82080078 C133.290526,4.74462853 133.020997,4.70654297 132.771973,4.70654297 C132.268064,4.70654297 131.84839,4.90136524 131.512939,5.29101562 C131.177489,5.68066601 131.009766,6.21093415 131.009766,6.88183594 C131.009766,7.36816649 131.101317,7.73510618 131.284424,7.98266602 C131.46753,8.23022585 131.676268,8.35400391 131.910645,8.35400391 C132.165529,8.35400391 132.446776,8.22509895 132.754395,7.96728516 C133.062013,7.70947137 133.337401,7.36230687 133.580566,6.92578125 Z M135.711914,1.77099609 C136.523442,1.82373073 137.207517,2.05444132 137.76416,2.46313477 C138.320804,2.87182822 138.765379,3.42333637 139.0979,4.11767578 C139.430422,4.81201519 139.59668,5.50780901 139.59668,6.20507812 C139.59668,6.90234724 139.430422,7.59814106 139.0979,8.29248047 C138.765379,8.98681988 138.320804,9.53832803 137.76416,9.94702148 C137.207517,10.3557149 136.523442,10.5849607 135.711914,10.6347656 L135.711914,9.95361328 C136.324222,9.89501924 136.850828,9.68847833 137.291748,9.33398438 C137.732668,8.97949042 138.079833,8.52685822 138.333252,7.97607422 C138.586671,7.42529021 138.713379,6.83496409 138.713379,6.20507812 C138.713379,5.57519216 138.586671,4.98486604 138.333252,4.43408203 C138.079833,3.88329803 137.732668,3.42993342 137.291748,3.07397461 C136.850828,2.7180158 136.324222,2.51220731 135.711914,2.45654297 L135.711914,1.77099609 Z" transform="translate(121 7)"/>
      </g>
    </g>
  </g>
</svg>
