<svg xmlns="http://www.w3.org/2000/svg" xmlns:xlink="http://www.w3.org/1999/xlink" width="360" height="182" viewBox="0 0 360 182">
  <defs>
    <filter id="vuln-scanning-a" width="135.4%" height="287.5%" x="-17.7%" y="-93.8%" filterUnits="objectBoundingBox">
      <feOffset in="SourceAlpha" result="shadowOffsetOuter1"/>
      <feGaussianBlur in="shadowOffsetOuter1" result="shadowBlurOuter1" stdDeviation="20"/>
      <feColorMatrix in="shadowBlurOuter1" result="shadowMatrixOuter1" values="0 0 0 0 0 0 0 0 0 0 0 0 0 0 0 0 0 0 0.27063519 0"/>
      <feMerge>
        <feMergeNode in="shadowMatrixOuter1"/>
        <feMergeNode in="SourceGraphic"/>
      </feMerge>
    </filter>
    <rect id="vuln-scanning-b" width="338.225" height="64" rx="5"/>
  </defs>
  <g fill="none" fill-rule="evenodd" transform="translate(9 14)">
    <g transform="translate(21 85)">
      <path fill="#D5E0F0" d="M74.2261185 62.6774211C74.2237627 63.580577 73.5971151 64.4826227 72.3455867 65.1676223 72.3455867 65.1676223 71.5716239 25.7051139 71.5744906 24.7703472 71.5767282 24.0407239 72.3608995 22.2673786 72.3608995 22.2673786 72.8267491 22.0120782 72.9202383 21.378436 73.2130956 21.0741157 73.7066442 20.5612488 74.2403915 20.342888 74.2426093 19.7760671L74.2261185 62.6774211zM3.07890625 25.4749881C3.07627888 26.3660849 2.39098117 65.1656239 2.39098117 65.1656239 1.11412774 64.4706324.478056853 63.5547091.481001625 62.6387857L.495725489 20.4812629C.493309902 21.1069907 1.25626478 21.310789 1.85210937 21.8664512 2.12791732 22.1236594 2.00224264 22.7881921 2.40570503 23.0081011 2.40570503 23.0081011 3.08118683 24.7015098 3.07890625 25.4749881zM43.4090634 42.1042047C43.4076671 42.5269988 45.1321226 54.9309123 44.7614955 65.757626 44.471254 74.2361231 42.065962 81.7531622 42.065962 81.7531622 39.5470034 83.1342635 35.4107758 83.1342635 32.8753265 81.7531622 32.8753265 81.7531622 30.7167829 75.6755462 30.5316419 68.2767986 30.2480624 56.9441706 31.8947677 42.5152398 31.8959798 42.1042047 31.8988844 41.1192029 32.8900504 39.5961944 32.8900504 39.5961944 34.1181617 40.2647429 36.0392956 39.5751535 37.6525229 39.5961944 39.3705947 39.6186028 40.7821194 40.3081922 42.0824527 39.5961944 42.0824527 39.5961944 43.4120705 41.1937027 43.4090634 42.1042047z"/>
      <path fill="#D5E0F0" d="M57.2134012 28.8978985C61.8164167 26.37651 72.3607229 22.2674896 72.3607229 22.2674896 72.3607229 22.2674896 73.2795551 44.7644869 73.2756667 56.0939456 73.2717783 67.4234043 72.345999 65.1677333 72.345999 65.1677333L42.0660798 81.7531622 42.0825705 38.8529185C42.0825705 38.8529185 51.7236993 31.9049863 57.2134012 28.8978985zM20.335159 31.1088962C24.7583845 33.5158205 32.8898148 39.5961944 32.8898148 39.5961944L32.8756799 81.7531622 2.39080448 65.1655129 2.40552834 23.0079901C2.40552834 23.0079901 14.5969557 27.986419 20.335159 31.1088962z"/>
      <path fill="#E9F1FD" d="M72.3313929,17.9915057 C74.8668422,19.3726071 74.8809771,21.6313295 72.3608406,23.0107656 L42.0826883,39.5961944 C39.560785,40.9767407 35.4263242,40.9767407 32.889697,39.5961944 L2.40541055,23.0079901 C-0.130627654,21.628554 -0.142995699,19.3698315 2.37655178,17.9892853 L32.6558821,1.40496666 C35.1754295,0.023865281 39.3122462,0.023865281 41.8482844,1.40496666 L72.3313929,17.9915057 Z"/>
      <g transform="rotate(-55 30.501 -9.707)">
        <polygon fill="#FFA6A6" points="3.754 .614 .451 4.588 9.129 23.449 18.335 13.78 14.99 5.778"/>
        <path fill="#DC2B2B" fill-rule="nonzero" d="M9.08794291,23.6979317 C9.00697744,23.6534738 8.93001084,23.56212 8.87943273,23.4490303 L0.0664656073,4.74959525 C-0.0180509169,4.57790219 -0.0225660008,4.38746419 0.0563650472,4.29072539 L3.47147995,0.0637796812 C3.52548926,-0.00386924408 3.61060642,-0.0184628165 3.69997549,0.0236359014 L15.0845701,5.38652991 C15.1739392,5.42862863 15.2574478,5.52499726 15.3087181,5.64628397 L18.5499302,13.4152518 C18.624818,13.597418 18.6146946,13.7938482 18.5263087,13.8890643 L9.30032243,23.6799239 C9.24728795,23.7362765 9.16890838,23.7423896 9.08794291,23.6979317 Z M0.641970973,4.78588452 L9.10181166,22.7412576 L17.9581942,13.3429487 L14.9249712,6.08117861 L3.83783654,0.828476395 L0.641970973,4.78588452 Z"/>
        <path fill="#DC2B2B" fill-rule="nonzero" d="M18.0946788,13.8437806 L0.510353461,5.0445041 C0.35488251,4.96782821 0.228703187,4.74370136 0.228703187,4.54260042 C0.228703187,4.34149948 0.355030064,4.24155905 0.510682822,4.31789858 L18.1160872,13.0781768 C18.27174,13.1545163 18.3931976,13.3881048 18.387198,13.5995796 C18.3811983,13.8110545 18.2501497,13.9204565 18.0946788,13.8437806 Z"/>
        <path fill="#DC2B2B" fill-rule="nonzero" d="M9.24666101,23.2736174 C9.21724562,23.2587205 9.18732269,23.2383564 9.15867942,23.2119433 C9.00430126,23.0720333 8.92154893,22.8211979 8.97395485,22.652086 L12.6212502,10.5801399 C12.6753181,10.4068716 12.8481058,10.3740254 13.0039835,10.5088815 C13.1616691,10.6431203 13.2450462,10.8928845 13.1902174,11.0661508 L9.53145269,23.1577629 C9.48948536,23.2952554 9.37138229,23.33678 9.24666101,23.2736174 Z"/>
        <path fill="#DC2B2B" fill-rule="nonzero" d="M9.09856597,23.5698475 C8.9877317,23.5058066 8.88558489,23.3442175 8.85269534,23.1638572 L5.32581488,7.40492114 C5.28305258,7.18697212 5.36294435,7.01934685 5.50425006,7.03086258 C5.6461317,7.04111913 5.79502085,7.2286471 5.83764206,7.44687214 L9.35433021,23.2257477 C9.39495143,23.4478853 9.31561519,23.6144238 9.17723629,23.5971823 C9.15144175,23.5951146 9.12470613,23.5849515 9.09856597,23.5698475 Z"/>
        <path fill="#DC2B2B" fill-rule="nonzero" d="M5.7582317,7.48809462 C5.65941124,7.43603117 5.56553053,7.31027724 5.51936778,7.15380382 L3.57054808,0.44284463 C3.50476918,0.224846771 3.48416812,0.162253192 3.64900045,0.129509647 C3.81383277,0.0967661029 4.07187762,0.333294118 4.13809491,0.55176995 L6.00327176,7.07013952 C6.06820705,7.29114908 6.01186612,7.48854579 5.878348,7.51205055 C5.83997973,7.5183084 5.79904885,7.50959909 5.7582317,7.48809462 Z"/>
        <path fill="#DC2B2B" fill-rule="nonzero" d="M5.7000548,7.5720138 C5.64862044,7.54212102 5.59688793,7.48672518 5.55277099,7.4096724 C5.44441833,7.21940094 5.42395459,6.9674557 5.50739836,6.84623259 L8.73207006,2.62808223 C8.81709117,2.5034202 8.97394368,2.55585597 9.08279706,2.74428465 C9.19159841,2.93357787 9.2109915,3.18785736 9.12592574,3.31261673 L5.89963469,7.53429761 C5.8498433,7.60604977 5.77522808,7.61570324 5.7000548,7.5720138 Z"/>
        <path fill="#DC2B2B" fill-rule="nonzero" d="M12.7298696,11.0787966 C12.6513127,11.0347801 12.574715,10.9371807 12.5258121,10.8059972 L8.90656865,3.17167555 C8.82208175,2.95361718 8.84859048,2.7229483 8.9656,2.65545602 C9.08214149,2.58681486 9.24568919,2.70913777 9.33011932,2.92807223 L12.9476705,10.5659508 C13.0304624,10.7875719 13.0028348,11.0205925 12.8862942,11.0870992 C12.8388415,11.1144695 12.7841359,11.1092028 12.7298696,11.0787966 Z"/>
        <path fill="#DC2B2B" fill-rule="nonzero" d="M12.7673705,11.1368882 C12.7294553,11.1146407 12.6912592,11.0784242 12.655334,11.0281182 C12.5320738,10.8551898 12.3641596,10.8453779 12.4295953,10.6832295 L14.5766649,5.3933266 C14.6438132,5.22881798 14.7981193,5.23305732 14.9228788,5.40331944 C15.0470756,5.57418607 15.0933498,5.84582339 15.0266141,6.01083309 L12.9976083,11.0467827 C12.9502227,11.1620816 12.8598835,11.1911719 12.7673705,11.1368882 Z"/>
      </g>
      <path fill="#307AD1" fill-rule="nonzero" d="M68.2857143,38 L66.5714286,38 C66.2558571,38 66,38.2558571 66,38.5714286 C66,38.887 66.2558571,39.1428571 66.5714286,39.1428571 L68.2857143,39.1428571 C68.6014286,39.1428571 68.8571429,39.3987143 68.8571429,39.7142857 L68.8571429,41.4285714 C68.8571429,41.7441429 69.113,42 69.4285714,42 C69.7441429,42 70,41.7441429 70,41.4285714 L70,39.7142857 C70,38.7675714 69.2324286,38 68.2857143,38 Z M61.4285714,38 L59.7142857,38 C58.7675714,38 58,38.7675714 58,39.7142857 L58,41.4285714 C58,41.7441429 58.2558571,42 58.5714286,42 C58.887,42 59.1428571,41.7441429 59.1428571,41.4285714 L59.1428571,39.7142857 C59.1428571,39.3987143 59.3987143,39.1428571 59.7142857,39.1428571 L61.4285714,39.1428571 C61.7441429,39.1428571 62,38.887 62,38.5715714 C62,38.2558571 61.7441429,38 61.4285714,38 Z M69.4285714,46 C69.113,46 68.8571429,46.2558571 68.8571429,46.5714286 L68.8571429,48.2857143 C68.8571429,48.6014286 68.6014286,48.8571429 68.2857143,48.8571429 L66.5714286,48.8571429 C66.2558571,48.8571429 66,49.113 66,49.4285714 C66,49.7441429 66.2558571,50 66.5714286,50 L68.2857143,50 C69.2324286,50 70,49.2324286 70,48.2857143 L70,46.5714286 C70,46.2558571 69.7441429,46 69.4285714,46 Z M61.4284286,48.8571429 L59.7141429,48.8571429 C59.3985714,48.8571429 59.1427143,48.6014286 59.1427143,48.2857143 L59.1427143,46.5714286 C59.1427143,46.2558571 58.8868571,46 58.5714286,46 C58.2557143,46 58,46.2558571 58,46.5714286 L58,48.2857143 C58,49.2324286 58.7675714,50 59.7142857,50 L61.4285714,50 C61.7441429,50 62,49.7441429 62,49.4285714 C62,49.113 61.744,48.8571429 61.4284286,48.8571429 Z"/>
    </g>
    <polyline stroke="#307AD1" points="89.659 123.643 168.501 78.759 168.501 62.593"/>
    <g filter="url(#vuln-scanning-a)">
      <mask id="vuln-scanning-c" fill="white">
        <use xlink:href="#vuln-scanning-b"/>
      </mask>
      <use fill="#222C3E" xlink:href="#vuln-scanning-b"/>
      <circle cx="11" cy="13" r="3" fill="#172234" mask="url(#vuln-scanning-c)"/>
      <circle cx="21" cy="13" r="3" fill="#172234" mask="url(#vuln-scanning-c)"/>
      <circle cx="31" cy="13" r="3" fill="#172234" mask="url(#vuln-scanning-c)"/>
      <rect width="338.225" height="57" y="25" fill="#273143" mask="url(#vuln-scanning-c)"/>
      <text fill="#45546E" font-family="Gibson-SemiBold, Gibson" font-size="10" font-weight="500">
        <tspan x="95.485" y="16">VULNERABILITY SCAN RESULTS</tspan>
      </text>
      <g transform="translate(11 32)">
        <rect width="316" height="25" fill="#3A475E" rx="5"/>
        <text fill="#F15C5C" font-family="Gibson-SemiBold, Gibson" font-size="10" font-weight="500">
          <tspan x="7" y="16">VULNERABILITY FOUND</tspan>
        </text>
        <text fill="#93B0D2" font-family="Monaco" font-size="9">
          <tspan x="121" y="16">CVE-2014-0160 (Heartbleed)</tspan>
        </text>
      </g>
    </g>
  </g>
</svg>
