<?xml version="1.0" encoding="UTF-8" standalone="no"?>
<svg width="56px" height="38px" viewBox="0 0 56 38" version="1.1" xmlns="http://www.w3.org/2000/svg" xmlns:xlink="http://www.w3.org/1999/xlink" xmlns:sketch="http://www.bohemiancoding.com/sketch/ns">
    <!-- Generator: Sketch 3.2.2 (9983) - http://www.bohemiancoding.com/sketch -->
    <title>Your Aptible Account</title>
    <defs></defs>
    <g id="Page-1" stroke="none" stroke-width="1" fill="none" fill-rule="evenodd" sketch:type="MSPage">
        <path d="M38.5556629,29.7090909 C37.4165183,29.1045455 30.0558917,24.7863636 26.2879519,23.3181818 L26.2879519,16.7545455 C27.33947,15.9772727 28.0404821,14.7681818 28.0404821,12.9545455 L28.0404821,7.77272727 C28.0404821,3.54090909 25.4116869,0 20.1540965,0 C14.8965061,0 12.2677109,3.54090909 12.2677109,7.77272727 L12.2677109,12.9545455 C12.2677109,14.8545455 12.968723,16.0636364 14.020241,16.8409091 L14.020241,23.3181818 C10.4275543,24.7863636 2.89167471,29.1045455 1.75253013,29.7090909 C0.350506026,30.4863636 0,31.2636364 0,33.0772727 L0,37.1363636 C0,37.6545455 0.438132532,38 0.876265065,38 L39.4319279,38 C39.8700605,38 40.308193,37.6545455 40.308193,37.1363636 L40.308193,33.0772727 C40.308193,31.2636364 39.957687,30.4863636 38.5556629,29.7090909 L38.5556629,29.7090909 Z M54.328434,32.9045455 C53.1892894,32.3 49.0708436,30.3136364 45.5657834,28.8454545 L45.5657834,25.3909091 C49.0708436,25.2181818 51.4367593,23.4045455 52.4006509,22.3681818 C53.452169,21.3318182 51.5243858,20.2954545 50.0347352,18.5681818 C48.5450846,16.8409091 48.2822051,15.3727273 48.2822051,11.9181818 C48.2822051,8.72272727 45.6534099,5.18181818 41.3597111,5.09545455 C37.0660122,5.18181818 34.4372171,8.72272727 34.4372171,11.9181818 C34.4372171,15.3727273 34.1743375,16.8409091 32.6846869,18.5681818 C31.1950363,20.2954545 29.1796267,21.3318182 30.1435182,22.3681818 C30.4940243,22.7136364 30.8445303,23.1454545 31.4579158,23.4909091 C32.2465544,23.9227273 33.1228195,24.3545455 33.911458,24.7863636 C34.7000966,25.0454545 35.6639881,25.3045455 36.7155062,25.3909091 L36.7155062,25.9954545 C37.5917713,26.4272727 38.2927833,26.9454545 38.9937954,27.2909091 C41.4473376,28.6727273 41.9730966,30.0545455 41.9730966,32.3 L41.9730966,38 L55.2046991,38 C55.6428316,38 55.9933376,37.5681818 55.9933376,37.1363636 L55.9933376,35.4090909 C56.0809642,34.2 55.2923256,33.5090909 54.328434,32.9045455 L54.328434,32.9045455 Z" id="Shape" fill="#C9D1DB" sketch:type="MSShapeGroup"></path>
    </g>
</svg>