<?xml version="1.0" encoding="UTF-8" standalone="no"?>
<svg width="57px" height="52px" viewBox="0 0 57 52" version="1.1" xmlns="http://www.w3.org/2000/svg" xmlns:xlink="http://www.w3.org/1999/xlink" xmlns:sketch="http://www.bohemiancoding.com/sketch/ns">
    <!-- Generator: Sketch 3.2.2 (9983) - http://www.bohemiancoding.com/sketch -->
    <title>Migrating to Aptible</title>
    <defs></defs>
    <g id="Page-1" stroke="none" stroke-width="1" fill="none" fill-rule="evenodd" sketch:type="MSPage">
        <g id="Imported-Layers" sketch:type="MSLayerGroup" fill="#C9D1DB">
            <path d="M39.0981667,10.192 C36.844,9.61901887 34.0548333,10.5407925 33.1183333,11.8113585 C32.9663333,12.0173962 32.8043333,12.3526164 32.8546667,12.5823648 C33.093,13.6653711 34.8695,13.0945157 34.8725,13.0945157 C37.9421667,12.5468805 40.1078333,16.3111572 36.2685,18.1154591 C32.6198333,19.8290063 30.0223333,17.1570566 29.393,16.6198868 C29.8283333,16.1175472 30.2143333,15.5651698 30.5441667,14.9733836 C31.3626667,13.5054465 31.834,11.7920629 31.834,9.9609434 C31.834,4.53397484 27.7085,0.134742138 22.6203333,0.134742138 C17.5318333,0.134742138 13.4066667,4.53397484 13.4066667,9.9609434 C13.4066667,11.8437358 13.904,13.6030692 14.7656667,15.0978239 C15.0968333,15.6726038 15.483,16.2073208 15.9148333,16.6955975 C15.6796667,16.9207673 11.8288333,19.3265031 8.647,17.7113962 C7.41583333,17.0860881 6.92483333,15.8021132 7.49566667,14.6607296 C7.9005,13.8512956 8.64333333,13.2621258 9.55766667,13.2003145 C11.8288333,13.0466038 11.3923333,11.5242138 10.5388333,11.0813962 C9.232,10.4035975 7.95866667,10.3561761 6.54283333,10.7309686 C3.66566667,11.4924906 2.2755,14.4102138 2.47333333,16.7879874 C2.74,19.994327 4.17733333,22.5357862 7.23766667,23.589195 C9.26233333,24.2853082 11.3573333,24.3698491 13.47,24.0253082 C14.1941667,23.9103522 14.9041667,23.6994088 15.6205,23.5316352 C15.6393333,23.5690818 13.8585,24.6427673 12.9463333,25.1366038 C12.1596667,25.5601258 11.3168333,25.9102264 10.5871667,26.4043899 C9.07983333,27.4273836 8.244,28.8431572 8.32083333,30.5964403 C8.40983333,32.5932075 9.4025,34.1949057 11.1483333,35.3591824 C12.5431667,36.2896226 14.0763333,36.6053836 15.741,36.0402516 C17.7333333,35.3667044 18.964,33.6034465 18.7841667,31.6835346 C18.7523333,31.3456981 18.6565,31.014239 18.2541667,30.9028805 C17.8823333,30.8008428 17.5908333,30.977283 17.3856667,31.2528176 C17.1863333,31.5221384 17.025,31.8182767 16.8311667,32.091522 C16.4196667,32.6749686 15.8201667,32.7680126 15.238,32.329283 C14.7183333,31.9399371 14.432,31.4292579 14.561,30.8008428 C14.6898333,30.1740629 15.1351667,29.7937107 15.8096667,29.6486667 C17.006,29.3948805 18.2225,29.1966918 19.3968333,28.8683396 C21.707,28.2207925 23.3231667,26.8563648 24.0785,24.6838113 C24.1163333,24.5750692 24.1885,24.4758113 24.2441667,24.3698491 C25.243,24.982239 26.1051667,26.0642642 26.4333333,27.095761 C26.9328333,28.6593585 26.357,29.8538868 24.8151667,30.6196604 C23.718,31.1646792 22.6185,31.7285031 21.6053333,32.3932201 C19.8626667,33.5314969 19.5083333,35.0744906 19.6498333,37.0730566 C19.838,39.7379748 21.2386667,39.1548553 21.2386667,39.1548553 C21.5595,39.0158616 21.7378333,38.5102516 21.7508333,38.0622013 C21.7966667,36.2186541 22.674,35.2213333 24.4201667,35.0205283 C25.0545,34.9453082 25.7018333,34.9673836 26.3386667,34.9024654 C28.0616667,34.7307673 29.6601667,34.2341509 31.0691667,33.2711698 C34.096,31.2049057 34.188,27.1603522 32.4078333,24.6900252 C32.3188333,24.5667296 32.2363333,24.4411447 32.1125,24.2663396 C46.1135,23.7039874 45.3371667,11.778 39.0981667,10.192" id="Fill-1" sketch:type="MSShapeGroup"></path>
            <path d="M54.6313333,29.4575094 C53.1901667,27.4973711 51.1231667,25.9633711 48.6323333,25.1735597 C48.5118333,24.7341761 48.3651667,24.2907044 48.1888333,23.8498491 C47.7491667,22.7446038 47.1545,21.6436101 46.4736667,20.6345157 C46.242,20.2888302 45.9963333,19.9619497 45.7463333,19.6414465 C45.6676667,19.8942516 45.586,20.1478742 45.4858333,20.3956101 L45.4851667,20.399044 C45.3776667,20.6716352 45.2533333,20.9329434 45.1238333,21.19 C44.8858333,21.6645409 44.6078333,22.1078491 44.3003333,22.5276101 C43.9963333,22.942956 43.6683333,23.3386792 43.3016667,23.6923774 C42.3661667,24.5946918 41.2511667,25.2700377 40.0525,25.7318239 C39.2518333,26.0408805 38.4138333,26.2601635 37.547,26.4043899 C37.1183333,26.4760126 36.7031667,26.5224528 36.2985,26.5598994 C36.473,27.2722013 38.9846667,38.5961006 24.5501667,38.0448679 C24.4151667,38.060566 24.304,38.0728302 24.304,38.0728302 C24.296,38.0846038 24.2311667,42.1854088 20.8651667,42.4656855 C18.392,42.6720503 17.0243333,39.0760377 16.9796667,38.8894591 C16.6491667,39.059195 4.21716667,42.1782138 5.381,28.5399874 C4.86216667,28.8431572 4.70183333,28.9759371 4.23616667,29.3551447 C2.54,30.7331447 1.225,32.6105409 0.558333333,34.8295346 C0.242666667,35.8816352 0.09,36.946327 0.09,37.9920503 C0.091,40.4380126 0.9125,42.7794843 2.36483333,44.6904025 C3.81516667,46.6008302 5.90666667,48.0851195 8.425,48.7992201 C9.50483333,49.1048428 10.5966667,49.2523396 11.6703333,49.2523396 C14.1958333,49.2507044 16.609,48.4326038 18.5821667,47.000805 C19.1948333,47.7976478 19.8968333,48.5315346 20.7021667,49.1687799 C21.9611667,50.1657736 23.4435,50.9380881 25.093,51.4052704 C26.2621667,51.7383648 27.4445,51.8958365 28.608,51.8958365 C32.3416667,51.8948553 35.8623333,50.2648679 38.227,47.5105031 C39.1236667,48.0537233 40.101,48.4986667 41.1603333,48.7992201 L41.159,48.7992201 C42.2596667,49.1095849 43.3735,49.2603522 44.4721667,49.2603522 C47.1663333,49.2593711 49.7555,48.3622893 51.8726667,46.792805 C53.9903333,45.2236478 55.6428333,42.9737484 56.4563333,40.2663145 C56.8171667,39.0678616 56.9901667,37.8558365 56.9901667,36.6680126 C56.9886667,34.0323648 56.1433333,31.5131447 54.6313333,29.4575094" id="Fill-2" sketch:type="MSShapeGroup"></path>
        </g>
    </g>
</svg>