<?xml version="1.0" encoding="UTF-8" standalone="no"?>
<svg class="go" width="65px" height="56px" viewBox="0 0 65 56" version="1.1" xmlns="http://www.w3.org/2000/svg" xmlns:xlink="http://www.w3.org/1999/xlink" xmlns:sketch="http://www.bohemiancoding.com/sketch/ns">
    <!-- Generator: Sketch 3.2.2 (9983) - http://www.bohemiancoding.com/sketch -->
    <title>Getting Started with Go on Aptible</title>
    <defs>
        <ellipse id="path-1" cx="41.5" cy="41.5" rx="41.5" ry="41.5"></ellipse>
    </defs>
    <g id="Page-1" stroke="none" stroke-width="1" fill="none" fill-rule="evenodd" sketch:type="MSPage">
        <g id="Oval-10-+-gopher-2" sketch:type="MSLayerGroup" transform="translate(-9.000000, -27.000000)">
            <mask id="mask-2" sketch:name="Oval 10" fill="white">
                <use xlink:href="#path-1"></use>
            </mask>
            <use id="Oval-10" sketch:type="MSShapeGroup" xlink:href="#path-1"></use>
            <g id="gopher" mask="url(#mask-2)">
                <g transform="translate(8.352113, 28.718310)">
                    <path d="M0.803576096,49.3681781 C0.936060372,52.0729332 3.66464688,50.8214409 4.90053096,49.9758937 C6.07364108,49.1731046 6.41664356,49.8404069 6.51964836,48.2561221 C6.58710436,47.2148145 6.70831706,46.173507 6.64866446,45.1280781 C4.87469306,44.9688941 2.94517402,45.387203 1.49079493,46.4334904 C0.741669176,46.9725182 -0.662941609,48.6929767 0.803576096,49.3681781" id="Shape" stroke="#94A0AE" stroke-width="3" fill="#F6D2A2" sketch:type="MSShapeGroup"></path>
                    <path d="M0.803576096,49.3681781 C1.20068211,49.221873 1.62154512,49.1179827 1.8910223,48.7623514" id="Shape" stroke="#000000" stroke-width="3" fill="#C6B198" sketch:type="MSShapeGroup"></path>
                    <path d="M7.10923807,17.1467155 C-3.34678866,14.2350383 4.42816556,1.0627725 12.8246167,6.48069706 L7.10923807,17.1467155 L7.10923807,17.1467155 Z" id="left-ear" stroke="#94A0AE" stroke-width="2" fill="#C9D1DB" sketch:type="MSShapeGroup"></path>
                    <path d="M53.5650924,5.49227914 C61.8413713,-0.264276438 69.3203168,12.7235625 59.7016808,15.9913862 L53.5650924,5.49227914 L53.5650924,5.49227914 Z" id="right-ear" stroke="#94A0AE" stroke-width="2" fill="#C9D1DB" sketch:type="MSShapeGroup"></path>
                    <path d="M7.54553445,13.5086644 C6.16606794,12.7860684 5.15405454,11.804691 5.99786146,10.2246991 C6.77906783,8.76199172 8.23032556,8.92083234 9.60996549,9.64342834 L7.54553445,13.5086644 L7.54553445,13.5086644 Z" id="Shape" stroke="none" fill="#94A0AE" sketch:type="MSShapeGroup"></path>
                    <path d="M57.5224532,12.1349078 C58.9019197,11.4123118 59.9139331,10.4309344 59.0701262,8.85094247 C58.2889199,7.38823506 56.8376621,7.54707567 55.4580222,8.26967168 L57.5224532,12.1349078 L57.5224532,12.1349078 Z" id="Shape" stroke="none" fill="#94A0AE" sketch:type="MSShapeGroup"></path>
                    <path d="M67.0181424,49.0247389 C66.8856581,51.7294941 64.1570716,50.4780018 62.9211875,49.6324545 C61.7480774,48.8296655 61.4050749,49.4969678 61.3020701,47.9126829 C61.2346141,46.8713753 61.1134014,45.8300678 61.173054,44.784639 C62.9470254,44.6254549 64.8765444,45.0437638 66.3309235,46.0900512 C67.0798759,46.629079 68.4846601,48.3495375 67.0181424,49.0247389" id="Shape" stroke="#000000" stroke-width="3" fill="#F6D2A2" sketch:type="MSShapeGroup"></path>
                    <path d="M32.8630369,0.0212932283 C43.3308554,0.0212932283 53.1437092,1.50374839 58.2590935,11.4627973 C62.8506101,22.6256005 61.2177935,34.6627999 61.9180179,46.4602787 C62.5193994,56.5903603 63.8527392,68.2935651 59.1070623,77.6809595 C54.1146247,87.5572396 41.6396,90.0416785 31.3616641,89.6778047 C23.2886202,89.3917199 13.5362862,86.7836429 8.97997154,79.4795504 C3.63447376,70.9107432 6.16520089,58.1694936 6.55346306,48.6349355 C7.01334304,37.3407668 3.46418638,26.0122542 7.211029,14.9605535 C11.0979859,3.49603899 21.580891,0.905133922 32.8630369,0.0212932283" id="torso" stroke="#94A0AE" stroke-width="2" fill="#C9D1DB" sketch:type="MSShapeGroup"></path>
                    <path d="M34.7110539,13.9367614 C36.5904578,24.7556102 54.4487833,21.8951054 51.8837213,10.9836997 C49.5836278,1.19911785 34.0864356,3.90747911 34.7110539,13.9367614" id="Shape" stroke="#94A0AE" stroke-width="1.5" fill="#FFFFFF" sketch:type="MSShapeGroup"></path>
                    <path d="M13.370334,15.6865839 C15.8062065,25.105403 31.0344418,22.6939449 30.4604588,13.2459335 C29.7727198,1.93047155 11.0414546,4.11388605 13.370334,15.6865839" id="Shape" stroke="#94A0AE" stroke-width="1.5" fill="#FFFFFF" sketch:type="MSShapeGroup"></path>
                    <path d="M36.8656574,26.9191053 C36.8736342,28.3256604 37.1883711,29.9047937 36.919761,31.4011581 C36.5571633,32.0797939 35.8458406,32.1515727 35.2326673,32.4258089 C34.3846986,32.2940999 33.6716419,31.7427084 33.3315873,30.957263 C33.1139594,29.24934 33.4127426,27.5956804 33.4677132,25.8870706 L36.8656574,26.9191053 L36.8656574,26.9191053 Z" id="Shape" stroke="#94A0AE" stroke-width="1.2" fill="#FFFFFF" sketch:type="MSShapeGroup"></path>
                    <g id="Group" stroke="none" stroke-width="1" fill="none" sketch:type="MSLayerGroup" transform="translate(14.913152, 11.333492)">
                        <ellipse id="Oval" fill="#94A0AE" sketch:type="MSShapeGroup" cx="2.65731551" cy="2.81688804" rx="2.57147819" ry="2.75815994"></ellipse>
                        <ellipse id="Oval" fill="#FFFFFF" sketch:type="MSShapeGroup" cx="3.82695746" cy="3.43937153" rx="0.606236951" ry="0.700959338"></ellipse>
                    </g>
                    <g id="Group" stroke="none" stroke-width="1" fill="none" sketch:type="MSLayerGroup" transform="translate(36.415835, 10.646614)">
                        <ellipse id="Oval" fill="#94A0AE" sketch:type="MSShapeGroup" cx="2.70014747" cy="2.81688804" rx="2.52864623" ry="2.75815994"></ellipse>
                        <ellipse id="Oval" fill="#FFFFFF" sketch:type="MSShapeGroup" cx="3.85036764" cy="3.43937153" rx="0.596179244" ry="0.700959338"></ellipse>
                    </g>
                    <path d="M29.5171153,26.7659314 C28.3951608,29.4584945 30.142774,34.842762 33.1869644,30.8714032 C32.9693365,29.1634802 33.2681197,27.5098206 33.3230903,25.8012108 L29.5171153,26.7659314 L29.5171153,26.7659314 Z" id="Shape" stroke="#94A0AE" stroke-width="1.2" fill="#FFFFFF" sketch:type="MSShapeGroup"></path>
                    <g id="Group" stroke="none" stroke-width="1" fill="none" sketch:type="MSLayerGroup" transform="translate(26.704946, 18.373995)">
                        <path d="M3.19609647,3.20651977 C1.10496048,3.38304751 -0.604329455,5.84516289 0.482943338,7.79297812 C1.9227561,10.3728931 5.13654025,7.56476279 7.13819733,7.82783719 C9.44193242,7.87454492 11.3294865,10.2399822 13.1797578,8.25541895 C15.2375993,6.04813543 12.2938125,3.89837797 9.9930254,2.93726347 L3.19609647,3.20651977 L3.19609647,3.20651977 Z" id="nose" stroke="#94A0AE" stroke-width="1.2" fill="#C9D1DB" sketch:type="MSShapeGroup"></path>
                        <path d="M2.932862,3.09867988 C2.778008,-0.488713933 9.68505148,-0.937245484 10.5007662,2.06561486 C11.3144,5.06143471 3.27291654,5.75724246 2.932862,3.09867988 C2.66147732,0.975710671 2.932862,3.09867988 2.932862,3.09867988 L2.932862,3.09867988 Z" id="Shape" fill="#94A0AE" sketch:type="MSShapeGroup"></path>
                    </g>
                </g>
            </g>
        </g>
    </g>
</svg>