<?xml version="1.0" encoding="UTF-8" standalone="no"?>
<svg width="58px" height="66px" viewBox="0 0 58 66" version="1.1" xmlns="http://www.w3.org/2000/svg" xmlns:xlink="http://www.w3.org/1999/xlink" xmlns:sketch="http://www.bohemiancoding.com/sketch/ns">
    <!-- Generator: Sketch 3.2.2 (9983) - http://www.bohemiancoding.com/sketch -->
    <title>HIPAA Compliance</title>
    <defs></defs>
    <g id="Page-1" stroke="none" stroke-width="1" fill="none" fill-rule="evenodd" sketch:type="MSPage">
        <g id="Imported-Layers" sketch:type="MSLayerGroup" fill="#C9D1DB">
            <path d="M29.8066989,26.4147714 C27.0822581,26.0420286 28.3189677,21.2381714 28.235086,18.4932 C28.128129,14.9804286 27.7211935,10.6420286 27.9207634,5.5022 C27.7869892,3.61931429 26.3647419,3.92605714 26.6631613,2.01677143 C27.124043,-0.931542857 31.2856989,-0.331257143 31.6926344,2.01677143 C31.9676667,3.60265714 30.7724301,3.4738 30.4353441,4.86828571 C29.0405376,10.6498857 31.472172,22.5707429 29.8066989,26.4147714" id="Fill-1" sketch:type="MSShapeGroup"></path>
            <path d="M26.0342043,22.6122286 C23.276086,24.9341714 19.1194194,19.811 16.6032796,22.9290286 C19.2151505,29.9533143 37.8172473,24.1104286 37.980957,32.4349143 C38.0395806,35.4454571 33.4594516,39.1999143 30.7499785,37.1875429 C35.9543871,35.9153143 36.6709677,29.8866857 29.8066989,29.2659714 C23.7637849,28.7200571 14.0734194,27.5135143 14.7167204,22.9290286 C15.1791613,19.6372 25.9503226,18.4815714 26.0342043,22.6122286" id="Fill-2" sketch:type="MSShapeGroup"></path>
            <path d="M32.951172,27.0480571 C36.2721398,25.9596857 41.3396559,26.6322571 41.752828,22.6122286 C38.7424409,20.1978857 35.1127634,24.7650857 32.3219032,22.6122286 C33.0977312,18.4108571 43.0372473,19.9813429 43.6393871,22.6122286 C44.3802903,25.8528286 36.1421075,30.2333429 32.951172,27.0480571" id="Fill-3" sketch:type="MSShapeGroup"></path>
            <path d="M27.6055054,39.7222571 C18.6728817,45.5428286 41.0359355,50.8552 30.4353441,55.8822 C30.3427312,54.5508857 31.7409677,54.2070571 31.6926344,52.7135714 C31.5485699,48.2092286 22.0948817,47.3864286 23.8339462,41.3065714 C24.1404731,40.2358 25.6007634,38.3846571 27.6055054,39.7222571" id="Fill-4" sketch:type="MSShapeGroup"></path>
            <path d="M27.6055054,49.2281429 C27.8771075,51.1911714 26.8253118,51.8203714 26.3491505,53.0300571 C28.9669462,55.5100857 33.7238817,58.5501714 30.7499785,63.8034571 C33.0316237,57.0208571 20.4019677,54.0147143 27.6055054,49.2281429" id="Fill-5" sketch:type="MSShapeGroup"></path>
            <path d="M27.9207634,57.4662 C27.7137097,61.0537714 27.9768925,64.1689714 29.8066989,65.7042571 C28.1041183,65.4924286 24.9696237,59.499 27.9207634,57.4662" id="Fill-6" sketch:type="MSShapeGroup"></path>
            <path d="M25.405871,29.8998857 C17.5902151,35.4790857 32.5601398,37.1482571 34.5224731,41.3065714 C34.9789892,44.968 32.945871,47.7007143 30.7499785,47.6438286 C31.1765591,44.6301429 32.8233226,45.4824857 32.951172,43.5248 C33.3001075,38.1555429 20.580957,38.1140571 20.3757742,32.7514 C20.2622688,29.8137714 22.3462151,28.8492286 25.405871,29.8998857" id="Fill-7" sketch:type="MSShapeGroup"></path>
            <path d="M27.0732151,11.4459714 L27.0732151,17.1986571 C26.0086344,17.5289714 24.5633118,18.3797429 23.2268172,18.0739429 C22.3876882,17.8822286 22.2242903,17.0298857 21.4899355,16.8234 C20.3127849,17.5195429 17.9360323,18.5117429 17.2715269,16.6983143 C15.5337097,17.1766571 13.3958172,17.2866571 12.9283871,15.5728571 C11.9364624,15.8026 10.4905161,16.0348571 9.70221505,15.4477714 C9.55472043,15.0134286 9.43809677,14.5470286 9.20547312,14.1972286 C7.93664516,14.3735429 6.40744086,14.6007714 5.23527957,14.1972286 C5.06470968,14.0363143 5.11273118,13.6541429 5.1117957,13.3219429 C2.5286129,13.1739143 0.806387097,12.1584571 0.272225806,9.94557143 C1.41382796,9.56465714 2.57944086,10.1900857 3.37397849,10.5706857 C10.0296344,11.1936 14.103043,7.08997143 18.3875591,5.44311429 C19.2042366,5.12945714 20.0212258,4.99682857 20.4973871,5.06785714 C20.948914,5.13574286 21.8173548,5.78254286 22.1101613,6.06854286 C23.3948925,7.32222857 23.9137742,9.55082857 24.9646344,11.1958 C25.4629355,11.4855714 26.2643333,11.4695429 27.0732151,11.4459714" id="Fill-8" sketch:type="MSShapeGroup"></path>
            <path d="M57.9688172,9.82017143 C57.3566989,11.9126857 55.7149247,12.9671143 53.2546022,13.1968571 C53.0444301,13.4024 53.0999355,13.8754 52.8822796,14.0721429 C51.755957,14.5137143 50.267914,14.2223714 49.0358817,14.0721429 C48.8023226,15.5134571 47.0392473,16.1464286 45.4373871,15.4477714 C44.9369032,15.6941714 44.7388925,16.2438571 44.4448387,16.6983143 C43.3157097,17.3589429 41.8547957,16.4896286 40.8466559,16.6983143 C40.050871,18.3778571 37.7969785,17.3778 36.6273118,16.6983143 C35.5689677,18.3916857 32.6989032,17.985 31.0437204,17.0735714 L31.0437204,11.3212 L32.5326989,11.3212 C33.0790215,11.1037143 33.9315591,10.2762 34.1464086,9.57031429 C34.5212258,8.33611429 35.1922796,6.67102857 36.0073978,5.94345714 C36.9154409,5.13228571 38.1116129,4.69605714 39.73,5.31834286 C41.7899355,6.11002857 44.0469462,7.83702857 46.305828,8.82011429 C46.5128817,8.91 46.8393656,8.73777143 47.0507849,8.82011429 C47.7626882,9.09605714 48.6373656,9.72745714 49.7802151,10.0703429 C51.1326129,10.4764 52.6580753,10.4814286 54.6191613,10.4456 C55.5724194,10.1218857 56.7520645,9.47414286 57.9688172,9.82017143" id="Fill-9" sketch:type="MSShapeGroup"></path>
            <path d="M28.4212473,29.9376 C28.4212473,29.9376 29.9719677,30.25 30.219871,30.2085143 C30.4693333,30.1667143 30.2625914,36.7748857 30.2625914,36.7748857 C30.2625914,36.7748857 28.9170538,36.8581714 28.4212473,36.2116857" id="Fill-10" sketch:type="MSShapeGroup"></path>
            <path d="M28.3383011,39.8806571 C28.3383011,39.8806571 30.0758065,40.4023714 30.1375484,40.6729714 C30.1996022,40.9435714 30.158129,46.8848286 30.158129,46.8848286 C30.158129,46.8848286 28.9591505,46.5931714 28.4415161,45.9052 C27.925129,45.2172286 28.3383011,39.8806571 28.3383011,39.8806571" id="Fill-11" sketch:type="MSShapeGroup"></path>
            <path d="M29.8129355,51.0431429 C28.9656989,49.8652 28.2522366,49.8966286 28.2522366,49.8966286 L28.3760323,53.9304857 C28.3760323,53.9304857 29.3277312,55.0452571 29.6894516,54.9930857" id="Fill-12" sketch:type="MSShapeGroup"></path>
            <path d="M29.7652258,59.8824286 C29.1927097,58.4643714 28.5656237,58.2666857 28.5656237,58.2666857 L28.6560538,62.0915429 C28.6560538,62.0915429 28.9685054,63.624 29.6404946,64.416" id="Fill-13" sketch:type="MSShapeGroup"></path>
            <path d="M26.0532258,51.1273714 C26.0532258,51.1273714 25.8050108,54.3475429 27.7901075,55.0355143" id="Fill-14" sketch:type="MSShapeGroup"></path>
        </g>
    </g>
</svg>