<?xml version="1.0" encoding="UTF-8" standalone="no"?>
<svg class="java" width="58px" height="79px" viewBox="0 0 58 79" version="1.1" xmlns="http://www.w3.org/2000/svg" xmlns:xlink="http://www.w3.org/1999/xlink" xmlns:sketch="http://www.bohemiancoding.com/sketch/ns">
    <!-- Generator: Sketch 3.2.2 (9983) - http://www.bohemiancoding.com/sketch -->
    <title>Getting Started with Java on Aptible</title>
    <defs></defs>
    <g id="Page-1" stroke="none" stroke-width="1" fill="none" fill-rule="evenodd" sketch:type="MSPage">
        <g id="Shape" sketch:type="MSLayerGroup" fill="#C9D1DB">
            <path class="path-1" d="M18.5155795,60.3938383 C18.5155795,60.3938383 15.5381875,62.1250917 20.6349248,62.7132934 C26.8110426,63.4167098 29.9703527,63.3166549 36.7771197,62.0280687 C36.7771197,62.0280687 38.5659805,63.1498967 41.0673536,64.1231583 C25.8074613,70.6631121 6.53324407,63.7441623 18.5186115,60.3938383 L18.5155795,60.3938383 Z M21.3838208,77.8155234 C35.4218302,78.7129858 56.979119,77.3182807 57.4884895,70.67524 C57.4884895,70.67524 56.506132,73.194805 45.8881819,75.1928715 C33.9058465,77.4486553 19.128037,77.1848742 10.365651,75.7386257 C10.365651,75.7386257 12.1605757,77.2242897 21.3868527,77.8155234 L21.3838208,77.8155234 Z M45.3636516,57.2224003 C59.9898627,49.6242898 53.2255432,42.3202801 48.5078018,43.3026376 C47.3495903,43.542163 46.8341558,43.7513688 46.8341558,43.7513688 C46.8341558,43.7513688 47.2646952,43.078272 48.0833264,42.7872031 C57.4187542,39.5035823 64.6014852,52.4682753 45.0695507,57.6044282 C45.0695507,57.6044282 45.2969483,57.4012864 45.3636516,57.2224003 L45.3636516,57.2224003 Z M19.9466682,43.0176327 C19.9466682,43.0176327 5.77828416,46.3831166 14.928762,47.6049994 C18.7914886,48.1234659 26.492686,48.0052192 33.669353,47.4048896 C39.5331781,46.9106789 45.4212589,45.8585862 45.4212589,45.8585862 C45.4212589,45.8585862 43.3534571,46.7439207 41.8586972,47.7656937 C27.4720115,51.5495891 -0.319002435,49.788016 7.68235974,45.9192255 C14.4497112,42.6477326 19.9497002,43.0206646 19.9497002,43.0206646 L19.9466682,43.0176327 Z M52.5524464,66.7063946 C52.5524464,66.7063946 54.7566868,68.5225431 50.1238405,69.926344 C41.315975,72.5944754 13.4643217,73.4009787 5.72674072,70.0324629 C2.94642654,68.8227079 8.1614106,67.1429979 9.80170501,66.7912896 C11.5117347,66.4213896 12.4910602,66.4880929 12.4910602,66.4880929 C9.39845333,64.3081083 -7.50173339,70.766199 3.90756023,72.6156992 C35.0216105,77.6608931 60.6235439,70.3447555 52.5524464,66.7033626 L52.5524464,66.7063946 Z M16.6509195,51.8588498 C16.6509195,51.8588498 13.3096914,54.3329353 18.4124926,54.8604976 C25.0100539,55.5396583 30.222006,55.5972657 39.2390773,53.8599484 C39.2390773,53.8599484 40.4852159,55.1242788 42.4468988,55.8155674 C23.9973767,61.2094375 3.44670117,56.2400428 16.6509195,51.8588498 Z" sketch:type="MSShapeGroup"></path>
            <path class="path-2" d="M32.3716709,37.3842371 C36.1313106,41.7138866 31.3832495,45.6069329 31.3832495,45.6069329 C31.3832495,45.6069329 40.9309151,40.6799857 36.5466901,34.5068999 C32.4505021,28.7522257 29.3124157,25.8930803 46.3126574,16.0331221 C46.3126574,16.0331221 19.6283116,22.6973866 32.3716709,37.3842371 L32.3716709,37.3842371 Z M36.5436582,0.11226087 C36.5436582,0.11226087 44.6420433,8.21367797 28.8606526,20.6720323 C16.2052203,30.6653971 25.9742195,36.365496 28.8545886,42.8751302 C21.4687159,36.2108657 16.047558,30.3440086 19.682887,24.8834352 C25.0221817,16.8669132 39.8090871,12.9829628 36.5406262,0.11226087 L36.5436582,0.11226087 Z" id="Path" sketch:type="MSShapeGroup"></path>
        </g>
    </g>
</svg>