<?xml version="1.0" encoding="UTF-8" standalone="no"?>
<svg width="64px" height="44px" viewBox="0 0 64 44" version="1.1" xmlns="http://www.w3.org/2000/svg" xmlns:xlink="http://www.w3.org/1999/xlink" xmlns:sketch="http://www.bohemiancoding.com/sketch/ns">
    <!-- Generator: Sketch 3.2.2 (9983) - http://www.bohemiancoding.com/sketch -->
    <title>Getting Started with Laravel on Aptible</title>
    <defs></defs>
    <g id="Page-1" stroke="none" stroke-width="1" fill="none" fill-rule="evenodd" sketch:type="MSPage">
        <g id="icon-laravel-link" sketch:type="MSLayerGroup" fill="#C9D1DB">
            <g id="icon-laravel" sketch:type="MSShapeGroup">
                <path d="M62.8715,20.603 C62.459,20.141 56.76375,13.01025 55.76,11.80025 C54.75625,10.59025 54.26675,10.81025 53.65075,10.89825 C53.032,10.989 45.827,12.199 44.991,12.33925 C44.155,12.4795 43.627,12.815 44.14125,13.5355 C44.59775,14.17625 49.336,20.89175 50.381,22.37125 L31.54625,26.884 L16.567,1.83975 C15.97025,0.95425 15.8465,0.64625 14.49075,0.7095 C13.135,0.77275 2.74,1.6335 2.00025,1.69675 C1.2605,1.76 0.4465,2.08725 1.189,3.83625 C1.9315,5.58525 13.7345,31.02 14.06175,31.75975 C14.389,32.4995 15.247,33.70125 17.249,33.22 C19.3005,32.72775 26.4175,30.86875 30.306,29.85125 C32.36025,33.572 36.55125,41.118 37.32675,42.2015 C38.36075,43.64525 39.073,43.406 40.6625,42.92475 C41.90275,42.548 60.0665,36.01675 60.886,35.68125 C61.7055,35.34575 62.20875,35.10375 61.656,34.28425 C61.249,33.682 56.4585,27.2635 53.94775,23.90575 C55.6665,23.44925 61.77975,21.82125 62.4315,21.64525 C63.1905,21.439 63.295,21.06775 62.8825,20.603 L62.8715,20.603 Z M28.6285,27.6045 C28.403,27.65125 17.854,30.1785 17.29025,30.305 C16.7265,30.4315 16.7265,30.36825 16.66325,30.17575 C16.6,29.98325 4.1205,4.2515 3.94725,3.92975 C3.774,3.608 3.78225,3.35225 3.94725,3.35225 C4.11225,3.35225 13.9105,2.475 14.257,2.4585 C14.6035,2.442 14.56775,2.5135 14.69425,2.7335 C14.69425,2.7335 28.51575,26.58975 28.75775,27.00775 C28.99975,27.42575 28.854,27.555 28.6285,27.60175 L28.6285,27.6045 Z M58.3725,33.17875 C58.54025,33.44275 58.708,33.6105 58.18,33.803 C57.652,33.9955 40.32425,39.842 39.98875,39.98775 C39.65325,40.1335 39.3865,40.18025 38.95475,39.55325 C38.523,38.92625 32.8855,29.172 32.8855,29.172 L51.25,24.3925 C51.7065,24.2495 51.85225,24.15325 52.141,24.60975 C52.42975,25.06625 58.20475,32.912 58.3725,33.176 L58.3725,33.17875 Z M59.5495,20.13825 C59.137,20.229 52.394,21.901 52.394,21.901 L46.8775,14.333 C46.7235,14.11575 46.59425,13.89575 46.97925,13.8435 C47.36425,13.79125 53.6315,12.65825 53.91475,12.595 C54.198,12.53175 54.44275,12.45475 54.78925,12.9305 C55.13575,13.40625 59.907,19.4425 60.08575,19.6735 C60.2645,19.9045 59.9565,20.0475 59.544,20.1355 L59.5495,20.13825 Z" id="Shape"></path>
            </g>
        </g>
    </g>
</svg>