<?xml version="1.0" encoding="UTF-8" standalone="no"?>
<svg class="node" width="60px" height="66px" viewBox="0 0 60 66" version="1.1" xmlns="http://www.w3.org/2000/svg" xmlns:xlink="http://www.w3.org/1999/xlink" xmlns:sketch="http://www.bohemiancoding.com/sketch/ns">
    <!-- Generator: Sketch 3.2.2 (9983) - http://www.bohemiancoding.com/sketch -->
    <title>Getting Started with Node on Aptible</title>
    <defs></defs>
    <g id="Page-1" stroke="none" stroke-width="1" fill="none" fill-rule="evenodd" sketch:type="MSPage">
        <path d="M29.9856909,65.8877391 C29.1089334,65.8877391 28.2347775,65.6582132 27.4646878,65.2122026 L19.4359824,60.4495397 C18.2392214,59.7792197 18.8245937,59.5392608 19.2200451,59.4010236 C20.8174609,58.8454665 21.1426677,58.7176623 22.8467513,57.7447854 C23.0262655,57.6456719 23.2604144,57.6821874 23.4477335,57.7917339 L29.6136543,61.4615404 C29.8399983,61.5867363 30.1521968,61.5867363 30.3603291,61.4615404 L54.4022172,47.5517478 C54.6259594,47.4239436 54.7690504,47.1631187 54.7690504,46.8996856 L54.7690504,19.0827088 C54.7690504,18.8114508 54.6259594,18.5558424 54.3970139,18.4176052 L30.3655324,4.51824569 C30.1417902,4.38783323 29.8478032,4.38783323 29.6240609,4.51824569 L5.59778283,18.4228217 C5.36363394,18.5558424 5.21794129,18.8192756 5.21794129,19.0827088 L5.21794129,46.8996856 C5.21794129,47.165727 5.36363394,47.4161189 5.59518118,47.5439231 L12.18257,51.3571833 C15.7572431,53.1490504 17.9452345,51.0389769 17.9452345,48.9184704 L17.9452345,21.4536072 C17.9452345,21.0649781 18.257433,20.7598129 18.6450795,20.7598129 L21.6942184,20.7598129 C22.07406,20.7598129 22.3888601,21.0649781 22.3888601,21.4536072 L22.3888601,48.9184704 C22.3888601,53.699391 19.7924091,56.4432691 15.2707338,56.4432691 C13.8814503,56.4432691 12.7861539,56.4432691 9.73181163,54.9330928 L3.42800309,51.2945853 C1.87221377,50.3921311 0.907,48.704594 0.907,46.8970773 L0.907,19.0801005 C0.907,17.2725839 1.87221377,15.5876549 3.42800309,14.687809 L27.4724928,0.759758713 C28.9944606,-0.103571745 31.015946,-0.103571745 32.5249056,0.759758713 L56.5667936,14.687809 C58.1251846,15.5902632 59.093,17.2751921 59.093,19.0801005 L59.093,46.8970773 C59.093,48.704594 58.1251846,50.3843064 56.5667936,51.2945853 L32.5249056,65.2095944 C31.7548159,65.655605 30.8832617,65.8851309 29.9934959,65.8851309 L29.9856909,65.8877391 Z M37.4134141,46.7249329 C26.8897222,46.7249329 24.6861209,41.8814143 24.6861209,37.8203704 C24.6861209,37.4343495 24.9931162,37.1265761 25.378161,37.1265761 L28.487138,37.1265761 C28.833158,37.1265761 29.1245433,37.376968 29.1765764,37.7160404 C29.6448742,40.8876714 31.0419626,42.4917446 37.4082108,42.4917446 C42.4710302,42.4917446 44.6278017,41.3415067 44.6278017,38.6497936 C44.6278017,37.0952771 44.0190146,35.9450393 36.1464085,35.1703893 C29.5694262,34.518327 25.4978371,33.0603158 25.4978371,27.786436 C25.4978371,22.9220514 29.5876378,20.0216784 36.442997,20.0216784 C44.1464956,20.0216784 47.9553176,22.7003503 48.4392254,28.4541478 C48.4574369,28.6497665 48.3871923,28.8401687 48.2545079,28.9888389 C48.1218235,29.1296843 47.9397077,29.2131483 47.7445836,29.2131483 L44.6225984,29.2131483 C44.2999932,29.2131483 44.0164129,28.9836224 43.9487699,28.6680243 C43.1994934,25.3294654 41.3783354,24.2626915 36.4403954,24.2626915 C30.9092782,24.2626915 30.2666696,26.1927958 30.2666696,27.6403741 C30.2666696,29.3957258 31.0263526,29.9069426 38.490499,30.895469 C45.8791975,31.8735624 49.3914309,33.2611509 49.3914309,38.4646079 C49.3914309,43.7176216 45.0258548,46.7249329 37.4082108,46.7249329 L37.4134141,46.7249329 Z" id="Shape" fill="#C9D1DB" sketch:type="MSShapeGroup"></path>
    </g>
</svg>