<?xml version="1.0" encoding="UTF-8" standalone="no"?>
<svg width="39px" height="46px" viewBox="0 0 39 46" version="1.1" xmlns="http://www.w3.org/2000/svg" xmlns:xlink="http://www.w3.org/1999/xlink" xmlns:sketch="http://www.bohemiancoding.com/sketch/ns">
    <!-- Generator: Sketch 3.2.2 (9983) - http://www.bohemiancoding.com/sketch -->
    <title>The Aptible Platform</title>
    <defs></defs>
    <g id="Page-1" stroke="none" stroke-width="1" fill="none" fill-rule="evenodd" sketch:type="MSPage">
        <path d="M19.4979776,45.497 C8.7327318,45.497 -3.55271368e-15,42.6166159 -3.55271368e-15,39.0681428 L-3.55271368e-15,32.6392856 C-3.55271368e-15,32.0812112 0.283136279,31.5491403 0.689639079,31.0330715 C2.86372122,33.8014406 10.4234599,35.8537142 19.5,35.8537142 C28.5765401,35.8537142 36.1362788,33.8014406 38.3103609,31.0330715 C38.7168637,31.5511406 38.9979776,32.0812112 38.9979776,32.6392856 L38.9979776,39.0681428 C38.9979776,42.6146157 30.2652458,45.497 19.5,45.497 L19.4979776,45.497 Z M19.4979776,32.6412859 C8.7327318,32.6412859 -3.55271368e-15,29.7589016 -3.55271368e-15,26.2124287 L-3.55271368e-15,19.7835715 C-3.55271368e-15,19.4435262 0.129433727,19.1114819 0.305382701,18.7834382 L0.305382701,18.7834382 C0.404480398,18.5774107 0.533914126,18.3753838 0.689639079,18.1753571 C2.86372122,20.941726 10.4234599,22.9959999 19.5,22.9959999 C28.5765401,22.9959999 36.1362788,20.941726 38.3103609,18.1753571 C38.4660859,18.3753838 38.5955196,18.5774107 38.6946173,18.7834382 L38.6946173,18.7834382 C38.8685439,19.1114819 39,19.4435262 39,19.7835715 L39,26.2124287 C39,29.7589016 30.2672682,32.6412859 19.5020224,32.6412859 L19.4979776,32.6412859 Z M19.4979776,19.7835715 C8.7327318,19.7835715 -3.55271368e-15,16.9031875 -3.55271368e-15,13.3547144 L-3.55271368e-15,10.1402858 L-3.55271368e-15,6.92585718 C-3.55271368e-15,3.37738405 8.7327318,0.497 19.4979776,0.497 C30.2632234,0.497 38.9959552,3.37738405 38.9959552,6.92585718 L38.9959552,10.1402858 L38.9959552,13.3547144 C38.9959552,16.9031875 30.2632234,19.7835715 19.4979776,19.7835715 L19.4979776,19.7835715 Z M19.4979776,3.71342886 C12.3184505,3.71342886 6.5,5.14962035 6.5,6.92785745 C6.5,8.70609455 12.3204729,10.142286 19.4979776,10.142286 C26.6775047,10.142286 32.4959552,8.70609455 32.4959552,6.92785745 C32.4959552,5.14962035 26.6754823,3.71342886 19.4979776,3.71342886 L19.4979776,3.71342886 Z" id="Shape" opacity="0.8" fill="#C9D1DB" sketch:type="MSShapeGroup"></path>
    </g>
</svg>