<?xml version="1.0" encoding="UTF-8" standalone="no"?>
<svg width="98px" height="33px" viewBox="0 0 98 33" version="1.1" xmlns="http://www.w3.org/2000/svg" xmlns:xlink="http://www.w3.org/1999/xlink" xmlns:sketch="http://www.bohemiancoding.com/sketch/ns">
    <!-- Generator: Sketch 3.2.2 (9983) - http://www.bohemiancoding.com/sketch -->
    <title>Getting Started with Play Framework on Aptible</title>
    <defs></defs>
    <g id="Page-1" stroke="none" stroke-width="1" fill="none" fill-rule="evenodd" sketch:type="MSPage">
        <g id="normal" sketch:type="MSLayerGroup" transform="translate(-1.000000, 0.000000)" fill="#C9D1DB">
            <g id="Play-2" transform="translate(0.639752, 0.000000)" sketch:type="MSShapeGroup">
                <g id="Group">
                    <path d="M1.77904969,33.0007267 C1.09711801,33.0007267 0.838857143,32.6463354 1.00385714,31.9369379 L6.52715528,7.99308075 C6.69256522,7.28368323 7.12402484,6.92908696 7.82255901,6.92908696 L10.6267391,6.92908696 C11.2420559,6.92908696 11.4511242,7.28368323 11.2539441,7.99308075 L10.9139006,9.37662112 L10.9848199,9.37662112 C11.8596273,8.35977019 12.6436335,7.63848447 13.3364286,7.21276398 C14.0292236,6.78704348 14.8189689,6.57428571 15.7062795,6.57428571 C18.0732609,6.57428571 19.7499068,7.34291925 20.7360124,8.87998137 C21.722323,10.4172484 22.2156832,12.1252547 22.2156832,14.0052298 C22.2156832,17.1154286 21.2644224,19.8765652 19.3619006,22.2884348 C17.4593789,24.7005093 15.2516584,25.9065466 12.7385342,25.9065466 C11.8588075,25.9065466 10.9423913,25.7936087 9.98928571,25.5691677 C9.03638509,25.3451366 8.25442857,24.7716335 7.64362112,23.8492733 L7.57249689,23.8492733 C7.51264596,24.345913 7.42983851,24.8185714 7.32304969,25.2680683 L5.78004348,31.9367329 C5.6136087,32.6461304 5.18932298,33.0007267 4.5073913,33.0007267 L1.77904969,33.0007267 L1.77904969,33.0007267 Z M8.76500621,18.9892547 C8.76500621,20.1245776 8.97038509,20.9817578 9.38175776,21.5605901 C9.79292547,22.1398323 10.6121863,22.4300683 11.8397453,22.4300683 C13.4583851,22.4300683 14.7173043,21.5314845 15.6167081,19.7345217 C16.5159068,17.9371491 16.9658137,15.9153354 16.9658137,13.6688758 C16.9658137,12.4390621 16.7300994,11.528795 16.2592857,10.9374596 C15.788472,10.3463292 15.1372857,10.050559 14.3055217,10.050559 C13.4600248,10.050559 12.5505776,10.5763043 11.577795,11.6286149 C10.6052174,12.6815404 9.8831118,14.2007702 9.41209317,16.1873292 L8.76500621,18.9892547 L8.76500621,18.9892547 Z" id="Shape"></path>
                    <path d="M22.3196025,25.5517453 C21.610205,25.5517453 21.3378012,25.1969441 21.5038261,24.4875466 L26.7219255,1.18257764 C26.8397826,0.650478261 27.3245342,0.118378882 27.9623975,0.118378882 L31.0158199,0.118378882 C31.7295217,0.118378882 32.0095093,0.472975155 31.8557826,1.18257764 L26.4696087,24.4875466 C26.3035839,25.1969441 25.8661801,25.5517453 25.1567826,25.5517453 L22.3196025,25.5517453 L22.3196025,25.5517453 Z" id="Shape"></path>
                    <path d="M29.5006894,18.8291739 C29.5006894,15.5066273 30.5843602,12.6333727 32.7521118,10.2096149 C34.9194534,7.78626708 37.3393168,6.57428571 40.0114969,6.57428571 C40.5624534,6.57428571 41.1997019,6.70977019 41.9230373,6.98176398 C42.6455528,7.25437267 43.3012484,7.80409938 43.8895093,8.63176398 L43.9214845,8.63176398 L44.0579938,7.99328571 C44.2074161,7.2838882 44.5271677,6.92929193 45.0178634,6.92929193 L47.9030062,6.92929193 C48.67,6.92929193 48.9708944,7.2838882 48.8056894,7.99328571 L45.0014658,24.4879565 C44.8362609,25.197354 44.3990621,25.5519503 43.6896646,25.5519503 L40.9760807,25.5519503 C40.3136211,25.5519503 40.0813913,25.197354 40.2787764,24.4879565 L40.6190248,23.1044161 L40.5481056,23.1044161 C39.8303043,23.9556522 39.0698696,24.6357391 38.2665963,25.1434472 C37.4637329,25.6515652 36.5452671,25.9067516 35.5114037,25.9067516 C33.615441,25.9067516 32.1394596,25.191 31.0838696,23.7601118 C30.0284845,22.3296335 29.5006894,20.6855776 29.5006894,18.8291739 L29.5006894,18.8291739 Z M34.750559,19.1667578 C34.750559,20.1836087 34.9858634,20.9817578 35.456472,21.560795 C35.9270807,22.1400373 36.4554907,22.4302733 37.0419068,22.4302733 C38.0819193,22.4302733 39.0637205,21.9186708 39.9889503,20.8960807 C40.9139752,19.8732857 41.6241925,18.3392981 42.1198075,16.293913 L42.7668944,13.4917826 C42.7668944,12.4156957 42.5645901,11.5730683 42.1605963,10.9641056 C41.7563975,10.3551429 41.0277329,10.0509689 39.9743975,10.0509689 C38.4850932,10.0509689 37.2419565,10.9852174 36.2453975,12.8533043 C35.2488385,14.7209814 34.750559,16.8256025 34.750559,19.1667578 L34.750559,19.1667578 Z" id="Shape"></path>
                    <path d="M47.5553789,17.6585963 L49.7846211,7.99308075 C49.9500311,7.28368323 50.3812857,6.92908696 51.078795,6.92908696 L53.9157702,6.92908696 C54.6372609,6.92908696 54.9154037,7.28368323 54.7512236,7.99308075 L52.7783975,16.5419255 C52.2225217,18.9421118 52.0894969,20.4963913 52.378913,21.2059938 C52.6687391,21.9153913 53.2828261,22.2701925 54.2211739,22.2701925 C55.4060994,22.2701925 56.4803416,21.5640745 57.4430807,20.1510186 C58.4058199,18.7379627 59.1689193,16.7837888 59.7321739,14.2889068 L61.1808944,7.99308075 C61.3475342,7.28368323 61.7818634,6.92908696 62.483677,6.92908696 L65.3374596,6.92908696 C66.0630497,6.92908696 66.3436522,7.28368323 66.179677,7.99308075 L62.1704845,25.356 C61.5418447,28.0636398 60.3880745,30.0147391 58.7093789,31.2088882 C57.0300683,32.4030373 54.6419752,33.0007267 51.5450994,33.0007267 C50.7996273,33.0007267 49.9385528,32.9384161 48.9624907,32.814205 C47.9864286,32.6904037 47.0368075,32.3794658 46.1140373,31.8830311 C45.4870373,31.5520062 45.3927516,31.0379441 45.8303602,30.3406398 L46.7004534,28.9570994 C47.020205,28.4362733 47.4528944,28.3186211 47.9979068,28.6025031 C48.802,29.0165404 49.4878261,29.2731615 50.0553851,29.3740062 C50.6229441,29.474441 51.296882,29.5248634 52.0771988,29.5248634 C53.3209503,29.5248634 54.3806398,29.2614783 55.2579068,28.735323 C56.1339441,28.2091677 56.8626087,26.6983416 57.4430807,24.2040745 C57.5578634,23.6838634 57.6904783,23.211 57.8413354,22.7852795 L57.7704161,22.7852795 C56.8244845,23.8966211 55.9228261,24.6681242 55.0666708,25.0995839 C54.2090807,25.5314534 53.1895652,25.7466708 52.0081242,25.7466708 C50.3286087,25.7466708 49.0008199,25.1147516 48.0249627,23.8492733 C47.0499255,22.584 46.8929193,20.5205776 47.5553789,17.6585963 L47.5553789,17.6585963 Z" id="Shape"></path>
                    <path d="M96.988559,14.3883168 L78.013764,0.637565217 C76.5230248,-0.443236025 74.9750994,0.136826087 74.5745901,1.92538509 L68.0547329,31.0348696 C67.6542236,32.8240435 68.7135031,33.5188882 70.4114658,32.5795155 L96.6151056,18.0607453 C98.3112236,17.1211677 98.4795031,15.4685031 96.988559,14.3883168 L96.988559,14.3883168 Z" id="Shape"></path>
                </g>
            </g>
        </g>
    </g>
</svg>