<?xml version="1.0" encoding="UTF-8" standalone="no"?>
<svg class="getting-started" width="52px" height="52px" viewBox="0 0 52 52" version="1.1" xmlns="http://www.w3.org/2000/svg" xmlns:xlink="http://www.w3.org/1999/xlink" xmlns:sketch="http://www.bohemiancoding.com/sketch/ns">
    <!-- Generator: Sketch 3.2.2 (9983) - http://www.bohemiancoding.com/sketch -->
    <title>Getting Started with Aptible</title>
    <defs></defs>
    <g id="Page-1" stroke="none" stroke-width="1" fill="none" fill-rule="evenodd" sketch:type="MSPage">
        <g id="Getting-Started" sketch:type="MSLayerGroup" transform="translate(2.000000, 2.000000)">
            <g id="Oval-5-+-Fill-112" sketch:type="MSShapeGroup">
                <circle id="Oval-5" stroke="#C9D1DB" stroke-width="3" cx="24" cy="24" r="24"></circle>
                <path class="check-path" d="M12.4007324,25.1121091 L19.8208223,32.7098888 C20.0871845,32.9826296 20.4344067,33.119 20.8351391,33.119 C21.2358715,33.119 21.5819046,32.9826296 21.8494559,32.7098888 L34.6610022,19.5915428 C34.9273644,19.2907974 35.0605455,18.9632649 35.0605455,18.5529361 C35.0605455,18.1426073 34.9273644,17.7870702 34.6610022,17.5143293 L32.6323686,15.4371159 C32.3648173,15.1363704 32.0187842,15 31.6180518,15 C31.2173194,15 30.8700972,15.1363704 30.603735,15.4371159 L20.8351391,25.4396416 L16.4579995,20.9576821 C16.1904482,20.6569366 15.8444152,20.5205662 15.4436828,20.5205662 C15.0429503,20.5205662 14.6957282,20.6569366 14.429366,20.9576821 L12.4007324,23.0348956 C12.1343702,23.3076364 12,23.6631735 12,24.0735023 C12,24.4838311 12.1343702,24.8113636 12.4007324,25.1121091" id="Fill-112" fill="#C9D1DB"></path>
            </g>
        </g>
    </g>
</svg>