<?xml version="1.0" encoding="UTF-8" standalone="no"?>
<svg width="42px" height="42px" viewBox="0 0 42 42" version="1.1" xmlns="http://www.w3.org/2000/svg" xmlns:xlink="http://www.w3.org/1999/xlink" xmlns:sketch="http://www.bohemiancoding.com/sketch/ns">
    <!-- Generator: Sketch 3.2.2 (9983) - http://www.bohemiancoding.com/sketch -->
    <title>Getting Started with Ruby on Rails on Aptible</title>
    <defs></defs>
    <g id="Page-1" stroke="none" stroke-width="1" fill="none" fill-rule="evenodd" sketch:type="MSPage">
        <g id="icon-ror" sketch:type="MSLayerGroup" transform="translate(0.093000, 0.000000)" fill="#C9D1DB">
            <path d="M4.70716667,41.4141667 L25.0058333,41.4141667 C25.0058333,41.4141667 20.5031667,31.1878333 21.6471667,21.8011667 C22.7911667,12.4145 30.1941667,8.141 34.3906667,7.68266667 C38.5871667,7.22433333 40.877,9.82033333 40.877,9.82033333 L41.7936667,8.44716667 C41.7936667,8.44716667 35.7656667,2.34216667 28.1335,3.02966667 C20.5013333,3.71716667 15.236,8.75333333 11.9561667,14.8583333 C8.6745,20.9633333 6.766,25.2368333 5.46983333,31.648 C4.17366667,38.0591667 4.70716667,41.416 4.70716667,41.416 L4.70716667,41.4141667 Z M23.4805,34.9278333 L24.245,37.676 L28.2893333,37.9051667 L26.8391667,34.9296667 L23.4805,34.9296667 L23.4805,34.9278333 Z M22.5638333,25.4641667 L22.4116667,28.1353333 L25.6163333,29.5085 L25.4641667,26.9895 L22.5638333,25.4623333 L22.5638333,25.4641667 Z M23.6326667,18.5195 L22.6408333,20.5031667 L25.235,22.716 L25.8455,20.197 L23.6326667,18.5176667 L23.6326667,18.5195 Z M26.6851667,12.1853333 L28.2105,14.4751667 L27.2956667,16.0775 L25.0828333,13.6355 L26.6851667,12.1853333 Z M29.8146667,9.82033333 L30.8065,11.6518333 L32.2566667,10.5078333 L31.9523333,9.28683333 L29.8165,9.82216667 L29.8146667,9.82033333 Z M36.3761667,8.8285 L36.3761667,9.9725 L38.4368333,10.2016667 L38.4368333,9.285 L36.3761667,8.82666667 L36.3761667,8.8285 Z M36.8345,2.95266667 L36.7575,4.32583333 L38.8951667,5.46983333 L39.3535,4.78233333 L36.8363333,2.95083333 L36.8345,2.95266667 Z M26.2268333,0.585833333 L26.6851667,2.79866667 L29.8146667,2.72166667 L29.5085,0.738 L26.2268333,0.585833333 Z M17.2985,3.10483333 L19.13,5.31766667 L21.649,3.8675 L19.8175,1.80683333 L17.2985,3.10483333 L17.2985,3.10483333 Z M11.881,12.5666667 L13.9416667,10.1246667 L11.2705,8.37016667 L9.13466667,10.7351667 L11.881,12.5666667 L11.881,12.5666667 Z M6.92,22.793 L7.98883333,19.8175 L4.478,18.4443333 L3.334,21.649 L6.92,22.793 Z M0.662833333,31.1878333 L4.63016667,31.494 L3.94266667,35.4613333 L0.202666667,35.003 L0.661,31.1878333 L0.662833333,31.1878333 Z" id="Shape" sketch:type="MSShapeGroup"></path>
        </g>
    </g>
</svg>