<?xml version="1.0" encoding="UTF-8" standalone="no"?>
<svg class="ruby" width="60px" height="58px" viewBox="0 0 60 58" version="1.1" xmlns="http://www.w3.org/2000/svg" xmlns:xlink="http://www.w3.org/1999/xlink" xmlns:sketch="http://www.bohemiancoding.com/sketch/ns">
    <!-- Generator: Sketch 3.2.2 (9983) - http://www.bohemiancoding.com/sketch -->
    <title>Getting Started with Ruby on Aptible</title>
    <defs></defs>
    <g id="Page-1" stroke="none" stroke-width="1" fill="none" fill-rule="evenodd" sketch:type="MSPage">
        <path d="M16.4427187,52.0818966 C29.7264178,53.9094828 42.7728698,55.7068966 56.0779424,57.5387931 C51.5445996,49.9288793 47.1288116,42.512931 42.6766885,35.0366379 C33.954118,40.7047414 25.3127672,46.3189655 16.4448561,52.0818966 L16.4427187,52.0818966 Z M59.8290111,9.95689655 C58.6577372,11.7306034 57.484326,13.5021552 56.3151895,15.2758621 C52.2990881,21.3685345 48.2829866,27.4612069 44.2711599,33.5560345 C44.046737,33.8965517 43.7581932,34.1659483 44.0723853,34.6875 C47.9495583,41.1422414 51.7946708,47.6163793 55.6504702,54.0840517 C56.2596181,55.1056034 56.8730408,56.1228448 57.661727,57.1034483 C58.4397264,41.4051724 59.2198632,25.7068966 60,10.0086207 C59.9422913,9.99137931 59.8845825,9.97413793 59.8290111,9.95905172 L59.8290111,9.95689655 Z M6.90795098,30.0840517 C7.08962667,30.2586207 7.54060986,30.3577586 7.75220861,30.2543103 C11.4712169,28.4116379 15.2137361,26.6099138 18.8493873,24.6142241 C20.0356227,23.9633621 20.9482759,22.799569 21.9699345,21.8534483 C25.353377,18.7241379 28.7325449,15.5883621 32.1095754,12.4525862 C32.3168994,12.2607759 32.5605586,12.0732759 32.6845255,11.8318966 C33.8985466,9.44181034 35.0890567,7.0387931 36.3244514,4.56681034 C34.8518096,4.00862069 33.4582502,3.46336207 32.0454545,2.96767241 C31.8552294,2.90086207 31.5517241,3.03448276 31.3444001,3.15086207 C28.0742377,4.99137931 24.7442291,6.73491379 21.5787974,8.74353448 C19.9950128,9.74784483 18.7040467,11.2306034 17.3019379,12.5193966 C15.0406099,14.5991379 12.7835566,16.6853448 10.5564263,18.8017241 C9.96437732,19.3642241 9.42576233,20.0043103 8.9662297,20.6810345 C7.44229125,22.9181034 5.96537475,25.1875 4.4200627,27.5193966 C5.28355657,28.4224138 6.07010544,29.2844828 6.91008834,30.0862069 L6.90795098,30.0840517 Z M20.4972927,27.0258621 C18.6484753,34.9051724 16.8082075,42.7413793 14.9080935,50.8340517 C23.8166144,45.0452586 32.5220861,39.3900862 41.1677116,33.7737069 C34.2875463,31.5280172 27.4287546,29.2887931 20.4972927,27.0280172 L20.4972927,27.0258621 Z M57.5569963,10.0344828 C50.0292106,11.3017241 42.6809632,12.5409483 35.238672,13.7931034 C37.7735822,20.0107759 40.2571958,26.1034483 42.8134796,32.3706897 C47.7571958,24.8814655 52.6025933,17.5431034 57.5591337,10.0344828 L57.5569963,10.0344828 Z M20.80721,25.4137931 C27.5869194,27.6336207 34.2298376,29.8081897 41.0672556,32.0452586 C38.5280707,25.8081897 36.0765175,19.7887931 33.5736677,13.6443966 C29.3096324,17.575431 25.1118552,21.4461207 20.80721,25.4137931 L20.80721,25.4137931 Z M7.18794528,34.6788793 C4.78341408,40.4741379 2.46223995,46.0711207 0.0983186093,51.7693966 C4.64234825,51.6336207 9.04744942,51.5021552 13.6021659,51.3663793 C11.4626674,45.8017241 9.36591622,40.3448276 7.18794528,34.6767241 L7.18794528,34.6788793 Z M13.7603306,47.4030172 C13.815902,47.3922414 13.8714734,47.3771552 13.9291821,47.3663793 C15.5493018,40.5689655 17.1950698,33.8168103 18.8515247,26.7521552 C15.1581647,28.6875 11.6357937,30.5323276 8.01724138,32.4310345 C9.86392135,37.2715517 11.8324309,42.3771552 13.7624679,47.4030172 L13.7603306,47.4030172 Z M54.8318609,8.93103448 C52.6752636,8.35560345 50.5186663,7.77801724 48.362069,7.20474138 C45.2607581,6.38362069 42.1573098,5.57112069 39.0581362,4.74137931 C38.6712739,4.63793103 38.3912796,4.56896552 38.1625819,5.04094828 C37.0682531,7.30387931 35.9375891,9.54956897 34.8261613,11.8038793 C34.7919635,11.8728448 34.7983756,11.9633621 34.7727273,12.137931 C41.4883158,11.112069 48.1590197,10.0926724 54.8275862,9.07327586 C54.8297236,9.02586207 54.8297236,8.97844828 54.8318609,8.93103448 L54.8318609,8.93103448 Z M42.3218866,3.78448276 C48.1119977,5.40086207 53.9042462,7.01508621 59.8974067,8.6875 C58.8885722,5.79094828 57.9545455,3.10560345 56.992733,0.342672414 C52.0703904,1.44396552 47.2100313,2.53017241 42.3475349,3.61637931 C42.3389855,3.67241379 42.330436,3.7262931 42.3218866,3.78232759 L42.3218866,3.78448276 Z M15.2522086,53.3857759 C13.0742377,53.1336207 10.8406954,53.3663793 8.63280137,53.4030172 C6.81818182,53.4353448 5.00569963,53.5043103 3.19321744,53.5603448 C3.00512967,53.5668103 2.81917925,53.6034483 2.63322884,53.8060345 C17.6268168,55.2047414 32.6204047,56.6012931 47.6118552,58 C47.622542,57.9331897 47.6310915,57.8642241 47.6417783,57.7974138 C42.8348532,57.1357759 38.0300655,56.4741379 33.2231405,55.8125 C27.2342548,54.987069 21.2560559,54.0818966 15.2522086,53.3836207 L15.2522086,53.3857759 Z M0.393274437,46.5538793 C2.32544885,42.0344828 4.24907381,37.5086207 6.18979766,32.9935345 C6.38429752,32.5409483 6.36933599,32.2327586 5.98888572,31.8685345 C5.17668852,31.0905172 4.42433742,30.25 3.53733257,29.3211207 C2.33827301,35.2909483 1.16913651,41.1099138 -4.4408921e-16,46.9310345 C0.0427472214,46.950431 0.0876318039,46.9719828 0.130379025,46.9935345 C0.22014819,46.8491379 0.329153605,46.7112069 0.395411798,46.5560345 L0.393274437,46.5538793 Z M38.4724993,2.59051724 C41.7298376,1.74353448 45.0363351,1.07974138 48.3214591,0.340517241 C48.5330579,0.293103448 48.7425192,0.221982759 48.9519806,0.161637931 C48.9412938,0.107758621 48.930607,0.0538793103 48.9199202,-8.8817842e-16 C44.2925335,0.627155172 39.6630094,1.25646552 34.800513,1.91594828 C36.1256768,2.5 37.1473354,2.93534483 38.4724993,2.59267241 L38.4724993,2.59051724 Z" id="Shape" fill="#C9D1DB" sketch:type="MSShapeGroup"></path>
    </g>
</svg>