<?xml version="1.0" encoding="UTF-8" standalone="no"?>
<svg width="65px" height="45px" viewBox="0 0 65 45" version="1.1" xmlns="http://www.w3.org/2000/svg" xmlns:xlink="http://www.w3.org/1999/xlink" xmlns:sketch="http://www.bohemiancoding.com/sketch/ns">
    <!-- Generator: Sketch 3.2.2 (9983) - http://www.bohemiancoding.com/sketch -->
    <title>Getting Started with Sinatra on Aptible</title>
    <defs></defs>
    <g id="Page-1" stroke="none" stroke-width="1" fill="none" fill-rule="evenodd" sketch:type="MSPage">
        <path d="M12.9003982,18.7993482 C12.9003982,18.7993482 15.372478,15.4092897 16.1497449,11.9403576 C16.9270118,8.47142553 16.3577664,6.62746064 18.2739409,3.94210619 C20.1901154,1.25675173 22.3364058,0.127162049 24.8718509,0.127162049 C27.4072959,0.127162049 45.851596,3.72697695 49.3208446,5.30530773 C52.7900933,6.88363852 52.631889,9.39813609 52.631889,9.39813609 L52.7900938,13.9257361 C52.7900938,13.9257361 65,16.4277687 65,24.371002 C65,32.3142354 58.7320481,40.4983877 31.8424488,43.7347825 C4.95284945,46.9711772 0.611493889,34.805952 0.611493889,30.3032821 C0.441199694,23.2461404 12.9003982,18.7993482 12.9003982,18.7993482 Z M53.1339453,20.1991402 L53.133944,28.1726765 C53.133944,28.1726765 52.3370838,31.2582014 47.2497272,32.0882005 C42.1623705,32.9181996 22.9074539,34.5431668 17.6425076,31.8350314 C12.3775614,29.1268961 12.2431186,28.8840429 12.5891264,24.950466 C12.9351342,21.0168892 13.0697854,19.1082351 13.0697854,19.1082351 C13.0697854,19.1082351 12.3650554,22.1161759 19.5292923,23.533321 C26.6935292,24.950466 24.0396901,24.7284595 37.3639094,24.7284595 C50.6881288,24.7284595 53.1339453,20.1991402 53.1339453,20.1991402 Z" id="Path-3" fill="#C9D1DB" sketch:type="MSShapeGroup"></path>
    </g>
</svg>