<?xml version="1.0" encoding="UTF-8" standalone="no"?>
<svg width="57px" height="44px" viewBox="0 0 57 44" version="1.1" xmlns="http://www.w3.org/2000/svg" xmlns:xlink="http://www.w3.org/1999/xlink" xmlns:sketch="http://www.bohemiancoding.com/sketch/ns">
    <!-- Generator: Sketch 3.2.2 (9983) - http://www.bohemiancoding.com/sketch -->
    <title>Getting Started with Spring Framework on Aptible</title>
    <defs></defs>
    <g id="Page-1" stroke="none" stroke-width="1" fill="none" fill-rule="evenodd" sketch:type="MSPage">
        <g id="icon-spring-link" sketch:type="MSLayerGroup" fill="#C9D1DB">
            <path d="M7.9508557,36.332294 C5.9283003,34.4711042 3.32286038,32.1091126 3.89894407,27.1444257 C4.6276567,20.2183277 8.24533952,13.0462416 20.5314301,11.801098 C30.7817453,12.0183699 44.3293408,13.7837838 54.4697181,0.0477195946 C57.9336163,15.0622889 58.790661,29.896326 50.7983497,37.6499155 C41.5374752,45.7576014 29.0794196,41.4018159 19.049194,41.4634713 C14.9583848,41.1425112 12.3166296,41.7567834 10.7515197,42.3901404 C16.0650963,39.6830882 23.7205505,40.0581984 30.1884231,37.1908784 C37.4280665,33.9814189 47.5944311,26.0175253 50.46875,15.463049 C46.8364159,23.7376478 37.1525802,30.6385135 29.7099581,33.1230997 C25.8600851,34.4786183 22.2473377,34.8943201 14.7438648,35.4939823 C11.0485,35.6232668 9.03351302,36.0004239 7.9508557,36.332294 L7.9508557,36.332294 Z M3.55907781,44 C5.52470221,44 7.11815562,42.4269464 7.11815562,40.4864865 C7.11815562,38.5460266 5.52470221,36.972973 3.55907781,36.972973 C1.59345341,36.972973 0,38.5460266 0,40.4864865 C0,42.4269464 1.59345341,44 3.55907781,44 Z" id="Path-1" sketch:type="MSShapeGroup"></path>
        </g>
    </g>
</svg>