<?xml version="1.0" encoding="UTF-8" standalone="no"?>
<svg class="support" width="68px" height="54px" viewBox="0 0 68 54" version="1.1" xmlns="http://www.w3.org/2000/svg" xmlns:xlink="http://www.w3.org/1999/xlink" xmlns:sketch="http://www.bohemiancoding.com/sketch/ns">
    <!-- Generator: Sketch 3.2.2 (9983) - http://www.bohemiancoding.com/sketch -->
    <title>Aptible Support Topics</title>
    <defs></defs>
    <g id="Page-1" stroke="none" stroke-width="1" fill="none" fill-rule="evenodd" sketch:type="MSPage">
        <g id="Path-+-Path" sketch:type="MSLayerGroup" fill="#C9D1DB">
            <path class="path-2" d="M41.2738127,49.0991655 C43.4520182,49.0991655 45.693843,48.8938963 47.9386973,48.4802942 C51.0681636,50.7505102 54.6035819,52.3313894 58.4783035,53.3638628 C59.4295643,53.6365338 60.5201818,53.8448667 61.7440969,53.9827341 C62.0834002,54.0501359 62.3560545,53.9122685 62.6287089,53.7069993 C62.8316849,53.4986664 63.034661,53.2259954 63.1043393,52.8797951 C63.1043393,52.8123933 63.1709881,52.7449915 63.1709881,52.6071241 C63.1709881,52.5366586 63.1043393,52.4692567 63.1043393,52.3987912 C63.1043393,52.3313894 63.1043393,52.2609238 63.034661,52.1261202 C63.034661,52.0556546 62.9680121,51.9882528 62.9680121,51.9882528 C62.8983338,51.9177873 62.8983338,51.8503854 62.8316849,51.7799199 C62.7620066,51.6420525 62.6953577,51.5746507 62.6953577,51.5746507 C62.6287089,51.5072489 62.5590306,51.4367833 62.4923817,51.3693815 C62.4227034,51.298916 62.3560545,51.2315141 62.3560545,51.2315141 C62.2197273,51.0262449 61.947073,50.7505102 61.4714426,50.2695063 C60.9958122,49.7854386 60.656509,49.3749002 60.4505034,49.0991655 C60.2475274,48.8234308 59.974873,48.4802942 59.6355698,47.9992903 C59.2265883,47.5182863 58.9539339,47.0372824 58.684309,46.4858129 C58.4116546,46.004809 58.1390003,45.4533395 57.8663459,44.8344682 C61.062461,42.9778543 63.5102914,40.7107021 65.2795153,38.026884 C67.115388,35.4135314 68,32.5275078 68,29.4331513 C68,26.3357311 67.0457097,23.379242 65.1431881,20.628022 C63.237637,17.8798658 60.656509,15.6096498 57.3907155,13.8204378 C58.0026731,15.7475172 58.2753275,17.6715329 58.2753275,19.5986124 C58.2753275,23.0361054 57.4603938,26.2683293 55.7608483,29.3626858 C54.0582732,32.4570423 51.6104428,35.1408604 48.4143277,37.4784782 C45.490867,39.6077631 42.1584247,41.2591078 38.4200303,42.4294486 C34.6786064,43.5967256 30.7342065,44.1481951 26.7231578,44.1481951 C25.9082242,44.1481951 24.8206362,44.0807933 23.3240666,44.0103277 C28.4227034,47.380419 34.4059521,49.0991655 41.2738127,49.0991655 L41.2738127,49.0991655 Z" id="Path" sketch:type="MSShapeGroup"></path>
            <path class="path-1" d="M2.72048472,28.2628105 C4.48667914,30.9435649 6.93450949,33.2137809 10.0639758,35.002993 C9.79132139,35.6218643 9.58834536,36.1702701 9.31569099,36.7217395 C9.04303662,37.2027435 8.7037334,37.6837474 8.36443019,38.1647513 C7.95544863,38.6457552 7.68279426,38.9888918 7.47981823,39.2646265 C7.2768422,39.5403613 6.93450949,39.9539634 6.52855743,40.4349673 C6.05292702,40.9159713 5.78027265,41.191706 5.64394547,41.3969752 C5.57729662,41.3969752 5.57729662,41.4674407 5.44096944,41.5348425 C5.3712911,41.6022444 5.3712911,41.6727099 5.30464225,41.7401117 C5.23496391,41.7401117 5.23496391,41.8105773 5.16831507,41.9484447 C5.09863673,42.0158465 5.03198788,42.086312 5.03198788,42.1537138 C4.96533904,42.1537138 4.96533904,42.2211157 4.8956607,42.358983 C4.8956607,42.4294486 4.82901185,42.4968504 4.82901185,42.567316 L4.82901185,42.7725851 C4.82901185,42.9104525 4.82901185,42.9778543 4.8956607,43.0483199 C4.8956607,43.3914564 5.03198788,43.6671912 5.30464225,43.8724604 C5.57729662,44.0807933 5.78027265,44.1481951 6.05292702,44.1481951 L6.18925421,44.1481951 C7.47981823,44.0103277 8.56740622,43.8050586 9.45201818,43.5293238 C13.3267397,42.567316 16.8621581,40.9159713 19.9916243,38.6457552 C22.3031275,39.0593574 24.5479818,39.2646265 26.7231578,39.2646265 C31.4824913,39.2646265 35.9721999,38.3700205 40.1195759,36.651274 C44.2003029,34.8651256 47.4630669,32.5275078 49.8442484,29.5005531 C52.2224004,26.4735985 53.3796668,23.1739728 53.3796668,19.5986124 C53.3796668,16.0906538 52.2224004,12.7910281 49.8442484,9.76407341 C47.4630669,6.73711874 44.2003029,4.39950091 40.1195759,2.61335256 C35.9721999,0.894606036 31.5521697,0 26.7231578,0 C21.8274971,0 17.4074668,0.894606036 13.2600909,2.61335256 C9.17936381,4.39950091 5.91659984,6.73711874 3.53541834,9.76407341 C1.15726633,12.7910281 0,16.0906538 0,19.5986124 C0,22.6929689 0.884611958,25.5115906 2.72048472,28.2628105 Z M7.81912145,12.3100241 C9.79132139,10.0398081 12.4451573,8.18319425 15.8442484,6.87498611 C19.1766907,5.56984169 22.8484362,4.88050484 26.7231578,4.88050484 C30.5312305,4.88050484 34.202976,5.56984169 37.5354183,6.87498611 C40.9345095,8.18319425 43.5883454,10.0398081 45.5605453,12.3100241 C47.5297158,14.5771764 48.5506549,17.0526616 48.5506549,19.5986124 C48.5506549,22.2119649 47.5297158,24.6874501 45.5605453,26.9546024 C43.5883454,29.2248184 40.9345095,31.0814323 37.5354183,32.3896404 C34.202976,33.6947849 30.5312305,34.3841217 26.7231578,34.3841217 C24.8206362,34.3841217 22.8484362,34.1757888 20.8762363,33.8326522 L18.9040364,33.4895157 L17.2044908,34.6567927 C16.5228549,35.1408604 15.7079212,35.6218643 14.8233093,36.1702701 L16.1835516,32.9380462 L12.5118061,30.7382957 C10.0639758,29.3626858 8.15842466,27.6439392 6.86786064,25.7168598 C5.50761828,23.7254423 4.82901185,21.730961 4.82901185,19.5986124 C4.82901185,17.0526616 5.8469215,14.5771764 7.81912145,12.3100241 Z" id="Path" sketch:type="MSShapeGroup"></path>
        </g>
    </g>
</svg>