<?xml version="1.0" encoding="UTF-8" standalone="no"?>
<svg width="45px" height="45px" viewBox="0 0 45 45" version="1.1" xmlns="http://www.w3.org/2000/svg" xmlns:xlink="http://www.w3.org/1999/xlink" xmlns:sketch="http://www.bohemiancoding.com/sketch/ns">
    <!-- Generator: Sketch 3.2.2 (9983) - http://www.bohemiancoding.com/sketch -->
    <title>Getting Started with Symfony on Aptible</title>
    <defs></defs>
    <g id="Page-1" stroke="none" stroke-width="1" fill="none" fill-rule="evenodd" sketch:type="MSPage">
        <path d="M45,22.4980118 C45,34.9259963 34.9259963,45 22.5,45 C10.0740037,45 0,34.9259963 0,22.4980118 C0,10.0720156 10.0740037,0 22.5,0 C34.9259963,0 45,10.0720156 45,22.4980118 L45,22.4980118 Z M32.3374127,8.32442343 C30.0510294,8.40394981 28.0569055,9.66444287 26.5717505,11.4060705 C24.9255545,13.3166917 23.8320668,15.5831934 23.0447557,17.897411 C21.6351507,16.7422904 20.5476275,15.2471945 18.2851021,14.59309 C16.5355218,14.0900857 14.7004506,14.2968543 13.0105152,15.5553592 C12.2092869,16.1537952 11.6585668,17.0564195 11.3981179,17.9053636 C10.7181674,20.1122206 12.1098789,22.076522 12.7441018,22.7823186 L14.1258726,24.2615092 C14.4101794,24.5517805 15.0960944,25.3092692 14.7620836,26.3967924 C14.4002386,27.5797473 12.9747283,28.3432005 11.5154193,27.8938765 C10.863303,27.6910842 9.92489176,27.2059733 10.1356367,26.5240346 C10.2211275,26.2437042 10.4219316,26.0329593 10.5312804,25.792392 C10.6287002,25.5836352 10.676416,25.4285588 10.7062384,25.3371035 C10.9726518,24.4643015 10.6088186,23.3310506 9.67637183,23.0427675 C8.80555801,22.7763542 7.9148626,22.9870991 7.56892286,24.108421 C7.17725546,25.3828311 7.78563223,27.6930724 11.05019,28.7010692 C14.8754087,29.8760714 18.110144,27.7924803 18.5694089,25.0786427 C18.8596801,23.3787665 18.0902624,22.1123089 16.6826456,20.4879827 L15.5374658,19.2215251 C14.84161,18.5256693 14.605019,17.3447027 15.3227445,16.4361138 C15.9291332,15.6686843 16.7939825,15.3426261 18.2075638,15.7263409 C20.2732615,16.2850137 21.1937793,17.7204648 22.7286383,18.8755854 C22.0944155,20.9552001 21.6808783,23.0427675 21.3051162,24.9176018 L21.0744897,26.3132897 C19.9750376,32.0729875 19.1380224,35.234161 16.9589997,37.0513387 C16.5196165,37.3634797 15.8933463,37.8306972 14.9469824,37.8644959 C14.4519307,37.8804012 14.2908898,37.5384377 14.2829372,37.3893258 C14.2729964,37.0413979 14.5652558,36.8823451 14.7600954,36.7252806 C15.0503667,36.5662278 15.4917381,36.3018026 15.4619157,35.4608112 C15.4301052,34.4627551 14.6030308,33.5979058 13.4101352,33.6396572 C12.5154635,33.6694795 11.1535743,34.510471 11.2052664,36.0512945 C11.2589467,37.641822 12.7401255,38.8347177 14.9768048,38.7571795 C16.1716886,38.7174163 18.8417867,38.2303172 21.4721216,35.1049306 C24.5338871,31.5202792 25.3887956,27.4107537 26.0349474,24.4026686 L26.752673,20.4323142 C27.152293,20.48003 27.5797473,20.5118406 28.0449766,20.5237696 C31.8562782,20.6052841 33.762923,18.6290536 33.7927454,17.1936025 C33.8106389,16.3247769 33.2221437,15.4678802 32.3970575,15.4877618 C31.8065742,15.5056552 31.0649907,15.8973226 30.8880445,16.7144561 C30.7150747,17.5156844 32.1008218,18.2393744 31.0152867,18.9411947 C30.245869,19.4402227 28.8640983,19.7921269 26.9196784,19.5058319 L27.2735707,17.5514712 C27.9952726,13.8455421 28.885968,9.28669259 32.2618627,9.17734382 C32.5083945,9.16541486 33.4090307,9.18728462 33.4289123,9.78373244 C33.4348767,9.98254838 33.3871609,10.0342405 33.1525581,10.489529 C32.913979,10.8434214 32.8265,11.1456216 32.8364408,11.4935495 C32.8702395,12.4399134 33.5899532,13.0622073 34.6297605,13.0244323 C36.0234603,12.9787046 36.4230803,11.6227799 36.4012106,10.9249359 C36.3435539,9.28669259 34.6158434,8.25086154 32.3334364,8.32442343 L32.3374127,8.32442343 Z" id="Shape" fill="#C9D1DB" sketch:type="MSShapeGroup"></path>
    </g>
</svg>