<?xml version="1.0" encoding="UTF-8" standalone="no"?>
<svg width="44px" height="44px" viewBox="0 0 44 44" version="1.1" xmlns="http://www.w3.org/2000/svg" xmlns:xlink="http://www.w3.org/1999/xlink" xmlns:sketch="http://www.bohemiancoding.com/sketch/ns">
    <!-- Generator: Sketch 3.2.2 (9983) - http://www.bohemiancoding.com/sketch -->
    <title>Troubleshooting Common Issues on Aptible</title>
    <defs></defs>
    <g id="Page-1" stroke="none" stroke-width="1" fill="none" fill-rule="evenodd" sketch:type="MSPage">
        <path d="M29.5578243,24.9804955 L41.4648865,35.9283079 C41.8369822,36.2994201 41.8369822,36.8560886 41.4648865,37.2272008 L34.9532119,43.7216658 C34.5811162,44.0927781 34.0229726,44.0927781 33.6508769,43.7216658 L22.9531258,31.9388508 L29.5578243,24.9804955 L29.5578243,24.9804955 Z M6.2088197,13.1976805 C6.76696324,13.1976805 7.4181307,13.4760148 7.79022639,13.847127 L13.3716618,19.3210332 L16.9065708,15.9810227 L11.2321115,10.4143384 C10.8600158,10.0432261 10.5809441,9.30100158 10.5809441,8.83711123 L10.5809441,7.90933052 C10.5809441,7.3526621 10.3018723,6.7032156 9.83675269,6.42488139 L4.53438909,2.99209278 C4.06926947,2.71375857 3.41810201,2.80653664 3.04600632,3.17764892 L0.348312559,5.86821297 C-0.0237831322,6.23932525 -0.116807055,6.88877174 0.162264714,7.3526621 L3.60414986,12.6410121 C3.88322163,13.1049025 4.53438909,13.3832367 5.09253263,13.3832367 L6.2088197,13.1976805 L6.2088197,13.1976805 Z M43.9765324,10.5071165 L34.9532119,15.053242 L29.7438722,6.79599367 L39.0462645,1.87875593 C35.4183315,-0.719030047 31.6043506,-0.440695836 28.0694416,1.60042172 C23.5112694,4.1982077 21.4647431,9.48655772 23.0461497,14.3110174 L1.65064748,35.6499736 C0.906456097,36.3921982 0.906456097,37.5983131 1.65064748,38.2477596 L5.55765224,42.1444386 C6.30184362,42.8866632 7.51115462,42.8866632 8.16232208,42.1444386 L10.7669919,39.5466526 L29.4648004,20.8982604 C32.348542,21.9188192 35.6043793,21.733263 38.4881209,20.0632578 C42.02303,18.0221402 44.2556042,14.8676858 43.9765324,10.5071165 L43.9765324,10.5071165 Z" id="Shape" fill="#C9D1DB" sketch:type="MSShapeGroup"></path>
    </g>
</svg>