<?xml version="1.0" encoding="UTF-8"?>
<svg width="24px" height="24px" viewBox="0 0 24 24" version="1.1" xmlns="http://www.w3.org/2000/svg" xmlns:xlink="http://www.w3.org/1999/xlink">
    <!-- Generator: Sketch 46.2 (44496) - http://www.bohemiancoding.com/sketch -->
    <title>checkbox-checked-focus</title>
    <desc>Created with Sketch.</desc>
    <defs></defs>
    <g id="Page-1" stroke="none" stroke-width="1" fill="none" fill-rule="evenodd">
        <g id="checkbox-checked-focus" fill-rule="nonzero" fill="#307AD1">
            <path d="M21,0 L3,0 C2.171871,0 1.4648466,0.292965 0.8789064,0.878907 C0.29296581,1.464846 0,2.171871 0,3 L0,21 C0,21.828129 0.29296581,22.5351534 0.8789064,23.1210936 C1.4648466,23.7070342 2.171871,24 3,24 L21,24 C21.828129,24 22.535154,23.7070342 23.121093,23.1210936 C23.707035,22.5351534 24,21.828129 24,21 L24,3 C24,2.171871 23.707035,1.464846 23.121093,0.878907 C22.535154,0.292965 21.828129,0 21,0 Z M22.5,21 C22.5,21.4062519 22.351563,21.7578111 22.054686,22.0546875 C21.757812,22.3515639 21.406251,22.5 21,22.5 L3,22.5 C2.5937481,22.5 2.2421889,22.3515639 1.9453125,22.0546875 C1.6484361,21.7578111 1.5,21.4062519 1.5,21 L1.5,3 C1.5,2.593749 1.6484361,2.242188 1.9453125,1.945314 C2.2421889,1.648437 2.5937481,1.5 3,1.5 L21,1.5 C21.406251,1.5 21.757812,1.648437 22.054686,1.945314 C22.351563,2.242188 22.5,2.593749 22.5,3 L22.5,21 Z" id="Page-1"></path>
            <path d="M16.523436,6.796875 C16.335936,6.703125 16.144533,6.679686 15.949218,6.726564 C15.753906,6.773439 15.601563,6.890625 15.492186,7.078125 L10.6875,15.375 L8.015625,12.914064 C7.875,12.757812 7.699221,12.67578 7.488282,12.667968 C7.277343,12.660156 7.101564,12.726561 6.960936,12.867186 C6.804687,13.007814 6.722655,13.183593 6.714843,13.394532 C6.707031,13.605471 6.773436,13.78125 6.914064,13.921875 L10.359375,17.085936 C10.5,17.242188 10.671873,17.32422 10.875,17.332032 C11.078127,17.339844 11.257812,17.273439 11.414064,17.132814 C11.429688,17.117187 11.718747,16.621098 12.28125,15.644532 C12.843753,14.667963 13.460934,13.601568 14.132814,12.445314 C14.804691,11.289057 15.417966,10.230474 15.972657,9.269532 C16.527348,8.30859 16.804686,7.828125 16.804686,7.828125 C16.898439,7.640625 16.917969,7.449219 16.863282,7.253907 C16.808592,7.058592 16.695312,6.906252 16.523436,6.796875 Z" id="Path"></path>
        </g>
    </g>
</svg>