<?xml version="1.0" encoding="UTF-8"?>
<svg width="24px" height="24px" viewBox="0 0 24 24" version="1.1" xmlns="http://www.w3.org/2000/svg" xmlns:xlink="http://www.w3.org/1999/xlink">
    <!-- Generator: Sketch 46.2 (44496) - http://www.bohemiancoding.com/sketch -->
    <title>checkbox-unchecked</title>
    <desc>Created with Sketch.</desc>
    <defs></defs>
    <g id="Page-1" stroke="none" stroke-width="1" fill="none" fill-rule="evenodd">
        <g id="CC---Contact-5" transform="translate(-255.000000, -768.000000)" fill="#307AD1">
            <g id="checkbox-unchecked" transform="translate(255.000000, 768.000000)">
                <path d="M21,0 L3,0 C2.171871,0 1.4648466,0.292965 0.8789064,0.878907 C0.29296581,1.464846 0,2.171871 0,3 L0,21 C0,21.828129 0.29296581,22.5351534 0.8789064,23.1210936 C1.4648466,23.7070342 2.171871,24 3,24 L21,24 C21.828129,24 22.535154,23.7070342 23.121093,23.1210936 C23.707035,22.5351534 24,21.828129 24,21 L24,3 C24,2.171871 23.707035,1.464846 23.121093,0.878907 C22.535154,0.292965 21.828129,0 21,0 Z M22.5,21 C22.5,21.4062519 22.351563,21.7578111 22.054686,22.0546875 C21.757812,22.3515639 21.406251,22.5 21,22.5 L3,22.5 C2.5937481,22.5 2.2421889,22.3515639 1.9453125,22.0546875 C1.6484361,21.7578111 1.5,21.4062519 1.5,21 L1.5,3 C1.5,2.593749 1.6484361,2.242188 1.9453125,1.945314 C2.2421889,1.648437 2.5937481,1.5 3,1.5 L21,1.5 C21.406251,1.5 21.757812,1.648437 22.054686,1.945314 C22.351563,2.242188 22.5,2.593749 22.5,3 L22.5,21 Z" id="Page-1"></path>
            </g>
        </g>
    </g>
</svg>