<svg width="12px" height="9px" viewBox="0 0 12 9" version="1.1" xmlns="http://www.w3.org/2000/svg" xmlns:xlink="http://www.w3.org/1999/xlink">
  <g stroke="none" stroke-width="1" fill="none" fill-rule="evenodd">
    <path d="M0.197980766,4.87902155 L3.86385608,8.54489687 C3.99545161,8.67649239 4.16699577,8.74229016 4.36497654,8.74229016 C4.5629573,8.74229016 4.73391399,8.67649239 4.86609699,8.54489687 L11.1956067,2.21538715 C11.3272022,2.07027959 11.393,1.91224746 11.393,1.71426669 C11.393,1.51628593 11.3272022,1.34474176 11.1956067,1.21314624 L10.1933658,0.210905327 C10.0611828,0.0657977621 9.89022611,0 9.69224535,0 C9.49426458,0 9.32272041,0.0657977621 9.19112489,0.210905327 L4.36497654,5.03705368 L2.20246259,2.87453973 C2.07027959,2.72943217 1.8993229,2.6636344 1.70134213,2.6636344 C1.50336137,2.6636344 1.3318172,2.72943217 1.20022168,2.87453973 L0.197980766,3.87678064 C0.0663852421,4.00837617 0,4.17992033 0,4.3779011 C0,4.57588186 0.0663852421,4.73391399 0.197980766,4.87902155" id="checklist-item" fill="#307AD1"></path>
  </g>
</svg>
