<?xml version="1.0" encoding="UTF-8" standalone="no"?>
<svg width="49px" height="60px" viewBox="0 0 49 60" version="1.1" xmlns="http://www.w3.org/2000/svg" xmlns:xlink="http://www.w3.org/1999/xlink">
    <!-- Generator: Sketch 3.8.3 (29802) - http://www.bohemiancoding.com/sketch -->
    <title>Shape</title>
    <desc>Created with Sketch.</desc>
    <defs></defs>
    <g id="Page-1" stroke="none" stroke-width="1" fill="none" fill-rule="evenodd">
        <g id="ToolBelt-Copy" transform="translate(-576.000000, -464.000000)" fill="#C9D1DB">
            <g id="OS" transform="translate(246.000000, 422.000000)">
                <g id="Node" transform="translate(241.000000, 0.000000)">
                    <g id="Default" transform="translate(89.000000, 42.000000)">
                        <path id="debian-shape" d="M42.9394157,25.7922936 C42.9983258,27.3919266 42.4714382,28.1680734 41.9963034,29.5420183 L41.1412809,29.9691743 C40.4415169,31.3277064 41.209,30.8317431 40.7079888,31.9122936 C39.6156742,32.8833028 37.3930562,34.9508257 36.6817303,35.139633 C36.1625506,35.1280734 37.0335393,34.5269725 37.1475056,34.2913761 C35.6852135,35.2954128 35.9742584,35.7985321 33.7378764,36.4084404 L33.6723596,36.2631193 C28.1568315,38.8574312 20.4952135,33.7161468 20.5959663,26.7011009 C20.5370562,27.146422 20.4285955,27.0352294 20.3063708,27.2152294 C20.0217303,23.6058716 21.9734719,19.9805505 25.2652809,18.500367 C28.4849663,16.906789 32.259618,17.5607339 34.5659213,19.7097248 C33.2990787,18.0506422 30.7775056,16.2919266 27.7890562,16.4565138 C24.8617191,16.5027523 22.1232247,18.3627523 21.2092921,20.3818349 C19.7095618,21.3258716 19.5355843,24.0209174 18.8820674,24.5141284 C18.0028202,30.9748624 20.5359551,33.7662385 24.8209775,37.0497248 C25.4954157,37.5044037 25.0109213,37.573211 25.1023146,37.9194495 C23.6785618,37.252844 22.3748315,36.2466055 21.3028876,35.0146789 C21.871618,35.8469725 22.4854944,36.6561468 23.2788539,37.2919266 C21.9365843,36.8372477 20.1434045,34.0398165 19.6198202,33.9258716 C21.9338315,38.0680734 29.008,41.1902752 32.7121798,39.6412844 C30.9982809,39.7045872 28.820809,39.6765138 26.8949438,38.9647706 C26.0861685,38.5486239 24.9861461,37.6866055 25.1826966,37.5253211 C30.2379551,39.4133945 35.4600337,38.9554128 39.8342472,35.4495413 C40.9469326,34.5831193 42.162573,33.1089908 42.5138315,33.0886239 C41.9847416,33.8840367 42.6041236,33.4711927 42.197809,34.173578 C43.3066404,32.3856881 41.7160674,33.4458716 43.3440787,31.086055 L43.9452921,31.913945 C43.721764,30.4299083 45.788573,28.6277064 45.578809,26.2805505 C46.0528427,25.5627523 46.1078989,27.052844 45.6046854,28.7042202 C46.3027978,26.8722936 45.788573,26.5777982 45.9680562,25.0662385 C46.1618539,25.5743119 46.4162135,26.1143119 46.5466966,26.6504587 C46.0919326,24.8801835 47.013573,23.6691743 47.2415056,22.640367 C47.0168764,22.5407339 46.5395393,23.4231193 46.4305281,21.3319266 C46.4464944,20.4236697 46.683236,20.8557798 46.7746292,20.6322936 C46.5962472,20.5299083 46.1282697,19.833578 45.8436292,18.4981651 C46.0500899,18.1844037 46.3952921,19.3117431 46.6760787,19.3579817 C46.4954944,18.2961468 46.184427,17.486422 46.171764,16.6717431 C45.351427,14.9576147 45.881618,16.9001835 45.2159888,15.9357798 C44.3427978,13.2126606 45.9405281,15.3038532 46.0484382,14.066422 C47.3719888,15.9836697 48.126809,18.9550459 48.4731124,20.1858716 C48.2088427,18.6853211 47.7816067,17.2315596 47.2602247,15.8251376 C47.6621348,15.9941284 46.612764,12.7376147 47.7827079,14.8943119 C46.5329326,10.2968807 42.434,6.00110092 38.6632022,3.9853211 C39.124573,4.40752294 39.7070674,4.93761468 39.4978539,5.02073394 C37.6226404,3.90440367 37.952427,3.81743119 37.6837528,3.34568807 C36.1559438,2.72422018 36.0557416,3.39577982 35.043809,3.34678899 C32.1643708,1.81981651 31.6094045,1.98220183 28.9595506,1.02550459 L29.0801236,1.58862385 C27.172427,0.953394495 26.8575056,1.82972477 24.7956517,1.59082569 C24.6701236,1.49284404 25.4563258,1.23633028 26.103236,1.14220183 C24.2588539,1.38550459 24.3452921,0.778899083 22.5405506,1.2093578 C22.9854045,0.897247706 23.4555843,0.690825688 23.9301685,0.425504587 C22.4260337,0.516880734 20.3394045,1.30073394 20.9835618,0.587889908 C18.5302584,1.68220183 14.1731124,3.21853211 11.7280674,5.5106422 L11.6509888,4.99706422 C10.5305955,6.34183486 6.76530337,9.01321101 6.46524719,10.7548624 L6.16574157,10.8247706 C5.58269663,11.8117431 5.2055618,12.9302752 4.74308989,13.9458716 C3.9805618,15.2449541 3.62544944,14.4456881 3.73391011,14.6493578 C2.23417978,17.6895413 1.48926966,20.2442202 0.845662921,22.3392661 C1.3042809,23.0245872 0.856674157,26.4649541 1.03010112,29.2183486 C0.276932584,42.8168807 10.5757416,56.0201835 21.8330787,59.0686239 C23.4831124,59.6587156 25.9369663,59.6361468 28.0241461,59.6966972 C25.5614831,58.9926606 25.2432584,59.3234862 22.8444607,58.4873394 C21.1140449,57.6726606 20.7347079,56.7423853 19.5091573,55.6788991 L19.9942022,56.5359633 C17.5904494,55.6855046 18.5963258,55.4834862 16.6407303,54.8642202 L17.158809,54.1877064 C16.379764,54.1288073 15.0953034,52.8748624 14.7440449,52.1807339 L13.8917753,52.2143119 C12.8677303,50.9510092 12.3221236,50.0405505 12.361764,49.3354128 L12.0864831,49.8258716 C11.7743146,49.2902752 8.31898876,45.0880734 10.111618,46.0662385 C9.77852809,45.7618349 9.3358764,45.5708257 8.85578652,44.6988991 L9.22080899,44.2816514 C8.35807865,43.1719266 7.63298876,41.7495413 7.68804494,41.2755963 C8.14831461,41.8970642 8.46764045,42.013211 8.78366292,42.1194495 C6.60508989,36.7150459 6.48286517,41.8216514 4.83283146,36.6181651 L5.18188764,36.5900917 C4.91431461,36.187156 4.75189888,35.7495413 4.53662921,35.3201835 L4.68858427,33.806422 C3.12003371,31.993211 4.24978652,26.0966972 4.47606742,22.8627523 C4.63297753,21.5477064 5.78530337,20.1478899 6.66179775,17.9526606 L6.12775281,17.8607339 C7.14849438,16.0805505 11.956,10.7113761 14.1824719,10.9877064 C15.2610225,9.63302752 13.9683034,10.9827523 13.7574382,10.6414679 C16.1265056,8.19027523 16.8714157,8.90972477 18.4702472,8.46880734 C20.1946067,7.44550459 16.9903371,8.86788991 17.8079213,8.07853211 C20.7886629,7.31724771 19.920427,6.34788991 23.8090449,5.96146789 C24.2192135,6.19486239 22.8571236,6.32201835 22.5152247,6.62477064 C24.998809,5.40990826 30.3744944,5.68623853 33.8661573,7.29908257 C37.9177416,9.19211009 42.4697865,14.7880734 42.6492697,20.053211 L42.8535281,20.1082569 C42.7500225,22.2011009 43.1739551,24.6214679 42.4395056,26.8447706 L42.9394157,25.7922936" id="Shape"></path>
                    </g>
                </g>
            </g>
        </g>
    </g>
</svg>