<?xml version="1.0" encoding="UTF-8" standalone="no"?>
<svg width="118px" height="42px" viewBox="0 0 118 42" version="1.1" xmlns="http://www.w3.org/2000/svg" xmlns:xlink="http://www.w3.org/1999/xlink" xmlns:sketch="http://www.bohemiancoding.com/sketch/ns">
    <!-- Generator: Sketch 3.2.2 (9983) - http://www.bohemiancoding.com/sketch -->
    <title>Getting Started with Django on Aptible</title>
    <defs></defs>
    <g id="Page-1" stroke="none" stroke-width="1" fill="none" fill-rule="evenodd" sketch:type="MSPage">
        <g id="icon-django-link" sketch:type="MSLayerGroup" fill="#C9D1DB">
            <g id="icon-django" sketch:type="MSShapeGroup">
                <g id="Group">
                    <path d="M14.32225,5.57433333 L14.32225,10.385 L13.960875,10.319 C11.741,9.934 9.3773125,10.088 7.3639375,10.7553333 C2.90575,12.2366667 0.405625,16.1636667 0.6305625,21.341 C0.7375,23.662 1.2058125,25.2606667 2.2161875,26.7713333 C3.658,28.931 5.9921875,30.2143333 9.4068125,30.7496667 C11.918,31.1456667 17.0251875,30.867 20.480375,30.141 L20.7421875,30.0823333 L20.7421875,0.782 L14.3185625,0.782 L14.3185625,5.58166667 L14.32225,5.57433333 Z M13.865,15.3863333 L14.32225,15.5036667 L14.32225,25.7116667 L13.6695625,25.7703333 C11.128875,26.0123333 9.45475,25.587 8.385375,24.4136667 C7.5483125,23.5043333 7.1205625,22.2063333 7.1205625,20.6113333 C7.1205625,17.7843333 8.473875,15.8703333 10.856,15.3276667 C11.5455625,15.1736667 13.1606875,15.203 13.865,15.3863333 L13.865,15.3863333 Z" id="Shape"></path>
                    <path d="M24.5403125,4.016 L24.5403125,7.25733333 L30.9639375,7.25733333 L30.9455,4.03433333 L30.916,0.822333333 L27.7336875,0.793 L24.5403125,0.774666667 L24.5403125,4.016 L24.5403125,4.016 Z" id="Shape"></path>
                    <path d="M41.9600625,10.1246667 C39.69225,10.2896667 37.3175,10.869 35.3225625,11.7416667 L34.758375,11.9946667 L34.758375,14.433 C34.758375,16.3396667 34.787875,16.853 34.88375,16.8126667 C38.3205,15.3496667 40.0204375,14.9463333 42.4173125,15.0123333 C43.4276875,15.0416667 43.64525,15.0783333 43.8775625,15.2543333 C44.345875,15.5916667 44.4896875,16.0096667 44.4896875,17.007 C44.4896875,17.502 44.47125,17.9053333 44.44175,17.9053333 C44.1615,17.9053333 42.2624375,18.1473333 41.3553125,18.3013333 C36.6943125,19.075 34.279,20.6626667 33.637375,23.343 C33.453,24.146 33.453,26.082 33.637375,26.885 C33.9508125,28.183 34.610875,29.151 35.6618125,29.8183333 C37.841125,31.2226667 41.130375,31.3656667 49.72225,30.427 L50.327,30.361 L50.327,23.0936667 C50.327,19.097 50.2790625,15.4303333 50.231125,14.9463333 C49.9398125,12.2256667 48.6344375,10.8616667 45.784,10.3226667 C44.9875,10.176 42.8745625,10.0696667 41.9600625,10.1283333 L41.9600625,10.1246667 Z M44.781,24.1826667 L44.781,26.302 L43.932875,26.4266667 C42.6090625,26.621 40.8390625,26.599 40.28225,26.3863333 C39.2681875,25.9976667 38.8699375,24.8683333 39.3861875,23.8783333 C39.6664375,23.3356667 40.3596875,22.892 41.3921875,22.5913333 C41.897375,22.4446667 44.0693125,22.089 44.5634375,22.0706667 L44.7773125,22.0596667 L44.7773125,24.179 L44.781,24.1826667 Z" id="Shape"></path>
                    <path d="M62.0053125,10.132 C59.6969375,10.2273333 56.2528125,10.781 53.8116875,11.43 L53.4429375,11.5253333 L53.4429375,30.6763333 L59.8665625,30.6763333 L59.885,23.1486667 L59.9145,15.632 L60.5966875,15.4486667 C61.0834375,15.324 61.647625,15.2653333 62.591625,15.2543333 C63.779,15.2433333 63.956,15.2653333 64.420625,15.478 C65.0511875,15.7603333 65.453125,16.204 65.674375,16.8603333 C65.82925,17.326 65.8476875,17.9713333 65.8771875,24.0213333 L65.9066875,30.68 L72.23075,30.68 L72.1901875,23.112 C72.1606875,16.3103333 72.14225,15.467 71.99475,14.917 C71.7034375,13.8243333 71.264625,13.0873333 70.468125,12.2843333 C69.22175,11.0376667 67.547625,10.3886667 64.9885,10.176 C63.801125,10.0806667 63.461875,10.0696667 62.001625,10.1356667 L62.0053125,10.132 Z" id="Shape"></path>
                    <path d="M104.76925,10.209 C101.02275,10.8873333 98.33825,13.1203333 97.2061875,16.5266667 C96.6715,18.1216667 96.524,19.2546667 96.583,21.2786667 C96.6235625,22.4886667 96.6899375,23.2256667 96.826375,23.816 C97.622875,27.193 99.7358125,29.5616667 102.888625,30.6286667 C105.584188,31.549 109.301188,31.395 111.753375,30.262 C114.88775,28.832 116.80525,26.0233333 117.269875,22.21 C117.815625,17.799 116.344313,13.8096667 113.464375,11.837 C112.210625,10.9753333 111.207625,10.5683333 109.563,10.2493333 C108.434625,10.0256667 105.864438,10.0073333 104.765563,10.209 L104.76925,10.209 Z M108.349813,15.3863333 C109.382313,15.764 110.160375,16.7613333 110.588125,18.239 C110.783563,18.9063333 110.813063,19.2363333 110.813063,20.6113333 C110.813063,21.9753333 110.783563,22.3126667 110.588125,22.9616667 C110.160375,24.4503333 109.507688,25.323 108.445688,25.818 C107.97,26.0416667 107.7635,26.0783333 106.967,26.0783333 C106.177875,26.0783333 105.964,26.038 105.50675,25.8253333 C104.455813,25.3413333 103.82525,24.5566667 103.386438,23.2403333 C103.054563,22.232 102.966063,19.9036667 103.209438,18.712 C103.50075,17.3296667 104.083375,16.3213333 104.972063,15.72 C105.916063,15.071 107.180875,14.9463333 108.349813,15.3826667 L108.349813,15.3863333 Z" id="Shape"></path>
                    <path d="M86.4829375,10.22 C83.9238125,10.4913333 82.0063125,10.957 80.3321875,11.7196667 C76.3423125,13.5383333 74.2699375,16.8493333 74.2699375,21.385 C74.2699375,25.8363333 76.3128125,29.0593333 79.9155,30.306 C81.958375,31.0136667 84.7129375,31.043 86.6599375,30.372 C87.135625,30.207 87.5375625,30.0933333 87.556,30.1116667 C87.6334375,30.1886667 87.4085,32.0183333 87.253625,32.5133333 C86.7558125,34.167 85.763875,35.1056667 84.0049375,35.5823333 C83.1015,35.8353333 80.026125,35.8353333 78.846125,35.5823333 C77.813625,35.3696667 76.382875,34.904 75.468375,34.4896667 L74.7566875,34.1706667 L74.7566875,40.0336667 L75.9035,40.382 C77.8505,40.9723333 79.495125,41.2253333 81.597,41.2253333 C86.3944375,41.2363333 89.8090625,39.766 91.8150625,36.8326667 C92.711125,35.5163333 93.286375,33.8443333 93.5555625,31.714 C93.692,30.6286667 93.7215,19.4453333 93.596125,16.853 L93.52975,15.467 L94.2783125,15.4963333 L95.0379375,15.5366667 L96.0999375,13.3293333 C96.6825625,12.1193333 97.1398125,11.1036667 97.121375,11.0743333 C97.032875,10.9973333 95.0969375,10.649 93.5998125,10.4473333 C92.5083125,10.3006667 91.45,10.2456667 89.503,10.2163333 C88.0611875,10.2053333 86.7005,10.2053333 86.486625,10.2273333 L86.4829375,10.22 Z M87.445375,16.7613333 C87.474875,17.634 87.5228125,19.9146667 87.5523125,21.8396667 L87.6113125,25.3413333 L87.2425625,25.4403333 C85.8044375,25.8253333 84.3810625,25.8253333 83.389125,25.4586667 C81.7334375,24.828 80.896375,23.4163333 80.8115625,21.1246667 C80.7451875,19.207 81.1139375,17.9786667 82.076375,16.974 C83.138375,15.8593333 84.7719375,15.2616667 86.884875,15.203 L87.3900625,15.192 L87.4490625,16.7613333 L87.445375,16.7613333 Z" id="Shape"></path>
                    <path d="M24.5403125,17.9236667 C24.5403125,28.887 24.403875,30.3206667 23.2054375,32.6416667 C22.456875,34.0936667 21.0740625,35.3036667 19.0016875,36.3376667 C18.474375,36.598 18.312125,36.7153333 18.4190625,36.774 C18.4965,36.8216667 19.831375,37.4523333 21.3764375,38.1783333 L24.197375,39.5056667 L24.7910625,39.205 C28.5670625,37.2616667 30.28175,34.541 30.7648125,29.6643333 C30.8311875,29.0263333 30.90125,25.0296667 30.93075,19.5736667 L30.98975,10.5536667 L24.536625,10.5536667 L24.536625,17.9273333 L24.5403125,17.9236667 Z" id="Shape"></path>
                </g>
            </g>
        </g>
    </g>
</svg>