<?xml version="1.0" encoding="UTF-8" standalone="no"?>
<svg class="documentation" width="42px" height="48px" viewBox="0 0 42 48" version="1.1" xmlns="http://www.w3.org/2000/svg" xmlns:xlink="http://www.w3.org/1999/xlink" xmlns:sketch="http://www.bohemiancoding.com/sketch/ns">
    <!-- Generator: Sketch 3.2.2 (9983) - http://www.bohemiancoding.com/sketch -->
    <title>Documentation</title>
    <defs></defs>
    <g id="Page-1" stroke="none" stroke-width="1" fill="none" fill-rule="evenodd" sketch:type="MSPage">
        <g id="Documentation" sketch:type="MSLayerGroup" fill="#C9D1DB">
            <g id="Fill-153-+-Path" sketch:type="MSShapeGroup">
                <path d="M0.783842795,47.2322908 C1.27510917,47.7583534 1.91048035,48 2.64628821,48 L39.3537118,48 C40.0895197,48 40.7248908,47.7583534 41.2161572,47.2322908 C41.7554585,46.7511361 42,46.1267041 42,45.4081796 L42,14.5928896 C42,13.8722267 41.8034934,13.0553328 41.4606987,12.1913927 C41.0676856,11.3766373 40.6266376,10.6559743 40.1375546,10.1748196 L31.6113537,1.8241112 C31.1200873,1.34295643 30.3842795,0.910986367 29.5524017,0.528201016 C28.6703057,0.192461909 27.8362445,0 27.1004367,0 L2.64628821,0 C1.91048035,0 1.27510917,0.239508153 0.783842795,0.767709169 C0.244541485,1.24886394 0,1.87115744 0,2.59182037 L0,45.4081796 C0,46.1267041 0.244541485,46.7511361 0.783842795,47.2322908 L0.783842795,47.2322908 Z M3.48034934,3.40871425 L24.5043668,3.40871425 L24.5043668,14.5437049 C24.5043668,15.2643678 24.7489083,15.8887998 25.2882096,16.3678161 C25.7772926,16.8960171 26.4148472,17.1355253 27.150655,17.1355253 L38.5196507,17.1355253 L38.5196507,44.5912858 L3.48034934,44.5912858 L3.48034934,3.40871425 L3.48034934,3.40871425 Z M27.9825328,3.59903769 C28.5218341,3.7914996 28.8646288,3.98396151 29.1113537,4.22346966 L37.6877729,12.6233627 C37.9323144,12.8628709 38.128821,13.2007485 38.3253275,13.726811 L27.9825328,13.726811 L27.9825328,3.59903769 L27.9825328,3.59903769 Z" id="Fill-153"></path>
                <path class="code-path" d="M13.1331878,37.726811 C13.2816594,37.9192729 13.4781659,38.0155039 13.6724891,38.0625501 C13.919214,38.1117348 14.1637555,38.0155039 14.360262,37.8722267 L15.731441,36.8628709 C15.9279476,36.7195937 16.0742358,36.5271318 16.0742358,36.2876236 C16.1244541,36.0951617 16.0742358,35.8556536 15.9279476,35.6631917 L10.9279476,29.1365945 L15.9279476,22.6078589 C16.0742358,22.415397 16.1244541,22.222935 16.0742358,21.9834269 C16.0742358,21.7439187 15.9279476,21.5514568 15.731441,21.4081796 L14.360262,20.4009623 C14.1637555,20.2555466 13.919214,20.2085004 13.6724891,20.2555466 C13.4781659,20.2555466 13.2816594,20.3517776 13.1331878,20.5442395 L6.91048035,28.6554397 C6.66593886,28.9911788 6.66593886,29.3269179 6.91048035,29.662657 L13.1331878,37.726811 Z M26.268559,36.8628709 L27.639738,37.8722267 C27.8362445,38.0155039 28.080786,38.1117348 28.2772926,38.0625501 C28.5218341,38.0155039 28.7183406,37.9192729 28.8646288,37.726811 L35.0414847,29.662657 C35.3340611,29.3269179 35.3340611,28.9911788 35.0414847,28.6554397 L28.8646288,20.5442395 C28.7183406,20.3517776 28.5218341,20.2555466 28.2772926,20.2555466 C28.080786,20.2085004 27.8362445,20.2555466 27.639738,20.4009623 L26.268559,21.4081796 C26.0240175,21.5514568 25.9257642,21.7439187 25.9257642,21.9834269 C25.8755459,22.222935 25.9257642,22.415397 26.0720524,22.6078589 L31.0720524,29.1365945 L26.0720524,35.6631917 C25.9257642,35.8556536 25.8755459,36.0951617 25.9257642,36.2876236 C25.9257642,36.5271318 26.0240175,36.7195937 26.268559,36.8628709 Z M17.5458515,40.6543705 C17.6921397,40.8468324 17.8886463,40.9430634 18.0829694,40.9922481 L19.7991266,41.2788025 C20.0436681,41.2788025 20.2882096,41.2317562 20.4847162,41.1355253 C20.6812227,40.9922481 20.779476,40.7997862 20.8275109,40.560278 L24.6026201,18.2881582 C24.650655,18.0486501 24.6026201,17.8561882 24.4541485,17.6637263 C24.3078603,17.4712644 24.1113537,17.3279872 23.8668122,17.2788025 L22.150655,17.0392943 C21.9563319,16.9922481 21.709607,17.0392943 21.5152838,17.18471 C21.3187773,17.3279872 21.220524,17.4712644 21.1703057,17.7107725 L17.3973799,39.9828923 C17.349345,40.2224004 17.3973799,40.4148623 17.5458515,40.6543705 Z" id="Path"></path>
            </g>
        </g>
    </g>
</svg>