<?xml version="1.0" encoding="UTF-8" standalone="no"?>
<svg width="102px" height="74px" viewBox="0 0 102 74" version="1.1" xmlns="http://www.w3.org/2000/svg" xmlns:xlink="http://www.w3.org/1999/xlink">
    <!-- Generator: Sketch 3.8.3 (29802) - http://www.bohemiancoding.com/sketch -->
    <title>Group 7</title>
    <desc>Created with Sketch.</desc>
    <defs></defs>
    <g id="Page-1" stroke="none" stroke-width="1" fill="none" fill-rule="evenodd">
        <g id="ToolBelt-Copy" transform="translate(-789.000000, -458.000000)">
            <g id="OS" transform="translate(246.000000, 422.000000)">
                <g id="Enterprise" transform="translate(273.000000, 0.000000)">
                    <g id="enterprise-linux-shape" transform="translate(270.000000, 36.000000)">
                        <g id="" transform="translate(31.000000, 0.000000)">
                            <path class="filled" d="M21.1810016,29.519938 C20.8704537,29.6016514 20.3304486,30.1122671 20.7411672,30.4062861 C20.9621375,30.5644893 21.3146865,30.5327118 21.5681798,30.6112537 C22.180355,30.8007368 22.6683234,31.193011 23.3495712,30.9785288 C23.7772018,30.8438945 24.5197786,29.9387038 23.8039636,29.6431922 C23.4779286,29.50862 23.1364064,29.9658794 22.8073979,29.9937391 C22.2109576,30.0444835 21.8055665,29.3557027 21.1810016,29.519938 L21.1810016,29.519938 Z M1.41462525,27.101059 C-2.07386892,18.2025667 1.26542845,8.07252753 9.35298636,3.0194167 C17.4405505,-2.03372522 27.9692576,-0.568443097 34.3824154,6.50274675 C40.7954493,13.5739428 41.4833255,23.9613109 35.4846033,31.8440444 C34.7026273,31.4872788 33.0648325,31.6756426 31.9073245,31.6473476 C31.2868482,31.6427458 30.5380766,31.5214816 30.3682757,31.7220339 C30.0023458,32.1290464 30.4380297,32.3076468 29.9603448,32.7519091 C29.6016629,33.0782031 29.0392323,33.121112 28.1732541,33.6666766 C26.9948075,34.4001074 25.4391565,36.4586762 24.7479969,35.7935265 C24.3777926,35.4260027 25.2232659,34.6724233 25.976374,33.7575937 C26.7321458,32.8524029 27.5927965,31.7592216 27.8236167,31.0266614 C28.1084559,30.1015709 28.0463216,29.5101125 28.1776524,29.1080128 C28.4782266,28.107552 28.7476407,27.1609449 28.2483976,27.0901763 C27.9042117,27.0424169 27.4569434,27.2790376 26.887203,27.2393002 C26.2937982,27.1968266 25.9444086,27.0899276 25.151034,27.1036087 C24.5268408,27.1144913 23.8844966,27.2330815 23.3184731,27.2192761 C22.2717291,27.1776109 22.0125365,26.9763123 21.1774706,26.9757526 C20.2969344,26.9751308 18.4804182,27.5096883 17.0570892,26.8761294 C15.9127763,26.363586 15.1449244,24.5910764 14.0903749,24.119514 C13.6031499,23.9034772 13.2862832,24.3442571 12.7733496,24.1785293 C12.1285894,23.967343 11.9286196,22.7868514 10.6090544,21.9867564 C9.74158937,21.4643253 8.85838944,21.9271815 8.61679024,22.1930299 C7.78804305,23.1138295 8.48422042,24.454452 9.29153343,25.5327085 C9.90730164,26.3671929 10.5573274,26.3846673 10.622807,26.9481417 C10.6687728,27.3491842 10.0569693,27.7509108 9.56875303,27.6173958 C8.29676423,27.2627446 7.64989786,25.7680233 6.77512292,25.4546019 C6.4286449,25.3282384 5.88461306,25.4447764 5.46881465,25.43464 C4.623775,25.4291054 2.93681789,25.4428486 1.96913258,25.4271154 C2.1395963,26.636275 1.97336366,26.8469016 1.41462525,27.101059 L1.41462525,27.101059 Z" id="path194" fill="#C9D1DB"></path>
                            <path class="stroked" d="M10.8799552,11.7475172 C9.19427427,11.7475172 7.07823699,11.4885715 5.53578099,12.3169615 C4.91821627,12.648728 4.19856041,13.2058593 4.02801615,13.9244897 C3.78530188,14.9472756 4.41785814,15.7843718 5.06447671,16.4902539 C6.28027821,17.8175062 7.57710836,19.0190791 9.02112818,20.09547 C14.0105233,23.8145501 20.1345054,25.6956379 26.2926831,25.9675185 C29.2260071,26.0969913 33.0137869,24.8990875 34.9312173,22.554646 C35.9161986,21.3503991 36.6043227,19.1080684 35.7779915,17.6564425 C35.0813805,16.4329176 32.5403144,15.1409874 31.1721196,14.9352735 C30.9196175,15.7129813 30.5874495,16.4530662 29.8554659,16.8789834 C29.6982406,15.8698164 30.2865037,14.6852205 30.2396706,13.6134936 C30.1540578,11.6536152 29.0359491,9.65194726 28.3219305,7.8600975 C27.9535227,6.93550452 27.6477449,5.92689721 26.911177,5.22362697 C24.9194085,3.32189318 22.4985226,4.33864696 20.1740905,4.50984715 C18.4322842,4.63813847 16.7218238,3.809935 14.9848495,4.0845518 C12.2684072,4.51395148 11.8110414,8.14976351 11.4678466,10.4257995 C11.220734,12.0649185 12.7966422,12.8074286 14.055436,13.2875727 C15.4239405,13.8095063 16.8365525,14.2239812 18.2377659,14.6460428 C18.9773691,14.8687959 19.8713481,15.0758778 20.3759188,15.7139141 C20.7176887,16.1461744 20.6328812,16.6854581 20.7574596,17.1899795 C20.8474089,17.554394 21.6061543,18.131736 21.4670179,18.4779919 C21.3524132,18.7631805 20.7176268,18.6773627 20.483895,18.6539183 C19.5381271,18.5590835 18.5876511,18.1738364 17.6956544,17.8629647 C15.9530428,17.2556487 14.2584412,16.4599689 12.6612847,15.5351894 C11.9969489,15.1504398 11.1538296,14.7337262 10.8171394,14.0022853 C10.4792723,13.2681704 10.7111455,12.4883483 10.8799552,11.7475172 L10.8799552,11.7475172 Z M22.1877888,5.29439552 L22.1877888,5.37212899 C22.5780025,5.4656579 23.9772955,5.50216153 23.8978775,6.15052086 C23.8610801,6.45050986 23.4468304,6.69776448 23.2721356,6.92710931 C23.8795408,7.10732659 26.3053206,7.00788993 25.6063555,5.83983572 C25.0158004,4.8529316 23.1191228,5.0692172 22.1877888,5.29439552 L22.1877888,5.29439552 Z M13.9179722,7.63324015 C13.6332569,7.77956563 13.5978843,8.20274664 13.5918752,8.48208963 C13.574096,9.32353889 14.1336769,9.94453604 14.9074139,10.2406073 C15.3334338,10.403661 15.6804074,10.0404902 16.0691343,9.90977363 C17.0098225,9.59349169 18.5911821,9.86456384 19.380654,9.24816852 C19.9750499,8.78406862 18.9069956,8.58936182 18.625068,8.52686411 C17.5332874,8.284771 16.4096653,8.76317386 15.3720896,8.39596095 C14.9699199,8.25355323 14.3577447,7.40719122 13.9179722,7.63324015 L13.9179722,7.63324015 Z" id="path173" stroke="#C9D1DB" fill="#FFFFFF"></path>
                        </g>
                        <g id="centos-logo-light-rtm" transform="translate(0.000000, 54.000000)" fill="#C9D1DB">
                            <path class="filled" d="M15.3465811,19.4784048 L7.30913529,19.4784048 C6.49411427,19.4784048 5.68776744,19.3599988 4.89010404,19.1231446 C3.34677139,18.6313009 2.1242445,17.5018134 1.22252799,15.7347172 C0.40750697,14.1315987 -1.2227756e-06,12.264314 -1.2227756e-06,10.1328771 C-1.2227756e-06,8.07434024 0.364154592,6.25260132 1.09247317,4.66767674 C1.89014119,2.91883081 3.02596564,1.7255965 4.49993032,1.08797382 C5.64441506,0.596123061 6.81491539,0.350192994 8.01144058,0.350171904 L15.2945592,0.350171904 L15.2945592,4.01185307 L7.72531766,4.01185307 C6.49411427,4.01187182 5.60106499,4.71323662 5.04616519,6.11596152 C4.61264141,7.20901425 4.39588646,8.63906759 4.39588646,10.4061426 C4.39588646,11.8999732 4.67333289,13.1660771 5.22824657,14.2044589 C5.86984419,15.425024 6.77156996,16.0353089 7.93339843,16.0352995 L15.3465811,16.007957 L15.3465811,19.4783884 M28.7325697,19.5603549 L22.3858458,19.5603549 C20.8425154,19.5603549 19.4986079,18.8680988 18.3541208,17.4835866 C17.2269752,16.0808289 16.6633966,14.468597 16.6633966,12.6468604 C16.6633966,10.6611744 17.2789925,8.9487468 18.5101913,7.50956836 C19.7587152,6.05218895 21.1459728,5.32350275 22.6719641,5.32349103 L28.706568,5.32349103 L28.706568,8.24736794 L24.2846647,8.24736794 C23.7297533,8.247382 23.2528887,8.30200605 22.8540524,8.41132679 C22.472539,8.50242076 22.1170643,8.69370804 21.787589,8.98516986 C21.1806557,9.5317056 20.8771983,10.2695075 20.8772029,11.1985756 L28.68055,11.1985756 L28.68055,14.149788 L20.9032208,14.149788 C20.9032139,14.58701 20.9465639,14.9604641 21.0332641,15.2701551 C21.1373125,15.5616356 21.3367284,15.8622202 21.6315232,16.1719182 C21.9263156,16.4633941 22.2731277,16.6637924 22.6719641,16.773078 C23.0881418,16.864179 23.5910266,16.9097482 24.1806278,16.9097482 L28.7325697,16.9097482 L28.7325697,19.5603549 M43.5654331,19.4783884 L39.9498813,19.4783884 L39.9498813,10.1601891 C39.9498698,9.92336775 39.8978571,9.71387246 39.7938225,9.53169388 C39.6897647,9.33131431 39.5423685,9.14003173 39.3516222,8.95784378 C39.0048032,8.64816456 38.6059692,8.49331441 38.1551179,8.49330738 L34.6175989,8.49330738 L34.6175989,19.4783884 L31.0020471,19.4783884 L31.0020471,5.32349103 L37.9210122,5.32349103 C39.1521994,5.32350275 40.045251,5.39636762 40.6001577,5.54209267 C41.4671868,5.76072009 42.1608225,6.24347153 42.681058,6.99037277 C43.2706268,7.86481448 43.5654216,8.82122976 43.5654331,9.85960454 L43.5654331,19.4783884 M53.9495814,8.27469637 L50.4380711,8.27469637 L50.4380711,14.6963073 C50.4380688,15.2792708 50.6288105,15.7620269 51.0103147,16.1445921 C51.4438269,16.5271596 52.0160704,16.7184352 52.7270568,16.7184352 L53.793511,16.7184352 L53.793511,19.4783884 L50.4380711,19.4783884 C49.4323015,19.4783884 48.5739327,19.0958021 47.8629672,18.3307022 C47.4467848,17.8752605 47.1780079,17.3742565 47.056618,16.8277325 C46.9352304,16.2812249 46.8745412,15.6345075 46.8745505,14.8875969 L46.8745505,8.27469637 L44.5855648,8.27469637 L44.5855648,5.32349103 L46.8745505,5.32349103 L46.8745505,0.350160187 L50.4380711,0.350160187 L50.4380711,5.32349103 L53.9495814,5.32349103 L53.9495814,8.27469637 M75.1759079,9.88692828 C75.1758825,13.6032757 74.1961215,16.2630075 72.2366366,17.8661424 C70.6412681,19.1595653 68.3176089,19.806292 65.2656449,19.806292 C61.8841895,19.806292 59.3871207,19.0593955 57.7744316,17.5655555 C56.0056768,15.9259858 55.1213017,13.2935824 55.1213017,9.6683243 C55.1213017,6.69890626 55.9103002,4.38530955 57.4883157,2.72751776 C59.2050416,0.92401732 61.7714714,0.0222565546 65.187612,0.0222424943 C68.9505531,0.0222565546 71.6036784,0.887587228 73.1470296,2.61821108 C74.4995928,4.1484788 75.1758825,6.57138688 75.1759079,9.88692828 M70.5459077,9.77762395 C70.5458938,7.90125395 70.1210419,6.40743038 69.2713658,5.29616261 C68.3176089,4.0573942 66.9043357,3.43800766 65.0315416,3.43798657 C63.1934165,3.43800766 61.8061589,4.10293767 60.8697642,5.43278365 C60.0894167,6.5440608 59.6992569,7.99233621 59.6992615,9.77762395 C59.6992569,11.836196 60.0113954,13.357348 60.6356655,14.3410729 C61.5026899,15.7073748 63.1067164,16.3905245 65.4477263,16.3905175 C67.4245573,16.3905245 68.8118172,15.7255968 69.6095083,14.3957251 C70.2337622,13.357348 70.5458938,11.8179786 70.5459077,9.77762395 M95.9966037,13.5486141 C95.9965829,15.2246163 95.4676917,16.6364593 94.4099326,17.7841712 C93.3521156,18.931862 92.0082173,19.5057098 90.3781961,19.5057098 L77.5026762,19.4783673 L77.5026762,16.035262 L88.1152283,16.035262 C88.826187,16.035269 89.4244415,15.8622015 89.9099964,15.5160711 C90.4648893,15.1152932 90.7423403,14.5687715 90.7423519,13.8765131 C90.7423403,12.2551725 89.6498752,11.444501 87.4649473,11.4444963 L82.1066423,11.4444963 C80.563312,11.444501 79.2107372,10.9435251 78.0489088,9.9415617 C76.8870803,8.93961936 76.3061603,7.6644068 76.3061603,6.11592169 C76.3061603,4.40350351 76.8697342,3.0189913 77.9968845,1.96237101 C79.1413716,0.887566138 80.6413495,0.3501555 82.4968091,0.350136753 L94.8000947,0.350136753 L94.8000947,3.6292504 L83.9534416,3.6292504 C83.4678959,3.62926681 82.973676,3.84787782 82.4708028,4.28508345 C81.9852594,4.70408808 81.7424842,5.20506629 81.7424888,5.78801337 C81.7424842,6.44384641 81.9765829,6.99947678 82.4447941,7.45489979 C82.9303306,7.89212416 83.5112506,8.11073283 84.1875403,8.11072346 L90.0920709,8.11072346 C91.9301775,8.11073283 93.3694524,8.61170635 94.4099326,9.61365573 C95.4676917,10.5973994 95.9965829,11.9090421 95.9966037,13.5486024" id="text5083-9"></path>
                            <path class="filled" d="M98.8854157,14.2186704 C99.2824672,14.2186752 99.6513851,14.2892785 99.9921671,14.4304781 C100.332944,14.571692 100.644022,14.7834997 100.925404,15.065906 C101.206778,15.351462 101.419373,15.6668214 101.563193,16.0119868 C101.707004,16.3571617 101.778912,16.727436 101.778917,17.1228096 C101.778912,17.5150527 101.707004,17.8821868 101.563193,18.2242168 C101.422499,18.5662517 101.209904,18.8800423 100.925404,19.1655911 C100.640896,19.4511423 100.328255,19.6660901 99.9874778,19.8104321 C99.6466958,19.9516389 99.279341,20.0222422 98.8854157,20.0222422 C98.4946118,20.0222422 98.12882,19.9516389 97.7880429,19.8104321 C97.4472609,19.6660901 97.1346197,19.4511423 96.8501169,19.1655911 C96.5656117,18.8800423 96.3514512,18.5662517 96.2076379,18.2242168 C96.0669484,17.8821868 95.9966037,17.5150527 95.9966037,17.1228096 C95.9966037,16.727436 96.0685115,16.3571617 96.2123272,16.0119868 C96.3561405,15.6668214 96.5687379,15.351462 96.8501169,15.065906 C97.1314935,14.7834997 97.4425716,14.571692 97.7833535,14.4304781 C98.1241307,14.2892785 98.4914831,14.2186752 98.8854157,14.2186704 M98.7541048,16.1673156 L98.4539685,16.1673156 L98.4539685,16.9392413 L98.7541048,16.9392413 C98.9323089,16.9392461 99.0651805,16.9078666 99.1527243,16.8451051 C99.243387,16.7823484 99.2887196,16.6882122 99.2887244,16.5626916 C99.2887196,16.4277651 99.2449501,16.3289223 99.1574136,16.2661584 C99.0698722,16.2002664 98.9354352,16.167318 98.7541048,16.1673156 M98.83852,15.6448526 C99.2543288,15.6448574 99.5622831,15.713892 99.7623755,15.8519538 C99.9655894,15.9900276 100.067199,16.2002664 100.067201,16.4826751 C100.067199,16.6866433 100.006233,16.8560895 99.8843077,16.991016 C99.7623731,17.122812 99.590419,17.2075375 99.3684478,17.2451876 C99.487249,17.2891228 99.5888559,17.3550172 99.6732735,17.4428756 C99.76081,17.5307412 99.8420965,17.6515504 99.917133,17.8053056 L100.287614,18.5866468 L99.4809989,18.5866468 L99.185552,17.9606321 C99.1011344,17.7786374 99.0135955,17.6515504 98.9229327,17.5793758 C98.8353889,17.5040683 98.7275295,17.4632756 98.5993473,17.4569977 L98.4539685,17.4569977 L98.4539685,18.5866468 L97.6848704,18.5866468 L97.6848704,15.6448526 L98.83852,15.6448526 M98.8854157,14.8258564 C98.5758983,14.8258613 98.2882668,14.8823449 98.0225238,14.9953026 C97.7567759,15.105137 97.5097901,15.2745832 97.2815616,15.5036459 C97.0595856,15.7264428 96.8923209,15.9727678 96.7797721,16.2426256 C96.667221,16.5124882 96.6109443,16.8058837 96.6109443,17.1228096 C96.6109443,17.4303272 96.667221,17.7174472 96.7797721,17.9841673 C96.8923209,18.2508922 97.0595856,18.5003549 97.2815616,18.7325601 C97.5066639,18.9553522 97.7520865,19.1232319 98.0178344,19.2361944 C98.2867037,19.3491618 98.5758983,19.405643 98.8854157,19.405643 C99.1949282,19.405643 99.4841204,19.3491618 99.7529969,19.2361944 C100.021866,19.1232319 100.267289,18.9553522 100.48927,18.7325601 C100.714367,18.5003549 100.883193,18.2508922 100.995748,17.9841673 C101.108295,17.7174472 101.164572,17.4303272 101.164576,17.1228096 C101.164572,16.8058837 101.108295,16.5124882 100.995748,16.2426256 C100.883193,15.9727678 100.714367,15.7264428 100.48927,15.5036459 C100.264163,15.2745832 100.01874,15.105137 99.7529969,14.9953026 C99.4903752,14.8823449 99.2011807,14.8258613 98.8854157,14.8258564" id="path5287"></path>
                        </g>
                    </g>
                </g>
            </g>
        </g>
    </g>
</svg>