<?xml version="1.0" encoding="UTF-8" standalone="no"?>
<svg width="32px" height="44px" viewBox="0 0 32 44" version="1.1" xmlns="http://www.w3.org/2000/svg" xmlns:xlink="http://www.w3.org/1999/xlink" xmlns:sketch="http://www.bohemiancoding.com/sketch/ns">
    <!-- Generator: Sketch 3.2.2 (9983) - http://www.bohemiancoding.com/sketch -->
    <title>Getting Started with Flask on Aptible</title>
    <defs></defs>
    <g id="Page-1" stroke="none" stroke-width="1" fill="none" fill-rule="evenodd" sketch:type="MSPage">
        <g id="icon-flask-link" sketch:type="MSLayerGroup" fill="#C9D1DB">
            <path d="M31.5346168,0.720750092 C31.1422722,2.19087154 30.8999682,4.65928652 30.8076949,8.12600299 C30.8076605,8.80622379 30.4845835,9.14631664 29.8384642,9.14628201 C29.1922758,9.14631664 28.7422771,8.85010677 28.4884629,8.25765192 C27.7961257,6.65596018 27.1384322,5.53694516 26.5153872,4.90060405 C25.7768962,4.15463273 24.7961257,3.70483243 23.5730808,3.55120222 C22.2576691,3.35376907 18.980746,3.2550326 13.7423115,3.25499235 C12.5422918,3.2550326 11.7576765,3.37571056 11.3884654,3.61702669 C11.1576765,3.7706569 11.0422943,4.09977924 11.0423091,4.60439371 L11.0423091,19.513636 C11.0422943,20.0183136 11.3769109,20.25967 12.046154,20.2377051 C14.0999829,20.2157894 17.0769035,20.0841381 20.9769257,19.8427583 C21.7384371,19.7550162 22.2518992,19.5191453 22.5173122,19.1351452 C22.782666,18.7511941 23.0422795,17.7583426 23.2961577,16.1565881 C23.4576642,15.2789566 23.9999755,14.9388638 24.9230771,15.1363086 C25.7076629,15.2899276 26.0422795,15.63002 25.9269269,16.1565881 C25.2807435,19.140655 25.0730488,23.0242949 25.3038475,27.8075199 C25.3268875,28.3780126 24.9461269,28.6851935 24.1615411,28.7290624 C23.5153577,28.7948986 23.1115128,28.4657786 22.9500014,27.7416931 C22.3499768,24.9990266 21.2365146,23.5344337 19.6096198,23.3479111 C17.9826709,23.1614288 15.3345971,23.0681778 11.6653885,23.0681572 C11.2499842,23.0681778 11.0422943,23.2107973 11.0423091,23.496016 L11.0423091,38.3065237 C11.0422943,39.4035982 11.4692186,40.1496088 12.3230771,40.5445556 C12.9922906,40.8736803 14.4345995,41.1698892 16.6500038,41.4331824 C17.7807509,41.5428922 18.2769035,42.0146331 18.1384617,42.8484097 C17.9999805,43.5724812 16.9845958,43.8577182 15.0923078,43.7041301 C9.62306477,43.2872395 5.11153247,43.3091833 1.55769616,43.7699522 C0.565381081,43.9016012 0.0692284652,43.5176263 0.0692333883,42.6180229 C0.0692284652,42.0475488 0.565381081,41.7184241 1.55769616,41.6306582 C3.81922477,41.3893041 4.94999154,39.502336 4.95000139,35.9697539 L4.95000139,7.79688064 C4.94999154,6.34877933 4.67883831,5.23524979 4.1365417,4.45628877 C3.59422539,3.67740592 2.58461062,2.96979324 1.10769247,2.33344979 C0.184610619,1.93854464 -0.161540766,1.40097839 0.0692333883,0.720750092 C0.184610619,0.303905326 0.369226004,0.0735199214 0.623079542,0.0295934107 C0.85384385,-0.0361875254 1.46537862,0.00769638947 2.4576937,0.161242347 C3.91153247,0.380700304 7.33845185,0.490407751 12.7384617,0.490364687 C19.1076728,0.490407751 24.6115103,0.358758815 29.2500038,0.0954178788 C30.7961208,0.0076954533 31.5691965,0.128375751 31.5692309,0.457452219 C31.5691965,0.545261241 31.5576617,0.633027198 31.5346217,0.720750092 L31.5346168,0.720750092 Z" id="path2830" sketch:type="MSShapeGroup"></path>
        </g>
    </g>
</svg>