<svg xmlns="http://www.w3.org/2000/svg" width="41" height="50" viewBox="0 0 41 50">
  <defs>
    <filter id="green-shield-a" width="247.6%" height="200%" x="-73.8%" y="-46.8%" filterUnits="objectBoundingBox">
      <feOffset dy="1" in="SourceAlpha" result="shadowOffsetOuter1"/>
      <feGaussianBlur in="shadowOffsetOuter1" result="shadowBlurOuter1" stdDeviation="5"/>
      <feColorMatrix in="shadowBlurOuter1" result="shadowMatrixOuter1" values="0 0 0 0 0.180392157 0 0 0 0 0.8 0 0 0 0 0.443137255 0 0 0 0.2284024 0"/>
      <feMerge>
        <feMergeNode in="shadowMatrixOuter1"/>
        <feMergeNode in="SourceGraphic"/>
      </feMerge>
    </filter>
  </defs>
  <g fill="none" fill-rule="evenodd" filter="url(#green-shield-a)" transform="translate(10 9)">
    <path fill="#2ECC71" d="M3.59674415,0.141186713 C2.83214087,-0.0497442071 2.73964612,-0.0348918594 2.16385613,0.141186717 L0.0498296724,1.32378735 C0.482424927,1.07746204 1.08121497,1.1121389 1.74171704,1.485812 L6.98418496,5.09997824 L14.6276239,8.42000295 C15.3315146,8.81756221 15.6991911,9.6796016 16.1336334,10.4726235 C16.5099912,11.1596192 16.9301827,11.5847942 16.9279137,12.2713861 C16.9279137,12.2713861 16.1378947,15.5322946 16.1336334,16.9999687 C16.1281186,18.8993383 16.1336334,22.5541992 16.1336334,22.5541992 C16.1301405,23.7753116 16.4662947,24.6048668 16.1336334,25.5150542 C15.6515863,26.8339725 13.8805252,28.7427051 13.2097047,29.4061751 L16.6772569,27.2756449 C18.4180251,26.2861586 19.511117,24.0060436 19.5196712,21.015463 L19.5489997,10.9143317 C19.5532767,9.4351841 18.4895079,7.63497657 17.1764469,6.89301125 L3.59674415,0.141186713 Z" transform="translate(.696)"/>
    <path fill="#27AE60" d="M2.43712442,0.347906349 C1.1240634,-0.393461085 0.0554064814,0.20202437 0.0511294097,1.68117198 L0.0218009179,11.7823033 C0.004692631,17.7885752 2.27276266,24.6043726 7.61115918,27.6433812 C12.9880494,30.6578769 17.8339716,27.2290525 17.8510799,21.2227805 L17.8804084,11.1216492 C17.8846855,9.64250161 16.8215276,7.84229408 15.5078556,7.10032877 L2.43712442,0.347906349 Z" transform="translate(0 1.137)"/>
    <path fill="#2ECC71" d="M2.70114195,7.7028356 L2.6803676,14.7966458 C2.66875841,19.0140699 4.26105111,23.8006728 8.01020998,25.9350936 L8.03709443,25.9506384 C11.7862533,28.0521759 15.1889694,25.6439275 15.2011896,21.4265034 L15.2219639,14.3326932 L2.70114195,7.7028356 Z"/>
    <polygon fill="#2ECC71" points="14.19 12.35 14.264 9.915 4.156 4.789 4.149 7.212"/>
    <polygon fill="#27AE60" points="8.937 31 13.612 29.549 14.004 27.599 4.927 26.715"/>
  </g>
</svg>
