<svg xmlns="http://www.w3.org/2000/svg" width="21" height="20" viewBox="0 0 21 20">
  <path fill="#FFFFFF" fill-rule="evenodd" d="M0.359,18.877 C0.583,19.124 0.875,19.236 1.212,19.236 L19.617,19.236 C19.954,19.236 20.246,19.124 20.47,18.877 C20.717,18.652 20.829,18.361 20.829,18.024 L20.829,14.029 C20.829,13.692 20.717,13.4 20.47,13.176 C20.246,12.929 19.954,12.817 19.617,12.817 L13.826,12.817 L12.121,14.522 C11.627,14.994 11.066,15.218 10.415,15.218 C9.764,15.218 9.203,14.994 8.709,14.522 L7.025,12.817 L1.212,12.817 C0.875,12.817 0.583,12.929 0.359,13.176 C0.112,13.4 0,13.692 0,14.029 L0,18.024 C0,18.361 0.112,18.652 0.359,18.877 L0.359,18.877 Z M4.242,7.766 L9.853,13.378 C10.011,13.535 10.19,13.625 10.415,13.625 C10.639,13.625 10.819,13.535 10.976,13.378 L16.587,7.766 C16.834,7.519 16.901,7.228 16.767,6.891 C16.61,6.554 16.363,6.397 16.026,6.397 L12.816,6.397 L12.816,0.786 C12.816,0.584 12.727,0.382 12.569,0.224 C12.412,0.067 12.233,0 12.008,0 L8.821,0 C8.597,0 8.417,0.067 8.26,0.224 C8.103,0.382 8.013,0.584 8.013,0.786 L8.013,6.397 L4.803,6.397 C4.467,6.397 4.22,6.554 4.063,6.891 C3.928,7.228 3.995,7.519 4.242,7.766 L4.242,7.766 Z M15.218,16.026 C15.442,16.026 15.622,16.116 15.779,16.273 C15.936,16.43 16.026,16.61 16.026,16.834 C16.026,17.059 15.936,17.238 15.779,17.395 C15.622,17.553 15.442,17.642 15.218,17.642 C15.016,17.642 14.814,17.553 14.657,17.395 C14.5,17.238 14.432,17.059 14.432,16.834 C14.432,16.61 14.5,16.43 14.657,16.273 C14.814,16.116 15.016,16.026 15.218,16.026 L15.218,16.026 Z M18.428,16.026 C18.652,16.026 18.832,16.116 18.989,16.273 C19.146,16.43 19.236,16.61 19.236,16.834 C19.236,17.059 19.146,17.238 18.989,17.395 C18.832,17.553 18.652,17.642 18.428,17.642 C18.203,17.642 18.024,17.553 17.867,17.395 C17.709,17.238 17.62,17.059 17.62,16.834 C17.62,16.61 17.709,16.43 17.867,16.273 C18.024,16.116 18.203,16.026 18.428,16.026 L18.428,16.026 Z"/>
</svg>
