<svg class="php" width="88px" height="43px" viewBox="0 0 88 43" version="1.1" xmlns="http://www.w3.org/2000/svg" xmlns:xlink="http://www.w3.org/1999/xlink" xmlns:sketch="http://www.bohemiancoding.com/sketch/ns">
    <g id="Page-1" stroke="none" stroke-width="1" fill="none" fill-rule="evenodd" sketch:type="MSPage">
        <path class="php-svg" d="M22.0670486,8.74215528 L6.6605048,8.74215528 L0,42.468 L7.91104856,42.468 L9.57714568,33.7258447 L17.0726409,33.7258447 C24.148699,34.1413981 32.0636313,28.312 32.0636313,18.319301 C32.0636313,12.4899029 28.731437,9.15770864 22.0709322,8.74215528 L22.0670486,8.74215528 Z M16.2376505,27.4770096 L11.2393591,27.4770096 L13.3210096,14.9871067 L18.7348543,14.9871067 C21.6476115,14.9871067 23.7331457,16.2376505 23.7331457,18.7348543 C23.3175923,25.8147962 19.9853981,27.0614562 16.2376505,27.4770096 L16.2376505,27.4770096 Z M77.8599418,8.74215528 L62.4533981,8.74215528 L55.7928933,42.468 L63.7039418,42.468 L65.370039,33.7258447 L72.8655342,33.7258447 C79.945476,34.1413981 87.8565246,28.312 87.8565246,18.319301 C87.8565246,12.4899029 84.5243303,9.15770864 77.8638255,8.74215528 L77.8599418,8.74215528 Z M49.9634952,8.74215528 L42.468,8.74215528 L44.1340971,0 L36.2230486,0 L29.5625438,33.7258447 L37.4735923,33.7258447 L41.2213399,14.9909904 L47.4662914,14.9909904 C50.3829322,14.9909904 50.3829322,16.2415342 49.9634952,18.3231846 L47.050738,33.7297284 L55.3773399,33.7297284 L58.2900971,16.6570875 C59.1212038,12.4937866 56.624,9.16159232 49.9634952,8.74603896 L49.9634952,8.74215528 Z M72.0305438,27.4770096 L67.0322524,27.4770096 L69.1139029,14.9871067 L74.5277476,14.9871067 C77.4443885,14.9871067 79.526039,16.2376505 79.526039,18.7348543 C79.1104856,25.8147962 75.7782914,27.0614562 72.0305438,27.4770096 L72.0305438,27.4770096 Z" id="Shape" fill="#C9D1DB" sketch:type="MSShapeGroup"></path>
    </g>
</svg>
