<svg class="python" width="59px" height="59px" viewBox="0 0 59 59" version="1.1" xmlns="http://www.w3.org/2000/svg" xmlns:xlink="http://www.w3.org/1999/xlink" xmlns:sketch="http://www.bohemiancoding.com/sketch/ns">
    <g id="Page-1" stroke="none" stroke-width="1" fill="none" fill-rule="evenodd" sketch:type="MSPage">
        <g id="Shape" sketch:type="MSLayerGroup" fill="#C9D1DB">
            <path class="python-blue-snake" d="M22.0417535,28.3621598 L36.0594876,28.3621598 C39.9617846,28.3621598 43.0774116,25.1507867 43.0774116,21.2303756 L43.0774116,7.86733724 C43.0774116,4.06337397 39.8686263,1.20651992 36.0594876,0.572526041 C33.6477231,0.171427873 31.1479758,-0.0123009653 28.74915,0.0006376853 C26.3503242,0.0135763359 24.0575953,0.215419285 22.0417535,0.572526041 C16.1029129,1.62055674 15.0238294,3.81753961 15.0238294,7.86733724 L15.0238294,13.2161754 L29.0570899,13.2161754 L29.0570899,14.9991214 L9.75521092,14.9991214 C5.67694826,14.9991214 2.1058807,17.4497019 0.987981287,22.1153793 C-0.300708311,27.4616297 -0.357638373,30.7972138 0.987981287,36.3789477 C1.98425738,40.5348422 4.36755682,43.4952055 8.44581948,43.4952055 L13.2719361,43.4952055 L13.2719361,37.0828103 C13.2719361,32.4507733 17.2803301,28.3647475 22.0391658,28.3647475 L22.0417535,28.3621598 Z M21.1567498,9.65028329 C19.7024455,9.65028329 18.5224406,8.45733971 18.5224406,6.98492127 C18.5224406,5.50473964 19.6998578,4.30144514 21.1567498,4.30144514 C22.6058787,4.30144514 23.7910591,5.50473964 23.7910591,6.98492127 C23.7910591,8.45992744 22.6084664,9.65028329 21.1567498,9.65028329 L21.1567498,9.65028329 Z" sketch:type="MSShapeGroup"></path>
            <path class="python-yellow-snake" d="M57.1080843,22.1153793 C56.1014573,18.0552307 54.1761861,14.9991214 50.0901602,14.9991214 L44.8241295,14.9991214 L44.8241295,21.2303756 C44.8241295,26.0616677 40.7277527,30.1295794 36.0568998,30.1295794 L22.0391658,30.1295794 C18.1989743,30.1295794 15.0212417,33.4159967 15.0212417,37.2613636 L15.0212417,50.624402 C15.0212417,54.4283652 18.3283608,56.664164 22.0391658,57.7561862 C26.4822984,59.0629899 30.7417022,59.2984733 36.0568998,57.7561862 C39.5891514,56.7340328 43.0748239,54.6741996 43.0748239,50.624402 L43.0748239,45.2755638 L29.0570899,45.2755638 L29.0570899,43.4926177 L50.092748,43.4926177 C54.1710106,43.4926177 55.6900082,40.6487024 57.110672,36.3763599 C58.5753273,31.9798065 58.5132218,27.7540432 57.110672,22.1127915 L57.1080843,22.1153793 Z M36.9419035,48.8414559 C38.3962078,48.8414559 39.5762128,50.0343995 39.5762128,51.5068179 C39.5762128,52.9869995 38.3962078,54.1902941 36.9419035,54.1902941 C35.4927747,54.1902941 34.3075943,52.9869995 34.3075943,51.5068179 C34.3075943,50.0318118 35.4901869,48.8414559 36.9419035,48.8414559 Z" id="Path" sketch:type="MSShapeGroup"></path>
        </g>
    </g>
</svg>
