<svg xmlns="http://www.w3.org/2000/svg" width="15" height="15" viewBox="0 0 15 15">
  <path fill="#ffffff" fill-rule="evenodd" d="M1.857287,10.833693
    C2.421954,11.3990793 3.100273,11.8515322 3.875701,12.1903323
    C4.666235,12.5291325 5.489858,12.6909797 6.34585,12.6909797
    C7.6694,12.6909797 8.864192,12.3198101 9.946051,11.5767515
    L13.02978,14.6604805
    C13.255647,14.8863473 13.514602,15 13.836858,15
    C14.159833,15 14.418789,14.8863473 14.660481,14.6604805
    C14.886347,14.4180693 15,14.1598331 15,13.836858
    C15,13.5304273 14.886347,13.2556467 14.660481,13.0297799
    L11.576752,9.9460509
    C12.31981,8.8641922 12.69098,7.6694001 12.69098,6.3458495
    C12.69098,5.48985757 12.529132,4.66623507 12.190332,3.87498202
    C11.851532,3.10027334 11.399079,2.42195368 10.834412,1.85728672
    C10.269026,1.29190045 9.590706,0.84016688 8.815998,0.50064739
    C8.024745,0.16184722 7.201122,0 6.34585,0
    C5.489858,0 4.666235,0.16184722 3.875701,0.50064739
    C3.100273,0.84016688 2.421954,1.29190045 1.857287,1.85728672
    C1.2919,2.42195368 0.840167,3.10027334 0.500647,3.87498202
    C0.161847,4.66623507 0,5.48985757 0,6.3458495
    C0,7.2011221 0.161847,8.0247446 0.500647,8.8159977
    C0.840167,9.5907064 1.2919,10.269026 1.857287,10.833693
    L1.857287,10.833693
    L1.857287,10.833693
    L1.857287,10.833693
    Z M6.34585,2.30902028
    C7.459358,2.30902028 8.412459,2.69673428 9.203712,3.48798734
    C9.994245,4.2792404 10.381959,5.23162135 10.381959,6.3458495
    C10.381959,7.4593584 9.994245,8.4124586 9.203712,9.2037117
    C8.412459,9.9942454 7.459358,10.3819594 6.34585,10.3819594
    C5.231621,10.3819594 4.27924,9.9942454 3.487987,9.2037117
    C2.696734,8.4124586 2.30902,7.4593584 2.30902,6.3458495
    C2.30902,5.23162135 2.696734,4.2792404 3.487987,3.48798734
    C4.27924,2.69673428 5.231621,2.30902028 6.34585,2.30902028
    L6.34585,2.30902028 L6.34585,2.30902028 L6.34585,2.30902028 Z"/>
</svg>
