<?xml version="1.0" encoding="UTF-8" standalone="no"?>
<svg width="62px" height="63px" viewBox="0 0 62 63" version="1.1" xmlns="http://www.w3.org/2000/svg" xmlns:xlink="http://www.w3.org/1999/xlink">
    <!-- Generator: Sketch 3.8.3 (29802) - http://www.bohemiancoding.com/sketch -->
    <title>Shape</title>
    <desc>Created with Sketch.</desc>
    <defs></defs>
    <g id="Page-1" stroke="none" stroke-width="1" fill="none" fill-rule="evenodd">
        <g id="ToolBelt" transform="translate(-1046.000000, -465.000000)" fill="#C9D1DB">
            <g id="OS" transform="translate(246.000000, 422.000000)">
                <g id="PHP" transform="translate(721.000000, 0.000000)">
                    <path id="ubuntu-shape" d="M85.6577006,68.679159 C82.4417526,68.679159 79.8358902,71.2850214 79.8358902,74.5009694 C79.8358902,77.7156868 82.4417526,80.3218568 85.6577006,80.3218568 C88.872418,80.3218568 91.478588,77.7156868 91.478588,74.5009694 C91.478588,71.2847137 88.8727256,68.679159 85.6577006,68.679159 L85.6577006,68.679159 Z M127.224436,95.1383536 C124.439825,96.7458661 123.4867,100.304853 125.093598,103.088234 C126.701418,105.872845 130.260097,106.826585 133.044708,105.219072 C135.828397,103.611867 136.782137,100.052881 135.174624,97.2685769 C133.567419,94.4851959 130.008125,93.5311487 127.224436,95.1383536 L127.224436,95.1383536 Z M98.3030555,74.5000464 C98.3030555,68.7465361 101.16212,63.6646429 105.534247,60.5874486 L101.278107,53.4580921 C96.1832926,56.8620191 92.3935626,62.0657448 90.8192771,68.1604478 C92.6581484,69.659357 93.8330939,71.941871 93.8330939,74.5006617 C93.8330939,77.0588372 92.6581484,79.3413511 90.8189695,80.8399527 C92.3929473,86.935271 96.182985,92.1389967 101.2778,95.5426161 L105.534247,88.4126443 C101.16212,85.3360653 98.3030555,80.2544798 98.3030555,74.5000464 L98.3030555,74.5000464 Z M115.308846,57.4942561 C124.193083,57.4942561 131.480576,64.3061096 132.24449,72.9919074 L140.541408,72.8706902 C140.133146,66.4578689 137.331921,60.6991284 133.026864,56.4666787 C130.813573,57.3028929 128.256629,57.1761378 126.046722,55.8999728 C123.834046,54.6225772 122.445586,52.4677413 122.065321,50.1292336 C119.914177,49.5339156 117.650122,49.2093365 115.309154,49.2093365 C111.283142,49.2093365 107.479568,50.1544616 104.100869,51.8281205 L108.145339,59.0765406 C110.322634,58.0634232 112.748825,57.4942561 115.308846,57.4942561 L115.308846,57.4942561 Z M115.308846,91.5061444 C112.748517,91.5061444 110.322634,90.9369773 108.145032,89.9238599 L104.099946,97.1728953 C107.478952,98.8459389 111.282835,99.7913716 115.308846,99.7913716 C117.649815,99.7913716 119.913869,99.4667926 122.065321,98.8714745 C122.445586,96.5329668 123.834354,94.3781309 126.047337,93.0998123 C128.257244,91.8242627 130.814189,91.6975076 133.02748,92.5340295 C137.332229,88.3012721 140.133454,82.5425316 140.541101,76.1297103 L132.244183,76.0084931 C131.480883,84.6955215 124.193083,91.5061444 115.308846,91.5061444 L115.308846,91.5061444 Z M127.223513,53.8614316 C130.007817,55.4695594 133.567112,54.5155123 135.174009,51.7321313 C136.781829,48.9475196 135.828705,45.3885331 133.044093,43.7807129 C130.260097,42.173508 126.70111,43.1272475 125.09329,45.9118592 C123.486085,48.6952402 124.439825,52.2545344 127.223513,53.8614316 L127.223513,53.8614316 Z" id="Shape"></path>
                </g>
            </g>
        </g>
    </g>
</svg>