<svg xmlns="http://www.w3.org/2000/svg" width="128" height="96" viewBox="0 0 128 96">
  <path fill="#000000" d="M128,80 C128,88.824 120.824,96 112,96 L16,96 C7.176,96 0,88.824 0,80 L0,16 C0,7.176 7.176,0 16,0 L112,0 C120.824,0 128,7.176 128,16 L128,80 Z M111.096,17.472 C109.696,15.76 107.176,15.512 105.464,16.912 L64,50.832 L22.536,16.904 C20.824,15.504 18.304,15.76 16.904,17.472 C15.504,19.184 15.76,21.696 17.464,23.096 L46.408,46.776 L17.88,64.608 C16.008,65.784 15.432,68.248 16.608,70.12 C17.368,71.336 18.672,72 20,72 C20.728,72 21.456,71.808 22.12,71.392 L52.952,52.12 L61.464,59.096 C62.2,59.696 63.104,60 64,60 C64.896,60 65.8,59.696 66.536,59.096 L75.056,52.12 L105.888,71.392 C106.536,71.808 107.272,72 108,72 C109.336,72 110.64,71.336 111.4,70.12 C112.568,68.248 112,65.784 110.128,64.608 L81.6,46.776 L110.544,23.096 C112.24,21.696 112.496,19.176 111.096,17.472 Z"/>
</svg>
