<svg xmlns="http://www.w3.org/2000/svg" width="123" height="123" viewBox="0 0 123 123">
  <g fill="#000000" fill-rule="evenodd" transform="translate(-4 -4)">
    <path d="M126.468741 126.464L101.157926 126.464 101.157926 86.8551111C101.157926 77.4115556 100.996741 65.261037 88.0071111 65.261037 74.8325926 65.261037 72.8225185 75.5531852 72.8225185 86.1819259L72.8225185 126.464 47.5401481 126.464 47.5401481 45.0180741 71.8032593 45.0180741 71.8032593 56.1540741 72.1540741 56.1540741C75.5294815 49.7493333 83.7878519 42.9985185 96.0995556 42.9985185 121.732741 42.9985185 126.468741 59.8613333 126.468741 81.7967407L126.468741 126.464zM19.0008889 33.8915556C10.8705185 33.8915556 4.31407407 27.3161481 4.31407407 19.2094815 4.31407407 11.1075556 10.8705185 4.53214815 19.0008889 4.53214815 27.0980741 4.53214815 33.6687407 11.1075556 33.6687407 19.2094815 33.6687407 27.3161481 27.0980741 33.8915556 19.0008889 33.8915556z"/>
    <polygon points="6.324 126.464 31.663 126.464 31.663 45.018 6.324 45.018"/>
  </g>
</svg>
