<svg xmlns="http://www.w3.org/2000/svg" width="191" height="141" viewBox="0 0 191 141">
  <defs>
    <linearGradient id="12-factors-a" x1="85.149%" x2="13.511%" y1="-12.127%" y2="114.658%">
      <stop offset="0%" stop-color="#1D7CEB"/>
      <stop offset="100%" stop-color="#307AD1" stop-opacity=".238"/>
    </linearGradient>
  </defs>
  <g fill="none" fill-rule="evenodd">
    <path fill="#000000" fill-rule="nonzero" d="M153.715332,100.099427 L187.715332,100.099427 C189.372186,100.099427 190.715332,101.442573 190.715332,103.099427 L190.715332,137.099427 C190.715332,138.756281 189.372186,140.099427 187.715332,140.099427 L153.715332,140.099427 C152.058478,140.099427 150.715332,138.756281 150.715332,137.099427 L150.715332,103.099427 C150.715332,101.442573 152.058478,100.099427 153.715332,100.099427 Z M3.71533214,0.0994271789 L37.7153321,0.0994271789 C39.3721864,0.0994271789 40.7153321,1.44257293 40.7153321,3.09942718 L40.7153321,37.0994272 C40.7153321,38.7562814 39.3721864,40.0994272 37.7153321,40.0994272 L3.71533214,40.0994272 L3.71533214,40.0994272 C2.0584779,40.0994272 0.715332145,38.7562814 0.715332145,37.0994272 L0.715332145,3.09942718 L0.715332145,3.09942718 C0.715332145,1.44257293 2.0584779,0.0994271789 3.71533214,0.0994271789 L3.71533214,0.0994271789 Z M53.7153321,0.0994271789 L87.7153321,0.0994271789 C89.3721864,0.0994271789 90.7153321,1.44257293 90.7153321,3.09942718 L90.7153321,37.0994272 C90.7153321,38.7562814 89.3721864,40.0994272 87.7153321,40.0994272 L53.7153321,40.0994272 L53.7153321,40.0994272 C52.0584779,40.0994272 50.7153321,38.7562814 50.7153321,37.0994272 L50.7153321,3.09942718 L50.7153321,3.09942718 C50.7153321,1.44257293 52.0584779,0.0994271789 53.7153321,0.0994271789 Z M103.715332,0.0994271789 L137.715332,0.0994271789 C139.372186,0.0994271789 140.715332,1.44257293 140.715332,3.09942718 L140.715332,37.0994272 C140.715332,38.7562814 139.372186,40.0994272 137.715332,40.0994272 L103.715332,40.0994272 L103.715332,40.0994272 C102.058478,40.0994272 100.715332,38.7562814 100.715332,37.0994272 L100.715332,3.09942718 L100.715332,3.09942718 C100.715332,1.44257293 102.058478,0.0994271789 103.715332,0.0994271789 Z M153.715332,0.0994271789 L187.715332,0.0994271789 C189.372186,0.0994271789 190.715332,1.44257293 190.715332,3.09942718 L190.715332,37.0994272 C190.715332,38.7562814 189.372186,40.0994272 187.715332,40.0994272 L153.715332,40.0994272 L153.715332,40.0994272 C152.058478,40.0994272 150.715332,38.7562814 150.715332,37.0994272 L150.715332,3.09942718 L150.715332,3.09942718 C150.715332,1.44257293 152.058478,0.0994271789 153.715332,0.0994271789 Z M3.71533214,50.0994272 L37.7153321,50.0994272 C39.3721864,50.0994272 40.7153321,51.4425729 40.7153321,53.0994272 L40.7153321,87.0994272 C40.7153321,88.7562814 39.3721864,90.0994272 37.7153321,90.0994272 L3.71533214,90.0994272 C2.0584779,90.0994272 0.715332145,88.7562814 0.715332145,87.0994272 L0.715332145,53.0994272 C0.715332145,51.4425729 2.0584779,50.0994272 3.71533214,50.0994272 L3.71533214,50.0994272 Z M53.7153321,50.0994272 L87.7153321,50.0994272 C89.3721864,50.0994272 90.7153321,51.4425729 90.7153321,53.0994272 L90.7153321,87.0994272 C90.7153321,88.7562814 89.3721864,90.0994272 87.7153321,90.0994272 L53.7153321,90.0994272 L53.7153321,90.0994272 C52.0584779,90.0994272 50.7153321,88.7562814 50.7153321,87.0994272 L50.7153321,53.0994272 C50.7153321,51.4425729 52.0584779,50.0994272 53.7153321,50.0994272 Z M103.715332,50.0994272 L137.715332,50.0994272 C139.372186,50.0994272 140.715332,51.4425729 140.715332,53.0994272 L140.715332,87.0994272 C140.715332,88.7562814 139.372186,90.0994272 137.715332,90.0994272 L103.715332,90.0994272 L103.715332,90.0994272 C102.058478,90.0994272 100.715332,88.7562814 100.715332,87.0994272 L100.715332,53.0994272 C100.715332,51.4425729 102.058478,50.0994272 103.715332,50.0994272 Z M153.715332,50.0994272 L187.715332,50.0994272 C189.372186,50.0994272 190.715332,51.4425729 190.715332,53.0994272 L190.715332,87.0994272 C190.715332,88.7562814 189.372186,90.0994272 187.715332,90.0994272 L153.715332,90.0994272 L153.715332,90.0994272 C152.058478,90.0994272 150.715332,88.7562814 150.715332,87.0994272 L150.715332,53.0994272 C150.715332,51.4425729 152.058478,50.0994272 153.715332,50.0994272 Z M3.71533214,100.099427 L37.7153321,100.099427 C39.3721864,100.099427 40.7153321,101.442573 40.7153321,103.099427 L40.7153321,137.099427 C40.7153321,138.756281 39.3721864,140.099427 37.7153321,140.099427 L3.71533214,140.099427 C2.0584779,140.099427 0.715332145,138.756281 0.715332145,137.099427 L0.715332145,103.099427 C0.715332145,101.442573 2.0584779,100.099427 3.71533214,100.099427 L3.71533214,100.099427 Z M53.7153321,100.099427 L87.7153321,100.099427 C89.3721864,100.099427 90.7153321,101.442573 90.7153321,103.099427 L90.7153321,137.099427 C90.7153321,138.756281 89.3721864,140.099427 87.7153321,140.099427 L53.7153321,140.099427 C52.0584779,140.099427 50.7153321,138.756281 50.7153321,137.099427 L50.7153321,103.099427 C50.7153321,101.442573 52.0584779,100.099427 53.7153321,100.099427 Z M103.715332,100.099427 L137.715332,100.099427 C139.372186,100.099427 140.715332,101.442573 140.715332,103.099427 L140.715332,137.099427 C140.715332,138.756281 139.372186,140.099427 137.715332,140.099427 L103.715332,140.099427 C102.058478,140.099427 100.715332,138.756281 100.715332,137.099427 L100.715332,103.099427 C100.715332,101.442573 102.058478,100.099427 103.715332,100.099427 Z"/>
    <path fill="url(#12-factors-a)" fill-rule="nonzero" d="M153.715332,100.099427 L187.715332,100.099427 C189.372186,100.099427 190.715332,101.442573 190.715332,103.099427 L190.715332,137.099427 C190.715332,138.756281 189.372186,140.099427 187.715332,140.099427 L153.715332,140.099427 C152.058478,140.099427 150.715332,138.756281 150.715332,137.099427 L150.715332,103.099427 C150.715332,101.442573 152.058478,100.099427 153.715332,100.099427 Z M3.71533214,0.0994271789 L37.7153321,0.0994271789 C39.3721864,0.0994271789 40.7153321,1.44257293 40.7153321,3.09942718 L40.7153321,37.0994272 C40.7153321,38.7562814 39.3721864,40.0994272 37.7153321,40.0994272 L3.71533214,40.0994272 L3.71533214,40.0994272 C2.0584779,40.0994272 0.715332145,38.7562814 0.715332145,37.0994272 L0.715332145,3.09942718 L0.715332145,3.09942718 C0.715332145,1.44257293 2.0584779,0.0994271789 3.71533214,0.0994271789 L3.71533214,0.0994271789 Z M53.7153321,0.0994271789 L87.7153321,0.0994271789 C89.3721864,0.0994271789 90.7153321,1.44257293 90.7153321,3.09942718 L90.7153321,37.0994272 C90.7153321,38.7562814 89.3721864,40.0994272 87.7153321,40.0994272 L53.7153321,40.0994272 L53.7153321,40.0994272 C52.0584779,40.0994272 50.7153321,38.7562814 50.7153321,37.0994272 L50.7153321,3.09942718 L50.7153321,3.09942718 C50.7153321,1.44257293 52.0584779,0.0994271789 53.7153321,0.0994271789 Z M103.715332,0.0994271789 L137.715332,0.0994271789 C139.372186,0.0994271789 140.715332,1.44257293 140.715332,3.09942718 L140.715332,37.0994272 C140.715332,38.7562814 139.372186,40.0994272 137.715332,40.0994272 L103.715332,40.0994272 L103.715332,40.0994272 C102.058478,40.0994272 100.715332,38.7562814 100.715332,37.0994272 L100.715332,3.09942718 L100.715332,3.09942718 C100.715332,1.44257293 102.058478,0.0994271789 103.715332,0.0994271789 Z M153.715332,0.0994271789 L187.715332,0.0994271789 C189.372186,0.0994271789 190.715332,1.44257293 190.715332,3.09942718 L190.715332,37.0994272 C190.715332,38.7562814 189.372186,40.0994272 187.715332,40.0994272 L153.715332,40.0994272 L153.715332,40.0994272 C152.058478,40.0994272 150.715332,38.7562814 150.715332,37.0994272 L150.715332,3.09942718 L150.715332,3.09942718 C150.715332,1.44257293 152.058478,0.0994271789 153.715332,0.0994271789 Z M3.71533214,50.0994272 L37.7153321,50.0994272 C39.3721864,50.0994272 40.7153321,51.4425729 40.7153321,53.0994272 L40.7153321,87.0994272 C40.7153321,88.7562814 39.3721864,90.0994272 37.7153321,90.0994272 L3.71533214,90.0994272 C2.0584779,90.0994272 0.715332145,88.7562814 0.715332145,87.0994272 L0.715332145,53.0994272 C0.715332145,51.4425729 2.0584779,50.0994272 3.71533214,50.0994272 L3.71533214,50.0994272 Z M53.7153321,50.0994272 L87.7153321,50.0994272 C89.3721864,50.0994272 90.7153321,51.4425729 90.7153321,53.0994272 L90.7153321,87.0994272 C90.7153321,88.7562814 89.3721864,90.0994272 87.7153321,90.0994272 L53.7153321,90.0994272 L53.7153321,90.0994272 C52.0584779,90.0994272 50.7153321,88.7562814 50.7153321,87.0994272 L50.7153321,53.0994272 C50.7153321,51.4425729 52.0584779,50.0994272 53.7153321,50.0994272 Z M103.715332,50.0994272 L137.715332,50.0994272 C139.372186,50.0994272 140.715332,51.4425729 140.715332,53.0994272 L140.715332,87.0994272 C140.715332,88.7562814 139.372186,90.0994272 137.715332,90.0994272 L103.715332,90.0994272 L103.715332,90.0994272 C102.058478,90.0994272 100.715332,88.7562814 100.715332,87.0994272 L100.715332,53.0994272 C100.715332,51.4425729 102.058478,50.0994272 103.715332,50.0994272 Z M153.715332,50.0994272 L187.715332,50.0994272 C189.372186,50.0994272 190.715332,51.4425729 190.715332,53.0994272 L190.715332,87.0994272 C190.715332,88.7562814 189.372186,90.0994272 187.715332,90.0994272 L153.715332,90.0994272 L153.715332,90.0994272 C152.058478,90.0994272 150.715332,88.7562814 150.715332,87.0994272 L150.715332,53.0994272 C150.715332,51.4425729 152.058478,50.0994272 153.715332,50.0994272 Z M3.71533214,100.099427 L37.7153321,100.099427 C39.3721864,100.099427 40.7153321,101.442573 40.7153321,103.099427 L40.7153321,137.099427 C40.7153321,138.756281 39.3721864,140.099427 37.7153321,140.099427 L3.71533214,140.099427 C2.0584779,140.099427 0.715332145,138.756281 0.715332145,137.099427 L0.715332145,103.099427 C0.715332145,101.442573 2.0584779,100.099427 3.71533214,100.099427 L3.71533214,100.099427 Z M53.7153321,100.099427 L87.7153321,100.099427 C89.3721864,100.099427 90.7153321,101.442573 90.7153321,103.099427 L90.7153321,137.099427 C90.7153321,138.756281 89.3721864,140.099427 87.7153321,140.099427 L53.7153321,140.099427 C52.0584779,140.099427 50.7153321,138.756281 50.7153321,137.099427 L50.7153321,103.099427 C50.7153321,101.442573 52.0584779,100.099427 53.7153321,100.099427 Z M103.715332,100.099427 L137.715332,100.099427 C139.372186,100.099427 140.715332,101.442573 140.715332,103.099427 L140.715332,137.099427 C140.715332,138.756281 139.372186,140.099427 137.715332,140.099427 L103.715332,140.099427 C102.058478,140.099427 100.715332,138.756281 100.715332,137.099427 L100.715332,103.099427 C100.715332,101.442573 102.058478,100.099427 103.715332,100.099427 Z"/>
    <g fill="#72A6E2" transform="translate(15 15)">
      <polygon points="6.68 .65 2.465 .65 2.465 2.315 4.34 2.315 4.34 11 6.68 11"/>
      <path d="M59.065 9.125L54.265 9.125 56.41 7.19C57.235 6.455 58.585 5.375 58.585 3.56 58.585 1.745 57.16.5 54.82.5 52.48.5 51.205 1.895 51.07 2.21L52.09 3.8C52.66 3.08 53.56 2.405 54.595 2.405 55.615 2.405 56.26 2.975 56.26 3.86 56.26 4.745 55.675 5.42 54.7 6.305L51.19 9.47 51.475 11 59.065 11 59.065 9.125zM108.855 7.97C108.855 6.62 107.91 5.795 107.04 5.57L107.04 5.525C107.73 5.24 108.525 4.64 108.525 3.26 108.525 1.52 106.8.5 104.925.5 103.035.5 102.075 1.16 101.355 1.79L102.255 3.32C103.095 2.645 103.905 2.315 104.73 2.315 105.555 2.315 106.23 2.72 106.23 3.53 106.23 4.34 105.66 4.745 104.85 4.745L103.935 4.745 103.935 6.44 104.85 6.44C105.78 6.44 106.5 6.92 106.5 7.835 106.5 8.765 105.705 9.29 104.685 9.29 103.68 9.29 102.57 8.51 102.15 8L101.04 9.44C101.4 9.965 102.675 11.165 104.82 11.165 106.95 11.165 108.855 10.04 108.855 7.97zM159.395 7.055L159.395 8.93 158.015 8.93 158.015 11 155.675 11 155.675 8.93 150.635 8.93 150.635 7.16 155.33.62 158.015.62 158.015 7.055 159.395 7.055zM152.84 7.1L155.735 7.1 155.735 3.095 152.84 7.1zM8.93 57.535C8.93 55.135 6.89 54.145 5.315 54.145 4.64 54.145 4.25 54.235 3.935 54.37L4.235 52.51 8.54 52.51 8.54 50.65 2.48 50.65 1.685 55.705 2.735 56.335C3.2 56.005 3.95 55.795 4.625 55.795 5.555 55.795 6.575 56.305 6.575 57.535 6.575 58.78 5.51 59.29 4.625 59.29 3.74 59.29 2.66 58.84 2.09 58.045L.98 59.47C1.46 60.22 2.72 61.165 4.79 61.165 6.845 61.165 8.93 59.95 8.93 57.535zM59.125 57.475C59.125 59.515 57.67 61.165 55.255 61.165 53.515 61.165 52.465 60.22 51.925 59.44 51.415 58.72 51.04 57.625 51.04 55.96 51.04 54.1 51.565 52.66 52.42 51.775 53.215 50.935 54.22 50.5 55.585 50.5 56.995 50.5 58.045 50.98 58.795 51.505L57.91 53.095C57.415 52.705 56.53 52.33 55.69 52.33 55.015 52.33 54.565 52.555 54.16 52.945 53.725 53.38 53.335 54.235 53.335 55.375 53.62 55.06 54.34 54.31 55.945 54.31 57.55 54.31 59.125 55.435 59.125 57.475zM56.83 57.64C56.83 56.74 56.23 55.93 55.18 55.93 54.115 55.93 53.5 56.74 53.5 57.64 53.5 58.555 54.115 59.35 55.18 59.35 56.23 59.35 56.83 58.555 56.83 57.64z"/>
      <polygon points="108.585 50.65 101.205 50.65 101.205 52.51 106.635 52.51 102.09 61 104.64 61 109.245 52.09"/>
      <path d="M158.96 58.075C158.96 60.13 157.16 61.165 155 61.165 152.84 61.165 151.04 60.13 151.04 58.075 151.04 56.815 151.76 55.96 152.9 55.6L152.9 55.57C152.15 55.3 151.325 54.685 151.325 53.35 151.325 51.475 153.02 50.5 155 50.5 156.965 50.5 158.66 51.475 158.66 53.35 158.66 54.7 157.85 55.315 157.1 55.57L157.1 55.615C158.225 55.96 158.96 56.815 158.96 58.075zM156.365 53.53C156.365 52.72 155.795 52.27 155 52.27 154.19 52.27 153.635 52.72 153.635 53.53 153.635 54.325 154.19 54.775 155 54.775 155.795 54.775 156.365 54.325 156.365 53.53zM156.605 57.85C156.605 56.92 155.9 56.38 155 56.38 154.085 56.38 153.395 56.92 153.395 57.85 153.395 58.78 154.115 59.32 155 59.32 155.885 59.32 156.605 58.78 156.605 57.85zM8.96 105.72C8.96 107.55 8.435 108.99 7.565 109.905 6.83 110.685 5.78 111.165 4.415 111.165 2.735 111.165 1.625 110.49 1.19 110.145L2.06 108.57C2.27 108.78 3.23 109.32 4.325 109.32 4.985 109.32 5.45 109.11 5.855 108.69 6.335 108.195 6.65 107.37 6.65 106.215 6.41 106.65 5.66 107.37 4.055 107.37 2.45 107.37.86 106.245.86 104.19.86 102.15 2.315 100.5 4.73 100.5 6.38 100.5 7.46 101.37 8.06 102.225 8.57 102.945 8.96 104.115 8.96 105.72zM6.485 103.98C6.485 103.065 5.87 102.27 4.82 102.27 3.77 102.27 3.17 103.065 3.17 103.98 3.17 104.88 3.77 105.69 4.82 105.69 5.87 105.69 6.485 104.88 6.485 103.98zM51.985 100.65L47.77 100.65 47.77 102.315 49.645 102.315 49.645 111 51.985 111 51.985 100.65zM62.8 105.84C62.8 108.57 61.525 111.18 58.51 111.18 55.48 111.18 54.22 108.57 54.22 105.84 54.22 103.11 55.495 100.5 58.51 100.5 61.525 100.5 62.8 103.11 62.8 105.84zM60.415 105.795C60.415 103.935 59.845 102.525 58.51 102.525 57.175 102.525 56.605 103.935 56.605 105.795 56.605 107.655 57.175 109.095 58.51 109.095 59.845 109.095 60.415 107.655 60.415 105.795zM103.17 100.65L98.955 100.65 98.955 102.315 100.83 102.315 100.83 111 103.17 111 103.17 100.65zM110.19 100.65L105.975 100.65 105.975 102.315 107.85 102.315 107.85 111 110.19 111 110.19 100.65zM151.985 100.65L147.77 100.65 147.77 102.315 149.645 102.315 149.645 111 151.985 111 151.985 100.65zM162.575 109.125L157.775 109.125 159.92 107.19C160.745 106.455 162.095 105.375 162.095 103.56 162.095 101.745 160.67 100.5 158.33 100.5 155.99 100.5 154.715 101.895 154.58 102.21L155.6 103.8C156.17 103.08 157.07 102.405 158.105 102.405 159.125 102.405 159.77 102.975 159.77 103.86 159.77 104.745 159.185 105.42 158.21 106.305L154.7 109.47 154.985 111 162.575 111 162.575 109.125z"/>
    </g>
  </g>
</svg>
