<svg xmlns="http://www.w3.org/2000/svg" width="37" height="34" viewBox="0 0 37 34">
  <g fill="#D8D8D8" fill-rule="evenodd">
    <path d="M35.0540509,19.1163333 C34.1277564,17.8383704 32.7993481,16.8383704 31.198336,16.3233704 C31.1209277,16.0368889 31.0267724,15.748 30.9132651,15.460963 C30.6309853,14.740037 30.2485957,14.0222593 29.8111272,13.3642963 C29.6622651,13.1391111 29.5042851,12.925963 29.3435141,12.7170741 C29.2929009,12.8817037 29.240427,13.0467037 29.1762303,13.2085556 L29.175672,13.210963 C29.1064511,13.3887407 29.0268099,13.5587407 28.9434471,13.7261481 C28.7904913,14.0357778 28.6118568,14.3246667 28.4140562,14.5985556 C28.2188608,14.8698519 28.0080348,15.1270741 27.7722744,15.3578148 C27.1710576,15.945963 26.4544726,16.3865185 25.683925,16.6874444 C25.1696064,16.8889259 24.6310977,17.0318889 24.0739813,17.125963 C23.7982142,17.1722593 23.5313788,17.2031852 23.2716145,17.2268889 C23.3834471,17.6917037 24.9978568,25.0739259 15.7207697,24.7146667 C15.6340576,24.7244815 15.5624177,24.7326296 15.5624177,24.7326296 C15.5572075,24.7404074 15.5157122,27.4135556 13.3521874,27.5963333 C11.7628983,27.7311481 10.8836814,25.3861481 10.8548394,25.265037 C10.6427108,25.3754074 2.65253681,27.4091111 3.40056894,18.5181852 C3.06693173,18.7155926 2.96403079,18.8022593 2.66481794,19.0494815 C1.57458902,19.9476296 0.729424364,21.1717037 0.300701473,22.6183704 C0.098248996,23.3039259 0,23.9983704 0,24.6804074 C0.000744310576,26.2742963 0.528460509,27.8007778 1.46201205,29.0465185 C2.39426104,30.2918889 3.73848594,31.2602222 5.35698929,31.7252222 C6.05087282,31.9254074 6.7527577,32.0211481 7.4427336,32.0211481 C9.06588889,32.020037 10.6168461,31.4865185 11.8849652,30.5533704 C12.2787055,31.0726296 12.7297577,31.5511481 13.2476118,31.9668889 C14.0566774,32.615963 15.009581,33.1194815 16.0696653,33.4246667 C16.8210469,33.6417037 17.580988,33.7437407 18.3286479,33.7437407 C20.7283052,33.7431852 22.9910094,32.6813333 24.5108916,30.8857778 C25.086988,31.2396667 25.7151861,31.5294815 26.3960442,31.7252222 L26.3952999,31.7252222 C27.102581,31.9281852 27.8186078,32.025963 28.5245863,32.025963 C30.2560388,32.0254074 31.9203173,31.440963 33.2811031,30.4174444 C34.642075,29.3952222 35.7043922,27.9274444 36.2268983,26.1628148 C36.4589371,25.3813333 36.5700254,24.5911481 36.5700254,23.8168889 C36.569095,22.0985556 36.0255622,20.4561481 35.0540509,19.1163333"/>
    <path d="M25.0706317,6.55666667 C23.6220173,6.18296296 21.8295313,6.78425926 21.2275701,7.61240741 C21.1296933,7.74648148 21.0254898,7.965 21.0582395,8.115 C21.2111953,8.82074074 22.3529677,8.44888889 22.3548285,8.44888889 C24.3278098,8.09185185 25.7196705,10.5459259 23.2520949,11.722037 C20.9071444,12.8392593 19.2376558,11.097037 18.8333091,10.7475926 C19.1129838,10.4190741 19.3610253,10.0594444 19.5731538,9.67351852 C20.0991953,8.71685185 20.4019436,7.59962963 20.4019436,6.40574074 C20.4019436,2.86777778 17.7505233,0 14.4802087,0 C11.2098941,0 8.55847376,2.86777778 8.55847376,6.40574074 C8.55847376,7.63333333 8.87852731,8.78018519 9.4321083,9.75462963 C9.6451672,10.1298148 9.89302262,10.4777778 10.1708365,10.7964815 C10.0195554,10.9433333 7.54453668,12.5116667 5.49972945,11.4588889 C4.70834123,11.0511111 4.39275355,10.2140741 4.75969866,9.46962963 C5.01983521,8.94222222 5.49749652,8.55833333 6.08512972,8.51796296 C7.54453668,8.41740741 7.26393159,7.425 6.7153747,7.1362963 C5.87560629,6.69462963 5.05723681,6.66351852 4.14731714,6.90796296 C2.29789143,7.40425926 1.40453266,9.30685185 1.53180977,10.8568519 C1.70318728,12.9472222 2.62706278,14.6042593 4.59390348,15.2907407 C5.89514444,15.7442593 7.24160228,15.7990741 8.59903869,15.5751852 C9.06497711,15.5 9.52105341,15.3622222 9.98178166,15.2531481 C9.99350455,15.2774074 8.84894096,15.977037 8.26261031,16.2994444 C7.75722343,16.5757407 7.21555141,16.8035185 6.74644967,17.1261111 C5.77772945,17.7927778 5.24052329,18.7155556 5.29020602,19.8590741 C5.34714578,21.1603704 5.98520602,22.2044444 7.10725422,22.9637037 C8.00377631,23.57 8.98924351,23.7755556 10.0590039,23.4074074 C11.3395902,22.9685185 12.1304202,21.8188889 12.0146799,20.567037 C11.9943975,20.3475926 11.9328058,20.1312963 11.6743439,20.0587037 C11.4352341,19.9918519 11.2478539,20.107037 11.116111,20.2866667 C10.9879035,20.4622222 10.8842582,20.6553704 10.7595862,20.8331481 C10.4949838,21.2138889 10.1099892,21.2746296 9.73560094,20.9887037 C9.40159157,20.7348148 9.21774685,20.4018519 9.30055141,19.9918519 C9.38335596,19.5835185 9.66972945,19.335 10.1031043,19.2407407 C10.8719771,19.0755556 11.6538754,18.9461111 12.4086063,18.7318519 C13.8933198,18.3098148 14.9320052,17.4201852 15.4174818,16.0042593 C15.441858,15.932963 15.4881913,15.8687037 15.5237321,15.7990741 C16.1660722,16.1988889 16.7200253,16.9040741 16.9310373,17.5768519 C17.2518352,18.5957407 16.8819129,19.3746296 15.8908633,19.8737037 C15.185629,20.2294444 14.4790922,20.597037 13.8280066,21.0298148 C12.7078191,21.7722222 12.4802462,22.7783333 12.5712382,24.0811111 C12.6921886,25.8181481 13.5924323,25.437963 13.5924323,25.437963 C13.7986063,25.3477778 13.9132301,25.0174074 13.9214175,24.7255556 C13.9510039,23.5237037 14.5148191,22.8735185 15.6372395,22.7427778 C16.0445635,22.6940741 16.4606331,22.7083333 16.87019,22.6659259 C17.977538,22.5542593 19.0048727,22.2301852 19.9105126,21.6025926 C21.8559544,20.2553704 21.915127,17.6187037 20.7709356,16.007963 C20.7136237,15.9275926 20.6607776,15.8459259 20.5809503,15.732037 C29.5794791,15.3657407 29.080791,7.59037037 25.0706317,6.55666667"/>
  </g>
</svg>
