<svg xmlns="http://www.w3.org/2000/svg" width="50" height="46" viewBox="0 0 50 46">
  <g fill="none" fill-rule="evenodd">
    <path fill="#AADEED" d="M47.3703057,25.8328829 C46.1185572,24.1059059 44.3234121,22.7545546 42.1598839,22.0586086 C42.0552781,21.6714715 41.9280413,21.2810811 41.7746531,20.8931932 C41.3931942,19.918969 40.8764519,18.948999 40.2852786,18.0598599 C40.0841138,17.7555556 39.8706275,17.4675175 39.6533695,17.1852352 C39.5849734,17.4077077 39.5140628,17.6306807 39.4273104,17.8493994 L39.4265561,17.8526527 C39.3330144,18.0928929 39.2253912,18.3226226 39.1127389,18.5488488 C38.9060419,18.9672673 38.6646441,19.3576577 38.3973463,19.7277778 C38.1335688,20.0943944 37.848669,20.441992 37.5300742,20.7538038 C36.7176195,21.5485986 35.7492621,22.1439439 34.7079824,22.5506006 C34.0129577,22.8228729 33.2852438,23.0160661 32.5323842,23.1431932 C32.1597263,23.2057558 31.7991382,23.2475475 31.4481055,23.2795796 C31.5992306,23.9077077 33.7808637,33.8836837 21.2442685,33.3981982 C21.1270899,33.4114615 21.0302793,33.4224725 21.0302793,33.4224725 C21.0232386,33.432983 20.9671639,37.0453453 18.0434838,37.2923423 C15.8957973,37.4745245 14.7076672,34.3056056 14.6686915,34.1419419 C14.3820316,34.2910911 3.58450669,37.0393393 4.5953602,25.0245746 C4.14449942,25.2913413 4.00544419,25.4084585 3.60110279,25.7425425 C2.12782151,26.9562563 0.985707906,28.6104104 0.406353055,30.5653654 C0.13276882,31.4917918 0,32.4302302 0,33.3519019 C0.00100582439,35.5058058 0.71413532,37.5686186 1.97569057,39.2520521 C3.23548562,40.934985 5.05200448,42.2435435 7.23916962,42.8719219 C8.17684941,43.1424424 9.12534182,43.2718218 10.057741,43.2718218 C12.2511926,43.2703203 14.3470792,42.5493493 16.0607525,41.2883383 C16.5928336,41.99004 17.2023632,42.6366867 17.9021655,43.1984985 C18.9954966,44.0756256 20.2832033,44.7560561 21.7157487,45.1684685 C22.7311284,45.4617618 23.7580751,45.5996496 24.7684257,45.5996496 C28.0112036,45.5988989 31.0689097,44.163964 33.1228031,41.7375375 C33.9013112,42.2157658 34.750227,42.6074074 35.6703049,42.8719219 L35.669299,42.8719219 C36.6250837,43.1461962 37.5926867,43.2783283 38.5467112,43.2783283 C40.8865102,43.2775776 43.1355335,42.4877878 44.974432,41.1046547 C46.8135819,39.7232733 48.2491447,37.7397898 48.9552335,35.3551552 C49.2687992,34.2990991 49.4189185,33.2312813 49.4189185,32.184985 C49.4176612,29.8629129 48.683158,27.6434434 47.3703057,25.8328829"/>
    <path fill="#F79839" d="M33.8792082,8.86036036 C31.9216225,8.35535536 29.4993459,9.16791792 28.6858854,10.287037 C28.5536195,10.4682182 28.4128041,10.7635135 28.4570604,10.9662162 C28.6637573,11.9199199 30.2066919,11.4174174 30.2092065,11.4174174 C32.8753955,10.9349349 34.7562871,14.2512513 31.4217278,15.8405906 C28.252878,17.3503504 25.9968139,14.995996 25.4503998,14.5237738 C25.8283383,14.0798298 26.1635293,13.5938438 26.4501892,13.0723223 C27.1610556,11.7795295 27.5701747,10.2697698 27.5701747,8.65640641 C27.5701747,3.87537538 23.9871768,0 19.5678358,0 C15.1484949,0 11.5654969,3.87537538 11.5654969,8.65640641 C11.5654969,10.3153153 11.9980014,11.8651151 12.7460833,13.1819319 C13.0340006,13.6889389 13.3689401,14.1591592 13.744364,14.5898398 C13.5399302,14.7882883 10.1953127,16.9076577 7.43206159,15.484985 C6.36261881,14.9339339 5.93614926,13.8028028 6.43202069,12.7967968 C6.78355632,12.0840841 7.42904412,11.5653153 8.22314248,11.5107608 C10.1953127,11.3748749 9.81611687,10.0337838 9.07482429,9.64364364 C7.94000291,9.0467968 6.83409899,9.00475475 5.60447867,9.33508509 C3.10525651,10.0057558 1.89801578,12.5768268 2.07001175,14.6714214 C2.30160282,17.4962462 3.55008235,19.7354855 6.20797331,20.6631632 C7.9664058,21.276026 9.78594213,21.3501001 11.6203144,21.0475475 C12.2499604,20.9459459 12.8662793,20.7597598 13.4888846,20.6123624 C13.5047264,20.6451451 11.9580199,21.5905906 11.1656817,22.0262763 C10.482727,22.3996496 9.75073828,22.7074575 9.11681746,23.1433934 C7.80773701,24.0442943 7.08178325,25.2912913 7.14892203,26.8365866 C7.22586759,28.5950951 8.08811056,30.006006 9.60439083,31.032032 C10.8159063,31.8513514 12.1476178,32.1291291 13.5932389,31.6316316 C15.3237598,31.0385385 16.3924482,29.484985 16.2360425,27.7932933 C16.2086338,27.4967467 16.1254018,27.2044545 15.7761293,27.1063564 C15.4530082,27.016016 15.1997919,27.1716717 15.021761,27.4144144 C14.8485078,27.6516517 14.7084467,27.9126627 14.5399711,28.1529029 C14.1824006,28.6674174 13.6621379,28.7494995 13.1562082,28.3631131 C12.7048445,28.02002 12.4564059,27.5700701 12.5683039,27.016016 C12.6802018,26.4642142 13.0671928,26.1283784 13.652834,26.001001 C14.6918506,25.7777778 15.7484691,25.6028529 16.7683751,25.3133133 C18.7747433,24.742993 20.1783712,23.5407908 20.8344202,21.6273774 C20.8673609,21.531031 20.9299735,21.4441942 20.9780016,21.3501001 C21.8460281,21.8903904 22.5946129,22.8433433 22.8797641,23.7525025 C23.3132744,25.1293794 22.8133797,26.1819319 21.4741245,26.8563564 C20.5211059,27.3370871 19.5663271,27.8338338 18.6864822,28.4186687 C17.1727165,29.4219219 16.8651857,30.7815315 16.9881477,32.542042 C17.1515942,34.8893894 18.3681388,34.3756256 18.3681388,34.3756256 C18.6467521,34.2537538 18.8016491,33.8073073 18.8127132,33.4129129 C18.8526947,31.7887888 19.6146067,30.9101602 21.1313898,30.7334835 C21.6818272,30.6676677 22.2440831,30.6869369 22.797538,30.6296296 C24.2939532,30.4787287 25.6822423,30.0407908 26.9060791,29.1926927 C29.5350527,27.3721221 29.6150157,23.8090591 28.0688121,21.6323824 C27.9913637,21.5237738 27.9199501,21.4134134 27.8120755,21.2595095 C39.9722409,20.7645145 39.2983386,10.2572573 33.8792082,8.86036036"/>
  </g>
</svg>
