<svg class="aws-logo" xmlns="http://www.w3.org/2000/svg" width="191" height="74" viewBox="0 0 191 74">
  <g class="aws-logo__cubes">
    <g fill="#FF9900" transform="translate(13.352 45.982)">
      <polygon points="11.215 24.884 0 20.853 0 4.416 11.215 8.236"/>
      <polygon points="13.282 24.884 24.497 20.853 24.497 4.416 13.282 8.236"/>
      <polygon points="1.157 3.189 12.511 0 23.06 3.365 12.511 6.974"/>
    </g>
    <g fill="#FF9900" transform="translate(0 22.991)">
      <polygon points="11.215 24.884 0 20.853 0 4.416 11.215 8.236"/>
      <polygon points="13.282 24.884 24.497 20.853 24.497 4.416 13.282 8.236"/>
      <polygon points="1.121 3.189 12.511 0 23.025 3.365 12.511 6.974"/>
    </g>
    <g fill="#FF9900" transform="translate(26.18 22.991)">
      <polygon points="11.215 24.884 0 20.853 0 4.416 11.215 8.236"/>
      <polygon points="13.282 24.884 24.497 20.853 24.497 4.416 13.282 8.236"/>
      <polygon points="1.157 3.189 12.511 0 23.06 3.365 12.511 6.974"/>
    </g>
    <g fill="#FF9900" transform="translate(39.532)">
      <polygon points="11.25 24.884 0 20.888 0 4.416 11.25 8.236"/>
      <polygon points="13.317 24.884 24.532 20.888 24.532 4.416 13.317 8.236"/>
      <polygon points="1.157 3.189 12.546 0 23.06 3.4 12.546 6.974"/>
    </g>
    <g fill="#FF9900" transform="translate(65.746)">
      <polygon points="11.215 24.884 0 20.888 0 4.416 11.215 8.236"/>
      <polygon points="13.282 24.884 24.497 20.888 24.497 4.416 13.282 8.236"/>
      <polygon points="1.157 3.189 12.511 0 23.06 3.4 12.511 6.974"/>
    </g>
  </g>
  <g class="aws-logo__name">
    <g fill="#000000" transform="translate(54.637 55.55)">
      <polygon points="16.612 4.591 12.862 17.699 11.215 17.699 8.271 7.991 5.572 17.699 3.925 17.699 0 4.591 2.033 4.591 4.871 14.37 7.605 4.591 9.077 4.591 12.056 14.405 14.965 4.591"/>
      <path d="M27.0554128 13.8087619L28.9478899 14.1942857C28.5974312 15.3158095 27.9315596 16.2270476 26.9152294 16.9630476 25.8988991 17.6990476 24.7423853 18.0495238 23.3755963 18.0495238 21.5882569 18.0495238 20.1513761 17.4186667 19.0299083 16.1569524 17.9084404 14.8952381 17.3827523 13.248 17.3827523 11.2152381 17.3827523 9.11238095 17.9434862 7.43009524 19.1 6.16838095 20.2565138 4.87161905 21.6933945 4.2407619 23.4106422 4.2407619 25.1278899 4.2407619 26.4946789 4.83657143 27.546055 6.02819048 28.5974312 7.21980952 29.1231193 8.97219048 29.1581651 11.3554286L19.6607339 11.3554286C19.6607339 13.3531429 20.0812844 14.6849524 20.8873394 15.3508571 21.7284404 16.0518095 22.6045872 16.4022857 23.5157798 16.4022857 25.1979817 16.4022857 26.3544954 15.5260952 27.020367 13.8087619L27.0554128 13.8087619zM26.9502752 9.81333333L26.9502752 9.81333333C26.9502752 9.07733333 26.8100917 8.41142857 26.5998165 7.85066667 26.3895413 7.28990476 26.0040367 6.7992381 25.4433028 6.37866667 24.9176147 5.99314286 24.2517431 5.78285714 23.5157798 5.78285714 22.4994495 5.78285714 21.6583486 6.13333333 20.9574312 6.86933333 20.2565138 7.60533333 19.8710092 8.58666667 19.7658716 9.81333333L26.9502752 9.81333333 26.9502752 9.81333333zM32.8379817 17.6990476L31.8566972 17.6990476 31.8566972 0 33.8893578 0 33.8893578 6.76419048C34.8355963 5.08190476 36.0972477 4.20571429 37.7444037 4.20571429 39.2513761 4.20571429 40.5130275 4.80152381 41.5293578 5.99314286 42.5456881 7.1847619 43.0363303 8.90209524 43.0363303 11.1451429 43.0363303 13.1078095 42.5456881 14.72 41.5293578 16.0518095 40.5480734 17.383619 39.2513761 18.0495238 37.6392661 18.0495238 35.8519266 18.0495238 34.4851376 17.208381 33.5388991 15.5260952L32.8029358 17.6990476 32.8379817 17.6990476zM33.8893578 12.5470476L33.8893578 12.5470476C33.9944954 13.8788571 34.38 14.8601905 35.1159633 15.4910476 35.8519266 16.0868571 36.6229358 16.4022857 37.4289908 16.4022857 38.480367 16.4022857 39.286422 15.9466667 39.9522936 15.0354286 40.5831193 14.1241905 40.8985321 12.8975238 40.8985321 11.320381 40.8985321 9.63809524 40.5831193 8.30628571 39.9873394 7.32495238 39.3565138 6.34361905 38.5154128 5.888 37.4289908 5.888 36.5878899 5.888 35.8168807 6.23847619 35.1159633 6.90438095 34.4150459 7.60533333 34.0295413 8.48152381 33.8893578 9.568L33.8893578 12.512 33.8893578 12.5470476zM48.2581651 14.2994286L50.2207339 13.9139048C50.6412844 15.5611429 52.0080734 16.3672381 54.3211009 16.3672381 55.1622018 16.3672381 55.8981651 16.192 56.4588991 15.8064762 57.0546789 15.4209524 57.3350459 14.8952381 57.3350459 14.1942857 57.3350459 13.1779048 56.5990826 12.512 55.0921101 12.231619L52.3234862 11.7059048C51.2370642 11.495619 50.3959633 11.0750476 49.7300917 10.4792381 49.0992661 9.88342857 48.7838532 9.07733333 48.7838532 8.096 48.7838532 7.00952381 49.2044037 6.0632381 50.0805505 5.3272381 50.9566972 4.5912381 52.113211 4.20571429 53.6201835 4.20571429 56.4588991 4.20571429 58.2111927 5.3272381 58.8770642 7.5352381L57.019633 7.9207619C56.493945 6.55390476 55.3724771 5.888 53.7253211 5.888 52.8842202 5.888 52.2183486 6.0632381 51.6926606 6.41371429 51.1669725 6.76419048 50.8866055 7.21980952 50.8866055 7.85066667 50.8866055 8.79695238 51.5524771 9.42780952 52.9192661 9.67314286L55.4776147 10.1287619C58.1411009 10.6194286 59.472844 11.9161905 59.472844 14.0190476 59.472844 15.2106667 58.9822018 16.192 57.9658716 16.928 56.9845872 17.664 55.652844 18.0495238 54.0056881 18.0495238 50.8866055 18.0495238 48.9941284 16.7878095 48.2581651 14.2994286L48.2581651 14.2994286zM70.3020183 13.8087619L72.1944954 14.1942857C71.8440367 15.3158095 71.1781651 16.2270476 70.1618349 16.9630476 69.1455046 17.6990476 67.9889908 18.0495238 66.6222018 18.0495238 64.8348624 18.0495238 63.3979817 17.4186667 62.2765138 16.1569524 61.1550459 14.8952381 60.6293578 13.248 60.6293578 11.2152381 60.6293578 9.11238095 61.1900917 7.43009524 62.3466055 6.16838095 63.5031193 4.87161905 64.94 4.2407619 66.6572477 4.2407619 68.3744954 4.2407619 69.7412844 4.83657143 70.7926606 6.02819048 71.8440367 7.21980952 72.3697248 8.97219048 72.4047706 11.3554286L62.9073394 11.3554286C62.9073394 13.3531429 63.3278899 14.6849524 64.133945 15.3508571 64.9750459 16.0518095 65.8511927 16.4022857 66.7623853 16.4022857 68.4095413 16.4022857 69.6011009 15.5260952 70.2669725 13.8087619L70.3020183 13.8087619zM70.1968807 9.81333333L70.1968807 9.81333333C70.1968807 9.07733333 70.0566972 8.41142857 69.846422 7.85066667 69.6361468 7.28990476 69.2506422 6.7992381 68.7249541 6.37866667 68.1992661 5.99314286 67.5333945 5.78285714 66.7974312 5.78285714 65.7811009 5.78285714 64.94 6.13333333 64.2390826 6.86933333 63.5381651 7.60533333 63.1526606 8.58666667 63.0475229 9.81333333L70.2319266 9.81333333 70.1968807 9.81333333zM76.680367 17.6990476L74.6477064 17.6990476 74.6477064 4.5912381 76.4350459 4.5912381 76.4350459 7.64038095C77.0658716 6.20342857 77.6966972 5.29219048 78.3275229 4.87161905 78.9583486 4.45104762 79.6242202 4.2407619 80.2900917 4.2407619 80.500367 4.2407619 80.7807339 4.2407619 81.0961468 4.27580952L81.0961468 6.23847619 80.6755963 6.23847619C79.5541284 6.23847619 78.6078899 6.65904762 77.8719266 7.50019048 77.1359633 8.34133333 76.7504587 9.42780952 76.680367 10.7946667L76.680367 17.7340952 76.680367 17.6990476z"/>
      <polygon points="93.748 4.591 89.227 17.699 87.124 17.699 82.428 4.591 84.706 4.591 88.316 15.246 91.925 4.591"/>
      <path d="M97.5677064.035047619L97.5677064 2.31314286 95.3948624 2.31314286 95.3948624.035047619 97.5677064.035047619 97.5677064.035047619zM97.5326606 4.62628571L97.5326606 4.62628571 97.5326606 17.7340952 95.5 17.7340952 95.5 4.62628571 97.5326606 4.62628571 97.5326606 4.62628571zM108.186606 13.1078095L110.008991 13.4232381C109.76367 14.8601905 109.16789 16.0167619 108.291743 16.8228571 107.415596 17.6289524 106.294128 18.0495238 104.962385 18.0495238 103.14 18.0495238 101.773211 17.383619 100.826972 16.0518095 99.8807339 14.72 99.3900917 13.1078095 99.3900917 11.1801905 99.3900917 9.18247619 99.8807339 7.5352381 100.897064 6.20342857 101.878349 4.87161905 103.245138 4.20571429 104.962385 4.20571429 106.399266 4.20571429 107.520734 4.62628571 108.396881 5.50247619 109.273028 6.34361905 109.798716 7.46514286 110.008991 8.79695238L108.186606 9.14742857C107.836147 6.97447619 106.784771 5.888 105.067523 5.888 103.946055 5.888 103.069908 6.37866667 102.474128 7.32495238 101.878349 8.2712381 101.562936 9.53295238 101.562936 11.04 101.562936 12.7222857 101.878349 14.0190476 102.474128 14.9302857 103.069908 15.8415238 103.911009 16.3321905 104.997431 16.3321905 106.679633 16.3321905 107.731009 15.2457143 108.186606 13.0727619L108.186606 13.1078095zM121.539083 13.8087619L123.43156 14.1942857C123.081101 15.3158095 122.415229 16.2270476 121.398899 16.9630476 120.382569 17.6990476 119.226055 18.0495238 117.859266 18.0495238 116.071927 18.0495238 114.635046 17.4186667 113.513578 16.1569524 112.39211 14.8952381 111.866422 13.248 111.866422 11.2152381 111.866422 9.11238095 112.427156 7.43009524 113.58367 6.16838095 114.740183 4.87161905 116.177064 4.2407619 117.894312 4.2407619 119.61156 4.2407619 120.978349 4.83657143 122.029725 6.02819048 123.081101 7.21980952 123.606789 8.97219048 123.641835 11.3554286L114.144404 11.3554286C114.144404 13.3531429 114.564954 14.6849524 115.371009 15.3508571 116.21211 16.0518095 117.088257 16.4022857 117.99945 16.4022857 119.646606 16.4022857 120.838165 15.5260952 121.504037 13.8087619L121.539083 13.8087619zM121.433945 9.81333333L121.433945 9.81333333C121.433945 9.07733333 121.293761 8.41142857 121.083486 7.85066667 120.873211 7.28990476 120.487706 6.7992381 119.962018 6.37866667 119.43633 5.99314286 118.770459 5.78285714 118.034495 5.78285714 117.018165 5.78285714 116.177064 6.13333333 115.476147 6.86933333 114.775229 7.60533333 114.389725 8.58666667 114.284587 9.81333333L121.468991 9.81333333 121.433945 9.81333333zM124.798349 14.2994286L126.760917 13.9139048C127.181468 15.5611429 128.548257 16.3672381 130.861284 16.3672381 131.702385 16.3672381 132.438349 16.192 132.999083 15.8064762 133.594862 15.4209524 133.875229 14.8952381 133.875229 14.1942857 133.875229 13.1779048 133.139266 12.512 131.632294 12.231619L128.86367 11.7059048C127.777248 11.495619 126.936147 11.0750476 126.270275 10.4792381 125.63945 9.88342857 125.324037 9.07733333 125.324037 8.096 125.324037 7.00952381 125.744587 6.0632381 126.620734 5.3272381 127.496881 4.5912381 128.653394 4.20571429 130.160367 4.20571429 132.999083 4.20571429 134.751376 5.3272381 135.417248 7.5352381L133.559817 7.9207619C133.034128 6.55390476 131.912661 5.888 130.265505 5.888 129.424404 5.888 128.758532 6.0632381 128.232844 6.41371429 127.707156 6.76419048 127.426789 7.21980952 127.426789 7.85066667 127.426789 8.79695238 128.092661 9.42780952 129.45945 9.67314286L132.017798 10.1287619C134.681284 10.6194286 136.013028 11.9161905 136.013028 14.0190476 136.013028 15.2106667 135.522385 16.192 134.506055 16.928 133.524771 17.664 132.193028 18.0495238 130.545872 18.0495238 127.426789 18.0495238 125.534312 16.7878095 124.798349 14.2994286L124.798349 14.2994286z"/>
    </g>
    <g fill="#000000" transform="translate(54.251 27.618)">
      <path d="M79.1686239 4.55619048L79.1686239 1.40190476C79.1686239.911238095 79.5190826.595809524 79.9746789.595809524L94.0631193.595809524C94.5187156.595809524 94.8691743.911238095 94.8691743 1.40190476L94.8691743 4.10057143C94.8691743 4.55619048 94.4836697 5.152 93.8177982 6.09828571L86.5282569 16.5424762C89.226789 16.472381 92.1005505 16.8929524 94.5888073 18.2598095 95.1495413 18.5752381 95.2897248 19.0308571 95.3247706 19.4864762L95.3247706 22.8510476C95.3247706 23.3066667 94.8341284 23.832381 94.2733945 23.5870476 89.9277064 21.3089524 84.1801835 21.063619 79.3788991 23.6220952 78.8882569 23.8674286 78.3625688 23.3417143 78.3625688 22.8860952L78.3625688 19.6967619C78.3625688 19.1710476 78.3625688 18.2948571 78.8882569 17.5238095L87.3693578 5.36228571 80.0097248 5.36228571C79.5541284 5.36228571 79.2036697 5.04685714 79.2036697 4.55619048L79.1686239 4.55619048zM28.7025688 24.1828571L24.4269725 24.1828571C24.006422 24.1478095 23.6910092 23.832381 23.6559633 23.4468571L23.6559633 1.43695238C23.6559633.981333333 24.0414679.630857143 24.4970642.630857143L28.4922936.630857143C28.912844.665904762 29.2633028.981333333 29.2633028 1.36685714L29.2633028 4.2407619 29.3333945 4.2407619C30.3847706 1.472 32.3473394.175238095 34.9757798.175238095 37.6743119.175238095 39.3565138 1.472 40.5480734 4.2407619 41.5994495 1.472 43.9475229.175238095 46.4708257.175238095 48.2581651.175238095 50.2207339.911238095 51.4473394 2.59352381 52.8141284 4.45104762 52.5337615 7.14971429 52.5337615 9.49790476L52.5337615 23.4118095C52.5337615 23.8674286 52.1482569 24.2179048 51.6926606 24.2179048L47.4170642 24.2179048C46.9965138 24.1828571 46.646055 23.832381 46.646055 23.4118095L46.646055 11.7409524C46.646055 10.8297143 46.7161468 8.48152381 46.5409174 7.60533333 46.2255046 6.13333333 45.2442202 5.7127619 44.0176147 5.7127619 42.9662385 5.7127619 41.8798165 6.41371429 41.4592661 7.5352381 41.0036697 8.6567619 41.0737615 10.5142857 41.0737615 11.7409524L41.0737615 23.4118095C41.0737615 23.8674286 40.6882569 24.2179048 40.2326606 24.2179048L35.9570642 24.2179048C35.5365138 24.1828571 35.186055 23.832381 35.186055 23.4118095L35.186055 11.7409524C35.186055 9.28761905 35.5715596 5.67771429 32.5576147 5.67771429 29.473578 5.67771429 29.5787156 9.21752381 29.5787156 11.7409524L29.5787156 23.4118095C29.5787156 23.8674286 29.193211 24.2179048 28.7376147 24.2179048L28.7025688 24.1828571zM105.242752.175238095C111.551009.175238095 114.985505 5.64266667 114.985505 12.5820952 114.985505 19.3112381 111.20055 24.6384762 105.242752 24.6384762 99.039633 24.6384762 95.6752294 19.1710476 95.6752294 12.3718095 95.6752294 5.50247619 99.1097248.175238095 105.242752.175238095L105.242752.175238095zM105.277798 5.22209524L105.277798 5.22209524C102.12367 5.22209524 101.94844 9.53295238 101.94844 12.231619 101.94844 14.9302857 101.913394 20.1173333 105.242752 20.1173333 108.537064 20.1173333 108.712294 16.0518095 108.712294 13.2129524 108.712294 11.3554286 108.642202 9.14742857 108.081468 7.36 107.590826 5.81790476 106.644587 5.22209524 105.312844 5.22209524L105.277798 5.22209524zM124.132477 24.1828571L119.856881 24.1828571C119.43633 24.1478095 119.085872 23.7973333 119.085872 23.3767619L119.085872 1.33180952C119.120917.946285714 119.471376.595809524 119.926972.595809524L123.922202.595809524C124.307706.630857143 124.623119.876190476 124.693211 1.22666667L124.693211 4.5912381 124.763303 4.5912381C125.954862 1.57714286 127.637064.140190476 130.615963.140190476 132.543486.140190476 134.435963.841142857 135.627523 2.73371429 136.748991 4.48609524 136.748991 7.46514286 136.748991 9.60304762L136.748991 23.4468571C136.713945 23.832381 136.363486 24.1478095 135.942936 24.1478095L131.632294 24.1478095C131.246789 24.1127619 130.931376 23.832381 130.861284 23.4468571L130.861284 11.495619C130.861284 9.07733333 131.141651 5.57257143 128.162752 5.57257143 127.111376 5.57257143 126.165138 6.27352381 125.674495 7.32495238 125.078716 8.6567619 125.008624 10.023619 125.008624 11.495619L125.008624 23.3417143C125.008624 23.7973333 124.623119 24.1478095 124.167523 24.1478095L124.132477 24.1828571zM72.7201835 24.1478095C72.4398165 24.3931429 72.0192661 24.4281905 71.7038532 24.2529524 70.2669725 23.0613333 70.0216514 22.535619 69.2506422 21.3790476 66.9025688 23.7622857 65.220367 24.4982857 62.1713761 24.4982857 58.5616514 24.4982857 55.7579817 22.2552381 55.7579817 17.8041905 55.7579817 14.3344762 57.6504587 11.9512381 60.3489908 10.7946667 62.6620183 9.77828571 65.9212844 9.60304762 68.4095413 9.32266667L68.4095413 8.76190476C68.4095413 7.74552381 68.479633 6.51885714 67.8838532 5.64266667 67.3581651 4.83657143 66.3418349 4.52114286 65.4656881 4.52114286 63.8185321 4.52114286 62.3816514 5.36228571 62.0311927 7.11466667 61.9611009 7.50019048 61.6807339 7.88571429 61.2952294 7.9207619L57.1247706 7.46514286C56.7743119 7.39504762 56.3888073 7.11466667 56.493945 6.55390476 57.4401835 1.50704762 61.9961468 0 66.0965138 0 68.1992661 0 70.8977982.560761905 72.5449541 2.13790476 74.6477064 4.10057143 74.4374312 6.69409524 74.4374312 9.53295238L74.4374312 16.2270476C74.4374312 18.2247619 75.2785321 19.136 76.0495413 20.1874286 76.3299083 20.5729524 76.4 21.0285714 76.0495413 21.344 75.1733945 22.08 73.6313761 23.4468571 72.7552294 24.1828571L72.7201835 24.1478095zM68.4095413 13.6685714L68.4095413 13.703619 68.4095413 12.7573333C65.3255046 12.7573333 62.0311927 13.4232381 62.0311927 17.0681905 62.0311927 18.9257143 62.9774312 20.1874286 64.6245872 20.1874286 65.8511927 20.1874286 66.9376147 19.416381 67.6034862 18.2247619 68.4445872 16.7177143 68.4095413 15.3508571 68.4095413 13.6685714zM16.9622018 24.1478095C16.6818349 24.3931429 16.2612844 24.4281905 15.9458716 24.2529524 14.5089908 23.0613333 14.2636697 22.535619 13.4926606 21.3790476 11.1445872 23.7622857 9.46238532 24.4982857 6.4133945 24.4982857 2.80366972 24.4982857 0 22.2552381 0 17.8041905 0 14.3344762 1.89247706 11.9512381 4.59100917 10.7946667 6.9040367 9.77828571 10.1633028 9.60304762 12.6515596 9.32266667L12.6515596 8.76190476C12.6515596 7.74552381 12.7216514 6.51885714 12.1258716 5.64266667 11.6001835 4.83657143 10.5838532 4.52114286 9.70770642 4.52114286 8.06055046 4.52114286 6.62366972 5.36228571 6.27321101 7.11466667 6.20311927 7.50019048 5.92275229 7.88571429 5.53724771 7.9207619L1.36678899 7.46514286C1.01633028 7.39504762.630825688 7.11466667.735963303 6.55390476 1.68220183 1.50704762 6.23816514 0 10.3385321 0 12.4412844 0 15.1398165.560761905 16.7869725 2.13790476 18.8897248 4.10057143 18.6794495 6.69409524 18.6794495 9.53295238L18.6794495 16.2270476C18.6794495 18.2247619 19.5205505 19.136 20.2915596 20.1874286 20.5719266 20.5729524 20.6420183 21.0285714 20.2915596 21.344 19.4154128 22.08 17.8733945 23.4468571 16.9972477 24.1828571L16.9622018 24.1478095zM12.6515596 13.6685714L12.6515596 13.703619 12.6515596 12.7573333C9.56752294 12.7573333 6.27321101 13.4232381 6.27321101 17.0681905 6.27321101 18.9257143 7.21944954 20.1874286 8.8666055 20.1874286 10.093211 20.1874286 11.179633 19.416381 11.8455046 18.2247619 12.6866055 16.7177143 12.6515596 15.3508571 12.6515596 13.6685714z"/>
    </g>
  </g>
</svg>
