
<svg width="13px" height="10px" viewBox="0 0 13 10" version="1.1" xmlns="http://www.w3.org/2000/svg" xmlns:xlink="http://www.w3.org/1999/xlink">
    <!-- Generator: Sketch 49.3 (51167) - http://www.bohemiancoding.com/sketch -->
    <desc>Created with Sketch.</desc>
    <defs></defs>
    <g id="Page-1" stroke="none" stroke-width="1" fill="none" fill-rule="evenodd">
        <g id="Sempre-Outlines" transform="translate(-586.000000, -2014.000000)" fill="#307AD1">
            <g id="Intro" transform="translate(99.000000, 428.000000)">
                <g id="Group-8" transform="translate(0.000000, 505.000000)">
                    <g id="Group-11" transform="translate(98.000000, 925.000000)">
                        <g id="highlights" transform="translate(389.000000, 2.000000)">
                            <path d="M0.225906255,159.580942 L4.40885887,163.774209 C4.55901614,163.924736 4.75475687,164 4.98066313,164 C5.20656938,164 5.40163977,163.924736 5.55246739,163.774209 L12.7747641,156.534104 C12.9249214,156.36812 13,156.187353 13,155.96089 C13,155.734426 12.9249214,155.538203 12.7747641,155.387676 L11.6311556,154.241247 C11.480328,154.075264 11.2852576,154 11.0593513,154 C10.8334451,154 10.6377043,154.075264 10.4875471,154.241247 L4.98066313,159.76171 L2.51312329,157.288085 C2.36229567,157.122102 2.16722529,157.046838 1.94131903,157.046838 C1.71541278,157.046838 1.51967205,157.122102 1.36951477,157.288085 L0.225906255,158.434514 C0.0757489816,158.585041 0,158.781265 0,159.007728 C0,159.234191 0.0757489816,159.414959 0.225906255,159.580942" id="Fill-112"></path>
                        </g>
                    </g>
                </g>
            </g>
        </g>
    </g>
</svg>
