<svg width="370px" height="356px" viewBox="0 0 370 356">
    <title>enclave</title>
    <defs>
        <path d="M101.741862,25.1868026 C105.312497,27.1496643 105.332403,98.8250877 101.783333,100.785583 L59.1430699,124.357279 C55.5915117,126.319352 49.7690132,126.319352 46.1967196,124.357279 L3.26616099,100.781638 C-0.305303182,98.8211431 -0.322720912,27.1457196 3.22551962,25.1836468 L45.8674416,1.61352805 C49.4156821,-0.349333636 55.2414983,-0.349333636 58.8129625,1.61352805 L101.741862,25.1868026 Z" id="enclave-path-1"></path>
        <filter x="-50%" y="-50%" width="200%" height="200%" filterUnits="objectBoundingBox" id="enclave-filter-2">
            <feOffset dx="0" dy="0" in="SourceAlpha" result="shadowOffsetOuter1"></feOffset>
            <feGaussianBlur stdDeviation="4" in="shadowOffsetOuter1" result="shadowBlurOuter1"></feGaussianBlur>
            <feColorMatrix values="0 0 0 0 0.339824021   0 0 0 0 0.643258943   0 0 0 0 1  0 0 0 0.713032156 0" type="matrix" in="shadowBlurOuter1"></feColorMatrix>
        </filter>
        <path d="M77.2316878,19.1191633 C79.942137,20.6091608 79.9572476,75.0175803 77.2631681,76.5057812 L44.895179,94.3989265 C42.1992107,95.8883251 37.7793841,95.8883251 35.0676757,94.3989265 L2.47932484,76.5027869 C-0.231753965,75.014586 -0.244975669,20.6061664 2.4484742,19.1167678 L34.8177225,1.22482026 C37.5111724,-0.265177241 41.9335174,-0.265177241 44.6445962,1.22482026 L77.2316878,19.1191633 Z" id="enclave-path-3"></path>
        <filter x="-50%" y="-50%" width="200%" height="200%" filterUnits="objectBoundingBox" id="enclave-filter-4">
            <feOffset dx="0" dy="0" in="SourceAlpha" result="shadowOffsetOuter1"></feOffset>
            <feGaussianBlur stdDeviation="4" in="shadowOffsetOuter1" result="shadowBlurOuter1"></feGaussianBlur>
            <feColorMatrix values="0 0 0 0 0.339824021   0 0 0 0 0.643258943   0 0 0 0 1  0 0 0 0.713032156 0" type="matrix" in="shadowBlurOuter1"></feColorMatrix>
        </filter>
        <path d="M17.1018519,8.72744634 L17.1018519,31.2484743" id="enclave-path-5"></path>
        <filter x="-50%" y="-50%" width="200%" height="200%" filterUnits="objectBoundingBox" id="enclave-filter-6">
            <feMorphology radius="0.5" operator="dilate" in="SourceAlpha" result="shadowSpreadOuter1"></feMorphology>
            <feOffset dx="0" dy="0" in="shadowSpreadOuter1" result="shadowOffsetOuter1"></feOffset>
            <feMorphology radius="1" operator="erode" in="SourceAlpha" result="shadowInner"></feMorphology>
            <feOffset dx="0" dy="0" in="shadowInner" result="shadowInner"></feOffset>
            <feComposite in="shadowOffsetOuter1" in2="shadowInner" operator="out" result="shadowOffsetOuter1"></feComposite>
            <feGaussianBlur stdDeviation="1.5" in="shadowOffsetOuter1" result="shadowBlurOuter1"></feGaussianBlur>
            <feColorMatrix values="0 0 0 0 0   0 0 0 0 0.459627329   0 0 0 0 1  0 0 0 0.282014266 0" type="matrix" in="shadowBlurOuter1"></feColorMatrix>
        </filter>
        <path d="M10.1635802,5.26267281 L10.1635802,27.7837008" id="enclave-path-7"></path>
        <filter x="-50%" y="-50%" width="200%" height="200%" filterUnits="objectBoundingBox" id="enclave-filter-8">
            <feMorphology radius="0.5" operator="dilate" in="SourceAlpha" result="shadowSpreadOuter1"></feMorphology>
            <feOffset dx="0" dy="0" in="shadowSpreadOuter1" result="shadowOffsetOuter1"></feOffset>
            <feMorphology radius="1" operator="erode" in="SourceAlpha" result="shadowInner"></feMorphology>
            <feOffset dx="0" dy="0" in="shadowInner" result="shadowInner"></feOffset>
            <feComposite in="shadowOffsetOuter1" in2="shadowInner" operator="out" result="shadowOffsetOuter1"></feComposite>
            <feGaussianBlur stdDeviation="1.5" in="shadowOffsetOuter1" result="shadowBlurOuter1"></feGaussianBlur>
            <feColorMatrix values="0 0 0 0 0   0 0 0 0 0.459627329   0 0 0 0 1  0 0 0 0.282014266 0" type="matrix" in="shadowBlurOuter1"></feColorMatrix>
        </filter>
        <path d="M3.22530864,1.79789928 L3.22530864,24.3189272" id="enclave-path-9"></path>
        <filter x="-50%" y="-50%" width="200%" height="200%" filterUnits="objectBoundingBox" id="enclave-filter-10">
            <feMorphology radius="0.5" operator="dilate" in="SourceAlpha" result="shadowSpreadOuter1"></feMorphology>
            <feOffset dx="0" dy="0" in="shadowSpreadOuter1" result="shadowOffsetOuter1"></feOffset>
            <feMorphology radius="1" operator="erode" in="SourceAlpha" result="shadowInner"></feMorphology>
            <feOffset dx="0" dy="0" in="shadowInner" result="shadowInner"></feOffset>
            <feComposite in="shadowOffsetOuter1" in2="shadowInner" operator="out" result="shadowOffsetOuter1"></feComposite>
            <feGaussianBlur stdDeviation="1.5" in="shadowOffsetOuter1" result="shadowBlurOuter1"></feGaussianBlur>
            <feColorMatrix values="0 0 0 0 0   0 0 0 0 0.459627329   0 0 0 0 1  0 0 0 0.282014266 0" type="matrix" in="shadowBlurOuter1"></feColorMatrix>
        </filter>
        <filter x="-50%" y="-50%" width="200%" height="200%" filterUnits="objectBoundingBox" id="enclave-filter-11">
            <feOffset dx="0" dy="4" in="SourceAlpha" result="shadowOffsetOuter1"></feOffset>
            <feGaussianBlur stdDeviation="4" in="shadowOffsetOuter1" result="shadowBlurOuter1"></feGaussianBlur>
            <feColorMatrix values="0 0 0 0 0   0 0 0 0 0   0 0 0 0 0  0 0 0 0.12 0" type="matrix" in="shadowBlurOuter1" result="shadowMatrixOuter1"></feColorMatrix>
            <feMerge>
                <feMergeNode in="shadowMatrixOuter1"></feMergeNode>
                <feMergeNode in="SourceGraphic"></feMergeNode>
            </feMerge>
        </filter>
    </defs>
    <g id="enclave-Page-1" stroke="none" stroke-width="1" fill="none" fill-rule="evenodd">
        <g id="enclave-enclave" transform="translate(0.000000, 4.000000)">
            <g id="enclave-App-Grid-Shadow" opacity="0.0634911381" transform="translate(0.000000, 90.775522)">
                <g id="enclave-App" transform="translate(132.532825, 0.000000)">
                    <path d="M104.410176,88.6957328 C104.406858,89.9793244 103.52436,91.2613382 101.761851,92.2348797 C101.761851,92.2348797 100.671891,36.1496083 100.675928,34.8210904 C100.679079,33.7841285 101.783416,31.2637983 101.783416,31.2637983 C102.439465,30.9009579 102.571124,30.0004071 102.983551,29.5678981 C103.678608,28.8389967 104.430276,28.5286559 104.433399,27.7230735 L104.410176,88.6957328 Z" id="enclave-Fill-1" fill="#D5E0F0"></path>
                    <path d="M4.21463478,35.8225467 C4.21093469,37.0889995 3.2458403,92.2320396 3.2458403,92.2320396 C1.44766698,91.2442973 0.551897984,89.9425602 0.556045063,88.6408232 L0.576780457,28.7253183 C0.573378623,29.614621 1.64783642,29.9042651 2.48695532,30.6939885 C2.87537148,31.0595403 2.69838573,32.0039937 3.2665757,32.3165347 C3.2665757,32.3165347 4.21784649,34.7232568 4.21463478,35.8225467 Z" id="enclave-Fill-4" fill="#D5E0F0"></path>
                    <path d="M61.0109839,59.4564758 C61.0074775,60.5279236 59.1195145,115.806734 59.1195145,115.806734 C55.5721034,117.769596 49.7471167,117.769596 46.1764819,115.806734 C46.1764819,115.806734 44.7944614,60.4220423 44.7972828,59.4564758 C44.8013732,58.0565625 46.1972173,55.8920183 46.1972173,55.8920183 C47.9267478,56.8421789 50.6322515,55.8621143 52.9041351,55.8920183 C55.3236696,55.9238657 57.3114985,56.9039304 59.1427381,55.8920183 C59.1427381,55.8920183 61.0152187,58.1624438 61.0109839,59.4564758 Z" id="enclave-Fill-14" fill="#D5E0F0"></path>
                    <path d="M80.4514237,40.6872872 C86.9337807,37.103816 101.783167,31.2639561 101.783167,31.2639561 L101.762432,92.2350375 L59.1196804,115.806734 L59.142904,54.8356527 C59.142904,54.8356527 72.7203596,44.9610482 80.4514237,40.6872872 Z" id="enclave-Fill-7" fill="#D5E0F0"></path>
                    <path d="M28.516354,43.8296217 C34.7455155,47.2504129 46.1968855,55.8920183 46.1968855,55.8920183 L46.1769795,115.806734 L3.24559148,92.2318818 L3.26632687,32.3163769 C3.26632687,32.3163769 20.4353293,39.3918658 28.516354,43.8296217 Z" id="enclave-Fill-9" fill="#D5E0F0"></path>
                    <path d="M101.741862,25.1868026 C105.312497,27.1496643 105.332403,30.3598267 101.783333,32.3203216 L59.1430699,55.8920183 C55.5915117,57.854091 49.7690132,57.854091 46.1967196,55.8920183 L3.26616099,32.3163769 C-0.305303182,30.3558821 -0.322720912,27.1457196 3.22551962,25.1836468 L45.8674416,1.61352805 C49.4156821,-0.349333636 55.2414983,-0.349333636 58.8129625,1.61352805 L101.741862,25.1868026 Z" id="enclave-Fill-11" fill="#E9F1FD"></path>
                </g>
                <g id="enclave-App" transform="translate(63.981364, 36.514806)">
                    <path d="M104.410176,88.6957328 C104.406858,89.9793244 103.52436,91.2613382 101.761851,92.2348797 C101.761851,92.2348797 100.671891,36.1496083 100.675928,34.8210904 C100.679079,33.7841285 101.783416,31.2637983 101.783416,31.2637983 C102.439465,30.9009579 102.571124,30.0004071 102.983551,29.5678981 C103.678608,28.8389967 104.430276,28.5286559 104.433399,27.7230735 L104.410176,88.6957328 Z" id="enclave-Fill-1" fill="#D5E0F0"></path>
                    <path d="M4.21463478,35.8225467 C4.21093469,37.0889995 3.2458403,92.2320396 3.2458403,92.2320396 C1.44766698,91.2442973 0.551897984,89.9425602 0.556045063,88.6408232 L0.576780457,28.7253183 C0.573378623,29.614621 1.64783642,29.9042651 2.48695532,30.6939885 C2.87537148,31.0595403 2.69838573,32.0039937 3.2665757,32.3165347 C3.2665757,32.3165347 4.21784649,34.7232568 4.21463478,35.8225467 Z" id="enclave-Fill-4" fill="#D5E0F0"></path>
                    <path d="M61.0109839,59.4564758 C61.0074775,60.5279236 59.1195145,115.806734 59.1195145,115.806734 C55.5721034,117.769596 49.7471167,117.769596 46.1764819,115.806734 C46.1764819,115.806734 44.7944614,60.4220423 44.7972828,59.4564758 C44.8013732,58.0565625 46.1972173,55.8920183 46.1972173,55.8920183 C47.9267478,56.8421789 50.6322515,55.8621143 52.9041351,55.8920183 C55.3236696,55.9238657 57.3114985,56.9039304 59.1427381,55.8920183 C59.1427381,55.8920183 61.0152187,58.1624438 61.0109839,59.4564758 Z" id="enclave-Fill-14" fill="#D5E0F0"></path>
                    <path d="M80.4514237,40.6872872 C86.9337807,37.103816 101.783167,31.2639561 101.783167,31.2639561 L101.762432,92.2350375 L59.1196804,115.806734 L59.142904,54.8356527 C59.142904,54.8356527 72.7203596,44.9610482 80.4514237,40.6872872 Z" id="enclave-Fill-7" fill="#D5E0F0"></path>
                    <path d="M28.516354,43.8296217 C34.7455155,47.2504129 46.1968855,55.8920183 46.1968855,55.8920183 L46.1769795,115.806734 L3.24559148,92.2318818 L3.26632687,32.3163769 C3.26632687,32.3163769 20.4353293,39.3918658 28.516354,43.8296217 Z" id="enclave-Fill-9" fill="#D5E0F0"></path>
                    <path d="M101.741862,25.1868026 C105.312497,27.1496643 105.332403,30.3598267 101.783333,32.3203216 L59.1430699,55.8920183 C55.5915117,57.854091 49.7690132,57.854091 46.1967196,55.8920183 L3.26616099,32.3163769 C-0.305303182,30.3558821 -0.322720912,27.1457196 3.22551962,25.1836468 L45.8674416,1.61352805 C49.4156821,-0.349333636 55.2414983,-0.349333636 58.8129625,1.61352805 L101.741862,25.1868026 Z" id="enclave-Fill-11" fill="#E9F1FD"></path>
                </g>
                <g id="enclave-App" transform="translate(0.000000, 73.029612)">
                    <path d="M104.410176,88.6957328 C104.406858,89.9793244 103.52436,91.2613382 101.761851,92.2348797 C101.761851,92.2348797 100.671891,36.1496083 100.675928,34.8210904 C100.679079,33.7841285 101.783416,31.2637983 101.783416,31.2637983 C102.439465,30.9009579 102.571124,30.0004071 102.983551,29.5678981 C103.678608,28.8389967 104.430276,28.5286559 104.433399,27.7230735 L104.410176,88.6957328 Z" id="enclave-Fill-1" fill="#D5E0F0"></path>
                    <path d="M4.21463478,35.8225467 C4.21093469,37.0889995 3.2458403,92.2320396 3.2458403,92.2320396 C1.44766698,91.2442973 0.551897984,89.9425602 0.556045063,88.6408232 L0.576780457,28.7253183 C0.573378623,29.614621 1.64783642,29.9042651 2.48695532,30.6939885 C2.87537148,31.0595403 2.69838573,32.0039937 3.2665757,32.3165347 C3.2665757,32.3165347 4.21784649,34.7232568 4.21463478,35.8225467 Z" id="enclave-Fill-4" fill="#D5E0F0"></path>
                    <path d="M61.0109839,59.4564758 C61.0074775,60.5279236 59.1195145,115.806734 59.1195145,115.806734 C55.5721034,117.769596 49.7471167,117.769596 46.1764819,115.806734 C46.1764819,115.806734 44.7944614,60.4220423 44.7972828,59.4564758 C44.8013732,58.0565625 46.1972173,55.8920183 46.1972173,55.8920183 C47.9267478,56.8421789 50.6322515,55.8621143 52.9041351,55.8920183 C55.3236696,55.9238657 57.3114985,56.9039304 59.1427381,55.8920183 C59.1427381,55.8920183 61.0152187,58.1624438 61.0109839,59.4564758 Z" id="enclave-Fill-14" fill="#D5E0F0"></path>
                    <path d="M80.4514237,40.6872872 C86.9337807,37.103816 101.783167,31.2639561 101.783167,31.2639561 L101.762432,92.2350375 L59.1196804,115.806734 L59.142904,54.8356527 C59.142904,54.8356527 72.7203596,44.9610482 80.4514237,40.6872872 Z" id="enclave-Fill-7" fill="#D5E0F0"></path>
                    <path d="M28.516354,43.8296217 C34.7455155,47.2504129 46.1968855,55.8920183 46.1968855,55.8920183 L46.1769795,115.806734 L3.24559148,92.2318818 L3.26632687,32.3163769 C3.26632687,32.3163769 20.4353293,39.3918658 28.516354,43.8296217 Z" id="enclave-Fill-9" fill="#D5E0F0"></path>
                    <path d="M101.741862,25.1868026 C105.312497,27.1496643 105.332403,30.3598267 101.783333,32.3203216 L59.1430699,55.8920183 C55.5915117,57.854091 49.7690132,57.854091 46.1967196,55.8920183 L3.26616099,32.3163769 C-0.305303182,30.3558821 -0.322720912,27.1457196 3.22551962,25.1836468 L45.8674416,1.61352805 C49.4156821,-0.349333636 55.2414983,-0.349333636 58.8129625,1.61352805 L101.741862,25.1868026 Z" id="enclave-Fill-11" fill="#E9F1FD"></path>
                </g>
                <g id="enclave-App" transform="translate(196.514189, 36.514806)">
                    <path d="M104.410176,88.6957328 C104.406858,89.9793244 103.52436,91.2613382 101.761851,92.2348797 C101.761851,92.2348797 100.671891,36.1496083 100.675928,34.8210904 C100.679079,33.7841285 101.783416,31.2637983 101.783416,31.2637983 C102.439465,30.9009579 102.571124,30.0004071 102.983551,29.5678981 C103.678608,28.8389967 104.430276,28.5286559 104.433399,27.7230735 L104.410176,88.6957328 Z" id="enclave-Fill-1" fill="#D5E0F0"></path>
                    <path d="M4.21463478,35.8225467 C4.21093469,37.0889995 3.2458403,92.2320396 3.2458403,92.2320396 C1.44766698,91.2442973 0.551897984,89.9425602 0.556045063,88.6408232 L0.576780457,28.7253183 C0.573378623,29.614621 1.64783642,29.9042651 2.48695532,30.6939885 C2.87537148,31.0595403 2.69838573,32.0039937 3.2665757,32.3165347 C3.2665757,32.3165347 4.21784649,34.7232568 4.21463478,35.8225467 Z" id="enclave-Fill-4" fill="#D5E0F0"></path>
                    <path d="M61.0109839,59.4564758 C61.0074775,60.5279236 59.1195145,115.806734 59.1195145,115.806734 C55.5721034,117.769596 49.7471167,117.769596 46.1764819,115.806734 C46.1764819,115.806734 44.7944614,60.4220423 44.7972828,59.4564758 C44.8013732,58.0565625 46.1972173,55.8920183 46.1972173,55.8920183 C47.9267478,56.8421789 50.6322515,55.8621143 52.9041351,55.8920183 C55.3236696,55.9238657 57.3114985,56.9039304 59.1427381,55.8920183 C59.1427381,55.8920183 61.0152187,58.1624438 61.0109839,59.4564758 Z" id="enclave-Fill-14" fill="#D5E0F0"></path>
                    <path d="M80.4514237,40.6872872 C86.9337807,37.103816 101.783167,31.2639561 101.783167,31.2639561 L101.762432,92.2350375 L59.1196804,115.806734 L59.142904,54.8356527 C59.142904,54.8356527 72.7203596,44.9610482 80.4514237,40.6872872 Z" id="enclave-Fill-7" fill="#D5E0F0"></path>
                    <path d="M28.516354,43.8296217 C34.7455155,47.2504129 46.1968855,55.8920183 46.1968855,55.8920183 L46.1769795,115.806734 L3.24559148,92.2318818 L3.26632687,32.3163769 C3.26632687,32.3163769 20.4353293,39.3918658 28.516354,43.8296217 Z" id="enclave-Fill-9" fill="#D5E0F0"></path>
                    <path d="M101.741862,25.1868026 C105.312497,27.1496643 105.332403,30.3598267 101.783333,32.3203216 L59.1430699,55.8920183 C55.5915117,57.854091 49.7690132,57.854091 46.1967196,55.8920183 L3.26616099,32.3163769 C-0.305303182,30.3558821 -0.322720912,27.1457196 3.22551962,25.1836468 L45.8674416,1.61352805 C49.4156821,-0.349333636 55.2414983,-0.349333636 58.8129625,1.61352805 L101.741862,25.1868026 Z" id="enclave-Fill-11" fill="#E9F1FD"></path>
                </g>
                <g id="enclave-App" transform="translate(127.962728, 50.207858)">
                    <g id="enclave-Fill-11">
                        <use fill="black" fill-opacity="1" filter="url(#enclave-filter-2)" xlink:href="#enclave-path-1"></use>
                        <use fill="#E9F1FD" fill-rule="evenodd" xlink:href="#enclave-path-1"></use>
                    </g>
                    <path d="M104.410176,88.6957328 C104.406858,89.9793244 103.52436,91.2613382 101.761851,92.2348797 C101.761851,92.2348797 100.671891,36.1496083 100.675928,34.8210904 C100.679079,33.7841285 101.783416,31.2637983 101.783416,31.2637983 C102.439465,30.9009579 102.571124,30.0004071 102.983551,29.5678981 C103.678608,28.8389967 104.430276,28.5286559 104.433399,27.7230735 L104.410176,88.6957328 Z" id="enclave-Fill-1" fill="#ACD6FF"></path>
                    <path d="M4.21463478,35.8225467 C4.21093469,37.0889995 3.2458403,92.2320396 3.2458403,92.2320396 C1.44766698,91.2442973 0.551897984,89.9425602 0.556045063,88.6408232 L0.576780457,28.7253183 C0.573378623,29.614621 1.64783642,29.9042651 2.48695532,30.6939885 C2.87537148,31.0595403 2.69838573,32.0039937 3.2665757,32.3165347 C3.2665757,32.3165347 4.21784649,34.7232568 4.21463478,35.8225467 Z" id="enclave-Fill-4" fill="#ACD6FF"></path>
                    <path d="M61.0109839,59.4564758 C61.0074775,60.5279236 59.1195145,115.806734 59.1195145,115.806734 C55.5721034,117.769596 49.7471167,117.769596 46.1764819,115.806734 C46.1764819,115.806734 44.7944614,60.4220423 44.7972828,59.4564758 C44.8013732,58.0565625 46.1972173,55.8920183 46.1972173,55.8920183 C47.9267478,56.8421789 50.6322515,55.8621143 52.9041351,55.8920183 C55.3236696,55.9238657 57.3114985,56.9039304 59.1427381,55.8920183 C59.1427381,55.8920183 61.0152187,58.1624438 61.0109839,59.4564758 Z" id="enclave-Fill-14" fill="#ACD6FF"></path>
                    <path d="M80.4514237,40.6872872 C86.9337807,37.103816 101.783167,31.2639561 101.783167,31.2639561 L101.762432,92.2350375 L59.1196804,115.806734 L59.142904,54.8356527 C59.142904,54.8356527 72.7203596,44.9610482 80.4514237,40.6872872 Z" id="enclave-Fill-7" fill="#ACD6FF"></path>
                    <path d="M28.516354,43.8296217 C34.7455155,47.2504129 46.1968855,55.8920183 46.1968855,55.8920183 L46.1769795,115.806734 L3.24559148,92.2318818 L3.26632687,32.3163769 C3.26632687,32.3163769 20.4353293,39.3918658 28.516354,43.8296217 Z" id="enclave-Fill-9" fill="#ACD6FF"></path>
                    <path d="M101.741862,25.1868026 C105.312497,27.1496643 105.332403,30.3598267 101.783333,32.3203216 L59.1430699,55.8920183 C55.5915117,57.854091 49.7690132,57.854091 46.1967196,55.8920183 L3.26616099,32.3163769 C-0.305303182,30.3558821 -0.322720912,27.1457196 3.22551962,25.1836468 L45.8674416,1.61352805 C49.4156821,-0.349333636 55.2414983,-0.349333636 58.8129625,1.61352805 L101.741862,25.1868026 Z" id="enclave-Fill-11" fill="#BBDEFF"></path>
                </g>
                <g id="enclave-App" transform="translate(63.981364, 109.544418)">
                    <path d="M104.410176,88.6957328 C104.406858,89.9793244 103.52436,91.2613382 101.761851,92.2348797 C101.761851,92.2348797 100.671891,36.1496083 100.675928,34.8210904 C100.679079,33.7841285 101.783416,31.2637983 101.783416,31.2637983 C102.439465,30.9009579 102.571124,30.0004071 102.983551,29.5678981 C103.678608,28.8389967 104.430276,28.5286559 104.433399,27.7230735 L104.410176,88.6957328 Z" id="enclave-Fill-1" fill="#D5E0F0"></path>
                    <path d="M4.21463478,35.8225467 C4.21093469,37.0889995 3.2458403,92.2320396 3.2458403,92.2320396 C1.44766698,91.2442973 0.551897984,89.9425602 0.556045063,88.6408232 L0.576780457,28.7253183 C0.573378623,29.614621 1.64783642,29.9042651 2.48695532,30.6939885 C2.87537148,31.0595403 2.69838573,32.0039937 3.2665757,32.3165347 C3.2665757,32.3165347 4.21784649,34.7232568 4.21463478,35.8225467 Z" id="enclave-Fill-4" fill="#D5E0F0"></path>
                    <path d="M61.0109839,59.4564758 C61.0074775,60.5279236 59.1195145,115.806734 59.1195145,115.806734 C55.5721034,117.769596 49.7471167,117.769596 46.1764819,115.806734 C46.1764819,115.806734 44.7944614,60.4220423 44.7972828,59.4564758 C44.8013732,58.0565625 46.1972173,55.8920183 46.1972173,55.8920183 C47.9267478,56.8421789 50.6322515,55.8621143 52.9041351,55.8920183 C55.3236696,55.9238657 57.3114985,56.9039304 59.1427381,55.8920183 C59.1427381,55.8920183 61.0152187,58.1624438 61.0109839,59.4564758 Z" id="enclave-Fill-14" fill="#D5E0F0"></path>
                    <path d="M80.4514237,40.6872872 C86.9337807,37.103816 101.783167,31.2639561 101.783167,31.2639561 L101.762432,92.2350375 L59.1196804,115.806734 L59.142904,54.8356527 C59.142904,54.8356527 72.7203596,44.9610482 80.4514237,40.6872872 Z" id="enclave-Fill-7" fill="#D5E0F0"></path>
                    <path d="M28.516354,43.8296217 C34.7455155,47.2504129 46.1968855,55.8920183 46.1968855,55.8920183 L46.1769795,115.806734 L3.24559148,92.2318818 L3.26632687,32.3163769 C3.26632687,32.3163769 20.4353293,39.3918658 28.516354,43.8296217 Z" id="enclave-Fill-9" fill="#D5E0F0"></path>
                    <path d="M101.741862,25.1868026 C105.312497,27.1496643 105.332403,30.3598267 101.783333,32.3203216 L59.1430699,55.8920183 C55.5915117,57.854091 49.7690132,57.854091 46.1967196,55.8920183 L3.26616099,32.3163769 C-0.305303182,30.3558821 -0.322720912,27.1457196 3.22551962,25.1836468 L45.8674416,1.61352805 C49.4156821,-0.349333636 55.2414983,-0.349333636 58.8129625,1.61352805 L101.741862,25.1868026 Z" id="enclave-Fill-11" fill="#E9F1FD"></path>
                </g>
                <g id="enclave-App" transform="translate(265.065650, 70.747436)">
                    <path d="M104.410176,88.6957328 C104.406858,89.9793244 103.52436,91.2613382 101.761851,92.2348797 C101.761851,92.2348797 100.671891,36.1496083 100.675928,34.8210904 C100.679079,33.7841285 101.783416,31.2637983 101.783416,31.2637983 C102.439465,30.9009579 102.571124,30.0004071 102.983551,29.5678981 C103.678608,28.8389967 104.430276,28.5286559 104.433399,27.7230735 L104.410176,88.6957328 Z" id="enclave-Fill-1" fill="#D5E0F0"></path>
                    <path d="M4.21463478,35.8225467 C4.21093469,37.0889995 3.2458403,92.2320396 3.2458403,92.2320396 C1.44766698,91.2442973 0.551897984,89.9425602 0.556045063,88.6408232 L0.576780457,28.7253183 C0.573378623,29.614621 1.64783642,29.9042651 2.48695532,30.6939885 C2.87537148,31.0595403 2.69838573,32.0039937 3.2665757,32.3165347 C3.2665757,32.3165347 4.21784649,34.7232568 4.21463478,35.8225467 Z" id="enclave-Fill-4" fill="#D5E0F0"></path>
                    <path d="M61.0109839,59.4564758 C61.0074775,60.5279236 59.1195145,115.806734 59.1195145,115.806734 C55.5721034,117.769596 49.7471167,117.769596 46.1764819,115.806734 C46.1764819,115.806734 44.7944614,60.4220423 44.7972828,59.4564758 C44.8013732,58.0565625 46.1972173,55.8920183 46.1972173,55.8920183 C47.9267478,56.8421789 50.6322515,55.8621143 52.9041351,55.8920183 C55.3236696,55.9238657 57.3114985,56.9039304 59.1427381,55.8920183 C59.1427381,55.8920183 61.0152187,58.1624438 61.0109839,59.4564758 Z" id="enclave-Fill-14" fill="#D5E0F0"></path>
                    <path d="M80.4514237,40.6872872 C86.9337807,37.103816 101.783167,31.2639561 101.783167,31.2639561 L101.762432,92.2350375 L59.1196804,115.806734 L59.142904,54.8356527 C59.142904,54.8356527 72.7203596,44.9610482 80.4514237,40.6872872 Z" id="enclave-Fill-7" fill="#D5E0F0"></path>
                    <path d="M28.516354,43.8296217 C34.7455155,47.2504129 46.1968855,55.8920183 46.1968855,55.8920183 L46.1769795,115.806734 L3.24559148,92.2318818 L3.26632687,32.3163769 C3.26632687,32.3163769 20.4353293,39.3918658 28.516354,43.8296217 Z" id="enclave-Fill-9" fill="#D5E0F0"></path>
                    <path d="M101.741862,25.1868026 C105.312497,27.1496643 105.332403,30.3598267 101.783333,32.3203216 L59.1430699,55.8920183 C55.5915117,57.854091 49.7690132,57.854091 46.1967196,55.8920183 L3.26616099,32.3163769 C-0.305303182,30.3558821 -0.322720912,27.1457196 3.22551962,25.1836468 L45.8674416,1.61352805 C49.4156821,-0.349333636 55.2414983,-0.349333636 58.8129625,1.61352805 L101.741862,25.1868026 Z" id="enclave-Fill-11" fill="#E9F1FD"></path>
                </g>
                <g id="enclave-App" transform="translate(196.514189, 107.262242)">
                    <path d="M104.410176,88.6957328 C104.406858,89.9793244 103.52436,91.2613382 101.761851,92.2348797 C101.761851,92.2348797 100.671891,36.1496083 100.675928,34.8210904 C100.679079,33.7841285 101.783416,31.2637983 101.783416,31.2637983 C102.439465,30.9009579 102.571124,30.0004071 102.983551,29.5678981 C103.678608,28.8389967 104.430276,28.5286559 104.433399,27.7230735 L104.410176,88.6957328 Z" id="enclave-Fill-1" fill="#D5E0F0"></path>
                    <path d="M4.21463478,35.8225467 C4.21093469,37.0889995 3.2458403,92.2320396 3.2458403,92.2320396 C1.44766698,91.2442973 0.551897984,89.9425602 0.556045063,88.6408232 L0.576780457,28.7253183 C0.573378623,29.614621 1.64783642,29.9042651 2.48695532,30.6939885 C2.87537148,31.0595403 2.69838573,32.0039937 3.2665757,32.3165347 C3.2665757,32.3165347 4.21784649,34.7232568 4.21463478,35.8225467 Z" id="enclave-Fill-4" fill="#D5E0F0"></path>
                    <path d="M61.0109839,59.4564758 C61.0074775,60.5279236 59.1195145,115.806734 59.1195145,115.806734 C55.5721034,117.769596 49.7471167,117.769596 46.1764819,115.806734 C46.1764819,115.806734 44.7944614,60.4220423 44.7972828,59.4564758 C44.8013732,58.0565625 46.1972173,55.8920183 46.1972173,55.8920183 C47.9267478,56.8421789 50.6322515,55.8621143 52.9041351,55.8920183 C55.3236696,55.9238657 57.3114985,56.9039304 59.1427381,55.8920183 C59.1427381,55.8920183 61.0152187,58.1624438 61.0109839,59.4564758 Z" id="enclave-Fill-14" fill="#D5E0F0"></path>
                    <path d="M80.4514237,40.6872872 C86.9337807,37.103816 101.783167,31.2639561 101.783167,31.2639561 L101.762432,92.2350375 L59.1196804,115.806734 L59.142904,54.8356527 C59.142904,54.8356527 72.7203596,44.9610482 80.4514237,40.6872872 Z" id="enclave-Fill-7" fill="#D5E0F0"></path>
                    <path d="M28.516354,43.8296217 C34.7455155,47.2504129 46.1968855,55.8920183 46.1968855,55.8920183 L46.1769795,115.806734 L3.24559148,92.2318818 L3.26632687,32.3163769 C3.26632687,32.3163769 20.4353293,39.3918658 28.516354,43.8296217 Z" id="enclave-Fill-9" fill="#D5E0F0"></path>
                    <path d="M101.741862,25.1868026 C105.312497,27.1496643 105.332403,30.3598267 101.783333,32.3203216 L59.1430699,55.8920183 C55.5915117,57.854091 49.7690132,57.854091 46.1967196,55.8920183 L3.26616099,32.3163769 C-0.305303182,30.3558821 -0.322720912,27.1457196 3.22551962,25.1836468 L45.8674416,1.61352805 C49.4156821,-0.349333636 55.2414983,-0.349333636 58.8129625,1.61352805 L101.741862,25.1868026 Z" id="enclave-Fill-11" fill="#E9F1FD"></path>
                </g>
                <g id="enclave-App" transform="translate(132.532825, 143.777048)">
                    <path d="M104.410176,88.6957328 C104.406858,89.9793244 103.52436,91.2613382 101.761851,92.2348797 C101.761851,92.2348797 100.671891,36.1496083 100.675928,34.8210904 C100.679079,33.7841285 101.783416,31.2637983 101.783416,31.2637983 C102.439465,30.9009579 102.571124,30.0004071 102.983551,29.5678981 C103.678608,28.8389967 104.430276,28.5286559 104.433399,27.7230735 L104.410176,88.6957328 Z" id="enclave-Fill-1" fill="#D5E0F0"></path>
                    <path d="M4.21463478,35.8225467 C4.21093469,37.0889995 3.2458403,92.2320396 3.2458403,92.2320396 C1.44766698,91.2442973 0.551897984,89.9425602 0.556045063,88.6408232 L0.576780457,28.7253183 C0.573378623,29.614621 1.64783642,29.9042651 2.48695532,30.6939885 C2.87537148,31.0595403 2.69838573,32.0039937 3.2665757,32.3165347 C3.2665757,32.3165347 4.21784649,34.7232568 4.21463478,35.8225467 Z" id="enclave-Fill-4" fill="#D5E0F0"></path>
                    <path d="M61.0109839,59.4564758 C61.0074775,60.5279236 59.1195145,115.806734 59.1195145,115.806734 C55.5721034,117.769596 49.7471167,117.769596 46.1764819,115.806734 C46.1764819,115.806734 44.7944614,60.4220423 44.7972828,59.4564758 C44.8013732,58.0565625 46.1972173,55.8920183 46.1972173,55.8920183 C47.9267478,56.8421789 50.6322515,55.8621143 52.9041351,55.8920183 C55.3236696,55.9238657 57.3114985,56.9039304 59.1427381,55.8920183 C59.1427381,55.8920183 61.0152187,58.1624438 61.0109839,59.4564758 Z" id="enclave-Fill-14" fill="#D5E0F0"></path>
                    <path d="M80.4514237,40.6872872 C86.9337807,37.103816 101.783167,31.2639561 101.783167,31.2639561 L101.762432,92.2350375 L59.1196804,115.806734 L59.142904,54.8356527 C59.142904,54.8356527 72.7203596,44.9610482 80.4514237,40.6872872 Z" id="enclave-Fill-7" fill="#D5E0F0"></path>
                    <path d="M28.516354,43.8296217 C34.7455155,47.2504129 46.1968855,55.8920183 46.1968855,55.8920183 L46.1769795,115.806734 L3.24559148,92.2318818 L3.26632687,32.3163769 C3.26632687,32.3163769 20.4353293,39.3918658 28.516354,43.8296217 Z" id="enclave-Fill-9" fill="#D5E0F0"></path>
                    <path d="M101.741862,25.1868026 C105.312497,27.1496643 105.332403,30.3598267 101.783333,32.3203216 L59.1430699,55.8920183 C55.5915117,57.854091 49.7690132,57.854091 46.1967196,55.8920183 L3.26616099,32.3163769 C-0.305303182,30.3558821 -0.322720912,27.1457196 3.22551962,25.1836468 L45.8674416,1.61352805 C49.4156821,-0.349333636 55.2414983,-0.349333636 58.8129625,1.61352805 L101.741862,25.1868026 Z" id="enclave-Fill-11" fill="#E9F1FD"></path>
                </g>
            </g>
            <g id="enclave-App-Grid" transform="translate(42.000000, 120.775522)">
                <g id="enclave-App" transform="translate(100.604938, 0.000000)">
                    <path d="M79.2571898,67.3284428 C79.2546714,68.3028101 78.5847718,69.2759797 77.2468613,70.0149897 C77.2468613,70.0149897 76.4194786,27.4409687 76.4225432,26.4324981 C76.4249352,25.6453461 77.2632311,23.7321773 77.2632311,23.7321773 C77.7612341,23.4567471 77.8611761,22.7731439 78.1742468,22.4448288 C78.7018607,21.8915237 79.2724479,21.6559458 79.2748188,21.0444326 L79.2571898,67.3284428 Z" id="enclave-Fill-1" fill="#D5E0F0"></path>
                    <path d="M3.19930607,27.1926981 C3.19649735,28.1540554 2.46389952,70.0128337 2.46389952,70.0128337 C1.09891604,69.263044 0.418942723,68.2749026 0.422090748,67.2867611 L0.437830871,21.8052311 C0.435248558,22.4802958 1.25086356,22.7001631 1.8878341,23.2996378 C2.18267867,23.5771261 2.04832976,24.2940555 2.47963964,24.5313037 C2.47963964,24.5313037 3.20174406,26.3582332 3.19930607,27.1926981 Z" id="enclave-Fill-4" fill="#D5E0F0"></path>
                    <path d="M46.3131022,45.1330836 C46.3104405,45.9464137 44.8772982,87.9082547 44.8772982,87.9082547 C42.1844779,89.3982522 37.7627625,89.3982522 35.0523133,87.9082547 C35.0523133,87.9082547 34.0032292,45.8660398 34.0053709,45.1330836 C34.0084759,44.0704172 35.0680535,42.4273235 35.0680535,42.4273235 C36.3809306,43.1485853 38.4346636,42.4046236 40.1592379,42.4273235 C41.9958932,42.4514988 43.5048432,43.1954604 44.8949271,42.4273235 C44.8949271,42.4273235 46.3163168,44.1507911 46.3131022,45.1330836 Z" id="enclave-Fill-14" fill="#D5E0F0"></path>
                    <path d="M61.070233,30.8854958 C65.9909546,28.1653026 77.2630422,23.732297 77.2630422,23.732297 L77.247302,70.0151095 L44.8774241,87.9082547 L44.895053,41.6254423 C44.895053,41.6254423 55.2016249,34.1296843 61.070233,30.8854958 Z" id="enclave-Fill-7" fill="#D5E0F0"></path>
                    <path d="M21.6466074,33.2708247 C26.3751296,35.8675285 35.0678016,42.4273235 35.0678016,42.4273235 L35.0526911,87.9082547 L2.46371063,70.012714 L2.47945076,24.5311839 C2.47945076,24.5311839 15.512346,29.9021486 21.6466074,33.2708247 Z" id="enclave-Fill-9" fill="#D5E0F0"></path>
                    <path d="M77.2316878,19.1191633 C79.942137,20.6091608 79.9572476,23.0459774 77.2631681,24.5341783 L44.895179,42.4273235 C42.1992107,43.9167222 37.7793841,43.9167222 35.0676757,42.4273235 L2.47932484,24.5311839 C-0.231753965,23.042983 -0.244975669,20.6061664 2.4484742,19.1167678 L34.8177225,1.22482026 C37.5111724,-0.265177241 41.9335174,-0.265177241 44.6445962,1.22482026 L77.2316878,19.1191633 Z" id="enclave-Fill-11" fill="#E9F1FD"></path>
                </g>
                <g id="enclave-App" transform="translate(48.567901, 27.718188)">
                    <path d="M79.2571898,67.3284428 C79.2546714,68.3028101 78.5847718,69.2759797 77.2468613,70.0149897 C77.2468613,70.0149897 76.4194786,27.4409687 76.4225432,26.4324981 C76.4249352,25.6453461 77.2632311,23.7321773 77.2632311,23.7321773 C77.7612341,23.4567471 77.8611761,22.7731439 78.1742468,22.4448288 C78.7018607,21.8915237 79.2724479,21.6559458 79.2748188,21.0444326 L79.2571898,67.3284428 Z" id="enclave-Fill-1" fill="#D5E0F0"></path>
                    <path d="M3.19930607,27.1926981 C3.19649735,28.1540554 2.46389952,70.0128337 2.46389952,70.0128337 C1.09891604,69.263044 0.418942723,68.2749026 0.422090748,67.2867611 L0.437830871,21.8052311 C0.435248558,22.4802958 1.25086356,22.7001631 1.8878341,23.2996378 C2.18267867,23.5771261 2.04832976,24.2940555 2.47963964,24.5313037 C2.47963964,24.5313037 3.20174406,26.3582332 3.19930607,27.1926981 Z" id="enclave-Fill-4" fill="#D5E0F0"></path>
                    <path d="M46.3131022,45.1330836 C46.3104405,45.9464137 44.8772982,87.9082547 44.8772982,87.9082547 C42.1844779,89.3982522 37.7627625,89.3982522 35.0523133,87.9082547 C35.0523133,87.9082547 34.0032292,45.8660398 34.0053709,45.1330836 C34.0084759,44.0704172 35.0680535,42.4273235 35.0680535,42.4273235 C36.3809306,43.1485853 38.4346636,42.4046236 40.1592379,42.4273235 C41.9958932,42.4514988 43.5048432,43.1954604 44.8949271,42.4273235 C44.8949271,42.4273235 46.3163168,44.1507911 46.3131022,45.1330836 Z" id="enclave-Fill-14" fill="#D5E0F0"></path>
                    <path d="M61.070233,30.8854958 C65.9909546,28.1653026 77.2630422,23.732297 77.2630422,23.732297 L77.247302,70.0151095 L44.8774241,87.9082547 L44.895053,41.6254423 C44.895053,41.6254423 55.2016249,34.1296843 61.070233,30.8854958 Z" id="enclave-Fill-7" fill="#D5E0F0"></path>
                    <path d="M21.6466074,33.2708247 C26.3751296,35.8675285 35.0678016,42.4273235 35.0678016,42.4273235 L35.0526911,87.9082547 L2.46371063,70.012714 L2.47945076,24.5311839 C2.47945076,24.5311839 15.512346,29.9021486 21.6466074,33.2708247 Z" id="enclave-Fill-9" fill="#D5E0F0"></path>
                    <path d="M77.2316878,19.1191633 C79.942137,20.6091608 79.9572476,23.0459774 77.2631681,24.5341783 L44.895179,42.4273235 C42.1992107,43.9167222 37.7793841,43.9167222 35.0676757,42.4273235 L2.47932484,24.5311839 C-0.231753965,23.042983 -0.244975669,20.6061664 2.4484742,19.1167678 L34.8177225,1.22482026 C37.5111724,-0.265177241 41.9335174,-0.265177241 44.6445962,1.22482026 L77.2316878,19.1191633 Z" id="enclave-Fill-11" fill="#E9F1FD"></path>
                </g>
                <g id="enclave-App" transform="translate(0.000000, 55.436376)">
                    <path d="M79.2571898,67.3284428 C79.2546714,68.3028101 78.5847718,69.2759797 77.2468613,70.0149897 C77.2468613,70.0149897 76.4194786,27.4409687 76.4225432,26.4324981 C76.4249352,25.6453461 77.2632311,23.7321773 77.2632311,23.7321773 C77.7612341,23.4567471 77.8611761,22.7731439 78.1742468,22.4448288 C78.7018607,21.8915237 79.2724479,21.6559458 79.2748188,21.0444326 L79.2571898,67.3284428 Z" id="enclave-Fill-1" fill="#D5E0F0"></path>
                    <path d="M3.19930607,27.1926981 C3.19649735,28.1540554 2.46389952,70.0128337 2.46389952,70.0128337 C1.09891604,69.263044 0.418942723,68.2749026 0.422090748,67.2867611 L0.437830871,21.8052311 C0.435248558,22.4802958 1.25086356,22.7001631 1.8878341,23.2996378 C2.18267867,23.5771261 2.04832976,24.2940555 2.47963964,24.5313037 C2.47963964,24.5313037 3.20174406,26.3582332 3.19930607,27.1926981 Z" id="enclave-Fill-4" fill="#D5E0F0"></path>
                    <path d="M46.3131022,45.1330836 C46.3104405,45.9464137 44.8772982,87.9082547 44.8772982,87.9082547 C42.1844779,89.3982522 37.7627625,89.3982522 35.0523133,87.9082547 C35.0523133,87.9082547 34.0032292,45.8660398 34.0053709,45.1330836 C34.0084759,44.0704172 35.0680535,42.4273235 35.0680535,42.4273235 C36.3809306,43.1485853 38.4346636,42.4046236 40.1592379,42.4273235 C41.9958932,42.4514988 43.5048432,43.1954604 44.8949271,42.4273235 C44.8949271,42.4273235 46.3163168,44.1507911 46.3131022,45.1330836 Z" id="enclave-Fill-14" fill="#D5E0F0"></path>
                    <path d="M61.070233,30.8854958 C65.9909546,28.1653026 77.2630422,23.732297 77.2630422,23.732297 L77.247302,70.0151095 L44.8774241,87.9082547 L44.895053,41.6254423 C44.895053,41.6254423 55.2016249,34.1296843 61.070233,30.8854958 Z" id="enclave-Fill-7" fill="#D5E0F0"></path>
                    <path d="M21.6466074,33.2708247 C26.3751296,35.8675285 35.0678016,42.4273235 35.0678016,42.4273235 L35.0526911,87.9082547 L2.46371063,70.012714 L2.47945076,24.5311839 C2.47945076,24.5311839 15.512346,29.9021486 21.6466074,33.2708247 Z" id="enclave-Fill-9" fill="#D5E0F0"></path>
                    <path d="M77.2316878,19.1191633 C79.942137,20.6091608 79.9572476,23.0459774 77.2631681,24.5341783 L44.895179,42.4273235 C42.1992107,43.9167222 37.7793841,43.9167222 35.0676757,42.4273235 L2.47932484,24.5311839 C-0.231753965,23.042983 -0.244975669,20.6061664 2.4484742,19.1167678 L34.8177225,1.22482026 C37.5111724,-0.265177241 41.9335174,-0.265177241 44.6445962,1.22482026 L77.2316878,19.1191633 Z" id="enclave-Fill-11" fill="#E9F1FD"></path>
                </g>
                <g id="enclave-App" transform="translate(149.172840, 27.718188)">
                    <path d="M79.2571898,67.3284428 C79.2546714,68.3028101 78.5847718,69.2759797 77.2468613,70.0149897 C77.2468613,70.0149897 76.4194786,27.4409687 76.4225432,26.4324981 C76.4249352,25.6453461 77.2632311,23.7321773 77.2632311,23.7321773 C77.7612341,23.4567471 77.8611761,22.7731439 78.1742468,22.4448288 C78.7018607,21.8915237 79.2724479,21.6559458 79.2748188,21.0444326 L79.2571898,67.3284428 Z" id="enclave-Fill-1" fill="#D5E0F0"></path>
                    <path d="M3.19930607,27.1926981 C3.19649735,28.1540554 2.46389952,70.0128337 2.46389952,70.0128337 C1.09891604,69.263044 0.418942723,68.2749026 0.422090748,67.2867611 L0.437830871,21.8052311 C0.435248558,22.4802958 1.25086356,22.7001631 1.8878341,23.2996378 C2.18267867,23.5771261 2.04832976,24.2940555 2.47963964,24.5313037 C2.47963964,24.5313037 3.20174406,26.3582332 3.19930607,27.1926981 Z" id="enclave-Fill-4" fill="#D5E0F0"></path>
                    <path d="M46.3131022,45.1330836 C46.3104405,45.9464137 44.8772982,87.9082547 44.8772982,87.9082547 C42.1844779,89.3982522 37.7627625,89.3982522 35.0523133,87.9082547 C35.0523133,87.9082547 34.0032292,45.8660398 34.0053709,45.1330836 C34.0084759,44.0704172 35.0680535,42.4273235 35.0680535,42.4273235 C36.3809306,43.1485853 38.4346636,42.4046236 40.1592379,42.4273235 C41.9958932,42.4514988 43.5048432,43.1954604 44.8949271,42.4273235 C44.8949271,42.4273235 46.3163168,44.1507911 46.3131022,45.1330836 Z" id="enclave-Fill-14" fill="#D5E0F0"></path>
                    <path d="M61.070233,30.8854958 C65.9909546,28.1653026 77.2630422,23.732297 77.2630422,23.732297 L77.247302,70.0151095 L44.8774241,87.9082547 L44.895053,41.6254423 C44.895053,41.6254423 55.2016249,34.1296843 61.070233,30.8854958 Z" id="enclave-Fill-7" fill="#D5E0F0"></path>
                    <path d="M21.6466074,33.2708247 C26.3751296,35.8675285 35.0678016,42.4273235 35.0678016,42.4273235 L35.0526911,87.9082547 L2.46371063,70.012714 L2.47945076,24.5311839 C2.47945076,24.5311839 15.512346,29.9021486 21.6466074,33.2708247 Z" id="enclave-Fill-9" fill="#D5E0F0"></path>
                    <path d="M77.2316878,19.1191633 C79.942137,20.6091608 79.9572476,23.0459774 77.2631681,24.5341783 L44.895179,42.4273235 C42.1992107,43.9167222 37.7793841,43.9167222 35.0676757,42.4273235 L2.47932484,24.5311839 C-0.231753965,23.042983 -0.244975669,20.6061664 2.4484742,19.1167678 L34.8177225,1.22482026 C37.5111724,-0.265177241 41.9335174,-0.265177241 44.6445962,1.22482026 L77.2316878,19.1191633 Z" id="enclave-Fill-11" fill="#E9F1FD"></path>
                </g>
                <g id="enclave-App" transform="translate(97.135802, 38.112509)">
                    <g id="enclave-Fill-11">
                        <use fill="black" fill-opacity="1" filter="url(#enclave-filter-4)" xlink:href="#enclave-path-3"></use>
                        <use fill="#E9F1FD" fill-rule="evenodd" xlink:href="#enclave-path-3"></use>
                    </g>
                    <path d="M79.2571898,67.3284428 C79.2546714,68.3028101 78.5847718,69.2759797 77.2468613,70.0149897 C77.2468613,70.0149897 76.4194786,27.4409687 76.4225432,26.4324981 C76.4249352,25.6453461 77.2632311,23.7321773 77.2632311,23.7321773 C77.7612341,23.4567471 77.8611761,22.7731439 78.1742468,22.4448288 C78.7018607,21.8915237 79.2724479,21.6559458 79.2748188,21.0444326 L79.2571898,67.3284428 Z" id="enclave-Fill-1" fill="#ACD6FF"></path>
                    <path d="M3.19930607,27.1926981 C3.19649735,28.1540554 2.46389952,70.0128337 2.46389952,70.0128337 C1.09891604,69.263044 0.418942723,68.2749026 0.422090748,67.2867611 L0.437830871,21.8052311 C0.435248558,22.4802958 1.25086356,22.7001631 1.8878341,23.2996378 C2.18267867,23.5771261 2.04832976,24.2940555 2.47963964,24.5313037 C2.47963964,24.5313037 3.20174406,26.3582332 3.19930607,27.1926981 Z" id="enclave-Fill-4" fill="#ACD6FF"></path>
                    <path d="M46.3131022,45.1330836 C46.3104405,45.9464137 44.8772982,87.9082547 44.8772982,87.9082547 C42.1844779,89.3982522 37.7627625,89.3982522 35.0523133,87.9082547 C35.0523133,87.9082547 34.0032292,45.8660398 34.0053709,45.1330836 C34.0084759,44.0704172 35.0680535,42.4273235 35.0680535,42.4273235 C36.3809306,43.1485853 38.4346636,42.4046236 40.1592379,42.4273235 C41.9958932,42.4514988 43.5048432,43.1954604 44.8949271,42.4273235 C44.8949271,42.4273235 46.3163168,44.1507911 46.3131022,45.1330836 Z" id="enclave-Fill-14" fill="#ACD6FF"></path>
                    <path d="M61.070233,30.8854958 C65.9909546,28.1653026 77.2630422,23.732297 77.2630422,23.732297 L77.247302,70.0151095 L44.8774241,87.9082547 L44.895053,41.6254423 C44.895053,41.6254423 55.2016249,34.1296843 61.070233,30.8854958 Z" id="enclave-Fill-7" fill="#ACD6FF"></path>
                    <path d="M21.6466074,33.2708247 C26.3751296,35.8675285 35.0678016,42.4273235 35.0678016,42.4273235 L35.0526911,87.9082547 L2.46371063,70.012714 L2.47945076,24.5311839 C2.47945076,24.5311839 15.512346,29.9021486 21.6466074,33.2708247 Z" id="enclave-Fill-9" fill="#ACD6FF"></path>
                    <path d="M77.2316878,19.1191633 C79.942137,20.6091608 79.9572476,23.0459774 77.2631681,24.5341783 L44.895179,42.4273235 C42.1992107,43.9167222 37.7793841,43.9167222 35.0676757,42.4273235 L2.47932484,24.5311839 C-0.231753965,23.042983 -0.244975669,20.6061664 2.4484742,19.1167678 L34.8177225,1.22482026 C37.5111724,-0.265177241 41.9335174,-0.265177241 44.6445962,1.22482026 L77.2316878,19.1191633 Z" id="enclave-Fill-11" fill="#BBDEFF"></path>
                </g>
                <g id="enclave-App" transform="translate(48.567901, 83.154565)">
                    <path d="M79.2571898,67.3284428 C79.2546714,68.3028101 78.5847718,69.2759797 77.2468613,70.0149897 C77.2468613,70.0149897 76.4194786,27.4409687 76.4225432,26.4324981 C76.4249352,25.6453461 77.2632311,23.7321773 77.2632311,23.7321773 C77.7612341,23.4567471 77.8611761,22.7731439 78.1742468,22.4448288 C78.7018607,21.8915237 79.2724479,21.6559458 79.2748188,21.0444326 L79.2571898,67.3284428 Z" id="enclave-Fill-1" fill="#D5E0F0"></path>
                    <path d="M3.19930607,27.1926981 C3.19649735,28.1540554 2.46389952,70.0128337 2.46389952,70.0128337 C1.09891604,69.263044 0.418942723,68.2749026 0.422090748,67.2867611 L0.437830871,21.8052311 C0.435248558,22.4802958 1.25086356,22.7001631 1.8878341,23.2996378 C2.18267867,23.5771261 2.04832976,24.2940555 2.47963964,24.5313037 C2.47963964,24.5313037 3.20174406,26.3582332 3.19930607,27.1926981 Z" id="enclave-Fill-4" fill="#D5E0F0"></path>
                    <path d="M46.3131022,45.1330836 C46.3104405,45.9464137 44.8772982,87.9082547 44.8772982,87.9082547 C42.1844779,89.3982522 37.7627625,89.3982522 35.0523133,87.9082547 C35.0523133,87.9082547 34.0032292,45.8660398 34.0053709,45.1330836 C34.0084759,44.0704172 35.0680535,42.4273235 35.0680535,42.4273235 C36.3809306,43.1485853 38.4346636,42.4046236 40.1592379,42.4273235 C41.9958932,42.4514988 43.5048432,43.1954604 44.8949271,42.4273235 C44.8949271,42.4273235 46.3163168,44.1507911 46.3131022,45.1330836 Z" id="enclave-Fill-14" fill="#D5E0F0"></path>
                    <path d="M61.070233,30.8854958 C65.9909546,28.1653026 77.2630422,23.732297 77.2630422,23.732297 L77.247302,70.0151095 L44.8774241,87.9082547 L44.895053,41.6254423 C44.895053,41.6254423 55.2016249,34.1296843 61.070233,30.8854958 Z" id="enclave-Fill-7" fill="#D5E0F0"></path>
                    <path d="M21.6466074,33.2708247 C26.3751296,35.8675285 35.0678016,42.4273235 35.0678016,42.4273235 L35.0526911,87.9082547 L2.46371063,70.012714 L2.47945076,24.5311839 C2.47945076,24.5311839 15.512346,29.9021486 21.6466074,33.2708247 Z" id="enclave-Fill-9" fill="#D5E0F0"></path>
                    <path d="M77.2316878,19.1191633 C79.942137,20.6091608 79.9572476,23.0459774 77.2631681,24.5341783 L44.895179,42.4273235 C42.1992107,43.9167222 37.7793841,43.9167222 35.0676757,42.4273235 L2.47932484,24.5311839 C-0.231753965,23.042983 -0.244975669,20.6061664 2.4484742,19.1167678 L34.8177225,1.22482026 C37.5111724,-0.265177241 41.9335174,-0.265177241 44.6445962,1.22482026 L77.2316878,19.1191633 Z" id="enclave-Fill-11" fill="#E9F1FD"></path>
                </g>
                <g id="enclave-App" transform="translate(201.209877, 53.703990)">
                    <path d="M79.2571898,67.3284428 C79.2546714,68.3028101 78.5847718,69.2759797 77.2468613,70.0149897 C77.2468613,70.0149897 76.4194786,27.4409687 76.4225432,26.4324981 C76.4249352,25.6453461 77.2632311,23.7321773 77.2632311,23.7321773 C77.7612341,23.4567471 77.8611761,22.7731439 78.1742468,22.4448288 C78.7018607,21.8915237 79.2724479,21.6559458 79.2748188,21.0444326 L79.2571898,67.3284428 Z" id="enclave-Fill-1" fill="#D5E0F0"></path>
                    <path d="M3.19930607,27.1926981 C3.19649735,28.1540554 2.46389952,70.0128337 2.46389952,70.0128337 C1.09891604,69.263044 0.418942723,68.2749026 0.422090748,67.2867611 L0.437830871,21.8052311 C0.435248558,22.4802958 1.25086356,22.7001631 1.8878341,23.2996378 C2.18267867,23.5771261 2.04832976,24.2940555 2.47963964,24.5313037 C2.47963964,24.5313037 3.20174406,26.3582332 3.19930607,27.1926981 Z" id="enclave-Fill-4" fill="#D5E0F0"></path>
                    <path d="M46.3131022,45.1330836 C46.3104405,45.9464137 44.8772982,87.9082547 44.8772982,87.9082547 C42.1844779,89.3982522 37.7627625,89.3982522 35.0523133,87.9082547 C35.0523133,87.9082547 34.0032292,45.8660398 34.0053709,45.1330836 C34.0084759,44.0704172 35.0680535,42.4273235 35.0680535,42.4273235 C36.3809306,43.1485853 38.4346636,42.4046236 40.1592379,42.4273235 C41.9958932,42.4514988 43.5048432,43.1954604 44.8949271,42.4273235 C44.8949271,42.4273235 46.3163168,44.1507911 46.3131022,45.1330836 Z" id="enclave-Fill-14" fill="#D5E0F0"></path>
                    <path d="M61.070233,30.8854958 C65.9909546,28.1653026 77.2630422,23.732297 77.2630422,23.732297 L77.247302,70.0151095 L44.8774241,87.9082547 L44.895053,41.6254423 C44.895053,41.6254423 55.2016249,34.1296843 61.070233,30.8854958 Z" id="enclave-Fill-7" fill="#D5E0F0"></path>
                    <path d="M21.6466074,33.2708247 C26.3751296,35.8675285 35.0678016,42.4273235 35.0678016,42.4273235 L35.0526911,87.9082547 L2.46371063,70.012714 L2.47945076,24.5311839 C2.47945076,24.5311839 15.512346,29.9021486 21.6466074,33.2708247 Z" id="enclave-Fill-9" fill="#D5E0F0"></path>
                    <path d="M77.2316878,19.1191633 C79.942137,20.6091608 79.9572476,23.0459774 77.2631681,24.5341783 L44.895179,42.4273235 C42.1992107,43.9167222 37.7793841,43.9167222 35.0676757,42.4273235 L2.47932484,24.5311839 C-0.231753965,23.042983 -0.244975669,20.6061664 2.4484742,19.1167678 L34.8177225,1.22482026 C37.5111724,-0.265177241 41.9335174,-0.265177241 44.6445962,1.22482026 L77.2316878,19.1191633 Z" id="enclave-Fill-11" fill="#E9F1FD"></path>
                </g>
                <g id="enclave-App" transform="translate(149.172840, 81.422178)">
                    <path d="M79.2571898,67.3284428 C79.2546714,68.3028101 78.5847718,69.2759797 77.2468613,70.0149897 C77.2468613,70.0149897 76.4194786,27.4409687 76.4225432,26.4324981 C76.4249352,25.6453461 77.2632311,23.7321773 77.2632311,23.7321773 C77.7612341,23.4567471 77.8611761,22.7731439 78.1742468,22.4448288 C78.7018607,21.8915237 79.2724479,21.6559458 79.2748188,21.0444326 L79.2571898,67.3284428 Z" id="enclave-Fill-1" fill="#D5E0F0"></path>
                    <path d="M3.19930607,27.1926981 C3.19649735,28.1540554 2.46389952,70.0128337 2.46389952,70.0128337 C1.09891604,69.263044 0.418942723,68.2749026 0.422090748,67.2867611 L0.437830871,21.8052311 C0.435248558,22.4802958 1.25086356,22.7001631 1.8878341,23.2996378 C2.18267867,23.5771261 2.04832976,24.2940555 2.47963964,24.5313037 C2.47963964,24.5313037 3.20174406,26.3582332 3.19930607,27.1926981 Z" id="enclave-Fill-4" fill="#D5E0F0"></path>
                    <path d="M46.3131022,45.1330836 C46.3104405,45.9464137 44.8772982,87.9082547 44.8772982,87.9082547 C42.1844779,89.3982522 37.7627625,89.3982522 35.0523133,87.9082547 C35.0523133,87.9082547 34.0032292,45.8660398 34.0053709,45.1330836 C34.0084759,44.0704172 35.0680535,42.4273235 35.0680535,42.4273235 C36.3809306,43.1485853 38.4346636,42.4046236 40.1592379,42.4273235 C41.9958932,42.4514988 43.5048432,43.1954604 44.8949271,42.4273235 C44.8949271,42.4273235 46.3163168,44.1507911 46.3131022,45.1330836 Z" id="enclave-Fill-14" fill="#D5E0F0"></path>
                    <path d="M61.070233,30.8854958 C65.9909546,28.1653026 77.2630422,23.732297 77.2630422,23.732297 L77.247302,70.0151095 L44.8774241,87.9082547 L44.895053,41.6254423 C44.895053,41.6254423 55.2016249,34.1296843 61.070233,30.8854958 Z" id="enclave-Fill-7" fill="#D5E0F0"></path>
                    <path d="M21.6466074,33.2708247 C26.3751296,35.8675285 35.0678016,42.4273235 35.0678016,42.4273235 L35.0526911,87.9082547 L2.46371063,70.012714 L2.47945076,24.5311839 C2.47945076,24.5311839 15.512346,29.9021486 21.6466074,33.2708247 Z" id="enclave-Fill-9" fill="#D5E0F0"></path>
                    <path d="M77.2316878,19.1191633 C79.942137,20.6091608 79.9572476,23.0459774 77.2631681,24.5341783 L44.895179,42.4273235 C42.1992107,43.9167222 37.7793841,43.9167222 35.0676757,42.4273235 L2.47932484,24.5311839 C-0.231753965,23.042983 -0.244975669,20.6061664 2.4484742,19.1167678 L34.8177225,1.22482026 C37.5111724,-0.265177241 41.9335174,-0.265177241 44.6445962,1.22482026 L77.2316878,19.1191633 Z" id="enclave-Fill-11" fill="#E9F1FD"></path>
                </g>
                <g id="enclave-App" transform="translate(100.604938, 109.140366)">
                    <path d="M79.2571898,67.3284428 C79.2546714,68.3028101 78.5847718,69.2759797 77.2468613,70.0149897 C77.2468613,70.0149897 76.4194786,27.4409687 76.4225432,26.4324981 C76.4249352,25.6453461 77.2632311,23.7321773 77.2632311,23.7321773 C77.7612341,23.4567471 77.8611761,22.7731439 78.1742468,22.4448288 C78.7018607,21.8915237 79.2724479,21.6559458 79.2748188,21.0444326 L79.2571898,67.3284428 Z" id="enclave-Fill-1" fill="#D5E0F0"></path>
                    <path d="M3.19930607,27.1926981 C3.19649735,28.1540554 2.46389952,70.0128337 2.46389952,70.0128337 C1.09891604,69.263044 0.418942723,68.2749026 0.422090748,67.2867611 L0.437830871,21.8052311 C0.435248558,22.4802958 1.25086356,22.7001631 1.8878341,23.2996378 C2.18267867,23.5771261 2.04832976,24.2940555 2.47963964,24.5313037 C2.47963964,24.5313037 3.20174406,26.3582332 3.19930607,27.1926981 Z" id="enclave-Fill-4" fill="#D5E0F0"></path>
                    <path d="M46.3131022,45.1330836 C46.3104405,45.9464137 44.8772982,87.9082547 44.8772982,87.9082547 C42.1844779,89.3982522 37.7627625,89.3982522 35.0523133,87.9082547 C35.0523133,87.9082547 34.0032292,45.8660398 34.0053709,45.1330836 C34.0084759,44.0704172 35.0680535,42.4273235 35.0680535,42.4273235 C36.3809306,43.1485853 38.4346636,42.4046236 40.1592379,42.4273235 C41.9958932,42.4514988 43.5048432,43.1954604 44.8949271,42.4273235 C44.8949271,42.4273235 46.3163168,44.1507911 46.3131022,45.1330836 Z" id="enclave-Fill-14" fill="#D5E0F0"></path>
                    <path d="M61.070233,30.8854958 C65.9909546,28.1653026 77.2630422,23.732297 77.2630422,23.732297 L77.247302,70.0151095 L44.8774241,87.9082547 L44.895053,41.6254423 C44.895053,41.6254423 55.2016249,34.1296843 61.070233,30.8854958 Z" id="enclave-Fill-7" fill="#D5E0F0"></path>
                    <path d="M21.6466074,33.2708247 C26.3751296,35.8675285 35.0678016,42.4273235 35.0678016,42.4273235 L35.0526911,87.9082547 L2.46371063,70.012714 L2.47945076,24.5311839 C2.47945076,24.5311839 15.512346,29.9021486 21.6466074,33.2708247 Z" id="enclave-Fill-9" fill="#D5E0F0"></path>
                    <path d="M77.2316878,19.1191633 C79.942137,20.6091608 79.9572476,23.0459774 77.2631681,24.5341783 L44.895179,42.4273235 C42.1992107,43.9167222 37.7793841,43.9167222 35.0676757,42.4273235 L2.47932484,24.5311839 C-0.231753965,23.042983 -0.244975669,20.6061664 2.4484742,19.1167678 L34.8177225,1.22482026 C37.5111724,-0.265177241 41.9335174,-0.265177241 44.6445962,1.22482026 L77.2316878,19.1191633 Z" id="enclave-Fill-11" fill="#E9F1FD"></path>
                </g>
            </g>
            <g id="enclave-cleared-traffic" transform="translate(168.000000, 154.000000)">
                <g id="enclave-right-lane">
                    <use fill="black" fill-opacity="1" filter="url(#enclave-filter-6)" xlink:href="#enclave-path-5"></use>
                    <use stroke-opacity="0.611837636" stroke="#40BFFF" stroke-width="1" stroke-linecap="round" xlink:href="#enclave-path-5"></use>
                </g>
                <g id="enclave-center-lane">
                    <use fill="black" fill-opacity="1" filter="url(#enclave-filter-8)" xlink:href="#enclave-path-7"></use>
                    <use stroke-opacity="0.611837636" stroke="#40BFFF" stroke-width="1" stroke-linecap="round" xlink:href="#enclave-path-7"></use>
                </g>
                <g id="enclave-left-lane">
                    <use fill="black" fill-opacity="1" filter="url(#enclave-filter-10)" xlink:href="#enclave-path-9"></use>
                    <use stroke-opacity="0.611837636" stroke="#40BFFF" stroke-width="1" stroke-linecap="round" xlink:href="#enclave-path-9"></use>
                </g>
            </g>
            <g id="enclave-ssh-bastion" filter="url(#enclave-filter-11)" transform="translate(126.243497, 0.000000)">
                <path d="M23.4948752,1.13141807 C19.375806,0.0790047006 18.8775185,0.160871008 15.7756239,1.1314181 L4.38694484,7.64992604 C6.7174211,6.29217817 9.94322158,6.48331744 13.501477,8.54300777 L41.7436894,28.4643327 L82.920408,46.7643461 C86.7124065,48.9556972 88.6931524,53.707268 91.033579,58.0784134 C93.0610933,61.8651417 95.3247478,64.2087109 95.3125245,67.9932132 C95.3125245,67.9932132 91.0565359,85.9673773 91.033579,94.0572137 C91.0038697,104.52656 96.5362147,123.602253 96.5362147,123.602253 C96.5173981,130.333038 92.8256915,135.975498 91.033579,140.99246 C88.4366959,148.262353 74.0157824,162.265015 76.782384,161.668701 C79.5489855,161.072388 93.9621868,150.696856 93.9621868,150.696856 C103.34005,145.242796 109.228752,132.674777 109.274835,116.190663 L109.432833,60.5131143 C109.455875,52.360036 103.725141,42.4372719 96.6514218,38.3475508 L23.4948752,1.13141807 Z" id="enclave-shield-extrude" fill="#307AD1"></path>
                <path d="M13.4991729,8.53971226 C6.42545324,4.45328664 0.668386876,7.73560916 0.645345444,15.8886874 L0.487347053,71.5662365 C0.395181325,104.672875 12.6137235,142.241627 41.3727223,158.992676 C70.339094,175.60861 96.4450364,156.708892 96.5372021,123.602253 L96.6952005,67.924704 C96.718242,59.7716257 90.9908003,49.8488616 83.913789,45.7591405 L13.4991729,8.53971226 Z" id="enclave-shield-face" fill="#145DB3"></path>
                <path d="M14.9214875,41.8113117 L14.809572,80.9124729 C14.747031,104.158962 23.325027,130.542771 43.5224879,142.307722 L43.6673198,142.393406 C63.8647807,153.977104 82.1958857,140.702812 82.2617184,117.456323 L82.3736339,78.3551614 L14.9214875,41.8113117 Z" id="enclave-shield-face-cap" fill="#307AD1"></path>
                <polygon id="enclave-shield-cap" fill="#307AD1" points="76.5270351 66.9966899 76.9187395 53.613646 23.18612 25.4337867 23.1499121 38.7575115"></polygon>
                <polygon id="enclave-shield-cover" fill="#145DB3" points="48.5929196 171.059166 73.5336239 163.192797 75.623811 152.627409 27.2038875 147.839041"></polygon>
            </g>
        </g>
    </g>
</svg>
