<svg xmlns="http://www.w3.org/2000/svg" width="370" height="352" viewBox="0 0 370 352" xmlns:xlink="http://www.w3.org/1999/xlink">
  <defs>
    <path id="enclave-b" d="M101.741862,25.1868026 C105.312497,27.1496643 105.332403,98.8250877 101.783333,100.785583 L59.1430699,124.357279 C55.5915117,126.319352 49.7690132,126.319352 46.1967196,124.357279 L3.26616099,100.781638 C-0.305303182,98.8211431 -0.322720912,27.1457196 3.22551962,25.1836468 L45.8674416,1.61352805 C49.4156821,-0.349333636 55.2414983,-0.349333636 58.8129625,1.61352805 L101.741862,25.1868026 Z"/>
    <filter id="enclave-a" width="200%" height="200%" x="-50%" y="-50%" filterUnits="objectBoundingBox">
      <feOffset in="SourceAlpha" result="shadowOffsetOuter1"/>
      <feGaussianBlur stdDeviation="4" in="shadowOffsetOuter1" result="shadowBlurOuter1"/>
      <feColorMatrix values="0 0 0 0 0.339824021 0 0 0 0 0.643258943 0 0 0 0 1 0 0 0 0.713032156 0" in="shadowBlurOuter1"/>
    </filter>
    <path id="enclave-d" d="M77.2316878,19.1191633 C79.942137,20.6091608 79.9572476,75.0175803 77.2631681,76.5057812 L44.895179,94.3989265 C42.1992107,95.8883251 37.7793841,95.8883251 35.0676757,94.3989265 L2.47932484,76.5027869 C-0.231753965,75.014586 -0.244975669,20.6061664 2.4484742,19.1167678 L34.8177225,1.22482026 C37.5111724,-0.265177241 41.9335174,-0.265177241 44.6445962,1.22482026 L77.2316878,19.1191633 Z"/>
    <filter id="enclave-c" width="200%" height="200%" x="-50%" y="-50%" filterUnits="objectBoundingBox">
      <feOffset in="SourceAlpha" result="shadowOffsetOuter1"/>
      <feGaussianBlur stdDeviation="4" in="shadowOffsetOuter1" result="shadowBlurOuter1"/>
      <feColorMatrix values="0 0 0 0 0.339824021 0 0 0 0 0.643258943 0 0 0 0 1 0 0 0 0.713032156 0" in="shadowBlurOuter1"/>
    </filter>
    <path id="enclave-f" d="M17.1018519,8.72744634 L17.1018519,31.2484743"/>
    <filter id="enclave-e" width="200%" height="200%" x="-50%" y="-50%" filterUnits="objectBoundingBox">
      <feMorphology radius=".5" operator="dilate" in="SourceAlpha" result="shadowSpreadOuter1"/>
      <feOffset in="shadowSpreadOuter1" result="shadowOffsetOuter1"/>
      <feMorphology radius="1" in="SourceAlpha" result="shadowInner"/>
      <feOffset in="shadowInner" result="shadowInner"/>
      <feComposite in="shadowOffsetOuter1" in2="shadowInner" operator="out" result="shadowOffsetOuter1"/>
      <feGaussianBlur stdDeviation="1.5" in="shadowOffsetOuter1" result="shadowBlurOuter1"/>
      <feColorMatrix values="0 0 0 0 0 0 0 0 0 0.459627329 0 0 0 0 1 0 0 0 0.282014266 0" in="shadowBlurOuter1"/>
    </filter>
    <path id="enclave-h" d="M10.1635802,5.26267281 L10.1635802,27.7837008"/>
    <filter id="enclave-g" width="200%" height="200%" x="-50%" y="-50%" filterUnits="objectBoundingBox">
      <feMorphology radius=".5" operator="dilate" in="SourceAlpha" result="shadowSpreadOuter1"/>
      <feOffset in="shadowSpreadOuter1" result="shadowOffsetOuter1"/>
      <feMorphology radius="1" in="SourceAlpha" result="shadowInner"/>
      <feOffset in="shadowInner" result="shadowInner"/>
      <feComposite in="shadowOffsetOuter1" in2="shadowInner" operator="out" result="shadowOffsetOuter1"/>
      <feGaussianBlur stdDeviation="1.5" in="shadowOffsetOuter1" result="shadowBlurOuter1"/>
      <feColorMatrix values="0 0 0 0 0 0 0 0 0 0.459627329 0 0 0 0 1 0 0 0 0.282014266 0" in="shadowBlurOuter1"/>
    </filter>
    <path id="enclave-j" d="M3.22530864,1.79789928 L3.22530864,24.3189272"/>
    <filter id="enclave-i" width="200%" height="200%" x="-50%" y="-50%" filterUnits="objectBoundingBox">
      <feMorphology radius=".5" operator="dilate" in="SourceAlpha" result="shadowSpreadOuter1"/>
      <feOffset in="shadowSpreadOuter1" result="shadowOffsetOuter1"/>
      <feMorphology radius="1" in="SourceAlpha" result="shadowInner"/>
      <feOffset in="shadowInner" result="shadowInner"/>
      <feComposite in="shadowOffsetOuter1" in2="shadowInner" operator="out" result="shadowOffsetOuter1"/>
      <feGaussianBlur stdDeviation="1.5" in="shadowOffsetOuter1" result="shadowBlurOuter1"/>
      <feColorMatrix values="0 0 0 0 0 0 0 0 0 0.459627329 0 0 0 0 1 0 0 0 0.282014266 0" in="shadowBlurOuter1"/>
    </filter>
    <filter id="enclave-k" width="200%" height="200%" x="-50%" y="-50%" filterUnits="objectBoundingBox">
      <feOffset dy="4" in="SourceAlpha" result="shadowOffsetOuter1"/>
      <feGaussianBlur stdDeviation="4" in="shadowOffsetOuter1" result="shadowBlurOuter1"/>
      <feColorMatrix values="0 0 0 0 0 0 0 0 0 0 0 0 0 0 0 0 0 0 0.12 0" in="shadowBlurOuter1" result="shadowMatrixOuter1"/>
      <feMerge>
        <feMergeNode in="shadowMatrixOuter1"/>
        <feMergeNode in="SourceGraphic"/>
      </feMerge>
    </filter>
  </defs>
  <g fill="none" fill-rule="evenodd">
    <g id="app-grid-shadow" opacity=".063" transform="translate(0 90.776)">
      <g transform="translate(132.533)">
        <path fill="#D5E0F0" d="M104.410176 88.6957328C104.406858 89.9793244 103.52436 91.2613382 101.761851 92.2348797 101.761851 92.2348797 100.671891 36.1496083 100.675928 34.8210904 100.679079 33.7841285 101.783416 31.2637983 101.783416 31.2637983 102.439465 30.9009579 102.571124 30.0004071 102.983551 29.5678981 103.678608 28.8389967 104.430276 28.5286559 104.433399 27.7230735L104.410176 88.6957328zM4.21463478 35.8225467C4.21093469 37.0889995 3.2458403 92.2320396 3.2458403 92.2320396 1.44766698 91.2442973.551897984 89.9425602.556045063 88.6408232L.576780457 28.7253183C.573378623 29.614621 1.64783642 29.9042651 2.48695532 30.6939885 2.87537148 31.0595403 2.69838573 32.0039937 3.2665757 32.3165347 3.2665757 32.3165347 4.21784649 34.7232568 4.21463478 35.8225467zM61.0109839 59.4564758C61.0074775 60.5279236 59.1195145 115.806734 59.1195145 115.806734 55.5721034 117.769596 49.7471167 117.769596 46.1764819 115.806734 46.1764819 115.806734 44.7944614 60.4220423 44.7972828 59.4564758 44.8013732 58.0565625 46.1972173 55.8920183 46.1972173 55.8920183 47.9267478 56.8421789 50.6322515 55.8621143 52.9041351 55.8920183 55.3236696 55.9238657 57.3114985 56.9039304 59.1427381 55.8920183 59.1427381 55.8920183 61.0152187 58.1624438 61.0109839 59.4564758z"/>
        <path fill="#D5E0F0" d="M80.4514237 40.6872872C86.9337807 37.103816 101.783167 31.2639561 101.783167 31.2639561L101.762432 92.2350375 59.1196804 115.806734 59.142904 54.8356527C59.142904 54.8356527 72.7203596 44.9610482 80.4514237 40.6872872zM28.516354 43.8296217C34.7455155 47.2504129 46.1968855 55.8920183 46.1968855 55.8920183L46.1769795 115.806734 3.24559148 92.2318818 3.26632687 32.3163769C3.26632687 32.3163769 20.4353293 39.3918658 28.516354 43.8296217z"/>
        <path fill="#E9F1FD" d="M101.741862,25.1868026 C105.312497,27.1496643 105.332403,30.3598267 101.783333,32.3203216 L59.1430699,55.8920183 C55.5915117,57.854091 49.7690132,57.854091 46.1967196,55.8920183 L3.26616099,32.3163769 C-0.305303182,30.3558821 -0.322720912,27.1457196 3.22551962,25.1836468 L45.8674416,1.61352805 C49.4156821,-0.349333636 55.2414983,-0.349333636 58.8129625,1.61352805 L101.741862,25.1868026 Z"/>
      </g>
      <g transform="translate(63.981 36.515)">
        <path fill="#D5E0F0" d="M104.410176 88.6957328C104.406858 89.9793244 103.52436 91.2613382 101.761851 92.2348797 101.761851 92.2348797 100.671891 36.1496083 100.675928 34.8210904 100.679079 33.7841285 101.783416 31.2637983 101.783416 31.2637983 102.439465 30.9009579 102.571124 30.0004071 102.983551 29.5678981 103.678608 28.8389967 104.430276 28.5286559 104.433399 27.7230735L104.410176 88.6957328zM4.21463478 35.8225467C4.21093469 37.0889995 3.2458403 92.2320396 3.2458403 92.2320396 1.44766698 91.2442973.551897984 89.9425602.556045063 88.6408232L.576780457 28.7253183C.573378623 29.614621 1.64783642 29.9042651 2.48695532 30.6939885 2.87537148 31.0595403 2.69838573 32.0039937 3.2665757 32.3165347 3.2665757 32.3165347 4.21784649 34.7232568 4.21463478 35.8225467zM61.0109839 59.4564758C61.0074775 60.5279236 59.1195145 115.806734 59.1195145 115.806734 55.5721034 117.769596 49.7471167 117.769596 46.1764819 115.806734 46.1764819 115.806734 44.7944614 60.4220423 44.7972828 59.4564758 44.8013732 58.0565625 46.1972173 55.8920183 46.1972173 55.8920183 47.9267478 56.8421789 50.6322515 55.8621143 52.9041351 55.8920183 55.3236696 55.9238657 57.3114985 56.9039304 59.1427381 55.8920183 59.1427381 55.8920183 61.0152187 58.1624438 61.0109839 59.4564758z"/>
        <path fill="#D5E0F0" d="M80.4514237 40.6872872C86.9337807 37.103816 101.783167 31.2639561 101.783167 31.2639561L101.762432 92.2350375 59.1196804 115.806734 59.142904 54.8356527C59.142904 54.8356527 72.7203596 44.9610482 80.4514237 40.6872872zM28.516354 43.8296217C34.7455155 47.2504129 46.1968855 55.8920183 46.1968855 55.8920183L46.1769795 115.806734 3.24559148 92.2318818 3.26632687 32.3163769C3.26632687 32.3163769 20.4353293 39.3918658 28.516354 43.8296217z"/>
        <path fill="#E9F1FD" d="M101.741862,25.1868026 C105.312497,27.1496643 105.332403,30.3598267 101.783333,32.3203216 L59.1430699,55.8920183 C55.5915117,57.854091 49.7690132,57.854091 46.1967196,55.8920183 L3.26616099,32.3163769 C-0.305303182,30.3558821 -0.322720912,27.1457196 3.22551962,25.1836468 L45.8674416,1.61352805 C49.4156821,-0.349333636 55.2414983,-0.349333636 58.8129625,1.61352805 L101.741862,25.1868026 Z"/>
      </g>
      <g transform="translate(0 73.03)">
        <path fill="#D5E0F0" d="M104.410176 88.6957328C104.406858 89.9793244 103.52436 91.2613382 101.761851 92.2348797 101.761851 92.2348797 100.671891 36.1496083 100.675928 34.8210904 100.679079 33.7841285 101.783416 31.2637983 101.783416 31.2637983 102.439465 30.9009579 102.571124 30.0004071 102.983551 29.5678981 103.678608 28.8389967 104.430276 28.5286559 104.433399 27.7230735L104.410176 88.6957328zM4.21463478 35.8225467C4.21093469 37.0889995 3.2458403 92.2320396 3.2458403 92.2320396 1.44766698 91.2442973.551897984 89.9425602.556045063 88.6408232L.576780457 28.7253183C.573378623 29.614621 1.64783642 29.9042651 2.48695532 30.6939885 2.87537148 31.0595403 2.69838573 32.0039937 3.2665757 32.3165347 3.2665757 32.3165347 4.21784649 34.7232568 4.21463478 35.8225467zM61.0109839 59.4564758C61.0074775 60.5279236 59.1195145 115.806734 59.1195145 115.806734 55.5721034 117.769596 49.7471167 117.769596 46.1764819 115.806734 46.1764819 115.806734 44.7944614 60.4220423 44.7972828 59.4564758 44.8013732 58.0565625 46.1972173 55.8920183 46.1972173 55.8920183 47.9267478 56.8421789 50.6322515 55.8621143 52.9041351 55.8920183 55.3236696 55.9238657 57.3114985 56.9039304 59.1427381 55.8920183 59.1427381 55.8920183 61.0152187 58.1624438 61.0109839 59.4564758z"/>
        <path fill="#D5E0F0" d="M80.4514237 40.6872872C86.9337807 37.103816 101.783167 31.2639561 101.783167 31.2639561L101.762432 92.2350375 59.1196804 115.806734 59.142904 54.8356527C59.142904 54.8356527 72.7203596 44.9610482 80.4514237 40.6872872zM28.516354 43.8296217C34.7455155 47.2504129 46.1968855 55.8920183 46.1968855 55.8920183L46.1769795 115.806734 3.24559148 92.2318818 3.26632687 32.3163769C3.26632687 32.3163769 20.4353293 39.3918658 28.516354 43.8296217z"/>
        <path fill="#E9F1FD" d="M101.741862,25.1868026 C105.312497,27.1496643 105.332403,30.3598267 101.783333,32.3203216 L59.1430699,55.8920183 C55.5915117,57.854091 49.7690132,57.854091 46.1967196,55.8920183 L3.26616099,32.3163769 C-0.305303182,30.3558821 -0.322720912,27.1457196 3.22551962,25.1836468 L45.8674416,1.61352805 C49.4156821,-0.349333636 55.2414983,-0.349333636 58.8129625,1.61352805 L101.741862,25.1868026 Z"/>
      </g>
      <g transform="translate(196.514 36.515)">
        <path fill="#D5E0F0" d="M104.410176 88.6957328C104.406858 89.9793244 103.52436 91.2613382 101.761851 92.2348797 101.761851 92.2348797 100.671891 36.1496083 100.675928 34.8210904 100.679079 33.7841285 101.783416 31.2637983 101.783416 31.2637983 102.439465 30.9009579 102.571124 30.0004071 102.983551 29.5678981 103.678608 28.8389967 104.430276 28.5286559 104.433399 27.7230735L104.410176 88.6957328zM4.21463478 35.8225467C4.21093469 37.0889995 3.2458403 92.2320396 3.2458403 92.2320396 1.44766698 91.2442973.551897984 89.9425602.556045063 88.6408232L.576780457 28.7253183C.573378623 29.614621 1.64783642 29.9042651 2.48695532 30.6939885 2.87537148 31.0595403 2.69838573 32.0039937 3.2665757 32.3165347 3.2665757 32.3165347 4.21784649 34.7232568 4.21463478 35.8225467zM61.0109839 59.4564758C61.0074775 60.5279236 59.1195145 115.806734 59.1195145 115.806734 55.5721034 117.769596 49.7471167 117.769596 46.1764819 115.806734 46.1764819 115.806734 44.7944614 60.4220423 44.7972828 59.4564758 44.8013732 58.0565625 46.1972173 55.8920183 46.1972173 55.8920183 47.9267478 56.8421789 50.6322515 55.8621143 52.9041351 55.8920183 55.3236696 55.9238657 57.3114985 56.9039304 59.1427381 55.8920183 59.1427381 55.8920183 61.0152187 58.1624438 61.0109839 59.4564758z"/>
        <path fill="#D5E0F0" d="M80.4514237 40.6872872C86.9337807 37.103816 101.783167 31.2639561 101.783167 31.2639561L101.762432 92.2350375 59.1196804 115.806734 59.142904 54.8356527C59.142904 54.8356527 72.7203596 44.9610482 80.4514237 40.6872872zM28.516354 43.8296217C34.7455155 47.2504129 46.1968855 55.8920183 46.1968855 55.8920183L46.1769795 115.806734 3.24559148 92.2318818 3.26632687 32.3163769C3.26632687 32.3163769 20.4353293 39.3918658 28.516354 43.8296217z"/>
        <path fill="#E9F1FD" d="M101.741862,25.1868026 C105.312497,27.1496643 105.332403,30.3598267 101.783333,32.3203216 L59.1430699,55.8920183 C55.5915117,57.854091 49.7690132,57.854091 46.1967196,55.8920183 L3.26616099,32.3163769 C-0.305303182,30.3558821 -0.322720912,27.1457196 3.22551962,25.1836468 L45.8674416,1.61352805 C49.4156821,-0.349333636 55.2414983,-0.349333636 58.8129625,1.61352805 L101.741862,25.1868026 Z"/>
      </g>
      <g transform="translate(127.963 50.208)">
        <use fill="black" filter="url(#enclave-a)" xlink:href="#enclave-b"/>
        <use fill="#E9F1FD" xlink:href="#enclave-b"/>
        <path fill="#ACD6FF" d="M104.410176 88.6957328C104.406858 89.9793244 103.52436 91.2613382 101.761851 92.2348797 101.761851 92.2348797 100.671891 36.1496083 100.675928 34.8210904 100.679079 33.7841285 101.783416 31.2637983 101.783416 31.2637983 102.439465 30.9009579 102.571124 30.0004071 102.983551 29.5678981 103.678608 28.8389967 104.430276 28.5286559 104.433399 27.7230735L104.410176 88.6957328zM4.21463478 35.8225467C4.21093469 37.0889995 3.2458403 92.2320396 3.2458403 92.2320396 1.44766698 91.2442973.551897984 89.9425602.556045063 88.6408232L.576780457 28.7253183C.573378623 29.614621 1.64783642 29.9042651 2.48695532 30.6939885 2.87537148 31.0595403 2.69838573 32.0039937 3.2665757 32.3165347 3.2665757 32.3165347 4.21784649 34.7232568 4.21463478 35.8225467zM61.0109839 59.4564758C61.0074775 60.5279236 59.1195145 115.806734 59.1195145 115.806734 55.5721034 117.769596 49.7471167 117.769596 46.1764819 115.806734 46.1764819 115.806734 44.7944614 60.4220423 44.7972828 59.4564758 44.8013732 58.0565625 46.1972173 55.8920183 46.1972173 55.8920183 47.9267478 56.8421789 50.6322515 55.8621143 52.9041351 55.8920183 55.3236696 55.9238657 57.3114985 56.9039304 59.1427381 55.8920183 59.1427381 55.8920183 61.0152187 58.1624438 61.0109839 59.4564758z"/>
        <path fill="#ACD6FF" d="M80.4514237 40.6872872C86.9337807 37.103816 101.783167 31.2639561 101.783167 31.2639561L101.762432 92.2350375 59.1196804 115.806734 59.142904 54.8356527C59.142904 54.8356527 72.7203596 44.9610482 80.4514237 40.6872872zM28.516354 43.8296217C34.7455155 47.2504129 46.1968855 55.8920183 46.1968855 55.8920183L46.1769795 115.806734 3.24559148 92.2318818 3.26632687 32.3163769C3.26632687 32.3163769 20.4353293 39.3918658 28.516354 43.8296217z"/>
        <path fill="#BBDEFF" d="M101.741862,25.1868026 C105.312497,27.1496643 105.332403,30.3598267 101.783333,32.3203216 L59.1430699,55.8920183 C55.5915117,57.854091 49.7690132,57.854091 46.1967196,55.8920183 L3.26616099,32.3163769 C-0.305303182,30.3558821 -0.322720912,27.1457196 3.22551962,25.1836468 L45.8674416,1.61352805 C49.4156821,-0.349333636 55.2414983,-0.349333636 58.8129625,1.61352805 L101.741862,25.1868026 Z"/>
      </g>
      <g transform="translate(63.981 109.544)">
        <path fill="#D5E0F0" d="M104.410176 88.6957328C104.406858 89.9793244 103.52436 91.2613382 101.761851 92.2348797 101.761851 92.2348797 100.671891 36.1496083 100.675928 34.8210904 100.679079 33.7841285 101.783416 31.2637983 101.783416 31.2637983 102.439465 30.9009579 102.571124 30.0004071 102.983551 29.5678981 103.678608 28.8389967 104.430276 28.5286559 104.433399 27.7230735L104.410176 88.6957328zM4.21463478 35.8225467C4.21093469 37.0889995 3.2458403 92.2320396 3.2458403 92.2320396 1.44766698 91.2442973.551897984 89.9425602.556045063 88.6408232L.576780457 28.7253183C.573378623 29.614621 1.64783642 29.9042651 2.48695532 30.6939885 2.87537148 31.0595403 2.69838573 32.0039937 3.2665757 32.3165347 3.2665757 32.3165347 4.21784649 34.7232568 4.21463478 35.8225467zM61.0109839 59.4564758C61.0074775 60.5279236 59.1195145 115.806734 59.1195145 115.806734 55.5721034 117.769596 49.7471167 117.769596 46.1764819 115.806734 46.1764819 115.806734 44.7944614 60.4220423 44.7972828 59.4564758 44.8013732 58.0565625 46.1972173 55.8920183 46.1972173 55.8920183 47.9267478 56.8421789 50.6322515 55.8621143 52.9041351 55.8920183 55.3236696 55.9238657 57.3114985 56.9039304 59.1427381 55.8920183 59.1427381 55.8920183 61.0152187 58.1624438 61.0109839 59.4564758z"/>
        <path fill="#D5E0F0" d="M80.4514237 40.6872872C86.9337807 37.103816 101.783167 31.2639561 101.783167 31.2639561L101.762432 92.2350375 59.1196804 115.806734 59.142904 54.8356527C59.142904 54.8356527 72.7203596 44.9610482 80.4514237 40.6872872zM28.516354 43.8296217C34.7455155 47.2504129 46.1968855 55.8920183 46.1968855 55.8920183L46.1769795 115.806734 3.24559148 92.2318818 3.26632687 32.3163769C3.26632687 32.3163769 20.4353293 39.3918658 28.516354 43.8296217z"/>
        <path fill="#E9F1FD" d="M101.741862,25.1868026 C105.312497,27.1496643 105.332403,30.3598267 101.783333,32.3203216 L59.1430699,55.8920183 C55.5915117,57.854091 49.7690132,57.854091 46.1967196,55.8920183 L3.26616099,32.3163769 C-0.305303182,30.3558821 -0.322720912,27.1457196 3.22551962,25.1836468 L45.8674416,1.61352805 C49.4156821,-0.349333636 55.2414983,-0.349333636 58.8129625,1.61352805 L101.741862,25.1868026 Z"/>
      </g>
      <g transform="translate(265.066 70.747)">
        <path fill="#D5E0F0" d="M104.410176 88.6957328C104.406858 89.9793244 103.52436 91.2613382 101.761851 92.2348797 101.761851 92.2348797 100.671891 36.1496083 100.675928 34.8210904 100.679079 33.7841285 101.783416 31.2637983 101.783416 31.2637983 102.439465 30.9009579 102.571124 30.0004071 102.983551 29.5678981 103.678608 28.8389967 104.430276 28.5286559 104.433399 27.7230735L104.410176 88.6957328zM4.21463478 35.8225467C4.21093469 37.0889995 3.2458403 92.2320396 3.2458403 92.2320396 1.44766698 91.2442973.551897984 89.9425602.556045063 88.6408232L.576780457 28.7253183C.573378623 29.614621 1.64783642 29.9042651 2.48695532 30.6939885 2.87537148 31.0595403 2.69838573 32.0039937 3.2665757 32.3165347 3.2665757 32.3165347 4.21784649 34.7232568 4.21463478 35.8225467zM61.0109839 59.4564758C61.0074775 60.5279236 59.1195145 115.806734 59.1195145 115.806734 55.5721034 117.769596 49.7471167 117.769596 46.1764819 115.806734 46.1764819 115.806734 44.7944614 60.4220423 44.7972828 59.4564758 44.8013732 58.0565625 46.1972173 55.8920183 46.1972173 55.8920183 47.9267478 56.8421789 50.6322515 55.8621143 52.9041351 55.8920183 55.3236696 55.9238657 57.3114985 56.9039304 59.1427381 55.8920183 59.1427381 55.8920183 61.0152187 58.1624438 61.0109839 59.4564758z"/>
        <path fill="#D5E0F0" d="M80.4514237 40.6872872C86.9337807 37.103816 101.783167 31.2639561 101.783167 31.2639561L101.762432 92.2350375 59.1196804 115.806734 59.142904 54.8356527C59.142904 54.8356527 72.7203596 44.9610482 80.4514237 40.6872872zM28.516354 43.8296217C34.7455155 47.2504129 46.1968855 55.8920183 46.1968855 55.8920183L46.1769795 115.806734 3.24559148 92.2318818 3.26632687 32.3163769C3.26632687 32.3163769 20.4353293 39.3918658 28.516354 43.8296217z"/>
        <path fill="#E9F1FD" d="M101.741862,25.1868026 C105.312497,27.1496643 105.332403,30.3598267 101.783333,32.3203216 L59.1430699,55.8920183 C55.5915117,57.854091 49.7690132,57.854091 46.1967196,55.8920183 L3.26616099,32.3163769 C-0.305303182,30.3558821 -0.322720912,27.1457196 3.22551962,25.1836468 L45.8674416,1.61352805 C49.4156821,-0.349333636 55.2414983,-0.349333636 58.8129625,1.61352805 L101.741862,25.1868026 Z"/>
      </g>
      <g transform="translate(196.514 107.262)">
        <path fill="#D5E0F0" d="M104.410176 88.6957328C104.406858 89.9793244 103.52436 91.2613382 101.761851 92.2348797 101.761851 92.2348797 100.671891 36.1496083 100.675928 34.8210904 100.679079 33.7841285 101.783416 31.2637983 101.783416 31.2637983 102.439465 30.9009579 102.571124 30.0004071 102.983551 29.5678981 103.678608 28.8389967 104.430276 28.5286559 104.433399 27.7230735L104.410176 88.6957328zM4.21463478 35.8225467C4.21093469 37.0889995 3.2458403 92.2320396 3.2458403 92.2320396 1.44766698 91.2442973.551897984 89.9425602.556045063 88.6408232L.576780457 28.7253183C.573378623 29.614621 1.64783642 29.9042651 2.48695532 30.6939885 2.87537148 31.0595403 2.69838573 32.0039937 3.2665757 32.3165347 3.2665757 32.3165347 4.21784649 34.7232568 4.21463478 35.8225467zM61.0109839 59.4564758C61.0074775 60.5279236 59.1195145 115.806734 59.1195145 115.806734 55.5721034 117.769596 49.7471167 117.769596 46.1764819 115.806734 46.1764819 115.806734 44.7944614 60.4220423 44.7972828 59.4564758 44.8013732 58.0565625 46.1972173 55.8920183 46.1972173 55.8920183 47.9267478 56.8421789 50.6322515 55.8621143 52.9041351 55.8920183 55.3236696 55.9238657 57.3114985 56.9039304 59.1427381 55.8920183 59.1427381 55.8920183 61.0152187 58.1624438 61.0109839 59.4564758z"/>
        <path fill="#D5E0F0" d="M80.4514237 40.6872872C86.9337807 37.103816 101.783167 31.2639561 101.783167 31.2639561L101.762432 92.2350375 59.1196804 115.806734 59.142904 54.8356527C59.142904 54.8356527 72.7203596 44.9610482 80.4514237 40.6872872zM28.516354 43.8296217C34.7455155 47.2504129 46.1968855 55.8920183 46.1968855 55.8920183L46.1769795 115.806734 3.24559148 92.2318818 3.26632687 32.3163769C3.26632687 32.3163769 20.4353293 39.3918658 28.516354 43.8296217z"/>
        <path fill="#E9F1FD" d="M101.741862,25.1868026 C105.312497,27.1496643 105.332403,30.3598267 101.783333,32.3203216 L59.1430699,55.8920183 C55.5915117,57.854091 49.7690132,57.854091 46.1967196,55.8920183 L3.26616099,32.3163769 C-0.305303182,30.3558821 -0.322720912,27.1457196 3.22551962,25.1836468 L45.8674416,1.61352805 C49.4156821,-0.349333636 55.2414983,-0.349333636 58.8129625,1.61352805 L101.741862,25.1868026 Z"/>
      </g>
      <g transform="translate(132.533 143.777)">
        <path fill="#D5E0F0" d="M104.410176 88.6957328C104.406858 89.9793244 103.52436 91.2613382 101.761851 92.2348797 101.761851 92.2348797 100.671891 36.1496083 100.675928 34.8210904 100.679079 33.7841285 101.783416 31.2637983 101.783416 31.2637983 102.439465 30.9009579 102.571124 30.0004071 102.983551 29.5678981 103.678608 28.8389967 104.430276 28.5286559 104.433399 27.7230735L104.410176 88.6957328zM4.21463478 35.8225467C4.21093469 37.0889995 3.2458403 92.2320396 3.2458403 92.2320396 1.44766698 91.2442973.551897984 89.9425602.556045063 88.6408232L.576780457 28.7253183C.573378623 29.614621 1.64783642 29.9042651 2.48695532 30.6939885 2.87537148 31.0595403 2.69838573 32.0039937 3.2665757 32.3165347 3.2665757 32.3165347 4.21784649 34.7232568 4.21463478 35.8225467zM61.0109839 59.4564758C61.0074775 60.5279236 59.1195145 115.806734 59.1195145 115.806734 55.5721034 117.769596 49.7471167 117.769596 46.1764819 115.806734 46.1764819 115.806734 44.7944614 60.4220423 44.7972828 59.4564758 44.8013732 58.0565625 46.1972173 55.8920183 46.1972173 55.8920183 47.9267478 56.8421789 50.6322515 55.8621143 52.9041351 55.8920183 55.3236696 55.9238657 57.3114985 56.9039304 59.1427381 55.8920183 59.1427381 55.8920183 61.0152187 58.1624438 61.0109839 59.4564758z"/>
        <path fill="#D5E0F0" d="M80.4514237 40.6872872C86.9337807 37.103816 101.783167 31.2639561 101.783167 31.2639561L101.762432 92.2350375 59.1196804 115.806734 59.142904 54.8356527C59.142904 54.8356527 72.7203596 44.9610482 80.4514237 40.6872872zM28.516354 43.8296217C34.7455155 47.2504129 46.1968855 55.8920183 46.1968855 55.8920183L46.1769795 115.806734 3.24559148 92.2318818 3.26632687 32.3163769C3.26632687 32.3163769 20.4353293 39.3918658 28.516354 43.8296217z"/>
        <path fill="#E9F1FD" d="M101.741862,25.1868026 C105.312497,27.1496643 105.332403,30.3598267 101.783333,32.3203216 L59.1430699,55.8920183 C55.5915117,57.854091 49.7690132,57.854091 46.1967196,55.8920183 L3.26616099,32.3163769 C-0.305303182,30.3558821 -0.322720912,27.1457196 3.22551962,25.1836468 L45.8674416,1.61352805 C49.4156821,-0.349333636 55.2414983,-0.349333636 58.8129625,1.61352805 L101.741862,25.1868026 Z"/>
      </g>
    </g>
    <g transform="translate(42 120.776)">
      <g transform="translate(100.605)">
        <path fill="#D5E0F0" d="M79.2571898 67.3284428C79.2546714 68.3028101 78.5847718 69.2759797 77.2468613 70.0149897 77.2468613 70.0149897 76.4194786 27.4409687 76.4225432 26.4324981 76.4249352 25.6453461 77.2632311 23.7321773 77.2632311 23.7321773 77.7612341 23.4567471 77.8611761 22.7731439 78.1742468 22.4448288 78.7018607 21.8915237 79.2724479 21.6559458 79.2748188 21.0444326L79.2571898 67.3284428zM3.19930607 27.1926981C3.19649735 28.1540554 2.46389952 70.0128337 2.46389952 70.0128337 1.09891604 69.263044.418942723 68.2749026.422090748 67.2867611L.437830871 21.8052311C.435248558 22.4802958 1.25086356 22.7001631 1.8878341 23.2996378 2.18267867 23.5771261 2.04832976 24.2940555 2.47963964 24.5313037 2.47963964 24.5313037 3.20174406 26.3582332 3.19930607 27.1926981zM46.3131022 45.1330836C46.3104405 45.9464137 44.8772982 87.9082547 44.8772982 87.9082547 42.1844779 89.3982522 37.7627625 89.3982522 35.0523133 87.9082547 35.0523133 87.9082547 34.0032292 45.8660398 34.0053709 45.1330836 34.0084759 44.0704172 35.0680535 42.4273235 35.0680535 42.4273235 36.3809306 43.1485853 38.4346636 42.4046236 40.1592379 42.4273235 41.9958932 42.4514988 43.5048432 43.1954604 44.8949271 42.4273235 44.8949271 42.4273235 46.3163168 44.1507911 46.3131022 45.1330836z"/>
        <path fill="#D5E0F0" d="M61.070233 30.8854958C65.9909546 28.1653026 77.2630422 23.732297 77.2630422 23.732297L77.247302 70.0151095 44.8774241 87.9082547 44.895053 41.6254423C44.895053 41.6254423 55.2016249 34.1296843 61.070233 30.8854958zM21.6466074 33.2708247C26.3751296 35.8675285 35.0678016 42.4273235 35.0678016 42.4273235L35.0526911 87.9082547 2.46371063 70.012714 2.47945076 24.5311839C2.47945076 24.5311839 15.512346 29.9021486 21.6466074 33.2708247z"/>
        <path fill="#E9F1FD" d="M77.2316878,19.1191633 C79.942137,20.6091608 79.9572476,23.0459774 77.2631681,24.5341783 L44.895179,42.4273235 C42.1992107,43.9167222 37.7793841,43.9167222 35.0676757,42.4273235 L2.47932484,24.5311839 C-0.231753965,23.042983 -0.244975669,20.6061664 2.4484742,19.1167678 L34.8177225,1.22482026 C37.5111724,-0.265177241 41.9335174,-0.265177241 44.6445962,1.22482026 L77.2316878,19.1191633 Z"/>
      </g>
      <g transform="translate(48.568 27.718)">
        <path fill="#D5E0F0" d="M79.2571898 67.3284428C79.2546714 68.3028101 78.5847718 69.2759797 77.2468613 70.0149897 77.2468613 70.0149897 76.4194786 27.4409687 76.4225432 26.4324981 76.4249352 25.6453461 77.2632311 23.7321773 77.2632311 23.7321773 77.7612341 23.4567471 77.8611761 22.7731439 78.1742468 22.4448288 78.7018607 21.8915237 79.2724479 21.6559458 79.2748188 21.0444326L79.2571898 67.3284428zM3.19930607 27.1926981C3.19649735 28.1540554 2.46389952 70.0128337 2.46389952 70.0128337 1.09891604 69.263044.418942723 68.2749026.422090748 67.2867611L.437830871 21.8052311C.435248558 22.4802958 1.25086356 22.7001631 1.8878341 23.2996378 2.18267867 23.5771261 2.04832976 24.2940555 2.47963964 24.5313037 2.47963964 24.5313037 3.20174406 26.3582332 3.19930607 27.1926981zM46.3131022 45.1330836C46.3104405 45.9464137 44.8772982 87.9082547 44.8772982 87.9082547 42.1844779 89.3982522 37.7627625 89.3982522 35.0523133 87.9082547 35.0523133 87.9082547 34.0032292 45.8660398 34.0053709 45.1330836 34.0084759 44.0704172 35.0680535 42.4273235 35.0680535 42.4273235 36.3809306 43.1485853 38.4346636 42.4046236 40.1592379 42.4273235 41.9958932 42.4514988 43.5048432 43.1954604 44.8949271 42.4273235 44.8949271 42.4273235 46.3163168 44.1507911 46.3131022 45.1330836z"/>
        <path fill="#D5E0F0" d="M61.070233 30.8854958C65.9909546 28.1653026 77.2630422 23.732297 77.2630422 23.732297L77.247302 70.0151095 44.8774241 87.9082547 44.895053 41.6254423C44.895053 41.6254423 55.2016249 34.1296843 61.070233 30.8854958zM21.6466074 33.2708247C26.3751296 35.8675285 35.0678016 42.4273235 35.0678016 42.4273235L35.0526911 87.9082547 2.46371063 70.012714 2.47945076 24.5311839C2.47945076 24.5311839 15.512346 29.9021486 21.6466074 33.2708247z"/>
        <path fill="#E9F1FD" d="M77.2316878,19.1191633 C79.942137,20.6091608 79.9572476,23.0459774 77.2631681,24.5341783 L44.895179,42.4273235 C42.1992107,43.9167222 37.7793841,43.9167222 35.0676757,42.4273235 L2.47932484,24.5311839 C-0.231753965,23.042983 -0.244975669,20.6061664 2.4484742,19.1167678 L34.8177225,1.22482026 C37.5111724,-0.265177241 41.9335174,-0.265177241 44.6445962,1.22482026 L77.2316878,19.1191633 Z"/>
      </g>
      <g transform="translate(0 55.436)">
        <path fill="#D5E0F0" d="M79.2571898 67.3284428C79.2546714 68.3028101 78.5847718 69.2759797 77.2468613 70.0149897 77.2468613 70.0149897 76.4194786 27.4409687 76.4225432 26.4324981 76.4249352 25.6453461 77.2632311 23.7321773 77.2632311 23.7321773 77.7612341 23.4567471 77.8611761 22.7731439 78.1742468 22.4448288 78.7018607 21.8915237 79.2724479 21.6559458 79.2748188 21.0444326L79.2571898 67.3284428zM3.19930607 27.1926981C3.19649735 28.1540554 2.46389952 70.0128337 2.46389952 70.0128337 1.09891604 69.263044.418942723 68.2749026.422090748 67.2867611L.437830871 21.8052311C.435248558 22.4802958 1.25086356 22.7001631 1.8878341 23.2996378 2.18267867 23.5771261 2.04832976 24.2940555 2.47963964 24.5313037 2.47963964 24.5313037 3.20174406 26.3582332 3.19930607 27.1926981zM46.3131022 45.1330836C46.3104405 45.9464137 44.8772982 87.9082547 44.8772982 87.9082547 42.1844779 89.3982522 37.7627625 89.3982522 35.0523133 87.9082547 35.0523133 87.9082547 34.0032292 45.8660398 34.0053709 45.1330836 34.0084759 44.0704172 35.0680535 42.4273235 35.0680535 42.4273235 36.3809306 43.1485853 38.4346636 42.4046236 40.1592379 42.4273235 41.9958932 42.4514988 43.5048432 43.1954604 44.8949271 42.4273235 44.8949271 42.4273235 46.3163168 44.1507911 46.3131022 45.1330836z"/>
        <path fill="#D5E0F0" d="M61.070233 30.8854958C65.9909546 28.1653026 77.2630422 23.732297 77.2630422 23.732297L77.247302 70.0151095 44.8774241 87.9082547 44.895053 41.6254423C44.895053 41.6254423 55.2016249 34.1296843 61.070233 30.8854958zM21.6466074 33.2708247C26.3751296 35.8675285 35.0678016 42.4273235 35.0678016 42.4273235L35.0526911 87.9082547 2.46371063 70.012714 2.47945076 24.5311839C2.47945076 24.5311839 15.512346 29.9021486 21.6466074 33.2708247z"/>
        <path fill="#E9F1FD" d="M77.2316878,19.1191633 C79.942137,20.6091608 79.9572476,23.0459774 77.2631681,24.5341783 L44.895179,42.4273235 C42.1992107,43.9167222 37.7793841,43.9167222 35.0676757,42.4273235 L2.47932484,24.5311839 C-0.231753965,23.042983 -0.244975669,20.6061664 2.4484742,19.1167678 L34.8177225,1.22482026 C37.5111724,-0.265177241 41.9335174,-0.265177241 44.6445962,1.22482026 L77.2316878,19.1191633 Z"/>
      </g>
      <g transform="translate(149.173 27.718)">
        <path fill="#D5E0F0" d="M79.2571898 67.3284428C79.2546714 68.3028101 78.5847718 69.2759797 77.2468613 70.0149897 77.2468613 70.0149897 76.4194786 27.4409687 76.4225432 26.4324981 76.4249352 25.6453461 77.2632311 23.7321773 77.2632311 23.7321773 77.7612341 23.4567471 77.8611761 22.7731439 78.1742468 22.4448288 78.7018607 21.8915237 79.2724479 21.6559458 79.2748188 21.0444326L79.2571898 67.3284428zM3.19930607 27.1926981C3.19649735 28.1540554 2.46389952 70.0128337 2.46389952 70.0128337 1.09891604 69.263044.418942723 68.2749026.422090748 67.2867611L.437830871 21.8052311C.435248558 22.4802958 1.25086356 22.7001631 1.8878341 23.2996378 2.18267867 23.5771261 2.04832976 24.2940555 2.47963964 24.5313037 2.47963964 24.5313037 3.20174406 26.3582332 3.19930607 27.1926981zM46.3131022 45.1330836C46.3104405 45.9464137 44.8772982 87.9082547 44.8772982 87.9082547 42.1844779 89.3982522 37.7627625 89.3982522 35.0523133 87.9082547 35.0523133 87.9082547 34.0032292 45.8660398 34.0053709 45.1330836 34.0084759 44.0704172 35.0680535 42.4273235 35.0680535 42.4273235 36.3809306 43.1485853 38.4346636 42.4046236 40.1592379 42.4273235 41.9958932 42.4514988 43.5048432 43.1954604 44.8949271 42.4273235 44.8949271 42.4273235 46.3163168 44.1507911 46.3131022 45.1330836z"/>
        <path fill="#D5E0F0" d="M61.070233 30.8854958C65.9909546 28.1653026 77.2630422 23.732297 77.2630422 23.732297L77.247302 70.0151095 44.8774241 87.9082547 44.895053 41.6254423C44.895053 41.6254423 55.2016249 34.1296843 61.070233 30.8854958zM21.6466074 33.2708247C26.3751296 35.8675285 35.0678016 42.4273235 35.0678016 42.4273235L35.0526911 87.9082547 2.46371063 70.012714 2.47945076 24.5311839C2.47945076 24.5311839 15.512346 29.9021486 21.6466074 33.2708247z"/>
        <path fill="#E9F1FD" d="M77.2316878,19.1191633 C79.942137,20.6091608 79.9572476,23.0459774 77.2631681,24.5341783 L44.895179,42.4273235 C42.1992107,43.9167222 37.7793841,43.9167222 35.0676757,42.4273235 L2.47932484,24.5311839 C-0.231753965,23.042983 -0.244975669,20.6061664 2.4484742,19.1167678 L34.8177225,1.22482026 C37.5111724,-0.265177241 41.9335174,-0.265177241 44.6445962,1.22482026 L77.2316878,19.1191633 Z"/>
      </g>
      <g transform="translate(97.136 38.113)">
        <use fill="black" filter="url(#enclave-c)" xlink:href="#enclave-d"/>
        <use fill="#E9F1FD" xlink:href="#enclave-d"/>
        <path fill="#ACD6FF" d="M79.2571898 67.3284428C79.2546714 68.3028101 78.5847718 69.2759797 77.2468613 70.0149897 77.2468613 70.0149897 76.4194786 27.4409687 76.4225432 26.4324981 76.4249352 25.6453461 77.2632311 23.7321773 77.2632311 23.7321773 77.7612341 23.4567471 77.8611761 22.7731439 78.1742468 22.4448288 78.7018607 21.8915237 79.2724479 21.6559458 79.2748188 21.0444326L79.2571898 67.3284428zM3.19930607 27.1926981C3.19649735 28.1540554 2.46389952 70.0128337 2.46389952 70.0128337 1.09891604 69.263044.418942723 68.2749026.422090748 67.2867611L.437830871 21.8052311C.435248558 22.4802958 1.25086356 22.7001631 1.8878341 23.2996378 2.18267867 23.5771261 2.04832976 24.2940555 2.47963964 24.5313037 2.47963964 24.5313037 3.20174406 26.3582332 3.19930607 27.1926981zM46.3131022 45.1330836C46.3104405 45.9464137 44.8772982 87.9082547 44.8772982 87.9082547 42.1844779 89.3982522 37.7627625 89.3982522 35.0523133 87.9082547 35.0523133 87.9082547 34.0032292 45.8660398 34.0053709 45.1330836 34.0084759 44.0704172 35.0680535 42.4273235 35.0680535 42.4273235 36.3809306 43.1485853 38.4346636 42.4046236 40.1592379 42.4273235 41.9958932 42.4514988 43.5048432 43.1954604 44.8949271 42.4273235 44.8949271 42.4273235 46.3163168 44.1507911 46.3131022 45.1330836z"/>
        <path fill="#ACD6FF" d="M61.070233 30.8854958C65.9909546 28.1653026 77.2630422 23.732297 77.2630422 23.732297L77.247302 70.0151095 44.8774241 87.9082547 44.895053 41.6254423C44.895053 41.6254423 55.2016249 34.1296843 61.070233 30.8854958zM21.6466074 33.2708247C26.3751296 35.8675285 35.0678016 42.4273235 35.0678016 42.4273235L35.0526911 87.9082547 2.46371063 70.012714 2.47945076 24.5311839C2.47945076 24.5311839 15.512346 29.9021486 21.6466074 33.2708247z"/>
        <path fill="#BBDEFF" d="M77.2316878,19.1191633 C79.942137,20.6091608 79.9572476,23.0459774 77.2631681,24.5341783 L44.895179,42.4273235 C42.1992107,43.9167222 37.7793841,43.9167222 35.0676757,42.4273235 L2.47932484,24.5311839 C-0.231753965,23.042983 -0.244975669,20.6061664 2.4484742,19.1167678 L34.8177225,1.22482026 C37.5111724,-0.265177241 41.9335174,-0.265177241 44.6445962,1.22482026 L77.2316878,19.1191633 Z"/>
      </g>
      <g transform="translate(48.568 83.155)">
        <path fill="#D5E0F0" d="M79.2571898 67.3284428C79.2546714 68.3028101 78.5847718 69.2759797 77.2468613 70.0149897 77.2468613 70.0149897 76.4194786 27.4409687 76.4225432 26.4324981 76.4249352 25.6453461 77.2632311 23.7321773 77.2632311 23.7321773 77.7612341 23.4567471 77.8611761 22.7731439 78.1742468 22.4448288 78.7018607 21.8915237 79.2724479 21.6559458 79.2748188 21.0444326L79.2571898 67.3284428zM3.19930607 27.1926981C3.19649735 28.1540554 2.46389952 70.0128337 2.46389952 70.0128337 1.09891604 69.263044.418942723 68.2749026.422090748 67.2867611L.437830871 21.8052311C.435248558 22.4802958 1.25086356 22.7001631 1.8878341 23.2996378 2.18267867 23.5771261 2.04832976 24.2940555 2.47963964 24.5313037 2.47963964 24.5313037 3.20174406 26.3582332 3.19930607 27.1926981zM46.3131022 45.1330836C46.3104405 45.9464137 44.8772982 87.9082547 44.8772982 87.9082547 42.1844779 89.3982522 37.7627625 89.3982522 35.0523133 87.9082547 35.0523133 87.9082547 34.0032292 45.8660398 34.0053709 45.1330836 34.0084759 44.0704172 35.0680535 42.4273235 35.0680535 42.4273235 36.3809306 43.1485853 38.4346636 42.4046236 40.1592379 42.4273235 41.9958932 42.4514988 43.5048432 43.1954604 44.8949271 42.4273235 44.8949271 42.4273235 46.3163168 44.1507911 46.3131022 45.1330836z"/>
        <path fill="#D5E0F0" d="M61.070233 30.8854958C65.9909546 28.1653026 77.2630422 23.732297 77.2630422 23.732297L77.247302 70.0151095 44.8774241 87.9082547 44.895053 41.6254423C44.895053 41.6254423 55.2016249 34.1296843 61.070233 30.8854958zM21.6466074 33.2708247C26.3751296 35.8675285 35.0678016 42.4273235 35.0678016 42.4273235L35.0526911 87.9082547 2.46371063 70.012714 2.47945076 24.5311839C2.47945076 24.5311839 15.512346 29.9021486 21.6466074 33.2708247z"/>
        <path fill="#E9F1FD" d="M77.2316878,19.1191633 C79.942137,20.6091608 79.9572476,23.0459774 77.2631681,24.5341783 L44.895179,42.4273235 C42.1992107,43.9167222 37.7793841,43.9167222 35.0676757,42.4273235 L2.47932484,24.5311839 C-0.231753965,23.042983 -0.244975669,20.6061664 2.4484742,19.1167678 L34.8177225,1.22482026 C37.5111724,-0.265177241 41.9335174,-0.265177241 44.6445962,1.22482026 L77.2316878,19.1191633 Z"/>
      </g>
      <g transform="translate(201.21 53.704)">
        <path fill="#D5E0F0" d="M79.2571898 67.3284428C79.2546714 68.3028101 78.5847718 69.2759797 77.2468613 70.0149897 77.2468613 70.0149897 76.4194786 27.4409687 76.4225432 26.4324981 76.4249352 25.6453461 77.2632311 23.7321773 77.2632311 23.7321773 77.7612341 23.4567471 77.8611761 22.7731439 78.1742468 22.4448288 78.7018607 21.8915237 79.2724479 21.6559458 79.2748188 21.0444326L79.2571898 67.3284428zM3.19930607 27.1926981C3.19649735 28.1540554 2.46389952 70.0128337 2.46389952 70.0128337 1.09891604 69.263044.418942723 68.2749026.422090748 67.2867611L.437830871 21.8052311C.435248558 22.4802958 1.25086356 22.7001631 1.8878341 23.2996378 2.18267867 23.5771261 2.04832976 24.2940555 2.47963964 24.5313037 2.47963964 24.5313037 3.20174406 26.3582332 3.19930607 27.1926981zM46.3131022 45.1330836C46.3104405 45.9464137 44.8772982 87.9082547 44.8772982 87.9082547 42.1844779 89.3982522 37.7627625 89.3982522 35.0523133 87.9082547 35.0523133 87.9082547 34.0032292 45.8660398 34.0053709 45.1330836 34.0084759 44.0704172 35.0680535 42.4273235 35.0680535 42.4273235 36.3809306 43.1485853 38.4346636 42.4046236 40.1592379 42.4273235 41.9958932 42.4514988 43.5048432 43.1954604 44.8949271 42.4273235 44.8949271 42.4273235 46.3163168 44.1507911 46.3131022 45.1330836z"/>
        <path fill="#D5E0F0" d="M61.070233 30.8854958C65.9909546 28.1653026 77.2630422 23.732297 77.2630422 23.732297L77.247302 70.0151095 44.8774241 87.9082547 44.895053 41.6254423C44.895053 41.6254423 55.2016249 34.1296843 61.070233 30.8854958zM21.6466074 33.2708247C26.3751296 35.8675285 35.0678016 42.4273235 35.0678016 42.4273235L35.0526911 87.9082547 2.46371063 70.012714 2.47945076 24.5311839C2.47945076 24.5311839 15.512346 29.9021486 21.6466074 33.2708247z"/>
        <path fill="#E9F1FD" d="M77.2316878,19.1191633 C79.942137,20.6091608 79.9572476,23.0459774 77.2631681,24.5341783 L44.895179,42.4273235 C42.1992107,43.9167222 37.7793841,43.9167222 35.0676757,42.4273235 L2.47932484,24.5311839 C-0.231753965,23.042983 -0.244975669,20.6061664 2.4484742,19.1167678 L34.8177225,1.22482026 C37.5111724,-0.265177241 41.9335174,-0.265177241 44.6445962,1.22482026 L77.2316878,19.1191633 Z"/>
      </g>
      <g transform="translate(149.173 81.422)">
        <path fill="#D5E0F0" d="M79.2571898 67.3284428C79.2546714 68.3028101 78.5847718 69.2759797 77.2468613 70.0149897 77.2468613 70.0149897 76.4194786 27.4409687 76.4225432 26.4324981 76.4249352 25.6453461 77.2632311 23.7321773 77.2632311 23.7321773 77.7612341 23.4567471 77.8611761 22.7731439 78.1742468 22.4448288 78.7018607 21.8915237 79.2724479 21.6559458 79.2748188 21.0444326L79.2571898 67.3284428zM3.19930607 27.1926981C3.19649735 28.1540554 2.46389952 70.0128337 2.46389952 70.0128337 1.09891604 69.263044.418942723 68.2749026.422090748 67.2867611L.437830871 21.8052311C.435248558 22.4802958 1.25086356 22.7001631 1.8878341 23.2996378 2.18267867 23.5771261 2.04832976 24.2940555 2.47963964 24.5313037 2.47963964 24.5313037 3.20174406 26.3582332 3.19930607 27.1926981zM46.3131022 45.1330836C46.3104405 45.9464137 44.8772982 87.9082547 44.8772982 87.9082547 42.1844779 89.3982522 37.7627625 89.3982522 35.0523133 87.9082547 35.0523133 87.9082547 34.0032292 45.8660398 34.0053709 45.1330836 34.0084759 44.0704172 35.0680535 42.4273235 35.0680535 42.4273235 36.3809306 43.1485853 38.4346636 42.4046236 40.1592379 42.4273235 41.9958932 42.4514988 43.5048432 43.1954604 44.8949271 42.4273235 44.8949271 42.4273235 46.3163168 44.1507911 46.3131022 45.1330836z"/>
        <path fill="#D5E0F0" d="M61.070233 30.8854958C65.9909546 28.1653026 77.2630422 23.732297 77.2630422 23.732297L77.247302 70.0151095 44.8774241 87.9082547 44.895053 41.6254423C44.895053 41.6254423 55.2016249 34.1296843 61.070233 30.8854958zM21.6466074 33.2708247C26.3751296 35.8675285 35.0678016 42.4273235 35.0678016 42.4273235L35.0526911 87.9082547 2.46371063 70.012714 2.47945076 24.5311839C2.47945076 24.5311839 15.512346 29.9021486 21.6466074 33.2708247z"/>
        <path fill="#E9F1FD" d="M77.2316878,19.1191633 C79.942137,20.6091608 79.9572476,23.0459774 77.2631681,24.5341783 L44.895179,42.4273235 C42.1992107,43.9167222 37.7793841,43.9167222 35.0676757,42.4273235 L2.47932484,24.5311839 C-0.231753965,23.042983 -0.244975669,20.6061664 2.4484742,19.1167678 L34.8177225,1.22482026 C37.5111724,-0.265177241 41.9335174,-0.265177241 44.6445962,1.22482026 L77.2316878,19.1191633 Z"/>
      </g>
      <g transform="translate(100.605 109.14)">
        <path fill="#D5E0F0" d="M79.2571898 67.3284428C79.2546714 68.3028101 78.5847718 69.2759797 77.2468613 70.0149897 77.2468613 70.0149897 76.4194786 27.4409687 76.4225432 26.4324981 76.4249352 25.6453461 77.2632311 23.7321773 77.2632311 23.7321773 77.7612341 23.4567471 77.8611761 22.7731439 78.1742468 22.4448288 78.7018607 21.8915237 79.2724479 21.6559458 79.2748188 21.0444326L79.2571898 67.3284428zM3.19930607 27.1926981C3.19649735 28.1540554 2.46389952 70.0128337 2.46389952 70.0128337 1.09891604 69.263044.418942723 68.2749026.422090748 67.2867611L.437830871 21.8052311C.435248558 22.4802958 1.25086356 22.7001631 1.8878341 23.2996378 2.18267867 23.5771261 2.04832976 24.2940555 2.47963964 24.5313037 2.47963964 24.5313037 3.20174406 26.3582332 3.19930607 27.1926981zM46.3131022 45.1330836C46.3104405 45.9464137 44.8772982 87.9082547 44.8772982 87.9082547 42.1844779 89.3982522 37.7627625 89.3982522 35.0523133 87.9082547 35.0523133 87.9082547 34.0032292 45.8660398 34.0053709 45.1330836 34.0084759 44.0704172 35.0680535 42.4273235 35.0680535 42.4273235 36.3809306 43.1485853 38.4346636 42.4046236 40.1592379 42.4273235 41.9958932 42.4514988 43.5048432 43.1954604 44.8949271 42.4273235 44.8949271 42.4273235 46.3163168 44.1507911 46.3131022 45.1330836z"/>
        <path fill="#D5E0F0" d="M61.070233 30.8854958C65.9909546 28.1653026 77.2630422 23.732297 77.2630422 23.732297L77.247302 70.0151095 44.8774241 87.9082547 44.895053 41.6254423C44.895053 41.6254423 55.2016249 34.1296843 61.070233 30.8854958zM21.6466074 33.2708247C26.3751296 35.8675285 35.0678016 42.4273235 35.0678016 42.4273235L35.0526911 87.9082547 2.46371063 70.012714 2.47945076 24.5311839C2.47945076 24.5311839 15.512346 29.9021486 21.6466074 33.2708247z"/>
        <path fill="#E9F1FD" d="M77.2316878,19.1191633 C79.942137,20.6091608 79.9572476,23.0459774 77.2631681,24.5341783 L44.895179,42.4273235 C42.1992107,43.9167222 37.7793841,43.9167222 35.0676757,42.4273235 L2.47932484,24.5311839 C-0.231753965,23.042983 -0.244975669,20.6061664 2.4484742,19.1167678 L34.8177225,1.22482026 C37.5111724,-0.265177241 41.9335174,-0.265177241 44.6445962,1.22482026 L77.2316878,19.1191633 Z"/>
      </g>
    </g>
    <g transform="translate(168 154)">
      <use fill="black" filter="url(#enclave-e)" xlink:href="#enclave-f"/>
      <use stroke="#40BFFF" stroke-opacity=".612" stroke-linecap="round" xlink:href="#enclave-f"/>
      <use fill="black" filter="url(#enclave-g)" xlink:href="#enclave-h"/>
      <use stroke="#40BFFF" stroke-opacity=".612" stroke-linecap="round" xlink:href="#enclave-h"/>
      <g>
        <use fill="black" filter="url(#enclave-i)" xlink:href="#enclave-j"/>
        <use stroke="#40BFFF" stroke-opacity=".612" stroke-linecap="round" xlink:href="#enclave-j"/>
      </g>
    </g>
    <g filter="url(#enclave-k)" transform="translate(126.243)">
      <path fill="#307AD1" d="M23.4948752,1.13141807 C19.375806,0.0790047006 18.8775185,0.160871008 15.7756239,1.1314181 L4.38694484,7.64992604 C6.7174211,6.29217817 9.94322158,6.48331744 13.501477,8.54300777 L41.7436894,28.4643327 L82.920408,46.7643461 C86.7124065,48.9556972 88.6931524,53.707268 91.033579,58.0784134 C93.0610933,61.8651417 95.3247478,64.2087109 95.3125245,67.9932132 C95.3125245,67.9932132 91.0565359,85.9673773 91.033579,94.0572137 C91.0038697,104.52656 96.5362147,123.602253 96.5362147,123.602253 C96.5173981,130.333038 92.8256915,135.975498 91.033579,140.99246 C88.4366959,148.262353 74.0157824,162.265015 76.782384,161.668701 C79.5489855,161.072388 93.9621868,150.696856 93.9621868,150.696856 C103.34005,145.242796 109.228752,132.674777 109.274835,116.190663 L109.432833,60.5131143 C109.455875,52.360036 103.725141,42.4372719 96.6514218,38.3475508 L23.4948752,1.13141807 Z"/>
      <path fill="#145DB3" d="M13.4991729,8.53971226 C6.42545324,4.45328664 0.668386876,7.73560916 0.645345444,15.8886874 L0.487347053,71.5662365 C0.395181325,104.672875 12.6137235,142.241627 41.3727223,158.992676 C70.339094,175.60861 96.4450364,156.708892 96.5372021,123.602253 L96.6952005,67.924704 C96.718242,59.7716257 90.9908003,49.8488616 83.913789,45.7591405 L13.4991729,8.53971226 Z"/>
      <path fill="#307AD1" d="M14.9214875,41.8113117 L14.809572,80.9124729 C14.747031,104.158962 23.325027,130.542771 43.5224879,142.307722 L43.6673198,142.393406 C63.8647807,153.977104 82.1958857,140.702812 82.2617184,117.456323 L82.3736339,78.3551614 L14.9214875,41.8113117 Z"/>
      <polygon fill="#307AD1" points="76.527 66.997 76.919 53.614 23.186 25.434 23.15 38.758"/>
      <polygon fill="#145DB3" points="48.593 171.059 73.534 163.193 75.624 152.627 27.204 147.839"/>
    </g>
  </g>
</svg>
