<svg xmlns="http://www.w3.org/2000/svg" width="1450" height="836" viewBox="0 0 1450 836" xmlns:xlink="http://www.w3.org/1999/xlink">
  <defs>
    <linearGradient id="gridiron-graph-d" x1="98.103%" x2="27.157%" y1="6.412%" y2="67.332%">
      <stop stop-color="#30ECD5" offset="0%"/>
      <stop stop-color="#FFDD33" stop-opacity="0" offset="100%"/>
    </linearGradient>
    <linearGradient id="gridiron-graph-e" x1="85.738%" x2="85.738%" y1="100%" y2="-8.522%">
      <stop stop-color="#2CF0DC" offset="0%"/>
      <stop stop-color="#5CEDB5" stop-opacity=".896" offset="15.486%"/>
      <stop stop-color="#CCE55B" stop-opacity=".65" offset="51.985%"/>
      <stop stop-color="#EB0909" stop-opacity=".537" offset="100%"/>
    </linearGradient>
    <circle id="gridiron-graph-a" cx="60.5" cy="37.5" r="9.5"/>
    <mask id="gridiron-graph-f" width="21" height="21" x="-1" y="-1">
      <rect width="21" height="21" x="50" y="27" fill="white"/>
      <use fill="black" xlink:href="#gridiron-graph-a"/>
    </mask>
    <circle id="gridiron-graph-b" cx="60.5" cy="37.5" r="9.5"/>
    <mask id="gridiron-graph-g" width="21" height="21" x="-1" y="-1">
      <rect width="21" height="21" x="50" y="27" fill="white"/>
      <use fill="black" xlink:href="#gridiron-graph-b"/>
    </mask>
    <circle id="gridiron-graph-c" cx="47.5" cy="34.5" r="9.5"/>
    <mask id="gridiron-graph-h" width="21" height="21" x="-1" y="-1">
      <rect width="21" height="21" x="37" y="24" fill="white"/>
      <use fill="black" xlink:href="#gridiron-graph-c"/>
    </mask>
  </defs>
  <g fill="none" fill-rule="evenodd" transform="translate(-12)">
    <path fill="url(#gridiron-graph-d)" d="M12.3085937,600.219727 L32.3837891,575.828125 L72.0830078,575.586914 L108.428711,545.454102 L160.045898,555.464844 L204.125,541.648438 L247.22168,583.013672 L285.503906,559.4375 L322.609375,574.198242 L363.548828,566.234375 L386.273438,523.581055 L425.231445,499.504883 L475.790039,522.554688 L540.206037,490.412103 L580.615234,539.072266 L640.123047,497.957031 L711.315052,512.553445 L755.525201,448.78433 L785.670497,455.088122 L833.347023,415.160413 L855.086633,436.176746 L883.858668,414.429218 L914.635222,467.584919 L942.676328,330.275257 L976.387674,307.054258 L1023.33327,204 L1059.03806,380.495097 L1083.71246,307.054258 L1115.21994,340.578467 L1142.53012,276.067077 L1209.4209,255.682231 C1209.4209,255.682231 1224.9668,272.588379 1242.03076,290.877441 C1253.979,280.367188 1273.76807,261.68457 1299.65039,237.797852 C1311.83938,251.493117 1313.58594,257.827637 1327.81104,277.811035 C1347.64014,275.723145 1340.055,275.979269 1373.27936,272.125224 C1406.04266,307.054258 1389.08447,288.882324 1410.24414,311.296875 C1444.43311,275.084473 1439.45557,280.302734 1461.32373,256.906738 C1462.01384,330.477234 1461,835.285156 1461,835.285156 L0.73046875,835.285156 L0.73046875,588.320313" opacity=".122"/>
    <path stroke="#BDDBFF" stroke-opacity=".181" d="M1208.5,0.5 L1208.5,803.53051" stroke-linecap="square"/>
    <polyline fill="#D8D8D8" fill-opacity=".01" stroke="#9E48FF" stroke-width="2" points="1209.449 255.934 1242.129 290.986 1300.273 237.362 1327.615 277.758 1373.198 272.817 1410.376 310.739 1461.618 257.473" stroke-linecap="round" stroke-linejoin="round" stroke-dasharray="1 6"/>
    <polyline fill="none" stroke="url(#gridiron-graph-e)" stroke-width="2" points="13.5 598.84 32.281 575.875 71.949 575.91 108.102 545.465 159.59 555.836 203.664 541.465 246.672 583.727 285.008 559.242 321.676 574.355 363.457 566.949 385.98 523.906 425.059 499.164 475.658 522.714 538.671 490.307 580.786 538.797 639.532 497.696 712.884 512.553 757.094 448.784 787.239 455.088 834.916 415.16 856.655 436.177 885.427 414.429 916.204 467.585 944.245 330.275 977.956 307.054 1024.902 204 1060.607 380.495 1085.281 307.054 1116.789 340.578 1144.099 276.067 1209.107 255.682" stroke-linecap="round" stroke-linejoin="round"/>
    <g transform="translate(977 168)">
      <g transform="translate(171 50)">
        <use fill="#EBA784" fill-opacity=".204" xlink:href="#gridiron-graph-a"/>
        <use stroke="#EBA784" stroke-opacity=".34" stroke-width="2" mask="url(#gridiron-graph-f)" xlink:href="#gridiron-graph-a"/>
        <circle cx="60.5" cy="37.5" r="5.5" fill="#EBA784"/>
        <path fill="#F6FAFF" d="M0,3.99922997 C0,1.79051625 1.7925083,0 3.99142235,0 L117.008578,0 C119.212979,0 121,1.79246765 121,3.99922997 L121,16.00077 C121,18.2094838 119.205804,20 116.999486,20 L62.1237793,20 L60,21.9289551 L57.9762573,20 L4.00781732,20 C1.79436094,20 0,18.2075324 0,16.00077 L0,3.99922997 Z"/>
        <text fill="#C2D1E3" font-family="Gibson-SemiBold, Gibson" font-size="11" font-weight="500">
          <tspan x="6" y="14">CURRENT RISK INDEX</tspan>
        </text>
      </g>
      <g transform="translate(338 68)">
        <use fill="#9E48FF" fill-opacity=".097" xlink:href="#gridiron-graph-b"/>
        <use stroke="#9E48FF" stroke-opacity=".142" stroke-width="2" mask="url(#gridiron-graph-g)" xlink:href="#gridiron-graph-b"/>
        <circle cx="60.5" cy="37.5" r="5.5" fill="#9E48FF"/>
        <path fill="#F6FAFF" d="M0,3.99922997 C0,1.79051625 1.78618025,0 4.00510362,0 L118.994896,0 C121.206854,0 123,1.79246765 123,3.99922997 L123,16.00077 C123,18.2094838 121.211059,20 119.005741,20 L62.1237793,20 L60,21.9289551 L57.9762573,20 L4.00781732,20 C1.79436094,20 0,18.2075324 0,16.00077 L0,3.99922997 Z"/>
        <text fill="#C2D1E3" font-family="Gibson-SemiBold, Gibson" font-size="11" font-weight="500">
          <tspan x="5" y="14">EXPECTED RISK INDEX</tspan>
        </text>
      </g>
      <use fill="#FF0000" fill-opacity=".151" xlink:href="#gridiron-graph-c"/>
      <use stroke="#FF0000" stroke-opacity=".182" stroke-width="2" mask="url(#gridiron-graph-h)" xlink:href="#gridiron-graph-c"/>
      <circle cx="47.5" cy="34.5" r="5.5" fill="#FF0000"/>
      <path fill="#F6FAFF" d="M0,3.99922997 C0,1.79051625 1.78987688,0 4.00277853,0 L91.9972215,0 C94.207895,0 96,1.79246765 96,3.99922997 L96,16.00077 C96,18.2094838 94.2015978,20 92.0090396,20 L50.1237793,20 L48,21.9289551 L45.9762573,20 L3.99966297,20 C1.79071011,20 0,18.2075324 0,16.00077 L0,3.99922997 Z"/>
      <text fill="#C2D1E3" font-family="Gibson-SemiBold, Gibson" font-size="11" font-weight="500">
        <tspan x="6" y="14">MAX RISK INDEX</tspan>
      </text>
    </g>
  </g>
</svg>
