<svg width="73px" height="62px" viewBox="0 0 73 62" version="1.1" xmlns="http://www.w3.org/2000/svg" xmlns:xlink="http://www.w3.org/1999/xlink">
    <desc>Created with Sketch.</desc>
    <defs></defs>
    <g id="Page-1" stroke="none" stroke-width="1" fill="none" fill-rule="evenodd">
        <g id="Sempre-Outlines" transform="translate(-266.000000, -1535.000000)" fill="#F1F7FF">
            <g id="Intro" transform="translate(99.000000, 428.000000)">
                <g id="Group-8" transform="translate(0.000000, 505.000000)">
                    <g id="Pull-Quote" transform="translate(9.000000, 602.000000)">
                        <path d="M231,0 L231,10.5005754 C226.967759,11.564639 223.901622,13.0767067 221.801496,15.0368239 C219.70137,16.9969411 218.021295,19.5030534 216.76122,22.5552359 C215.501144,25.6074184 214.871116,29.3175846 214.871116,33.6858458 C220.023424,33.6858458 223.845596,35.1559117 226.337745,38.0960875 C228.829894,41.0362633 230.075949,44.1584031 230.075949,47.4626007 C230.075949,51.3828351 228.703888,54.6729825 225.959724,57.3331415 C223.21556,59.9933006 220.023417,61.3233602 216.383199,61.3233602 C211.622914,61.3233602 207.548732,59.2932692 204.160529,55.2330265 C200.772327,51.1727837 199.078251,45.6145347 199.078251,38.5581128 C199.078251,32.3417411 200.422311,26.5174802 203.110472,21.0851554 C205.798633,15.6528305 209.452796,11.0046223 214.073072,7.14039125 C218.693349,3.2761602 224.335602,0.896053579 231,0 Z M189.921749,0 L189.921749,10.5005754 C185.889508,11.564639 182.823371,13.0767067 180.723245,15.0368239 C178.62312,16.9969411 176.943044,19.5030534 175.682969,22.5552359 C174.422894,25.6074184 173.792865,29.3175846 173.792865,33.6858458 C179.001177,33.6858458 182.837349,35.1559117 185.301496,38.0960875 C187.765643,41.0362633 188.997699,44.1584031 188.997699,47.4626007 C188.997699,51.3828351 187.625637,54.6729825 184.881473,57.3331415 C182.137309,59.9933006 178.945166,61.3233602 175.304948,61.3233602 C170.600667,61.3233602 166.540485,59.2932692 163.124281,55.2330265 C159.708077,51.1727837 158,45.6145347 158,38.5581128 C158,32.3417411 159.34406,26.5174802 162.032221,21.0851554 C164.720382,15.6528305 168.374545,11.0046223 172.994822,7.14039125 C177.615098,3.2761602 183.257351,0.896053579 189.921749,0 Z" id="“"></path>
                    </g>
                </g>
            </g>
        </g>
    </g>
</svg>
