<svg xmlns="http://www.w3.org/2000/svg" width="439" height="126" viewBox="0 0 439 126" xmlns:xlink="http://www.w3.org/1999/xlink">
  <defs>
    <polygon id="a" points=".364 121.94 93.668 121.94 93.668 .038 .364 .038 .364 121.94"/>
  </defs>
  <g fill="none" fill-rule="evenodd">
    <g transform="translate(14 4)">
      <mask id="b" fill="white">
        <use xlink:href="#a"/>
      </mask>
      <path fill="#DFA22F" d="M65.092,7.548 C63.238,1.841 57.109,-1.282 51.403,0.573 C45.696,2.427 42.573,8.556 44.428,14.262 L72.52,100.694 C74.449,106.025 80.208,109.021 85.736,107.43 C91.502,105.77 95.017,99.646 93.177,93.983 C93.107,93.767 65.092,7.548 65.092,7.548" mask="url(#b)"/>
      <path fill="#3CB187" d="M21.564,21.691 C19.709,15.985 13.58,12.862 7.874,14.716 C2.167,16.57 -0.956,22.699 0.899,28.406 L28.991,114.838 C30.92,120.169 36.679,123.165 42.207,121.573 C47.973,119.914 51.488,113.79 49.648,108.126 C49.578,107.911 21.564,21.691 21.564,21.691" mask="url(#b)"/>
    </g>
    <path fill="#CE1E5B" d="M114.452,83.131 C120.159,81.277 123.281,75.148 121.427,69.441 C119.573,63.735 113.444,60.612 107.738,62.466 L21.306,90.559 C15.975,92.487 12.979,98.246 14.57,103.774 C16.23,109.54 22.354,113.055 28.017,111.215 C28.233,111.145 114.452,83.131 114.452,83.131"/>
    <path fill="#392538" d="M39.32,107.543 C44.946,105.715 52.197,103.359 59.978,100.831 C58.15,95.205 55.794,87.953 53.265,80.171 L32.606,86.886 L39.32,107.543"/>
    <g transform="translate(0 18)">
      <path fill="#BB242A" d="M82.849,75.399 C90.659,72.862 97.918,70.503 103.507,68.687 C101.679,63.061 99.322,55.807 96.793,48.023 L76.134,54.738 L82.849,75.399"/>
      <path fill="#72C5CD" d="M100.309,21.602 C106.015,19.748 109.138,13.619 107.284,7.912 C105.43,2.206 99.301,-0.917 93.594,0.937 L7.162,29.03 C1.831,30.958 -1.165,36.717 0.427,42.245 C2.086,48.011 8.21,51.526 13.874,49.686 C14.089,49.616 100.309,21.602 100.309,21.602"/>
    </g>
    <path fill="#238C73" d="M25.173,64.015 C30.799,62.187 38.052,59.83 45.834,57.302 C43.297,49.491 40.938,42.232 39.122,36.642 L18.458,43.358 L25.173,64.015"/>
    <path fill="#62803A" d="M68.701,49.872 C76.513,47.334 83.773,44.975 89.363,43.158 C86.825,35.346 84.466,28.085 82.649,22.494 L61.986,29.21 L68.701,49.872"/>
    <path fill="#373D40" d="M202.125 34.299C205.948 35.967 206.226 37.218 203.237 42.917 200.18 48.755 199.415 49.102 195.662 47.573 190.936 45.558 184.889 44.029 180.997 44.029 174.604 44.029 170.364 46.322 170.364 49.797 170.364 61.265 206.991 55.079 206.991 79.543 206.991 91.845 196.426 100.046 180.581 100.046 172.241 100.046 161.954 97.266 154.865 93.652 151.321 91.845 151.113 90.802 154.17 84.964 156.812 79.821 157.645 79.265 161.468 80.864 167.514 83.505 175.16 85.52 180.303 85.52 186.141 85.52 190.033 83.157 190.033 79.682 190.033 68.562 152.781 73.844 152.781 50.145 152.781 37.565 163.275 29.155 178.982 29.155 186.349 29.155 195.662 31.379 202.125 34.299M231.666 5.247L231.666 96.432C231.666 97.822 230.206 99.281 228.122 99.281L218.53 99.281C216.445 99.281 214.985 97.822 214.985 96.432L214.985 5.247C214.985.73 216.237.313 223.326.313 231.388.313 231.666.869 231.666 5.247M255.643 79.265C255.643 83.922 259.605 87.049 265.582 87.049 272.81 87.049 279.342 83.574 283.165 77.667L283.165 71.551C279.342 70.091 274.686 69.257 270.516 69.257 261.62 69.257 255.643 73.497 255.643 79.265L255.643 79.265zM299.845 56.539L299.845 95.806C299.845 97.891 298.386 99.351 296.301 99.351L286.848 99.351C284.694 99.351 283.165 97.752 283.304 95.598L283.443 91.358C278.3 97.057 270.933 100.046 263.566 100.046 249.249 100.046 239.658 91.775 239.658 79.404 239.658 66.269 250.5 57.442 266.763 57.373 272.949 57.373 278.578 58.485 283.165 60.361L283.165 55.844C283.165 48.616 277.466 44.307 267.806 44.307 263.288 44.307 257.728 46.114 253.28 48.685 249.874 50.631 249.04 50.492 245.357 45.002 241.743 39.511 241.882 38.469 245.357 36.245 252.029 31.935 261.064 29.155 269.404 29.155 288.099 29.155 299.845 39.303 299.845 56.539L299.845 56.539z"/>
    <g fill="#373D40" transform="translate(307)">
      <path d="M57.901 34.438C61.375 36.453 61.515 37.565 57.692 43.473 54.079 49.033 53.453 49.38 49.631 47.434 46.711 45.905 42.055 44.585 38.232 44.585 26.209 44.585 18.216 52.508 18.216 64.462 18.216 76.902 26.209 85.242 38.232 85.242 42.403 85.242 47.615 83.644 51.02 81.767 54.495 79.752 55.26 79.891 58.943 85.242 62.279 90.246 62.21 91.428 59.221 93.513 53.87 97.196 45.391 100.046 37.955 100.046 15.715 100.046.841 85.798.841 64.462.841 43.264 15.715 29.155 38.093 29.155 44.904 29.155 52.897 31.449 57.901 34.438M130.461 90.663C133.241 94.208 132.129 95.459 125.179 97.961 118.09 100.532 117.117 100.393 114.616 97.127L94.738 70.578 85.842 79.196 85.842 96.432C85.842 97.822 84.383 99.281 82.298 99.281L72.707 99.281C70.622 99.281 69.162 97.822 69.162 96.432L69.162 5.247C69.162.73 70.413.313 77.502.313 85.564.313 85.842.869 85.842 5.247L85.842 57.095 113.086 30.963C116.075 28.113 117.743 28.322 123.094 31.866 129.002 35.689 129.419 36.731 126.569 39.511L106.275 59.249 130.461 90.663"/>
    </g>
  </g>
</svg>
