<svg xmlns="http://www.w3.org/2000/svg" width="138" height="138" viewBox="0 0 138 138" xmlns:xlink="http://www.w3.org/1999/xlink">
  <defs>
    <polygon id="slack-hash-a" points=".364 121.94 93.668 121.94 93.668 .038 .364 .038 .364 121.94"/>
  </defs>
  <g fill="none" fill-rule="evenodd" transform="translate(8 8)">
    <path fill="#FFFFFF" stroke="#FFFFFF" stroke-width="15" d="M82.6488296,18.4945096 C80.4842694,11.8328501 79.092,7.548 79.092,7.548 C77.238,1.841 71.109,-1.282 65.403,0.573 C59.696,2.427 56.573,8.556 58.428,14.262 L61.9864357,25.2104092 L39.1221235,32.6419985 C36.956829,25.977775 35.564,21.691 35.564,21.691 C33.709,15.985 27.58,12.862 21.874,14.716 C16.167,16.57 13.044,22.699 14.899,28.406 L18.4586804,39.358239 L7.162,43.03 C1.831,44.958 -1.165,50.717 0.427,56.245 C2.086,62.011 8.21,65.526 13.874,63.686 C13.9225009,63.670209 18.3476953,62.2323806 25.1724778,60.0149006 L32.6060548,82.8861423 L21.306,86.559 C15.975,88.487 12.979,94.246 14.57,99.774 C16.23,105.54 22.354,109.055 28.017,107.215 C28.0657358,107.199206 32.4927358,105.760831 39.3197955,103.54263 L42.991,114.838 C44.92,120.169 50.679,123.165 56.207,121.573 C61.973,119.914 65.488,113.79 63.648,108.126 C63.6322113,108.077506 62.1948037,103.653607 59.9778747,96.8305204 C67.446137,94.4039679 75.3964446,91.8207874 82.8490217,89.3993255 L86.52,100.694 C88.449,106.025 94.208,109.021 99.736,107.43 C105.502,105.77 109.017,99.646 107.177,93.983 C107.161211,93.9342811 105.723776,89.5103278 103.506798,82.6872777 C110.167711,80.5230375 114.452,79.131 114.452,79.131 C120.159,77.277 123.281,71.148 121.427,65.441 C119.573,59.735 113.444,56.612 107.738,58.466 L96.7926233,62.0235767 C94.3666594,54.557392 91.7841257,46.6093587 89.3631227,39.1584596 C96.0244211,36.9941155 100.309,35.602 100.309,35.602 C106.015,33.748 109.138,27.619 107.284,21.912 C105.43,16.206 99.301,13.083 93.594,14.937 L82.6488296,18.4945096 Z M45.8346716,53.3014966 C48.2560709,60.7539375 50.8390638,68.7037165 53.2653694,76.1712436 L76.13381,68.7383125 L68.7017144,45.8716283 C61.2503119,48.2926903 53.3015501,50.8753526 45.8346662,53.3014492 Z"/>
    <g transform="translate(14)">
      <mask id="slack-hash-b" fill="white">
        <use xlink:href="#slack-hash-a"/>
      </mask>
      <path fill="#DFA22F" d="M65.092,7.548 C63.238,1.841 57.109,-1.282 51.403,0.573 C45.696,2.427 42.573,8.556 44.428,14.262 L72.52,100.694 C74.449,106.025 80.208,109.021 85.736,107.43 C91.502,105.77 95.017,99.646 93.177,93.983 C93.107,93.767 65.092,7.548 65.092,7.548" mask="url(#slack-hash-b)"/>
      <path fill="#3CB187" d="M21.564,21.691 C19.709,15.985 13.58,12.862 7.874,14.716 C2.167,16.57 -0.956,22.699 0.899,28.406 L28.991,114.838 C30.92,120.169 36.679,123.165 42.207,121.573 C47.973,119.914 51.488,113.79 49.648,108.126 C49.578,107.911 21.564,21.691 21.564,21.691" mask="url(#slack-hash-b)"/>
    </g>
    <path fill="#CE1E5B" d="M114.452,79.131 C120.159,77.277 123.281,71.148 121.427,65.441 C119.573,59.735 113.444,56.612 107.738,58.466 L21.306,86.559 C15.975,88.487 12.979,94.246 14.57,99.774 C16.23,105.54 22.354,109.055 28.017,107.215 C28.233,107.145 114.452,79.131 114.452,79.131"/>
    <path fill="#392538" d="M39.32,103.543 C44.946,101.715 52.197,99.359 59.978,96.831 C58.15,91.205 55.794,83.953 53.265,76.171 L32.606,82.886 L39.32,103.543"/>
    <g transform="translate(0 14)">
      <path fill="#BB242A" d="M82.849,75.399 C90.659,72.862 97.918,70.503 103.507,68.687 C101.679,63.061 99.322,55.807 96.793,48.023 L76.134,54.738 L82.849,75.399"/>
      <path fill="#72C5CD" d="M100.309,21.602 C106.015,19.748 109.138,13.619 107.284,7.912 C105.43,2.206 99.301,-0.917 93.594,0.937 L7.162,29.03 C1.831,30.958 -1.165,36.717 0.427,42.245 C2.086,48.011 8.21,51.526 13.874,49.686 C14.089,49.616 100.309,21.602 100.309,21.602"/>
    </g>
    <path fill="#238C73" d="M25.173,60.015 C30.799,58.187 38.052,55.83 45.834,53.302 C43.297,45.491 40.938,38.232 39.122,32.642 L18.458,39.358 L25.173,60.015"/>
    <path fill="#62803A" d="M68.701,45.872 C76.513,43.334 83.773,40.975 89.363,39.158 C86.825,31.346 84.466,24.085 82.649,18.494 L61.986,25.21 L68.701,45.872"/>
  </g>
</svg>
