<svg class="ssh-bastion" xmlns="http://www.w3.org/2000/svg" width="49" height="76" viewBox="0 0 49 76">
  <g fill="none" fill-rule="evenodd">
    <path fill="#307AD1" d="M8.56308841,0.345917071 C6.74272944,-0.121876699 6.52251896,-0.0854874342 5.15168459,0.345917083 L0.118633929,3.24336924 C1.14855189,2.63985544 2.57414455,2.72481612 4.14666054,3.6403407 L16.6278698,12.4952944 L34.8252841,20.6295812 C36.5010992,21.6036285 37.3764592,23.7156838 38.4107746,25.6586414 C39.3068032,27.3418279 40.3071903,28.3835355 40.3017884,30.0657325 C40.3017884,30.0657325 38.42092,38.0551806 38.4107746,41.6510823 C38.397645,46.3046673 40.8425794,54.7837407 40.8425794,54.7837407 C40.8342637,57.7755492 39.202771,60.2836012 38.4107746,62.5136221 C37.2631222,65.7450621 33.0465999,70.421587 31.4495178,72.0471338 L39.7050275,66.8271896 C43.8494291,64.4028805 46.4518501,58.8164433 46.4722157,51.489317 L46.5420406,26.7408568 C46.5522234,23.1168443 44.0196144,18.7062131 40.8934934,16.8883475 L8.56308841,0.345917071 Z" transform="translate(1.657)"/>
    <path fill="#206AC2" d="M36.9209299,17.3962895 L5.80227868,0.852394273 C2.67615763,-0.964006482 0.131911134,0.494973479 0.121728329,4.11898595 L0.0519033825,28.8674462 C0.0111721636,43.583222 5.41096804,60.2823903 18.120563,67.7281685 L18.2136629,67.7809027 C30.9218032,75.1138884 42.458921,66.7130349 42.4996522,51.9972591 L42.5694771,27.2487988 C42.5796599,23.6247863 40.0485056,19.2141551 36.9209299,17.3962895" transform="translate(0 2.786)"/>
    <path fill="#307AD1" d="M6.43084866,18.8724724 L6.38138933,36.2527909 C6.35375029,46.5857674 10.144663,58.313271 19.0706187,63.5427474 L19.1346249,63.5808332 C28.0605806,68.7297434 36.1617291,62.8293706 36.1908228,52.4963941 L36.2402821,35.1160756 L6.43084866,18.8724724 Z"/>
    <polygon fill="#307AD1" points="33.825 29 34 23.204 10.016 11 10 16.77"/>
    <polygon fill="#206AC2" points="21.277 76 32.093 72.612 33 68.062 12 66"/>
  </g>
</svg>
