<svg width="185px" height="184px" viewBox="0 0 185 184">
    <title>stack</title>
    <defs>
        <filter x="-50%" y="-50%" width="200%" height="200%" filterUnits="objectBoundingBox" id="stack-filter-1">
            <feOffset dx="0" dy="2" in="SourceAlpha" result="shadowOffsetOuter1"></feOffset>
            <feGaussianBlur stdDeviation="6" in="shadowOffsetOuter1" result="shadowBlurOuter1"></feGaussianBlur>
            <feColorMatrix values="0 0 0 0 0   0 0 0 0 0   0 0 0 0 0  0 0 0 0.157693614 0" type="matrix" in="shadowBlurOuter1" result="shadowMatrixOuter1"></feColorMatrix>
            <feMerge>
                <feMergeNode in="shadowMatrixOuter1"></feMergeNode>
                <feMergeNode in="SourceGraphic"></feMergeNode>
            </feMerge>
        </filter>
        <polygon id="stack-path-2" points="3.241 13.7828 3.241 0.2998 0.0202 0.2998 0.0202 13.7828 3.241 13.7828"></polygon>
        <polygon id="stack-path-4" points="0 0.7039 0 14.2519 3.2676 14.2519 3.2676 0.7039 8.13151629e-20 0.7039"></polygon>
        <polygon id="stack-path-6" points="0.0235464849 0.473 0.0235464849 73.00395 125.24016 73.00395 125.24016 0.473"></polygon>
        <filter x="-50%" y="-50%" width="200%" height="200%" filterUnits="objectBoundingBox" id="stack-filter-8">
            <feOffset dx="0" dy="2" in="SourceAlpha" result="shadowOffsetOuter1"></feOffset>
            <feGaussianBlur stdDeviation="6" in="shadowOffsetOuter1" result="shadowBlurOuter1"></feGaussianBlur>
            <feColorMatrix values="0 0 0 0 0   0 0 0 0 0   0 0 0 0 0  0 0 0 0.157693614 0" type="matrix" in="shadowBlurOuter1" result="shadowMatrixOuter1"></feColorMatrix>
            <feMerge>
                <feMergeNode in="shadowMatrixOuter1"></feMergeNode>
                <feMergeNode in="SourceGraphic"></feMergeNode>
            </feMerge>
        </filter>
        <polygon id="stack-path-9" points="3.241 13.7828 3.241 0.2998 0.0202 0.2998 0.0202 13.7828 3.241 13.7828"></polygon>
        <polygon id="stack-path-11" points="0 0.7039 0 14.2519 3.2676 14.2519 3.2676 0.7039 8.13151629e-20 0.7039"></polygon>
        <polygon id="stack-path-13" points="0.0235464849 0.473 0.0235464849 73.00395 125.24016 73.00395 125.24016 0.473"></polygon>
        <filter x="-50%" y="-50%" width="200%" height="200%" filterUnits="objectBoundingBox" id="stack-filter-15">
            <feOffset dx="0" dy="2" in="SourceAlpha" result="shadowOffsetOuter1"></feOffset>
            <feGaussianBlur stdDeviation="6" in="shadowOffsetOuter1" result="shadowBlurOuter1"></feGaussianBlur>
            <feColorMatrix values="0 0 0 0 0   0 0 0 0 0   0 0 0 0 0  0 0 0 0.157693614 0" type="matrix" in="shadowBlurOuter1" result="shadowMatrixOuter1"></feColorMatrix>
            <feMerge>
                <feMergeNode in="shadowMatrixOuter1"></feMergeNode>
                <feMergeNode in="SourceGraphic"></feMergeNode>
            </feMerge>
        </filter>
        <polygon id="stack-path-16" points="3.241 13.7828 3.241 0.2998 0.0202 0.2998 0.0202 13.7828 3.241 13.7828"></polygon>
        <polygon id="stack-path-18" points="0 0.7039 0 14.2519 3.2676 14.2519 3.2676 0.7039 8.13151629e-20 0.7039"></polygon>
        <polygon id="stack-path-20" points="0.0235464849 0.473 0.0235464849 73.00395 125.24016 73.00395 125.24016 0.473"></polygon>
        <filter x="-50%" y="-50%" width="200%" height="200%" filterUnits="objectBoundingBox" id="stack-filter-22">
            <feOffset dx="0" dy="2" in="SourceAlpha" result="shadowOffsetOuter1"></feOffset>
            <feGaussianBlur stdDeviation="6" in="shadowOffsetOuter1" result="shadowBlurOuter1"></feGaussianBlur>
            <feColorMatrix values="0 0 0 0 0   0 0 0 0 0   0 0 0 0 0  0 0 0 0.157693614 0" type="matrix" in="shadowBlurOuter1" result="shadowMatrixOuter1"></feColorMatrix>
            <feMerge>
                <feMergeNode in="shadowMatrixOuter1"></feMergeNode>
                <feMergeNode in="SourceGraphic"></feMergeNode>
            </feMerge>
        </filter>
        <path d="M121.9961,36.1560247 C126.3011,38.952601 126.3251,43.5262622 122.0461,46.3194664 L70.6361,79.9031108 C66.3541,82.6985631 59.3341,82.6985631 55.0271,79.9031108 L3.2671,46.3138463 C-1.0389,43.520642 -1.0599,38.9469809 3.2181,36.1515286 L54.6301,2.57013224 C58.9081,-0.226444079 65.9321,-0.226444079 70.2381,2.57013224 L121.9961,36.1560247 Z" id="stack-path-23"></path>
        <filter x="-50%" y="-50%" width="200%" height="200%" filterUnits="objectBoundingBox" id="stack-filter-24">
            <feOffset dx="0" dy="0" in="SourceAlpha" result="shadowOffsetOuter1"></feOffset>
            <feGaussianBlur stdDeviation="14" in="shadowOffsetOuter1" result="shadowBlurOuter1"></feGaussianBlur>
            <feColorMatrix values="0 0 0 0 0.781348643   0 0 0 0 0.919342604   0 0 0 0 1  0 0 0 0.5 0" type="matrix" in="shadowBlurOuter1"></feColorMatrix>
        </filter>
    </defs>
    <g id="stack-Page-1" stroke="none" stroke-width="1" fill="none" fill-rule="evenodd">
        <g id="stack-stack" transform="translate(30.000000, 28.000000)">
            <g id="stack-Page-1-Copy-3" filter="url(#stack-filter-1)" transform="translate(0.000000, 60.000000)">
                <g id="stack-Group-3" transform="translate(122.000000, 36.527300)"></g>
                <g id="stack-Group-4" transform="translate(122.000000, 37.000000)">
                    <mask id="stack-mask-3" fill="white">
                        <use xlink:href="#stack-path-2"></use>
                    </mask>
                    <g id="stack-Clip-2"></g>
                    <path d="M3.2132,9.2968 C3.2092,10.9238 2.1452,12.5488 0.0202,13.7828 C0.0202,13.7828 -1.29392994,10.9807454 -1.2890625,9.29679974 C-1.28526327,7.98241207 0.0462,4.7878 0.0462,4.7878 C0.837177044,4.32788632 0.995914674,3.18640479 1.49316416,2.63818367 C2.33117203,1.71427401 3.2374344,1.32090563 3.2412,0.2998 L3.2132,9.2968 Z" id="stack-Fill-1" fill="#2A3950" mask="url(#stack-mask-3)"></path>
                </g>
                <g id="stack-Group-6" transform="translate(0.000000, 36.527300)">
                    <mask id="stack-mask-5" fill="white">
                        <use xlink:href="#stack-path-4"></use>
                    </mask>
                    <g id="stack-Clip-5"></g>
                    <path d="M4.41064448,9.69990029 C4.4061834,11.3051761 3.2426,14.2519 3.2426,14.2519 C1.0746,12.9999 -0.0054,11.3499 -0.0004,9.6999 L0.0246,0.7039 C0.0204985176,1.83112407 1.31593788,2.19825872 2.32763667,3.19926252 C2.7959376,3.66261289 2.58255155,4.85974265 3.2676,5.2559 C3.2676,5.2559 4.41451673,8.30650947 4.41064448,9.69990029 Z" id="stack-Fill-4" fill="#2A3950" mask="url(#stack-mask-5)"></path>
                </g>
                <path d="M72.8881841,76.1840821 C72.8839566,77.5421819 70.6077,80.661 70.6077,80.661 C66.3307,83.149 59.3077,83.149 55.0027,80.661 C55.0027,80.661 53.3364422,77.4079735 53.3398437,76.1840821 C53.3447755,74.4096401 55.0277,71.666 55.0277,71.666 C57.1129396,72.8703639 60.3748788,71.6280956 63.1140161,71.666 C66.0311714,71.7063678 68.427833,72.9486361 70.6357,71.666 C70.6357,71.666 72.8932899,74.5438486 72.8881841,76.1840821 Z" id="stack-Fill-14" fill="#2A3950"></path>
                <path d="M96.3268999,53.7324218 C104.14247,49.1902392 122.0459,41.788 122.0459,41.788 L122.0209,50.783 L70.6079,80.661 L70.6359,71.666 C70.6359,71.666 87.0058035,59.1495725 96.3268999,53.7324218 Z" id="stack-Fill-7" fill="#2A3950"></path>
                <path d="M33.7104492,56.3764649 C41.2207498,60.7124446 55.0273,71.666 55.0273,71.666 L55.0033,80.661 L3.2423,50.779 L3.2673,41.783 C3.2673,41.783 23.9674165,50.7514446 33.7104492,56.3764649 Z" id="stack-Fill-9" fill="#2A3950"></path>
                <g id="stack-Group-13" transform="translate(0.000000, 0.527300)">
                    <mask id="stack-mask-7" fill="white">
                        <use xlink:href="#stack-path-6"></use>
                    </mask>
                    <g id="stack-Clip-12"></g>
                    <path d="M121.9961,32.2187 C126.3011,34.7067 126.3251,38.7757 122.0461,41.2607 L70.6361,71.1387 C66.3541,73.6257 59.3341,73.6257 55.0271,71.1387 L3.2671,41.2557 C-1.0389,38.7707 -1.0599,34.7017 3.2181,32.2147 L54.6301,2.3387 C58.9081,-0.1493 65.9321,-0.1493 70.2381,2.3387 L121.9961,32.2187 Z" id="stack-Fill-11" fill="#45546E" mask="url(#stack-mask-7)"></path>
                </g>
            </g>
            <g id="stack-Page-1-Copy-3" filter="url(#stack-filter-8)" transform="translate(0.000000, 40.000000)">
                <g id="stack-Group-3" transform="translate(122.000000, 36.527300)"></g>
                <g id="stack-Group-4" transform="translate(122.000000, 37.000000)">
                    <mask id="stack-mask-10" fill="white">
                        <use xlink:href="#stack-path-9"></use>
                    </mask>
                    <g id="stack-Clip-2"></g>
                    <path d="M3.2132,9.2968 C3.2092,10.9238 2.1452,12.5488 0.0202,13.7828 C0.0202,13.7828 -1.29392994,10.9807454 -1.2890625,9.29679974 C-1.28526327,7.98241207 0.0462,4.7878 0.0462,4.7878 C0.837177044,4.32788632 0.995914674,3.18640479 1.49316416,2.63818367 C2.33117203,1.71427401 3.2374344,1.32090563 3.2412,0.2998 L3.2132,9.2968 Z" id="stack-Fill-1" fill="#2A3950" mask="url(#stack-mask-10)"></path>
                </g>
                <g id="stack-Group-6" transform="translate(0.000000, 36.527300)">
                    <mask id="stack-mask-12" fill="white">
                        <use xlink:href="#stack-path-11"></use>
                    </mask>
                    <g id="stack-Clip-5"></g>
                    <path d="M4.41064448,9.69990029 C4.4061834,11.3051761 3.2426,14.2519 3.2426,14.2519 C1.0746,12.9999 -0.0054,11.3499 -0.0004,9.6999 L0.0246,0.7039 C0.0204985176,1.83112407 1.31593788,2.19825872 2.32763667,3.19926252 C2.7959376,3.66261289 2.58255155,4.85974265 3.2676,5.2559 C3.2676,5.2559 4.41451673,8.30650947 4.41064448,9.69990029 Z" id="stack-Fill-4" fill="#2A3950" mask="url(#stack-mask-12)"></path>
                </g>
                <path d="M72.8881841,76.1840821 C72.8839566,77.5421819 70.6077,80.661 70.6077,80.661 C66.3307,83.149 59.3077,83.149 55.0027,80.661 C55.0027,80.661 53.3364422,77.4079735 53.3398437,76.1840821 C53.3447755,74.4096401 55.0277,71.666 55.0277,71.666 C57.1129396,72.8703639 60.3748788,71.6280956 63.1140161,71.666 C66.0311714,71.7063678 68.427833,72.9486361 70.6357,71.666 C70.6357,71.666 72.8932899,74.5438486 72.8881841,76.1840821 Z" id="stack-Fill-14" fill="#2A3950"></path>
                <path d="M96.3268999,53.7324218 C104.14247,49.1902392 122.0459,41.788 122.0459,41.788 L122.0209,50.783 L70.6079,80.661 L70.6359,71.666 C70.6359,71.666 87.0058035,59.1495725 96.3268999,53.7324218 Z" id="stack-Fill-7" fill="#2A3950"></path>
                <path d="M33.7104492,56.3764649 C41.2207498,60.7124446 55.0273,71.666 55.0273,71.666 L55.0033,80.661 L3.2423,50.779 L3.2673,41.783 C3.2673,41.783 23.9674165,50.7514446 33.7104492,56.3764649 Z" id="stack-Fill-9" fill="#2A3950"></path>
                <g id="stack-Group-13" transform="translate(0.000000, 0.527300)">
                    <mask id="stack-mask-14" fill="white">
                        <use xlink:href="#stack-path-13"></use>
                    </mask>
                    <g id="stack-Clip-12"></g>
                    <path d="M121.9961,32.2187 C126.3011,34.7067 126.3251,38.7757 122.0461,41.2607 L70.6361,71.1387 C66.3541,73.6257 59.3341,73.6257 55.0271,71.1387 L3.2671,41.2557 C-1.0389,38.7707 -1.0599,34.7017 3.2181,32.2147 L54.6301,2.3387 C58.9081,-0.1493 65.9321,-0.1493 70.2381,2.3387 L121.9961,32.2187 Z" id="stack-Fill-11" fill="#45546E" mask="url(#stack-mask-14)"></path>
                </g>
            </g>
            <g id="stack-Page-1-Copy-3" filter="url(#stack-filter-15)" transform="translate(0.000000, 20.000000)">
                <g id="stack-Group-3" transform="translate(122.000000, 36.527300)"></g>
                <g id="stack-Group-4" transform="translate(122.000000, 37.000000)">
                    <mask id="stack-mask-17" fill="white">
                        <use xlink:href="#stack-path-16"></use>
                    </mask>
                    <g id="stack-Clip-2"></g>
                    <path d="M3.2132,9.2968 C3.2092,10.9238 2.1452,12.5488 0.0202,13.7828 C0.0202,13.7828 -1.29392994,10.9807454 -1.2890625,9.29679974 C-1.28526327,7.98241207 0.0462,4.7878 0.0462,4.7878 C0.837177044,4.32788632 0.995914674,3.18640479 1.49316416,2.63818367 C2.33117203,1.71427401 3.2374344,1.32090563 3.2412,0.2998 L3.2132,9.2968 Z" id="stack-Fill-1" fill="#2A3950" mask="url(#stack-mask-17)"></path>
                </g>
                <g id="stack-Group-6" transform="translate(0.000000, 36.527300)">
                    <mask id="stack-mask-19" fill="white">
                        <use xlink:href="#stack-path-18"></use>
                    </mask>
                    <g id="stack-Clip-5"></g>
                    <path d="M4.41064448,9.69990029 C4.4061834,11.3051761 3.2426,14.2519 3.2426,14.2519 C1.0746,12.9999 -0.0054,11.3499 -0.0004,9.6999 L0.0246,0.7039 C0.0204985176,1.83112407 1.31593788,2.19825872 2.32763667,3.19926252 C2.7959376,3.66261289 2.58255155,4.85974265 3.2676,5.2559 C3.2676,5.2559 4.41451673,8.30650947 4.41064448,9.69990029 Z" id="stack-Fill-4" fill="#2A3950" mask="url(#stack-mask-19)"></path>
                </g>
                <path d="M72.8881841,76.1840821 C72.8839566,77.5421819 70.6077,80.661 70.6077,80.661 C66.3307,83.149 59.3077,83.149 55.0027,80.661 C55.0027,80.661 53.3364422,77.4079735 53.3398437,76.1840821 C53.3447755,74.4096401 55.0277,71.666 55.0277,71.666 C57.1129396,72.8703639 60.3748788,71.6280956 63.1140161,71.666 C66.0311714,71.7063678 68.427833,72.9486361 70.6357,71.666 C70.6357,71.666 72.8932899,74.5438486 72.8881841,76.1840821 Z" id="stack-Fill-14" fill="#2A3950"></path>
                <path d="M96.3268999,53.7324218 C104.14247,49.1902392 122.0459,41.788 122.0459,41.788 L122.0209,50.783 L70.6079,80.661 L70.6359,71.666 C70.6359,71.666 87.0058035,59.1495725 96.3268999,53.7324218 Z" id="stack-Fill-7" fill="#2A3950"></path>
                <path d="M33.7104492,56.3764649 C41.2207498,60.7124446 55.0273,71.666 55.0273,71.666 L55.0033,80.661 L3.2423,50.779 L3.2673,41.783 C3.2673,41.783 23.9674165,50.7514446 33.7104492,56.3764649 Z" id="stack-Fill-9" fill="#2A3950"></path>
                <g id="stack-Group-13" transform="translate(0.000000, 0.527300)">
                    <mask id="stack-mask-21" fill="white">
                        <use xlink:href="#stack-path-20"></use>
                    </mask>
                    <g id="stack-Clip-12"></g>
                    <path d="M121.9961,32.2187 C126.3011,34.7067 126.3251,38.7757 122.0461,41.2607 L70.6361,71.1387 C66.3541,73.6257 59.3341,73.6257 55.0271,71.1387 L3.2671,41.2557 C-1.0389,38.7707 -1.0599,34.7017 3.2181,32.2147 L54.6301,2.3387 C58.9081,-0.1493 65.9321,-0.1493 70.2381,2.3387 L121.9961,32.2187 Z" id="stack-Fill-11" fill="#45546E" mask="url(#stack-mask-21)"></path>
                </g>
            </g>
            <g id="stack-Page-1-Copy-3" filter="url(#stack-filter-22)">
                <g id="stack-Group-3" transform="translate(122.000000, 36.527300)"></g>
                <g id="stack-Group-4" transform="translate(120.000000, 37.000000)"></g>
                <g id="stack-Group-6" transform="translate(0.000000, 36.527300)"></g>
                <g id="stack-Group-13" transform="translate(0.000000, 0.527300)">
                    <g id="stack-Fill-11">
                        <use fill="black" fill-opacity="1" filter="url(#stack-filter-24)" xlink:href="#stack-path-23"></use>
                        <use fill="#E9F1FD" fill-rule="evenodd" xlink:href="#stack-path-23"></use>
                    </g>
                    <path d="M125.2132,45.7695 C125.2092,47.3965 124.1452,49.0215 122.0202,50.2555 C122.0202,50.2555 120.70607,47.4534454 120.710937,45.7694997 C120.714737,44.4551121 122.0462,41.2605 122.0462,41.2605 C122.837177,40.8005863 122.995915,39.6591048 123.493164,39.1108837 C124.331172,38.186974 125.237434,37.7936056 125.2412,36.7725 L125.2132,45.7695 Z" id="stack-Fill-1" fill="#D6E0F1"></path>
                    <path d="M4.41064448,45.6999003 C4.4061834,47.3051761 3.2426,50.2519 3.2426,50.2519 C1.0746,48.9999 -0.0054,47.3499 -0.0004,45.6999 L0.0246,36.7039 C0.0204985176,37.8311241 1.31593788,38.1982587 2.32763667,39.1992625 C2.7959376,39.6626129 2.58255155,40.8597427 3.2676,41.2559 C3.2676,41.2559 4.41451673,44.3065095 4.41064448,45.6999003 Z" id="stack-Fill-4" fill="#D6E0F1"></path>
                    <path d="M72.8881841,75.6567821 C72.8839566,77.0148819 70.6077,80.1337 70.6077,80.1337 C66.3307,82.6217 59.3077,82.6217 55.0027,80.1337 C55.0027,80.1337 53.3364422,76.8806735 53.3398437,75.6567821 C53.3447755,73.8823401 55.0277,71.1387 55.0277,71.1387 C57.1129396,72.3430639 60.3748788,71.1007956 63.1140161,71.1387 C66.0311714,71.1790678 68.427833,72.4213361 70.6357,71.1387 C70.6357,71.1387 72.8932899,74.0165486 72.8881841,75.6567821 Z" id="stack-Fill-14" fill="#D6E0F1"></path>
                    <path d="M96.3268999,53.2051218 C104.14247,48.6629392 122.0459,41.2607 122.0459,41.2607 L122.0209,50.2557 L70.6079,80.1337 L68.7856445,70.2441843 C68.7856445,70.2441843 87.0058035,58.6222725 96.3268999,53.2051218 Z" id="stack-Fill-7" fill="#D6E0F1"></path>
                    <path d="M33.7104492,55.8491649 C41.2207498,60.1851446 57.8168964,70.554242 57.8168964,70.554242 L55.0033,80.1337 L3.2423,50.2517 L3.2673,41.2557 C3.2673,41.2557 23.9674165,50.2241446 33.7104492,55.8491649 Z" id="stack-Fill-9" fill="#D6E0F1"></path>
                    <path d="M121.972554,31.746 C126.277554,34.234 126.301554,38.303 122.022554,40.788 L70.6125535,70.666 C66.3305535,73.153 59.3105535,73.153 55.0035535,70.666 L3.24355352,40.783 C-1.06244648,38.298 -1.08344648,34.229 3.19455352,31.742 L54.6065535,1.866 C58.8845535,-0.622 65.9085535,-0.622 70.2145535,1.866 L121.972554,31.746 Z" id="stack-Fill-11" fill="#E9F1FD"></path>
                    <path d="M51.2409242,36.0079866 C51.5847284,36.2066823 51.5866451,36.5316391 51.2449173,36.7300952 L47.139232,39.1162003 C46.7972646,39.3148162 46.2366361,39.3148162 45.8926722,39.1162003 L41.7590354,36.7296959 C41.4151513,36.5312398 41.4134742,36.206283 41.7551222,36.0076671 L45.8609671,33.6217218 C46.2026151,33.4230261 46.763563,33.4230261 47.1074471,33.6217218 L51.2409242,36.0079866 Z" id="stack-Fill-11" fill="#93B0D2" opacity="0.532416045"></path>
                    <path d="M38.2409242,36.0079866 C38.5847284,36.2066823 38.5866451,36.5316391 38.2449173,36.7300952 L34.139232,39.1162003 C33.7972646,39.3148162 33.2366361,39.3148162 32.8926722,39.1162003 L28.7590354,36.7296959 C28.4151513,36.5312398 28.4134742,36.206283 28.7551222,36.0076671 L32.8609671,33.6217218 C33.2026151,33.4230261 33.763563,33.4230261 34.1074471,33.6217218 L38.2409242,36.0079866 Z" id="stack-Fill-11" fill="#93B0D2" opacity="0.07"></path>
                    <path d="M44.7409242,39.5352866 C45.0847284,39.7339823 45.0866451,40.0589391 44.7449173,40.2573952 L40.639232,42.6435003 C40.2972646,42.8421162 39.7366361,42.8421162 39.3926722,42.6435003 L35.2590354,40.2569959 C34.9151513,40.0585398 34.9134742,39.733583 35.2551222,39.5349671 L39.3609671,37.1490218 C39.7026151,36.9503261 40.263563,36.9503261 40.6074471,37.1490218 L44.7409242,39.5352866 Z" id="stack-Fill-11-Copy-2" fill="#93B0D2" opacity="0.302472015"></path>
                    <path d="M44.7409242,32.5352866 C45.0847284,32.7339823 45.0866451,33.0589391 44.7449173,33.2573952 L40.639232,35.6435003 C40.2972646,35.8421162 39.7366361,35.8421162 39.3926722,35.6435003 L35.2590354,33.2569959 C34.9151513,33.0585398 34.9134742,32.733583 35.2551222,32.5349671 L39.3609671,30.1490218 C39.7026151,29.9503261 40.263563,29.9503261 40.6074471,30.1490218 L44.7409242,32.5352866 Z" id="stack-Fill-11-Copy" fill="#93B0D2" opacity="0.302472015"></path>
                    <g id="stack-Group-25" transform="translate(84.000000, 36.500000) scale(-1, 1) translate(-84.000000, -36.500000) translate(72.000000, 30.000000)" fill="#93B0D2">
                        <path d="M23.2409242,6.00798659 C23.5847284,6.20668226 23.5866451,6.53163914 23.2449173,6.73009524 L19.139232,9.11620034 C18.7972646,9.31481616 18.2366361,9.31481616 17.8926722,9.11620034 L13.7590354,6.72969593 C13.4151513,6.53123984 13.4134742,6.20628296 13.7551222,6.00766714 L17.8609671,3.62172176 C18.2026151,3.42302608 18.763563,3.42302608 19.1074471,3.62172176 L23.2409242,6.00798659 Z" id="stack-Fill-11" opacity="0.627506996" transform="translate(18.500000, 6.368931) scale(-1, 1) translate(-18.500000, -6.368931) "></path>
                        <path d="M10.2409242,6.00798659 C10.5847284,6.20668226 10.5866451,6.53163914 10.2449173,6.73009524 L6.13923202,9.11620034 C5.79726462,9.31481616 5.23663613,9.31481616 4.89267219,9.11620034 L0.759035397,6.72969593 C0.415151316,6.53123984 0.413474222,6.20628296 0.755122178,6.00766714 L4.86096713,3.62172176 C5.20261509,3.42302608 5.76356302,3.42302608 6.1074471,3.62172176 L10.2409242,6.00798659 Z" id="stack-Fill-11" opacity="0.0741021455" transform="translate(5.500000, 6.368931) scale(-1, 1) translate(-5.500000, -6.368931) "></path>
                        <path d="M16.7409242,9.53528659 C17.0847284,9.73398226 17.0866451,10.0589391 16.7449173,10.2573952 L12.639232,12.6435003 C12.2972646,12.8421162 11.7366361,12.8421162 11.3926722,12.6435003 L7.2590354,10.2569959 C6.91515132,10.0585398 6.91347422,9.73358296 7.25512218,9.53496714 L11.3609671,7.14902176 C11.7026151,6.95032608 12.263563,6.95032608 12.6074471,7.14902176 L16.7409242,9.53528659 Z" id="stack-Fill-11-Copy-2" opacity="0.302472015" transform="translate(12.000000, 9.896231) scale(-1, 1) translate(-12.000000, -9.896231) "></path>
                        <path d="M16.7409242,2.53528659 C17.0847284,2.73398226 17.0866451,3.05893914 16.7449173,3.25739524 L12.639232,5.64350034 C12.2972646,5.84211616 11.7366361,5.84211616 11.3926722,5.64350034 L7.2590354,3.25699593 C6.91515132,3.05853984 6.91347422,2.73358296 7.25512218,2.53496714 L11.3609671,0.149021759 C11.7026151,-0.0496739197 12.263563,-0.0496739197 12.6074471,0.149021759 L16.7409242,2.53528659 Z" id="stack-Fill-11-Copy" opacity="0.302472015" transform="translate(12.000000, 2.896231) scale(-1, 1) translate(-12.000000, -2.896231) "></path>
                    </g>
                    <g id="stack-Group-25" transform="translate(63.000000, 49.500000) scale(-1, 1) translate(-63.000000, -49.500000) translate(51.000000, 43.000000)" fill="#93B0D2">
                        <path d="M23.2409242,6.00798659 C23.5847284,6.20668226 23.5866451,6.53163914 23.2449173,6.73009524 L19.139232,9.11620034 C18.7972646,9.31481616 18.2366361,9.31481616 17.8926722,9.11620034 L13.7590354,6.72969593 C13.4151513,6.53123984 13.4134742,6.20628296 13.7551222,6.00766714 L17.8609671,3.62172176 C18.2026151,3.42302608 18.763563,3.42302608 19.1074471,3.62172176 L23.2409242,6.00798659 Z" id="stack-Fill-11" opacity="0.302472015" transform="translate(18.500000, 6.368931) scale(-1, 1) translate(-18.500000, -6.368931) "></path>
                        <path d="M10.2409242,6.00798659 C10.5847284,6.20668226 10.5866451,6.53163914 10.2449173,6.73009524 L6.13923202,9.11620034 C5.79726462,9.31481616 5.23663613,9.31481616 4.89267219,9.11620034 L0.759035397,6.72969593 C0.415151316,6.53123984 0.413474222,6.20628296 0.755122178,6.00766714 L4.86096713,3.62172176 C5.20261509,3.42302608 5.76356302,3.42302608 6.1074471,3.62172176 L10.2409242,6.00798659 Z" id="stack-Fill-11" opacity="0.302472015" transform="translate(5.500000, 6.368931) scale(-1, 1) translate(-5.500000, -6.368931) "></path>
                        <path d="M16.7409242,9.53528659 C17.0847284,9.73398226 17.0866451,10.0589391 16.7449173,10.2573952 L12.639232,12.6435003 C12.2972646,12.8421162 11.7366361,12.8421162 11.3926722,12.6435003 L7.2590354,10.2569959 C6.91515132,10.0585398 6.91347422,9.73358296 7.25512218,9.53496714 L11.3609671,7.14902176 C11.7026151,6.95032608 12.263563,6.95032608 12.6074471,7.14902176 L16.7409242,9.53528659 Z" id="stack-Fill-11-Copy-2" opacity="0.0741021455" transform="translate(12.000000, 9.896231) scale(-1, 1) translate(-12.000000, -9.896231) "></path>
                        <path d="M16.7409242,2.53528659 C17.0847284,2.73398226 17.0866451,3.05893914 16.7449173,3.25739524 L12.639232,5.64350034 C12.2972646,5.84211616 11.7366361,5.84211616 11.3926722,5.64350034 L7.2590354,3.25699593 C6.91515132,3.05853984 6.91347422,2.73358296 7.25512218,2.53496714 L11.3609671,0.149021759 C11.7026151,-0.0496739197 12.263563,-0.0496739197 12.6074471,0.149021759 L16.7409242,2.53528659 Z" id="stack-Fill-11-Copy" opacity="0.532416045" transform="translate(12.000000, 2.896231) scale(-1, 1) translate(-12.000000, -2.896231) "></path>
                    </g>
                    <g id="stack-Group-25" transform="translate(63.000000, 22.500000) scale(-1, 1) translate(-63.000000, -22.500000) translate(51.000000, 16.000000)" fill="#93B0D2">
                        <path d="M23.2409242,6.00798659 C23.5847284,6.20668226 23.5866451,6.53163914 23.2449173,6.73009524 L19.139232,9.11620034 C18.7972646,9.31481616 18.2366361,9.31481616 17.8926722,9.11620034 L13.7590354,6.72969593 C13.4151513,6.53123984 13.4134742,6.20628296 13.7551222,6.00766714 L17.8609671,3.62172176 C18.2026151,3.42302608 18.763563,3.42302608 19.1074471,3.62172176 L23.2409242,6.00798659 Z" id="stack-Fill-11" opacity="0.311042444" transform="translate(18.500000, 6.368931) scale(-1, 1) translate(-18.500000, -6.368931) "></path>
                        <path d="M16.7409242,9.53528659 C17.0847284,9.73398226 17.0866451,10.0589391 16.7449173,10.2573952 L12.639232,12.6435003 C12.2972646,12.8421162 11.7366361,12.8421162 11.3926722,12.6435003 L7.2590354,10.2569959 C6.91515132,10.0585398 6.91347422,9.73358296 7.25512218,9.53496714 L11.3609671,7.14902176 C11.7026151,6.95032608 12.263563,6.95032608 12.6074471,7.14902176 L16.7409242,9.53528659 Z" id="stack-Fill-11-Copy-4" opacity="0.627506996" transform="translate(12.000000, 9.896231) scale(-1, 1) translate(-12.000000, -9.896231) "></path>
                        <path d="M10.2409242,6.00798659 C10.5847284,6.20668226 10.5866451,6.53163914 10.2449173,6.73009524 L6.13923202,9.11620034 C5.79726462,9.31481616 5.23663613,9.31481616 4.89267219,9.11620034 L0.759035397,6.72969593 C0.415151316,6.53123984 0.413474222,6.20628296 0.755122178,6.00766714 L4.86096713,3.62172176 C5.20261509,3.42302608 5.76356302,3.42302608 6.1074471,3.62172176 L10.2409242,6.00798659 Z" id="stack-Fill-11" opacity="0.302472015" transform="translate(5.500000, 6.368931) scale(-1, 1) translate(-5.500000, -6.368931) "></path>
                        <path d="M16.7409242,2.53528659 C17.0847284,2.73398226 17.0866451,3.05893914 16.7449173,3.25739524 L12.639232,5.64350034 C12.2972646,5.84211616 11.7366361,5.84211616 11.3926722,5.64350034 L7.2590354,3.25699593 C6.91515132,3.05853984 6.91347422,2.73358296 7.25512218,2.53496714 L11.3609671,0.149021759 C11.7026151,-0.0496739197 12.263563,-0.0496739197 12.6074471,0.149021759 L16.7409242,2.53528659 Z" id="stack-Fill-11-Copy-3" opacity="0.0741021455" transform="translate(12.000000, 2.896231) scale(-1, 1) translate(-12.000000, -2.896231) "></path>
                    </g>
                </g>
            </g>
        </g>
    </g>
</svg>
