<svg xmlns="http://www.w3.org/2000/svg" width="130" height="130" viewBox="0 0 130 130">
  <path fill="#DFA22F" fill-rule="evenodd" stroke="#FFFFFF" stroke-width="8" d="M68.7017144,45.8716283 L76.13381,68.7383125 L53.2653694,76.1712436 C50.8390638,68.7037165 48.2560709,60.7539375 45.8346716,53.3014966 C53.3015501,50.8753526 61.2503119,48.2926903 68.7017144,45.8716283 Z M61.9864357,25.2104092 L58.428,14.262 C56.573,8.556 59.696,2.427 65.403,0.573 C71.109,-1.282 77.238,1.841 79.092,7.548 C79.092,7.548 80.4842694,11.8328501 82.6488296,18.4945096 L93.594,14.937 C99.301,13.083 105.43,16.206 107.284,21.912 C109.138,27.619 106.015,33.748 100.309,35.602 C100.309,35.602 96.0244211,36.9941155 89.3631227,39.1584596 C91.7841257,46.6093587 94.3666594,54.557392 96.7926233,62.0235767 L107.738,58.466 C113.444,56.612 119.573,59.735 121.427,65.441 C123.281,71.148 120.159,77.277 114.452,79.131 C114.452,79.131 110.167711,80.5230375 103.506798,82.6872778 C105.723774,89.5103219 107.161211,93.9342811 107.177,93.983 C109.017,99.646 105.502,105.77 99.736,107.43 C94.208,109.021 88.449,106.025 86.52,100.694 L82.8490217,89.3993255 C75.3964446,91.8207874 67.446137,94.4039679 59.9778747,96.8305204 C62.1948037,103.653607 63.6322113,108.077506 63.648,108.126 C65.488,113.79 61.973,119.914 56.207,121.573 C50.679,123.165 44.92,120.169 42.991,114.838 L39.3197955,103.54263 C32.4927358,105.760831 28.0657358,107.199206 28.017,107.215 C22.354,109.055 16.23,105.54 14.57,99.774 C12.979,94.246 15.975,88.487 21.306,86.559 L32.6060548,82.8861423 L25.1724778,60.0149006 C18.3476953,62.2323806 13.9225009,63.670209 13.874,63.686 C8.21,65.526 2.086,62.011 0.427,56.245 C-1.165,50.717 1.831,44.958 7.162,43.03 L18.4586804,39.358239 L14.899,28.406 C13.044,22.699 16.167,16.57 21.874,14.716 C27.58,12.862 33.709,15.985 35.564,21.691 C35.564,21.691 36.956829,25.977775 39.1221235,32.6419985 L61.9864357,25.2104092 Z" transform="translate(4 4)"/>
</svg>
