<svg xmlns="http://www.w3.org/2000/svg" width="226" height="226" viewBox="0 0 226 226">
  <path fill="#93B0D2" d="M109.102732,4.06797996e-05 L109.102732,0.276532238 L109.533115,0.307796924 C109.932694,0.307796924 110.240062,0.43035612 110.455219,0.645597459 C110.608976,0.799326422 110.670499,1.22957858 110.639758,1.8754834 L110.517141,8.67081792 C110.517141,9.25479904 110.455586,9.65481707 110.332602,9.80849631 C110.117218,10.0852184 109.779339,10.2082115 109.317835,10.2082115 L108.918103,10.1775615 L108.918103,10.4847031 L113.652929,10.576662 L113.652929,10.2695205 L113.222546,10.2695205 C112.822967,10.2695205 112.515147,10.1463421 112.299989,9.93110975 C112.146255,9.74664946 112.085315,9.34712863 112.116065,8.70122381 L112.177372,5.62673496 C112.238773,5.62673496 112.330956,5.62664456 112.423217,5.65738945 L112.638411,5.65738945 L113.283884,5.65738945 L116.97411,10.6384049 L119.956034,10.6690594 L119.956034,10.3925678 C119.372034,10.3003377 118.880245,10.1769107 118.480214,9.93107811 C118.111146,9.68512352 117.681057,9.2237016 117.158531,8.51677708 L114.913839,5.47302408 C115.866681,5.28854118 116.574079,4.9807985 117.004395,4.51976077 C117.465447,4.02798719 117.711794,3.50547777 117.711794,2.8288371 C117.711794,2.24485598 117.557988,1.72189456 117.158079,1.29114068 C116.789237,0.83010295 116.296996,0.522744464 115.743733,0.369065222 C115.190471,0.184595891 114.329388,0.0920538665 113.160936,0.0613089779 L109.10232,0 L109.102732,4.06797996e-05 Z M106.212115,0.184573291 L97.6641147,0.891497808 L97.6641147,1.19925405 L98.0638425,1.16859956 C98.5248948,1.10710979 98.8639038,1.19930377 99.0790616,1.38378666 C99.2326914,1.50676622 99.3246307,1.90629609 99.4168682,2.58293675 L100.062341,9.37827127 C100.093087,9.87004485 100.093087,10.2085912 100.062341,10.3930063 C100.000868,10.5467533 99.9089331,10.7004913 99.7551857,10.7927215 C99.5092911,10.9157281 99.2629446,11.0079086 99.01705,11.0079086 L98.6173177,11.069213 L98.6479731,11.3457046 L107.195973,10.6387801 L107.90292,7.9326694 L107.565113,7.96393408 C107.257745,8.64057475 106.949925,9.13189633 106.642557,9.47044266 C106.396662,9.7471783 106.150767,9.93193239 105.874136,10.0241399 C105.597505,10.147115 105.166737,10.2084872 104.551549,10.269977 L102.676151,10.4238551 C102.33782,10.4545955 102.153625,10.42395 102.030678,10.3932006 C101.907767,10.3317154 101.846325,10.2702527 101.784833,10.1780181 C101.723337,10.0857879 101.692455,9.80853699 101.63095,9.34724615 L101.292528,5.90347511 L103.752378,5.68829253 C104.213882,5.65753861 104.551987,5.68872193 104.797882,5.75021171 C105.044002,5.84244185 105.197858,5.96543045 105.32086,6.1499269 C105.413206,6.27289289 105.536352,6.57993498 105.628626,7.10273821 L105.935777,7.07208372 L105.59736,3.47463344 L105.290204,3.50528793 C105.320941,4.0585332 105.197763,4.48973908 104.921132,4.73562587 C104.736711,4.92010424 104.337132,5.07333148 103.691207,5.10407637 L101.231358,5.31925895 L100.862281,1.19929925 L103.905678,0.953462182 C104.459393,0.922717294 104.828234,0.922717294 105.074129,0.953462182 C105.35076,1.04569685 105.565918,1.19934897 105.719602,1.38383186 C105.904254,1.56830119 106.058182,1.96781298 106.211843,2.49032241 L106.550269,2.45966792 L106.211843,0.18476313 L106.212115,0.184573291 Z M120.048655,0.184573291 L120.018004,0.461064848 C120.356109,0.522554625 120.602456,0.615187049 120.786877,0.738166603 C120.971524,0.861155197 121.124932,0.984044352 121.247929,1.16853628 C121.309403,1.29151584 121.432617,1.56798027 121.586346,2.05987589 L124.537533,11.4993974 L124.845299,11.5607064 L129.857208,3.13682387 C130.13384,2.64505029 130.440756,2.27531611 130.779313,2.06016517 C130.994471,1.93717658 131.302291,1.84507299 131.70187,1.8143281 L131.732525,1.53783654 L128.350119,1.13812135 L128.319463,1.41460839 C128.380973,1.44535328 128.411859,1.47591737 128.473346,1.47591737 C128.811451,1.56814751 129.088535,1.69125363 129.211482,1.84497807 C129.365229,1.99871155 129.426156,2.15225972 129.39541,2.3060158 C129.364673,2.52123454 129.180741,2.92118477 128.8426,3.50516589 L125.460193,9.19355786 L123.461396,2.79824137 C123.276898,2.21426025 123.215456,1.81469422 123.246202,1.53761958 C123.276939,1.35313217 123.368955,1.23013906 123.522703,1.13790439 C123.707349,1.01489772 124.045228,0.984021752 124.53747,0.984021752 L124.568125,0.707534714 L120.048457,0.184573291 L120.048655,0.184573291 Z M113.529738,0.645611019 C114.237136,0.676351388 114.790851,0.891452608 115.221167,1.29106384 C115.62089,1.72152844 115.835903,2.24432714 115.835903,2.92051581 C115.805166,3.56642063 115.528544,4.1201179 115.006009,4.55087178 C114.452746,4.98132734 113.653137,5.16558875 112.607633,5.16558875 C112.576892,5.16558875 112.515242,5.16506895 112.45375,5.13431954 L112.423095,5.13431954 L112.392444,5.13431954 L112.361788,5.13431954 L112.331133,5.13431954 L112.299867,5.13431954 L112.269212,5.13431954 L112.238561,5.13431954 L112.207905,5.13431954 L112.17725,5.13431954 L112.269212,0.799208902 C112.79219,0.706969717 113.222505,0.645330781 113.529873,0.645330781 L113.529738,0.645611019 Z M94.4665814,1.16857244 L94.1594257,1.19922693 C94.1594257,1.47594449 94.097595,1.62991301 94.0668491,1.72218835 C93.9744126,1.81442302 93.8514111,1.87597156 93.7284277,1.90671645 C93.6054804,1.93746133 93.3595723,1.90628705 93.0522177,1.84479727 C92.3448188,1.69107283 91.6988936,1.66058558 91.114894,1.75283832 C90.1923374,1.93730766 89.4551058,2.33681945 88.9628646,2.98272426 C88.4710755,3.62817708 88.3169394,4.30481775 88.4398867,5.04247812 C88.5320972,5.4729382 88.7168661,5.84206218 88.9936015,6.18015651 C89.2704588,6.4876054 89.6395267,6.76458963 90.101031,6.97974057 C90.5313464,7.19493671 91.3002189,7.47151415 92.3457228,7.80960848 C93.3912267,8.11707997 94.0059631,8.33211791 94.2518576,8.4550613 C94.6206995,8.60878575 94.8973308,8.82409488 95.0817518,9.03949442 C95.2970813,9.28547161 95.4199879,9.53172 95.4814841,9.77760679 C95.5736946,10.2386445 95.4506524,10.6689464 95.1430582,11.0685124 C94.8049531,11.4989725 94.313164,11.7451531 93.636502,11.8680965 C93.0525024,11.9603266 92.4992397,11.9606159 91.9762617,11.7761375 C91.422999,11.6531489 91.0229683,11.4068689 90.7151481,11.068761 C90.3770431,10.7305537 90.1004117,10.2384411 89.7930435,9.50032875 L89.4852776,9.56224793 L90.2234132,13.0977745 L90.5311792,13.0364701 C90.5004333,12.7904929 90.5309939,12.6364159 90.5924901,12.5442445 C90.6538734,12.4520098 90.7459799,12.3904568 90.8689904,12.3597119 C91.0229005,12.328967 91.3612315,12.3601413 91.9149463,12.421631 C92.4993979,12.5138793 92.8370509,12.5443349 93.0214718,12.51359 C93.32884,12.51359 93.6059234,12.4831344 93.9440284,12.421631 C94.9280586,12.2371481 95.6964791,11.8064621 96.2497419,11.1298214 C96.7722678,10.4531807 96.9571407,9.71552037 96.8034566,8.94667216 C96.7112462,8.54697053 96.5264727,8.1475401 96.2497419,7.84018161 C95.9728845,7.47121583 95.6042686,7.22546464 95.1739532,7.0103137 C94.7435021,6.79509496 93.9747652,6.51854012 92.8370509,6.18044579 C91.453442,5.78072156 90.5620742,5.41159758 90.1620436,5.10378709 C89.8545172,4.88856835 89.7005393,4.61201352 89.6390656,4.30420303 C89.5466292,3.9045014 89.6388487,3.50461897 89.9462168,3.10505294 C90.253585,2.73608716 90.6843525,2.45960012 91.2688041,2.36739258 C91.7605932,2.27513983 92.2523823,2.30562256 92.7446235,2.45935152 C93.2676014,2.61309857 93.6979169,2.889902 94.0364739,3.22819974 C94.3745789,3.59716552 94.6512103,4.08925549 94.866368,4.76589616 L95.1735192,4.70397698 L94.4665724,1.1684504 L94.4665814,1.16857244 Z M133.454881,1.9681565 L133.362304,2.24464806 L133.762647,2.30595252 C134.008541,2.36744682 134.254436,2.45988036 134.469594,2.64436325 C134.5925,2.76735185 134.684693,2.89041728 134.715438,3.01342395 C134.746184,3.19790684 134.684534,3.53593338 134.561555,4.0588948 L133.054999,10.7000981 C132.932052,11.3148151 132.778372,11.6840972 132.624621,11.8377765 C132.347763,12.0222458 132.009432,12.0832745 131.547928,11.9910444 L131.178851,11.9297354 L131.11754,12.2068417 L135.729871,13.159653 L135.821837,12.8525115 L135.422105,12.7905923 C135.176211,12.7290754 134.930316,12.6065162 134.745895,12.4527963 C134.59227,12.3298077 134.500136,12.2068236 134.469395,12.0530811 C134.469395,11.8993567 134.499652,11.5305717 134.622663,11.0383461 L136.129671,4.36640697 C136.252618,3.78242584 136.406235,3.38240782 136.590723,3.25901242 C136.836844,3.04379368 137.174723,3.01290416 137.636227,3.1051343 L138.005304,3.16705348 L138.097876,2.88995172 L133.454808,1.96787626 L133.454881,1.9681565 Z M80.6598734,4.30453299 L76.970551,5.53487093 L77.0931683,5.81136249 L77.4315897,5.68813886 C77.8621312,5.53440537 78.2004622,5.53440537 78.4463568,5.68813886 C78.6615145,5.780369 78.8773006,6.11846334 79.1230188,6.7336097 L81.2443114,12.3917178 L72.0820271,7.16481558 L69.2225989,8.11762689 L69.3145608,8.39472864 C69.621929,8.27174909 69.8682755,8.24094092 70.0219596,8.21019603 C70.3600646,8.21019603 70.637148,8.2406652 70.8215689,8.30215498 C71.0367267,8.33291342 71.3436428,8.48657007 71.7744103,8.73252466 L74.3572072,15.5888789 C74.5723514,16.1421241 74.6337934,16.5114063 74.6030475,16.7265573 C74.510837,17.0340288 74.2342147,17.2798025 73.7731534,17.4027459 L73.404081,17.5259696 L73.5273085,17.8024611 L77.1863461,16.5725752 L77.0943888,16.2960836 L76.6946564,16.4193073 C76.2948518,16.5730498 75.9560687,16.5730498 75.6794374,16.4193073 C75.4950164,16.3270771 75.2797547,15.9578175 75.064701,15.3426486 L72.7589875,9.28542641 L82.6598594,14.9118947 L82.9363597,14.8505902 L79.8003001,6.51801129 C79.5851514,5.96476601 79.49295,5.56519998 79.5544508,5.38078489 C79.6773981,5.0732908 79.9232836,4.85782347 80.3843449,4.70414422 L80.7504747,4.55182097 L80.6555521,4.30503019 L80.6598734,4.30453299 Z M144.144966,4.35470474 C143.653177,4.34317428 143.161388,4.39663206 142.669146,4.51962065 C141.685116,4.73483939 140.824033,5.19626132 140.08635,5.90318584 C139.348214,6.61056235 138.794951,7.44088226 138.487583,8.45516526 C138.087783,9.6850512 138.087692,10.8842013 138.518238,12.0218797 C139.102238,13.5283883 140.239952,14.5431233 142.02314,15.0348968 C142.976433,15.311628 143.89899,15.3420926 144.729336,15.1268558 C145.589967,14.9116597 146.420313,14.4502151 147.250207,13.7125548 L147.035013,13.4973677 C146.143646,14.1428205 145.40551,14.5121027 144.790321,14.6350461 C144.175585,14.7887705 143.530112,14.7577047 142.823165,14.5424724 C142.023556,14.3272537 141.377631,13.9277554 140.885841,13.405246 C140.394052,12.8827366 140.086684,12.2368318 139.994474,11.4679835 C139.902037,10.7298712 139.994343,9.90000326 140.270974,8.97792781 C140.639816,7.90172111 141.10132,7.0099295 141.654583,6.36447668 C142.239034,5.71902386 142.853771,5.31855384 143.529981,5.13413874 C144.206643,4.94966037 144.882853,4.98092054 145.5898,5.16540795 C146.420146,5.41138514 147.096808,5.84159662 147.527123,6.45631359 C147.988176,7.07103056 148.203333,7.93208632 148.203333,9.03902887 L148.449178,9.13099233 L149.309809,5.65693745 L149.003268,5.5649785 C148.880321,5.78019724 148.726112,5.93373637 148.541764,6.02601623 C148.387854,6.08750601 148.265019,6.11807462 148.142032,6.08732521 C148.018858,6.05658936 147.896146,5.96464849 147.711653,5.78017916 C147.096464,5.19619804 146.389066,4.82691586 145.620645,4.58102907 C145.128856,4.44266803 144.637067,4.36572445 144.144826,4.35419399 L144.144966,4.35470474 Z M151.770409,6.73356902 L151.647177,7.0106753 L152.016249,7.13328422 C152.446569,7.31776711 152.692911,7.5334966 152.785122,7.77964103 C152.846822,7.99488237 152.753987,8.39481 152.477356,8.97879112 L149.679853,15.2814481 C149.433733,15.7424858 149.279909,16.0498443 149.156875,16.1727877 C149.033928,16.2957672 148.880316,16.3879703 148.695823,16.3879703 C148.419187,16.3879703 148.172845,16.3574966 147.926951,16.2960113 L147.557874,16.1114787 L147.434646,16.3879703 L155.336721,19.5243828 L157.304781,17.464629 L156.997626,17.3414053 C156.382889,17.802443 155.859911,18.1102535 155.429144,18.2946686 C155.091039,18.4176482 154.783219,18.4480269 154.47585,18.4172821 C154.199219,18.3865462 153.738167,18.2640458 153.184904,18.0488316 L151.432001,17.3721909 C151.155144,17.2491887 150.970497,17.157284 150.909023,17.0650494 C150.816777,16.9420427 150.786406,16.8495278 150.786406,16.7572931 C150.817143,16.6343045 150.878336,16.3575598 151.093562,15.9577091 L152.507907,12.7598248 L154.782884,13.6516164 C155.182463,13.8361038 155.490735,14.0202206 155.644419,14.1741258 C155.828813,14.3586087 155.890169,14.5431413 155.920919,14.758559 C155.920919,14.912306 155.859364,15.2507845 155.736381,15.7425581 L156.012881,15.8351273 L157.519437,12.5142996 L157.242937,12.3916862 C156.966306,12.9141956 156.628653,13.2522899 156.290096,13.3444975 C156.013464,13.4367593 155.582697,13.3752921 154.998245,13.1293149 L152.753553,12.2379753 L154.444982,8.42537409 L157.273674,9.53186464 C157.765915,9.74710598 158.10402,9.93171995 158.288441,10.0855619 C158.503757,10.2700448 158.626767,10.4851596 158.657513,10.7310147 C158.688255,10.9770145 158.657879,11.3769195 158.5349,11.9301648 L158.842052,12.053393 L159.671946,9.87024373 L151.769871,6.73383118 L151.770409,6.73356902 Z M62.6923944,10.8539807 L62.477205,10.9465544 L63.0001829,20.3237002 C63.0616747,21.1540201 63.0312045,21.7384532 62.9082256,22.0765476 C62.846752,22.230272 62.6004506,22.4453642 62.2315636,22.7220004 L62.3547911,22.9984919 L65.5220395,21.4919834 L65.3681566,21.2455316 C64.8763674,21.4300235 64.5373584,21.5228232 64.3222007,21.4613289 C64.1376306,21.4305704 63.98396,21.3379516 63.9224683,21.1842271 C63.8302308,20.9997442 63.7686848,20.6924535 63.7379299,20.2621517 L63.6153171,18.4785684 L67.5202492,16.6647014 L68.8120996,17.7101722 C69.2424151,18.0483796 69.5194985,18.3248892 69.611709,18.5400401 C69.7039601,18.6937872 69.7039601,18.8478416 69.611709,19.0322657 C69.5194985,19.1859902 69.3040198,19.370012 68.9043101,19.585059 L69.0581931,19.8621607 L72.9631252,17.98637 L72.8405079,17.7405329 C72.4099664,17.9249977 72.0404465,17.9559957 71.7330784,17.8637565 C71.3949733,17.8022623 70.933469,17.4949716 70.3187326,17.0031528 L62.6932894,10.8537231 L62.6923944,10.8539807 Z M164.300183,12.1344904 C163.993353,12.123317 163.689515,12.1567694 163.389831,12.2374826 C162.559485,12.452724 161.975485,12.8829354 161.575906,13.5283883 C161.36055,13.9280899 161.268141,14.2972365 161.268141,14.7275384 C161.268141,15.12724 161.360663,15.5578583 161.575906,16.019348 C161.760327,16.4498081 162.191095,17.0951027 162.775094,17.9864423 C163.359546,18.8474981 163.697199,19.4007433 163.820598,19.6158943 C163.974233,19.954079 164.066448,20.2925349 164.066448,20.5691576 C164.066448,20.8766291 164.004893,21.1531387 163.881909,21.3687416 C163.635789,21.7684433 163.235984,22.0453823 162.713458,22.1683257 C162.221669,22.2913143 161.637669,22.1993056 161.053218,21.8918341 C160.53024,21.645857 160.099924,21.2762132 159.792556,20.8459113 C159.485025,20.4154512 159.331052,19.9545717 159.300315,19.5242698 C159.269578,19.0938052 159.392846,18.5095348 159.638741,17.7714224 L159.392896,17.648809 L157.547331,20.8150534 L157.824442,20.9382816 C158.009012,20.7538167 158.101172,20.6305208 158.224169,20.6305208 C158.347261,20.5690355 158.439585,20.6003002 158.562591,20.66179 C158.685538,20.7232843 158.961713,20.9383991 159.330559,21.3072428 C159.730138,21.7069671 159.976484,21.9526956 160.130169,22.0449032 C160.345331,22.1986502 160.62241,22.383558 160.899041,22.5063929 C161.790861,22.9674306 162.682229,23.090826 163.543312,22.8754536 C164.435131,22.6602349 165.05032,22.1988129 165.449898,21.4918884 C165.66502,21.1536585 165.756964,20.7230402 165.787705,20.2927383 C165.787705,19.8930141 165.695693,19.4619664 165.511205,19.0316646 C165.296047,18.6319629 164.896016,17.9559099 164.219354,17.0338344 C163.419745,15.896156 162.989882,15.0653841 162.866934,14.5736105 C162.805443,14.2354032 162.835822,13.9281577 162.989552,13.6515351 C163.204935,13.2825693 163.543266,13.0363661 164.035507,12.9134227 C164.527297,12.7904477 165.049822,12.8520007 165.542064,13.0979553 C166.003116,13.3439325 166.372862,13.6516526 166.649493,14.0819545 C166.95701,14.5123919 167.110545,14.9737461 167.141282,15.4347838 C167.141282,15.8958215 167.018104,16.4798026 166.77221,17.1257075 L167.04871,17.2795856 L168.862635,14.0817013 L168.586749,13.9584777 C168.432839,14.1429696 168.279349,14.2354936 168.156361,14.266234 C168.033188,14.2969924 167.910272,14.296563 167.787289,14.2043148 C167.664342,14.1735789 167.510129,14.0199223 167.325785,13.7739451 C166.864732,13.2206998 166.372943,12.8206818 165.849965,12.5440592 C165.331055,12.29424 164.812146,12.1525387 164.30092,12.1339209 L164.300183,12.1344904 Z M63.3338492,13.2518289 L67.0235738,16.2652981 L63.579694,17.8640142 L63.3338492,13.2518289 Z M55.6473346,14.4821668 L53.0645377,16.1423547 L54.6642084,24.997443 L46.4850503,20.3545219 L43.8407798,22.0454456 L44.0253183,22.2918929 C44.3941601,22.0459157 44.7015283,21.8921777 44.916686,21.8921777 C45.1625806,21.8614328 45.3471959,21.8919923 45.5011376,21.9534866 C45.7162953,22.0764978 45.9626419,22.3225609 46.2392733,22.7223348 L50.3286263,28.379539 C50.6669031,28.8713126 50.8516042,29.179123 50.8516042,29.394274 C50.8516042,29.7323683 50.6671426,30.0089909 50.2671527,30.2548777 L49.9287312,30.4700603 L50.1132697,30.7158974 L53.3415397,28.6254077 L53.1570058,28.4102251 L52.8185844,28.6254077 C52.4802534,28.8405496 52.1419224,28.9327391 51.8345542,28.8712448 C51.6193919,28.8097731 51.3120282,28.5025909 50.9431864,27.9799051 L46.7611709,22.1993056 L55.5550653,27.2110569 L55.7702547,27.0884435 L54.0485408,17.5259786 L58.2296523,23.3065781 C58.5679245,23.7983517 58.7526302,24.136898 58.7526302,24.3213131 C58.7526302,24.6594075 58.5681686,24.9360301 58.1681786,25.1819169 L57.8297572,25.397104 L58.0142957,25.6429411 L61.9196798,23.1221495 L61.7657968,22.9069624 L61.4273754,23.091495 C61.0890444,23.3373818 60.7511653,23.4295667 60.4433451,23.3373321 C60.2281919,23.3065736 59.9203672,22.9992829 59.5207885,22.4767283 L55.4314355,16.8186202 C55.0931542,16.3268466 54.9084576,15.9887523 54.9084576,15.7731493 C54.9084576,15.4657004 55.1241849,15.1584324 55.524098,14.9125456 L55.8312537,14.697363 L55.6467153,14.4821804 L55.6473346,14.4821668 Z M170.734123,20.3852578 C169.811566,20.3852578 169.105071,21.0618984 169.105071,21.9229542 C169.105071,22.7532741 169.811566,23.4597466 170.734123,23.4597466 L170.734737,23.4597466 L170.796048,23.4597466 L170.88801,23.4597466 L170.980582,23.4290921 L171.041893,23.4290921 L171.134465,23.3984376 L171.226427,23.3984376 L171.287738,23.3677877 L171.349659,23.3371332 L171.441621,23.3064787 L171.502927,23.2758287 L171.564853,23.2445595 L171.656815,23.1832551 L171.718121,23.1526006 L171.780042,23.0912961 L171.841349,23.0600314 L171.872004,22.9987224 L171.933925,22.937418 L171.995232,22.9067635 L172.025887,22.8448443 L172.087194,22.7835399 L172.117849,22.7222309 L172.149119,22.6609264 L172.210426,22.5990073 L172.241077,22.5070483 L172.271732,22.4451291 L172.271732,22.3838247 L172.302387,22.2918612 L172.333653,22.229942 L172.333653,22.1379831 L172.364309,22.0766786 L172.364309,21.984105 L172.364309,21.9228005 C172.364309,21.0617448 171.625721,20.3851041 170.733901,20.3851041 L170.734123,20.3852578 Z M179.682153,20.8774833 L179.497615,21.0926704 L179.80477,21.3385075 C180.143056,21.5844847 180.297012,21.8307331 180.297012,22.1073557 C180.327748,22.3533329 180.112631,22.7532605 179.682275,23.2450341 L176.945342,26.4121825 C176.084711,27.3957297 175.592922,28.13339 175.408501,28.5948798 C175.162534,29.2715204 175.162629,29.9477091 175.377846,30.6238978 C175.59323,31.3005384 176.177003,32.0079149 177.129845,32.7148395 C177.990927,33.3914801 178.821274,33.7598583 179.590146,33.7905942 C180.389755,33.8520659 181.035229,33.7288919 181.619228,33.4215335 C182.172491,33.0832131 182.787679,32.5297418 183.494626,31.6994219 L186.323318,28.4097821 C186.722896,27.9487444 187.030264,27.7024056 187.214685,27.6409339 C187.645227,27.5180583 188.014295,27.5794939 188.3524,27.8561165 L188.66017,28.1025683 L188.844704,27.8561165 L185.831592,25.5504759 L185.647058,25.7963129 L185.647058,25.7969231 L185.954209,26.0121102 C186.292499,26.2887329 186.44645,26.5346197 186.44645,26.8419782 C186.477187,27.0573551 186.26146,27.4259593 185.83081,27.9177329 L182.971382,31.2078246 C182.233246,32.0996162 181.61851,32.6528615 181.157457,32.8680125 C180.665668,33.1139987 180.112405,33.1754252 179.46648,33.0831996 C178.820555,32.9602562 178.205819,32.7143784 177.652556,32.2533317 C177.22224,31.9457426 176.883683,31.577143 176.729999,31.2078608 C176.545515,30.8080688 176.484064,30.4385606 176.51481,30.1004663 C176.545547,29.7314101 176.730483,29.33207 177.007051,28.8705803 C177.283682,28.4095426 177.591051,28.0402604 177.836945,27.7329019 L180.911531,24.1666395 C181.31111,23.7363376 181.618478,23.459263 181.833636,23.3977913 C182.171967,23.3053577 182.51075,23.3977416 182.848855,23.6436284 L183.186661,23.8894654 L183.3712,23.6742828 L179.681877,20.8764166 L179.682153,20.8774833 Z M42.3337716,23.2757835 L39.4436066,25.7355554 L39.628145,25.9507425 L39.9353008,25.6742509 C40.242669,25.4281653 40.5504892,25.3050908 40.8885942,25.3358402 C41.1039779,25.3665761 41.4418569,25.612621 41.9340981,26.1046884 L44.9472104,29.2709328 C45.7156309,30.1012527 46.208324,30.7471576 46.3927449,31.2081953 C46.5464742,31.6999689 46.5460403,32.2229303 46.3308238,32.8069114 C46.1154401,33.3908925 45.7468242,33.913402 45.1935615,34.3744397 C44.7937568,34.7432699 44.3632153,34.9588728 43.9324479,35.0818162 C43.5019064,35.1740463 43.1021017,35.1739559 42.7639967,35.1124707 C42.3641921,35.0202631 41.9955762,34.7742724 41.5340719,34.4670179 C41.1035304,34.1286975 40.7656514,33.7903772 40.4582832,33.4830187 L37.2300132,30.1007194 C36.7994717,29.6396816 36.584088,29.3318712 36.5533511,29.1167202 C36.4918775,28.7786259 36.6460136,28.4708154 36.9843446,28.1941928 L37.2915004,27.9177012 L37.0763065,27.7331686 L33.5714051,30.7159019 L33.7559435,30.931089 L34.0630947,30.6852519 C34.3704629,30.4084259 34.6778311,30.2854418 34.9544625,30.3161867 C35.2313199,30.3469226 35.6003877,30.6237034 36.061892,31.0850349 L38.9520571,34.1287879 C39.8438768,35.0820512 40.5200869,35.6664844 41.011876,35.8816353 C41.6573492,36.2199466 42.3652,36.343125 43.1336205,36.250696 C43.8713042,36.1277526 44.7016503,35.6969987 45.5934701,34.9588864 C46.4238162,34.2515098 46.9151533,33.5143015 47.1000263,32.806925 C47.3151704,32.1000004 47.2846144,31.4536436 47.0387199,30.9003984 C46.7620885,30.3164172 46.2702994,29.6397766 45.5321637,28.8713804 L42.5190514,25.704232 C42.0885099,25.2739301 41.8731262,24.9665716 41.8423893,24.7514207 C41.7809157,24.3516286 41.9040935,24.0133083 42.2114617,23.7674215 L42.5498831,23.4909299 L42.3346937,23.2757474 L42.3337716,23.2757835 Z M190.846851,30.5005159 C189.98622,30.5005159 189.31001,30.7465609 188.725558,31.2693641 C188.41819,31.6076845 188.172296,31.9460048 188.049348,32.3460228 C187.926342,32.715079 187.895284,33.1758907 187.956772,33.6369285 C188.018245,34.1287021 188.203014,34.8668144 188.510486,35.8508136 C188.818017,36.8348127 189.002728,37.4495297 189.033464,37.6954165 C189.064215,38.0952085 189.063785,38.403245 188.971543,38.7106035 C188.879333,38.9872261 188.725667,39.2331129 188.54116,39.3867921 C188.203055,39.7250402 187.741551,39.9093016 187.218573,39.8785657 C186.66531,39.8478299 186.173521,39.6329682 185.681732,39.1716412 C185.251412,38.7720752 184.974785,38.3105854 184.790364,37.8188119 C184.636635,37.3265863 184.605441,36.8348127 184.728443,36.4352467 C184.820653,36.0047188 185.128012,35.4819834 185.558337,34.8365306 L185.343143,34.621348 L182.668136,37.1733274 L182.883325,37.38851 C183.098709,37.2347584 183.252651,37.1733274 183.375566,37.1733274 C183.498464,37.1733274 183.590489,37.2043164 183.682722,37.296551 C183.774932,37.3887586 183.959701,37.6653722 184.236437,38.126419 C184.482557,38.6181925 184.666544,38.925551 184.758963,39.0484944 C184.912647,39.2636454 185.127999,39.4788144 185.343414,39.6939472 C186.081098,40.4013237 186.880707,40.7398701 187.772527,40.7706059 C188.664347,40.8013418 189.40203,40.5246468 190.017219,39.9710219 C190.324587,39.6634374 190.570934,39.325117 190.693881,38.8943632 C190.847628,38.4945711 190.87799,38.0644953 190.816498,37.6034575 C190.755025,37.1730201 190.570644,36.4047594 190.201762,35.3285527 C189.802007,34.0371951 189.586573,33.1146676 189.648047,32.6224421 C189.678784,32.2843477 189.802495,32.0077251 190.04839,31.7618383 C190.355984,31.4850258 190.786073,31.3313692 191.278314,31.3621186 C191.801292,31.3621186 192.262345,31.5465744 192.661923,31.9465517 C193.030765,32.2848721 193.276208,32.6842121 193.429892,33.1764377 C193.583648,33.6682112 193.583558,34.129701 193.460543,34.5907387 C193.337595,35.0517764 193.061059,35.5742858 192.599912,36.1275311 L192.815101,36.3120592 L195.552034,33.7605318 L195.306189,33.5453447 C195.090806,33.6990917 194.906742,33.7605318 194.8144,33.7605318 C194.691308,33.7605318 194.568234,33.6989064 194.475979,33.6066491 C194.383542,33.5144416 194.260572,33.3299903 194.137562,33.022216 C193.891441,32.4074991 193.522825,31.8845376 193.122795,31.4845196 C192.446133,30.8693506 191.67726,30.5312563 190.846914,30.5005204 L190.846851,30.5005159 Z M32.2810237,31.9767407 L29.144964,35.3278521 L29.3908089,35.5123848 L29.6366537,35.2358932 C29.8210746,35.0513425 30.005595,34.9284398 30.2821269,34.836178 C30.4665478,34.7746882 30.6207065,34.7747786 30.774368,34.805528 C30.958789,34.8669997 31.2354203,35.0823315 31.6657358,35.420245 L34.0948486,37.4189792 L30.7124424,41.0471653 L30.7124424,41.0477755 L28.2833296,39.0797772 C27.883525,38.7416828 27.6378564,38.4953441 27.545646,38.3416648 C27.4533858,38.1879856 27.4222331,38.0344871 27.4837248,37.8498912 C27.5454245,37.6040044 27.6684034,37.3884015 27.8221463,37.2035344 L28.0986466,36.9270429 L27.8527972,36.7425103 L24.7474744,40.0940737 L24.9626683,40.2786064 L25.2391686,40.0021148 C25.3928527,39.8482096 25.6081912,39.6946297 25.853905,39.6023996 C26.0383259,39.5409098 26.192453,39.54039 26.3461461,39.5711304 C26.530567,39.6326021 26.8379352,39.8479384 27.2375139,40.1858474 L32.679739,44.6750893 C33.2027169,45.0746598 33.4481594,45.3820138 33.5096331,45.5664289 C33.5711067,45.8737873 33.4479244,46.2123337 33.1405562,46.550428 L32.8947114,46.8269196 L33.1099007,46.9807977 L36.2464124,43.6292342 L35.9999528,43.4447061 L35.754108,43.7211932 C35.569687,43.9057484 35.3544299,44.0594005 35.1086348,44.1209083 C34.9239878,44.1823981 34.7706699,44.1829224 34.6168456,44.1521775 C34.4631615,44.0907058 34.1246045,43.9063314 33.7250259,43.5374606 L31.1734178,41.4465189 L34.555372,37.7875969 L37.107432,39.9092745 C37.5996732,40.3088405 37.8758525,40.616199 37.9373262,40.8006141 C37.968063,41.1079725 37.875622,41.4460669 37.5682538,41.7534254 L37.322409,42.0305316 L37.5375983,42.2144495 L40.67411,38.863338 L40.4282651,38.6788054 L40.1824203,38.955297 C39.9979994,39.1398567 39.7821275,39.262782 39.5360431,39.3550122 C39.3516221,39.4165065 39.1980782,39.4164116 39.0442539,39.3856667 C38.859833,39.324195 38.5832017,39.1088587 38.1528862,38.7709497 L32.7097571,34.2821598 C32.3101784,33.9748013 32.0335471,33.7289145 31.9720734,33.5752353 C31.8798358,33.4215561 31.8492753,33.2366664 31.9107625,33.0830097 C31.9417253,32.8371229 32.0640805,32.621972 32.2485737,32.4375569 L32.4998924,32.1595783 L32.2842827,31.9751632 L32.2810237,31.9767407 Z M201.33353,39.9712253 L191.740027,42.5539405 C190.90968,42.7998183 190.294944,42.8919445 189.895365,42.8304276 C189.710945,42.7996917 189.434313,42.6767664 189.095756,42.3693899 L188.849911,42.5533077 L191.063866,45.1052872 L191.309711,44.9514045 C191.002167,44.5211026 190.848659,44.2137442 190.848659,44.0293291 C190.848659,43.844688 190.909599,43.691289 191.032578,43.5682913 C191.186262,43.445122 191.494082,43.3222102 191.955135,43.1992306 L193.769059,42.7070051 L196.536729,45.8741535 L196.536729,45.8747637 L195.737119,47.3198005 C195.460488,47.7808383 195.24533,48.0881968 195.060909,48.241876 C194.907225,48.3341107 194.753085,48.3651945 194.568668,48.3344497 C194.353511,48.3037138 194.108068,48.1188648 193.8007,47.8114882 L193.58551,47.9960208 L196.352276,51.1939051 L196.598121,51.0093725 C196.3213,50.6710521 196.198303,50.3331838 196.229049,49.9946375 C196.229049,49.687279 196.413592,49.1946014 196.782763,48.5184128 L201.483689,40.151482 L201.330005,39.9666149 L201.33353,39.9712253 Z M199.119123,41.2621309 L196.844147,45.3206189 L194.415034,42.5539405 L199.119123,41.2621309 Z M210.649336,42.9530546 C210.649336,42.9530546 210.649336,42.9530546 210.649336,42.9530546 Z M210.649951,42.954275 L210.649951,42.9837045 L210.619295,43.0456237 L210.557374,43.1375827 L210.496063,43.2608108 L210.404101,43.4453434 L210.280874,43.6298715 L210.126991,43.8757086 L209.973723,44.1215457 L209.789184,44.4286917 L209.57399,44.7364479 L209.327535,45.074244 L209.081686,45.4739637 L208.805186,45.8430244 L208.498034,46.2740088 L208.190268,46.7043785 L207.851847,47.1654162 L207.48277,47.6576418 L207.083047,48.1494153 L206.683314,48.6416409 L206.252931,49.1646023 L205.791427,49.6871118 L205.330375,50.240809 L204.838133,50.7945063 L204.315608,51.3789394 L203.761893,51.9326367 L203.208178,52.5161658 L202.623726,53.1005989 L202.00899,53.6850321 L201.394254,54.2694652 L200.74878,54.8538983 L200.07257,55.4075956 L199.365172,55.9920287 C193.98442,60.388611 132.426707,98.1760769 129.416307,100.574377 C126.372458,102.941941 120.83757,109.306974 116.317902,128.06217 C112.658864,143.189631 110.291225,137.531523 98.2075868,137.070485 C91.1354063,136.793863 71.5185354,131.628884 73.0250915,146.787081 C73.0250915,146.787081 75.4542043,143.404782 102.235466,147.002268 C112.781811,148.447305 121.390833,145.003534 123.881419,137.070521 C126.372006,129.015017 130.000758,115.333044 135.442983,108.138144 C137.964307,104.817316 187.284246,74.5013737 200.876248,66.4151335 C205.826684,63.4943239 221.752876,53.8703873 210.654173,42.9555451 L210.649951,42.954275 Z M23.5802437,47.9036506 L21.7966041,50.6395931 L22.0418342,50.7934712 C22.1648041,50.6398462 22.3496635,50.5477246 22.5340754,50.5169797 C22.7799925,50.4862348 23.0258645,50.5171153 23.2410222,50.6708578 C23.9176843,51.039914 24.471399,51.9314796 24.9324513,53.2843089 C23.6410529,53.3765617 22.3189176,53.4071031 20.9045719,53.3456134 C20.9660636,52.2694067 20.9350737,51.4702746 20.7813444,50.9473132 C20.6275925,50.3936159 20.2891033,49.9940499 19.7973142,49.7174272 C19.3055251,49.4406916 18.8137359,49.3485112 18.2604732,49.5022401 C17.7072105,49.6254095 17.276443,49.9632779 16.9378859,50.4862393 C16.5689221,51.0399366 16.41536,51.6239177 16.4460968,52.2390867 C16.5075931,53.0386707 16.9378859,53.6841235 17.7370432,54.1144254 C18.013765,54.2990665 18.3522316,54.4218155 18.7210735,54.5447951 C19.0593186,54.6369529 19.5509676,54.7296622 20.166156,54.8219014 C20.0738777,56.2054666 20.1970149,57.2504854 20.5352329,57.9578619 C20.8427141,58.6647864 21.2729165,59.1877479 21.8261793,59.5262942 C22.4101789,59.864497 23.0258193,59.9259506 23.7327661,59.7414813 C24.4094282,59.5570662 24.9934277,59.0955765 25.454932,58.388652 C25.7932631,57.8661425 25.977458,57.3431811 26.0696684,56.8202197 C26.161906,56.2665224 26.1309296,55.5595979 25.9464364,54.72973 C26.7460457,54.5760462 27.3607821,54.3607145 27.8218344,54.115013 C28.2523759,53.8691262 28.5911589,53.5622197 28.8370534,53.1929376 C29.1446296,52.7318998 29.2676175,52.2089384 29.2061258,51.6552411 C29.1139153,51.1322797 28.8062759,50.5790344 28.2528324,50.0257892 L27.8837555,50.1796673 C28.1913,50.4562899 28.3452598,50.7636484 28.3759966,51.0710069 C28.4067334,51.3783699 28.3140167,51.6857239 28.1295371,51.9930824 C27.9451161,52.3004408 27.6377479,52.5467796 27.2381693,52.7619306 C26.8383646,52.9465717 26.2853279,53.1005854 25.5164554,53.2234203 C25.2088612,52.3320807 24.8090565,51.5013088 24.3172674,50.6714409 C23.8562151,49.841121 23.6098686,49.3186115 23.5791317,49.0419889 C23.5481689,48.7958761 23.6403884,48.4263679 23.855632,48.0268019 L23.5791317,47.9041885 L23.5802437,47.9036506 Z M18.4878759,50.2174272 C18.7487547,50.2174362 19.014018,50.2862664 19.2445441,50.4246365 C19.7055964,50.7014852 19.9826798,51.0398055 20.1671007,51.5320311 L20.1977562,51.62399 L20.2284071,51.7165637 L20.2284071,51.8085226 L20.2590626,51.9010963 L20.2903282,52.0237052 L20.2903282,52.1162789 L20.3209837,52.2082378 L20.3209837,52.3314614 L20.3209837,52.4546896 L20.3516391,52.5466485 L20.3516391,52.6698767 L20.3209837,52.7924856 L20.3209837,52.9157138 L20.3209837,53.0383227 L20.3209837,53.1922008 L20.2903282,53.315429 C19.6136662,53.1925488 19.0911403,53.0999209 18.7525832,53.0076727 C18.4143652,52.9153251 18.1378469,52.8235333 17.9226891,52.7005267 C17.6459447,52.5161116 17.4309,52.2700666 17.2772159,51.9316785 C17.1234821,51.5626223 17.1845037,51.1628302 17.4304887,50.7940001 C17.6149774,50.4864156 17.891541,50.3325103 18.230098,50.2403028 C18.3146514,50.2249529 18.4012478,50.2176125 18.4882059,50.2176215 L18.4878759,50.2174272 Z M25.2097471,54.8214765 L25.3329747,54.8214765 L25.3323644,54.8220912 C25.4246111,55.4987319 25.4557728,55.9905055 25.3942856,56.2978639 C25.3635488,56.6359583 25.2403393,56.9125809 25.0558642,57.1892036 C24.7177591,57.711713 24.2562548,58.0190715 23.7029921,58.0805432 C23.1189925,58.1729767 22.5960146,58.0806788 22.0734887,57.8040561 C21.6124364,57.527203 21.2738793,57.1581513 21.0587216,56.6663777 C20.87426,56.1746042 20.7822258,55.5594352 20.7822258,54.8525107 C21.5510983,54.914005 22.1662867,54.9450798 22.7195495,54.9450798 L22.8115113,54.9450798 L22.9347434,54.9450798 L23.0573607,54.9450798 L23.1805882,54.9450798 L23.3038157,54.9450798 L23.3957776,54.9450798 L23.4570885,54.9450798 L23.5190096,54.9450798 L23.6109715,54.9450798 L23.6722779,54.9144298 L23.7648545,54.9144298 L23.8568163,54.9144298 L23.9187374,54.9144298 L24.0106993,54.9144298 L24.1032759,54.9144298 L24.1952377,54.8831652 L24.2871996,54.8831652 L24.3797762,54.8831652 L24.471738,54.8831652 L24.5949655,54.8831652 L24.6869274,54.8525107 L24.779504,54.8525107 L24.9021213,54.8525107 L24.9946934,54.8525107 L25.1179254,54.8525107 L25.2098873,54.8218562 L25.2097471,54.8214765 Z M221.936143,58.9696752 C221.92724,58.966617 221.954216,58.9982659 221.98187,59.0299916 L221.995358,59.0036266 C221.965575,58.9834539 221.947138,58.9722127 221.936143,58.9696752 Z M221.98187,59.0299916 L221.749513,59.4946453 L221.473013,59.9868709 L221.196513,60.5098323 L220.919398,61.0626256 L220.612247,61.6470587 L220.458359,61.9241605 L220.273825,62.2313065 L220.089287,62.5390582 L219.905363,62.8462043 L219.690174,63.1539605 L219.474365,63.4611066 L219.259176,63.7995173 L219.013331,64.1066634 L218.736831,64.4450696 L218.490986,64.7834803 L218.18383,65.0906218 L217.876064,65.459687 L217.537643,65.7980978 L217.199221,66.1365085 L216.830149,66.4743045 L216.461072,66.8433652 L216.030693,67.181776 L215.600305,67.5508412 L215.138801,67.9199019 L214.677749,68.2889671 L214.154771,68.6273778 L213.632245,68.9964385 C202.624395,76.3757542 160.100458,102.756604 150.291796,108.628959 C144.757361,111.919051 140.329451,118.1295 138.976579,120.927819 C137.470022,124.033043 135.225331,131.750453 134.210564,145.002124 C134.02607,147.554103 127.323256,151.766271 128.15315,153.642062 C128.952307,155.456381 134.057332,154.564589 133.872459,155.97889 C133.687983,157.208776 132.181029,159.084115 132.181029,160.283265 C132.181029,161.697566 135.194142,160.406023 134.456006,161.943453 C133.195345,164.464696 135.194594,165.018393 135.932277,166.924468 C136.700698,168.799807 135.686225,170.95222 136.362661,172.550936 C137.592586,175.318067 141.95857,175.840576 148.938088,175.686897 C155.948795,175.563917 159.115591,180.39129 157.578298,184.695665 C155.579953,190.383604 150.906148,190.291397 143.649547,195.180205 C136.362209,200.038277 136.054841,206.218442 140.297878,211.476081 C143.5266,215.473097 155.672164,217.410359 163.297607,209.662213 C164.865637,207.909366 159.853275,210.27693 152.566389,206.464329 C152.566389,206.464329 147.831111,203.051746 150.352434,198.470749 C152.84302,193.858563 156.901636,191.859829 161.39102,189.246378 C165.849215,186.602191 171.722207,185.156702 171.445576,179.499498 C171.168945,173.87303 165.296404,173.073898 162.928765,172.920219 C160.530389,172.797239 156.840615,173.012028 153.550419,172.858299 C148.569246,172.612413 147.063142,170.244848 146.755774,160.744307 C146.663541,157.700554 142.389337,159.330006 144.756977,155.302254 C146.017638,153.211312 142.389337,154.042084 139.929488,152.996613 C137.83848,152.04335 142.358149,147.646316 145.49466,143.464884 C146.47869,142.142791 144.941397,140.452319 145.49466,134.210682 C146.017638,128.768629 148.538961,121.665936 155.8263,116.68492 C159.393127,114.255884 174.950929,104.570476 179.47105,101.987761 C185.805095,98.3288385 216.460552,78.4969843 221.718356,74.5307038 C230.895105,67.598414 222.55277,59.6857409 221.981368,59.0298922 L221.98187,59.0299916 Z M10.9148435,61.2474927 L9.13120391,65.3679044 L9.43896987,65.4905178 L9.56158266,65.1527218 C9.65381572,64.9375709 9.80800155,64.722203 10.023087,64.5682887 C10.1768163,64.4453046 10.3303964,64.414406 10.4841393,64.414406 C10.6686054,64.414406 11.037402,64.5063333 11.5599279,64.7215521 L14.5120186,65.8592305 L12.574695,70.3480204 L12.574695,70.3486306 L9.59277149,69.1802163 C9.10098238,68.9955752 8.76242535,68.8421717 8.63947808,68.7191786 C8.51649464,68.5960092 8.4242887,68.4419277 8.4242887,68.2881942 C8.39354284,68.0423074 8.42399037,67.7964206 8.51625055,67.5812697 L8.67013353,67.2428589 L8.39363324,67.1196308 L6.57970889,71.2400425 L6.85620918,71.3632706 L7.01009216,71.0248599 C7.13306204,70.7789731 7.28665121,70.5943591 7.47114445,70.4404268 C7.62489635,70.3174518 7.77843128,70.2558987 7.93219674,70.2558987 C8.11666286,70.2558987 8.4859115,70.3785528 9.00888945,70.5630447 L15.6810393,73.14576 C16.2957757,73.3916468 16.6646175,73.5761749 16.756828,73.760477 C16.9413032,74.0373256 16.9413032,74.375194 16.756828,74.775212 L16.602945,75.1136227 L16.910711,75.2061964 L18.6943505,71.0857847 L18.41724,70.9631713 L18.2639673,71.3322365 C18.1717342,71.5473874 17.9867935,71.731468 17.802463,71.8850298 C17.6487111,72.0080048 17.4951716,72.0695578 17.3414107,72.0695578 C17.1569445,72.0695578 16.7881479,71.9469128 16.2959068,71.7624118 L13.1286584,70.5632617 L15.0967188,66.0740198 L18.2327784,67.2731699 C18.8475148,67.5190567 19.2172607,67.7342076 19.3094711,67.8878869 C19.4939463,68.1647355 19.4939463,68.5026039 19.3094711,68.9026219 L19.1555881,69.2410326 L19.4320884,69.3642562 L21.2460128,65.2131087 L20.9695125,65.1211498 L20.7849786,65.4589458 C20.6927229,65.6740967 20.5390795,65.8587107 20.3545953,66.0433789 C20.200866,66.1356136 20.0472904,66.197257 19.893543,66.197257 C19.7090543,66.197257 19.3398283,66.1053387 18.8168503,65.8901155 L12.1447004,63.3381361 C11.6529113,63.1227591 11.3143543,62.9693511 11.191407,62.8770983 C11.0376777,62.7541549 10.9762177,62.5999604 10.9762177,62.4156086 C10.9147259,62.1697218 10.9765521,61.923835 11.0687897,61.7086841 L11.2247339,61.3696858 L10.9169137,61.2476464 L10.9148435,61.2474927 Z M5.96440748,73.1155982 L3.44353628,81.3550656 L5.90338586,82.1546497 L5.99596244,81.8775479 C5.53491015,81.6931328 5.1651643,81.5086183 4.95000656,81.2320951 C4.70401256,80.9554725 4.6122948,80.7095857 4.58154894,80.4022272 C4.55080308,80.1868502 4.64309942,79.8489819 4.76608286,79.3874922 L5.16581519,78.1576062 L13.3137844,80.4022272 C13.897784,80.5561324 14.2666258,80.7407916 14.4203099,80.8944528 C14.635558,81.1405655 14.666548,81.4784339 14.5435374,81.9091878 L14.4203099,82.2475985 L14.7280759,82.3395574 L16.0506631,78.0659185 L15.7428972,77.9739596 L15.6509353,78.3117556 C15.5279654,78.7113216 15.3121432,78.9883962 15.0352949,79.1113396 C14.8200468,79.2036014 14.3898217,79.1424778 13.7443485,78.9887262 L5.59637927,76.7441053 L6.02676255,75.3298042 C6.14973242,74.9302382 6.33388665,74.5916919 6.54928848,74.3765409 C6.76453661,74.1612273 7.07226642,74.0384059 7.41082344,73.9461712 C7.62604898,73.9154128 7.96408619,73.9153179 8.4255905,73.9768212 L8.51755235,73.7003342 L5.96549231,73.115901 L5.96440748,73.1155982 Z M11.2534005,83.3542518 L11.130173,83.5688196 C11.7756462,83.9686162 12.2064136,84.3381198 12.4527602,84.6454783 C12.729473,84.9837987 12.8830486,85.2909311 12.9138125,85.6294775 C12.9753042,85.9985337 12.9136588,86.5520049 12.7599295,87.351589 L12.5753956,88.0892494 C12.4524031,88.76589 12.3297316,89.1347202 12.2682399,89.2576636 C12.1760023,89.3805663 12.0527069,89.4727558 11.9604739,89.5035007 C11.745271,89.5342456 11.4374959,89.5344309 11.0071805,89.4421917 L4.11987287,88.1503821 C3.50513648,88.0272127 3.10510582,87.9042964 2.95142172,87.7813168 C2.79767434,87.6583734 2.67512484,87.504875 2.61361504,87.2588074 C2.55212332,87.0126946 2.58267029,86.6436384 2.67492143,86.0903932 L2.39842566,86.0290887 L1.41439543,90.6720098 L1.69089572,90.7333143 L1.78347231,90.3335991 C1.87570536,89.9647689 2.05973303,89.6876943 2.33628304,89.534015 C2.52077176,89.4110355 2.95147144,89.44169 3.62813348,89.5646695 L10.699862,90.9174989 C11.3150504,91.0099324 11.7146291,91.1635845 11.8375763,91.2865596 C12.1142981,91.5326723 12.1755955,91.8705407 12.1140766,92.3012946 L12.0221148,92.6703598 L12.329266,92.7316642 L14.0202431,84.7991033 L11.2534773,83.3540664 L11.2534005,83.3542518 Z M213.971765,90.1188504 L213.941724,90.1495004 L213.911069,90.1801549 L213.880413,90.2108094 L213.818492,90.2414594 L213.757186,90.3027683 L213.695875,90.3646875 L213.603303,90.425992 L213.418764,90.5798746 L213.20357,90.7950572 L212.92707,91.0102398 L212.65057,91.2560814 L212.312153,91.5325729 L211.973731,91.8090599 L211.574003,92.1474707 L211.174276,92.4858814 L210.743892,92.8242921 L210.282388,93.1933528 L209.821336,93.5930726 L209.329095,93.9927877 L208.806569,94.3925029 L208.283591,94.8234873 L207.729876,95.2538525 L207.20735,95.6842267 L206.069636,96.5448305 L204.901185,97.4054342 L203.76347,98.266038 L202.595019,99.065622 L202.042208,99.4653372 L201.457757,99.8343979 L200.904042,100.203463 L200.381064,100.572528 C194.323651,104.354394 167.14281,118.805667 161.116133,123.786682 C155.05872,128.767697 155.304614,133.010149 155.304614,133.010149 L154.321036,145.340196 C154.321036,145.340196 150.539051,149.152797 150.047262,150.567098 C149.555473,151.981399 152.568134,152.227286 154.812825,153.3957 C157.088254,154.59485 154.382569,155.670605 155.305066,156.746812 C157.088706,158.745094 158.471411,157.115999 157.272223,160.528677 C157.087725,161.051186 158.779231,162.650355 158.59481,163.541694 C158.287216,164.955995 157.518569,165.909258 158.84066,167.16988 C160.347216,168.584181 165.205441,170.982933 176.336238,168.707577 C188.419876,166.217069 196.352688,175.625403 202.379364,177.224119 C204.439183,177.74708 211.265921,179.899042 222.027424,171.536179 C226.670492,167.938728 219.167544,171.19733 208.406041,166.677655 C196.937139,161.881054 193.493711,161.573696 185.776058,163.018733 C179.165381,164.248619 174.276419,165.325277 171.693622,164.556429 C169.479667,163.879788 171.324563,160.589697 169.66454,160.036451 C166.343608,158.929509 168.619036,157.331245 166.651428,156.255038 C164.65263,155.148095 165.821534,154.717342 165.76006,152.503909 C165.729314,150.966664 164.037894,151.396966 161.608781,150.044137 C159.732931,148.96793 164.191578,147.000384 164.837051,145.431951 C165.574735,143.494689 164.652364,140.78903 165.144207,136.82275 C166.035575,129.843 176.459425,124.954644 181.994312,121.880155 C188.051726,118.590516 205.331694,108.044504 209.421047,105.308109 C218.983362,98.9127925 213.971905,90.1187239 213.971905,90.1187239 L213.971765,90.1188504 Z M11.8681369,93.254811 C11.8066406,93.6851129 11.6524729,93.9929233 11.4066326,94.2080743 C11.1606431,94.4232252 10.6382121,94.669112 9.8697916,94.884263 L0.276287845,97.7436009 L0.276287845,97.9894425 L9.00916065,102.478684 C9.77803315,102.878476 10.3001071,103.216797 10.5157168,103.493419 C10.6387183,103.647099 10.7308158,103.923631 10.7615616,104.354023 L11.0693276,104.384678 L11.4071388,101.095038 L11.0999831,101.064383 C11.00775,101.556609 10.8845451,101.894703 10.7615616,102.017647 C10.6078324,102.171371 10.4543652,102.232314 10.2697725,102.201565 C10.0853064,102.201565 9.77753142,102.07901 9.34721594,101.863768 L7.68697568,101.002261 L8.0867035,96.9442247 L9.71620694,96.4519992 C10.2694697,96.2982476 10.6387635,96.2368166 10.8846581,96.2368166 C11.0691468,96.2675524 11.2228038,96.3601713 11.3150368,96.5139228 C11.4380203,96.6676021 11.4689243,96.9441343 11.4689243,97.3745266 L11.7760756,97.4051766 L12.1758034,93.2847649 L11.8686522,93.2541104 L11.8681369,93.254811 Z M7.44067884,97.1288839 L7.10225742,100.726334 L2.79774666,98.4817132 L7.44081444,97.1288839 L7.44067884,97.1288839 Z M8.3320466,104.968785 L8.3320466,105.307201 C9.00870864,105.645521 9.53123457,105.953105 9.8697916,106.260464 C10.1465134,106.506351 10.2998991,106.783425 10.3923175,107.029312 C10.4845551,107.305935 10.5154546,107.736237 10.5462005,108.320218 L10.5768514,110.073065 C10.5768514,110.38065 10.5463813,110.565291 10.4848896,110.657498 C10.4233888,110.780387 10.3313999,110.841845 10.2083893,110.903331 C10.1161336,110.934076 9.808327,110.96464 9.31656953,110.96464 L5.65753198,110.995904 L5.65753198,108.68936 C5.6267816,108.258832 5.68852193,107.920512 5.78075951,107.705361 C5.90375199,107.490065 6.02657722,107.367221 6.2418118,107.274991 C6.3955637,107.182842 6.73360091,107.090644 7.25657885,107.029154 L7.25657885,106.752662 L3.41312039,106.783312 L3.41312039,107.090458 C4.0585936,107.090458 4.48890907,107.244901 4.73480362,107.490788 C4.91930138,107.705939 5.01182825,108.105505 5.04256959,108.689938 L5.04256959,110.995579 L0.676133185,111.056888 L0.645482248,108.19755 C0.614736388,107.644305 0.645816737,107.30621 0.738054316,107.091059 C0.861046794,106.814211 1.01450489,106.62957 1.22984343,106.506626 C1.445078,106.383457 1.84457981,106.229823 2.45976821,106.137561 L2.42911276,105.829805 L0,105.953029 L0.0919618516,114.038817 L0.399727816,114.038817 L0.399727816,113.669751 C0.399727816,113.23945 0.491662547,112.932091 0.706883565,112.747676 C0.860626423,112.624687 1.29133515,112.532489 1.998734,112.532489 L9.25533546,112.43992 C9.77786139,112.43992 10.1467032,112.470999 10.3008393,112.532489 C10.4853054,112.593961 10.638985,112.68582 10.7312181,112.870285 C10.8542015,113.085436 10.9157565,113.30122 10.9157565,113.546926 L10.9157565,113.915991 L11.2235225,113.915991 L11.1309504,105.829751 L8.33299583,104.968243 L8.3320466,104.968785 Z M11.2226637,114.685381 L10.9148977,114.716036 L10.9762086,115.054447 C11.0069545,115.300333 10.9765928,115.546672 10.8535913,115.792559 C10.7921177,115.946383 10.6995637,116.06948 10.5458253,116.13097 C10.392096,116.223128 10.0232994,116.315308 9.47003666,116.376807 L2.30564567,117.144751 C1.75238292,117.206241 1.4142779,117.206761 1.22985699,117.17602 C1.04535923,117.145284 0.891711292,117.052652 0.799473713,116.898914 C0.645730854,116.683763 0.553719281,116.468594 0.522973422,116.222725 L0.461052291,115.853665 L0.153896543,115.884315 L0.707611304,120.342369 L1.04541799,120.281064 L0.984107075,119.943264 C0.953361215,119.666641 0.983835868,119.451038 1.07607345,119.205151 C1.16833363,119.051314 1.26083789,118.89758 1.38383941,118.836091 C1.56831457,118.774601 1.93710216,118.682289 2.49036491,118.620903 L5.65761334,118.282497 L6.27234973,123.078646 L3.07436448,123.447711 C2.55183855,123.509201 2.18299672,123.509725 1.9985758,123.478975 C1.81409612,123.417567 1.69118048,123.324849 1.56819253,123.201869 C1.41446323,122.986718 1.32182788,122.771549 1.29108202,122.525681 L1.26042656,122.15662 L0.953275333,122.18727 L1.50608607,126.614588 L1.81385656,126.583933 L1.75254564,126.214873 C1.7218043,125.968986 1.75217951,125.722647 1.87516295,125.47676 C1.93665467,125.322932 2.05994548,125.200454 2.18292891,125.138964 C2.33668533,125.04673 2.70545484,124.985281 3.25871759,124.923777 L10.4231086,124.124193 C11.0685818,124.062703 11.5296341,124.062518 11.6837702,124.185498 C11.9912288,124.339177 12.1452745,124.646535 12.2067481,125.046101 L12.2680545,125.445817 L12.5752103,125.384512 L12.0223995,120.957194 L11.7146336,120.987849 L11.7452845,121.356909 C11.7760304,121.602796 11.7455648,121.849135 11.6533227,122.095022 C11.5610896,122.248877 11.4685401,122.371947 11.3455567,122.433432 C11.161068,122.525681 10.7922939,122.58713 10.269768,122.648615 L6.88736185,123.01768 L6.27262546,118.22108 L9.65503163,117.85201 C10.3009569,117.759775 10.7308203,117.790434 10.9156932,117.882664 C11.1923924,118.06708 11.3771975,118.343702 11.4386712,118.774004 L11.4693266,119.143069 L11.7764779,119.112415 L11.2236671,114.685097 L11.2226637,114.685381 Z M5.34921908,132.734104 L3.0127688,133.441481 L5.13406135,140.974024 L5.41117637,140.88145 L5.31859979,140.543654 C5.25710807,140.297767 5.25710807,140.051429 5.31859979,139.805542 C5.38009151,139.620982 5.44207592,139.498079 5.56505936,139.405827 C5.71881126,139.313393 6.08758529,139.190409 6.61056323,139.067416 L13.5896293,137.314569 C14.2355545,137.16084 14.6355852,137.130465 14.8507429,137.191955 C15.1582241,137.314903 15.3732688,137.591512 15.4962161,138.021823 L15.588178,138.359619 L15.8959439,138.29831 L14.6660191,133.963199 L14.3889086,134.024504 L14.4814852,134.393565 C14.5429769,134.639451 14.5429769,134.88579 14.4814852,135.131677 C14.419998,135.316237 14.3586238,135.439157 14.2356359,135.531392 C14.0819066,135.623826 13.7122059,135.746823 13.18968,135.869803 L9.77744101,136.730407 L9.25446307,134.885804 C9.16222097,134.547709 9.1623159,134.270635 9.22380761,134.08622 C9.25454443,133.870843 9.37722954,133.717005 9.53096336,133.563258 C9.71545208,133.409443 9.99246767,133.286459 10.4227831,133.194198 L10.3302065,132.917706 L6.70190582,133.809046 L6.76382695,134.116797 C7.37901536,134.024567 7.80887881,134.055127 8.05477337,134.178106 C8.30075833,134.331786 8.48540525,134.608318 8.60848813,135.03871 L9.13101406,136.883313 L4.91871377,137.929236 L4.27324056,135.715351 C4.15023,135.192389 4.08861172,134.762087 4.11935758,134.485465 C4.1500944,134.208842 4.27339876,133.962503 4.42712354,133.747352 C4.6423536,133.501466 4.95010148,133.255127 5.41115377,133.00924 L5.34923264,132.732748 L5.34921908,132.734104 Z M13.2286931,140.777857 C12.4828733,140.774015 11.7144528,140.912484 10.9148435,141.18922 C9.37755047,141.742917 8.27057296,142.664541 7.62509976,143.925163 L7.56379336,144.048391 L7.50187223,144.171614 L7.44056584,144.294228 L7.37925492,144.417451 L7.34798925,144.54068 L7.31733379,144.663288 L7.2560274,144.786517 L7.22537194,144.909126 L7.19471648,145.032354 L7.16406554,145.155577 L7.13279535,145.278191 L7.10214441,145.401414 L7.10214441,145.524028 L7.07148896,145.647256 L7.07148896,145.77048 L7.07148896,145.862439 L7.07148896,145.985662 L7.0408335,146.108276 L7.07148896,146.231499 L7.07148896,146.354727 L7.07148896,146.477341 L7.07148896,146.600564 L7.10214441,146.723178 L7.10214441,146.846402 L7.13279535,146.96963 L7.16406554,147.092239 L7.19471648,147.184812 L7.22537194,147.307426 L7.2560274,147.430649 L7.28667833,147.553873 L7.34798925,147.676486 L7.37925492,147.799715 C7.90178085,149.091072 8.76286381,150.0136 10.0542622,150.628317 C11.5300816,151.304957 13.0673746,151.366429 14.7276148,150.782195 C16.3571183,150.228497 17.4948326,149.275234 18.1714946,148.014612 C18.8174198,146.753991 18.8788935,145.431445 18.3560331,144.078616 C17.8335071,142.756522 16.8490249,141.803711 15.4039424,141.219278 C14.6965435,140.92717 13.9742283,140.781107 13.2288604,140.77726 L13.2286931,140.777857 Z M14.4929708,142.23329 C14.9571872,142.230401 15.3734903,142.292262 15.7423322,142.419047 C16.7570992,142.757368 17.4333092,143.372311 17.8021511,144.294386 C18.1403691,145.155442 18.0482761,145.954574 17.5563062,146.723422 C16.910381,147.738157 15.7423819,148.537289 14.0514048,149.121722 C12.3911645,149.706155 10.9763668,149.829099 9.86938931,149.490787 L9.77742745,149.460133 L9.68485087,149.429478 L9.62353995,149.398828 L9.53096788,149.368174 L9.46965697,149.336905 L9.37769512,149.2756 L9.31577399,149.244946 L9.22381213,149.214296 L9.16250574,149.152377 L9.10058461,149.121722 L9.0392737,149.091068 L8.94670163,149.029763 L8.88539071,148.968454 L8.82408432,148.93719 L8.76277792,148.875885 L8.70085679,148.814581 L8.67020134,148.783926 L8.60889494,148.722007 L8.54697381,148.660703 L8.4856629,148.599394 L8.45500744,148.537474 L8.39370105,148.476165 L8.33177991,148.414861 L8.30112446,148.352946 L8.23981806,148.260983 L8.20916261,148.199678 L8.17851167,148.137759 L8.11659054,148.0458 L8.08593508,147.984496 L8.05527962,147.891922 L8.02462869,147.830613 L7.99397323,147.738039 C7.62501387,146.815512 7.68654175,145.954908 8.17851167,145.186512 C8.76251124,144.202513 9.99198401,143.402929 11.7756236,142.788212 C12.8134432,142.423047 13.7192754,142.238131 14.492668,142.233611 L14.4929708,142.23329 Z M65.9229019,148.414811 C59.548628,148.487474 54.9891824,151.331553 55.9307235,156.962089 L55.9920299,156.931435 L56.0533363,156.90078 L56.1152574,156.839476 L56.2378747,156.777556 L56.3611023,156.685598 L56.5456407,156.593024 L56.7301792,156.531719 L56.945373,156.43976 L57.1912134,156.316532 L57.4677137,156.224573 L57.7748694,156.132 L58.0826354,156.070695 L58.4517122,155.978126 L58.8514401,155.916817 L59.2511679,155.855513 L59.7122202,155.793589 L60.2044613,155.762939 L60.7274392,155.732285 L61.2499652,155.732285 L61.8344167,155.762939 L62.4491531,155.793589 L63.0955304,155.855513 L63.4333371,155.916817 L63.8024139,155.978126 L64.1408308,156.008776 L64.5099077,156.10135 L64.8789846,156.162654 L65.2480569,156.224573 L65.6477893,156.316532 L66.0475126,156.43976 L66.4478551,156.531719 L66.8782429,156.654943 L67.2779662,156.777556 L67.7390185,156.90078 L68.170012,157.054658 L68.6310643,157.207922 L69.0921166,157.361804 L69.5536209,157.546337 L70.04541,157.700211 L70.5376511,157.915398 C81.0839963,162.189037 108.941499,174.764067 116.321952,180.175836 C120.842072,183.496664 133.448688,189.185056 129.912598,195.365221 C126.376508,201.514651 109.28096,204.373537 112.786313,217.625659 C116.322404,230.908066 134.954792,225.220578 137.476116,221.89975 C139.966702,218.578923 129.174462,223.836561 125.392477,214.33602 C122.379365,206.741553 127.637169,201.699066 134.955244,196.779974 C138.460598,194.41241 143.226161,192.505883 142.488025,186.356905 C141.994428,182.083267 134.461195,178.762439 126.897226,174.519084 C119.333256,170.245445 90.1536181,156.501549 78.5635771,151.274646 C74.2283295,149.326084 69.7502461,148.371917 65.9253202,148.415308 L65.9229019,148.414811 Z M23.3383947,155.363825 L23.0612841,155.517088 L23.2770883,155.855504 C23.4615634,156.193598 23.5226122,156.531692 23.4303565,156.808315 C23.3381234,156.99273 22.9999958,157.238856 22.3848526,157.546427 L14.9438303,161.389764 L14.1749578,160.098859 C13.9597187,159.699067 13.8678065,159.360294 13.8678065,159.052936 C13.8370697,158.776313 13.9290587,158.468955 14.1443068,158.192332 C14.2672993,158.007917 14.5134786,157.792667 14.8824425,157.546879 L14.7592105,157.270388 L12.5145186,158.561293 L12.5145186,158.561908 L16.8502182,166.094451 L19.2174053,165.018696 L19.0641371,164.74159 C18.6030848,164.956736 18.2030541,165.018181 17.8342123,164.987432 C17.4652529,164.95647 17.1882871,164.86485 16.9423925,164.649636 C16.7886632,164.526688 16.5734603,164.218809 16.3276561,163.788128 L15.6821829,162.681637 L23.1539421,158.869036 C23.7076569,158.592246 24.0764987,158.469316 24.2916564,158.469316 C24.6297614,158.500052 24.9063928,158.715081 25.1522874,159.114769 L25.3368258,159.45318 L25.6133261,159.299297 L23.3383495,155.364205 L23.3383947,155.363825 Z M28.1351465,163.019311 L20.386304,168.031063 C19.863778,168.369338 19.525673,168.522836 19.3105153,168.522836 C18.9415604,168.522836 18.6645901,168.338909 18.3879587,167.970043 L18.1727693,167.662287 L17.896269,167.816169 L20.110224,170.859922 L20.3560689,170.67539 L20.140875,170.398898 C19.8949217,170.060804 19.8028649,169.752993 19.8643747,169.476371 C19.9258483,169.26122 20.2637454,168.953861 20.7864793,168.585031 L26.0750202,165.202732 L23.0619079,174.887688 L24.7840738,177.224516 L25.0299187,177.070638 C24.8453441,176.824752 24.7223335,176.609601 24.6608463,176.486205 C24.5993501,176.178847 24.538229,175.932508 24.538229,175.717357 C24.538229,175.532716 24.5997795,175.194396 24.7227629,174.764094 L31.1178294,170.61385 C31.6096185,170.306343 32.0101012,170.121625 32.1945221,170.121625 C32.5633639,170.121625 32.8707321,170.306162 33.1166267,170.675322 L33.362476,170.983078 L33.6083209,170.829205 L31.3952699,167.785451 L31.1488103,167.96998 L31.3646144,168.277126 C31.610509,168.61522 31.7027014,168.92303 31.6104638,169.199653 C31.579727,169.414804 31.2720017,169.691427 30.6879072,170.060257 L25.0612612,173.719179 L28.2895312,163.265374 L28.136263,163.019537 L28.1351465,163.019311 Z M34.7765596,172.120738 L32.0396266,173.135473 L32.2548205,173.381306 C32.9925042,173.19681 33.6081446,173.135288 34.1003857,173.196778 C34.4692275,173.196778 34.7765957,173.319635 35.0224903,173.442615 C35.2683848,173.596294 35.6064899,173.904105 36.0065205,174.365142 L37.2364453,175.686784 C37.4208256,175.902161 37.5435965,176.086743 37.5435965,176.209745 C37.5743379,176.301867 37.5744328,176.424652 37.5129456,176.516891 C37.451472,176.609099 37.2364363,176.824517 36.8674724,177.101324 L34.0998026,179.345945 L32.501036,177.594002 C32.1934418,177.255908 32.0096989,176.979285 31.9482253,176.764134 C31.8867381,176.548988 31.8866431,176.333114 31.9788807,176.148513 C32.0403544,175.994834 32.25539,175.718754 32.6243539,175.349833 L32.40916,175.134646 L29.4878061,177.471022 L29.7029955,177.686205 C30.1952366,177.347944 30.6255521,177.194432 30.994846,177.225167 C31.2717033,177.255903 31.6095824,177.53268 32.0403498,177.994016 L33.6391165,179.745959 L30.2878991,182.421334 L28.3198387,180.238185 C27.9507708,179.838618 27.7358391,179.530808 27.6436286,179.315657 C27.5513865,179.06977 27.5514814,178.7936 27.6129732,178.577997 C27.7051836,178.331884 27.9201334,177.994016 28.2891832,177.563262 L28.1046448,177.317425 L26.2907204,178.915689 L31.8870816,185.065118 L32.102271,184.88059 L31.8564261,184.573444 C31.5488681,184.266086 31.4259525,183.958275 31.4566983,183.681653 C31.518172,183.497238 31.7947129,183.159595 32.3173293,182.759577 L37.821028,178.301523 C38.2513435,177.993939 38.5284268,177.778562 38.7128478,177.71709 C38.8665319,177.655596 39.0506951,177.655596 39.2353737,177.71709 C39.4812682,177.809298 39.696426,177.962968 39.8501101,178.14746 L40.1266104,178.423951 L40.3424145,178.239419 L34.7767901,172.121177 L34.7765596,172.120738 Z M40.7720474,178.854149 L40.5568535,179.038682 L40.8333538,179.284523 C41.1716487,179.561142 41.3255949,179.837769 41.2948581,180.145127 C41.2948581,180.360504 41.0792936,180.698824 40.6181961,181.19105 L35.6682121,186.233537 C35.2686335,186.664065 34.9300764,186.87899 34.7456555,186.940462 C34.4073245,187.001933 34.0382567,186.87876 33.7001516,186.571401 L33.4236514,186.325564 L33.208462,186.540747 L35.5141754,188.569765 L44.3388067,185.09571 L41.386716,193.64344 L43.7236183,195.672458 L43.9081567,195.457275 C43.6007885,195.180652 43.3856308,194.934314 43.2934203,194.719163 C43.2319286,194.504012 43.2012641,194.319298 43.2627694,194.165465 C43.324243,193.950314 43.5390527,193.673692 43.846317,193.335597 L48.7967529,188.29311 C49.2272989,187.862582 49.5348886,187.616922 49.7500464,187.586186 C50.0576406,187.493752 50.4262564,187.616628 50.7648134,187.923986 L51.0413092,188.169823 L51.2564986,187.985291 L48.3970703,185.495235 L48.2125319,185.710422 L48.4896424,185.956259 C48.7971914,186.232882 48.9506947,186.509504 48.9506947,186.816863 C48.9506947,187.001504 48.7044747,187.339372 48.2432958,187.831598 L43.2006494,192.966745 L46.4289195,183.774014 L46.2443855,183.589481 L36.7128074,187.340611 L41.7884507,182.192356 C42.1880294,181.761828 42.4958496,181.516168 42.7110073,181.485432 C43.0493384,181.392998 43.3872174,181.515869 43.7565112,181.823228 L44.0330115,182.069065 L44.2482009,181.853882 L40.7740363,178.840865 L40.7720474,178.854149 Z M53.808979,189.584576 L53.6244405,189.830413 L53.9628619,190.045601 C54.301193,190.291487 54.4858399,190.537826 54.5473135,190.845185 C54.5473135,191.060562 54.3628519,191.429166 53.9628619,191.920939 L48.9816891,198.408463 L47.6898387,197.54786 C47.3209969,197.301973 47.0755543,197.024898 46.9218702,196.748276 C46.7988732,196.502389 46.7678878,196.19503 46.7986427,195.856936 C46.8293795,195.641785 46.9524941,195.365162 47.1677151,194.965596 L46.9218702,194.781064 L45.5075245,196.871553 L52.8558844,201.883305 L54.4853879,199.946042 L54.239543,199.792164 C53.901212,200.160994 53.5940698,200.376597 53.2555128,200.499541 C52.9174078,200.622534 52.5793028,200.622353 52.3026714,200.560845 C52.0872831,200.499373 51.7796935,200.314524 51.349378,200.037884 L50.2726853,199.269939 L55.2538581,192.813151 C55.6226999,192.321378 55.8993313,192.075491 56.0837522,191.983283 C56.4220832,191.89085 56.7599622,191.952502 57.1595409,192.229125 L57.4673068,192.444308 L57.6518453,192.19847 L53.8083868,189.585019 L53.808979,189.584576 Z M59.0053095,193.243498 L58.8514265,193.489335 C59.3432156,193.827656 59.7120574,194.165524 59.8969304,194.56509 C60.1122328,194.934146 60.2356908,195.549541 60.3279284,196.379861 L60.6970053,200.099803 C59.7744487,199.82309 59.0055762,199.792105 58.360103,199.976575 C57.7146298,200.161216 57.2228406,200.530272 56.8842836,201.083969 C56.5459526,201.606479 56.4227793,202.12944 56.5458622,202.713421 C56.6380727,203.266666 56.8842068,203.75844 57.2839979,204.158458 C57.6835765,204.558024 58.3905234,205.049798 59.4052904,205.603495 L62.879455,207.571493 L63.033338,207.295002 L62.6949166,207.110474 C62.2951119,206.926059 62.110917,206.648984 62.0494434,206.372361 C62.0187021,206.15721 62.1414143,205.757192 62.5104957,205.203947 L66.1699852,199.362328 C66.5080903,198.839818 66.7535328,198.563196 66.9379537,198.470988 C67.2762847,198.317336 67.6453526,198.34771 68.0146464,198.562947 L68.3837233,198.778744 L68.5376063,198.532293 L64.4478013,196.257388 L64.2939183,196.503225 L64.6629952,196.718412 C65.032063,196.902827 65.2162579,197.149261 65.2777315,197.425789 C65.3392052,197.640939 65.1550283,198.040958 64.8166792,198.594203 L63.156439,201.23839 C63.0949518,201.207631 63.0333923,201.145906 62.9719051,201.115162 C62.879663,201.084417 62.8182029,201.054042 62.7567112,200.992548 C62.6337639,200.931076 62.4183304,200.807771 62.2029964,200.684796 L61.58826,194.65831 L59.0054632,193.244009 L59.0053095,193.243498 Z M68.9983919,198.778211 L68.8751598,199.055313 C69.274743,199.239728 69.5518219,199.485244 69.6747692,199.792973 C69.8284939,200.069596 69.8899585,200.592557 69.8899585,201.361405 L69.6134582,210.831211 L69.8593031,210.92317 L77.208115,204.589777 C77.8535882,204.005344 78.3761141,203.666798 78.7146712,203.543854 C78.8990921,203.482369 79.2069123,203.513448 79.6679646,203.636428 L79.7905819,203.359936 L76.5925966,202.007107 L76.4699793,202.252944 C76.9617684,202.498831 77.2383998,202.713982 77.3306103,202.867661 C77.4228433,203.052302 77.4227529,203.206225 77.3612612,203.359887 C77.2690507,203.544302 77.0537936,203.790044 76.715788,204.097547 L75.3321791,205.265961 L71.3662254,203.605773 L71.3968763,202.007057 C71.4276222,201.453812 71.4585082,201.084982 71.5507593,200.900567 C71.6429743,200.746933 71.7658989,200.623555 71.9811426,200.59281 C72.1655635,200.531303 72.4729317,200.592964 72.8725103,200.746684 L72.9957424,200.500847 L68.9985998,198.778735 L68.9983919,198.778211 Z M60.6727819,200.834349 C61.2246887,200.85741 61.8416851,201.053274 62.5102109,201.422398 C62.5717252,201.453138 62.6025073,201.484109 62.6947494,201.545622 L62.726015,201.545622 L62.7566705,201.576272 L62.7873259,201.606926 L62.8179769,201.606926 L62.8486323,201.637581 L62.8792878,201.637581 L62.8792878,201.668235 L62.9099387,201.668235 L60.5422996,205.389081 C60.0505105,205.235402 59.6509319,205.081166 59.3743005,204.927591 C58.7591121,204.589271 58.3902702,204.159195 58.2365862,203.60595 C58.0829021,203.021516 58.2060211,202.467819 58.5443521,201.914574 C58.9134245,201.330141 59.4361719,200.992498 60.1431187,200.869103 C60.3122074,200.838367 60.4888176,200.827081 60.6728769,200.834769 L60.6727819,200.834349 Z M82.7119855,204.189528 L82.6194044,204.46602 L83.0191367,204.589248 C83.3879785,204.712192 83.6650619,204.927528 83.7880092,205.203965 C83.849415,205.38838 83.7880408,205.787946 83.5728153,206.433851 L82.4970266,209.323925 L82.4964119,209.323925 C82.1890437,209.139284 81.9124123,208.985378 81.6357809,208.831699 C81.3284128,208.739564 81.0825182,208.616797 80.8058868,208.524553 C79.7911198,208.18645 78.899752,208.186545 78.1616163,208.493903 C77.4234806,208.832224 76.8697659,209.415979 76.5931345,210.215563 C76.3778954,210.83028 76.3779903,211.383977 76.5624791,211.937674 C76.7778628,212.491372 77.1464786,212.952409 77.6079829,213.321239 C78.0694872,213.65956 78.7768861,213.997428 79.7297275,214.305239 L83.573186,215.56586 L83.6651478,215.289369 L83.26542,215.166145 C82.8658413,215.043202 82.6194948,214.827866 82.4965475,214.551428 C82.4044184,214.366787 82.4658423,213.936711 82.7117369,213.352278 L85.0486392,206.89549 C85.2637969,206.342245 85.4485161,206.003698 85.6023539,205.880755 C85.8792113,205.696268 86.2478271,205.665206 86.6781426,205.788186 L87.0778749,205.911409 L87.2011025,205.665572 L82.7121708,204.1898 L82.7119855,204.189528 Z M71.3348422,204.220183 L74.8406476,205.695956 L71.2123469,208.832368 L71.3349642,204.220183 L71.3348422,204.220183 Z M88.8611574,206.06569 L87.2623908,208.402066 L87.6314677,208.494635 C88.1232568,207.94139 88.5847611,207.572108 88.9843397,207.326221 C89.2917079,207.141643 89.5990761,207.04921 89.9064443,207.018465 C90.1830757,207.018465 90.64458,207.080018 91.2593164,207.202993 L93.0732407,207.633977 C93.3808349,207.695499 93.5650298,207.75693 93.6576923,207.849165 C93.7499299,207.941304 93.8115753,208.033421 93.8115753,208.125656 C93.8423212,208.2486 93.7805853,208.494391 93.6883478,208.98626 L92.8277168,212.306636 L90.4293409,211.784126 C89.9990254,211.691693 89.6609204,211.56879 89.4764995,211.415065 C89.2919023,211.261386 89.1689143,211.0766 89.1074226,210.892104 C89.0766767,210.738199 89.0765863,210.40033 89.1380781,209.877369 L88.8303076,209.816064 L87.9389398,213.351591 L88.2154401,213.412896 C88.399861,212.85965 88.6769444,212.49082 88.9843126,212.306405 C89.260944,212.183425 89.6917115,212.214071 90.3068999,212.337059 L92.674087,212.890757 L91.6593199,216.918509 L88.6764924,216.24232 C88.1535145,216.088478 87.7851246,215.965494 87.6007037,215.873255 C87.3545832,215.68884 87.1699182,215.473571 87.1084626,215.258538 C87.0162205,215.043387 86.9857504,214.643821 87.0164962,214.059388 L86.6780748,213.998079 L86.2476961,216.272984 L94.5800862,218.148323 L94.6420118,217.871835 L94.2729304,217.779872 C93.842615,217.687664 93.5352468,217.502802 93.4122995,217.287646 C93.3200348,217.103231 93.3197591,216.672929 93.5042613,216.027025 L95.1956904,209.385821 C95.3185654,208.924784 95.441255,208.586237 95.5334971,208.463294 C95.6257076,208.278906 95.7794052,208.217552 95.9638759,208.186802 C96.2405072,208.094568 96.4868538,208.094658 96.7327484,208.156148 L97.1324807,208.248722 L97.1937871,207.971615 L88.861397,206.065541 L88.8611574,206.06569 Z M102.866299,208.82378 C101.435229,208.868514 100.275818,209.25481 99.3767657,209.969595 C98.3312619,210.83065 97.6857887,211.968329 97.5013677,213.413366 C97.3476836,214.520308 97.5012909,215.473571 97.9011001,216.365363 C98.3316416,217.256703 98.9466039,217.933343 99.7457613,218.394381 C100.545371,218.824909 101.775295,219.163229 103.435988,219.37838 L107.924919,219.901342 L107.955575,219.593585 L107.555842,219.562935 C107.156264,219.501464 106.848896,219.378534 106.664475,219.101898 C106.541491,218.948218 106.510302,218.517917 106.602554,217.872012 L107.494373,211.138149 C107.586584,210.554168 107.709197,210.185338 107.83218,210.031658 C108.047564,209.785794 108.41618,209.662412 108.877684,209.723898 L109.278026,209.785821 L109.308682,209.478065 L104.388531,208.893632 C103.850636,208.83216 103.343479,208.808833 102.866154,208.823749 L102.866299,208.82378 Z M80.5536279,209.078811 C80.7512657,209.081333 80.9473756,209.112512 81.1435037,209.170155 C81.2971878,209.231668 81.4819612,209.293722 81.6664816,209.385952 L81.6971325,209.416607 L81.7584435,209.416607 L81.7890944,209.447261 L81.8197498,209.477916 L81.8504053,209.477916 L81.9123264,209.508566 L81.9429819,209.53922 L81.9736328,209.53922 L82.0349437,209.570485 L82.0662094,209.60114 L82.1275158,209.60114 L82.1581713,209.631794 L82.2194822,209.662444 L82.2501331,209.693099 L82.3120543,209.693099 L82.3427097,209.723748 L80.8361535,213.874896 C80.3751013,213.813397 80.0365442,213.751953 79.7906497,213.659713 C79.3601082,213.53677 78.9905883,213.32152 78.7446938,213.014261 C78.4678997,212.737412 78.3144913,212.368356 78.2529047,211.937602 C78.191413,211.507074 78.2524436,211.076998 78.4061774,210.646696 C78.652298,210.031979 79.0213658,209.600773 79.5438918,209.324151 C79.889681,209.151198 80.2237179,209.07472 80.5532347,209.078924 L80.5536279,209.078811 Z M103.90231,209.440518 C104.052143,209.446222 104.204087,209.458697 104.357939,209.477916 L104.450515,209.477916 L104.542477,209.508566 L104.635054,209.508566 L104.757671,209.53922 L104.850243,209.53922 L104.942209,209.569875 L105.034781,209.60114 L105.157399,209.60114 L105.249975,209.631794 L105.372588,209.662444 L105.49582,209.693099 L105.587782,209.723748 L105.711009,209.754403 L105.834242,209.785672 L105.956854,209.846977 L106.080086,209.877631 L104.911635,218.732719 C104.266162,218.794214 103.681258,218.824873 103.220206,218.763369 C101.898071,218.609464 100.883304,218.055993 100.176357,217.133917 C99.4386733,216.21139 99.1923267,215.042976 99.3767477,213.597939 C99.5613946,212.152902 100.146072,211.076695 101.068177,210.339035 C101.902139,209.693582 102.853624,209.40114 103.902292,209.440915 L103.90231,209.440518 Z"/>
</svg>
