<svg xmlns="http://www.w3.org/2000/svg" width="47" height="33" viewBox="0 0 47 33">
  <g fill="none" fill-rule="evenodd" stroke="#93B0D2" transform="translate(0 1)">
    <polygon points="23.5 0 28.263 2.75 28.263 8.25 23.5 11 18.737 8.25 18.737 2.75"/>
    <polygon points="11.5 0 16.263 2.75 16.263 8.25 11.5 11 6.737 8.25 6.737 2.75"/>
    <polygon fill="#E9F1FD" points="29.5 10 34.263 12.75 34.263 18.25 29.5 21 24.737 18.25 24.737 12.75"/>
    <polygon points="41.5 10 46.263 12.75 46.263 18.25 41.5 21 36.737 18.25 36.737 12.75"/>
    <polygon fill="#E9F1FD" points="17.5 10 22.263 12.75 22.263 18.25 17.5 21 12.737 18.25 12.737 12.75"/>
    <polygon points="5.5 10 10.263 12.75 10.263 18.25 5.5 21 .737 18.25 .737 12.75"/>
    <polygon points="35.5 0 40.263 2.75 40.263 8.25 35.5 11 30.737 8.25 30.737 2.75"/>
    <polygon fill="#E9F1FD" points="23.5 20 28.263 22.75 28.263 28.25 23.5 31 18.737 28.25 18.737 22.75"/>
    <polygon points="11.5 20 16.263 22.75 16.263 28.25 11.5 31 6.737 28.25 6.737 22.75"/>
    <polygon points="35.5 20 40.263 22.75 40.263 28.25 35.5 31 30.737 28.25 30.737 22.75"/>
  </g>
</svg>
