<svg xmlns="http://www.w3.org/2000/svg" width="20" height="20" viewBox="0 0 20 20">
  <g fill="none" fill-rule="evenodd">
    <rect width="19.535" height="7.907" x=".465" y="11.628" fill="#E9F1FD"/>
    <path fill="#93B0D2" d="M19.6666667,0 L0.333333333,0 C0.149,0 0,0.149333333 0,0.333333333 L0,2 L0,10 L0,11.6666667 L0,19.6666667 C0,19.8506667 0.149,20 0.333333333,20 L19.6666667,20 C19.851,20 20,19.8506667 20,19.6666667 L20,11.6666667 L20,10 L20,2 L20,0.333333333 C20,0.149333333 19.851,0 19.6666667,0 L19.6666667,0 Z M0.666666667,11.3333333 L0.666666667,10.3333333 L19.3333333,10.3333333 L19.3333333,11.3333333 L0.666666667,11.3333333 L0.666666667,11.3333333 Z M6.33333333,12 L6.33333333,19.3333333 L3.66666667,19.3333333 L3.66666667,12 L6.33333333,12 L6.33333333,12 Z M7,4.66666667 L7,2.33333333 L9.66666667,2.33333333 L9.66666667,4.66666667 L10.3333333,4.66666667 L10.3333333,2.33333333 L13,2.33333333 L13,4.66666667 L13.6666667,4.66666667 L13.6666667,2.33333333 L16.3333333,2.33333333 L16.3333333,9.66666667 L13.6666667,9.66666667 L13.6666667,8 L13,8 L13,9.66666667 L10.3333333,9.66666667 L10.3333333,8 L9.66666667,8 L9.66666667,9.66666667 L7,9.66666667 L7,8 L6.33333333,8 L6.33333333,9.66666667 L3.66666667,9.66666667 L3.66666667,2.33333333 L6.33333333,2.33333333 L6.33333333,4.66666667 L7,4.66666667 L7,4.66666667 Z M19.3333333,9.66666667 L17,9.66666667 L17,2.33333333 L19.3333333,2.33333333 L19.3333333,9.66666667 L19.3333333,9.66666667 Z M3,9.66666667 L0.666666667,9.66666667 L0.666666667,2.33333333 L3,2.33333333 L3,9.66666667 L3,9.66666667 Z M0.666666667,0.666666667 L19.3333333,0.666666667 L19.3333333,1.66666667 L0.666666667,1.66666667 L0.666666667,0.666666667 L0.666666667,0.666666667 Z M0.666666667,12 L3,12 L3,19.3333333 L0.666666667,19.3333333 L0.666666667,12 L0.666666667,12 Z M19.3333333,19.3333333 L17,19.3333333 L17,18 L16.3333333,18 L16.3333333,19.3333333 L13.6666667,19.3333333 L13.6666667,18 L13,18 L13,19.3333333 L10.3333333,19.3333333 L10.3333333,18 L9.66666667,18 L9.66666667,19.3333333 L7,19.3333333 L7,12 L9.66666667,12 L9.66666667,14.6666667 L10.3333333,14.6666667 L10.3333333,12 L13,12 L13,14.6666667 L13.6666667,14.6666667 L13.6666667,12 L16.3333333,12 L16.3333333,14.6666667 L17,14.6666667 L17,12 L19.3333333,12 L19.3333333,19.3333333 L19.3333333,19.3333333 Z"/>
    <rect width=".667" height=".667" x="9.667" y="15.333" fill="#93B0D2"/>
    <rect width=".667" height=".667" x="11" y="15.333" fill="#93B0D2"/>
    <rect width=".667" height=".667" x="12.333" y="15.333" fill="#93B0D2"/>
    <rect width=".667" height=".667" x="13.667" y="15.333" fill="#93B0D2"/>
    <rect width=".667" height=".667" x="15" y="15.333" fill="#93B0D2"/>
    <rect width=".667" height=".667" x="16.333" y="15.333" fill="#93B0D2"/>
    <rect width=".667" height=".667" x="9.667" y="16.667" fill="#93B0D2"/>
    <rect width=".667" height=".667" x="11" y="16.667" fill="#93B0D2"/>
    <rect width=".667" height=".667" x="12.333" y="16.667" fill="#93B0D2"/>
    <rect width=".667" height=".667" x="13.667" y="16.667" fill="#93B0D2"/>
    <rect width=".667" height=".667" x="15" y="16.667" fill="#93B0D2"/>
    <rect width=".667" height=".667" x="16.333" y="16.667" fill="#93B0D2"/>
    <rect width=".667" height=".667" x="6.333" y="5.333" fill="#93B0D2"/>
    <rect width=".667" height=".667" x="7.667" y="5.333" fill="#93B0D2"/>
    <rect width=".667" height=".667" x="9" y="5.333" fill="#93B0D2"/>
    <rect width=".667" height=".667" x="10.333" y="5.333" fill="#93B0D2"/>
    <rect width=".667" height=".667" x="11.667" y="5.333" fill="#93B0D2"/>
    <rect width=".667" height=".667" x="13" y="5.333" fill="#93B0D2"/>
    <rect width=".667" height=".667" x="6.333" y="6.667" fill="#93B0D2"/>
    <rect width=".667" height=".667" x="7.667" y="6.667" fill="#93B0D2"/>
    <rect width=".667" height=".667" x="9" y="6.667" fill="#93B0D2"/>
    <rect width=".667" height=".667" x="10.333" y="6.667" fill="#93B0D2"/>
    <rect width=".667" height=".667" x="11.667" y="6.667" fill="#93B0D2"/>
    <rect width=".667" height=".667" x="13" y="6.667" fill="#93B0D2"/>
  </g>
</svg>
