<svg xmlns="http://www.w3.org/2000/svg" width="22" height="22" viewBox="0 0 22 22">
  <g fill="none" fill-rule="evenodd">
    <rect width="9.5" height="11.5" y="9.5" fill="#E9F1FD"/>
    <path fill="#93B0D2" d="M21.6333705 0L12.1010045 0C11.898625 0 11.734375.163883371 11.734375.366629464L11.734375 4.03292411 11.734375 7.69921875 11.734375 11.3655134C11.734375 11.5682595 11.898625 11.7321429 12.1010045 11.7321429L16.500558 11.7321429 16.500558 12.4654018 11.734375 12.4654018 11.734375 13.1986607 22 13.1986607 22 12.4654018 17.233817 12.4654018 17.233817 11.7321429 21.6333705 11.7321429C21.83575 11.7321429 22 11.5682595 22 11.3655134L22 7.69921875 22 4.03292411 22 .366629464C22 .163883371 21.83575 0 21.6333705 0L21.6333705 0zM12.4676339 4.39955357L21.2667411 4.39955357 21.2667411 7.33258929 12.4676339 7.33258929 12.4676339 4.39955357 12.4676339 4.39955357zM12.4676339.733258929L21.2667411.733258929 21.2667411 3.66629464 12.4676339 3.66629464 12.4676339.733258929 12.4676339.733258929zM21.2667411 10.9988839L12.4676339 10.9988839 12.4676339 8.06584821 21.2667411 8.06584821 21.2667411 10.9988839 21.2667411 10.9988839zM9.90122768 8.79910714L.368861607 8.79910714C.166482143 8.79910714.00223214286 8.96299051.00223214286 9.16573661L.00223214286 12.8320313.00223214286 16.4983259.00223214286 20.1646205C.00223214286 20.3673666.166482143 20.53125.368861607 20.53125L4.76841518 20.53125 4.76841518 21.2645089.00223214286 21.2645089.00223214286 21.9977679 10.2678571 21.9977679 10.2678571 21.2645089 5.50167411 21.2645089 5.50167411 20.53125 9.90122768 20.53125C10.1036071 20.53125 10.2678571 20.3673666 10.2678571 20.1646205L10.2678571 16.4983259 10.2678571 12.8320313 10.2678571 9.16573661C10.2678571 8.96299051 10.1036071 8.79910714 9.90122768 8.79910714L9.90122768 8.79910714zM.735491071 13.1986607L9.53459821 13.1986607 9.53459821 16.1316964.735491071 16.1316964.735491071 13.1986607.735491071 13.1986607zM.735491071 9.53236607L9.53459821 9.53236607 9.53459821 12.4654018.735491071 12.4654018.735491071 9.53236607.735491071 9.53236607zM9.53459821 19.7979911L.735491071 19.7979911.735491071 16.8649554 9.53459821 16.8649554 9.53459821 19.7979911 9.53459821 19.7979911z"/>
    <rect width=".733" height="1.467" x="13.201" y="1.467" fill="#93B0D2"/>
    <rect width=".733" height="1.467" x="14.667" y="1.467" fill="#93B0D2"/>
    <rect width=".733" height="1.467" x="16.134" y="1.467" fill="#93B0D2"/>
    <rect width=".733" height="1.467" x="13.201" y="5.133" fill="#93B0D2"/>
    <rect width=".733" height="1.467" x="14.667" y="5.133" fill="#93B0D2"/>
    <rect width=".733" height="1.467" x="16.134" y="5.133" fill="#93B0D2"/>
    <rect width=".733" height=".733" x="18.334" y="1.833" fill="#93B0D2"/>
    <rect width=".733" height=".733" x="19.8" y="1.833" fill="#93B0D2"/>
    <rect width=".733" height=".733" x="18.334" y="5.499" fill="#93B0D2"/>
    <rect width=".733" height=".733" x="19.8" y="5.499" fill="#93B0D2"/>
    <rect width="2.2" height=".733" x="16.501" y="9.166" fill="#93B0D2"/>
    <rect width=".733" height=".733" x="19.434" y="9.166" fill="#93B0D2"/>
    <rect width=".733" height=".733" x="15.034" y="9.166" fill="#93B0D2"/>
    <rect width=".733" height=".733" x="13.568" y="9.166" fill="#93B0D2"/>
    <rect width=".733" height="1.467" x="1.469" y="10.266" fill="#93B0D2"/>
    <rect width=".733" height="1.467" x="2.935" y="10.266" fill="#93B0D2"/>
    <rect width=".733" height="1.467" x="4.402" y="10.266" fill="#93B0D2"/>
    <rect width=".733" height="1.467" x="1.469" y="13.932" fill="#93B0D2"/>
    <rect width=".733" height="1.467" x="2.935" y="13.932" fill="#93B0D2"/>
    <rect width=".733" height="1.467" x="4.402" y="13.932" fill="#93B0D2"/>
    <rect width=".733" height=".733" x="6.602" y="10.632" fill="#93B0D2"/>
    <rect width=".733" height=".733" x="8.068" y="10.632" fill="#93B0D2"/>
    <rect width=".733" height=".733" x="6.602" y="14.299" fill="#93B0D2"/>
    <rect width=".733" height=".733" x="8.068" y="14.299" fill="#93B0D2"/>
    <rect width=".733" height=".733" x="6.235" y="17.965" fill="#93B0D2"/>
    <rect width=".733" height=".733" x="7.701" y="17.965" fill="#93B0D2"/>
    <rect width="2.2" height=".733" x="1.835" y="17.965" fill="#93B0D2"/>
    <rect width=".733" height=".733" x="4.768" y="17.965" fill="#93B0D2"/>
    <path fill="#93B0D2" d="M16.6079805 14.4059715L15.5080921 15.5058599 16.0265061 16.024274 16.500558 15.5502221 16.500558 18.3314732 11.0011161 18.3314732 11.0011161 19.0647321 16.8671875 19.0647321C17.069567 19.0647321 17.233817 18.9008488 17.233817 18.6981027L17.233817 15.5502221 17.7078689 16.024274 18.2262829 15.5058599 17.1263945 14.4059715C16.9830424 14.2626194 16.7513326 14.2626194 16.6079805 14.4059715L16.6079805 14.4059715zM5.13504464 7.69921875C5.22890179 7.69921875 5.32275893 7.66328906 5.39425167 7.59179632L6.49414007 6.49190792 5.975726 5.97349386 5.50167411 6.44754576 5.50167411 3.66629464 11.0011161 3.66629464 11.0011161 2.93303571 5.13504464 2.93303571C4.93266518 2.93303571 4.76841518 3.09691908 4.76841518 3.29966518L4.76841518 6.44754576 4.29436328 5.97349386 3.77594922 6.49190792 4.87583761 7.59179632C4.94733036 7.66328906 5.0411875 7.69921875 5.13504464 7.69921875L5.13504464 7.69921875z"/>
    <rect width=".733" height=".733" x="10.268" y="4.4" fill="#93B0D2"/>
    <rect width=".733" height=".733" x="8.801" y="4.4" fill="#93B0D2"/>
    <rect width=".733" height=".733" x="7.335" y="4.4" fill="#93B0D2"/>
    <rect width=".733" height=".733" x="7.335" y="5.866" fill="#93B0D2"/>
    <rect width=".733" height=".733" x="8.801" y="5.866" fill="#93B0D2"/>
    <rect width=".733" height=".733" x="10.268" y="5.866" fill="#93B0D2"/>
    <rect width=".733" height=".733" x="10.268" y="7.333" fill="#93B0D2"/>
    <rect width=".733" height=".733" x="8.801" y="7.333" fill="#93B0D2"/>
    <rect width=".733" height=".733" x="11.001" y="16.865" fill="#93B0D2"/>
    <rect width=".733" height=".733" x="12.468" y="16.865" fill="#93B0D2"/>
    <rect width=".733" height=".733" x="13.934" y="16.865" fill="#93B0D2"/>
    <rect width=".733" height=".733" x="13.934" y="15.398" fill="#93B0D2"/>
    <rect width=".733" height=".733" x="12.468" y="15.398" fill="#93B0D2"/>
    <rect width=".733" height=".733" x="11.001" y="15.398" fill="#93B0D2"/>
    <rect width=".733" height=".733" x="11.001" y="13.932" fill="#93B0D2"/>
    <rect width=".733" height=".733" x="12.468" y="13.932" fill="#93B0D2"/>
  </g>
</svg>
