<svg xmlns="http://www.w3.org/2000/svg" width="24" height="21" viewBox="0 0 24 21">
  <g fill="none" fill-rule="evenodd">
    <rect width="12.267" height="4.308" x="6.4" y="6.462" fill="#E9F1FD"/>
    <path fill="#93B0D2" d="M23.6,18.1730769 L23.2,18.1730769 L23.2,5.25 C23.2,4.58203846 22.6616,4.03846154 22,4.03846154 L19.6,4.03846154 L19.6,4.84615385 L22,4.84615385 C22.2204,4.84615385 22.4,5.02748077 22.4,5.25 L22.4,18.5769231 C22.4,18.7998462 22.5792,18.9807692 22.8,18.9807692 L23.2,18.9807692 L23.2,20.1923077 L0.8,20.1923077 L0.8,18.9807692 L1.2,18.9807692 L21.6,18.9807692 L21.6,18.1730769 L1.6,18.1730769 L1.6,5.25 C1.6,5.02748077 1.7796,4.84615385 2,4.84615385 L4.8,4.84615385 L4.8,4.03846154 L2,4.03846154 C1.3384,4.03846154 0.8,4.58203846 0.8,5.25 L0.8,18.1730769 L0.4,18.1730769 C0.1792,18.1730769 0,18.354 0,18.5769231 L0,20.1923077 C0,20.63775 0.3588,21 0.8,21 L23.2,21 C23.6412,21 24,20.63775 24,20.1923077 L24,18.5769231 C24,18.354 23.8208,18.1730769 23.6,18.1730769 L23.6,18.1730769 Z"/>
    <path fill="#93B0D2" d="M6,12.1153846 C5.7792,12.1153846 5.6,12.2963077 5.6,12.5192308 L5.6,16.5576923 L2.8,16.5576923 L2.8,6.05769231 L4.8,6.05769231 L4.8,5.25 L2.4,5.25 C2.1792,5.25 2,5.43092308 2,5.65384615 L2,16.9615385 C2,17.1844615 2.1792,17.3653846 2.4,17.3653846 L6,17.3653846 L18.4,17.3653846 L21.6,17.3653846 C21.8208,17.3653846 22,17.1844615 22,16.9615385 L22,5.65384615 C22,5.43092308 21.8208,5.25 21.6,5.25 L19.6,5.25 L19.6,6.05769231 L21.2,6.05769231 L21.2,16.5576923 L18.8,16.5576923 L18.8,12.5192308 C18.8,12.2963077 18.6208,12.1153846 18.4,12.1153846 L17.6,12.1153846 L17.6,11.3076923 L18.4,11.3076923 C18.6208,11.3076923 18.8,11.1267692 18.8,10.9038462 L18.8,6.46153846 C18.8,6.23861538 18.6208,6.05769231 18.4,6.05769231 L17.6,6.05769231 L17.6,5.25 L18.4,5.25 C18.6208,5.25 18.8,5.06907692 18.8,4.84615385 L18.8,0.403846154 C18.8,0.180923077 18.6208,0 18.4,0 L6,0 C5.7792,0 5.6,0.180923077 5.6,0.403846154 L5.6,4.84615385 C5.6,5.06907692 5.7792,5.25 6,5.25 L6.8,5.25 L6.8,6.05769231 L6,6.05769231 C5.7792,6.05769231 5.6,6.23861538 5.6,6.46153846 L5.6,10.9038462 C5.6,11.1267692 5.7792,11.3076923 6,11.3076923 L6.8,11.3076923 L6.8,12.1153846 L6,12.1153846 L6,12.1153846 Z M15.2,12.9230769 L15.2,13.7307692 L6.4,13.7307692 L6.4,12.9230769 L15.2,12.9230769 L15.2,12.9230769 Z M6.4,14.5384615 L15.2,14.5384615 L15.2,16.5576923 L6.4,16.5576923 L6.4,14.5384615 L6.4,14.5384615 Z M18,16.5576923 L16,16.5576923 L16,12.9230769 L18,12.9230769 L18,16.5576923 L18,16.5576923 Z M18,10.5 L16,10.5 L16,6.86538462 L18,6.86538462 L18,10.5 L18,10.5 Z M12,6.86538462 L12,10.5 L9.2,10.5 L9.2,6.86538462 L12,6.86538462 L12,6.86538462 Z M12.8,6.86538462 L15.2,6.86538462 L15.2,10.5 L12.8,10.5 L12.8,6.86538462 L12.8,6.86538462 Z M18,0.807692308 L18,1.61538462 L6.4,1.61538462 L6.4,0.807692308 L18,0.807692308 L18,0.807692308 Z M6.4,2.42307692 L18,2.42307692 L18,4.44230769 L6.4,4.44230769 L6.4,2.42307692 L6.4,2.42307692 Z M7.6,5.25 L16.8,5.25 L16.8,6.05769231 L7.6,6.05769231 L7.6,5.25 L7.6,5.25 Z M6.4,6.86538462 L8.4,6.86538462 L8.4,10.5 L6.4,10.5 L6.4,6.86538462 L6.4,6.86538462 Z M7.6,11.3076923 L16.8,11.3076923 L16.8,12.1153846 L7.6,12.1153846 L7.6,11.3076923 L7.6,11.3076923 Z"/>
    <rect width="1.2" height=".808" x="7.2" y="2.827" fill="#93B0D2"/>
    <rect width="1.2" height=".808" x="11.6" y="2.827" fill="#93B0D2"/>
    <rect width="1.2" height=".808" x="16" y="2.827" fill="#93B0D2"/>
    <rect width=".8" height=".808" x="8" y="14.942" fill="#93B0D2"/>
    <rect width=".8" height=".808" x="9.6" y="14.942" fill="#93B0D2"/>
    <rect width=".8" height=".808" x="11.2" y="14.942" fill="#93B0D2"/>
    <rect width=".8" height=".808" x="12.8" y="14.942" fill="#93B0D2"/>
  </g>
</svg>
