<svg xmlns="http://www.w3.org/2000/svg" width="22" height="21" viewBox="0 0 22 21">
  <g fill="none" fill-rule="evenodd">
    <polygon points="15.52 11.484 17.554 11.484 17.554 12.601 17.888 12.929 18.902 11.933 20.48 13.483 19.576 14.372 19.576 14.804 20.875 14.804 20.875 15.268 20.875 17.041 19.661 16.996 19.578 17.572 20.442 18.42 18.971 19.75 18.037 19.151 17.35 19.289 17.44 20.182 17.367 20.458 15.339 20.409 15.553 19.338 14.892 19.01 13.869 19.924 12.439 18.319 13.336 17.52 13.159 17.026 11.845 16.973 11.92 14.887 13.128 14.854 13.442 14.33 12.537 13.459 13.965 12.051 14.772 12.814 15.542 12.535"/>
    <g fill="#93B0D2" transform="translate(.217)">
      <path d="M21.1722548,1.03936523 C21.1722548,0.466328535 20.6972905,0 20.113642,0 L1.05861274,0 C0.474964249,0 0,0.466328535 0,1.03936523 L0,5.88973633 C0,6.15685319 0.106214145,6.39833238 0.275239312,6.58264648 C0.106214145,6.76696059 0,7.00843978 0,7.27555664 L0,12.1259277 C0,12.3930446 0.106214145,12.6345238 0.275239312,12.8188379 C0.106214145,13.003152 0,13.2446312 0,13.511748 L0,18.3621191 C0,18.9351558 0.474964249,19.4014844 1.05861274,19.4014844 L10.5861274,19.4014844 L10.5861274,18.7085742 L1.05861274,18.7085742 C0.864180866,18.7085742 0.705741826,18.5533623 0.705741826,18.3621191 L0.705741826,13.511748 C0.705741826,13.3205048 0.864180866,13.165293 1.05861274,13.165293 L9.88038556,13.165293 L10.5861274,13.165293 L10.5861274,12.4723828 L9.88038556,12.4723828 L1.05861274,12.4723828 C0.864180866,12.4723828 0.705741826,12.3171709 0.705741826,12.1259277 L0.705741826,7.27555664 C0.705741826,7.08431344 0.864180866,6.92910156 1.05861274,6.92910156 L20.113642,6.92910156 C20.3080739,6.92910156 20.4665129,7.08431344 20.4665129,7.27555664 L20.4665129,12.1259277 L21.1722548,12.1259277 L21.1722548,7.27555664 C21.1722548,7.00843978 21.0660406,6.76696059 20.8970155,6.58264648 C21.0660406,6.39833238 21.1722548,6.15685319 21.1722548,5.88973633 L21.1722548,1.03936523 L21.1722548,1.03936523 Z M1.05861274,6.23619141 C0.864180866,6.23619141 0.705741826,6.08097953 0.705741826,5.88973633 L0.705741826,1.03936523 C0.705741826,0.848122031 0.864180866,0.692910156 1.05861274,0.692910156 L20.113642,0.692910156 C20.3080739,0.692910156 20.4665129,0.848122031 20.4665129,1.03936523 L20.4665129,5.88973633 C20.4665129,6.08097953 20.3080739,6.23619141 20.113642,6.23619141 L1.05861274,6.23619141 L1.05861274,6.23619141 Z"/>
      <rect width="9.88" height=".693" x="3.882" y="1.732"/>
      <rect width="9.88" height=".693" x="3.882" y="3.118"/>
      <rect width="9.88" height=".693" x="3.882" y="4.504"/>
      <rect width=".706" height=".693" x="15.879" y="1.732"/>
      <rect width=".706" height=".693" x="15.879" y="3.118"/>
      <rect width=".706" height=".693" x="15.879" y="4.504"/>
      <rect width=".706" height=".693" x="14.468" y="1.732"/>
      <rect width=".706" height=".693" x="14.468" y="3.118"/>
      <rect width=".706" height=".693" x="14.468" y="4.504"/>
      <rect width=".706" height=".693" x="17.291" y="4.504"/>
      <rect width=".706" height=".693" x="17.291" y="3.118"/>
      <rect width=".706" height=".693" x="17.291" y="1.732"/>
      <rect width=".706" height=".693" x="18.702" y="1.732"/>
      <rect width=".706" height=".693" x="18.702" y="3.118"/>
      <path d="M20.8193839,14.5511133 L19.8366384,14.5511133 C19.8175833,14.5060741 19.7978226,14.4589562 19.7791204,14.4139171 L20.4739232,13.731747 C20.6118958,13.5962831 20.6118958,13.3773235 20.4739232,13.2418595 L18.9770448,11.7721971 C18.8390723,11.6367332 18.6160579,11.6367332 18.4780854,11.7721971 L17.7832825,12.4543671 C17.7374093,12.4356586 17.6897717,12.4162571 17.6438985,12.397895 L17.6438985,11.4330176 C17.6438985,11.2414279 17.4858123,11.0865625 17.2910276,11.0865625 L15.1738021,11.0865625 C14.9790174,11.0865625 14.8209312,11.2414279 14.8209312,11.4330176 L14.8209312,12.397895 C14.775058,12.4162571 14.7274204,12.4356586 14.6815472,12.4543671 L13.9867444,11.7721971 C13.8487718,11.6367332 13.6257574,11.6367332 13.4877849,11.7721971 L11.9909065,13.2418595 C11.852934,13.3773235 11.852934,13.5962831 11.9909065,13.731747 L12.6857093,14.4139171 C12.6666543,14.4589562 12.6468935,14.5060741 12.6278385,14.5511133 L11.6447401,14.5511133 C11.4499554,14.5511133 11.2918692,14.7059787 11.2918692,14.8975684 L11.2918692,16.9762988 C11.2918692,17.1678885 11.4499554,17.3227539 11.6447401,17.3227539 L12.6274856,17.3227539 C12.6461878,17.3677931 12.6659485,17.414911 12.6850036,17.4599501 L11.9902007,18.1421202 C11.8522282,18.2775841 11.8522282,18.4965437 11.9902007,18.6320076 L13.4870792,20.1016701 C13.6250517,20.237134 13.8480661,20.237134 13.9860386,20.1016701 L14.6808415,19.4195 C14.7267147,19.4382086 14.7743523,19.4576101 14.8202255,19.4759722 L14.8202255,20.4408496 C14.8202255,20.6324393 14.9783116,20.7873047 15.1730964,20.7873047 L17.2903219,20.7873047 C17.4851066,20.7873047 17.6431928,20.6324393 17.6431928,20.4408496 L17.6431928,19.4759722 C17.689066,19.4576101 17.7367036,19.4382086 17.7825768,19.4195 L18.4773796,20.1016701 C18.6153521,20.237134 18.8383666,20.237134 18.9763391,20.1016701 L20.4732175,18.6320076 C20.61119,18.4965437 20.61119,18.2775841 20.4732175,18.1421202 L19.7784147,17.4599501 C19.7974697,17.414911 19.8172305,17.3677931 19.8359326,17.3227539 L20.8193839,17.3227539 C21.0141686,17.3227539 21.1722548,17.1678885 21.1722548,16.9762988 L21.1722548,14.8975684 C21.1722548,14.7059787 21.0141686,14.5511133 20.8193839,14.5511133 L20.8193839,14.5511133 Z M20.4665129,16.6298438 L19.5988034,16.6298438 C19.4513033,16.6298438 19.3179181,16.7247724 19.266399,16.8602364 C19.2452267,16.9160156 19.0709085,17.3303759 19.0500891,17.3754151 C18.976692,17.5101861 19.0017458,17.6761381 19.1114886,17.7842321 L19.7251312,18.3867175 L18.7272122,19.3664924 L18.1135697,18.764007 C18.0091199,18.6614563 17.8443292,18.6358187 17.7105911,18.6971412 C17.6523674,18.7234718 17.2292752,18.8953135 17.1823434,18.9126363 C17.0366077,18.9590612 16.9378038,19.0917535 16.9378038,19.2424615 L16.9378038,20.0943945 L15.5263202,20.0943945 L15.5263202,19.2424615 C15.5263202,19.0976433 15.4296335,18.9663368 15.2913081,18.9161008 C15.2344959,18.89566 14.8114037,18.7234718 14.7648247,18.7030309 C14.6279108,18.6316612 14.4599443,18.656606 14.3502014,18.7643535 L13.7365589,19.3668389 L12.73864,18.3870639 L13.3522825,17.7845785 C13.4567323,17.6820278 13.4824918,17.5202333 13.4203866,17.3882339 C13.3932155,17.3307224 13.2185444,16.9163621 13.2009009,16.8702836 C13.1543219,16.7268512 13.0184666,16.6298438 12.8653206,16.6298438 L11.997611,16.6298438 L11.997611,15.2440234 L12.8653206,15.2440234 C13.0124678,15.2440234 13.1462059,15.1490947 13.197725,15.0136308 C13.2188973,14.9578515 13.394627,14.5410661 13.4157992,14.495334 C13.487432,14.3609094 13.4616725,14.1966897 13.3526353,14.0896351 L12.7389928,13.4871497 L13.7369118,12.5073748 L14.3505543,13.1098602 C14.4553569,13.2127573 14.6197948,13.2377021 14.7535329,13.176726 C14.8117566,13.1503954 15.2348488,12.9785537 15.2817806,12.9612309 C15.4275163,12.9148059 15.5263202,12.7821137 15.5263202,12.6314057 L15.5263202,11.7794727 L16.9378038,11.7794727 L16.9378038,12.6314057 C16.9378038,12.7762239 17.0344904,12.9075304 17.172463,12.9577664 C17.2292752,12.9782072 17.6523674,13.1503954 17.6989464,13.1708363 C17.8355074,13.2418595 18.0038268,13.2172612 18.1135697,13.1095137 L18.7272122,12.5070283 L19.7251312,13.4868033 L19.1114886,14.0892887 C19.0070389,14.1918394 18.9812793,14.3525945 19.0430317,14.4845939 C19.069497,14.5407196 19.2448738,14.9575051 19.2628703,15.0035836 C19.3098021,15.147016 19.4456574,15.2440234 19.5988034,15.2440234 L20.4665129,15.2440234 L20.4665129,16.6298438 L20.4665129,16.6298438 Z"/>
      <path d="M16.232062,14.5511133 C15.4536288,14.5511133 14.8205783,15.1726537 14.8205783,15.9369336 C14.8205783,16.7012135 15.4536288,17.3227539 16.232062,17.3227539 C17.0104952,17.3227539 17.6435456,16.7012135 17.6435456,15.9369336 C17.6435456,15.1726537 17.0104952,14.5511133 16.232062,14.5511133 L16.232062,14.5511133 Z M16.232062,16.6298437 C15.8428454,16.6298437 15.5263202,16.3190735 15.5263202,15.9369336 C15.5263202,15.5547936 15.8428454,15.2440234 16.232062,15.2440234 C16.6212786,15.2440234 16.9378038,15.5547936 16.9378038,15.9369336 C16.9378038,16.3190735 16.6212786,16.6298437 16.232062,16.6298437 L16.232062,16.6298437 Z"/>
      <rect width=".706" height=".693" x="18.702" y="4.504"/>
      <path d="M12.7033529,10.0471973 C12.8981376,10.0471973 13.0562238,9.89233185 13.0562238,9.70074219 L13.0562238,8.31492187 C13.0562238,8.12333222 12.8981376,7.9684668 12.7033529,7.9684668 L2.11722548,7.9684668 C1.92244073,7.9684668 1.76435456,8.12333222 1.76435456,8.31492187 L1.76435456,9.70074219 C1.76435456,9.89233185 1.92244073,10.0471973 2.11722548,10.0471973 L12.7033529,10.0471973 L12.7033529,10.0471973 Z M12.350482,9.35428711 L7.76316008,9.35428711 L7.76316008,8.66137695 L12.350482,8.66137695 L12.350482,9.35428711 L12.350482,9.35428711 Z M2.47009639,8.66137695 L7.05741826,8.66137695 L7.05741826,9.35428711 L2.47009639,9.35428711 L2.47009639,8.66137695 L2.47009639,8.66137695 Z"/>
      <rect width="10.586" height=".693" x="1.764" y="10.74"/>
      <rect width=".706" height=".693" x="15.879" y="7.968"/>
      <rect width=".706" height=".693" x="15.879" y="9.354"/>
      <rect width=".706" height=".693" x="14.468" y="7.968"/>
      <rect width=".706" height=".693" x="14.468" y="9.354"/>
      <rect width=".706" height=".693" x="17.291" y="9.354"/>
      <rect width=".706" height=".693" x="17.291" y="7.968"/>
      <rect width=".706" height=".693" x="18.702" y="7.968"/>
      <rect width=".706" height=".693" x="18.702" y="9.354"/>
      <rect width=".706" height=".693" x="18.702" y="10.74"/>
      <rect width=".706" height=".693" x="3.176" y="14.205"/>
      <rect width=".706" height=".693" x="3.176" y="15.59"/>
      <rect width="2.117" height=".693" x="1.764" y="16.976"/>
      <rect width=".706" height=".693" x="1.764" y="14.205"/>
      <rect width=".706" height=".693" x="1.764" y="15.59"/>
      <rect width=".706" height=".693" x="4.587" y="16.976"/>
      <rect width=".706" height=".693" x="4.587" y="15.59"/>
      <rect width="2.117" height=".693" x="4.587" y="14.205"/>
      <rect width=".706" height=".693" x="5.999" y="15.59"/>
      <rect width=".706" height=".693" x="5.999" y="16.976"/>
      <rect width="2.823" height=".693" x="7.763" y="14.205"/>
      <rect width="2.823" height=".693" x="7.763" y="15.59"/>
      <rect width="2.823" height=".693" x="7.763" y="16.976"/>
      <rect width="1.411" height=".693" x="1.764" y="1.732"/>
      <rect width="1.411" height=".693" x="1.764" y="3.118"/>
      <rect width="1.411" height=".693" x="1.764" y="4.504"/>
    </g>
  </g>
</svg>
