<svg xmlns="http://www.w3.org/2000/svg" width="18" height="18" viewBox="0 0 18 18">
  <g fill="none" fill-rule="evenodd">
    <rect width="4.909" height="11.864" x="6.545" y=".409" fill="#E9F1FD"/>
    <path fill="#93B0D2" d="M17.7,12.6 C17.8656,12.6 18,12.4656 18,12.3 L18,0.3 C18,0.1344 17.8656,0 17.7,0 L12.9,0 C12.7344,0 12.6,0.1344 12.6,0.3 L12.6,12.3 C12.6,12.4656 12.7344,12.6 12.9,12.6 L14.1,12.6 L14.1,15.6 L10.2,15.6 L10.2,12.6 L11.4,12.6 C11.5656,12.6 11.7,12.4656 11.7,12.3 L11.7,0.3 C11.7,0.1344 11.5656,0 11.4,0 L6.6,0 C6.4344,0 6.3,0.1344 6.3,0.3 L6.3,12.3 C6.3,12.4656 6.4344,12.6 6.6,12.6 L7.8,12.6 L7.8,15.6 L3.9,15.6 L3.9,12.6 L5.1,12.6 C5.2656,12.6 5.4,12.4656 5.4,12.3 L5.4,0.3 C5.4,0.1344 5.2656,0 5.1,0 L0.3,0 C0.1344,0 0,0.1344 0,0.3 L0,12.3 C0,12.4656 0.1344,12.6 0.3,12.6 L1.5,12.6 L1.5,15.6 L0,15.6 L0,16.2 L1.8,16.2 L2.7,16.2 L2.7,15.6 L2.1,15.6 L2.1,12.6 L3.3,12.6 L3.3,15.9 C3.3,16.0656 3.4344,16.2 3.6,16.2 L8.1,16.2 L9,16.2 L9,15.6 L8.4,15.6 L8.4,12.6 L9.6,12.6 L9.6,15.9 C9.6,16.0656 9.7344,16.2 9.9,16.2 L14.4,16.2 L15.3,16.2 L15.3,15.6 L14.7,15.6 L14.7,12.6 L15.9,12.6 L15.9,15.9 C15.9,16.0656 16.0344,16.2 16.2,16.2 L18,16.2 L18,15.6 L16.5,15.6 L16.5,12.6 L17.7,12.6 L17.7,12.6 Z M4.8,0.6 L4.8,10.5 L0.6,10.5 L0.6,0.6 L4.8,0.6 L4.8,0.6 Z M1.8,12 L0.6,12 L0.6,11.1 L4.8,11.1 L4.8,12 L3.6,12 L1.8,12 L1.8,12 Z M11.1,0.6 L11.1,10.5 L6.9,10.5 L6.9,0.6 L11.1,0.6 L11.1,0.6 Z M8.1,12 L6.9,12 L6.9,11.1 L11.1,11.1 L11.1,12 L9.9,12 L8.1,12 L8.1,12 Z M17.4,0.6 L17.4,10.5 L13.2,10.5 L13.2,0.6 L17.4,0.6 L17.4,0.6 Z M14.4,12 L13.2,12 L13.2,11.1 L17.4,11.1 L17.4,12 L16.2,12 L14.4,12 L14.4,12 Z"/>
    <rect width="18" height=".6" y="17.4" fill="#93B0D2"/>
    <rect width="2.4" height=".6" x="1.5" y="4.2" fill="#93B0D2"/>
    <rect width="2.4" height=".6" x="1.5" y="5.7" fill="#93B0D2"/>
    <rect width="2.4" height=".6" x="1.5" y="7.2" fill="#93B0D2"/>
    <rect width="2.4" height=".6" x="1.5" y="8.7" fill="#93B0D2"/>
    <rect width="2.4" height=".6" x="7.8" y="4.2" fill="#93B0D2"/>
    <rect width="2.4" height=".6" x="7.8" y="5.7" fill="#93B0D2"/>
    <rect width="2.4" height=".6" x="7.8" y="7.2" fill="#93B0D2"/>
    <rect width="2.4" height=".6" x="7.8" y="8.7" fill="#93B0D2"/>
    <rect width="2.4" height=".6" x="14.1" y="4.2" fill="#93B0D2"/>
    <rect width="2.4" height=".6" x="14.1" y="5.7" fill="#93B0D2"/>
    <rect width="2.4" height=".6" x="14.1" y="7.2" fill="#93B0D2"/>
    <rect width="2.4" height=".6" x="14.1" y="8.7" fill="#93B0D2"/>
    <path fill="#93B0D2" d="M2.7 3C3.1962 3 3.6 2.5962 3.6 2.1 3.6 1.6038 3.1962 1.2 2.7 1.2 2.2038 1.2 1.8 1.6038 1.8 2.1 1.8 2.5962 2.2038 3 2.7 3L2.7 3zM2.7 1.8C2.8653 1.8 3 1.9347 3 2.1 3 2.2653 2.8653 2.4 2.7 2.4 2.5347 2.4 2.4 2.2653 2.4 2.1 2.4 1.9347 2.5347 1.8 2.7 1.8L2.7 1.8zM9 3C9.4962 3 9.9 2.5962 9.9 2.1 9.9 1.6038 9.4962 1.2 9 1.2 8.5038 1.2 8.1 1.6038 8.1 2.1 8.1 2.5962 8.5038 3 9 3L9 3zM9 1.8C9.1653 1.8 9.3 1.9347 9.3 2.1 9.3 2.2653 9.1653 2.4 9 2.4 8.8347 2.4 8.7 2.2653 8.7 2.1 8.7 1.9347 8.8347 1.8 9 1.8L9 1.8zM15.3 3C15.7962 3 16.2 2.5962 16.2 2.1 16.2 1.6038 15.7962 1.2 15.3 1.2 14.8038 1.2 14.4 1.6038 14.4 2.1 14.4 2.5962 14.8038 3 15.3 3L15.3 3zM15.3 1.8C15.4653 1.8 15.6 1.9347 15.6 2.1 15.6 2.2653 15.4653 2.4 15.3 2.4 15.1347 2.4 15 2.2653 15 2.1 15 1.9347 15.1347 1.8 15.3 1.8L15.3 1.8z"/>
  </g>
</svg>
