<svg xmlns="http://www.w3.org/2000/svg" width="20" height="20" viewBox="0 0 20 20">
  <g fill="none" fill-rule="evenodd">
    <path fill="#93B0D2" d="M20,20 L0,20 L0,0 L20,0 L20,20 L20,20 Z M0.625,19.375 L19.375,19.375 L19.375,0.625 L0.625,0.625 L0.625,19.375 L0.625,19.375 Z"/>
    <rect width="19.375" height=".625" x=".313" y="2.5" fill="#93B0D2"/>
    <rect width=".625" height=".625" x="1.25" y="1.25" fill="#93B0D2"/>
    <rect width=".625" height=".625" x="2.5" y="1.25" fill="#93B0D2"/>
    <rect width=".625" height=".625" x="3.75" y="1.25" fill="#93B0D2"/>
    <rect width=".625" height="2.5" x="5" y=".313" fill="#93B0D2"/>
    <rect width="12.5" height=".625" x="6.25" y="1.25" fill="#93B0D2"/>
    <path fill="#93B0D2" d="M18.75,18.75 L1.25,18.75 L1.25,3.75 L18.75,3.75 L18.75,18.75 L18.75,18.75 Z M1.875,18.125 L18.125,18.125 L18.125,4.375 L1.875,4.375 L1.875,18.125 L1.875,18.125 Z"/>
    <path fill="#E9F1FD" d="M9.203125,9.36096191 L7.21911621,10.5878906 C7.21911621,10.5878906 7.19470215,12.2003174 8.08374023,12.2003174 C8.97277832,12.2003174 11.3330077,12.2095947 11.9672852,12.2095947 C12.6015626,12.2095947 12.8724365,10.604126 12.8724365,10.604126 L11.0585938,9.32275391 L9.203125,9.36096191 Z"/>
    <path fill="#E9F1FD" d="M10.1556396,5.9901123 C11.5863037,6.01199593 11.5609131,6.31201172 11.5609131,7.55749512 C11.5609131,8.80297852 10.8212891,9.7520752 10.1950684,9.7520752 C9.56884766,9.7520752 8.33498847,8.70202637 8.32568359,7.65344238 C8.31637872,6.60485839 8.72497559,5.96822868 10.1556396,5.9901123 Z"/>
    <g fill="#93B0D2" transform="translate(6.875 5.625)">
      <path d="M3.125,4.375 C2.05625,4.375 1.25,3.3675 1.25,2.03125 C1.25,1.085625 1.463125,0 3.125,0 C4.786875,0 5,1.085625 5,2.03125 C5,3.3675 4.19375,4.375 3.125,4.375 L3.125,4.375 Z M3.125,0.625 C2.17875,0.625 1.875,0.9665625 1.875,2.03125 C1.875,2.8646875 2.313125,3.75 3.125,3.75 C3.936875,3.75 4.375,2.8646875 4.375,2.03125 C4.375,0.9665625 4.07125,0.625 3.125,0.625 L3.125,0.625 Z"/>
      <path d="M5.3125,6.875 L0.9375,6.875 C0.429375,6.875 0,6.3025 0,5.625 L0,4.8328125 L2.0140625,3.49 L2.360625,4.01 L0.625,5.1671875 L0.625,5.625 C0.625,6.0075 0.8446875,6.25 0.9375,6.25 L5.3125,6.25 C5.4053125,6.25 5.625,6.0075 5.625,5.625 L5.625,5.1671875 L3.8890625,4.01 L4.235625,3.49 L6.25,4.8328125 L6.25,5.625 C6.25,6.3025 5.820625,6.875 5.3125,6.875 L5.3125,6.875 Z"/>
    </g>
    <g fill="#93B0D2" transform="translate(12.5 6.563)">
      <path d="M3.4375,5.9375 L1.25,5.9375 L1.25,5.3125 L3.4375,5.3125 C3.5303125,5.3125 3.75,5.07 3.75,4.6875 L3.75,4.2296875 L2.0140625,3.0725 L2.360625,2.5525 L4.375,3.8953125 L4.375,4.6875 C4.375,5.365 3.945625,5.9375 3.4375,5.9375 L3.4375,5.9375 Z"/>
      <path d="M1.5625,3.125 C0.7009375,3.125 0,2.4240625 0,1.5625 C0,0.7009375 0.7009375,0 1.5625,0 C2.4240625,0 3.125,0.7009375 3.125,1.5625 C3.125,2.4240625 2.4240625,3.125 1.5625,3.125 L1.5625,3.125 Z M1.5625,0.625 C1.045625,0.625 0.625,1.045625 0.625,1.5625 C0.625,2.079375 1.045625,2.5 1.5625,2.5 C2.079375,2.5 2.5,2.079375 2.5,1.5625 C2.5,1.045625 2.079375,0.625 1.5625,0.625 L1.5625,0.625 Z"/>
    </g>
    <g fill="#93B0D2" transform="translate(3.125 6.563)">
      <path d="M3.125,5.9375 L0.9375,5.9375 C0.429375,5.9375 0,5.365 0,4.6875 L0,3.8953125 L2.0140625,2.5525 L2.360625,3.0725 L0.625,4.2296875 L0.625,4.6875 C0.625,5.07 0.8446875,5.3125 0.9375,5.3125 L3.125,5.3125 L3.125,5.9375 L3.125,5.9375 Z"/>
      <path d="M2.8125,3.125 C1.9509375,3.125 1.25,2.4240625 1.25,1.5625 C1.25,0.7009375 1.9509375,0 2.8125,0 C3.6740625,0 4.375,0.7009375 4.375,1.5625 C4.375,2.4240625 3.6740625,3.125 2.8125,3.125 L2.8125,3.125 Z M2.8125,0.625 C2.295625,0.625 1.875,1.045625 1.875,1.5625 C1.875,2.079375 2.295625,2.5 2.8125,2.5 C3.329375,2.5 3.75,2.079375 3.75,1.5625 C3.75,1.045625 3.329375,0.625 2.8125,0.625 L2.8125,0.625 Z"/>
    </g>
    <rect width="10.313" height=".625" x="6.563" y="13.438" fill="#93B0D2"/>
    <rect width="2.5" height=".625" x="3.125" y="13.438" fill="#93B0D2"/>
    <rect width="4.063" height=".625" x="12.813" y="14.688" fill="#93B0D2"/>
    <rect width="8.75" height=".625" x="3.125" y="14.688" fill="#93B0D2"/>
    <rect width="7.813" height=".625" x="9.063" y="15.938" fill="#93B0D2"/>
    <rect width="5" height=".625" x="3.125" y="15.938" fill="#93B0D2"/>
    <rect width=".625" height="1.25" x="6.25" y="13.125" fill="#93B0D2"/>
    <rect width=".625" height="1.25" x="12.5" y="14.375" fill="#93B0D2"/>
    <rect width=".625" height="1.25" x="8.75" y="15.625" fill="#93B0D2"/>
  </g>
</svg>
