<svg xmlns="http://www.w3.org/2000/svg" width="29" height="39" viewBox="0 0 29 39">
  <g fill="#93B0D2" fill-rule="evenodd">
    <path d="M25.375,15.234375 L24.1666667,15.234375 L24.1666667,10.359375 C24.1666667,5.31923437 20.1012292,1.21875 15.1041667,1.21875 L13.8958333,1.21875 C8.89877083,1.21875 4.83333333,5.31923437 4.83333333,10.359375 L4.83333333,15.234375 L3.625,15.234375 L3.625,10.359375 C3.625,4.64709375 8.232375,0 13.8958333,0 L15.1041667,0 C20.767625,0 25.375,4.64709375 25.375,10.359375 L25.375,15.234375 L25.375,15.234375 Z"/>
    <path d="M21.75 13.40625L20.5416667 13.40625 20.5416667 10.359375C20.5416667 7.33504687 18.1020417 4.875 15.1041667 4.875L13.8958333 4.875C10.8979583 4.875 8.45833333 7.33504687 8.45833333 10.359375L8.45833333 13.40625 7.25 13.40625 7.25 10.359375C7.25 6.66351562 10.2315625 3.65625 13.8958333 3.65625L15.1041667 3.65625C18.7684375 3.65625 21.75 6.66351562 21.75 10.359375L21.75 13.40625 21.75 13.40625zM14.5 31.3304062L9.41654167 26.203125 12.0833333 23.5133437 14.5 25.9508437 19.9375 20.4664687 22.6042917 23.15625 14.5 31.3304062 14.5 31.3304062zM11.125125 26.203125L14.5 29.6070937 20.8957083 23.15625 19.9375 22.1897812 14.5 27.6741562 12.0833333 25.2366562 11.125125 26.203125 11.125125 26.203125z"/>
    <path d="M14.5,35.34375 C9.83583333,35.34375 6.04166667,31.516875 6.04166667,26.8125 C6.04166667,22.108125 9.83583333,18.28125 14.5,18.28125 C15.627375,18.28125 16.7233333,18.5012344 17.7570625,18.9363281 L17.2918542,20.0612344 C16.4061458,19.6889063 15.4672708,19.5 14.5,19.5 C10.5022292,19.5 7.25,22.7802656 7.25,26.8125 C7.25,30.8447344 10.5022292,34.125 14.5,34.125 C18.4977708,34.125 21.75,30.8447344 21.75,26.8125 L22.9583333,26.8125 C22.9583333,31.516875 19.1641667,35.34375 14.5,35.34375 L14.5,35.34375 Z"/>
    <path d="M26.5833333,39 L2.41666667,39 C1.083875,39 0,37.9067812 0,36.5625 L0,17.0625 C0,15.7182188 1.083875,14.625 2.41666667,14.625 L26.5833333,14.625 C27.916125,14.625 29,15.7182188 29,17.0625 L29,36.5625 C29,37.9067812 27.916125,39 26.5833333,39 L26.5833333,39 Z M2.41666667,15.84375 C1.75027083,15.84375 1.20833333,16.3903594 1.20833333,17.0625 L1.20833333,36.5625 C1.20833333,37.2346406 1.75027083,37.78125 2.41666667,37.78125 L26.5833333,37.78125 C27.2497292,37.78125 27.7916667,37.2346406 27.7916667,36.5625 L27.7916667,17.0625 C27.7916667,16.3903594 27.2497292,15.84375 26.5833333,15.84375 L2.41666667,15.84375 L2.41666667,15.84375 Z"/>
    <polygon points="1.031 37.603 .177 36.741 2.417 34.482 2.417 19.143 .177 16.884 1.031 16.022 3.625 18.638 3.625 34.987"/>
    <polygon points="27.969 37.603 25.375 34.987 25.375 18.638 27.969 16.022 28.823 16.884 26.583 19.143 26.583 34.482 28.823 36.741"/>
    <rect width="2.417" height="1.219" x="25.979" y="20.109"/>
    <rect width="2.417" height="1.219" x="25.979" y="22.547"/>
    <rect width="2.417" height="1.219" x="25.979" y="24.984"/>
    <rect width="2.417" height="1.219" x="25.979" y="27.422"/>
    <rect width="2.417" height="1.219" x="25.979" y="29.859"/>
    <rect width="2.417" height="1.219" x="25.979" y="32.297"/>
    <rect width="2.417" height="1.219" x=".604" y="20.109"/>
    <rect width="2.417" height="1.219" x=".604" y="22.547"/>
    <rect width="2.417" height="1.219" x=".604" y="24.984"/>
    <rect width="2.417" height="1.219" x=".604" y="27.422"/>
    <rect width="2.417" height="1.219" x=".604" y="29.859"/>
    <rect width="2.417" height="1.219" x=".604" y="32.297"/>
  </g>
</svg>
