<svg xmlns="http://www.w3.org/2000/svg" width="30" height="36" viewBox="0 0 30 36">
  <g fill="#93B0D2" fill-rule="evenodd">
    <path d="M30,10.125 L0,10.125 L0,0 L30,0 L30,10.125 L30,10.125 Z M1.11111111,9 L28.8888889,9 L28.8888889,1.125 L1.11111111,1.125 L1.11111111,9 L1.11111111,9 Z"/>
    <rect width="1.111" height="2.25" x="2.222" y="9.563"/>
    <rect width="1.111" height="2.25" x="26.667" y="9.563"/>
    <rect width="1.111" height="3.375" x="3.333" y="3.375"/>
    <rect width="1.111" height="3.375" x="5.556" y="3.375"/>
    <rect width="1.111" height="3.375" x="7.778" y="3.375"/>
    <rect width="1.111" height="3.375" x="10" y="3.375"/>
    <rect width="1.111" height="3.375" x="12.222" y="3.375"/>
    <path d="M30,21.375 L0,21.375 L0,11.25 L30,11.25 L30,21.375 L30,21.375 Z M1.11111111,20.25 L28.8888889,20.25 L28.8888889,12.375 L1.11111111,12.375 L1.11111111,20.25 L1.11111111,20.25 Z"/>
    <rect width="1.111" height="2.25" x="2.222" y="20.813"/>
    <rect width="1.111" height="2.25" x="26.667" y="20.813"/>
    <rect width="1.111" height="3.375" x="3.333" y="14.625"/>
    <rect width="1.111" height="3.375" x="5.556" y="14.625"/>
    <rect width="1.111" height="3.375" x="7.778" y="14.625"/>
    <rect width="1.111" height="3.375" x="10" y="14.625"/>
    <rect width="1.111" height="3.375" x="12.222" y="14.625"/>
    <rect width="1.111" height="1.125" x="19.444" y="15.75"/>
    <rect width="1.111" height="1.125" x="17.222" y="15.75"/>
    <rect width="1.111" height="1.125" x="15" y="15.75"/>
    <path d="M30,32.625 L0,32.625 L0,22.5 L30,22.5 L30,32.625 L30,32.625 Z M1.11111111,31.5 L28.8888889,31.5 L28.8888889,23.625 L1.11111111,23.625 L1.11111111,31.5 L1.11111111,31.5 Z"/>
    <rect width="1.111" height="3.938" x="2.222" y="32.063"/>
    <rect width="1.111" height="3.938" x="26.667" y="32.063"/>
    <rect width="1.111" height="3.375" x="3.333" y="25.875"/>
    <rect width="1.111" height="3.375" x="5.556" y="25.875"/>
    <rect width="1.111" height="3.375" x="7.778" y="25.875"/>
    <rect width="1.111" height="3.375" x="10" y="25.875"/>
    <rect width="1.111" height="3.375" x="12.222" y="25.875"/>
    <path d="M24.4444444,18.5625 C23.2188889,18.5625 22.2222222,17.553375 22.2222222,16.3125 C22.2222222,15.071625 23.2188889,14.0625 24.4444444,14.0625 C25.67,14.0625 26.6666667,15.071625 26.6666667,16.3125 C26.6666667,17.553375 25.67,18.5625 24.4444444,18.5625 L24.4444444,18.5625 Z M24.4444444,15.1875 C23.8316667,15.1875 23.3333333,15.6920625 23.3333333,16.3125 C23.3333333,16.9329375 23.8316667,17.4375 24.4444444,17.4375 C25.0572222,17.4375 25.5555556,16.9329375 25.5555556,16.3125 C25.5555556,15.6920625 25.0572222,15.1875 24.4444444,15.1875 L24.4444444,15.1875 Z"/>
    <rect width="1.111" height="1.125" x="19.444" y="27"/>
    <rect width="1.111" height="1.125" x="17.222" y="27"/>
    <rect width="1.111" height="1.125" x="15" y="27"/>
    <path d="M24.4444444,29.8125 C23.2188889,29.8125 22.2222222,28.803375 22.2222222,27.5625 C22.2222222,26.321625 23.2188889,25.3125 24.4444444,25.3125 C25.67,25.3125 26.6666667,26.321625 26.6666667,27.5625 C26.6666667,28.803375 25.67,29.8125 24.4444444,29.8125 L24.4444444,29.8125 Z M24.4444444,26.4375 C23.8316667,26.4375 23.3333333,26.9420625 23.3333333,27.5625 C23.3333333,28.1829375 23.8316667,28.6875 24.4444444,28.6875 C25.0572222,28.6875 25.5555556,28.1829375 25.5555556,27.5625 C25.5555556,26.9420625 25.0572222,26.4375 24.4444444,26.4375 L24.4444444,26.4375 Z"/>
    <rect width="1.111" height="1.125" x="19.444" y="4.5"/>
    <rect width="1.111" height="1.125" x="17.222" y="4.5"/>
    <rect width="1.111" height="1.125" x="15" y="4.5"/>
    <path d="M24.4444444,7.3125 C23.2188889,7.3125 22.2222222,6.303375 22.2222222,5.0625 C22.2222222,3.821625 23.2188889,2.8125 24.4444444,2.8125 C25.67,2.8125 26.6666667,3.821625 26.6666667,5.0625 C26.6666667,6.303375 25.67,7.3125 24.4444444,7.3125 L24.4444444,7.3125 Z M24.4444444,3.9375 C23.8316667,3.9375 23.3333333,4.4420625 23.3333333,5.0625 C23.3333333,5.6829375 23.8316667,6.1875 24.4444444,6.1875 C25.0572222,6.1875 25.5555556,5.6829375 25.5555556,5.0625 C25.5555556,4.4420625 25.0572222,3.9375 24.4444444,3.9375 L24.4444444,3.9375 Z"/>
    <rect width="21.111" height="1.125" x="4.444" y="33.75"/>
  </g>
</svg>
