<svg xmlns="http://www.w3.org/2000/svg" width="25" height="25" viewBox="0 0 25 25">
  <g fill="#93B0D2" fill-rule="evenodd">
    <path d="M25,25 L0,25 L0,0 L25,0 L25,25 L25,25 Z M0.78125,24.21875 L24.21875,24.21875 L24.21875,0.78125 L0.78125,0.78125 L0.78125,24.21875 L0.78125,24.21875 Z"/>
    <rect width="24.219" height=".781" x=".391" y="3.125"/>
    <rect width=".781" height=".781" x="1.563" y="1.563"/>
    <rect width=".781" height=".781" x="3.125" y="1.563"/>
    <rect width=".781" height=".781" x="4.688" y="1.563"/>
    <rect width=".781" height="3.125" x="6.25" y=".391"/>
    <rect width="15.625" height=".781" x="7.813" y="1.563"/>
    <path d="M23.4375,23.4375 L1.5625,23.4375 L1.5625,4.6875 L23.4375,4.6875 L23.4375,23.4375 L23.4375,23.4375 Z M2.34375,22.65625 L22.65625,22.65625 L22.65625,5.46875 L2.34375,5.46875 L2.34375,22.65625 L2.34375,22.65625 Z"/>
    <g transform="translate(3.906 9.766)">
      <path d="M6.25,8.59375 L0,8.59375 L0,3.125 L6.25,3.125 L6.25,8.59375 L6.25,8.59375 Z M0.78125,7.8125 L5.46875,7.8125 L5.46875,3.90625 L0.78125,3.90625 L0.78125,7.8125 L0.78125,7.8125 Z"/>
      <path d="M5.46875,3.515625 L4.6875,3.515625 L4.6875,1.171875 C4.6875,0.956640625 4.51210937,0.78125 4.296875,0.78125 L1.953125,0.78125 C1.73789062,0.78125 1.5625,0.956640625 1.5625,1.171875 L1.5625,3.515625 L0.78125,3.515625 L0.78125,1.171875 C0.78125,0.52578125 1.30703125,0 1.953125,0 L4.296875,0 C4.94296875,0 5.46875,0.52578125 5.46875,1.171875 L5.46875,3.515625 L5.46875,3.515625 Z"/>
    </g>
    <polygon points="21.094 13.672 10.938 13.672 10.938 12.891 20.313 12.891 20.313 10.547 10.156 10.547 10.156 9.766 21.094 9.766"/>
    <polygon points="21.094 18.359 10.938 18.359 10.938 17.578 20.313 17.578 20.313 15.234 10.938 15.234 10.938 14.453 21.094 14.453"/>
    <rect width=".781" height=".781" x="11.719" y="11.328"/>
    <rect width=".781" height=".781" x="13.281" y="11.328"/>
    <rect width=".781" height=".781" x="14.844" y="11.328"/>
    <rect width=".781" height=".781" x="16.406" y="11.328"/>
    <rect width=".781" height=".781" x="17.969" y="11.328"/>
    <rect width=".781" height=".781" x="11.719" y="16.016"/>
    <rect width=".781" height=".781" x="13.281" y="16.016"/>
    <rect width=".781" height=".781" x="14.844" y="16.016"/>
    <rect width=".781" height=".781" x="16.406" y="16.016"/>
    <rect width=".781" height=".781" x="17.969" y="16.016"/>
    <rect width=".781" height=".781" x="6.641" y="14.453"/>
  </g>
</svg>
