<svg xmlns="http://www.w3.org/2000/svg" width="29" height="29" viewBox="0 0 29 29">
  <g fill="#93B0D2" fill-rule="evenodd">
    <path d="M10.6333333,10.6333333 L10.6333333,11.6 L16.4333333,11.6 C16.7006167,11.6 16.9166667,11.3834667 16.9166667,11.1166667 L16.9166667,8.7 C16.9166667,8.4332 16.7006167,8.21666667 16.4333333,8.21666667 L3.38333333,8.21666667 C1.51815,8.21666667 0,9.73433333 0,11.6 L0,18.3666667 L0.966666667,18.3666667 L0.966666667,11.6 C0.966666667,10.26745 2.05078333,9.18333333 3.38333333,9.18333333 L4.01505,9.18333333 L5.3476,12.7363167 C5.41816667,12.9248167 5.59845,13.05 5.8,13.05 C6.00155,13.05 6.18183333,12.9248167 6.2524,12.7363167 L7.58495,9.18333333 L15.95,9.18333333 L15.95,10.6333333 L10.6333333,10.6333333 L10.6333333,10.6333333 Z M5.8,11.1901333 L5.04745,9.18333333 L6.55206667,9.18333333 L5.8,11.1901333 L5.8,11.1901333 Z"/>
    <path d="M8.21666667,28.0333333 L6.28333333,28.0333333 L6.28333333,18.85 L5.31666667,18.85 L5.31666667,28.0333333 L3.38333333,28.0333333 L3.38333333,12.0833333 L2.41666667,12.0833333 L2.41666667,28.5166667 C2.41666667,28.7834667 2.63271667,29 2.9,29 L5.8,29 L8.7,29 C8.96728333,29 9.18333333,28.7834667 9.18333333,28.5166667 L9.18333333,12.0833333 L8.21666667,12.0833333 L8.21666667,28.0333333 L8.21666667,28.0333333 Z"/>
    <rect width=".967" height=".967" x="5.317" y="14.017"/>
    <rect width=".967" height=".967" x="5.317" y="15.95"/>
    <path d="M5.31666667 7.73333333L6.28333333 7.73333333C7.61588333 7.73333333 8.7 6.64921667 8.7 5.31666667L8.7 3.86666667C8.7 2.53411667 7.61588333 1.45 6.28333333 1.45L5.31666667 1.45C3.98411667 1.45 2.9 2.53411667 2.9 3.86666667L2.9 5.31666667C2.9 6.64921667 3.98411667 7.73333333 5.31666667 7.73333333L5.31666667 7.73333333zM3.86666667 3.86666667C3.86666667 3.06723333 4.51723333 2.41666667 5.31666667 2.41666667L6.28333333 2.41666667C7.08276667 2.41666667 7.73333333 3.06723333 7.73333333 3.86666667L7.73333333 5.31666667C7.73333333 6.1161 7.08276667 6.76666667 6.28333333 6.76666667L5.31666667 6.76666667C4.51723333 6.76666667 3.86666667 6.1161 3.86666667 5.31666667L3.86666667 3.86666667 3.86666667 3.86666667zM28.5166667 0L10.15 0 10.15.966666667 28.0333333.966666667 28.0333333 19.8166667 11.6 19.8166667 11.1166667 19.8166667 11.1166667 20.3 11.1166667 20.7833333 11.1166667 22.7166667C11.1166667 22.9834667 11.3327167 23.2 11.6 23.2L28.5166667 23.2C28.78395 23.2 29 22.9834667 29 22.7166667L29 20.3 29 .483333333C29 .216533333 28.78395 0 28.5166667 0L28.5166667 0zM28.0333333 22.2333333L12.0833333 22.2333333 12.0833333 20.7833333 28.0333333 20.7833333 28.0333333 22.2333333 28.0333333 22.2333333z"/>
    <rect width="4.35" height=".967" x="18.85" y="8.217"/>
    <rect width="6.767" height=".967" x="18.85" y="10.15"/>
    <rect width="6.767" height=".967" x="18.85" y="12.083"/>
    <rect width="6.767" height=".967" x="18.85" y="14.017"/>
    <rect width=".967" height=".967" x="18.85" y="15.95"/>
    <rect width=".967" height=".967" x="20.783" y="15.95"/>
    <rect width=".967" height=".967" x="22.717" y="15.95"/>
    <rect width=".967" height=".967" x="24.65" y="15.95"/>
    <rect width=".967" height=".967" x="11.117" y="15.95"/>
    <rect width=".967" height=".967" x="13.05" y="15.95"/>
    <rect width=".967" height=".967" x="14.983" y="15.95"/>
    <rect width=".967" height=".967" x="16.917" y="15.95"/>
    <rect width=".967" height=".967" x="11.117" y="14.017"/>
    <rect width=".967" height=".967" x="13.05" y="14.017"/>
    <rect width=".967" height=".967" x="14.983" y="14.017"/>
    <rect width=".967" height=".967" x="16.917" y="14.017"/>
    <rect width=".967" height=".967" x="11.117" y="12.083"/>
    <rect width=".967" height=".967" x="13.05" y="12.083"/>
    <rect width=".967" height=".967" x="14.983" y="12.083"/>
    <rect width=".967" height=".967" x="16.917" y="12.083"/>
    <rect width=".967" height=".967" x="11.117" y="17.883"/>
    <rect width=".967" height=".967" x="13.05" y="17.883"/>
    <rect width=".967" height=".967" x="14.983" y="17.883"/>
    <rect width=".967" height=".967" x="16.917" y="17.883"/>
    <rect width=".967" height=".967" x="18.85" y="17.883"/>
    <rect width=".967" height=".967" x="20.783" y="17.883"/>
    <rect width=".967" height=".967" x="22.717" y="17.883"/>
    <rect width=".967" height=".967" x="24.65" y="17.883"/>
    <rect width="4.35" height=".967" x="10.15" y="2.9"/>
    <rect width="8.217" height=".967" x="10.15" y="5.317"/>
    <rect width="1.933" height=".967" x="15.467" y="2.9"/>
    <path d="M25.6166667,4.35 C25.6166667,3.28376667 24.7495667,2.41666667 23.6833333,2.41666667 C22.6171,2.41666667 21.75,3.28376667 21.75,4.35 C21.75,5.41623333 22.6171,6.28333333 23.6833333,6.28333333 C24.7495667,6.28333333 25.6166667,5.41623333 25.6166667,4.35 L25.6166667,4.35 Z M22.7166667,4.35 C22.7166667,3.81688333 23.1502167,3.38333333 23.6833333,3.38333333 C24.21645,3.38333333 24.65,3.81688333 24.65,4.35 C24.65,4.88311667 24.21645,5.31666667 23.6833333,5.31666667 C23.1502167,5.31666667 22.7166667,4.88311667 22.7166667,4.35 L22.7166667,4.35 Z"/>
  </g>
</svg>
