<?xml version="1.0" encoding="utf-8"?>
<!-- Generator: Adobe Illustrator 16.2.1, SVG Export Plug-In . SVG Version: 6.00 Build 0)  -->
<!DOCTYPE svg PUBLIC "-//W3C//DTD SVG 1.1//EN" "http://www.w3.org/Graphics/SVG/1.1/DTD/svg11.dtd">
<svg version="1.1" id="Layer_1" xmlns="http://www.w3.org/2000/svg" xmlns:xlink="http://www.w3.org/1999/xlink" x="0px" y="0px"
	 width="122px" height="67px" viewBox="0 0 122 67" enable-background="new 0 0 122 67" xml:space="preserve">
<g>
	<path fill="#00BCE4" d="M34.588,31.154c1.268,0,2.162,0.38,2.608,1.352c0.521,1.121,0.597,2.532,0.597,3.711
		c0,1.795-0.148,4.742-3.242,4.742c-3.132,0-3.094-3.655-3.094-5.36C31.458,33.891,31.646,31.154,34.588,31.154z M34.551,28.295
		c-5.772,0-8.976,3.387-8.976,7.746c0,4.331,3.164,7.803,8.976,7.803c5.586,0,9.126-3.387,9.126-7.657
		C43.677,31.771,40.474,28.295,34.551,28.295z"/>
	<path fill="#00BCE4" d="M53.24,31.154c1.268,0,2.159,0.38,2.608,1.352c0.521,1.121,0.594,2.532,0.594,3.711
		c0,1.795-0.146,4.742-3.239,4.742c-3.128,0-3.09-3.655-3.09-5.36C50.113,33.891,50.297,31.154,53.24,31.154z M53.203,28.295
		c-5.772,0-8.979,3.387-8.979,7.746c0,4.331,3.168,7.803,8.979,7.803c5.587,0,9.126-3.387,9.126-7.657
		C62.329,31.771,59.125,28.295,53.203,28.295z"/>
	<path fill="#00BCE4" d="M68.675,35.156c0-0.882,0-1.794,0.559-2.591c0.484-0.737,1.379-1.207,2.457-1.207
		c2.759,0,2.907,3.091,2.907,4.625c0,1.529-0.113,4.798-2.945,4.798c-0.965,0-1.935-0.469-2.458-1.121
		c-0.633-0.823-0.52-2.089-0.52-3.031V35.156z M63.199,28.592v19.991h5.477v-6.682h0.075c0.781,1.326,2.495,1.943,4.357,1.943
		c5.513,0,7.228-4.064,7.228-7.747c0-1.824-0.224-3.618-1.418-5.211c-1.266-1.705-3.054-2.591-5.586-2.591
		c-2.422,0-3.913,0.855-4.918,2.505H68.34v-2.208H63.199z"/>
	<path fill="#00BCE4" d="M105.392,28.58v2.8h0.075c0.559-1.59,1.641-2.874,3.996-3.09c3.382-0.315,5.037,1.223,5.037,1.223
		l-1.95,3.566c-0.659-0.4-2.156-0.715-3.356-0.522c-2.889,0.463-3.427,2.954-3.427,5.271v5.714h-5.476V28.58H105.392z"/>
	<path fill="#00BCE4" d="M20.015,34.324c0-1.355-0.894-2.679-2.87-2.679c-3.016,0-3.388,2.355-3.388,4.27
		c0,1.827,0.037,4.415,3.166,4.415c1.938,0,2.905-1.207,3.092-2.587l5.147,0.716c-0.659,3.176-3.528,5.412-8.538,5.438
		C10.89,43.925,7.5,40.686,7.5,36.267c0-4.594,3.5-7.915,9.461-7.921c4.457-0.003,7.479,2.073,8.201,5.39L20.015,34.324z"/>
	<path fill="#00BCE4" d="M86.911,35.097c0.167-1.993,0.615-3.934,3.637-3.984c2.384-0.039,3.002,1.676,3.118,2.27L86.911,35.097z
		 M99.141,35.296c-0.157-1.379-0.651-3.008-1.89-4.36c-1.563-1.708-4.285-2.65-6.926-2.65c-5.888,0-9.203,3.562-9.203,7.98
		c0,4.445,3.688,7.568,9.348,7.568c6.409,0,8.857-4.109,8.838-6.587l-5.344,1.373c0.039,1.076-1.631,2.121-3.307,2.121
		c-2.15,0-3.391-0.956-3.615-2.376L99.141,35.296z"/>
</g>
</svg>
