<?xml version="1.0" encoding="utf-8"?>
<!-- Generator: Adobe Illustrator 16.2.1, SVG Export Plug-In . SVG Version: 6.00 Build 0)  -->
<!DOCTYPE svg PUBLIC "-//W3C//DTD SVG 1.1//EN" "http://www.w3.org/Graphics/SVG/1.1/DTD/svg11.dtd">
<svg version="1.1" id="Layer_1" xmlns="http://www.w3.org/2000/svg" xmlns:xlink="http://www.w3.org/1999/xlink" x="0px" y="0px"
	 width="967px" height="612px" viewBox="-84 0 967 612" enable-background="new -84 0 967 612" xml:space="preserve">
<g>
	<polygon fill="#4BB761" points="558.566,345.138 558.566,394.726 508.979,394.726 508.979,432.419 558.566,432.419 558.566,482 
		596.253,482 596.253,432.419 645.841,432.419 645.841,394.726 596.253,394.726 596.253,345.138 	"/>
	<g>
		<path fill="#4BB761" d="M141.658,171.078c0-9.328-4.982-15.547-13.689-15.547H75.396v42.926h52.573
			c8.707,0,13.689-6.532,13.689-15.559V171.078z M149.441,314.184l-32.357-74.044H75.396v74.044H29.361V113.846h113.855
			c24.264,0,44.477,19.903,44.477,44.169v32.981c0,17.722-10.568,34.832-25.503,41.989l36.7,81.198L149.441,314.184L149.441,314.184
			z"/>
		<path fill="#4BB761" d="M330.422,171.078c0-9.328-4.979-15.547-13.689-15.547h-39.814c-8.703,0-13.682,6.219-13.682,15.547v85.863
			c0,9.02,4.979,15.554,13.682,15.554h39.814c8.71,0,13.689-6.534,13.689-15.554V171.078z M331.981,314.184h-70.299
			c-23.962,0-44.494-20.22-44.494-44.493V158.015c0-23.948,20.532-44.169,44.494-44.169h70.299c24.26,0,44.475,19.903,44.475,44.169
			V269.69C376.456,293.964,356.241,314.184,331.981,314.184"/>
	</g>
	<polygon fill="#4BB761" points="713.735,113.846 657.842,190.996 644.044,190.996 644.044,113.846 598.021,113.846 
		598.021,314.184 644.044,314.184 644.044,232.669 657.525,232.669 715.287,314.184 769.096,314.184 696.42,211.522 
		766.933,113.846 	"/>
	<polygon fill="#6A6B6D" points="104.775,345.18 104.775,398.062 60.808,398.062 60.808,345.18 29.371,345.18 29.371,481.958 
		60.808,481.958 60.808,426.521 104.775,426.521 104.775,481.958 136.205,481.958 136.205,345.18 	"/>
	<polygon fill="#6A6B6D" points="157.19,345.18 157.19,481.958 259.775,481.958 259.775,453.499 188.623,453.499 188.623,427.806 
		250.212,427.806 250.212,399.339 188.623,399.339 188.623,373.64 259.775,373.64 259.775,345.18 	"/>
	<path fill="#6A6B6D" d="M338.659,382.985l13.809,44.393h-27.824L338.659,382.985z M321.666,345.18l-47.145,136.778h32.708
		l9.135-28.459h44.385l9.344,28.459h32.708L355.655,345.18H321.666z"/>
	<polygon fill="#6A6B6D" points="417.597,345.18 417.597,481.958 519.968,481.958 519.968,453.499 449.033,453.499 449.033,345.18 	
		"/>
	<polygon fill="#6A6B6D" points="737.658,345.18 737.658,398.062 693.695,398.062 693.695,345.18 662.258,345.18 662.258,481.958 
		693.695,481.958 693.695,426.521 737.658,426.521 737.658,481.958 769.096,481.958 769.096,345.18 	"/>
	<g>
		<g>
			
				<linearGradient id="SVGID_2_" gradientUnits="userSpaceOnUse" x1="253.2666" y1="326.124" x2="254.4575" y2="312.512" gradientTransform="matrix(1 0 0 -1 324 757)">
				<stop  offset="0" style="stop-color:#079247"/>
				<stop  offset="0.2937" style="stop-color:#2DA04F"/>
				<stop  offset="0.714" style="stop-color:#45B05C"/>
				<stop  offset="1" style="stop-color:#4CB962"/>
			</linearGradient>
			<polygon id="SVGID_1_" fill="url(#SVGID_2_)" points="558.566,432.511 596.253,442.931 596.253,432.511 			"/>
		</g>
	</g>
	<g>
		<path fill="#4BB761" d="M521.983,238.783v18.158c0,9.02-4.979,15.554-13.693,15.554h-42.706c-8.707,0-13.679-6.534-13.679-15.554
			v-85.863c0-9.328,4.972-15.549,13.679-15.549h42.706c8.715,0,13.693,6.221,13.693,15.549v18.161h46.034v-31.225
			c0-24.263-20.216-44.169-44.482-44.169h-73.183c-23.966,0-44.498,20.221-44.498,44.169v111.682
			c0,24.268,20.532,44.487,44.498,44.487h73.183c24.268,0,44.482-20.22,44.482-44.487v-30.913H521.983L521.983,238.783z"/>
	</g>
</g>
</svg>
