<?xml version="1.0" encoding="utf-8"?>
<!-- Generator: Adobe Illustrator 16.2.1, SVG Export Plug-In . SVG Version: 6.00 Build 0)  -->
<!DOCTYPE svg PUBLIC "-//W3C//DTD SVG 1.1//EN" "http://www.w3.org/Graphics/SVG/1.1/DTD/svg11.dtd">
<svg version="1.1" id="Layer_1" xmlns="http://www.w3.org/2000/svg" xmlns:xlink="http://www.w3.org/1999/xlink" x="0px" y="0px"
	 width="994px" height="612px" viewBox="-13.5 0 994 612" enable-background="new -13.5 0 994 612" xml:space="preserve">
<g>
	<polygon fill="#4BB761" points="642.838,345.138 642.838,394.726 593.25,394.726 593.25,432.419 642.838,432.419 642.838,482 
		680.524,482 680.524,432.419 730.112,432.419 730.112,394.726 680.524,394.726 680.524,345.138 	"/>
	<g>
		<path fill="#4BB761" d="M225.93,171.078c0-9.328-4.982-15.547-13.689-15.547h-52.572v42.926h52.572
			c8.707,0,13.689-6.532,13.689-15.559V171.078z M233.713,314.184l-32.357-74.043h-41.688v74.043h-46.035V113.846h113.854
			c24.265,0,44.478,19.903,44.478,44.169v32.981c0,17.722-10.568,34.832-25.503,41.989l36.7,81.198L233.713,314.184L233.713,314.184
			z"/>
		<path fill="#4BB761" d="M414.693,171.078c0-9.328-4.979-15.547-13.688-15.547H361.19c-8.703,0-13.682,6.219-13.682,15.547v85.863
			c0,9.02,4.979,15.554,13.682,15.554h39.814c8.71,0,13.688-6.534,13.688-15.554V171.078z M416.253,314.184h-70.299
			c-23.963,0-44.494-20.22-44.494-44.493V158.015c0-23.948,20.531-44.169,44.494-44.169h70.299c24.26,0,44.475,19.903,44.475,44.169
			V269.69C460.728,293.964,440.513,314.184,416.253,314.184"/>
	</g>
	<polygon fill="#4BB761" points="798.007,113.846 742.113,190.996 728.315,190.996 728.315,113.846 682.293,113.846 
		682.293,314.184 728.315,314.184 728.315,232.669 741.797,232.669 799.559,314.184 853.367,314.184 780.691,211.522 
		851.204,113.846 	"/>
	<polygon fill="#6A6B6D" points="189.047,345.18 189.047,398.062 145.08,398.062 145.08,345.18 113.643,345.18 113.643,481.958 
		145.08,481.958 145.08,426.521 189.047,426.521 189.047,481.958 220.477,481.958 220.477,345.18 	"/>
	<polygon fill="#6A6B6D" points="241.462,345.18 241.462,481.958 344.047,481.958 344.047,453.499 272.895,453.499 272.895,427.806 
		334.483,427.806 334.483,399.339 272.895,399.339 272.895,373.64 344.047,373.64 344.047,345.18 	"/>
	<path fill="#6A6B6D" d="M422.931,382.985l13.809,44.393h-27.823L422.931,382.985z M405.938,345.18l-47.145,136.778h32.708
		l9.135-28.459h44.385l9.344,28.459h32.708L439.927,345.18H405.938z"/>
	<polygon fill="#6A6B6D" points="501.868,345.18 501.868,481.958 604.239,481.958 604.239,453.499 533.305,453.499 533.305,345.18 	
		"/>
	<polygon fill="#6A6B6D" points="821.93,345.18 821.93,398.062 777.967,398.062 777.967,345.18 746.529,345.18 746.529,481.958 
		777.967,481.958 777.967,426.521 821.93,426.521 821.93,481.958 853.367,481.958 853.367,345.18 	"/>
	<g>
		<g>
			
				<linearGradient id="SVGID_2_" gradientUnits="userSpaceOnUse" x1="13.5391" y1="429.875" x2="14.7301" y2="443.488" gradientTransform="matrix(1 0 0 1 648 1)">
				<stop  offset="0" style="stop-color:#079247"/>
				<stop  offset="0.2937" style="stop-color:#2DA04F"/>
				<stop  offset="0.714" style="stop-color:#45B05C"/>
				<stop  offset="1" style="stop-color:#4CB962"/>
			</linearGradient>
			<polygon id="SVGID_1_" fill="url(#SVGID_2_)" points="642.838,432.511 680.524,442.931 680.524,432.511 			"/>
		</g>
	</g>
	<g>
		<path fill="#4BB761" d="M606.255,238.783v18.158c0,9.02-4.979,15.554-13.693,15.554h-42.706c-8.707,0-13.679-6.534-13.679-15.554
			v-85.863c0-9.328,4.972-15.549,13.679-15.549h42.706c8.715,0,13.693,6.221,13.693,15.549v18.161h46.033v-31.225
			c0-24.263-20.216-44.169-44.481-44.169h-73.184c-23.966,0-44.498,20.221-44.498,44.169v111.682
			c0,24.268,20.532,44.487,44.498,44.487h73.184c24.268,0,44.481-20.22,44.481-44.487v-30.913H606.255L606.255,238.783z"/>
	</g>
</g>
</svg>
