<?xml version="1.0" encoding="utf-8"?>
<!-- Generator: Adobe Illustrator 16.0.0, SVG Export Plug-In . SVG Version: 6.00 Build 0)  -->
<!DOCTYPE svg PUBLIC "-//W3C//DTD SVG 1.1//EN" "http://www.w3.org/Graphics/SVG/1.1/DTD/svg11.dtd">
<svg version="1.1" id="Layer_1" xmlns="http://www.w3.org/2000/svg" xmlns:xlink="http://www.w3.org/1999/xlink" x="0px" y="0px"
	 width="40px" height="40px" viewBox="0 0 40 40" enable-background="new 0 0 40 40" xml:space="preserve">
<g>
	<g>
		<path fill="#DAECF9" d="M35.127,8.13l-0.012-2.393h-1.471c-6.968,0-12.627-4.473-12.684-4.516L20.01,0.449l-0.967,0.772
			c-0.051,0.043-5.719,4.516-12.688,4.516H4.893L4.879,8.13c-0.014,2.947-0.064,10.771-0.064,15.031
			c0,3.99,2.223,9.717,7.088,12.841c3.209,2.058,6.682,3.143,7.667,3.419l0.427,0.129l0.438-0.125
			c0.988-0.28,4.467-1.365,7.672-3.423c4.863-3.123,7.08-8.845,7.08-12.835C35.186,18.903,35.146,11.077,35.127,8.13z"/>
	</g>
	<g>
		<defs>
			<path id="SVGID_1_" d="M32.598,10.284L32.59,8.291h-1.225c-5.804,0-10.518-3.724-10.562-3.762l-0.796-0.642l-0.802,0.642
				C19.16,4.567,14.44,8.291,8.636,8.291H7.418l-0.012,1.993c-0.012,2.455-0.053,8.973-0.053,12.52
				c0,3.324,1.849,8.092,5.903,10.695c2.673,1.715,5.563,2.617,6.386,2.85l0.355,0.105l0.361-0.105
				c0.825-0.232,3.723-1.135,6.391-2.85c4.053-2.602,5.898-7.366,5.898-10.69C32.648,19.259,32.615,12.739,32.598,10.284z"/>
		</defs>
		<clipPath id="SVGID_2_">
			<use xlink:href="#SVGID_1_"  overflow="visible"/>
		</clipPath>
		<g clip-path="url(#SVGID_2_)" enable-background="new    ">
			<g>
				<defs>
					<rect id="SVGID_3_" x="6.42" y="3.642" width="26.257" height="33.412"/>
				</defs>
				<clipPath id="SVGID_4_">
					<use xlink:href="#SVGID_3_"  overflow="visible"/>
				</clipPath>
				<g clip-path="url(#SVGID_4_)">
					<defs>
						<rect id="SVGID_5_" x="6.42" y="3.642" width="26.257" height="33.412"/>
					</defs>
					<clipPath id="SVGID_6_">
						<use xlink:href="#SVGID_5_"  overflow="visible"/>
					</clipPath>
					
						<rect x="2.672" y="-0.506" clip-path="url(#SVGID_6_)" fill-rule="evenodd" clip-rule="evenodd" fill="#459FD8" width="34.66" height="41.353"/>
				</g>
				<g clip-path="url(#SVGID_4_)">
					<defs>
						<path id="SVGID_7_" d="M32.598,10.284L32.59,8.291h-1.225c-5.804,0-10.518-3.724-10.562-3.762l-0.796-0.642l-0.802,0.642
							C19.16,4.567,14.44,8.291,8.636,8.291H7.418l-0.012,1.993c-0.012,2.455-0.053,8.973-0.053,12.52
							c0,3.324,1.849,8.092,5.903,10.695c2.673,1.715,5.563,2.617,6.386,2.85l0.355,0.105l0.361-0.105
							c0.825-0.232,3.723-1.135,6.391-2.85c4.053-2.602,5.898-7.366,5.898-10.69C32.648,19.259,32.615,12.739,32.598,10.284z
							 M-3.9-6.661h47.802v53.663H-3.9V-6.661z"/>
					</defs>
					<clipPath id="SVGID_8_">
						<use xlink:href="#SVGID_7_"  overflow="visible"/>
					</clipPath>
					<g clip-path="url(#SVGID_8_)">
						<defs>
							<rect id="SVGID_9_" x="6.42" y="3.642" width="26.257" height="33.412"/>
						</defs>
						<clipPath id="SVGID_10_">
							<use xlink:href="#SVGID_9_"  overflow="visible"/>
						</clipPath>
						<path clip-path="url(#SVGID_10_)" fill="none" stroke="#DAECF9" stroke-width="4" stroke-miterlimit="10" d="M32.598,10.284
							L32.59,8.291h-1.225c-5.804,0-10.518-3.724-10.562-3.762l-0.796-0.642l-0.802,0.642C19.16,4.567,14.44,8.291,8.636,8.291
							H7.418l-0.012,1.993c-0.012,2.455-0.053,8.973-0.053,12.52c0,3.324,1.849,8.092,5.903,10.695
							c2.673,1.715,5.563,2.617,6.386,2.85l0.355,0.105l0.361-0.105c0.825-0.232,3.723-1.135,6.391-2.85
							c4.053-2.602,5.898-7.366,5.898-10.69C32.648,19.259,32.615,12.739,32.598,10.284z"/>
					</g>
				</g>
				<g clip-path="url(#SVGID_4_)">
					<defs>
						<polygon id="SVGID_11_" points="0.609,26.585 4.182,31.743 40.362,9.72 36.789,4.55 						"/>
					</defs>
					<clipPath id="SVGID_12_">
						<use xlink:href="#SVGID_11_"  overflow="visible"/>
					</clipPath>
					<g clip-path="url(#SVGID_12_)">
						<defs>
							<rect id="SVGID_13_" x="6.42" y="3.642" width="26.257" height="33.412"/>
						</defs>
						<clipPath id="SVGID_14_">
							<use xlink:href="#SVGID_13_"  overflow="visible"/>
						</clipPath>
						<polygon clip-path="url(#SVGID_14_)" fill-rule="evenodd" clip-rule="evenodd" fill="#64B5E5" points="-5.875,25.284 
							38.164,-1.53 46.85,11.005 2.811,37.827 						"/>
					</g>
				</g>
			</g>
		</g>
	</g>
</g>
<g>
</g>
<g>
</g>
<g>
</g>
<g>
</g>
<g>
</g>
<g>
</g>
<g>
</g>
<g>
</g>
<g>
</g>
<g>
</g>
<g>
</g>
<g>
</g>
<g>
</g>
<g>
</g>
<g>
</g>
</svg>
