<?xml version="1.0" encoding="utf-8"?>
<!-- Generator: Adobe Illustrator 16.0.0, SVG Export Plug-In . SVG Version: 6.00 Build 0)  -->
<!DOCTYPE svg PUBLIC "-//W3C//DTD SVG 1.1//EN" "http://www.w3.org/Graphics/SVG/1.1/DTD/svg11.dtd">
<svg version="1.1" id="Layer_1" xmlns="http://www.w3.org/2000/svg" xmlns:xlink="http://www.w3.org/1999/xlink" x="0px" y="0px"
	 width="40px" height="40px" viewBox="0 0 40 40" enable-background="new 0 0 40 40" xml:space="preserve">
<g>
	<g>
		<defs>
			<path id="SVGID_1_" d="M2.835,10.312H2.825l0.022,18.919c-0.009,0.139-0.012,0.273-0.012,0.41c0,5.328,7.683,9.639,17.168,9.639
				c9.487,0,17.172-4.311,17.172-9.639c0-0.135-0.004-0.268-0.01-0.402V10.756c0.006-0.133,0.01-0.266,0.01-0.396
				c0-5.329-7.686-9.64-17.172-9.64C10.548,0.72,2.875,5.004,2.835,10.312z"/>
		</defs>
		<clipPath id="SVGID_2_">
			<use xlink:href="#SVGID_1_"  overflow="visible"/>
		</clipPath>
		
			<rect x="-1.693" y="-4.101" opacity="0.1794" clip-path="url(#SVGID_2_)" fill-rule="evenodd" clip-rule="evenodd" fill="#E09007" width="43.375" height="48.199"/>
	</g>
	<g>
		<g>
			<defs>
				<path id="SVGID_3_" d="M19.995,36.325c7.826,0,14.16-3.66,14.16-8.164s-6.334-8.156-14.16-8.156
					c-7.814,0-14.147,3.652-14.147,8.156S12.18,36.325,19.995,36.325z"/>
			</defs>
			<clipPath id="SVGID_4_">
				<use xlink:href="#SVGID_3_"  overflow="visible"/>
			</clipPath>
			
				<rect x="1.455" y="15.184" clip-path="url(#SVGID_4_)" fill-rule="evenodd" clip-rule="evenodd" fill="#DE8909" width="37.09" height="25.958"/>
		</g>
		<g>
			<defs>
				<path id="SVGID_5_" d="M19.995,32.239c7.826,0,14.16-3.652,14.16-8.152c0-4.508-6.334-8.165-14.16-8.165
					c-7.814,0-14.147,3.657-14.147,8.165C5.847,28.587,12.18,32.239,19.995,32.239z"/>
			</defs>
			<clipPath id="SVGID_6_">
				<use xlink:href="#SVGID_5_"  overflow="visible"/>
			</clipPath>
			
				<rect x="1.455" y="11.102" clip-path="url(#SVGID_6_)" fill-rule="evenodd" clip-rule="evenodd" fill="#E09018" width="37.09" height="25.958"/>
		</g>
		<g>
			<defs>
				<path id="SVGID_7_" d="M19.995,28.161c7.826,0,14.16-3.652,14.16-8.156c0-4.503-6.334-8.164-14.16-8.164
					c-7.814,0-14.147,3.661-14.147,8.164C5.847,24.509,12.18,28.161,19.995,28.161z"/>
			</defs>
			<clipPath id="SVGID_8_">
				<use xlink:href="#SVGID_7_"  overflow="visible"/>
			</clipPath>
			
				<rect x="1.455" y="7.027" clip-path="url(#SVGID_8_)" fill-rule="evenodd" clip-rule="evenodd" fill="#E39A2E" width="37.09" height="25.954"/>
		</g>
		<g>
			<defs>
				<path id="SVGID_9_" d="M19.995,24.087c7.826,0,14.16-3.651,14.16-8.165c0-4.505-6.334-8.153-14.16-8.153
					c-7.814,0-14.147,3.648-14.147,8.153C5.847,20.436,12.18,24.087,19.995,24.087z"/>
			</defs>
			<clipPath id="SVGID_10_">
				<use xlink:href="#SVGID_9_"  overflow="visible"/>
			</clipPath>
			
				<rect x="1.455" y="2.945" clip-path="url(#SVGID_10_)" fill-rule="evenodd" clip-rule="evenodd" fill="#E5A33F" width="37.09" height="25.956"/>
		</g>
		<g>
			<defs>
				<path id="SVGID_11_" d="M19.995,20.005c7.826,0,14.16-3.654,14.16-8.164c0-4.502-6.334-8.157-14.16-8.157
					c-7.814,0-14.147,3.655-14.147,8.157C5.847,16.351,12.18,20.005,19.995,20.005z"/>
			</defs>
			<clipPath id="SVGID_12_">
				<use xlink:href="#SVGID_11_"  overflow="visible"/>
			</clipPath>
			
				<rect x="1.455" y="-1.133" clip-path="url(#SVGID_12_)" fill-rule="evenodd" clip-rule="evenodd" fill="#E8AF58" width="37.09" height="25.958"/>
		</g>
	</g>
</g>
<g>
</g>
<g>
</g>
<g>
</g>
<g>
</g>
<g>
</g>
<g>
</g>
<g>
</g>
<g>
</g>
<g>
</g>
<g>
</g>
<g>
</g>
<g>
</g>
<g>
</g>
<g>
</g>
<g>
</g>
</svg>
