<?xml version="1.0" encoding="utf-8"?>
<!-- Generator: Adobe Illustrator 16.0.0, SVG Export Plug-In . SVG Version: 6.00 Build 0)  -->
<!DOCTYPE svg PUBLIC "-//W3C//DTD SVG 1.1//EN" "http://www.w3.org/Graphics/SVG/1.1/DTD/svg11.dtd">
<svg version="1.1" id="Layer_1" xmlns="http://www.w3.org/2000/svg" xmlns:xlink="http://www.w3.org/1999/xlink" x="0px" y="0px"
	 width="40px" height="40px" viewBox="0 0 40 40" enable-background="new 0 0 40 40" xml:space="preserve">
<polygon fill="#DAECF9" points="31,16.035 31,5.711 20.13,0 10,5.63 10,15.708 0,21.338 0,33.341 10.658,39.438 19.943,33.931 
	29.537,39.438 40,33.307 40,21.38 "/>
<g>
	<defs>
		<polyline id="SVGID_1_" points="10.658,27.381 10.658,18.002 2.537,22.693 2.537,22.693 10.658,27.381 		"/>
	</defs>
	<clipPath id="SVGID_2_">
		<use xlink:href="#SVGID_1_"  overflow="visible"/>
	</clipPath>
	
		<rect x="-1.875" y="13.596" clip-path="url(#SVGID_2_)" fill-rule="evenodd" clip-rule="evenodd" fill="#62B5E5" width="16.945" height="18.195"/>
</g>
<g>
	<defs>
		<polygon id="SVGID_3_" points="10.658,18.002 10.658,27.381 18.773,22.693 		"/>
	</defs>
	<clipPath id="SVGID_4_">
		<use xlink:href="#SVGID_3_"  overflow="visible"/>
	</clipPath>
	
		<rect x="6.245" y="13.596" clip-path="url(#SVGID_4_)" fill-rule="evenodd" clip-rule="evenodd" fill="#4FA8DD" width="16.947" height="18.195"/>
</g>
<g>
	<defs>
		<polyline id="SVGID_5_" points="2.537,22.693 2.537,32.07 10.658,27.381 2.537,22.693 		"/>
	</defs>
	<clipPath id="SVGID_6_">
		<use xlink:href="#SVGID_5_"  overflow="visible"/>
	</clipPath>
	
		<rect x="-1.875" y="18.273" clip-path="url(#SVGID_6_)" fill-rule="evenodd" clip-rule="evenodd" fill="#459FD8" width="16.945" height="18.209"/>
</g>
<g>
	<defs>
		<polygon id="SVGID_7_" points="10.658,27.381 18.773,32.07 18.773,22.693 		"/>
	</defs>
	<clipPath id="SVGID_8_">
		<use xlink:href="#SVGID_7_"  overflow="visible"/>
	</clipPath>
	
		<rect x="6.245" y="18.273" clip-path="url(#SVGID_8_)" fill-rule="evenodd" clip-rule="evenodd" fill="#459FD8" width="16.947" height="18.209"/>
</g>
<g>
	<defs>
		<polygon id="SVGID_9_" points="18.773,32.07 10.658,27.381 10.658,36.756 		"/>
	</defs>
	<clipPath id="SVGID_10_">
		<use xlink:href="#SVGID_9_"  overflow="visible"/>
	</clipPath>
	
		<rect x="6.245" y="22.967" clip-path="url(#SVGID_10_)" fill-rule="evenodd" clip-rule="evenodd" fill="#288CCC" width="16.947" height="18.203"/>
</g>
<g>
	<defs>
		<polyline id="SVGID_11_" points="10.658,27.381 2.537,32.07 10.658,36.756 10.658,27.381 		"/>
	</defs>
	<clipPath id="SVGID_12_">
		<use xlink:href="#SVGID_11_"  overflow="visible"/>
	</clipPath>
	
		<rect x="-1.875" y="22.967" clip-path="url(#SVGID_12_)" fill-rule="evenodd" clip-rule="evenodd" fill="#3195D2" width="16.945" height="18.203"/>
</g>
<g>
	<defs>
		<polyline id="SVGID_13_" points="29.537,27.381 29.537,18.002 21.412,22.693 21.412,22.693 29.537,27.381 		"/>
	</defs>
	<clipPath id="SVGID_14_">
		<use xlink:href="#SVGID_13_"  overflow="visible"/>
	</clipPath>
	
		<rect x="17.002" y="13.596" clip-path="url(#SVGID_14_)" fill-rule="evenodd" clip-rule="evenodd" fill="#62B5E5" width="16.945" height="18.195"/>
</g>
<g>
	<defs>
		<polygon id="SVGID_15_" points="29.537,18.002 29.537,27.381 37.647,22.693 		"/>
	</defs>
	<clipPath id="SVGID_16_">
		<use xlink:href="#SVGID_15_"  overflow="visible"/>
	</clipPath>
	
		<rect x="25.117" y="13.596" clip-path="url(#SVGID_16_)" fill-rule="evenodd" clip-rule="evenodd" fill="#4FA8DD" width="16.947" height="18.195"/>
</g>
<g>
	<defs>
		<polyline id="SVGID_17_" points="21.412,22.693 21.412,32.07 29.537,27.381 21.412,22.693 		"/>
	</defs>
	<clipPath id="SVGID_18_">
		<use xlink:href="#SVGID_17_"  overflow="visible"/>
	</clipPath>
	
		<rect x="17.002" y="18.273" clip-path="url(#SVGID_18_)" fill-rule="evenodd" clip-rule="evenodd" fill="#459FD8" width="16.945" height="18.209"/>
</g>
<g>
	<defs>
		<polygon id="SVGID_19_" points="29.537,27.381 37.647,32.07 37.647,22.693 		"/>
	</defs>
	<clipPath id="SVGID_20_">
		<use xlink:href="#SVGID_19_"  overflow="visible"/>
	</clipPath>
	
		<rect x="25.117" y="18.273" clip-path="url(#SVGID_20_)" fill-rule="evenodd" clip-rule="evenodd" fill="#459FD8" width="16.947" height="18.209"/>
</g>
<g>
	<defs>
		<polygon id="SVGID_21_" points="37.647,32.07 29.537,27.381 29.537,36.756 		"/>
	</defs>
	<clipPath id="SVGID_22_">
		<use xlink:href="#SVGID_21_"  overflow="visible"/>
	</clipPath>
	
		<rect x="25.117" y="22.967" clip-path="url(#SVGID_22_)" fill-rule="evenodd" clip-rule="evenodd" fill="#288CCC" width="16.947" height="18.203"/>
</g>
<g>
	<defs>
		<polyline id="SVGID_23_" points="29.537,27.381 21.412,32.07 29.537,36.756 29.537,27.381 		"/>
	</defs>
	<clipPath id="SVGID_24_">
		<use xlink:href="#SVGID_23_"  overflow="visible"/>
	</clipPath>
	
		<rect x="17.002" y="22.967" clip-path="url(#SVGID_24_)" fill-rule="evenodd" clip-rule="evenodd" fill="#3195D2" width="16.945" height="18.203"/>
</g>
<g>
	<defs>
		<polyline id="SVGID_25_" points="20.13,11.727 20.13,2.385 12.043,7.055 12.043,7.055 20.13,11.727 		"/>
	</defs>
	<clipPath id="SVGID_26_">
		<use xlink:href="#SVGID_25_"  overflow="visible"/>
	</clipPath>
	
		<rect x="7.633" y="-2.027" clip-path="url(#SVGID_26_)" fill-rule="evenodd" clip-rule="evenodd" fill="#8867AC" width="16.915" height="18.169"/>
</g>
<g>
	<defs>
		<polygon id="SVGID_27_" points="20.13,2.385 20.13,11.727 28.217,7.055 		"/>
	</defs>
	<clipPath id="SVGID_28_">
		<use xlink:href="#SVGID_27_"  overflow="visible"/>
	</clipPath>
	
		<rect x="15.719" y="-2.027" clip-path="url(#SVGID_28_)" fill-rule="evenodd" clip-rule="evenodd" fill="#7D59A4" width="16.911" height="18.169"/>
</g>
<g>
	<defs>
		<polyline id="SVGID_29_" points="12.043,7.055 12.043,16.391 20.13,11.727 12.043,7.055 		"/>
	</defs>
	<clipPath id="SVGID_30_">
		<use xlink:href="#SVGID_29_"  overflow="visible"/>
	</clipPath>
	
		<rect x="7.633" y="2.641" clip-path="url(#SVGID_30_)" fill-rule="evenodd" clip-rule="evenodd" fill="#7454A2" width="16.915" height="18.168"/>
</g>
<g>
	<defs>
		<polygon id="SVGID_31_" points="20.13,11.727 28.217,16.391 28.217,7.055 		"/>
	</defs>
	<clipPath id="SVGID_32_">
		<use xlink:href="#SVGID_31_"  overflow="visible"/>
	</clipPath>
	
		<rect x="15.719" y="2.641" clip-path="url(#SVGID_32_)" fill-rule="evenodd" clip-rule="evenodd" fill="#7454A2" width="16.911" height="18.168"/>
</g>
<g>
	<defs>
		<polygon id="SVGID_33_" points="28.217,16.391 20.13,11.727 20.13,21.062 		"/>
	</defs>
	<clipPath id="SVGID_34_">
		<use xlink:href="#SVGID_33_"  overflow="visible"/>
	</clipPath>
	
		<rect x="15.719" y="7.312" clip-path="url(#SVGID_34_)" fill-rule="evenodd" clip-rule="evenodd" fill="#6C4B9D" width="16.911" height="18.163"/>
</g>
<g>
	<defs>
		<polyline id="SVGID_35_" points="20.13,11.727 12.043,16.391 20.13,21.062 20.13,11.727 		"/>
	</defs>
	<clipPath id="SVGID_36_">
		<use xlink:href="#SVGID_35_"  overflow="visible"/>
	</clipPath>
	
		<rect x="7.633" y="7.312" clip-path="url(#SVGID_36_)" fill-rule="evenodd" clip-rule="evenodd" fill="#71509F" width="16.915" height="18.163"/>
</g>
<g>
</g>
<g>
</g>
<g>
</g>
<g>
</g>
<g>
</g>
<g>
</g>
<g>
</g>
<g>
</g>
<g>
</g>
<g>
</g>
<g>
</g>
<g>
</g>
<g>
</g>
<g>
</g>
<g>
</g>
</svg>
