<?xml version="1.0" encoding="utf-8"?>
<!-- Generator: Adobe Illustrator 16.0.0, SVG Export Plug-In . SVG Version: 6.00 Build 0)  -->
<!DOCTYPE svg PUBLIC "-//W3C//DTD SVG 1.1//EN" "http://www.w3.org/Graphics/SVG/1.1/DTD/svg11.dtd">
<svg version="1.1" id="Layer_1" xmlns="http://www.w3.org/2000/svg" xmlns:xlink="http://www.w3.org/1999/xlink" x="0px" y="0px"
	 width="20px" height="20px" viewBox="0 0 20 20" enable-background="new 0 0 20 20" xml:space="preserve">
<g>
	<g>
		<g>
			<path id="SVGID_3_" fill="#FFFFFF" d="M10,10.468c0.542,0,0.983,0.438,0.983,0.989c0,0.291-0.159,0.867-0.327,1.312
				c-0.135,0.362-0.27,0.647-0.656,0.647c-0.352,0-0.52-0.291-0.654-0.65c-0.164-0.445-0.324-1.018-0.324-1.309
				C9.019,10.905,9.462,10.468,10,10.468z M14.909,10.468v1.97c0,1.89-1.548,3.428-3.435,3.428H8.535
				c-1.897,0-3.439-1.538-3.439-3.428V9c0-0.271,0.215-0.492,0.492-0.492h0.978h6.876h0.975c0.271,0,0.495,0.22,0.495,0.492v1.468
				H14.909z M11.961,5.562v1.958H8.037V5.562c0-1.084,0.882-1.963,1.961-1.963C11.085,3.6,11.961,4.479,11.961,5.562z M6.563,5.562
				c0-1.896,1.532-3.435,3.435-3.435c1.9,0,3.441,1.538,3.441,3.435v1.958h-0.983V5.563c0-1.354-1.099-2.453-2.458-2.453
				c-1.351,0-2.455,1.1-2.455,2.453v1.957H6.563V5.562z M14.416,7.521V5.562c0-2.437-1.974-4.415-4.418-4.415
				c-2.436,0-4.411,1.979-4.411,4.415v1.958C4.774,7.521,4.114,8.188,4.114,9v3.438c0,2.431,1.978,4.416,4.418,4.416h2.942
				c2.436,0,4.411-1.985,4.411-4.416V9C15.886,8.185,15.228,7.521,14.416,7.521z"/>
		</g>
		<g>
			<defs>
				<path id="SVGID_1_" d="M10,10.468c0.542,0,0.983,0.438,0.983,0.989c0,0.291-0.159,0.867-0.327,1.312
					c-0.135,0.362-0.27,0.647-0.656,0.647c-0.352,0-0.52-0.291-0.654-0.65c-0.164-0.445-0.324-1.018-0.324-1.309
					C9.019,10.905,9.462,10.468,10,10.468z M14.909,10.468v1.97c0,1.89-1.548,3.428-3.435,3.428H8.535
					c-1.897,0-3.439-1.538-3.439-3.428V9c0-0.271,0.215-0.492,0.492-0.492h0.978h6.876h0.975c0.271,0,0.495,0.22,0.495,0.492v1.468
					H14.909z M11.961,5.562v1.958H8.037V5.562c0-1.084,0.882-1.963,1.961-1.963C11.085,3.6,11.961,4.479,11.961,5.562z M6.563,5.562
					c0-1.896,1.532-3.435,3.435-3.435c1.9,0,3.441,1.538,3.441,3.435v1.958h-0.983V5.563c0-1.354-1.099-2.453-2.458-2.453
					c-1.351,0-2.455,1.1-2.455,2.453v1.957H6.563V5.562z M14.416,7.521V5.562c0-2.437-1.974-4.415-4.418-4.415
					c-2.436,0-4.411,1.979-4.411,4.415v1.958C4.774,7.521,4.114,8.188,4.114,9v3.438c0,2.431,1.978,4.416,4.418,4.416h2.942
					c2.436,0,4.411-1.985,4.411-4.416V9C15.886,8.185,15.228,7.521,14.416,7.521z"/>
			</defs>
			<clipPath id="SVGID_2_">
				<use xlink:href="#SVGID_1_"  overflow="visible"/>
			</clipPath>
			<rect x="0.189" y="-2.776" clip-path="url(#SVGID_2_)" fill="#FFFFFF" width="19.628" height="23.561"/>
		</g>
	</g>
</g>
</svg>
