<svg xmlns="http://www.w3.org/2000/svg" width="264" height="367" viewBox="0 0 264 367" xmlns:xlink="http://www.w3.org/1999/xlink">
  <defs>
    <rect id="policies-procedures-b" width="153.27" height="197.435" rx="2"/>
    <filter id="policies-procedures-a" width="200%" height="200%" x="-50%" y="-50%" filterUnits="objectBoundingBox">
      <feOffset dy="2" in="SourceAlpha" result="shadowOffsetOuter1"/>
      <feGaussianBlur stdDeviation="4" in="shadowOffsetOuter1" result="shadowBlurOuter1"/>
      <feColorMatrix values="0 0 0 0 0 0 0 0 0 0 0 0 0 0 0 0 0 0 0.0869282156 0" in="shadowBlurOuter1" result="shadowMatrixOuter1"/>
      <feOffset in="SourceAlpha" result="shadowOffsetOuter2"/>
      <feGaussianBlur stdDeviation=".5" in="shadowOffsetOuter2" result="shadowBlurOuter2"/>
      <feColorMatrix values="0 0 0 0 0 0 0 0 0 0 0 0 0 0 0 0 0 0 0.0789458786 0" in="shadowBlurOuter2" result="shadowMatrixOuter2"/>
      <feMerge>
        <feMergeNode in="shadowMatrixOuter1"/>
        <feMergeNode in="shadowMatrixOuter2"/>
      </feMerge>
    </filter>
    <rect id="policies-procedures-d" width="153.27" height="197.435" x="12.773" y="12.789" rx="2"/>
    <filter id="policies-procedures-c" width="200%" height="200%" x="-50%" y="-50%" filterUnits="objectBoundingBox">
      <feOffset dy="2" in="SourceAlpha" result="shadowOffsetOuter1"/>
      <feGaussianBlur stdDeviation="4" in="shadowOffsetOuter1" result="shadowBlurOuter1"/>
      <feColorMatrix values="0 0 0 0 0 0 0 0 0 0 0 0 0 0 0 0 0 0 0.0869282156 0" in="shadowBlurOuter1" result="shadowMatrixOuter1"/>
      <feOffset in="SourceAlpha" result="shadowOffsetOuter2"/>
      <feGaussianBlur stdDeviation=".5" in="shadowOffsetOuter2" result="shadowBlurOuter2"/>
      <feColorMatrix values="0 0 0 0 0 0 0 0 0 0 0 0 0 0 0 0 0 0 0.0789458786 0" in="shadowBlurOuter2" result="shadowMatrixOuter2"/>
      <feMerge>
        <feMergeNode in="shadowMatrixOuter1"/>
        <feMergeNode in="shadowMatrixOuter2"/>
      </feMerge>
    </filter>
    <path id="policies-procedures-f" d="M1.89726572,184.643965 C0.853886312,185.008071 0.0080601839,186.203463 0.0080601839,187.303581 L0.0080601839,196.105092 C0.0080601839,197.209851 0.904763329,198.105435 2.00857795,198.105435 L150.699666,198.105435 C151.804522,198.105435 152.700184,197.208812 152.700184,196.10958 L152.700181,134.014384 C152.700181,132.912104 151.86016,132.31167 150.810975,132.677802 L1.89726572,184.643965 Z"/>
    <filter id="policies-procedures-e" width="200%" height="200%" x="-50%" y="-50%" filterUnits="objectBoundingBox">
      <feOffset dy="2" in="SourceAlpha" result="shadowOffsetOuter1"/>
      <feGaussianBlur stdDeviation="3" in="shadowOffsetOuter1" result="shadowBlurOuter1"/>
      <feColorMatrix values="0 0 0 0 0 0 0 0 0 0 0 0 0 0 0 0 0 0 0.0210031703 0" in="shadowBlurOuter1"/>
    </filter>
    <rect id="policies-procedures-h" width="153.27" height="197.435" x=".458" y=".014" rx="2"/>
    <filter id="policies-procedures-g" width="200%" height="200%" x="-50%" y="-50%" filterUnits="objectBoundingBox">
      <feOffset dy="2" in="SourceAlpha" result="shadowOffsetOuter1"/>
      <feGaussianBlur stdDeviation="4" in="shadowOffsetOuter1" result="shadowBlurOuter1"/>
      <feColorMatrix values="0 0 0 0 0 0 0 0 0 0 0 0 0 0 0 0 0 0 0.0869282156 0" in="shadowBlurOuter1" result="shadowMatrixOuter1"/>
      <feOffset in="SourceAlpha" result="shadowOffsetOuter2"/>
      <feGaussianBlur stdDeviation=".5" in="shadowOffsetOuter2" result="shadowBlurOuter2"/>
      <feColorMatrix values="0 0 0 0 0 0 0 0 0 0 0 0 0 0 0 0 0 0 0.0789458786 0" in="shadowBlurOuter2" result="shadowMatrixOuter2"/>
      <feMerge>
        <feMergeNode in="shadowMatrixOuter1"/>
        <feMergeNode in="shadowMatrixOuter2"/>
      </feMerge>
    </filter>
  </defs>
  <g fill="none" fill-rule="evenodd">
    <g transform="translate(46 128)">
      <use fill="black" filter="url(#policies-procedures-a)" xlink:href="#policies-procedures-b"/>
      <use fill="#FFFFFF" xlink:href="#policies-procedures-b"/>
      <g>
        <use fill="black" filter="url(#policies-procedures-c)" xlink:href="#policies-procedures-d"/>
        <use fill="#FFFFFF" xlink:href="#policies-procedures-d"/>
      </g>
      <g transform="translate(25.885 24.766)">
        <use fill="black" filter="url(#policies-procedures-e)" xlink:href="#policies-procedures-f"/>
        <use fill="#F0FAFF" xlink:href="#policies-procedures-f"/>
        <use fill="black" filter="url(#policies-procedures-g)" xlink:href="#policies-procedures-h"/>
        <use fill="#FFFFFF" xlink:href="#policies-procedures-h"/>
        <g transform="rotate(90 51.314 80.135)">
          <path fill="#E9F1F5" d="M10.9125322,3.99665552 C10.9125322,1.78890301 9.12517597,9.09494702e-13 6.92111588,9.09494702e-13 C4.71705579,9.09494702e-13 2.92969957,1.78890301 2.92969957,3.99665552 L2.92969957,85.9280936 L10.9125322,85.9280936 L10.9125322,3.99665552 Z"/>
          <path fill="#3F97FF" d="M2.92969957,106.311037 C2.92969957,108.518789 4.71705579,110.307692 6.92111588,110.307692 C9.12517597,110.307692 10.9125322,108.518789 10.9125322,106.311037 L10.9125322,42.0975719 L2.92969957,42.0975719 L2.92969957,106.311037 Z"/>
          <path fill="#E9F1F5" d="M27.6764807,3.99665552 C27.6764807,1.78890301 25.8899227,9.09494702e-13 23.6850644,9.09494702e-13 C21.4810043,9.09494702e-13 19.6936481,1.78890301 19.6936481,3.99665552 L19.6936481,71.1404682 L27.6764807,71.1404682 L27.6764807,3.99665552 Z"/>
          <path fill="#3F97FF" d="M19.6936481,106.311037 C19.6936481,108.518789 21.4810043,110.307692 23.6850644,110.307692 C25.8899227,110.307692 27.6764807,108.518789 27.6764807,106.311037 L27.6764807,23.180602 L19.6936481,23.180602 L19.6936481,106.311037 Z"/>
          <path fill="#E9F1F5" d="M44.4404292,3.99665552 C44.4404292,1.78890301 42.6538712,9.09494702e-13 40.4490129,9.09494702e-13 C38.2441545,9.09494702e-13 36.4575966,1.78890301 36.4575966,3.99665552 L36.4575966,85.5284281 L44.4404292,85.5284281 L44.4404292,3.99665552 Z"/>
          <path fill="#3F97FF" d="M36.4575966,88.4587759 L36.4575966,106.311037 C36.4575966,108.518789 38.2441545,110.307692 40.4490129,110.307692 C42.6538712,110.307692 44.4404292,108.518789 44.4404292,106.311037 L44.4404292,88.4587759 L36.4575966,88.4587759 L36.4575966,88.4587759 Z"/>
          <ellipse cx="6.785" cy="42.764" fill="#60A9FF" rx="6.785" ry="6.794"/>
          <ellipse cx="40.449" cy="89.325" fill="#60A9FF" rx="6.785" ry="6.794"/>
          <ellipse cx="23.549" cy="22.781" fill="#60A9FF" rx="6.785" ry="6.794"/>
        </g>
        <rect width="110.487" height="5.1" x="21.042" y="99.356" fill="#E9F1F6"/>
        <rect width="110.487" height="5.1" x="21.042" y="107.856" fill="#E9F1F6"/>
        <rect width="110.487" height="5.1" x="21.042" y="116.356" fill="#E9F1F6"/>
        <rect width="96.888" height="5.1" x="21.042" y="124.856" fill="#E9F1F6"/>
        <rect width="30.596" height="5.1" x="21.042" y="140.156" fill="#E9F1F6"/>
      </g>
      <g transform="translate(133.313 168.659)">
        <polygon fill="#9B59B6" points="26.346 33.572 10.114 33.572 10.114 70.264 25.943 63.389 26.346 63.56"/>
        <polygon fill="#8E44AD" points="26.08 33.572 26.08 63.447 42.046 70.264 42.046 33.572"/>
        <path fill="#EAD57D" d="M47.8602747,31.7814047 C48.6258283,29.4209799 52.1542403,27.3954749 52.1542403,24.7792642 C52.1542403,22.8624682 50.2615107,21.2622074 48.9475365,19.614786 C48.7128412,19.6411639 48.4749528,19.6571505 48.2322747,19.6571505 C44.8531416,19.6571505 41.6999227,16.744388 41.8396223,13.256107 C41.8563863,12.8436522 41.909073,12.4567759 41.9729356,12.0746957 C41.6999227,11.9100334 41.430103,11.7397759 41.1475107,11.5887023 C38.699176,10.2785987 37.6151073,7.34665217 38.1419742,4.73204013 C37.0044206,2.97910702 36.0752189,0.763361204 34.3205923,0.193438127 C31.9640601,-0.573120401 28.9553305,2.13261538 26.3433476,2.13261538 C23.7313648,2.13261538 20.7226352,-0.573919732 18.3653047,0.191839465 C15.9217597,0.986374582 15.0819657,4.97183946 13.0487382,6.45379933 C10.9947554,7.95014716 6.95464378,7.529699 5.46025751,9.58637793 C3.98024034,11.6222742 5.61911588,15.3319699 4.82562232,17.7787224 C4.06086695,20.1391472 0.531656652,22.1638528 0.531656652,24.7792642 C0.531656652,27.3946756 4.06006867,29.4209799 4.82562232,31.7814047 C5.42912446,33.6422475 4.62684979,36.2352776 4.86074678,38.2663779 C6.6528927,37.6229164 8.71565665,37.7260301 10.3489442,38.7148027 C10.9708069,38.8866589 11.5775021,39.1504381 12.1418884,39.4357993 C13.0303777,39.8866221 13.8534077,40.5348796 14.5367382,41.2590736 C15.438,42.2158729 16.5188755,42.9592508 17.4265236,43.9008629 C18.8993562,45.4275853 19.4980687,47.5242308 19.1819485,49.4961806 C21.3923948,49.5521338 24.0219399,47.4275117 26.3409528,47.4275117 C28.9529356,47.4275117 31.9624635,50.1316488 34.3189957,49.3650903 C36.7617425,48.5721538 37.6015365,44.5858896 39.6347639,43.1031304 C41.6879485,41.6075819 45.7280601,42.0288294 47.2232446,39.9729498 C48.7056567,37.9362542 47.0667811,34.2257592 47.8602747,31.7814047 L47.8602747,31.7814047 Z"/>
        <path d="M15.4308155,24.7792642 C15.4308155,25.461893 15.5010644,26.1269365 15.6208069,26.7735953 L28.3382575,14.0426488 C27.6900515,13.9227492 27.0250815,13.852408 26.3433476,13.852408 C20.316309,13.852408 15.4308155,18.7443144 15.4308155,24.7792642 L15.4308155,24.7792642 Z"/>
        <path fill="#D6C169" d="M15.4308155 24.7792642C15.4308155 18.7443144 20.316309 13.852408 26.3433476 13.852408 27.0250815 13.852408 27.6908498 13.9227492 28.3382575 14.0426488L33.1974077 9.17791973C31.098721 8.25229431 28.7836996 7.72953177 26.3433476 7.72953177 16.9395708 7.72953177 9.31596567 15.3631438 9.31596567 24.7792642 9.31596567 27.2212207 9.83724464 29.5384816 10.7616567 31.6391237L15.6216052 26.7735953C15.5010644 26.1269365 15.4308155 25.461893 15.4308155 24.7792642L15.4308155 24.7792642zM43.3372017 25.4339164L26.9923519 41.7962241C35.8732532 41.460505 42.9987296 34.3272742 43.3372017 25.4339164L43.3372017 25.4339164z"/>
        <path fill="#FFEF97" d="M43.3707296 24.7792642C43.3707296 25.0006789 43.3467811 25.2148997 43.3372017 25.4339164L49.0305579 19.7354849C48.5196567 19.0952207 48.072618 18.4485619 47.8570815 17.7771237 47.0667811 15.3303712 48.7032618 11.6222742 47.2264378 9.58397993 45.7336481 7.529699 41.6935365 7.95334448 39.6339657 6.45859532 38.9801717 5.97899666 38.4453219 5.23561873 37.9424034 4.42829431L33.1974077 9.17791973C39.1853305 11.819709 43.3707296 17.806699 43.3707296 24.7792642L43.3707296 24.7792642zM26.3433476 35.7053211C32.3703863 35.7053211 37.2558798 30.8134147 37.2558798 24.7792642 37.2558798 19.4277425 33.4113476 14.9826622 28.3382575 14.0426488L15.6208069 26.7735953C16.5579914 31.8549431 20.9972446 35.7053211 26.3433476 35.7053211L26.3433476 35.7053211zM10.7608584 31.6391237L4.81284979 37.5933411C4.82881545 38.4877926 4.9884721 39.3198963 5.45945923 39.9745485 6.95224893 42.0288294 10.9915622 41.6059833 13.051133 43.1079264 15.0787725 44.5882876 15.9249528 48.5673579 18.3676996 49.366689 18.6710472 49.463408 18.9743948 49.5025753 19.2937082 49.5025753L26.9923519 41.7962241C26.7752189 41.8042174 26.5620773 41.8289967 26.3433476 41.8289967 19.3783262 41.8289967 13.3991845 37.636505 10.7608584 31.6391237L10.7608584 31.6391237z"/>
        <path fill="#EBDB83" d="M43.3707296,24.7792642 C43.3707296,17.806699 39.1853305,11.819709 33.1974077,9.17791973 L28.3382575,14.0426488 C33.4113476,14.9826622 37.2558798,19.4277425 37.2558798,24.7792642 C37.2558798,30.814214 32.3703863,35.7053211 26.3433476,35.7053211 C20.9972446,35.7053211 16.5579914,31.8541438 15.6208069,26.7735953 L10.7608584,31.6391237 C13.3991845,37.636505 19.3783262,41.8289967 26.3433476,41.8289967 C26.5620773,41.8289967 26.7752189,41.8042174 26.9923519,41.7962241 L43.3372017,25.4347157 C43.3467811,25.2148997 43.3707296,25.0006789 43.3707296,24.7792642 L43.3707296,24.7792642 Z"/>
      </g>
    </g>
    <g transform="translate(239)">
      <path fill="#E5F1FF" d="M0.263157895,158.285714 L0.263157895,154 L8.84210526,154 C10.0238553,154 10.9868421,153.037857 10.9868421,151.857143 L10.9868421,31.1428571 L15.2763158,31.1428571 L15.2763158,151.857143 C15.2763158,155.401429 12.3895,158.285714 8.84210526,158.285714 L0.263157895,158.285714 Z"/>
      <polygon fill="#E5F1FF" points="20.194 41.229 13.132 34.173 6.069 41.229 3.036 38.199 13.132 28.113 23.227 38.199"/>
      <g fill="#3F97FF" transform="translate(1)">
        <circle cx="11.802" cy="11.802" r="11.802" fill-opacity=".1"/>
        <g transform="translate(6 5)">
          <path d="M0.613333333,12.8618726 C1.01733333,13.2623297 1.556,13.4625583 2.22933333,13.4625583 L9.532,13.4625583 C10.2053333,13.4625583 10.744,13.2623297 11.148,12.8618726 C11.552,12.4621012 11.7613333,11.9231297 11.7613333,11.245644 C11.7613333,10.938444 11.7466667,10.645644 11.7313333,10.3535297 C11.7166667,10.0607297 11.672,9.75284402 11.612,9.41410116 C11.552,9.07604402 11.4773333,8.7681583 11.3873333,8.49112973 C11.298,8.19832973 11.178,7.92130116 11.0286667,7.64427259 C10.8786667,7.38301545 10.714,7.13684402 10.5193333,6.95170116 C10.3253333,6.76724402 10.0853333,6.6129583 9.80133333,6.49021545 C9.51733333,6.3825583 9.20266667,6.32084402 8.85866667,6.32084402 C8.814,6.32084402 8.694,6.3825583 8.51466667,6.50530116 C8.32,6.62872973 8.12533333,6.76724402 7.90066667,6.9057583 C7.67666667,7.0593583 7.37733333,7.19787259 7.00333333,7.32130116 C6.62933333,7.44472973 6.25466667,7.5057583 5.88066667,7.5057583 C5.50666667,7.5057583 5.13266667,7.44472973 4.75866667,7.32130116 C4.38466667,7.19787259 4.08533333,7.0593583 3.86066667,6.9057583 C3.65133333,6.76724402 3.442,6.62872973 3.262,6.50530116 C3.06733333,6.3825583 2.948,6.32084402 2.90333333,6.32084402 C2.55866667,6.32084402 2.24466667,6.3825583 1.96,6.49021545 C1.676,6.6129583 1.45133333,6.76724402 1.242,6.95170116 C1.04733333,7.13684402 0.882666667,7.38301545 0.733333333,7.64427259 C0.584,7.92130116 0.464,8.19832973 0.374,8.49112973 C0.284666667,8.7681583 0.209333333,9.07604402 0.15,9.41410116 C0.09,9.75284402 0.0453333333,10.0607297 0.03,10.3535297 C0.0153333333,10.645644 0,10.938444 0,11.245644 C0,11.9231297 0.209333333,12.4621012 0.613333333,12.8618726 L0.613333333,12.8618726 Z"/>
          <path d="M5.884,6.73707259 C6.76733333,6.73707259 7.51533333,6.41341545 8.144,5.76678688 C8.772,5.12084402 9.08666667,4.35078688 9.08666667,3.44290116 C9.08666667,2.53501545 8.772,1.76564402 8.144,1.11901545 C7.51533333,0.472386876 6.76733333,0.149415447 5.884,0.149415447 C4.986,0.149415447 4.238,0.472386876 3.60933333,1.11901545 C2.98133333,1.76564402 2.66666667,2.53501545 2.66666667,3.44290116 C2.66666667,4.35078688 2.98133333,5.12084402 3.60933333,5.76678688 C4.238,6.41341545 4.986,6.73707259 5.884,6.73707259 L5.884,6.73707259 Z"/>
        </g>
      </g>
    </g>
    <g transform="translate(120)">
      <rect width="4.289" height="70.714" x="9.355" y="31.143" fill="#E5F1FF"/>
      <polygon fill="#E5F1FF" points="18.563 41.229 11.5 34.173 4.437 41.229 1.405 38.199 11.5 28.113 21.595 38.199"/>
      <g fill="#3F97FF">
        <circle cx="11.802" cy="11.802" r="11.802" fill-opacity=".1"/>
        <g transform="translate(6 5)">
          <path d="M0.613333333,12.8618726 C1.01733333,13.2623297 1.556,13.4625583 2.22933333,13.4625583 L9.532,13.4625583 C10.2053333,13.4625583 10.744,13.2623297 11.148,12.8618726 C11.552,12.4621012 11.7613333,11.9231297 11.7613333,11.245644 C11.7613333,10.938444 11.7466667,10.645644 11.7313333,10.3535297 C11.7166667,10.0607297 11.672,9.75284402 11.612,9.41410116 C11.552,9.07604402 11.4773333,8.7681583 11.3873333,8.49112973 C11.298,8.19832973 11.178,7.92130116 11.0286667,7.64427259 C10.8786667,7.38301545 10.714,7.13684402 10.5193333,6.95170116 C10.3253333,6.76724402 10.0853333,6.6129583 9.80133333,6.49021545 C9.51733333,6.3825583 9.20266667,6.32084402 8.85866667,6.32084402 C8.814,6.32084402 8.694,6.3825583 8.51466667,6.50530116 C8.32,6.62872973 8.12533333,6.76724402 7.90066667,6.9057583 C7.67666667,7.0593583 7.37733333,7.19787259 7.00333333,7.32130116 C6.62933333,7.44472973 6.25466667,7.5057583 5.88066667,7.5057583 C5.50666667,7.5057583 5.13266667,7.44472973 4.75866667,7.32130116 C4.38466667,7.19787259 4.08533333,7.0593583 3.86066667,6.9057583 C3.65133333,6.76724402 3.442,6.62872973 3.262,6.50530116 C3.06733333,6.3825583 2.948,6.32084402 2.90333333,6.32084402 C2.55866667,6.32084402 2.24466667,6.3825583 1.96,6.49021545 C1.676,6.6129583 1.45133333,6.76724402 1.242,6.95170116 C1.04733333,7.13684402 0.882666667,7.38301545 0.733333333,7.64427259 C0.584,7.92130116 0.464,8.19832973 0.374,8.49112973 C0.284666667,8.7681583 0.209333333,9.07604402 0.15,9.41410116 C0.09,9.75284402 0.0453333333,10.0607297 0.03,10.3535297 C0.0153333333,10.645644 0,10.938444 0,11.245644 C0,11.9231297 0.209333333,12.4621012 0.613333333,12.8618726 L0.613333333,12.8618726 Z"/>
          <path d="M5.884,6.73707259 C6.76733333,6.73707259 7.51533333,6.41341545 8.144,5.76678688 C8.772,5.12084402 9.08666667,4.35078688 9.08666667,3.44290116 C9.08666667,2.53501545 8.772,1.76564402 8.144,1.11901545 C7.51533333,0.472386876 6.76733333,0.149415447 5.884,0.149415447 C4.986,0.149415447 4.238,0.472386876 3.60933333,1.11901545 C2.98133333,1.76564402 2.66666667,2.53501545 2.66666667,3.44290116 C2.66666667,4.35078688 2.98133333,5.12084402 3.60933333,5.76678688 C4.238,6.41341545 4.986,6.73707259 5.884,6.73707259 L5.884,6.73707259 Z"/>
        </g>
      </g>
    </g>
    <g transform="translate(60)">
      <rect width="4.289" height="70.714" x="9.355" y="31.143" fill="#E5F1FF"/>
      <polygon fill="#E5F1FF" points="18.563 41.229 11.5 34.173 4.437 41.229 1.405 38.199 11.5 28.113 21.595 38.199"/>
      <g fill="#3F97FF">
        <circle cx="11.802" cy="11.802" r="11.802" fill-opacity=".1"/>
        <g transform="translate(6 5)">
          <path d="M0.613333333,12.8618726 C1.01733333,13.2623297 1.556,13.4625583 2.22933333,13.4625583 L9.532,13.4625583 C10.2053333,13.4625583 10.744,13.2623297 11.148,12.8618726 C11.552,12.4621012 11.7613333,11.9231297 11.7613333,11.245644 C11.7613333,10.938444 11.7466667,10.645644 11.7313333,10.3535297 C11.7166667,10.0607297 11.672,9.75284402 11.612,9.41410116 C11.552,9.07604402 11.4773333,8.7681583 11.3873333,8.49112973 C11.298,8.19832973 11.178,7.92130116 11.0286667,7.64427259 C10.8786667,7.38301545 10.714,7.13684402 10.5193333,6.95170116 C10.3253333,6.76724402 10.0853333,6.6129583 9.80133333,6.49021545 C9.51733333,6.3825583 9.20266667,6.32084402 8.85866667,6.32084402 C8.814,6.32084402 8.694,6.3825583 8.51466667,6.50530116 C8.32,6.62872973 8.12533333,6.76724402 7.90066667,6.9057583 C7.67666667,7.0593583 7.37733333,7.19787259 7.00333333,7.32130116 C6.62933333,7.44472973 6.25466667,7.5057583 5.88066667,7.5057583 C5.50666667,7.5057583 5.13266667,7.44472973 4.75866667,7.32130116 C4.38466667,7.19787259 4.08533333,7.0593583 3.86066667,6.9057583 C3.65133333,6.76724402 3.442,6.62872973 3.262,6.50530116 C3.06733333,6.3825583 2.948,6.32084402 2.90333333,6.32084402 C2.55866667,6.32084402 2.24466667,6.3825583 1.96,6.49021545 C1.676,6.6129583 1.45133333,6.76724402 1.242,6.95170116 C1.04733333,7.13684402 0.882666667,7.38301545 0.733333333,7.64427259 C0.584,7.92130116 0.464,8.19832973 0.374,8.49112973 C0.284666667,8.7681583 0.209333333,9.07604402 0.15,9.41410116 C0.09,9.75284402 0.0453333333,10.0607297 0.03,10.3535297 C0.0153333333,10.645644 0,10.938444 0,11.245644 C0,11.9231297 0.209333333,12.4621012 0.613333333,12.8618726 L0.613333333,12.8618726 Z"/>
          <path d="M5.884,6.73707259 C6.76733333,6.73707259 7.51533333,6.41341545 8.144,5.76678688 C8.772,5.12084402 9.08666667,4.35078688 9.08666667,3.44290116 C9.08666667,2.53501545 8.772,1.76564402 8.144,1.11901545 C7.51533333,0.472386876 6.76733333,0.149415447 5.884,0.149415447 C4.986,0.149415447 4.238,0.472386876 3.60933333,1.11901545 C2.98133333,1.76564402 2.66666667,2.53501545 2.66666667,3.44290116 C2.66666667,4.35078688 2.98133333,5.12084402 3.60933333,5.76678688 C4.238,6.41341545 4.986,6.73707259 5.884,6.73707259 L5.884,6.73707259 Z"/>
        </g>
      </g>
    </g>
    <g transform="translate(180)">
      <rect width="4.289" height="70.714" x="9.355" y="31.143" fill="#E5F1FF"/>
      <polygon fill="#E5F1FF" points="18.563 41.229 11.5 34.173 4.437 41.229 1.405 38.199 11.5 28.113 21.595 38.199"/>
      <g fill="#3F97FF">
        <circle cx="11.802" cy="11.802" r="11.802" fill-opacity=".1"/>
        <g transform="translate(6 5)">
          <path d="M0.613333333,12.8618726 C1.01733333,13.2623297 1.556,13.4625583 2.22933333,13.4625583 L9.532,13.4625583 C10.2053333,13.4625583 10.744,13.2623297 11.148,12.8618726 C11.552,12.4621012 11.7613333,11.9231297 11.7613333,11.245644 C11.7613333,10.938444 11.7466667,10.645644 11.7313333,10.3535297 C11.7166667,10.0607297 11.672,9.75284402 11.612,9.41410116 C11.552,9.07604402 11.4773333,8.7681583 11.3873333,8.49112973 C11.298,8.19832973 11.178,7.92130116 11.0286667,7.64427259 C10.8786667,7.38301545 10.714,7.13684402 10.5193333,6.95170116 C10.3253333,6.76724402 10.0853333,6.6129583 9.80133333,6.49021545 C9.51733333,6.3825583 9.20266667,6.32084402 8.85866667,6.32084402 C8.814,6.32084402 8.694,6.3825583 8.51466667,6.50530116 C8.32,6.62872973 8.12533333,6.76724402 7.90066667,6.9057583 C7.67666667,7.0593583 7.37733333,7.19787259 7.00333333,7.32130116 C6.62933333,7.44472973 6.25466667,7.5057583 5.88066667,7.5057583 C5.50666667,7.5057583 5.13266667,7.44472973 4.75866667,7.32130116 C4.38466667,7.19787259 4.08533333,7.0593583 3.86066667,6.9057583 C3.65133333,6.76724402 3.442,6.62872973 3.262,6.50530116 C3.06733333,6.3825583 2.948,6.32084402 2.90333333,6.32084402 C2.55866667,6.32084402 2.24466667,6.3825583 1.96,6.49021545 C1.676,6.6129583 1.45133333,6.76724402 1.242,6.95170116 C1.04733333,7.13684402 0.882666667,7.38301545 0.733333333,7.64427259 C0.584,7.92130116 0.464,8.19832973 0.374,8.49112973 C0.284666667,8.7681583 0.209333333,9.07604402 0.15,9.41410116 C0.09,9.75284402 0.0453333333,10.0607297 0.03,10.3535297 C0.0153333333,10.645644 0,10.938444 0,11.245644 C0,11.9231297 0.209333333,12.4621012 0.613333333,12.8618726 L0.613333333,12.8618726 Z"/>
          <path d="M5.884,6.73707259 C6.76733333,6.73707259 7.51533333,6.41341545 8.144,5.76678688 C8.772,5.12084402 9.08666667,4.35078688 9.08666667,3.44290116 C9.08666667,2.53501545 8.772,1.76564402 8.144,1.11901545 C7.51533333,0.472386876 6.76733333,0.149415447 5.884,0.149415447 C4.986,0.149415447 4.238,0.472386876 3.60933333,1.11901545 C2.98133333,1.76564402 2.66666667,2.53501545 2.66666667,3.44290116 C2.66666667,4.35078688 2.98133333,5.12084402 3.60933333,5.76678688 C4.238,6.41341545 4.986,6.73707259 5.884,6.73707259 L5.884,6.73707259 Z"/>
        </g>
      </g>
    </g>
    <path fill="#E5F1FF" d="M16.1578947,158.285714 C12.6105,158.285714 9.72368421,155.401429 9.72368421,151.857143 L9.72368421,31.1428571 L14.0131579,31.1428571 L14.0131579,151.857143 C14.0131579,153.037857 14.9761447,154 16.1578947,154 L24.7368421,154 L24.7368421,158.285714 L16.1578947,158.285714 Z"/>
    <path fill="#E5F1FF" d="M18.9310395,41.2292857 L11.8684211,34.1728571 L4.80580263,41.2292857 L1.77314474,38.1992857 L10.3520921,29.6278571 C11.1906842,28.7921429 12.5461579,28.7921429 13.38475,29.6278571 L21.9636974,38.1992857 L18.9310395,41.2292857 L18.9310395,41.2292857 Z"/>
    <g fill="#3F97FF">
      <circle cx="11.802" cy="11.802" r="11.802" fill-opacity=".1"/>
      <g transform="translate(6 5)">
        <path d="M0.613333333,12.8618726 C1.01733333,13.2623297 1.556,13.4625583 2.22933333,13.4625583 L9.532,13.4625583 C10.2053333,13.4625583 10.744,13.2623297 11.148,12.8618726 C11.552,12.4621012 11.7613333,11.9231297 11.7613333,11.245644 C11.7613333,10.938444 11.7466667,10.645644 11.7313333,10.3535297 C11.7166667,10.0607297 11.672,9.75284402 11.612,9.41410116 C11.552,9.07604402 11.4773333,8.7681583 11.3873333,8.49112973 C11.298,8.19832973 11.178,7.92130116 11.0286667,7.64427259 C10.8786667,7.38301545 10.714,7.13684402 10.5193333,6.95170116 C10.3253333,6.76724402 10.0853333,6.6129583 9.80133333,6.49021545 C9.51733333,6.3825583 9.20266667,6.32084402 8.85866667,6.32084402 C8.814,6.32084402 8.694,6.3825583 8.51466667,6.50530116 C8.32,6.62872973 8.12533333,6.76724402 7.90066667,6.9057583 C7.67666667,7.0593583 7.37733333,7.19787259 7.00333333,7.32130116 C6.62933333,7.44472973 6.25466667,7.5057583 5.88066667,7.5057583 C5.50666667,7.5057583 5.13266667,7.44472973 4.75866667,7.32130116 C4.38466667,7.19787259 4.08533333,7.0593583 3.86066667,6.9057583 C3.65133333,6.76724402 3.442,6.62872973 3.262,6.50530116 C3.06733333,6.3825583 2.948,6.32084402 2.90333333,6.32084402 C2.55866667,6.32084402 2.24466667,6.3825583 1.96,6.49021545 C1.676,6.6129583 1.45133333,6.76724402 1.242,6.95170116 C1.04733333,7.13684402 0.882666667,7.38301545 0.733333333,7.64427259 C0.584,7.92130116 0.464,8.19832973 0.374,8.49112973 C0.284666667,8.7681583 0.209333333,9.07604402 0.15,9.41410116 C0.09,9.75284402 0.0453333333,10.0607297 0.03,10.3535297 C0.0153333333,10.645644 0,10.938444 0,11.245644 C0,11.9231297 0.209333333,12.4621012 0.613333333,12.8618726 L0.613333333,12.8618726 Z"/>
        <path d="M5.884,6.73707259 C6.76733333,6.73707259 7.51533333,6.41341545 8.144,5.76678688 C8.772,5.12084402 9.08666667,4.35078688 9.08666667,3.44290116 C9.08666667,2.53501545 8.772,1.76564402 8.144,1.11901545 C7.51533333,0.472386876 6.76733333,0.149415447 5.884,0.149415447 C4.986,0.149415447 4.238,0.472386876 3.60933333,1.11901545 C2.98133333,1.76564402 2.66666667,2.53501545 2.66666667,3.44290116 C2.66666667,4.35078688 2.98133333,5.12084402 3.60933333,5.76678688 C4.238,6.41341545 4.986,6.73707259 5.884,6.73707259 L5.884,6.73707259 Z"/>
      </g>
    </g>
  </g>
</svg>
