<svg xmlns="http://www.w3.org/2000/svg" width="370" height="305" viewBox="0 0 370 305" xmlns:xlink="http://www.w3.org/1999/xlink">
  <defs>
    <path id="workforce-training-b" d="M249.649254,293 L249.649254,289.015361 C249.649254,284.675693 246.117114,281.121622 241.795879,281.121622 L109.56233,281.121622 C105.244853,281.121622 101.708955,284.671916 101.708955,289.015361 L101.708955,293 L249.649254,293 L249.649254,293 Z"/>
    <filter id="workforce-training-a" width="200%" height="200%" x="-50%" y="-50%" filterUnits="objectBoundingBox">
      <feOffset dy="2" in="SourceAlpha" result="shadowOffsetOuter1"/>
      <feGaussianBlur stdDeviation="2" in="shadowOffsetOuter1" result="shadowBlurOuter1"/>
      <feColorMatrix values="0 0 0 0 0 0 0 0 0 0 0 0 0 0 0 0 0 0 0.0506963315 0" in="shadowBlurOuter1"/>
    </filter>
    <path id="workforce-training-d" d="M354,14.8854802 L354,215.130631 L0,215.130631 L0,14.8854802 C0,6.7117567 6.74115644,-7.10542736e-14 15.0076297,-7.10542736e-14 L338.99237,-7.10542736e-14 C347.262564,-5.79382396e-14 354,6.7117567 354,14.8854802 L354,14.8854802 Z"/>
    <filter id="workforce-training-c" width="200%" height="200%" x="-50%" y="-50%" filterUnits="objectBoundingBox">
      <feOffset dy="2" in="SourceAlpha" result="shadowOffsetOuter1"/>
      <feGaussianBlur stdDeviation="4" in="shadowOffsetOuter1" result="shadowBlurOuter1"/>
      <feColorMatrix values="0 0 0 0 0 0 0 0 0 0 0 0 0 0 0 0 0 0 0.115913723 0" in="shadowBlurOuter1"/>
    </filter>
    <path id="workforce-training-f" d="M0,215.130631 L0,233.994088 C0,242.511584 6.74122729,249.445946 15.0077875,249.445946 L338.995933,249.445946 C347.266213,249.445946 354,242.507751 354,233.994088 L354,215.130631 L0,215.130631 L0,215.130631 Z"/>
    <filter id="workforce-training-e" width="200%" height="200%" x="-50%" y="-50%" filterUnits="objectBoundingBox">
      <feOffset dy="2" in="SourceAlpha" result="shadowOffsetOuter1"/>
      <feGaussianBlur stdDeviation="4" in="shadowOffsetOuter1" result="shadowBlurOuter1"/>
      <feColorMatrix values="0 0 0 0 0 0 0 0 0 0 0 0 0 0 0 0 0 0 0.115913723 0" in="shadowBlurOuter1"/>
    </filter>
    <path id="workforce-training-g" d="M317.014925,171.858927 C317.014925,174.608345 314.76342,176.855856 312.009115,176.855856 L5.00581015,176.855856 C2.25150545,176.855856 -1.70530257e-13,174.608345 -1.70530257e-13,171.858927 L-1.70530257e-13,5.00061944 C-1.70530257e-13,2.24751088 2.25150545,6.96331881e-13 5.00581015,6.96331881e-13 L312.005418,6.96331881e-13 C314.759723,6.96331881e-13 317.011228,2.25120137 317.011228,5.00061944 L317.011228,171.858927 L317.014925,171.858927 Z"/>
    <path id="workforce-training-j" d="M52.4701493,50 L52.4701493,184.451529 C52.4701493,186.834269 54.1456164,188.783784 56.1934095,188.783784 L268.746889,188.783784 C270.794682,188.783784 272.470149,186.834269 272.470149,184.451529 L272.470149,50 L52.4701493,50 L52.4701493,50 Z"/>
    <filter id="workforce-training-i" width="200%" height="200%" x="-50%" y="-50%" filterUnits="objectBoundingBox">
      <feOffset dy="2" in="SourceAlpha" result="shadowOffsetOuter1"/>
      <feGaussianBlur stdDeviation="4" in="shadowOffsetOuter1" result="shadowBlurOuter1"/>
      <feColorMatrix values="0 0 0 0 0 0 0 0 0 0 0 0 0 0 0 0 0 0 0.5 0" in="shadowBlurOuter1"/>
    </filter>
  </defs>
  <g fill="none" fill-rule="evenodd" transform="translate(8 6)">
    <path fill="#E9F1FD" d="M241.723881,282.441441 L241.723881,280.347482 C232.125266,280.347482 225.724959,272.883827 225.724959,266.838303 C225.724959,266.838303 225.69172,266.83461 225.647402,266.823531 L225.647402,244.166667 L127.02801,244.166667 L127.02801,266.823531 C126.983691,266.83461 126.954146,266.838303 126.954146,266.838303 C126.954146,272.883827 120.557531,280.347482 110.955224,280.347482 L110.955224,282.441441 L241.723881,282.441441 L241.723881,282.441441 Z"/>
    <use fill="black" filter="url(#workforce-training-a)" xlink:href="#workforce-training-b"/>
    <use fill="#FFFFFF" xlink:href="#workforce-training-b"/>
    <use fill="black" filter="url(#workforce-training-c)" xlink:href="#workforce-training-d"/>
    <use fill="#29384F" xlink:href="#workforce-training-d"/>
    <g>
      <use fill="black" filter="url(#workforce-training-e)" xlink:href="#workforce-training-f"/>
      <use fill="#FFFFFF" xlink:href="#workforce-training-f"/>
    </g>
    <g transform="translate(14.53 17.158)">
      <mask id="workforce-training-h" fill="white">
        <use xlink:href="#workforce-training-g"/>
      </mask>
      <use fill="#45546E" xlink:href="#workforce-training-g"/>
      <g mask="url(#workforce-training-h)">
        <use fill="black" filter="url(#workforce-training-i)" xlink:href="#workforce-training-j"/>
        <use fill="#FFFFFF" xlink:href="#workforce-training-j"/>
      </g>
      <g transform="translate(92 94)" mask="url(#workforce-training-h)">
        <rect width="37" height="9.239" y="47.383" fill="#E9F1F6"/>
        <g transform="translate(5)">
          <polygon fill="#9B59B6" points="12.924 17.022 4.962 17.022 4.962 35.627 12.727 32.141 12.924 32.228"/>
          <polygon fill="#8E44AD" points="12.794 17.022 12.794 32.17 20.626 35.627 20.626 17.022"/>
          <path fill="#EAD57D" d="M23.4786253,16.1145151 C23.8541799,14.91768 25.585099,13.8906633 25.585099,12.564134 C25.585099,11.5922374 24.6565902,10.7808375 24.011999,9.94552527 C23.8968655,9.9589 23.7801655,9.96700589 23.6611159,9.96700589 C22.003428,9.96700589 20.4565659,8.49011221 20.5250977,6.72140638 C20.5333216,6.51227434 20.5591679,6.31611173 20.5904967,6.12238089 C20.4565659,6.0388902 20.3242015,5.95256244 20.1855713,5.87596175 C18.9845014,5.21168383 18.4526941,3.72506307 18.7111572,2.39934429 C18.153112,1.51053314 17.6972772,0.387056385 16.836517,0.0980813039 C15.6804823,-0.29059626 14.2045017,1.08132611 12.9231517,1.08132611 C11.6418016,1.08132611 10.165821,-0.291001554 9.00939477,0.0972707146 C7.81067455,0.500133591 7.39870014,2.52093269 6.40126779,3.27234896 C5.39365358,4.03106053 3.41171204,3.81787555 2.67861689,4.86069867 C1.95257073,5.89298413 2.75654741,7.77395657 2.36728642,9.01456347 C1.99212341,10.2113986 0.260812697,11.2380099 0.260812697,12.564134 C0.260812697,13.890258 1.9917318,14.91768 2.36728642,16.1145151 C2.66334408,17.058041 2.26977537,18.3728168 2.38451729,19.4026705 C3.26368321,19.0764083 4.27560515,19.1286913 5.07684055,19.6300408 C5.38190526,19.7171791 5.67952935,19.8509264 5.95639809,19.9956166 C6.39226075,20.2242027 6.79601134,20.5528967 7.13123006,20.9200936 C7.57335849,21.4052313 8.10359932,21.7821554 8.54886064,22.2595924 C9.2713823,23.0337052 9.56509029,24.0967931 9.41001247,25.096655 C10.4943824,25.1250256 11.7843479,24.0477524 12.9219768,24.0477524 C14.2033269,24.0477524 15.6796991,25.4188642 16.8357337,25.0301866 C18.0340624,24.6281343 18.4460368,22.60693 19.4434691,21.8551084 C20.4506917,21.0968021 22.4326332,21.3103924 23.16612,20.2679746 C23.893341,19.2352838 23.0893643,17.3539061 23.4786253,16.1145151 L23.4786253,16.1145151 Z"/>
          <path d="M7.56983399,12.564134 C7.56983399,12.9102556 7.60429573,13.2474607 7.66303733,13.5753441 L13.9017867,7.12021631 C13.5837989,7.05942211 13.2575872,7.02375618 12.9231517,7.02375618 C9.96649121,7.02375618 7.56983399,9.5041594 7.56983399,12.564134 L7.56983399,12.564134 Z"/>
          <path fill="#D6C169" d="M7.56983399 12.564134C7.56983399 9.5041594 9.96649121 7.02375618 12.9231517 7.02375618 13.2575872 7.02375618 13.5841905 7.05942211 13.9017867 7.12021631L16.2855208 4.6535931C15.2559764 4.18426191 14.1203054 3.91919921 12.9231517 3.91919921 8.30997814 3.91919921 4.57009636 7.78976306 4.57009636 12.564134 4.57009636 13.8023091 4.82581812 14.9772583 5.27930326 16.0423726L7.66342894 13.5753441C7.60429573 13.2474607 7.56983399 12.9102556 7.56983399 12.564134L7.56983399 12.564134zM21.2597593 12.8960703L13.2415311 21.1924516C17.5981997 21.0222279 21.0937164 17.4053785 21.2597593 12.8960703L21.2597593 12.8960703z"/>
          <path fill="#FFEF97" d="M21.276207 12.564134C21.276207 12.6764006 21.2644587 12.7850195 21.2597593 12.8960703L24.0527265 10.0067248C23.8020957 9.68208375 23.5827937 9.35420039 23.4770589 9.01375289 23.0893643 7.77314598 23.8921662 5.89298413 23.1676865 4.85948278 22.4353745 3.81787555 20.453433 4.03268171 19.4430775 3.27478072 19.1223484 3.03160394 18.8599692 2.65467992 18.6132545 2.24533233L16.2855208 4.6535931C19.2229923 5.9930919 21.276207 9.02874879 21.276207 12.564134L21.276207 12.564134zM12.9231517 18.1041065C15.8798121 18.1041065 18.2764693 15.6237032 18.2764693 12.564134 18.2764693 9.85068633 16.3904724 7.59684281 13.9017867 7.12021631L7.66303733 13.5753441C8.12278824 16.1518022 10.3005351 18.1041065 12.9231517 18.1041065L12.9231517 18.1041065zM5.27891165 16.0423726L2.36102065 19.0614124C2.36885286 19.5149371 2.44717499 19.9368488 2.67822528 20.2687852 3.41053721 21.3103924 5.39208713 21.0959915 6.40244263 21.8575402 7.3971337 22.6081458 7.81224099 24.6257026 9.0105696 25.0309972 9.15938165 25.0800379 9.3081937 25.0998973 9.46483796 25.0998973L13.2415311 21.1924516C13.135013 21.1965046 13.030453 21.2090687 12.9231517 21.2090687 9.50634869 21.2090687 6.57318487 19.0832983 5.27891165 16.0423726L5.27891165 16.0423726z"/>
          <path fill="#EBDB83" d="M21.276207,12.564134 C21.276207,9.02874879 19.2229923,5.9930919 16.2855208,4.6535931 L13.9017867,7.12021631 C16.3904724,7.59684281 18.2764693,9.85068633 18.2764693,12.564134 C18.2764693,15.6241085 15.8798121,18.1041065 12.9231517,18.1041065 C10.3005351,18.1041065 8.12278824,16.1513969 7.66303733,13.5753441 L5.27891165,16.0423726 C6.57318487,19.0832983 9.50634869,21.2090687 12.9231517,21.2090687 C13.030453,21.2090687 13.135013,21.1965046 13.2415311,21.1924516 L21.2597593,12.8964756 C21.2644587,12.7850195 21.276207,12.6764006 21.276207,12.564134 L21.276207,12.564134 Z"/>
        </g>
        <g transform="translate(50)">
          <rect width="37" height="9.239" y="47.383" fill="#E9F1F6"/>
          <g transform="translate(5)">
            <polygon fill="#2ECC71" points="12.924 17.022 4.962 17.022 4.962 35.627 12.727 32.141 12.924 32.228"/>
            <polygon fill="#27AE60" points="12.794 17.022 12.794 32.17 20.626 35.627 20.626 17.022"/>
            <path fill="#EAD57D" d="M23.4786253,16.1145151 C23.8541799,14.91768 25.585099,13.8906633 25.585099,12.564134 C25.585099,11.5922374 24.6565902,10.7808375 24.011999,9.94552527 C23.8968655,9.9589 23.7801655,9.96700589 23.6611159,9.96700589 C22.003428,9.96700589 20.4565659,8.49011221 20.5250977,6.72140638 C20.5333216,6.51227434 20.5591679,6.31611173 20.5904967,6.12238089 C20.4565659,6.0388902 20.3242015,5.95256244 20.1855713,5.87596175 C18.9845014,5.21168383 18.4526941,3.72506307 18.7111572,2.39934429 C18.153112,1.51053314 17.6972772,0.387056385 16.836517,0.0980813039 C15.6804823,-0.29059626 14.2045017,1.08132611 12.9231517,1.08132611 C11.6418016,1.08132611 10.165821,-0.291001554 9.00939477,0.0972707146 C7.81067455,0.500133591 7.39870014,2.52093269 6.40126779,3.27234896 C5.39365358,4.03106053 3.41171204,3.81787555 2.67861689,4.86069867 C1.95257073,5.89298413 2.75654741,7.77395657 2.36728642,9.01456347 C1.99212341,10.2113986 0.260812697,11.2380099 0.260812697,12.564134 C0.260812697,13.890258 1.9917318,14.91768 2.36728642,16.1145151 C2.66334408,17.058041 2.26977537,18.3728168 2.38451729,19.4026705 C3.26368321,19.0764083 4.27560515,19.1286913 5.07684055,19.6300408 C5.38190526,19.7171791 5.67952935,19.8509264 5.95639809,19.9956166 C6.39226075,20.2242027 6.79601134,20.5528967 7.13123006,20.9200936 C7.57335849,21.4052313 8.10359932,21.7821554 8.54886064,22.2595924 C9.2713823,23.0337052 9.56509029,24.0967931 9.41001247,25.096655 C10.4943824,25.1250256 11.7843479,24.0477524 12.9219768,24.0477524 C14.2033269,24.0477524 15.6796991,25.4188642 16.8357337,25.0301866 C18.0340624,24.6281343 18.4460368,22.60693 19.4434691,21.8551084 C20.4506917,21.0968021 22.4326332,21.3103924 23.16612,20.2679746 C23.893341,19.2352838 23.0893643,17.3539061 23.4786253,16.1145151 L23.4786253,16.1145151 Z"/>
            <path d="M7.56983399,12.564134 C7.56983399,12.9102556 7.60429573,13.2474607 7.66303733,13.5753441 L13.9017867,7.12021631 C13.5837989,7.05942211 13.2575872,7.02375618 12.9231517,7.02375618 C9.96649121,7.02375618 7.56983399,9.5041594 7.56983399,12.564134 L7.56983399,12.564134 Z"/>
            <path fill="#D6C169" d="M7.56983399 12.564134C7.56983399 9.5041594 9.96649121 7.02375618 12.9231517 7.02375618 13.2575872 7.02375618 13.5841905 7.05942211 13.9017867 7.12021631L16.2855208 4.6535931C15.2559764 4.18426191 14.1203054 3.91919921 12.9231517 3.91919921 8.30997814 3.91919921 4.57009636 7.78976306 4.57009636 12.564134 4.57009636 13.8023091 4.82581812 14.9772583 5.27930326 16.0423726L7.66342894 13.5753441C7.60429573 13.2474607 7.56983399 12.9102556 7.56983399 12.564134L7.56983399 12.564134zM21.2597593 12.8960703L13.2415311 21.1924516C17.5981997 21.0222279 21.0937164 17.4053785 21.2597593 12.8960703L21.2597593 12.8960703z"/>
            <path fill="#FFEF97" d="M21.276207 12.564134C21.276207 12.6764006 21.2644587 12.7850195 21.2597593 12.8960703L24.0527265 10.0067248C23.8020957 9.68208375 23.5827937 9.35420039 23.4770589 9.01375289 23.0893643 7.77314598 23.8921662 5.89298413 23.1676865 4.85948278 22.4353745 3.81787555 20.453433 4.03268171 19.4430775 3.27478072 19.1223484 3.03160394 18.8599692 2.65467992 18.6132545 2.24533233L16.2855208 4.6535931C19.2229923 5.9930919 21.276207 9.02874879 21.276207 12.564134L21.276207 12.564134zM12.9231517 18.1041065C15.8798121 18.1041065 18.2764693 15.6237032 18.2764693 12.564134 18.2764693 9.85068633 16.3904724 7.59684281 13.9017867 7.12021631L7.66303733 13.5753441C8.12278824 16.1518022 10.3005351 18.1041065 12.9231517 18.1041065L12.9231517 18.1041065zM5.27891165 16.0423726L2.36102065 19.0614124C2.36885286 19.5149371 2.44717499 19.9368488 2.67822528 20.2687852 3.41053721 21.3103924 5.39208713 21.0959915 6.40244263 21.8575402 7.3971337 22.6081458 7.81224099 24.6257026 9.0105696 25.0309972 9.15938165 25.0800379 9.3081937 25.0998973 9.46483796 25.0998973L13.2415311 21.1924516C13.135013 21.1965046 13.030453 21.2090687 12.9231517 21.2090687 9.50634869 21.2090687 6.57318487 19.0832983 5.27891165 16.0423726L5.27891165 16.0423726z"/>
            <path fill="#EBDB83" d="M21.276207,12.564134 C21.276207,9.02874879 19.2229923,5.9930919 16.2855208,4.6535931 L13.9017867,7.12021631 C16.3904724,7.59684281 18.2764693,9.85068633 18.2764693,12.564134 C18.2764693,15.6241085 15.8798121,18.1041065 12.9231517,18.1041065 C10.3005351,18.1041065 8.12278824,16.1513969 7.66303733,13.5753441 L5.27891165,16.0423726 C6.57318487,19.0832983 9.50634869,21.2090687 12.9231517,21.2090687 C13.030453,21.2090687 13.135013,21.1965046 13.2415311,21.1924516 L21.2597593,12.8964756 C21.2644587,12.7850195 21.276207,12.6764006 21.276207,12.564134 L21.276207,12.564134 Z"/>
          </g>
        </g>
        <g transform="translate(100)">
          <rect width="37" height="9.239" y="47.383" fill="#E9F1F6"/>
          <g transform="translate(5)">
            <polygon fill="#4F93E2" points="12.924 17.022 4.962 17.022 4.962 35.627 12.727 32.141 12.924 32.228"/>
            <polygon fill="#307AD1" points="12.794 17.022 12.794 32.17 20.626 35.627 20.626 17.022"/>
            <path fill="#EAD57D" d="M23.4786253,16.1145151 C23.8541799,14.91768 25.585099,13.8906633 25.585099,12.564134 C25.585099,11.5922374 24.6565902,10.7808375 24.011999,9.94552527 C23.8968655,9.9589 23.7801655,9.96700589 23.6611159,9.96700589 C22.003428,9.96700589 20.4565659,8.49011221 20.5250977,6.72140638 C20.5333216,6.51227434 20.5591679,6.31611173 20.5904967,6.12238089 C20.4565659,6.0388902 20.3242015,5.95256244 20.1855713,5.87596175 C18.9845014,5.21168383 18.4526941,3.72506307 18.7111572,2.39934429 C18.153112,1.51053314 17.6972772,0.387056385 16.836517,0.0980813039 C15.6804823,-0.29059626 14.2045017,1.08132611 12.9231517,1.08132611 C11.6418016,1.08132611 10.165821,-0.291001554 9.00939477,0.0972707146 C7.81067455,0.500133591 7.39870014,2.52093269 6.40126779,3.27234896 C5.39365358,4.03106053 3.41171204,3.81787555 2.67861689,4.86069867 C1.95257073,5.89298413 2.75654741,7.77395657 2.36728642,9.01456347 C1.99212341,10.2113986 0.260812697,11.2380099 0.260812697,12.564134 C0.260812697,13.890258 1.9917318,14.91768 2.36728642,16.1145151 C2.66334408,17.058041 2.26977537,18.3728168 2.38451729,19.4026705 C3.26368321,19.0764083 4.27560515,19.1286913 5.07684055,19.6300408 C5.38190526,19.7171791 5.67952935,19.8509264 5.95639809,19.9956166 C6.39226075,20.2242027 6.79601134,20.5528967 7.13123006,20.9200936 C7.57335849,21.4052313 8.10359932,21.7821554 8.54886064,22.2595924 C9.2713823,23.0337052 9.56509029,24.0967931 9.41001247,25.096655 C10.4943824,25.1250256 11.7843479,24.0477524 12.9219768,24.0477524 C14.2033269,24.0477524 15.6796991,25.4188642 16.8357337,25.0301866 C18.0340624,24.6281343 18.4460368,22.60693 19.4434691,21.8551084 C20.4506917,21.0968021 22.4326332,21.3103924 23.16612,20.2679746 C23.893341,19.2352838 23.0893643,17.3539061 23.4786253,16.1145151 L23.4786253,16.1145151 Z"/>
            <path d="M7.56983399,12.564134 C7.56983399,12.9102556 7.60429573,13.2474607 7.66303733,13.5753441 L13.9017867,7.12021631 C13.5837989,7.05942211 13.2575872,7.02375618 12.9231517,7.02375618 C9.96649121,7.02375618 7.56983399,9.5041594 7.56983399,12.564134 L7.56983399,12.564134 Z"/>
            <path fill="#D6C169" d="M7.56983399 12.564134C7.56983399 9.5041594 9.96649121 7.02375618 12.9231517 7.02375618 13.2575872 7.02375618 13.5841905 7.05942211 13.9017867 7.12021631L16.2855208 4.6535931C15.2559764 4.18426191 14.1203054 3.91919921 12.9231517 3.91919921 8.30997814 3.91919921 4.57009636 7.78976306 4.57009636 12.564134 4.57009636 13.8023091 4.82581812 14.9772583 5.27930326 16.0423726L7.66342894 13.5753441C7.60429573 13.2474607 7.56983399 12.9102556 7.56983399 12.564134L7.56983399 12.564134zM21.2597593 12.8960703L13.2415311 21.1924516C17.5981997 21.0222279 21.0937164 17.4053785 21.2597593 12.8960703L21.2597593 12.8960703z"/>
            <path fill="#FFEF97" d="M21.276207 12.564134C21.276207 12.6764006 21.2644587 12.7850195 21.2597593 12.8960703L24.0527265 10.0067248C23.8020957 9.68208375 23.5827937 9.35420039 23.4770589 9.01375289 23.0893643 7.77314598 23.8921662 5.89298413 23.1676865 4.85948278 22.4353745 3.81787555 20.453433 4.03268171 19.4430775 3.27478072 19.1223484 3.03160394 18.8599692 2.65467992 18.6132545 2.24533233L16.2855208 4.6535931C19.2229923 5.9930919 21.276207 9.02874879 21.276207 12.564134L21.276207 12.564134zM12.9231517 18.1041065C15.8798121 18.1041065 18.2764693 15.6237032 18.2764693 12.564134 18.2764693 9.85068633 16.3904724 7.59684281 13.9017867 7.12021631L7.66303733 13.5753441C8.12278824 16.1518022 10.3005351 18.1041065 12.9231517 18.1041065L12.9231517 18.1041065zM5.27891165 16.0423726L2.36102065 19.0614124C2.36885286 19.5149371 2.44717499 19.9368488 2.67822528 20.2687852 3.41053721 21.3103924 5.39208713 21.0959915 6.40244263 21.8575402 7.3971337 22.6081458 7.81224099 24.6257026 9.0105696 25.0309972 9.15938165 25.0800379 9.3081937 25.0998973 9.46483796 25.0998973L13.2415311 21.1924516C13.135013 21.1965046 13.030453 21.2090687 12.9231517 21.2090687 9.50634869 21.2090687 6.57318487 19.0832983 5.27891165 16.0423726L5.27891165 16.0423726z"/>
            <path fill="#EBDB83" d="M21.276207,12.564134 C21.276207,9.02874879 19.2229923,5.9930919 16.2855208,4.6535931 L13.9017867,7.12021631 C16.3904724,7.59684281 18.2764693,9.85068633 18.2764693,12.564134 C18.2764693,15.6241085 15.8798121,18.1041065 12.9231517,18.1041065 C10.3005351,18.1041065 8.12278824,16.1513969 7.66303733,13.5753441 L5.27891165,16.0423726 C6.57318487,19.0832983 9.50634869,21.2090687 12.9231517,21.2090687 C13.030453,21.2090687 13.135013,21.1965046 13.2415311,21.1924516 L21.2597593,12.8964756 C21.2644587,12.7850195 21.276207,12.6764006 21.276207,12.564134 L21.276207,12.564134 Z"/>
          </g>
        </g>
      </g>
      <text fill="#C2D1E3" mask="url(#workforce-training-h)" font-family="Gibson-SemiBold, Gibson" font-size="11" font-weight="500">
        <tspan x="77" y="75">CERTIFICATE OF HIPAA TRAINING</tspan>
      </text>
      <path fill="#307AD1" d="M272.470149,51.2702703 L272.470149,42.1795964 C272.470149,40.6478906 271.252643,39.3918919 269.755893,39.3918919 L55.184406,39.3918919 C53.6951019,39.3918919 52.4701493,40.6478906 52.4701493,42.1795964 L52.4701493,51.2702703 L272.470149,51.2702703 L272.470149,51.2702703 Z" mask="url(#workforce-training-h)"/>
      <g transform="translate(123.276 9.477)" mask="url(#workforce-training-h)">
        <path fill="#FFFFFF" d="M25.4671389 9.81106918C23.9965031 9.81106918 22.856924 10.1618584 22.856924 11.237323 22.856924 11.96049 23.3347638 12.3125048 23.9597606 12.3125048 24.6399179 12.3125048 25.2280788 11.8493423 25.4121653 11.2743723 25.4487209 11.1262696 25.4671389 10.9596895 25.4671389 10.792638L25.4671389 9.81106918 25.4671389 9.81106918zM28.1690698 11.9043977C28.1690698 12.7573784 28.2057188 13.5912217 28.3161334 14.0917162L25.7977281 14.0917162 25.6326205 13.1833974 25.5775534 13.1833974C24.9892991 13.9070357 24.0700816 14.2954398 23.0039876 14.2954398 21.1842511 14.2954398 20.0996455 12.9613848 20.0996455 11.5155222 20.0996455 9.16124646 22.1953716 8.04958108 25.3749553 8.04958108L25.3749553 7.93824485C25.3749553 7.45669916 25.1177577 6.77048713 23.739212 6.77048713 22.820088 6.77048713 21.8459905 7.08535843 21.2574557 7.43822169L20.7430604 5.64015573C21.3679637 5.28814093 22.5994459 4.82469562 24.2354697 4.82469562 27.2317148 4.82469562 28.1690698 6.60409556 28.1690698 8.73475611L28.1690698 11.9043977 28.1690698 11.9043977zM31.6836556 10.1997561C31.6836556 10.42224 31.7020736 10.6072976 31.7387226 10.792638 31.9227157 11.5526657 32.56585 12.1269759 33.374653 12.1269759 34.5879041 12.1269759 35.304991 11.1074151 35.304991 9.56916506 35.304991 8.12349099 34.6613891 7.02973745 33.4115825 7.02973745 32.6211041 7.02973745 31.9227157 7.62309073 31.7387226 8.45787677 31.7020736 8.60513095 31.6836556 8.791037 31.6836556 8.95780566L31.6836556 10.1997561zM28.8898216 8.06843565C28.8898216 6.88172909 28.8529856 5.88111712 28.81643 5.02841924L31.2428388 5.02841924 31.3710169 6.28903571 31.4079464 6.28903571C32.0696858 5.34366763 33.0991308 4.82469562 34.4041915 4.82469562 36.3709915 4.82469562 38.135287 6.54847458 38.135287 9.43972844 38.135287 12.7386181 36.0583529 14.2954398 34.0550908 14.2954398 32.9703917 14.2954398 32.1246593 13.8508491 31.7203981 13.2578729L31.6836556 13.2578729 31.6836556 17.761381 28.8898216 17.761381 28.8898216 8.06843565zM42.0039379 2.56328806L42.0039379 5.0283344 44.0076674 5.0283344 44.0076674 7.10441097 42.0039379 7.10441097 42.0039379 10.4034892C42.0039379 11.4972427 42.279647 11.9971716 43.106868 11.9971716 43.4928982 11.9971716 43.6767977 11.9785998 43.9339019 11.9232617L43.9526939 14.0543936C43.6031257 14.1843958 42.9231553 14.2954493 42.1510949 14.2954493 41.2502955 14.2954493 40.4967466 13.9803894 40.0371378 13.5175097 39.5225556 12.9802488 39.2652644 12.1086021 39.2652644 10.8292253L39.2652644 7.10441097 38.0705248 7.10441097 38.0705248 5.0283344 39.2652644 5.0283344 39.2652644 3.32322146 42.0039379 2.56328806z"/>
        <polygon fill="#FFFFFF" points="44.645 14.092 47.439 14.092 47.439 5.028 44.645 5.028"/>
        <path fill="#FFFFFF" d="M50.9098201,10.2365885 C50.9098201,10.422306 50.9280511,10.5882262 50.9651676,10.7373659 C51.1486933,11.4790103 51.7920146,12.0719865 52.600724,12.0719865 C53.7958376,12.0719865 54.5309685,11.1450959 54.5309685,9.51426998 C54.5309685,8.10555087 53.9059717,6.99331985 52.600724,6.99331985 C51.8470816,6.99331985 51.1486933,7.56800711 50.9651676,8.38346721 C50.9280511,8.54976451 50.9098201,8.71672172 50.9098201,8.90253349 L50.9098201,10.2365885 Z M48.1157991,3.47665994 L50.9098201,1.69292346 L50.9098201,6.10328993 L50.9465626,6.10328993 C51.4793759,5.32487905 52.4170114,4.82476162 53.6670986,4.82476162 C55.8174242,4.82476162 57.379963,6.62207339 57.361545,9.40236811 C57.361545,12.6652455 55.3211665,14.2955058 53.2626504,14.2955058 C52.2146938,14.2955058 51.1851553,13.9071017 50.5603455,12.83126 L50.5237899,12.83126 L50.4132819,14.0917822 L48.0424076,14.0917822 C48.0793371,13.498806 48.1157991,12.4058067 48.1157991,11.3855859 L48.1157991,3.47665994 Z"/>
        <polygon fill="#FFFFFF" points="57.854 14.092 60.649 14.092 60.649 .933 57.854 .933"/>
        <path fill="#FFFFFF" d="M67.2037913 8.51297925C67.2037913 7.84609315 66.9094771 6.67805261 65.6414394 6.67805261 64.4468868 6.67805261 63.9685796 7.7716176 63.895562 8.51297925L67.2037913 8.51297925zM63.9136995 10.4403875C64.0056961 11.6270941 65.1449947 12.1827383 66.4501489 12.1827383 67.4059219 12.1827383 68.1783563 12.0528303 68.9317182 11.7932029L69.2993304 13.7025108C68.3801129 14.0917634 67.2593258 14.277198 66.0457007 14.277198 62.994482 14.277198 61.2484176 12.497421 61.2484176 9.64359347 61.2484176 7.34475016 62.6822174 4.80607674 65.7884095 4.80607674 68.6925646 4.80607674 69.7956816 7.08531129 69.7956816 9.3282508 69.7956816 9.81111631 69.7403341 10.2365697 69.7037786 10.4591478L63.9136995 10.4403875zM46.0160716 4.13670183C45.1344381 4.13670183 44.5642278 3.50875042 44.5642278 2.72440035 44.5642278 1.92270409 45.1518277 1.31294733 46.0509443 1.31294733 46.9496869 1.31294733 47.5027881 1.92270409 47.5198037 2.72440035 47.5198037 3.50875042 46.9496869 4.13670183 46.0335547 4.13670183L46.0160716 4.13670183zM17.6125041 9.73161602C17.1470988 9.08103912 16.4796564 8.57196577 15.6752477 8.30979299 15.6363548 8.1639529 15.5890476 8.01688726 15.5320173 7.87076435 15.3901893 7.50376017 15.1980623 7.13835862 14.9782617 6.80340721 14.9034677 6.68877143 14.8240927 6.58026338 14.7433152 6.47392362 14.7178853 6.55773218 14.6915204 6.64172928 14.6592655 6.72412375L14.6589851 6.72534929C14.6242059 6.81585122 14.5841911 6.90239369 14.5423065 6.98761634 14.4654557 7.14524054 14.375703 7.29230618 14.2763206 7.43173571 14.178247 7.56984543 14.0723201 7.70079041 13.9538652 7.81825438 13.6517912 8.11766493 13.2917519 8.34194003 12.9045998 8.4951334 12.6461867 8.59770225 12.3756197 8.67048089 12.0957034 8.71837149 11.9571476 8.7419397 11.8230795 8.75768327 11.6925641 8.76975019 11.748753 9.00637503 12.5598932 12.7644677 7.89873515 12.5815784 7.85516768 12.5865748 7.8191731 12.5907228 7.8191731 12.5907228 7.81655531 12.5946823 7.7957065 13.9555108 6.70867014 14.0485581 5.91015138 14.1171887 5.46839969 12.9234117 5.45390837 12.8617573 5.34732701 12.9179439 1.33276249 13.9532483 1.70860202 9.42711474 1.54097011 9.52760959 1.48926881 9.57172928 1.33893299 9.69758353.791160906 10.1548068.366518334 10.7779503.151111798 11.5144098.0493920455 11.8634079.0000280477252 12.216931.0000280477252 12.5641379.000402017405 13.3755443.26554652 14.1526353.734597992 14.7868088 1.20299502 15.4207936 1.87838426 15.9137463 2.69158133 16.1504654 3.04021456 16.2523744 3.39286797 16.3011134 3.73953786 16.3011134 4.55507224 16.3005478 5.33433156 16.0289477 5.9714824 15.5539069 6.16931237 15.8182479 6.39593799 16.061849 6.6561274 16.2734915 7.06263244 16.6039178 7.54140712 16.8602457 8.07403344 17.0156073 8.45155583 17.1260951 8.83337887 17.1780394 9.20903142 17.1780394 10.4147097 17.1777566 11.5515775 16.6371961 12.3152236 15.7231266 12.6046761 15.903282 12.9203065 16.050819 13.2623953 16.1504654L13.2620213 16.1504654C13.617386 16.2537885 13.9771448 16.3035645 14.3318551 16.3035645 15.201802 16.3032817 16.0379982 16.0057566 16.7217083 15.4847106 17.4055119 14.9643245 17.9392601 14.217118 18.2017868 13.318792 18.3183719 12.9209606 18.3741868 12.5186984 18.3741868 12.1245436 18.3737194 11.2497859 18.100628 10.4136801 17.6125041 9.73161602zM12.5964581 3.33782432C11.8686196 3.14758172 10.9680072 3.45368565 10.6655592 3.87527381 10.6163822 3.94352735 10.5640264 4.05476931 10.5804811 4.13113031 10.6573318 4.49040412 11.2310013 4.30110425 11.2319363 4.30110425 12.2232364 4.1193462 12.9225597 5.36864994 11.6827567 5.96737677 10.5045652 6.53612484 9.66575124 5.64920592 9.46259221 5.47131306 9.60311132 5.30407304 9.72773671 5.12099517 9.83431807 4.92453057 10.0986211 4.43751705 10.2507333 3.86876898 10.2507333 3.26099196 10.2507333 1.45990927 8.91855982 0 7.27543054 0 5.63230125 0 4.30012776 1.45990927 4.30012776 3.26099196 4.30012776 3.88592664 4.46093472 4.46975837 4.73907467 4.96582207 4.84612349 5.15681885 4.9706554 5.33395753 5.11023958 5.49620109 5.03423024 5.57095946 3.79068757 6.36935618 2.76329936 5.83341506 2.3656761 5.62582625 2.20711296 5.199713 2.39148001 4.82073616 2.52218241 4.5522471 2.76217745 4.3568195 3.05742652 4.33626802 3.79068757 4.28507786 3.649701 3.77986969 3.37408534 3.63289833 2.95215405 3.40805759 2.54097439 3.39221976 2.08379645 3.51665991 1.15457529 3.76931113.705718183 4.73787033.769666998 5.52693404.855773517 6.59108591 1.31996338 7.43463932 2.30817826 7.78410875 2.96197075 8.01498295 3.63848191 8.04288771 4.32050911 7.92891184 4.55461413 7.89063707 4.78376405 7.82049807 5.01525128 7.76497136 5.0211413 7.77732111 4.44606943 8.13348391 4.15147481 8.29761293 3.8975494 8.43826802 3.62539297 8.55422362 3.38969858 8.71844691 2.90297704 9.05782915 2.63306442 9.52759073 2.6580269 10.1097255 2.68663558 10.7721808 3.00722109 11.3036911 3.57098038 11.6902098 4.02142686 11.9988591 4.51656271 12.1035019 5.05405064 11.9160875 5.69746547 11.6926609 6.09480826 11.1074151 6.03665597 10.4701306 6.0264653 10.3584173 5.99551931 10.2483066 5.86565833 10.2113517 5.74552057 10.1773192 5.65137371 10.2359569 5.58518107 10.3274015 5.5207648 10.4167722 5.46868952 10.5150988 5.4060496 10.6056007 5.27310338 10.7994257 5.07966756 10.8303472 4.89156081 10.6847899 4.72374192 10.5555418 4.63137141 10.3860393 4.67297553 10.1773192 4.71457966 9.96944755 4.85846449 9.8429334 5.07620834 9.79494852 5.46251902 9.71085714 5.85537417 9.64496042 6.23457942 9.53588674 6.98055544 9.32103893 7.50243013 8.86815219 7.74635185 8.14734202 7.75859936 8.11104698 7.78187897 8.0783343 7.79973603 8.04288771 8.12247186 8.24642278 8.40079879 8.60541377 8.5068192 8.94790701 8.66800013 9.4665962 8.4821372 9.86310779 7.98419657 10.1171731 7.6298603 10.2982712 7.27486958 10.4854028 6.9477396 10.7057185 6.38491523 11.0836583 6.27057401 11.5958427 6.3162918 12.2590521 6.37706187 13.1433314 6.8293782 12.9497893 6.8293782 12.9497893 6.9329678 12.9038784 6.99055913 12.7356956 6.9946728 12.5871216 7.00953809 11.9752909 7.29282013 11.6442989 7.8567664 11.5777423 8.06142131 11.5529485 8.27047036 11.5602075 8.47624718 11.538619 9.03262057 11.4817725 9.54879222 11.316795 10.0038198 10.9973044 10.9812831 10.3114694 11.0110137 8.96921268 10.4361288 8.14922748 10.4073331 8.10831306 10.3807813 8.06673874 10.340673 8.00876094 14.861873 7.82228925 14.6113133 3.86405534 12.5964581 3.33782432z"/>
      </g>
    </g>
  </g>
</svg>
