<svg xmlns="http://www.w3.org/2000/svg" width="258" height="178" viewBox="0 0 258 178" xmlns:xlink="http://www.w3.org/1999/xlink">
  <defs>
    <filter id="compliance-achieved-a" width="132.1%" height="123.9%" x="-16%" y="-9.2%" filterUnits="objectBoundingBox">
      <feOffset dy="2" in="SourceAlpha" result="shadowOffsetOuter1"/>
      <feGaussianBlur stdDeviation="2.5" in="shadowOffsetOuter1" result="shadowBlurOuter1"/>
      <feColorMatrix values="0 0 0 0 0 0 0 0 0 0 0 0 0 0 0 0 0 0 0.12035779 0" in="shadowBlurOuter1" result="shadowMatrixOuter1"/>
      <feMerge>
        <feMergeNode in="shadowMatrixOuter1"/>
        <feMergeNode in="SourceGraphic"/>
      </feMerge>
    </filter>
    <text id="compliance-achieved-c" fill="#9E8C3E" font-family="Gibson-SemiBold, Gibson" font-size="8" font-weight="500">
      <tspan x="14.619" y="27.951">HIPAA</tspan>
    </text>
    <filter id="compliance-achieved-b" width="103.8%" height="122.2%" x="-1%" y="-5.6%" filterUnits="objectBoundingBox">
      <feOffset dx="1" dy="1" in="SourceAlpha" result="shadowOffsetOuter1"/>
      <feColorMatrix values="0 0 0 0 0 0 0 0 0 0 0 0 0 0 0 0 0 0 0.0594429348 0" in="shadowOffsetOuter1"/>
    </filter>
    <filter id="compliance-achieved-d" width="132.1%" height="123.9%" x="-16%" y="-9.2%" filterUnits="objectBoundingBox">
      <feOffset dy="2" in="SourceAlpha" result="shadowOffsetOuter1"/>
      <feGaussianBlur stdDeviation="2.5" in="shadowOffsetOuter1" result="shadowBlurOuter1"/>
      <feColorMatrix values="0 0 0 0 0 0 0 0 0 0 0 0 0 0 0 0 0 0 0.12035779 0" in="shadowBlurOuter1" result="shadowMatrixOuter1"/>
      <feMerge>
        <feMergeNode in="shadowMatrixOuter1"/>
        <feMergeNode in="SourceGraphic"/>
      </feMerge>
    </filter>
    <text id="compliance-achieved-f" fill="#9E8C3E" font-family="Gibson-SemiBold, Gibson" font-size="8" font-weight="500">
      <tspan x="19.719" y="27.951">ISO</tspan>
    </text>
    <filter id="compliance-achieved-e" width="103.8%" height="122.2%" x="-1%" y="-5.6%" filterUnits="objectBoundingBox">
      <feOffset dx="1" dy="1" in="SourceAlpha" result="shadowOffsetOuter1"/>
      <feColorMatrix values="0 0 0 0 0 0 0 0 0 0 0 0 0 0 0 0 0 0 0.0594429348 0" in="shadowOffsetOuter1"/>
    </filter>
    <filter id="compliance-achieved-g" width="132.1%" height="123.9%" x="-16%" y="-9.2%" filterUnits="objectBoundingBox">
      <feOffset dy="2" in="SourceAlpha" result="shadowOffsetOuter1"/>
      <feGaussianBlur stdDeviation="2.5" in="shadowOffsetOuter1" result="shadowBlurOuter1"/>
      <feColorMatrix values="0 0 0 0 0 0 0 0 0 0 0 0 0 0 0 0 0 0 0.12035779 0" in="shadowBlurOuter1" result="shadowMatrixOuter1"/>
      <feMerge>
        <feMergeNode in="shadowMatrixOuter1"/>
        <feMergeNode in="SourceGraphic"/>
      </feMerge>
    </filter>
    <text id="compliance-achieved-i" fill="#9E8C3E" font-family="Gibson-SemiBold, Gibson" font-size="8" font-weight="500">
      <tspan x="20.167" y="27.951">PCI</tspan>
    </text>
    <filter id="compliance-achieved-h" width="103.8%" height="122.2%" x="-1%" y="-5.6%" filterUnits="objectBoundingBox">
      <feOffset dx="1" dy="1" in="SourceAlpha" result="shadowOffsetOuter1"/>
      <feColorMatrix values="0 0 0 0 0 0 0 0 0 0 0 0 0 0 0 0 0 0 0.0594429348 0" in="shadowOffsetOuter1"/>
    </filter>
    <filter id="compliance-achieved-j" width="132.1%" height="123.9%" x="-16%" y="-9.2%" filterUnits="objectBoundingBox">
      <feOffset dy="2" in="SourceAlpha" result="shadowOffsetOuter1"/>
      <feGaussianBlur stdDeviation="2.5" in="shadowOffsetOuter1" result="shadowBlurOuter1"/>
      <feColorMatrix values="0 0 0 0 0 0 0 0 0 0 0 0 0 0 0 0 0 0 0.12035779 0" in="shadowBlurOuter1" result="shadowMatrixOuter1"/>
      <feMerge>
        <feMergeNode in="shadowMatrixOuter1"/>
        <feMergeNode in="SourceGraphic"/>
      </feMerge>
    </filter>
    <text id="compliance-achieved-l" fill="#9E8C3E" font-family="Gibson-SemiBold, Gibson" font-size="8" font-weight="500">
      <tspan x="18.271" y="27.951">SOC</tspan>
    </text>
    <filter id="compliance-achieved-k" width="103.8%" height="122.2%" x="-1%" y="-5.6%" filterUnits="objectBoundingBox">
      <feOffset dx="1" dy="1" in="SourceAlpha" result="shadowOffsetOuter1"/>
      <feColorMatrix values="0 0 0 0 0 0 0 0 0 0 0 0 0 0 0 0 0 0 0.0594429348 0" in="shadowOffsetOuter1"/>
    </filter>
  </defs>
  <g fill="none" fill-rule="evenodd" transform="translate(0 -1)">
    <rect width="204.412" height="116.929" x="26.794" y="31.535" stroke="#D2E7FF" stroke-width="3" rx="8"/>
    <polygon fill="#D2E7FF" points="195.799 151.369 191.986 147.562 188.172 151.369 186.535 149.734 191.986 144.293 197.436 149.734"/>
    <polygon fill="#D2E7FF" points="208.446 151.369 204.633 147.562 200.819 151.369 199.182 149.734 204.633 144.293 210.083 149.734"/>
    <g fill="#D2E7FF" transform="rotate(90 -20.797 54.036)">
      <polygon points="7.358 9.979 3.544 6.172 -.269 9.979 -1.906 8.344 3.544 2.903 8.995 8.344"/>
      <polygon points="20.005 9.979 16.191 6.172 12.378 9.979 10.741 8.344 16.191 2.903 21.642 8.344"/>
    </g>
    <g fill="#D2E7FF" transform="matrix(0 -1 -1 0 236.857 69.82)">
      <polygon points="7.358 9.979 3.544 6.172 -.269 9.979 -1.906 8.344 3.544 2.903 8.995 8.344"/>
      <polygon points="20.005 9.979 16.191 6.172 12.378 9.979 10.741 8.344 16.191 2.903 21.642 8.344"/>
    </g>
    <polygon fill="#E5F1FF" points="69.328 163.993 65.515 160.186 61.702 163.993 60.064 162.358 65.515 156.917 70.966 162.358"/>
    <polygon fill="#E5F1FF" points="81.975 163.993 78.162 160.186 74.349 163.993 72.711 162.358 78.162 156.917 83.613 162.358"/>
    <polygon fill="#E5F1FF" points="132.564 22.603 128.75 18.796 124.937 22.603 123.299 20.968 128.75 15.527 134.201 20.968" transform="matrix(-1 0 0 1 257.5 0)"/>
    <polygon fill="#E5F1FF" points="145.211 22.603 141.397 18.796 137.584 22.603 135.947 20.968 141.397 15.527 146.848 20.968" transform="matrix(-1 0 0 1 282.795 0)"/>
    <polygon fill="#EEF6FF" points="94.622 176.617 90.809 172.81 86.996 176.617 85.358 174.983 90.809 169.541 96.26 174.983"/>
    <polygon fill="#EEF6FF" points="107.27 176.617 103.456 172.81 99.643 176.617 98.005 174.983 103.456 169.541 108.907 174.983"/>
    <polygon fill="#EEF6FF" points="56.681 9.979 52.868 6.172 49.055 9.979 47.417 8.344 52.868 2.903 58.319 8.344" transform="matrix(-1 0 0 1 105.736 0)"/>
    <polygon fill="#EEF6FF" points="69.328 9.979 65.515 6.172 61.702 9.979 60.064 8.344 65.515 2.903 70.966 8.344" transform="matrix(-1 0 0 1 131.03 0)"/>
    <rect width="229.706" height="142.177" x="14.147" y="18.911" stroke="#E5F1FF" stroke-width="3" rx="8"/>
    <rect width="255" height="167.426" x="1.5" y="6.287" stroke="#EEF6FF" stroke-width="3" rx="8"/>
    <g transform="translate(16 58)">
      <g filter="url(#compliance-achieved-a)">
        <polygon fill="#2ECC71" points="26.234 33.897 9.742 33.897 9.742 70.945 25.824 64.003 26.234 64.176"/>
        <polygon fill="#27AE60" points="25.964 33.897 25.964 64.062 42.186 70.945 42.186 33.897"/>
        <path fill="#EAD57D" d="M48.0897263,32.0333624 C48.867591,29.6500727 52.4527447,27.604947 52.4527447,24.9633935 C52.4527447,23.0280299 50.5295774,21.4122676 49.1944727,19.748888 C48.9560032,19.7755214 48.7142892,19.7916629 48.4677085,19.7916629 C45.0342344,19.7916629 41.8303075,16.850685 41.9722537,13.3286137 C41.9892872,12.9121635 42.0428212,12.5215397 42.1077108,12.1357583 C41.8303075,11.969501 41.5561487,11.7975942 41.269012,11.6450572 C38.7813047,10.3222628 37.6798027,7.36191515 38.2151424,4.72197587 C37.0592954,2.95206244 36.1151508,0.714853119 34.3323074,0.139409308 C31.937879,-0.634574725 28.880765,2.097371 26.2267779,2.097371 C23.5727909,2.097371 20.5156768,-0.635381799 18.1204373,0.13779516 C15.6375967,0.940026785 14.7842977,4.96409809 12.7183732,6.46041342 C10.6313595,7.97125608 6.52627745,7.54673512 5.00785943,9.6233367 C3.50404158,11.6789544 5.16927246,15.4245851 4.36301844,17.8950388 C3.58596478,20.2783286 0,22.3226472 0,24.9633935 C0,27.6041399 3.58515366,29.6500727 4.36301844,32.0333624 C4.97622572,33.9122308 4.16104938,36.5303791 4.39870776,38.5811543 C6.21967381,37.9314597 8.3156098,38.0355722 9.97516282,39.0339229 C10.6070259,39.2074438 11.2234776,39.4737782 11.79694,39.7619037 C12.6997174,40.2170934 13.5359829,40.8716305 14.2303022,41.6028396 C15.1460575,42.5689073 16.244315,43.3194862 17.1665593,44.2702194 C18.663077,45.8117309 19.2714176,47.9286862 18.9502138,49.9197379 C21.1962071,49.9762331 23.8680388,47.8310302 26.2243446,47.8310302 C28.8783316,47.8310302 31.9362568,50.5613618 34.3306852,49.7873778 C36.8127147,48.9867603 37.6660137,44.9618819 39.7319382,43.4647595 C41.8181407,41.9547239 45.9232228,42.3800519 47.4424519,40.3042574 C48.9487031,38.2478327 47.2834722,34.5013949 48.0897263,32.0333624 L48.0897263,32.0333624 Z"/>
        <path d="M15.1436461,25.0192961 C15.1436461,25.7085374 15.2150247,26.380023 15.3366928,27.032946 L28.2586573,14.1786772 C27.6000273,14.0576161 26.9243637,13.9865936 26.2316666,13.9865936 C20.107705,13.9865936 15.1436461,18.9258869 15.1436461,25.0192961 L15.1436461,25.0192961 Z"/>
        <path fill="#D6C169" d="M15.1436461 25.0192961C15.1436461 18.9258869 20.107705 13.9865936 26.2316666 13.9865936 26.9243637 13.9865936 27.6008384 14.0576161 28.2586573 14.1786772L33.1959492 9.26682446C31.0635128 8.33223269 28.7112627 7.80440625 26.2316666 7.80440625 16.6766643 7.80440625 8.93046125 15.5119636 8.93046125 25.0192961 8.93046125 27.4849074 9.46012309 29.8246152 10.3994009 31.9456058L15.337504 27.032946C15.2150247 26.380023 15.1436461 25.7085374 15.1436461 25.0192961L15.1436461 25.0192961zM43.4988048 25.6802898L26.8911077 42.201096C35.9148259 41.8621249 43.1548896 34.6597959 43.4988048 25.6802898L43.4988048 25.6802898z"/>
        <path fill="#FFEF97" d="M43.5328719 25.0192961C43.5328719 25.2428557 43.5085383 25.4591515 43.4988048 25.6802898L49.2837179 19.9266588C48.7646006 19.2801924 48.310373 18.6272695 48.0913704 17.9493273 47.2883609 15.4788736 48.9511584 11.734857 47.4505851 9.67681809 45.9337893 7.60263773 41.8287072 8.03038699 39.7360157 6.52115848 39.0717078 6.03691404 38.5282569 5.28633515 38.0172509 4.47119034L33.1959492 9.26682446C39.2801659 11.9342043 43.5328719 17.979189 43.5328719 25.0192961L43.5328719 25.0192961zM26.2316666 36.0511916C32.3556281 36.0511916 37.319687 31.1118983 37.319687 25.0192961 37.319687 19.6159353 33.4133296 15.1277964 28.2586573 14.1786772L15.3366928 27.032946C16.2889486 32.1635158 20.799591 36.0511916 26.2316666 36.0511916L26.2316666 36.0511916zM10.3985898 31.9456058L4.35492917 37.9575006C4.37115158 38.8606164 4.53337573 39.7007805 5.01193697 40.3617742 6.52873275 42.4359546 10.6330037 42.0090124 12.7256952 43.5255046 14.7859418 45.0202057 15.6457298 49.0378204 18.1277593 49.8448945 18.4359852 49.9425505 18.744211 49.9820971 19.0686593 49.9820971L26.8911077 42.201096C26.6704829 42.2091667 26.4539137 42.234186 26.2316666 42.234186 19.1546381 42.234186 13.0793438 38.0010826 10.3985898 31.9456058L10.3985898 31.9456058z"/>
        <path fill="#EBDB83" d="M43.5328719,25.0192961 C43.5328719,17.979189 39.2801659,11.9342043 33.1959492,9.26682446 L28.2586573,14.1786772 C33.4133296,15.1277964 37.319687,19.6159353 37.319687,25.0192961 C37.319687,31.1127054 32.3556281,36.0511916 26.2316666,36.0511916 C20.799591,36.0511916 16.2889486,32.1627087 15.3366928,27.032946 L10.3985898,31.9456058 C13.0793438,38.0010826 19.1546381,42.234186 26.2316666,42.234186 C26.4539137,42.234186 26.6704829,42.2091667 26.8911077,42.201096 L43.4988048,25.6810969 C43.5085383,25.4591515 43.5328719,25.2428557 43.5328719,25.0192961 L43.5328719,25.0192961 Z"/>
      </g>
      <g fill="#9E8C3E">
        <use filter="url(#compliance-achieved-b)" xlink:href="#compliance-achieved-c"/>
        <use xlink:href="#compliance-achieved-c"/>
      </g>
      <g transform="translate(58.29)">
        <g filter="url(#compliance-achieved-d)">
          <polygon fill="#307AD1" points="26.234 33.897 9.742 33.897 9.742 70.945 25.824 64.003 26.234 64.176"/>
          <polygon fill="#1D6CC8" points="25.964 33.897 25.964 64.062 42.186 70.945 42.186 33.897"/>
          <path fill="#EAD57D" d="M48.0897263,32.0333624 C48.867591,29.6500727 52.4527447,27.604947 52.4527447,24.9633935 C52.4527447,23.0280299 50.5295774,21.4122676 49.1944727,19.748888 C48.9560032,19.7755214 48.7142892,19.7916629 48.4677085,19.7916629 C45.0342344,19.7916629 41.8303075,16.850685 41.9722537,13.3286137 C41.9892872,12.9121635 42.0428212,12.5215397 42.1077108,12.1357583 C41.8303075,11.969501 41.5561487,11.7975942 41.269012,11.6450572 C38.7813047,10.3222628 37.6798027,7.36191515 38.2151424,4.72197587 C37.0592954,2.95206244 36.1151508,0.714853119 34.3323074,0.139409308 C31.937879,-0.634574725 28.880765,2.097371 26.2267779,2.097371 C23.5727909,2.097371 20.5156768,-0.635381799 18.1204373,0.13779516 C15.6375967,0.940026785 14.7842977,4.96409809 12.7183732,6.46041342 C10.6313595,7.97125608 6.52627745,7.54673512 5.00785943,9.6233367 C3.50404158,11.6789544 5.16927246,15.4245851 4.36301844,17.8950388 C3.58596478,20.2783286 0,22.3226472 0,24.9633935 C0,27.6041399 3.58515366,29.6500727 4.36301844,32.0333624 C4.97622572,33.9122308 4.16104938,36.5303791 4.39870776,38.5811543 C6.21967381,37.9314597 8.3156098,38.0355722 9.97516282,39.0339229 C10.6070259,39.2074438 11.2234776,39.4737782 11.79694,39.7619037 C12.6997174,40.2170934 13.5359829,40.8716305 14.2303022,41.6028396 C15.1460575,42.5689073 16.244315,43.3194862 17.1665593,44.2702194 C18.663077,45.8117309 19.2714176,47.9286862 18.9502138,49.9197379 C21.1962071,49.9762331 23.8680388,47.8310302 26.2243446,47.8310302 C28.8783316,47.8310302 31.9362568,50.5613618 34.3306852,49.7873778 C36.8127147,48.9867603 37.6660137,44.9618819 39.7319382,43.4647595 C41.8181407,41.9547239 45.9232228,42.3800519 47.4424519,40.3042574 C48.9487031,38.2478327 47.2834722,34.5013949 48.0897263,32.0333624 L48.0897263,32.0333624 Z"/>
          <path d="M15.1436461,25.0192961 C15.1436461,25.7085374 15.2150247,26.380023 15.3366928,27.032946 L28.2586573,14.1786772 C27.6000273,14.0576161 26.9243637,13.9865936 26.2316666,13.9865936 C20.107705,13.9865936 15.1436461,18.9258869 15.1436461,25.0192961 L15.1436461,25.0192961 Z"/>
          <path fill="#D6C169" d="M15.1436461 25.0192961C15.1436461 18.9258869 20.107705 13.9865936 26.2316666 13.9865936 26.9243637 13.9865936 27.6008384 14.0576161 28.2586573 14.1786772L33.1959492 9.26682446C31.0635128 8.33223269 28.7112627 7.80440625 26.2316666 7.80440625 16.6766643 7.80440625 8.93046125 15.5119636 8.93046125 25.0192961 8.93046125 27.4849074 9.46012309 29.8246152 10.3994009 31.9456058L15.337504 27.032946C15.2150247 26.380023 15.1436461 25.7085374 15.1436461 25.0192961L15.1436461 25.0192961zM43.4988048 25.6802898L26.8911077 42.201096C35.9148259 41.8621249 43.1548896 34.6597959 43.4988048 25.6802898L43.4988048 25.6802898z"/>
          <path fill="#FFEF97" d="M43.5328719 25.0192961C43.5328719 25.2428557 43.5085383 25.4591515 43.4988048 25.6802898L49.2837179 19.9266588C48.7646006 19.2801924 48.310373 18.6272695 48.0913704 17.9493273 47.2883609 15.4788736 48.9511584 11.734857 47.4505851 9.67681809 45.9337893 7.60263773 41.8287072 8.03038699 39.7360157 6.52115848 39.0717078 6.03691404 38.5282569 5.28633515 38.0172509 4.47119034L33.1959492 9.26682446C39.2801659 11.9342043 43.5328719 17.979189 43.5328719 25.0192961L43.5328719 25.0192961zM26.2316666 36.0511916C32.3556281 36.0511916 37.319687 31.1118983 37.319687 25.0192961 37.319687 19.6159353 33.4133296 15.1277964 28.2586573 14.1786772L15.3366928 27.032946C16.2889486 32.1635158 20.799591 36.0511916 26.2316666 36.0511916L26.2316666 36.0511916zM10.3985898 31.9456058L4.35492917 37.9575006C4.37115158 38.8606164 4.53337573 39.7007805 5.01193697 40.3617742 6.52873275 42.4359546 10.6330037 42.0090124 12.7256952 43.5255046 14.7859418 45.0202057 15.6457298 49.0378204 18.1277593 49.8448945 18.4359852 49.9425505 18.744211 49.9820971 19.0686593 49.9820971L26.8911077 42.201096C26.6704829 42.2091667 26.4539137 42.234186 26.2316666 42.234186 19.1546381 42.234186 13.0793438 38.0010826 10.3985898 31.9456058L10.3985898 31.9456058z"/>
          <path fill="#EBDB83" d="M43.5328719,25.0192961 C43.5328719,17.979189 39.2801659,11.9342043 33.1959492,9.26682446 L28.2586573,14.1786772 C33.4133296,15.1277964 37.319687,19.6159353 37.319687,25.0192961 C37.319687,31.1127054 32.3556281,36.0511916 26.2316666,36.0511916 C20.799591,36.0511916 16.2889486,32.1627087 15.3366928,27.032946 L10.3985898,31.9456058 C13.0793438,38.0010826 19.1546381,42.234186 26.2316666,42.234186 C26.4539137,42.234186 26.6704829,42.2091667 26.8911077,42.201096 L43.4988048,25.6810969 C43.5085383,25.4591515 43.5328719,25.2428557 43.5328719,25.0192961 L43.5328719,25.0192961 Z"/>
        </g>
        <g fill="#9E8C3E">
          <use filter="url(#compliance-achieved-e)" xlink:href="#compliance-achieved-f"/>
          <use xlink:href="#compliance-achieved-f"/>
        </g>
      </g>
      <g transform="translate(115.415)">
        <g filter="url(#compliance-achieved-g)">
          <polygon fill="#EB5B5B" points="26.234 33.897 9.742 33.897 9.742 70.945 25.824 64.003 26.234 64.176"/>
          <polygon fill="#D74444" points="25.964 33.897 25.964 64.062 42.186 70.945 42.186 33.897"/>
          <path fill="#EAD57D" d="M48.0897263,32.0333624 C48.867591,29.6500727 52.4527447,27.604947 52.4527447,24.9633935 C52.4527447,23.0280299 50.5295774,21.4122676 49.1944727,19.748888 C48.9560032,19.7755214 48.7142892,19.7916629 48.4677085,19.7916629 C45.0342344,19.7916629 41.8303075,16.850685 41.9722537,13.3286137 C41.9892872,12.9121635 42.0428212,12.5215397 42.1077108,12.1357583 C41.8303075,11.969501 41.5561487,11.7975942 41.269012,11.6450572 C38.7813047,10.3222628 37.6798027,7.36191515 38.2151424,4.72197587 C37.0592954,2.95206244 36.1151508,0.714853119 34.3323074,0.139409308 C31.937879,-0.634574725 28.880765,2.097371 26.2267779,2.097371 C23.5727909,2.097371 20.5156768,-0.635381799 18.1204373,0.13779516 C15.6375967,0.940026785 14.7842977,4.96409809 12.7183732,6.46041342 C10.6313595,7.97125608 6.52627745,7.54673512 5.00785943,9.6233367 C3.50404158,11.6789544 5.16927246,15.4245851 4.36301844,17.8950388 C3.58596478,20.2783286 0,22.3226472 0,24.9633935 C0,27.6041399 3.58515366,29.6500727 4.36301844,32.0333624 C4.97622572,33.9122308 4.16104938,36.5303791 4.39870776,38.5811543 C6.21967381,37.9314597 8.3156098,38.0355722 9.97516282,39.0339229 C10.6070259,39.2074438 11.2234776,39.4737782 11.79694,39.7619037 C12.6997174,40.2170934 13.5359829,40.8716305 14.2303022,41.6028396 C15.1460575,42.5689073 16.244315,43.3194862 17.1665593,44.2702194 C18.663077,45.8117309 19.2714176,47.9286862 18.9502138,49.9197379 C21.1962071,49.9762331 23.8680388,47.8310302 26.2243446,47.8310302 C28.8783316,47.8310302 31.9362568,50.5613618 34.3306852,49.7873778 C36.8127147,48.9867603 37.6660137,44.9618819 39.7319382,43.4647595 C41.8181407,41.9547239 45.9232228,42.3800519 47.4424519,40.3042574 C48.9487031,38.2478327 47.2834722,34.5013949 48.0897263,32.0333624 L48.0897263,32.0333624 Z"/>
          <path d="M15.1436461,25.0192961 C15.1436461,25.7085374 15.2150247,26.380023 15.3366928,27.032946 L28.2586573,14.1786772 C27.6000273,14.0576161 26.9243637,13.9865936 26.2316666,13.9865936 C20.107705,13.9865936 15.1436461,18.9258869 15.1436461,25.0192961 L15.1436461,25.0192961 Z"/>
          <path fill="#D6C169" d="M15.1436461 25.0192961C15.1436461 18.9258869 20.107705 13.9865936 26.2316666 13.9865936 26.9243637 13.9865936 27.6008384 14.0576161 28.2586573 14.1786772L33.1959492 9.26682446C31.0635128 8.33223269 28.7112627 7.80440625 26.2316666 7.80440625 16.6766643 7.80440625 8.93046125 15.5119636 8.93046125 25.0192961 8.93046125 27.4849074 9.46012309 29.8246152 10.3994009 31.9456058L15.337504 27.032946C15.2150247 26.380023 15.1436461 25.7085374 15.1436461 25.0192961L15.1436461 25.0192961zM43.4988048 25.6802898L26.8911077 42.201096C35.9148259 41.8621249 43.1548896 34.6597959 43.4988048 25.6802898L43.4988048 25.6802898z"/>
          <path fill="#FFEF97" d="M43.5328719 25.0192961C43.5328719 25.2428557 43.5085383 25.4591515 43.4988048 25.6802898L49.2837179 19.9266588C48.7646006 19.2801924 48.310373 18.6272695 48.0913704 17.9493273 47.2883609 15.4788736 48.9511584 11.734857 47.4505851 9.67681809 45.9337893 7.60263773 41.8287072 8.03038699 39.7360157 6.52115848 39.0717078 6.03691404 38.5282569 5.28633515 38.0172509 4.47119034L33.1959492 9.26682446C39.2801659 11.9342043 43.5328719 17.979189 43.5328719 25.0192961L43.5328719 25.0192961zM26.2316666 36.0511916C32.3556281 36.0511916 37.319687 31.1118983 37.319687 25.0192961 37.319687 19.6159353 33.4133296 15.1277964 28.2586573 14.1786772L15.3366928 27.032946C16.2889486 32.1635158 20.799591 36.0511916 26.2316666 36.0511916L26.2316666 36.0511916zM10.3985898 31.9456058L4.35492917 37.9575006C4.37115158 38.8606164 4.53337573 39.7007805 5.01193697 40.3617742 6.52873275 42.4359546 10.6330037 42.0090124 12.7256952 43.5255046 14.7859418 45.0202057 15.6457298 49.0378204 18.1277593 49.8448945 18.4359852 49.9425505 18.744211 49.9820971 19.0686593 49.9820971L26.8911077 42.201096C26.6704829 42.2091667 26.4539137 42.234186 26.2316666 42.234186 19.1546381 42.234186 13.0793438 38.0010826 10.3985898 31.9456058L10.3985898 31.9456058z"/>
          <path fill="#EBDB83" d="M43.5328719,25.0192961 C43.5328719,17.979189 39.2801659,11.9342043 33.1959492,9.26682446 L28.2586573,14.1786772 C33.4133296,15.1277964 37.319687,19.6159353 37.319687,25.0192961 C37.319687,31.1127054 32.3556281,36.0511916 26.2316666,36.0511916 C20.799591,36.0511916 16.2889486,32.1627087 15.3366928,27.032946 L10.3985898,31.9456058 C13.0793438,38.0010826 19.1546381,42.234186 26.2316666,42.234186 C26.4539137,42.234186 26.6704829,42.2091667 26.8911077,42.201096 L43.4988048,25.6810969 C43.5085383,25.4591515 43.5328719,25.2428557 43.5328719,25.0192961 L43.5328719,25.0192961 Z"/>
        </g>
        <g fill="#9E8C3E">
          <use filter="url(#compliance-achieved-h)" xlink:href="#compliance-achieved-i"/>
          <use xlink:href="#compliance-achieved-i"/>
        </g>
      </g>
      <g transform="translate(172.539)">
        <g filter="url(#compliance-achieved-j)">
          <polygon fill="#D55BEB" points="26.234 33.897 9.742 33.897 9.742 70.945 25.824 64.003 26.234 64.176"/>
          <polygon fill="#BA37D2" points="25.964 33.897 25.964 64.062 42.186 70.945 42.186 33.897"/>
          <path fill="#EAD57D" d="M48.0897263,32.0333624 C48.867591,29.6500727 52.4527447,27.604947 52.4527447,24.9633935 C52.4527447,23.0280299 50.5295774,21.4122676 49.1944727,19.748888 C48.9560032,19.7755214 48.7142892,19.7916629 48.4677085,19.7916629 C45.0342344,19.7916629 41.8303075,16.850685 41.9722537,13.3286137 C41.9892872,12.9121635 42.0428212,12.5215397 42.1077108,12.1357583 C41.8303075,11.969501 41.5561487,11.7975942 41.269012,11.6450572 C38.7813047,10.3222628 37.6798027,7.36191515 38.2151424,4.72197587 C37.0592954,2.95206244 36.1151508,0.714853119 34.3323074,0.139409308 C31.937879,-0.634574725 28.880765,2.097371 26.2267779,2.097371 C23.5727909,2.097371 20.5156768,-0.635381799 18.1204373,0.13779516 C15.6375967,0.940026785 14.7842977,4.96409809 12.7183732,6.46041342 C10.6313595,7.97125608 6.52627745,7.54673512 5.00785943,9.6233367 C3.50404158,11.6789544 5.16927246,15.4245851 4.36301844,17.8950388 C3.58596478,20.2783286 0,22.3226472 0,24.9633935 C0,27.6041399 3.58515366,29.6500727 4.36301844,32.0333624 C4.97622572,33.9122308 4.16104938,36.5303791 4.39870776,38.5811543 C6.21967381,37.9314597 8.3156098,38.0355722 9.97516282,39.0339229 C10.6070259,39.2074438 11.2234776,39.4737782 11.79694,39.7619037 C12.6997174,40.2170934 13.5359829,40.8716305 14.2303022,41.6028396 C15.1460575,42.5689073 16.244315,43.3194862 17.1665593,44.2702194 C18.663077,45.8117309 19.2714176,47.9286862 18.9502138,49.9197379 C21.1962071,49.9762331 23.8680388,47.8310302 26.2243446,47.8310302 C28.8783316,47.8310302 31.9362568,50.5613618 34.3306852,49.7873778 C36.8127147,48.9867603 37.6660137,44.9618819 39.7319382,43.4647595 C41.8181407,41.9547239 45.9232228,42.3800519 47.4424519,40.3042574 C48.9487031,38.2478327 47.2834722,34.5013949 48.0897263,32.0333624 L48.0897263,32.0333624 Z"/>
          <path d="M15.1436461,25.0192961 C15.1436461,25.7085374 15.2150247,26.380023 15.3366928,27.032946 L28.2586573,14.1786772 C27.6000273,14.0576161 26.9243637,13.9865936 26.2316666,13.9865936 C20.107705,13.9865936 15.1436461,18.9258869 15.1436461,25.0192961 L15.1436461,25.0192961 Z"/>
          <path fill="#D6C169" d="M15.1436461 25.0192961C15.1436461 18.9258869 20.107705 13.9865936 26.2316666 13.9865936 26.9243637 13.9865936 27.6008384 14.0576161 28.2586573 14.1786772L33.1959492 9.26682446C31.0635128 8.33223269 28.7112627 7.80440625 26.2316666 7.80440625 16.6766643 7.80440625 8.93046125 15.5119636 8.93046125 25.0192961 8.93046125 27.4849074 9.46012309 29.8246152 10.3994009 31.9456058L15.337504 27.032946C15.2150247 26.380023 15.1436461 25.7085374 15.1436461 25.0192961L15.1436461 25.0192961zM43.4988048 25.6802898L26.8911077 42.201096C35.9148259 41.8621249 43.1548896 34.6597959 43.4988048 25.6802898L43.4988048 25.6802898z"/>
          <path fill="#FFEF97" d="M43.5328719 25.0192961C43.5328719 25.2428557 43.5085383 25.4591515 43.4988048 25.6802898L49.2837179 19.9266588C48.7646006 19.2801924 48.310373 18.6272695 48.0913704 17.9493273 47.2883609 15.4788736 48.9511584 11.734857 47.4505851 9.67681809 45.9337893 7.60263773 41.8287072 8.03038699 39.7360157 6.52115848 39.0717078 6.03691404 38.5282569 5.28633515 38.0172509 4.47119034L33.1959492 9.26682446C39.2801659 11.9342043 43.5328719 17.979189 43.5328719 25.0192961L43.5328719 25.0192961zM26.2316666 36.0511916C32.3556281 36.0511916 37.319687 31.1118983 37.319687 25.0192961 37.319687 19.6159353 33.4133296 15.1277964 28.2586573 14.1786772L15.3366928 27.032946C16.2889486 32.1635158 20.799591 36.0511916 26.2316666 36.0511916L26.2316666 36.0511916zM10.3985898 31.9456058L4.35492917 37.9575006C4.37115158 38.8606164 4.53337573 39.7007805 5.01193697 40.3617742 6.52873275 42.4359546 10.6330037 42.0090124 12.7256952 43.5255046 14.7859418 45.0202057 15.6457298 49.0378204 18.1277593 49.8448945 18.4359852 49.9425505 18.744211 49.9820971 19.0686593 49.9820971L26.8911077 42.201096C26.6704829 42.2091667 26.4539137 42.234186 26.2316666 42.234186 19.1546381 42.234186 13.0793438 38.0010826 10.3985898 31.9456058L10.3985898 31.9456058z"/>
          <path fill="#EBDB83" d="M43.5328719,25.0192961 C43.5328719,17.979189 39.2801659,11.9342043 33.1959492,9.26682446 L28.2586573,14.1786772 C33.4133296,15.1277964 37.319687,19.6159353 37.319687,25.0192961 C37.319687,31.1127054 32.3556281,36.0511916 26.2316666,36.0511916 C20.799591,36.0511916 16.2889486,32.1627087 15.3366928,27.032946 L10.3985898,31.9456058 C13.0793438,38.0010826 19.1546381,42.234186 26.2316666,42.234186 C26.4539137,42.234186 26.6704829,42.2091667 26.8911077,42.201096 L43.4988048,25.6810969 C43.5085383,25.4591515 43.5328719,25.2428557 43.5328719,25.0192961 L43.5328719,25.0192961 Z"/>
        </g>
        <g fill="#9E8C3E">
          <use filter="url(#compliance-achieved-k)" xlink:href="#compliance-achieved-l"/>
          <use xlink:href="#compliance-achieved-l"/>
        </g>
      </g>
    </g>
  </g>
</svg>
