<svg xmlns="http://www.w3.org/2000/svg" width="258" height="178" viewBox="0 0 258 178">
  <g fill="none" fill-rule="evenodd" transform="translate(1 -1)">
    <rect width="204.412" height="116.929" x="25.794" y="31.535" stroke="#D2E7FF" stroke-width="3" rx="8"/>
    <g fill="#D2E7FF" fill-rule="nonzero" transform="translate(187 143)">
      <polygon points="7.799 8.989 3.986 5.182 .172 8.989 -1.465 7.354 3.986 1.913 9.436 7.354" transform="rotate(-90 3.986 5.45)"/>
      <polygon points="20.446 8.989 16.633 5.182 12.819 8.989 11.182 7.354 16.633 1.913 22.083 7.354" transform="rotate(-90 16.633 5.45)"/>
    </g>
    <g fill="#D2E7FF" fill-rule="nonzero" transform="matrix(0 -1 -1 0 235.857 69.82)">
      <polygon points="7.358 9.444 3.544 5.638 -.269 9.444 -1.906 7.81 3.544 2.369 8.995 7.81" transform="rotate(-90 3.544 5.907)"/>
      <polygon points="20.005 9.444 16.191 5.638 12.378 9.444 10.741 7.81 16.191 2.369 21.642 7.81" transform="rotate(-90 16.191 5.907)"/>
    </g>
    <g fill="#E5F1FF" fill-rule="nonzero" transform="translate(60 155)">
      <polygon points="8.328 9.489 4.515 5.682 .702 9.489 -.936 7.854 4.515 2.413 9.966 7.854" transform="rotate(-90 4.515 5.95)"/>
      <polygon points="20.975 9.489 17.162 5.682 13.349 9.489 11.711 7.854 17.162 2.413 22.613 7.854" transform="rotate(-90 17.162 5.95)"/>
    </g>
    <g fill="#E5F1FF" fill-rule="nonzero" transform="translate(122 13)">
      <polygon points="9.564 9.603 5.75 5.796 1.937 9.603 .299 7.968 5.75 2.527 11.201 7.968" transform="matrix(0 -1 -1 0 11.815 11.815)"/>
      <polygon points="22.211 9.603 18.397 5.796 14.584 9.603 12.947 7.968 18.397 2.527 23.848 7.968" transform="matrix(0 -1 -1 0 24.462 24.462)"/>
    </g>
    <g fill="#EEF6FF" fill-rule="nonzero" transform="translate(86 167.5)">
      <polygon points="7.622 9.617 3.809 5.81 -.004 9.617 -1.642 7.983 3.809 2.541 9.26 7.983" transform="rotate(-90 3.81 6.08)"/>
      <polygon points="20.27 9.617 16.456 5.81 12.643 9.617 11.005 7.983 16.456 2.541 21.907 7.983" transform="rotate(-90 16.456 6.08)"/>
    </g>
    <g fill="#EEF6FF" fill-rule="nonzero" transform="translate(46)">
      <polygon points="9.681 9.979 5.868 6.172 2.055 9.979 .417 8.344 5.868 2.903 11.319 8.344" transform="matrix(0 -1 -1 0 12.309 12.309)"/>
      <polygon points="22.328 9.979 18.515 6.172 14.702 9.979 13.064 8.344 18.515 2.903 23.966 8.344" transform="matrix(0 -1 -1 0 24.956 24.956)"/>
    </g>
    <rect width="229.706" height="142.177" x="13.147" y="18.911" stroke="#E5F1FF" stroke-width="3" rx="8"/>
    <rect width="255" height="167.426" x=".5" y="6.287" stroke="#EEF6FF" stroke-width="3" rx="8"/>
    <g transform="translate(15 58)">
      <polygon fill="#2ECC71" fill-rule="nonzero" points="26.234 33.897 9.742 33.897 9.742 70.945 25.824 64.003 26.234 64.176"/>
      <polygon fill="#27AE60" fill-rule="nonzero" points="25.964 33.897 25.964 64.062 42.186 70.945 42.186 33.897"/>
      <path fill="#EAD57D" fill-rule="nonzero" d="M48.0897263,32.0333624 C48.867591,29.6500727 52.4527447,27.604947 52.4527447,24.9633935 C52.4527447,23.0280299 50.5295774,21.4122676 49.1944727,19.748888 C48.9560032,19.7755214 48.7142892,19.7916629 48.4677085,19.7916629 C45.0342344,19.7916629 41.8303075,16.850685 41.9722537,13.3286137 C41.9892872,12.9121635 42.0428212,12.5215397 42.1077108,12.1357583 C41.8303075,11.969501 41.5561487,11.7975942 41.269012,11.6450572 C38.7813047,10.3222628 37.6798027,7.36191515 38.2151424,4.72197587 C37.0592954,2.95206244 36.1151508,0.714853119 34.3323074,0.139409308 C31.937879,-0.634574725 28.880765,2.097371 26.2267779,2.097371 C23.5727909,2.097371 20.5156768,-0.635381799 18.1204373,0.13779516 C15.6375967,0.940026785 14.7842977,4.96409809 12.7183732,6.46041342 C10.6313595,7.97125608 6.52627745,7.54673512 5.00785943,9.6233367 C3.50404158,11.6789544 5.16927246,15.4245851 4.36301844,17.8950388 C3.58596478,20.2783286 0,22.3226472 0,24.9633935 C0,27.6041399 3.58515366,29.6500727 4.36301844,32.0333624 C4.97622572,33.9122308 4.16104938,36.5303791 4.39870776,38.5811543 C6.21967381,37.9314597 8.3156098,38.0355722 9.97516282,39.0339229 C10.6070259,39.2074438 11.2234776,39.4737782 11.79694,39.7619037 C12.6997174,40.2170934 13.5359829,40.8716305 14.2303022,41.6028396 C15.1460575,42.5689073 16.244315,43.3194862 17.1665593,44.2702194 C18.663077,45.8117309 19.2714176,47.9286862 18.9502138,49.9197379 C21.1962071,49.9762331 23.8680388,47.8310302 26.2243446,47.8310302 C28.8783316,47.8310302 31.9362568,50.5613618 34.3306852,49.7873778 C36.8127147,48.9867603 37.6660137,44.9618819 39.7319382,43.4647595 C41.8181407,41.9547239 45.9232228,42.3800519 47.4424519,40.3042574 C48.9487031,38.2478327 47.2834722,34.5013949 48.0897263,32.0333624 L48.0897263,32.0333624 Z"/>
      <path d="M15.1436461,25.0192961 C15.1436461,25.7085374 15.2150247,26.380023 15.3366928,27.032946 L28.2586573,14.1786772 C27.6000273,14.0576161 26.9243637,13.9865936 26.2316666,13.9865936 C20.107705,13.9865936 15.1436461,18.9258869 15.1436461,25.0192961 L15.1436461,25.0192961 Z"/>
      <path fill="#D6C169" fill-rule="nonzero" d="M15.1436461 25.0192961C15.1436461 18.9258869 20.107705 13.9865936 26.2316666 13.9865936 26.9243637 13.9865936 27.6008384 14.0576161 28.2586573 14.1786772L33.1959492 9.26682446C31.0635128 8.33223269 28.7112627 7.80440625 26.2316666 7.80440625 16.6766643 7.80440625 8.93046125 15.5119636 8.93046125 25.0192961 8.93046125 27.4849074 9.46012309 29.8246152 10.3994009 31.9456058L15.337504 27.032946C15.2150247 26.380023 15.1436461 25.7085374 15.1436461 25.0192961L15.1436461 25.0192961zM43.4988048 25.6802898L26.8911077 42.201096C35.9148259 41.8621249 43.1548896 34.6597959 43.4988048 25.6802898L43.4988048 25.6802898z"/>
      <path fill="#FFEF97" fill-rule="nonzero" d="M43.5328719 25.0192961C43.5328719 25.2428557 43.5085383 25.4591515 43.4988048 25.6802898L49.2837179 19.9266588C48.7646006 19.2801924 48.310373 18.6272695 48.0913704 17.9493273 47.2883609 15.4788736 48.9511584 11.734857 47.4505851 9.67681809 45.9337893 7.60263773 41.8287072 8.03038699 39.7360157 6.52115848 39.0717078 6.03691404 38.5282569 5.28633515 38.0172509 4.47119034L33.1959492 9.26682446C39.2801659 11.9342043 43.5328719 17.979189 43.5328719 25.0192961L43.5328719 25.0192961zM26.2316666 36.0511916C32.3556281 36.0511916 37.319687 31.1118983 37.319687 25.0192961 37.319687 19.6159353 33.4133296 15.1277964 28.2586573 14.1786772L15.3366928 27.032946C16.2889486 32.1635158 20.799591 36.0511916 26.2316666 36.0511916L26.2316666 36.0511916zM10.3985898 31.9456058L4.35492917 37.9575006C4.37115158 38.8606164 4.53337573 39.7007805 5.01193697 40.3617742 6.52873275 42.4359546 10.6330037 42.0090124 12.7256952 43.5255046 14.7859418 45.0202057 15.6457298 49.0378204 18.1277593 49.8448945 18.4359852 49.9425505 18.744211 49.9820971 19.0686593 49.9820971L26.8911077 42.201096C26.6704829 42.2091667 26.4539137 42.234186 26.2316666 42.234186 19.1546381 42.234186 13.0793438 38.0010826 10.3985898 31.9456058L10.3985898 31.9456058z"/>
      <path fill="#EBDB83" fill-rule="nonzero" d="M43.5328719,25.0192961 C43.5328719,17.979189 39.2801659,11.9342043 33.1959492,9.26682446 L28.2586573,14.1786772 C33.4133296,15.1277964 37.319687,19.6159353 37.319687,25.0192961 C37.319687,31.1127054 32.3556281,36.0511916 26.2316666,36.0511916 C20.799591,36.0511916 16.2889486,32.1627087 15.3366928,27.032946 L10.3985898,31.9456058 C13.0793438,38.0010826 19.1546381,42.234186 26.2316666,42.234186 C26.4539137,42.234186 26.6704829,42.2091667 26.8911077,42.201096 L43.4988048,25.6810969 C43.5085383,25.4591515 43.5328719,25.2428557 43.5328719,25.0192961 L43.5328719,25.0192961 Z"/>
      <g fill="#9E8C3E" font-family="Gibson-SemiBold, Gibson" font-size="8" font-weight="500" transform="translate(14 20)">
        <path d="M5.931,2.431 L5.931,7.951 L4.635,7.951 L4.635,5.639 L2.419,5.639 L2.419,7.951 L1.123,7.951 L1.123,2.431 L2.419,2.431 L2.419,4.567 L4.635,4.567 L4.635,2.431 L5.931,2.431 Z M8.235,2.431 L8.235,7.951 L6.939,7.951 L6.939,2.431 L8.235,2.431 Z M13.235,4.167 C13.235,4.759 13.027,5.183 12.659,5.495 C12.291,5.799 11.787,5.911 11.219,5.911 L10.539,5.911 L10.539,7.951 L9.243,7.951 L9.243,2.431 L11.219,2.431 C11.787,2.431 12.291,2.543 12.659,2.847 C13.027,3.151 13.235,3.575 13.235,4.167 Z M11.923,4.167 C11.923,3.887 11.811,3.695 11.659,3.583 C11.499,3.471 11.315,3.431 11.035,3.431 L10.531,3.431 L10.531,4.911 L11.035,4.911 C11.315,4.911 11.499,4.871 11.659,4.759 C11.811,4.647 11.923,4.447 11.923,4.167 Z M16.355,2.423 L18.435,7.951 L17.027,7.951 L16.635,6.839 L14.667,6.839 L14.275,7.951 L12.931,7.951 L15.011,2.423 L16.355,2.423 Z M14.963,5.831 L16.339,5.831 L15.651,3.847 L14.963,5.831 Z M21.795,2.423 L23.875,7.951 L22.467,7.951 L22.075,6.839 L20.107,6.839 L19.715,7.951 L18.371,7.951 L20.451,2.423 L21.795,2.423 Z M20.403,5.831 L21.779,5.831 L21.091,3.847 L20.403,5.831 Z"/>
      </g>
      <g transform="translate(58.29)">
        <polygon fill="#307AD1" fill-rule="nonzero" points="26.234 33.897 9.742 33.897 9.742 70.945 25.824 64.003 26.234 64.176"/>
        <polygon fill="#1D6CC8" fill-rule="nonzero" points="25.964 33.897 25.964 64.062 42.186 70.945 42.186 33.897"/>
        <path fill="#EAD57D" fill-rule="nonzero" d="M48.0897263,32.0333624 C48.867591,29.6500727 52.4527447,27.604947 52.4527447,24.9633935 C52.4527447,23.0280299 50.5295774,21.4122676 49.1944727,19.748888 C48.9560032,19.7755214 48.7142892,19.7916629 48.4677085,19.7916629 C45.0342344,19.7916629 41.8303075,16.850685 41.9722537,13.3286137 C41.9892872,12.9121635 42.0428212,12.5215397 42.1077108,12.1357583 C41.8303075,11.969501 41.5561487,11.7975942 41.269012,11.6450572 C38.7813047,10.3222628 37.6798027,7.36191515 38.2151424,4.72197587 C37.0592954,2.95206244 36.1151508,0.714853119 34.3323074,0.139409308 C31.937879,-0.634574725 28.880765,2.097371 26.2267779,2.097371 C23.5727909,2.097371 20.5156768,-0.635381799 18.1204373,0.13779516 C15.6375967,0.940026785 14.7842977,4.96409809 12.7183732,6.46041342 C10.6313595,7.97125608 6.52627745,7.54673512 5.00785943,9.6233367 C3.50404158,11.6789544 5.16927246,15.4245851 4.36301844,17.8950388 C3.58596478,20.2783286 0,22.3226472 0,24.9633935 C0,27.6041399 3.58515366,29.6500727 4.36301844,32.0333624 C4.97622572,33.9122308 4.16104938,36.5303791 4.39870776,38.5811543 C6.21967381,37.9314597 8.3156098,38.0355722 9.97516282,39.0339229 C10.6070259,39.2074438 11.2234776,39.4737782 11.79694,39.7619037 C12.6997174,40.2170934 13.5359829,40.8716305 14.2303022,41.6028396 C15.1460575,42.5689073 16.244315,43.3194862 17.1665593,44.2702194 C18.663077,45.8117309 19.2714176,47.9286862 18.9502138,49.9197379 C21.1962071,49.9762331 23.8680388,47.8310302 26.2243446,47.8310302 C28.8783316,47.8310302 31.9362568,50.5613618 34.3306852,49.7873778 C36.8127147,48.9867603 37.6660137,44.9618819 39.7319382,43.4647595 C41.8181407,41.9547239 45.9232228,42.3800519 47.4424519,40.3042574 C48.9487031,38.2478327 47.2834722,34.5013949 48.0897263,32.0333624 L48.0897263,32.0333624 Z"/>
        <path d="M15.1436461,25.0192961 C15.1436461,25.7085374 15.2150247,26.380023 15.3366928,27.032946 L28.2586573,14.1786772 C27.6000273,14.0576161 26.9243637,13.9865936 26.2316666,13.9865936 C20.107705,13.9865936 15.1436461,18.9258869 15.1436461,25.0192961 L15.1436461,25.0192961 Z"/>
        <path fill="#D6C169" fill-rule="nonzero" d="M15.1436461 25.0192961C15.1436461 18.9258869 20.107705 13.9865936 26.2316666 13.9865936 26.9243637 13.9865936 27.6008384 14.0576161 28.2586573 14.1786772L33.1959492 9.26682446C31.0635128 8.33223269 28.7112627 7.80440625 26.2316666 7.80440625 16.6766643 7.80440625 8.93046125 15.5119636 8.93046125 25.0192961 8.93046125 27.4849074 9.46012309 29.8246152 10.3994009 31.9456058L15.337504 27.032946C15.2150247 26.380023 15.1436461 25.7085374 15.1436461 25.0192961L15.1436461 25.0192961zM43.4988048 25.6802898L26.8911077 42.201096C35.9148259 41.8621249 43.1548896 34.6597959 43.4988048 25.6802898L43.4988048 25.6802898z"/>
        <path fill="#FFEF97" fill-rule="nonzero" d="M43.5328719 25.0192961C43.5328719 25.2428557 43.5085383 25.4591515 43.4988048 25.6802898L49.2837179 19.9266588C48.7646006 19.2801924 48.310373 18.6272695 48.0913704 17.9493273 47.2883609 15.4788736 48.9511584 11.734857 47.4505851 9.67681809 45.9337893 7.60263773 41.8287072 8.03038699 39.7360157 6.52115848 39.0717078 6.03691404 38.5282569 5.28633515 38.0172509 4.47119034L33.1959492 9.26682446C39.2801659 11.9342043 43.5328719 17.979189 43.5328719 25.0192961L43.5328719 25.0192961zM26.2316666 36.0511916C32.3556281 36.0511916 37.319687 31.1118983 37.319687 25.0192961 37.319687 19.6159353 33.4133296 15.1277964 28.2586573 14.1786772L15.3366928 27.032946C16.2889486 32.1635158 20.799591 36.0511916 26.2316666 36.0511916L26.2316666 36.0511916zM10.3985898 31.9456058L4.35492917 37.9575006C4.37115158 38.8606164 4.53337573 39.7007805 5.01193697 40.3617742 6.52873275 42.4359546 10.6330037 42.0090124 12.7256952 43.5255046 14.7859418 45.0202057 15.6457298 49.0378204 18.1277593 49.8448945 18.4359852 49.9425505 18.744211 49.9820971 19.0686593 49.9820971L26.8911077 42.201096C26.6704829 42.2091667 26.4539137 42.234186 26.2316666 42.234186 19.1546381 42.234186 13.0793438 38.0010826 10.3985898 31.9456058L10.3985898 31.9456058z"/>
        <path fill="#EBDB83" fill-rule="nonzero" d="M43.5328719,25.0192961 C43.5328719,17.979189 39.2801659,11.9342043 33.1959492,9.26682446 L28.2586573,14.1786772 C33.4133296,15.1277964 37.319687,19.6159353 37.319687,25.0192961 C37.319687,31.1127054 32.3556281,36.0511916 26.2316666,36.0511916 C20.799591,36.0511916 16.2889486,32.1627087 15.3366928,27.032946 L10.3985898,31.9456058 C13.0793438,38.0010826 19.1546381,42.234186 26.2316666,42.234186 C26.4539137,42.234186 26.6704829,42.2091667 26.8911077,42.201096 L43.4988048,25.6810969 C43.5085383,25.4591515 43.5328719,25.2428557 43.5328719,25.0192961 L43.5328719,25.0192961 Z"/>
        <g fill="#9E8C3E" font-family="Gibson-SemiBold, Gibson" font-size="8" font-weight="500" transform="translate(19 20)">
          <path d="M2.519,2.431 L2.519,7.951 L1.223,7.951 L1.223,2.431 L2.519,2.431 Z M7.255,6.271 C7.255,6.799 7.007,7.279 6.607,7.591 C6.215,7.903 5.703,8.047 5.111,8.047 C4.311,8.047 3.599,7.631 3.151,7.215 L3.791,6.271 C4.191,6.687 4.807,6.967 5.231,6.967 C5.647,6.967 5.967,6.767 5.967,6.399 C5.967,6.023 5.559,5.879 5.319,5.791 C5.079,5.703 4.663,5.559 4.479,5.479 C4.343,5.415 4.063,5.311 3.823,5.079 C3.583,4.855 3.391,4.535 3.391,4.015 C3.391,3.487 3.647,3.071 3.967,2.807 C4.279,2.543 4.783,2.367 5.423,2.367 C6.063,2.367 6.799,2.671 7.175,3.047 L6.623,3.951 C6.303,3.631 5.807,3.391 5.391,3.391 C4.975,3.391 4.671,3.551 4.671,3.887 C4.671,4.223 4.983,4.351 5.231,4.447 C5.471,4.543 5.879,4.687 6.055,4.759 C6.207,4.815 6.575,4.959 6.823,5.207 C7.055,5.439 7.255,5.775 7.255,6.271 Z M13.519,5.199 C13.519,6.983 12.231,8.047 10.591,8.047 C8.951,8.047 7.663,6.983 7.663,5.199 C7.663,3.415 8.951,2.343 10.591,2.343 C12.231,2.343 13.519,3.415 13.519,5.199 Z M12.207,5.167 C12.207,4.119 11.511,3.447 10.591,3.447 C9.671,3.447 8.975,4.111 8.975,5.167 C8.975,6.223 9.671,6.895 10.591,6.895 C11.511,6.895 12.207,6.223 12.207,5.167 Z"/>
        </g>
      </g>
      <g transform="translate(115.415)">
        <polygon fill="#EB5B5B" fill-rule="nonzero" points="26.234 33.897 9.742 33.897 9.742 70.945 25.824 64.003 26.234 64.176"/>
        <polygon fill="#D74444" fill-rule="nonzero" points="25.964 33.897 25.964 64.062 42.186 70.945 42.186 33.897"/>
        <path fill="#EAD57D" fill-rule="nonzero" d="M48.0897263,32.0333624 C48.867591,29.6500727 52.4527447,27.604947 52.4527447,24.9633935 C52.4527447,23.0280299 50.5295774,21.4122676 49.1944727,19.748888 C48.9560032,19.7755214 48.7142892,19.7916629 48.4677085,19.7916629 C45.0342344,19.7916629 41.8303075,16.850685 41.9722537,13.3286137 C41.9892872,12.9121635 42.0428212,12.5215397 42.1077108,12.1357583 C41.8303075,11.969501 41.5561487,11.7975942 41.269012,11.6450572 C38.7813047,10.3222628 37.6798027,7.36191515 38.2151424,4.72197587 C37.0592954,2.95206244 36.1151508,0.714853119 34.3323074,0.139409308 C31.937879,-0.634574725 28.880765,2.097371 26.2267779,2.097371 C23.5727909,2.097371 20.5156768,-0.635381799 18.1204373,0.13779516 C15.6375967,0.940026785 14.7842977,4.96409809 12.7183732,6.46041342 C10.6313595,7.97125608 6.52627745,7.54673512 5.00785943,9.6233367 C3.50404158,11.6789544 5.16927246,15.4245851 4.36301844,17.8950388 C3.58596478,20.2783286 0,22.3226472 0,24.9633935 C0,27.6041399 3.58515366,29.6500727 4.36301844,32.0333624 C4.97622572,33.9122308 4.16104938,36.5303791 4.39870776,38.5811543 C6.21967381,37.9314597 8.3156098,38.0355722 9.97516282,39.0339229 C10.6070259,39.2074438 11.2234776,39.4737782 11.79694,39.7619037 C12.6997174,40.2170934 13.5359829,40.8716305 14.2303022,41.6028396 C15.1460575,42.5689073 16.244315,43.3194862 17.1665593,44.2702194 C18.663077,45.8117309 19.2714176,47.9286862 18.9502138,49.9197379 C21.1962071,49.9762331 23.8680388,47.8310302 26.2243446,47.8310302 C28.8783316,47.8310302 31.9362568,50.5613618 34.3306852,49.7873778 C36.8127147,48.9867603 37.6660137,44.9618819 39.7319382,43.4647595 C41.8181407,41.9547239 45.9232228,42.3800519 47.4424519,40.3042574 C48.9487031,38.2478327 47.2834722,34.5013949 48.0897263,32.0333624 L48.0897263,32.0333624 Z"/>
        <path d="M15.1436461,25.0192961 C15.1436461,25.7085374 15.2150247,26.380023 15.3366928,27.032946 L28.2586573,14.1786772 C27.6000273,14.0576161 26.9243637,13.9865936 26.2316666,13.9865936 C20.107705,13.9865936 15.1436461,18.9258869 15.1436461,25.0192961 L15.1436461,25.0192961 Z"/>
        <path fill="#D6C169" fill-rule="nonzero" d="M15.1436461 25.0192961C15.1436461 18.9258869 20.107705 13.9865936 26.2316666 13.9865936 26.9243637 13.9865936 27.6008384 14.0576161 28.2586573 14.1786772L33.1959492 9.26682446C31.0635128 8.33223269 28.7112627 7.80440625 26.2316666 7.80440625 16.6766643 7.80440625 8.93046125 15.5119636 8.93046125 25.0192961 8.93046125 27.4849074 9.46012309 29.8246152 10.3994009 31.9456058L15.337504 27.032946C15.2150247 26.380023 15.1436461 25.7085374 15.1436461 25.0192961L15.1436461 25.0192961zM43.4988048 25.6802898L26.8911077 42.201096C35.9148259 41.8621249 43.1548896 34.6597959 43.4988048 25.6802898L43.4988048 25.6802898z"/>
        <path fill="#FFEF97" fill-rule="nonzero" d="M43.5328719 25.0192961C43.5328719 25.2428557 43.5085383 25.4591515 43.4988048 25.6802898L49.2837179 19.9266588C48.7646006 19.2801924 48.310373 18.6272695 48.0913704 17.9493273 47.2883609 15.4788736 48.9511584 11.734857 47.4505851 9.67681809 45.9337893 7.60263773 41.8287072 8.03038699 39.7360157 6.52115848 39.0717078 6.03691404 38.5282569 5.28633515 38.0172509 4.47119034L33.1959492 9.26682446C39.2801659 11.9342043 43.5328719 17.979189 43.5328719 25.0192961L43.5328719 25.0192961zM26.2316666 36.0511916C32.3556281 36.0511916 37.319687 31.1118983 37.319687 25.0192961 37.319687 19.6159353 33.4133296 15.1277964 28.2586573 14.1786772L15.3366928 27.032946C16.2889486 32.1635158 20.799591 36.0511916 26.2316666 36.0511916L26.2316666 36.0511916zM10.3985898 31.9456058L4.35492917 37.9575006C4.37115158 38.8606164 4.53337573 39.7007805 5.01193697 40.3617742 6.52873275 42.4359546 10.6330037 42.0090124 12.7256952 43.5255046 14.7859418 45.0202057 15.6457298 49.0378204 18.1277593 49.8448945 18.4359852 49.9425505 18.744211 49.9820971 19.0686593 49.9820971L26.8911077 42.201096C26.6704829 42.2091667 26.4539137 42.234186 26.2316666 42.234186 19.1546381 42.234186 13.0793438 38.0010826 10.3985898 31.9456058L10.3985898 31.9456058z"/>
        <path fill="#EBDB83" fill-rule="nonzero" d="M43.5328719,25.0192961 C43.5328719,17.979189 39.2801659,11.9342043 33.1959492,9.26682446 L28.2586573,14.1786772 C33.4133296,15.1277964 37.319687,19.6159353 37.319687,25.0192961 C37.319687,31.1127054 32.3556281,36.0511916 26.2316666,36.0511916 C20.799591,36.0511916 16.2889486,32.1627087 15.3366928,27.032946 L10.3985898,31.9456058 C13.0793438,38.0010826 19.1546381,42.234186 26.2316666,42.234186 C26.4539137,42.234186 26.6704829,42.2091667 26.8911077,42.201096 L43.4988048,25.6810969 C43.5085383,25.4591515 43.5328719,25.2428557 43.5328719,25.0192961 L43.5328719,25.0192961 Z"/>
        <g fill="#9E8C3E" font-family="Gibson-SemiBold, Gibson" font-size="8" font-weight="500" transform="translate(20 20)">
          <path d="M4.663,2.167 C4.663,2.759 4.455,3.183 4.087,3.495 C3.719,3.799 3.215,3.911 2.647,3.911 L1.967,3.911 L1.967,5.951 L0.671,5.951 L0.671,0.431 L2.647,0.431 C3.215,0.431 3.719,0.543 4.087,0.847 C4.455,1.151 4.663,1.575 4.663,2.167 Z M3.351,2.167 C3.351,1.887 3.239,1.695 3.087,1.583 C2.927,1.471 2.743,1.431 2.463,1.431 L1.959,1.431 L1.959,2.911 L2.463,2.911 C2.743,2.911 2.927,2.871 3.087,2.759 C3.239,2.647 3.351,2.447 3.351,2.167 Z M9.471,4.287 L9.903,5.295 C9.623,5.583 9.039,6.047 7.911,6.047 C6.287,6.047 5.015,4.975 5.015,3.199 C5.015,1.415 6.303,0.351 7.911,0.351 C9.047,0.351 9.663,0.823 9.807,0.975 L9.407,2.047 C9.303,1.911 8.711,1.471 7.983,1.471 C7.047,1.471 6.327,2.095 6.327,3.175 C6.327,4.255 7.079,4.871 7.983,4.871 C8.671,4.871 9.167,4.599 9.471,4.287 Z M11.791,0.431 L11.791,5.951 L10.495,5.951 L10.495,0.431 L11.791,0.431 Z" transform="translate(0 2)"/>
        </g>
      </g>
      <g transform="translate(172.539)">
        <polygon fill="#D55BEB" fill-rule="nonzero" points="26.234 33.897 9.742 33.897 9.742 70.945 25.824 64.003 26.234 64.176"/>
        <polygon fill="#BA37D2" fill-rule="nonzero" points="25.964 33.897 25.964 64.062 42.186 70.945 42.186 33.897"/>
        <path fill="#EAD57D" fill-rule="nonzero" d="M48.0897263,32.0333624 C48.867591,29.6500727 52.4527447,27.604947 52.4527447,24.9633935 C52.4527447,23.0280299 50.5295774,21.4122676 49.1944727,19.748888 C48.9560032,19.7755214 48.7142892,19.7916629 48.4677085,19.7916629 C45.0342344,19.7916629 41.8303075,16.850685 41.9722537,13.3286137 C41.9892872,12.9121635 42.0428212,12.5215397 42.1077108,12.1357583 C41.8303075,11.969501 41.5561487,11.7975942 41.269012,11.6450572 C38.7813047,10.3222628 37.6798027,7.36191515 38.2151424,4.72197587 C37.0592954,2.95206244 36.1151508,0.714853119 34.3323074,0.139409308 C31.937879,-0.634574725 28.880765,2.097371 26.2267779,2.097371 C23.5727909,2.097371 20.5156768,-0.635381799 18.1204373,0.13779516 C15.6375967,0.940026785 14.7842977,4.96409809 12.7183732,6.46041342 C10.6313595,7.97125608 6.52627745,7.54673512 5.00785943,9.6233367 C3.50404158,11.6789544 5.16927246,15.4245851 4.36301844,17.8950388 C3.58596478,20.2783286 0,22.3226472 0,24.9633935 C0,27.6041399 3.58515366,29.6500727 4.36301844,32.0333624 C4.97622572,33.9122308 4.16104938,36.5303791 4.39870776,38.5811543 C6.21967381,37.9314597 8.3156098,38.0355722 9.97516282,39.0339229 C10.6070259,39.2074438 11.2234776,39.4737782 11.79694,39.7619037 C12.6997174,40.2170934 13.5359829,40.8716305 14.2303022,41.6028396 C15.1460575,42.5689073 16.244315,43.3194862 17.1665593,44.2702194 C18.663077,45.8117309 19.2714176,47.9286862 18.9502138,49.9197379 C21.1962071,49.9762331 23.8680388,47.8310302 26.2243446,47.8310302 C28.8783316,47.8310302 31.9362568,50.5613618 34.3306852,49.7873778 C36.8127147,48.9867603 37.6660137,44.9618819 39.7319382,43.4647595 C41.8181407,41.9547239 45.9232228,42.3800519 47.4424519,40.3042574 C48.9487031,38.2478327 47.2834722,34.5013949 48.0897263,32.0333624 L48.0897263,32.0333624 Z"/>
        <path d="M15.1436461,25.0192961 C15.1436461,25.7085374 15.2150247,26.380023 15.3366928,27.032946 L28.2586573,14.1786772 C27.6000273,14.0576161 26.9243637,13.9865936 26.2316666,13.9865936 C20.107705,13.9865936 15.1436461,18.9258869 15.1436461,25.0192961 L15.1436461,25.0192961 Z"/>
        <path fill="#D6C169" fill-rule="nonzero" d="M15.1436461 25.0192961C15.1436461 18.9258869 20.107705 13.9865936 26.2316666 13.9865936 26.9243637 13.9865936 27.6008384 14.0576161 28.2586573 14.1786772L33.1959492 9.26682446C31.0635128 8.33223269 28.7112627 7.80440625 26.2316666 7.80440625 16.6766643 7.80440625 8.93046125 15.5119636 8.93046125 25.0192961 8.93046125 27.4849074 9.46012309 29.8246152 10.3994009 31.9456058L15.337504 27.032946C15.2150247 26.380023 15.1436461 25.7085374 15.1436461 25.0192961L15.1436461 25.0192961zM43.4988048 25.6802898L26.8911077 42.201096C35.9148259 41.8621249 43.1548896 34.6597959 43.4988048 25.6802898L43.4988048 25.6802898z"/>
        <path fill="#FFEF97" fill-rule="nonzero" d="M43.5328719 25.0192961C43.5328719 25.2428557 43.5085383 25.4591515 43.4988048 25.6802898L49.2837179 19.9266588C48.7646006 19.2801924 48.310373 18.6272695 48.0913704 17.9493273 47.2883609 15.4788736 48.9511584 11.734857 47.4505851 9.67681809 45.9337893 7.60263773 41.8287072 8.03038699 39.7360157 6.52115848 39.0717078 6.03691404 38.5282569 5.28633515 38.0172509 4.47119034L33.1959492 9.26682446C39.2801659 11.9342043 43.5328719 17.979189 43.5328719 25.0192961L43.5328719 25.0192961zM26.2316666 36.0511916C32.3556281 36.0511916 37.319687 31.1118983 37.319687 25.0192961 37.319687 19.6159353 33.4133296 15.1277964 28.2586573 14.1786772L15.3366928 27.032946C16.2889486 32.1635158 20.799591 36.0511916 26.2316666 36.0511916L26.2316666 36.0511916zM10.3985898 31.9456058L4.35492917 37.9575006C4.37115158 38.8606164 4.53337573 39.7007805 5.01193697 40.3617742 6.52873275 42.4359546 10.6330037 42.0090124 12.7256952 43.5255046 14.7859418 45.0202057 15.6457298 49.0378204 18.1277593 49.8448945 18.4359852 49.9425505 18.744211 49.9820971 19.0686593 49.9820971L26.8911077 42.201096C26.6704829 42.2091667 26.4539137 42.234186 26.2316666 42.234186 19.1546381 42.234186 13.0793438 38.0010826 10.3985898 31.9456058L10.3985898 31.9456058z"/>
        <path fill="#EBDB83" fill-rule="nonzero" d="M43.5328719,25.0192961 C43.5328719,17.979189 39.2801659,11.9342043 33.1959492,9.26682446 L28.2586573,14.1786772 C33.4133296,15.1277964 37.319687,19.6159353 37.319687,25.0192961 C37.319687,31.1127054 32.3556281,36.0511916 26.2316666,36.0511916 C20.799591,36.0511916 16.2889486,32.1627087 15.3366928,27.032946 L10.3985898,31.9456058 C13.0793438,38.0010826 19.1546381,42.234186 26.2316666,42.234186 C26.4539137,42.234186 26.6704829,42.2091667 26.8911077,42.201096 L43.4988048,25.6810969 C43.5085383,25.4591515 43.5328719,25.2428557 43.5328719,25.0192961 L43.5328719,25.0192961 Z"/>
        <g fill="#9E8C3E" font-family="Gibson-SemiBold, Gibson" font-size="8" font-weight="500" transform="translate(18 20)">
          <path d="M4.503,6.271 C4.503,6.799 4.255,7.279 3.855,7.591 C3.463,7.903 2.951,8.047 2.359,8.047 C1.559,8.047 0.847,7.631 0.399,7.215 L1.039,6.271 C1.439,6.687 2.055,6.967 2.479,6.967 C2.895,6.967 3.215,6.767 3.215,6.399 C3.215,6.023 2.807,5.879 2.567,5.791 C2.327,5.703 1.911,5.559 1.727,5.479 C1.591,5.415 1.311,5.311 1.071,5.079 C0.831,4.855 0.639,4.535 0.639,4.015 C0.639,3.487 0.895,3.071 1.215,2.807 C1.527,2.543 2.031,2.367 2.671,2.367 C3.311,2.367 4.047,2.671 4.423,3.047 L3.871,3.951 C3.551,3.631 3.055,3.391 2.639,3.391 C2.223,3.391 1.919,3.551 1.919,3.887 C1.919,4.223 2.231,4.351 2.479,4.447 C2.719,4.543 3.127,4.687 3.303,4.759 C3.455,4.815 3.823,4.959 4.071,5.207 C4.303,5.439 4.503,5.775 4.503,6.271 Z M10.767,5.199 C10.767,6.983 9.479,8.047 7.839,8.047 C6.199,8.047 4.911,6.983 4.911,5.199 C4.911,3.415 6.199,2.343 7.839,2.343 C9.479,2.343 10.767,3.415 10.767,5.199 Z M9.455,5.167 C9.455,4.119 8.759,3.447 7.839,3.447 C6.919,3.447 6.223,4.111 6.223,5.167 C6.223,6.223 6.919,6.895 7.839,6.895 C8.759,6.895 9.455,6.223 9.455,5.167 Z M15.671,6.287 L16.103,7.295 C15.823,7.583 15.239,8.047 14.111,8.047 C12.487,8.047 11.215,6.975 11.215,5.199 C11.215,3.415 12.503,2.351 14.111,2.351 C15.247,2.351 15.863,2.823 16.007,2.975 L15.607,4.047 C15.503,3.911 14.911,3.471 14.183,3.471 C13.247,3.471 12.527,4.095 12.527,5.175 C12.527,6.255 13.279,6.871 14.183,6.871 C14.871,6.871 15.367,6.599 15.671,6.287 Z"/>
        </g>
      </g>
    </g>
  </g>
</svg>
