<svg xmlns="http://www.w3.org/2000/svg" width="155" height="225" viewBox="0 0 155 225" xmlns:xlink="http://www.w3.org/1999/xlink">
  <defs>
    <rect id="living-docs-b" width="124.231" height="160.169" y="-10" rx="2"/>
    <filter id="living-docs-a" width="122.5%" height="117.5%" x="-11.3%" y="-7.5%" filterUnits="objectBoundingBox">
      <feOffset dy="2" in="SourceAlpha" result="shadowOffsetOuter1"/>
      <feGaussianBlur stdDeviation="4" in="shadowOffsetOuter1" result="shadowBlurOuter1"/>
      <feColorMatrix values="0 0 0 0 0 0 0 0 0 0 0 0 0 0 0 0 0 0 0.0869282156 0" in="shadowBlurOuter1" result="shadowMatrixOuter1"/>
      <feOffset in="SourceAlpha" result="shadowOffsetOuter2"/>
      <feGaussianBlur stdDeviation=".5" in="shadowOffsetOuter2" result="shadowBlurOuter2"/>
      <feColorMatrix values="0 0 0 0 0 0 0 0 0 0 0 0 0 0 0 0 0 0 0.0789458786 0" in="shadowBlurOuter2" result="shadowMatrixOuter2"/>
      <feMerge>
        <feMergeNode in="shadowMatrixOuter1"/>
        <feMergeNode in="shadowMatrixOuter2"/>
      </feMerge>
    </filter>
    <rect id="living-docs-c" width="89.553" height="4.929" x="1.067" y=".879" rx="2.465"/>
    <rect id="living-docs-e" width="89.553" height="4.929" x="1.067" y=".879" rx="2.465"/>
    <rect id="living-docs-g" width="89.553" height="4.929" x="1.067" y=".879" rx="2.465"/>
  </defs>
  <g fill="none" fill-rule="evenodd">
    <g transform="translate(139.66)">
      <path fill="#E5F1FF" d="M0.153776506,92.5822102 L0.153776506,90.0754717 L5.16689059,90.0754717 C5.85744705,90.0754717 6.42016911,89.5127089 6.42016911,88.8221024 L6.42016911,18.2156334 L8.92672615,18.2156334 L8.92672615,88.8221024 C8.92672615,90.8951752 7.23981326,92.5822102 5.16689059,92.5822102 L0.153776506,92.5822102 Z"/>
      <polygon fill="#E5F1FF" points="11.8 24.115 7.673 19.988 3.546 24.115 1.774 22.343 7.673 16.443 13.573 22.343"/>
      <g fill="#3F97FF" transform="translate(.584)">
        <ellipse cx="6.896" cy="6.903" fill-opacity=".1" rx="6.896" ry="6.903"/>
        <g transform="translate(3.506 2.925)">
          <path d="M0.358401776,7.52298208 C0.594479467,7.75721173 0.909249723,7.87432656 1.30271254,7.87432656 L5.57003108,7.87432656 C5.9634939,7.87432656 6.27826415,7.75721173 6.51434184,7.52298208 C6.75041953,7.28915351 6.87274362,6.97390607 6.87274362,6.57764084 C6.87274362,6.39795782 6.86417314,6.22669744 6.8552131,6.05583815 C6.84664262,5.88457777 6.82054162,5.70449367 6.78548058,5.50636106 C6.75041953,5.30862952 6.70678801,5.12854542 6.65419645,4.96650984 C6.60199445,4.79524947 6.53187236,4.63321389 6.44460932,4.47117831 C6.35695671,4.31836753 6.26073363,4.17438046 6.14698002,4.06608936 C6.03361598,3.95819933 5.89337181,3.86795674 5.7274162,3.79616375 C5.5614606,3.73319448 5.37758491,3.69709744 5.17656826,3.69709744 C5.15046726,3.69709744 5.08034517,3.73319448 4.97555161,3.80498747 C4.861798,3.87718154 4.7480444,3.95819933 4.61676027,4.03921712 C4.4858657,4.12905863 4.31095006,4.21007642 4.09240289,4.28227049 C3.87385572,4.35446456 3.65491898,4.39016052 3.43637181,4.39016052 C3.21782464,4.39016052 2.99927747,4.35446456 2.7807303,4.28227049 C2.56218313,4.21007642 2.38726748,4.12905863 2.25598335,4.03921712 C2.13365927,3.95819933 2.01133518,3.87718154 1.90615205,3.80498747 C1.79239845,3.73319448 1.72266593,3.69709744 1.69656493,3.69709744 C1.49515871,3.69709744 1.31167259,3.73319448 1.14532741,3.79616375 C0.979371809,3.86795674 0.84808768,3.95819933 0.725763596,4.06608936 C0.612009989,4.17438046 0.515786903,4.31836753 0.428523862,4.47117831 C0.341260821,4.63321389 0.271138735,4.79524947 0.21854717,4.96650984 C0.166345172,5.12854542 0.122324084,5.30862952 0.0876526082,5.50636106 C0.0525915649,5.70449367 0.026490566,5.88457777 0.0175305216,6.05583815 C0.0089600444,6.22669744 0,6.39795782 0,6.57764084 C0,6.97390607 0.122324084,7.28915351 0.358401776,7.52298208 L0.358401776,7.52298208 Z"/>
          <path d="M3.43831964,3.94055189 C3.95449612,3.94055189 4.39159046,3.751243 4.75895228,3.37302629 C5.12592453,2.99521065 5.30980022,2.54479987 5.30980022,2.01377238 C5.30980022,1.48274488 5.12592453,1.03273518 4.75895228,0.654518469 C4.39159046,0.276301757 3.95449612,0.0873939408 3.43831964,0.0873939408 C2.9135727,0.0873939408 2.47647836,0.276301757 2.10911654,0.654518469 C1.74214428,1.03273518 1.55826859,1.48274488 1.55826859,2.01377238 C1.55826859,2.54479987 1.74214428,2.99521065 2.10911654,3.37302629 C2.47647836,3.751243 2.9135727,3.94055189 3.43831964,3.94055189 L3.43831964,3.94055189 Z"/>
        </g>
      </g>
    </g>
    <g transform="translate(70.122)">
      <rect width="2.507" height="41.361" x="5.467" y="18.216" fill="#E5F1FF"/>
      <polygon fill="#E5F1FF" points="10.847 24.115 6.72 19.988 2.593 24.115 .821 22.343 6.72 16.443 12.619 22.343"/>
      <g fill="#3F97FF">
        <ellipse cx="6.896" cy="6.903" fill-opacity=".1" rx="6.896" ry="6.903"/>
        <g transform="translate(3.506 2.925)">
          <path d="M0.358401776,7.52298208 C0.594479467,7.75721173 0.909249723,7.87432656 1.30271254,7.87432656 L5.57003108,7.87432656 C5.9634939,7.87432656 6.27826415,7.75721173 6.51434184,7.52298208 C6.75041953,7.28915351 6.87274362,6.97390607 6.87274362,6.57764084 C6.87274362,6.39795782 6.86417314,6.22669744 6.8552131,6.05583815 C6.84664262,5.88457777 6.82054162,5.70449367 6.78548058,5.50636106 C6.75041953,5.30862952 6.70678801,5.12854542 6.65419645,4.96650984 C6.60199445,4.79524947 6.53187236,4.63321389 6.44460932,4.47117831 C6.35695671,4.31836753 6.26073363,4.17438046 6.14698002,4.06608936 C6.03361598,3.95819933 5.89337181,3.86795674 5.7274162,3.79616375 C5.5614606,3.73319448 5.37758491,3.69709744 5.17656826,3.69709744 C5.15046726,3.69709744 5.08034517,3.73319448 4.97555161,3.80498747 C4.861798,3.87718154 4.7480444,3.95819933 4.61676027,4.03921712 C4.4858657,4.12905863 4.31095006,4.21007642 4.09240289,4.28227049 C3.87385572,4.35446456 3.65491898,4.39016052 3.43637181,4.39016052 C3.21782464,4.39016052 2.99927747,4.35446456 2.7807303,4.28227049 C2.56218313,4.21007642 2.38726748,4.12905863 2.25598335,4.03921712 C2.13365927,3.95819933 2.01133518,3.87718154 1.90615205,3.80498747 C1.79239845,3.73319448 1.72266593,3.69709744 1.69656493,3.69709744 C1.49515871,3.69709744 1.31167259,3.73319448 1.14532741,3.79616375 C0.979371809,3.86795674 0.84808768,3.95819933 0.725763596,4.06608936 C0.612009989,4.17438046 0.515786903,4.31836753 0.428523862,4.47117831 C0.341260821,4.63321389 0.271138735,4.79524947 0.21854717,4.96650984 C0.166345172,5.12854542 0.122324084,5.30862952 0.0876526082,5.50636106 C0.0525915649,5.70449367 0.026490566,5.88457777 0.0175305216,6.05583815 C0.0089600444,6.22669744 0,6.39795782 0,6.57764084 C0,6.97390607 0.122324084,7.28915351 0.358401776,7.52298208 L0.358401776,7.52298208 Z"/>
          <path d="M3.43831964,3.94055189 C3.95449612,3.94055189 4.39159046,3.751243 4.75895228,3.37302629 C5.12592453,2.99521065 5.30980022,2.54479987 5.30980022,2.01377238 C5.30980022,1.48274488 5.12592453,1.03273518 4.75895228,0.654518469 C4.39159046,0.276301757 3.95449612,0.0873939408 3.43831964,0.0873939408 C2.9135727,0.0873939408 2.47647836,0.276301757 2.10911654,0.654518469 C1.74214428,1.03273518 1.55826859,1.48274488 1.55826859,2.01377238 C1.55826859,2.54479987 1.74214428,2.99521065 2.10911654,3.37302629 C2.47647836,3.751243 2.9135727,3.94055189 3.43831964,3.94055189 L3.43831964,3.94055189 Z"/>
        </g>
      </g>
    </g>
    <g transform="translate(35.061)">
      <rect width="2.507" height="41.361" x="5.467" y="18.216" fill="#E5F1FF"/>
      <polygon fill="#E5F1FF" points="10.847 24.115 6.72 19.988 2.593 24.115 .821 22.343 6.72 16.443 12.619 22.343"/>
      <g fill="#3F97FF">
        <ellipse cx="6.896" cy="6.903" fill-opacity=".1" rx="6.896" ry="6.903"/>
        <g transform="translate(3.506 2.925)">
          <path d="M0.358401776,7.52298208 C0.594479467,7.75721173 0.909249723,7.87432656 1.30271254,7.87432656 L5.57003108,7.87432656 C5.9634939,7.87432656 6.27826415,7.75721173 6.51434184,7.52298208 C6.75041953,7.28915351 6.87274362,6.97390607 6.87274362,6.57764084 C6.87274362,6.39795782 6.86417314,6.22669744 6.8552131,6.05583815 C6.84664262,5.88457777 6.82054162,5.70449367 6.78548058,5.50636106 C6.75041953,5.30862952 6.70678801,5.12854542 6.65419645,4.96650984 C6.60199445,4.79524947 6.53187236,4.63321389 6.44460932,4.47117831 C6.35695671,4.31836753 6.26073363,4.17438046 6.14698002,4.06608936 C6.03361598,3.95819933 5.89337181,3.86795674 5.7274162,3.79616375 C5.5614606,3.73319448 5.37758491,3.69709744 5.17656826,3.69709744 C5.15046726,3.69709744 5.08034517,3.73319448 4.97555161,3.80498747 C4.861798,3.87718154 4.7480444,3.95819933 4.61676027,4.03921712 C4.4858657,4.12905863 4.31095006,4.21007642 4.09240289,4.28227049 C3.87385572,4.35446456 3.65491898,4.39016052 3.43637181,4.39016052 C3.21782464,4.39016052 2.99927747,4.35446456 2.7807303,4.28227049 C2.56218313,4.21007642 2.38726748,4.12905863 2.25598335,4.03921712 C2.13365927,3.95819933 2.01133518,3.87718154 1.90615205,3.80498747 C1.79239845,3.73319448 1.72266593,3.69709744 1.69656493,3.69709744 C1.49515871,3.69709744 1.31167259,3.73319448 1.14532741,3.79616375 C0.979371809,3.86795674 0.84808768,3.95819933 0.725763596,4.06608936 C0.612009989,4.17438046 0.515786903,4.31836753 0.428523862,4.47117831 C0.341260821,4.63321389 0.271138735,4.79524947 0.21854717,4.96650984 C0.166345172,5.12854542 0.122324084,5.30862952 0.0876526082,5.50636106 C0.0525915649,5.70449367 0.026490566,5.88457777 0.0175305216,6.05583815 C0.0089600444,6.22669744 0,6.39795782 0,6.57764084 C0,6.97390607 0.122324084,7.28915351 0.358401776,7.52298208 L0.358401776,7.52298208 Z"/>
          <path d="M3.43831964,3.94055189 C3.95449612,3.94055189 4.39159046,3.751243 4.75895228,3.37302629 C5.12592453,2.99521065 5.30980022,2.54479987 5.30980022,2.01377238 C5.30980022,1.48274488 5.12592453,1.03273518 4.75895228,0.654518469 C4.39159046,0.276301757 3.95449612,0.0873939408 3.43831964,0.0873939408 C2.9135727,0.0873939408 2.47647836,0.276301757 2.10911654,0.654518469 C1.74214428,1.03273518 1.55826859,1.48274488 1.55826859,2.01377238 C1.55826859,2.54479987 1.74214428,2.99521065 2.10911654,3.37302629 C2.47647836,3.751243 2.9135727,3.94055189 3.43831964,3.94055189 L3.43831964,3.94055189 Z"/>
        </g>
      </g>
    </g>
    <g transform="translate(105.183)">
      <rect width="2.507" height="41.361" x="5.467" y="18.216" fill="#E5F1FF"/>
      <polygon fill="#E5F1FF" points="10.847 24.115 6.72 19.988 2.593 24.115 .821 22.343 6.72 16.443 12.619 22.343"/>
      <g fill="#3F97FF">
        <ellipse cx="6.896" cy="6.903" fill-opacity=".1" rx="6.896" ry="6.903"/>
        <g transform="translate(3.506 2.925)">
          <path d="M0.358401776,7.52298208 C0.594479467,7.75721173 0.909249723,7.87432656 1.30271254,7.87432656 L5.57003108,7.87432656 C5.9634939,7.87432656 6.27826415,7.75721173 6.51434184,7.52298208 C6.75041953,7.28915351 6.87274362,6.97390607 6.87274362,6.57764084 C6.87274362,6.39795782 6.86417314,6.22669744 6.8552131,6.05583815 C6.84664262,5.88457777 6.82054162,5.70449367 6.78548058,5.50636106 C6.75041953,5.30862952 6.70678801,5.12854542 6.65419645,4.96650984 C6.60199445,4.79524947 6.53187236,4.63321389 6.44460932,4.47117831 C6.35695671,4.31836753 6.26073363,4.17438046 6.14698002,4.06608936 C6.03361598,3.95819933 5.89337181,3.86795674 5.7274162,3.79616375 C5.5614606,3.73319448 5.37758491,3.69709744 5.17656826,3.69709744 C5.15046726,3.69709744 5.08034517,3.73319448 4.97555161,3.80498747 C4.861798,3.87718154 4.7480444,3.95819933 4.61676027,4.03921712 C4.4858657,4.12905863 4.31095006,4.21007642 4.09240289,4.28227049 C3.87385572,4.35446456 3.65491898,4.39016052 3.43637181,4.39016052 C3.21782464,4.39016052 2.99927747,4.35446456 2.7807303,4.28227049 C2.56218313,4.21007642 2.38726748,4.12905863 2.25598335,4.03921712 C2.13365927,3.95819933 2.01133518,3.87718154 1.90615205,3.80498747 C1.79239845,3.73319448 1.72266593,3.69709744 1.69656493,3.69709744 C1.49515871,3.69709744 1.31167259,3.73319448 1.14532741,3.79616375 C0.979371809,3.86795674 0.84808768,3.95819933 0.725763596,4.06608936 C0.612009989,4.17438046 0.515786903,4.31836753 0.428523862,4.47117831 C0.341260821,4.63321389 0.271138735,4.79524947 0.21854717,4.96650984 C0.166345172,5.12854542 0.122324084,5.30862952 0.0876526082,5.50636106 C0.0525915649,5.70449367 0.026490566,5.88457777 0.0175305216,6.05583815 C0.0089600444,6.22669744 0,6.39795782 0,6.57764084 C0,6.97390607 0.122324084,7.28915351 0.358401776,7.52298208 L0.358401776,7.52298208 Z"/>
          <path d="M3.43831964,3.94055189 C3.95449612,3.94055189 4.39159046,3.751243 4.75895228,3.37302629 C5.12592453,2.99521065 5.30980022,2.54479987 5.30980022,2.01377238 C5.30980022,1.48274488 5.12592453,1.03273518 4.75895228,0.654518469 C4.39159046,0.276301757 3.95449612,0.0873939408 3.43831964,0.0873939408 C2.9135727,0.0873939408 2.47647836,0.276301757 2.10911654,0.654518469 C1.74214428,1.03273518 1.55826859,1.48274488 1.55826859,2.01377238 C1.55826859,2.54479987 1.74214428,2.99521065 2.10911654,3.37302629 C2.47647836,3.751243 2.9135727,3.94055189 3.43831964,3.94055189 L3.43831964,3.94055189 Z"/>
        </g>
      </g>
    </g>
    <path fill="#E5F1FF" d="M9.44187745,92.5822102 C7.36895477,92.5822102 5.68204188,90.8951752 5.68204188,88.8221024 L5.68204188,18.2156334 L8.18859893,18.2156334 L8.18859893,88.8221024 C8.18859893,89.5127089 8.75132098,90.0754717 9.44187745,90.0754717 L14.4549915,90.0754717 L14.4549915,92.5822102 L9.44187745,92.5822102 Z"/>
    <path fill="#E5F1FF" d="M11.0623666,24.1152426 L6.9353204,19.9878976 L2.80827423,24.1152426 L1.03613841,22.3429784 L6.04925249,17.3295013 C6.53928439,16.8406873 7.33135642,16.8406873 7.82138832,17.3295013 L12.8345024,22.3429784 L11.0623666,24.1152426 L11.0623666,24.1152426 Z"/>
    <g fill="#3F97FF">
      <ellipse cx="6.896" cy="6.903" fill-opacity=".1" rx="6.896" ry="6.903"/>
      <g transform="translate(3.506 2.925)">
        <path d="M0.358401776,7.52298208 C0.594479467,7.75721173 0.909249723,7.87432656 1.30271254,7.87432656 L5.57003108,7.87432656 C5.9634939,7.87432656 6.27826415,7.75721173 6.51434184,7.52298208 C6.75041953,7.28915351 6.87274362,6.97390607 6.87274362,6.57764084 C6.87274362,6.39795782 6.86417314,6.22669744 6.8552131,6.05583815 C6.84664262,5.88457777 6.82054162,5.70449367 6.78548058,5.50636106 C6.75041953,5.30862952 6.70678801,5.12854542 6.65419645,4.96650984 C6.60199445,4.79524947 6.53187236,4.63321389 6.44460932,4.47117831 C6.35695671,4.31836753 6.26073363,4.17438046 6.14698002,4.06608936 C6.03361598,3.95819933 5.89337181,3.86795674 5.7274162,3.79616375 C5.5614606,3.73319448 5.37758491,3.69709744 5.17656826,3.69709744 C5.15046726,3.69709744 5.08034517,3.73319448 4.97555161,3.80498747 C4.861798,3.87718154 4.7480444,3.95819933 4.61676027,4.03921712 C4.4858657,4.12905863 4.31095006,4.21007642 4.09240289,4.28227049 C3.87385572,4.35446456 3.65491898,4.39016052 3.43637181,4.39016052 C3.21782464,4.39016052 2.99927747,4.35446456 2.7807303,4.28227049 C2.56218313,4.21007642 2.38726748,4.12905863 2.25598335,4.03921712 C2.13365927,3.95819933 2.01133518,3.87718154 1.90615205,3.80498747 C1.79239845,3.73319448 1.72266593,3.69709744 1.69656493,3.69709744 C1.49515871,3.69709744 1.31167259,3.73319448 1.14532741,3.79616375 C0.979371809,3.86795674 0.84808768,3.95819933 0.725763596,4.06608936 C0.612009989,4.17438046 0.515786903,4.31836753 0.428523862,4.47117831 C0.341260821,4.63321389 0.271138735,4.79524947 0.21854717,4.96650984 C0.166345172,5.12854542 0.122324084,5.30862952 0.0876526082,5.50636106 C0.0525915649,5.70449367 0.026490566,5.88457777 0.0175305216,6.05583815 C0.0089600444,6.22669744 0,6.39795782 0,6.57764084 C0,6.97390607 0.122324084,7.28915351 0.358401776,7.52298208 L0.358401776,7.52298208 Z"/>
        <path d="M3.43831964,3.94055189 C3.95449612,3.94055189 4.39159046,3.751243 4.75895228,3.37302629 C5.12592453,2.99521065 5.30980022,2.54479987 5.30980022,2.01377238 C5.30980022,1.48274488 5.12592453,1.03273518 4.75895228,0.654518469 C4.39159046,0.276301757 3.95449612,0.0873939408 3.43831964,0.0873939408 C2.9135727,0.0873939408 2.47647836,0.276301757 2.10911654,0.654518469 C1.74214428,1.03273518 1.55826859,1.48274488 1.55826859,2.01377238 C1.55826859,2.54479987 1.74214428,2.99521065 2.10911654,3.37302629 C2.47647836,3.751243 2.9135727,3.94055189 3.43831964,3.94055189 L3.43831964,3.94055189 Z"/>
      </g>
    </g>
    <g transform="translate(15 64)">
      <use fill="black" filter="url(#living-docs-a)" xlink:href="#living-docs-b"/>
      <use fill="#FFFFFF" xlink:href="#living-docs-b"/>
      <g transform="translate(14.781 70.17)">
        <mask id="living-docs-d" fill="white">
          <use xlink:href="#living-docs-c"/>
        </mask>
        <use fill="#E9F1F6" xlink:href="#living-docs-c"/>
        <rect width="55.452" height="13.555" x="35.736" y="-3.697" fill="#54DF8F" mask="url(#living-docs-d)"/>
        <rect width="55.452" height="13.555" x="11.09" y="-3.697" fill="#FEE559" mask="url(#living-docs-d)"/>
        <rect width="55.452" height="13.555" x="-1.232" y="-3.697" fill="#FF8686" mask="url(#living-docs-d)"/>
        <g transform="translate(0 7.394)">
          <mask id="living-docs-f" fill="white">
            <use xlink:href="#living-docs-e"/>
          </mask>
          <use fill="#E9F1F6" xlink:href="#living-docs-e"/>
          <rect width="24.646" height="13.555" x="11.09" y="-3.697" fill="#FEE559" mask="url(#living-docs-f)"/>
          <rect width="17.252" height="13.555" x="-1.232" y="-3.697" fill="#FF8686" mask="url(#living-docs-f)"/>
        </g>
        <g transform="translate(0 14.787)">
          <mask id="living-docs-h" fill="white">
            <use xlink:href="#living-docs-g"/>
          </mask>
          <use fill="#E9F1F6" xlink:href="#living-docs-g"/>
          <rect width="69.007" height="13.555" x="11.09" y="-3.697" fill="#FEE559" mask="url(#living-docs-h)"/>
          <rect width="46.826" height="13.555" x="-1.232" y="-3.697" fill="#55DE8F" mask="url(#living-docs-h)"/>
        </g>
        <g fill="#E9F1F6" transform="translate(.032 28.717)">
          <rect width="64.908" height="4.929" x="1.035" y=".504" rx="2.465"/>
          <rect width="89.553" height="4.929" x="1.035" y="7.4" rx="2.465"/>
          <rect width="77.23" height="4.929" x="1.035" y="14.295" rx="2.465"/>
          <rect width="90.854" height="4.929" x="1.035" y="21.191" rx="2.465"/>
          <rect width="24.799" height="4.929" x="1.035" y="33.603" rx="2.465"/>
        </g>
      </g>
      <g transform="translate(43 6)">
        <polygon fill="#9B59B6" points="19.309 24.453 7.413 24.453 7.413 51.178 19.014 46.17 19.309 46.295"/>
        <polygon fill="#8E44AD" points="19.115 24.453 19.115 46.213 30.816 51.178 30.816 24.453"/>
        <path fill="#EAD57D" d="M35.0780348,23.1485834 C35.6391289,21.4293237 38.2251934,19.954009 38.2251934,18.0484428 C38.2251934,16.6523084 36.8379629,15.4867283 35.8749171,14.286798 C35.7029029,14.3060109 35.5285483,14.317655 35.3506832,14.317655 C32.8740291,14.317655 30.5629533,12.1960897 30.6653427,9.65533469 C30.6776295,9.35491545 30.7162449,9.07312686 30.7630515,8.79483151 C30.5629533,8.6748967 30.3651954,8.55088643 30.1580762,8.44084915 C28.3636283,7.48661051 27.5690863,5.35107219 27.9552407,3.44667037 C27.1214982,2.16988859 26.4404622,0.55600848 25.1544509,0.140894295 C23.4272874,-0.417443016 21.2221116,1.5533305 19.3077217,1.5533305 C17.3933319,1.5533305 15.188156,-0.418025224 13.4604074,0.13972988 C11.66947,0.718444465 11.0539632,3.62133272 9.56375816,4.70074604 C8.05834094,5.7906391 5.09723853,5.48439778 4.00196414,6.98241853 C2.91722123,8.46530188 4.11839555,11.1673284 3.53682357,12.9494666 C2.97631456,14.6687263 0.389664929,16.1434588 0.389664929,18.0484428 C0.389664929,19.9534268 2.97572947,21.4293237 3.53682357,23.1485834 C3.97914592,24.5039632 3.39113803,26.3926455 3.5625672,27.8720356 C4.87607736,27.4033582 6.38793048,27.4784631 7.58500922,28.1986541 C8.04078847,28.3238288 8.48545115,28.5159574 8.89910446,28.7238056 C9.55030126,29.0521708 10.1535213,29.5243414 10.6543519,30.0518217 C11.31491,30.7487245 12.1071117,31.2901777 12.7723505,31.9760186 C13.8518276,33.0880355 14.2906395,34.6151667 14.0589468,36.0514734 C15.6790402,36.0922279 17.6063019,34.5447195 19.3059665,34.5447195 C21.2203563,34.5447195 23.4261173,36.5143286 25.1532807,35.9559913 C26.9436331,35.3784411 27.5591399,32.4749707 29.0493449,31.3949751 C30.5541771,30.3056643 33.5152795,30.6124878 34.611139,29.1150493 C35.6976371,27.6315837 34.4964628,24.928975 35.0780348,23.1485834 L35.0780348,23.1485834 Z"/>
        <path d="M11.3096443,18.0484428 C11.3096443,18.5456483 11.3611315,19.0300452 11.4488939,19.5010513 L20.7698428,10.2282272 C20.2947559,10.140896 19.8073821,10.0896617 19.3077217,10.0896617 C14.890349,10.0896617 11.3096443,13.6527737 11.3096443,18.0484428 L11.3096443,18.0484428 Z"/>
        <path fill="#D6C169" d="M11.3096443 18.0484428C11.3096443 13.6527737 14.890349 10.0896617 19.3077217 10.0896617 19.8073821 10.0896617 20.2953409 10.140896 20.7698428 10.2282272L24.3312399 6.68491033C22.793058 6.01071366 21.0963188 5.62994974 19.3077217 5.62994974 12.4154501 5.62994974 6.8279125 11.1900345 6.8279125 18.0484428 6.8279125 19.8270877 7.20997135 21.5149082 7.88749686 23.0449504L11.449479 19.5010513C11.3611315 19.0300452 11.3096443 18.5456483 11.3096443 18.0484428L11.3096443 18.0484428zM31.7629575 18.525271L19.7833938 30.4430653C26.2924363 30.1985381 31.5148825 25.0029154 31.7629575 18.525271L31.7629575 18.525271z"/>
        <path fill="#FFEF97" d="M31.7875309 18.0484428C31.7875309 18.2097144 31.7699785 18.3657461 31.7629575 18.525271L35.9357657 14.3747114C35.5613129 13.9083629 35.2336667 13.4373568 35.0756944 12.9483022 34.4964628 11.166164 35.6958819 8.46530188 34.6134793 6.98067191 33.5193751 5.48439778 30.5582727 5.79296793 29.0487599 4.70423928 28.5695773 4.35491459 28.1775721 3.8134613 27.8089701 3.22543139L24.3312399 6.68491033C28.7199435 8.60910722 31.7875309 12.9698439 31.7875309 18.0484428L31.7875309 18.0484428zM19.3077217 26.0066417C23.7250944 26.0066417 27.3057992 22.4435297 27.3057992 18.0484428 27.3057992 14.1505614 24.488042 10.9129036 20.7698428 10.2282272L11.4488939 19.5010513C12.1357807 23.2021465 15.3894244 26.0066417 19.3077217 26.0066417L19.3077217 26.0066417zM7.88691178 23.0449504L3.52746225 27.3818166C3.5391639 28.0333071 3.65618039 28.6393855 4.00137905 29.1162137 5.09548329 30.6124878 8.05600062 30.3044999 9.5655134 31.3984684 11.0516229 32.4767173 11.6718103 35.3749479 13.4621627 35.9571557 13.684494 36.0276029 13.9068254 36.0561311 14.1408584 36.0561311L19.7833938 30.4430653C19.6242513 30.4488874 19.4680343 30.4669359 19.3077217 30.4669359 14.2028771 30.4669359 9.82060936 27.4132558 7.88691178 23.0449504L7.88691178 23.0449504z"/>
        <path fill="#EBDB83" d="M31.7875309,18.0484428 C31.7875309,12.9698439 28.7199435,8.60910722 24.3312399,6.68491033 L20.7698428,10.2282272 C24.488042,10.9129036 27.3057992,14.1505614 27.3057992,18.0484428 C27.3057992,22.4441119 23.7250944,26.0066417 19.3077217,26.0066417 C15.3894244,26.0066417 12.1357807,23.2015643 11.4488939,19.5010513 L7.88691178,23.0449504 C9.82060936,27.4132558 14.2028771,30.4669359 19.3077217,30.4669359 C19.4680343,30.4669359 19.6242513,30.4488874 19.7833938,30.4430653 L31.7629575,18.5258532 C31.7699785,18.3657461 31.7875309,18.2097144 31.7875309,18.0484428 L31.7875309,18.0484428 Z"/>
      </g>
    </g>
  </g>
</svg>
