<svg xmlns="http://www.w3.org/2000/svg" width="153" height="137" viewBox="0 0 153 137" xmlns:xlink="http://www.w3.org/1999/xlink">
  <defs>
    <ellipse id="security-controls-b" cx="9.335" cy="58.745" rx="9.335" ry="9.333"/>
    <filter id="security-controls-a" width="169.6%" height="169.6%" x="-34.8%" y="-29.5%" filterUnits="objectBoundingBox">
      <feOffset dy="1" in="SourceAlpha" result="shadowOffsetOuter1"/>
      <feGaussianBlur stdDeviation="2" in="shadowOffsetOuter1" result="shadowBlurOuter1"/>
      <feColorMatrix values="0 0 0 0 0 0 0 0 0 0 0 0 0 0 0 0 0 0 0.141587409 0" in="shadowBlurOuter1"/>
    </filter>
    <ellipse id="security-controls-d" cx="9.391" cy="31.294" rx="9.335" ry="9.333"/>
    <filter id="security-controls-c" width="169.6%" height="169.6%" x="-34.8%" y="-29.5%" filterUnits="objectBoundingBox">
      <feOffset dy="1" in="SourceAlpha" result="shadowOffsetOuter1"/>
      <feGaussianBlur stdDeviation="2" in="shadowOffsetOuter1" result="shadowBlurOuter1"/>
      <feColorMatrix values="0 0 0 0 0 0 0 0 0 0 0 0 0 0 0 0 0 0 0.141587409 0" in="shadowBlurOuter1"/>
    </filter>
    <ellipse id="security-controls-f" cx="9.633" cy="122.705" rx="9.335" ry="9.333"/>
    <filter id="security-controls-e" width="169.6%" height="169.6%" x="-34.8%" y="-29.5%" filterUnits="objectBoundingBox">
      <feOffset dy="1" in="SourceAlpha" result="shadowOffsetOuter1"/>
      <feGaussianBlur stdDeviation="2" in="shadowOffsetOuter1" result="shadowBlurOuter1"/>
      <feColorMatrix values="0 0 0 0 0 0 0 0 0 0 0 0 0 0 0 0 0 0 0.141587409 0" in="shadowBlurOuter1"/>
    </filter>
  </defs>
  <g fill="none" fill-rule="evenodd" transform="translate(.074 -2.142)">
    <g transform="rotate(90 60.528 92.212)">
      <g>
        <path fill="#E9F1F5" d="M15.0129558,5.49017345 C15.0129558,2.45740164 12.553994,-9.09494702e-13 9.52175032,-9.09494702e-13 C6.48950665,-9.09494702e-13 4.03054483,2.45740164 4.03054483,5.49017345 L4.03054483,118.038729 L15.0129558,118.038729 L15.0129558,5.49017345 Z"/>
        <path fill="#3F97FF" d="M4.03054483,146.038614 C4.03054483,149.071386 6.48950665,151.528787 9.52175032,151.528787 C12.553994,151.528787 15.0129558,149.071386 15.0129558,146.038614 L15.0129558,57.829095 L4.03054483,57.829095 L4.03054483,146.038614 Z"/>
        <use fill="black" filter="url(#security-controls-a)" xlink:href="#security-controls-b"/>
        <use fill="#3F97FF" xlink:href="#security-controls-b"/>
      </g>
      <g transform="translate(23.008)">
        <path fill="#E9F1F5" d="M15.0684967,5.49017345 C15.0684967,2.45740164 12.6106331,-9.09494702e-13 9.57729123,-9.09494702e-13 C6.54504756,-9.09494702e-13 4.08608574,2.45740164 4.08608574,5.49017345 L4.08608574,97.7250874 L15.0684967,97.7250874 L15.0684967,5.49017345 Z"/>
        <path fill="#3F97FF" d="M4.08608574,146.038614 C4.08608574,149.071386 6.54504756,151.528787 9.57729123,151.528787 C12.6106331,151.528787 15.0684967,149.071386 15.0684967,146.038614 L15.0684967,31.843006 L4.08608574,31.843006 L4.08608574,146.038614 Z"/>
        <use fill="black" filter="url(#security-controls-c)" xlink:href="#security-controls-d"/>
        <use fill="#3F97FF" xlink:href="#security-controls-d"/>
      </g>
      <g transform="translate(46.015)">
        <path fill="#E9F1F5" d="M15.1240376,5.49017345 C15.1240376,2.45740164 12.666174,-9.09494702e-13 9.63283214,-9.09494702e-13 C6.59949023,-9.09494702e-13 4.14162665,2.45740164 4.14162665,5.49017345 L4.14162665,117.489712 L15.1240376,117.489712 L15.1240376,5.49017345 Z"/>
        <rect width="11" height="152" x="27" fill="#E9F1F5" rx="5.5"/>
        <rect width="11" height="152" x="50" fill="#E9F1F5" rx="5.5"/>
        <path fill="#3F97FF" d="M4.14162665,121.515107 L4.14162665,146.038614 C4.14162665,149.071386 6.59949023,151.528787 9.63283214,151.528787 C12.666174,151.528787 15.1240376,149.071386 15.1240376,146.038614 L15.1240376,121.515107 L4.14162665,121.515107 L4.14162665,121.515107 Z"/>
        <use fill="black" filter="url(#security-controls-e)" xlink:href="#security-controls-f"/>
        <use fill="#3F97FF" xlink:href="#security-controls-f"/>
      </g>
    </g>
    <text fill="#C2D1E3" font-family="Gibson-SemiBold, Gibson" font-size="12" font-weight="500">
      <tspan x="18.26" y="11">SECURITY CONTROLS</tspan>
    </text>
    <path fill="#3F97FF" d="M144.014551 41.302526L145.647066 42.9350406C145.705669 42.9936437 145.782062 43.0229453 145.870229 43.0229453 145.958395 43.0229453 146.034527 42.9936437 146.093391 42.9350406L148.912095 40.1163367C148.970698 40.0517163 149 39.9813403 149 39.893174 149 39.8050077 148.970698 39.7286144 148.912095 39.6700113L148.46577 39.223686C148.406905 39.1590656 148.330774 39.1297641 148.242607 39.1297641 148.154441 39.1297641 148.078048 39.1590656 148.019445 39.223686L145.870229 41.372902 144.907202 40.4098753C144.848337 40.345255 144.772206 40.3159534 144.684039 40.3159534 144.595873 40.3159534 144.51948 40.345255 144.460877 40.4098753L144.014551 40.8562007C143.955948 40.9148038 143.926385 40.9911971 143.926385 41.0793633 143.926385 41.1675296 143.955948 41.2379056 144.014551 41.302526M144.014551 64.302526L145.647066 65.9350406C145.705669 65.9936437 145.782062 66.0229453 145.870229 66.0229453 145.958395 66.0229453 146.034527 65.9936437 146.093391 65.9350406L148.912095 63.1163367C148.970698 63.0517163 149 62.9813403 149 62.893174 149 62.8050077 148.970698 62.7286144 148.912095 62.6700113L148.46577 62.223686C148.406905 62.1590656 148.330774 62.1297641 148.242607 62.1297641 148.154441 62.1297641 148.078048 62.1590656 148.019445 62.223686L145.870229 64.372902 144.907202 63.4098753C144.848337 63.345255 144.772206 63.3159534 144.684039 63.3159534 144.595873 63.3159534 144.51948 63.345255 144.460877 63.4098753L144.014551 63.8562007C143.955948 63.9148038 143.926385 63.9911971 143.926385 64.0793633 143.926385 64.1675296 143.955948 64.2379056 144.014551 64.302526M144.014551 87.302526L145.647066 88.9350406C145.705669 88.9936437 145.782062 89.0229453 145.870229 89.0229453 145.958395 89.0229453 146.034527 88.9936437 146.093391 88.9350406L148.912095 86.1163367C148.970698 86.0517163 149 85.9813403 149 85.893174 149 85.8050077 148.970698 85.7286144 148.912095 85.6700113L148.46577 85.223686C148.406905 85.1590656 148.330774 85.1297641 148.242607 85.1297641 148.154441 85.1297641 148.078048 85.1590656 148.019445 85.223686L145.870229 87.372902 144.907202 86.4098753C144.848337 86.345255 144.772206 86.3159534 144.684039 86.3159534 144.595873 86.3159534 144.51948 86.345255 144.460877 86.4098753L144.014551 86.8562007C143.955948 86.9148038 143.926385 86.9911971 143.926385 87.0793633 143.926385 87.1675296 143.955948 87.2379056 144.014551 87.302526"/>
  </g>
</svg>
