<svg xmlns="http://www.w3.org/2000/svg" width="153" height="137" viewBox="0 0 153 137" xmlns:xlink="http://www.w3.org/1999/xlink">
  <defs>
    <ellipse id="security-controls-b" cx="9.335" cy="58.745" rx="9.335" ry="9.333"/>
    <filter id="security-controls-a" width="169.6%" height="169.6%" x="-34.8%" y="-29.5%" filterUnits="objectBoundingBox">
      <feOffset dy="1" in="SourceAlpha" result="shadowOffsetOuter1"/>
      <feGaussianBlur stdDeviation="2" in="shadowOffsetOuter1" result="shadowBlurOuter1"/>
      <feColorMatrix values="0 0 0 0 0 0 0 0 0 0 0 0 0 0 0 0 0 0 0.141587409 0" in="shadowBlurOuter1"/>
    </filter>
    <ellipse id="security-controls-d" cx="9.391" cy="31.294" rx="9.335" ry="9.333"/>
    <filter id="security-controls-c" width="169.6%" height="169.6%" x="-34.8%" y="-29.5%" filterUnits="objectBoundingBox">
      <feOffset dy="1" in="SourceAlpha" result="shadowOffsetOuter1"/>
      <feGaussianBlur stdDeviation="2" in="shadowOffsetOuter1" result="shadowBlurOuter1"/>
      <feColorMatrix values="0 0 0 0 0 0 0 0 0 0 0 0 0 0 0 0 0 0 0.141587409 0" in="shadowBlurOuter1"/>
    </filter>
    <ellipse id="security-controls-f" cx="9.633" cy="122.705" rx="9.335" ry="9.333"/>
    <filter id="security-controls-e" width="169.6%" height="169.6%" x="-34.8%" y="-29.5%" filterUnits="objectBoundingBox">
      <feOffset dy="1" in="SourceAlpha" result="shadowOffsetOuter1"/>
      <feGaussianBlur stdDeviation="2" in="shadowOffsetOuter1" result="shadowBlurOuter1"/>
      <feColorMatrix values="0 0 0 0 0 0 0 0 0 0 0 0 0 0 0 0 0 0 0.141587409 0" in="shadowBlurOuter1"/>
    </filter>
  </defs>
  <g fill="none" fill-rule="evenodd" transform="translate(.074 -2.142)">
    <g transform="rotate(90 60.528 92.212)">
      <g>
        <path fill="#E9F1F5" d="M15.0129558,5.49017345 C15.0129558,2.45740164 12.553994,-9.09494702e-13 9.52175032,-9.09494702e-13 C6.48950665,-9.09494702e-13 4.03054483,2.45740164 4.03054483,5.49017345 L4.03054483,118.038729 L15.0129558,118.038729 L15.0129558,5.49017345 Z"/>
        <path fill="#3F97FF" d="M4.03054483,146.038614 C4.03054483,149.071386 6.48950665,151.528787 9.52175032,151.528787 C12.553994,151.528787 15.0129558,149.071386 15.0129558,146.038614 L15.0129558,57.829095 L4.03054483,57.829095 L4.03054483,146.038614 Z"/>
        <use fill="black" filter="url(#security-controls-a)" xlink:href="#security-controls-b"/>
        <use fill="#3F97FF" xlink:href="#security-controls-b"/>
      </g>
      <g transform="translate(23.008)">
        <path fill="#E9F1F5" d="M15.0684967,5.49017345 C15.0684967,2.45740164 12.6106331,-9.09494702e-13 9.57729123,-9.09494702e-13 C6.54504756,-9.09494702e-13 4.08608574,2.45740164 4.08608574,5.49017345 L4.08608574,97.7250874 L15.0684967,97.7250874 L15.0684967,5.49017345 Z"/>
        <path fill="#3F97FF" d="M4.08608574,146.038614 C4.08608574,149.071386 6.54504756,151.528787 9.57729123,151.528787 C12.6106331,151.528787 15.0684967,149.071386 15.0684967,146.038614 L15.0684967,31.843006 L4.08608574,31.843006 L4.08608574,146.038614 Z"/>
        <use fill="black" filter="url(#security-controls-c)" xlink:href="#security-controls-d"/>
        <use fill="#3F97FF" xlink:href="#security-controls-d"/>
      </g>
      <g transform="translate(46.015)">
        <path fill="#E9F1F5" d="M15.1240376,5.49017345 C15.1240376,2.45740164 12.666174,-9.09494702e-13 9.63283214,-9.09494702e-13 C6.59949023,-9.09494702e-13 4.14162665,2.45740164 4.14162665,5.49017345 L4.14162665,117.489712 L15.1240376,117.489712 L15.1240376,5.49017345 Z"/>
        <rect width="11" height="152" x="27" fill="#E9F1F5" rx="5.5"/>
        <rect width="11" height="152" x="50" fill="#E9F1F5" rx="5.5"/>
        <path fill="#3F97FF" d="M4.14162665,121.515107 L4.14162665,146.038614 C4.14162665,149.071386 6.59949023,151.528787 9.63283214,151.528787 C12.666174,151.528787 15.1240376,149.071386 15.1240376,146.038614 L15.1240376,121.515107 L4.14162665,121.515107 L4.14162665,121.515107 Z"/>
        <use fill="black" filter="url(#security-controls-e)" xlink:href="#security-controls-f"/>
        <use fill="#3F97FF" xlink:href="#security-controls-f"/>
      </g>
    </g>
    <path fill="#C2D1E3" d="M6.608,8.48 C6.608,9.272 6.236,9.992 5.636,10.46 C5.048,10.928 4.28,11.144 3.392,11.144 C2.192,11.144 1.124,10.52 0.452,9.896 L1.412,8.48 C2.012,9.104 2.936,9.524 3.572,9.524 C4.196,9.524 4.676,9.224 4.676,8.672 C4.676,8.108 4.064,7.892 3.704,7.76 C3.344,7.628 2.72,7.412 2.444,7.292 C2.24,7.196 1.82,7.04 1.46,6.692 C1.1,6.356 0.812,5.876 0.812,5.096 C0.812,4.304 1.196,3.68 1.676,3.284 C2.144,2.888 2.9,2.624 3.86,2.624 C4.82,2.624 5.924,3.08 6.488,3.644 L5.66,5 C5.18,4.52 4.436,4.16 3.812,4.16 C3.188,4.16 2.732,4.4 2.732,4.904 C2.732,5.408 3.2,5.6 3.572,5.744 C3.932,5.888 4.544,6.104 4.808,6.212 C5.036,6.296 5.588,6.512 5.96,6.884 C6.308,7.232 6.608,7.736 6.608,8.48 Z M13.112,9.428 L13.112,11 L7.64,11 L7.64,2.72 L13.004,2.72 L13.004,4.268 L9.572,4.268 L9.572,5.96 L12.812,5.96 L12.812,7.508 L9.572,7.508 L9.572,9.428 L13.112,9.428 Z M20.576,8.504 L21.224,10.016 C20.804,10.448 19.928,11.144 18.236,11.144 C15.8,11.144 13.892,9.536 13.892,6.872 C13.892,4.196 15.824,2.6 18.236,2.6 C19.94,2.6 20.864,3.308 21.08,3.536 L20.48,5.144 C20.324,4.94 19.436,4.28 18.344,4.28 C16.94,4.28 15.86,5.216 15.86,6.836 C15.86,8.456 16.988,9.38 18.344,9.38 C19.376,9.38 20.12,8.972 20.576,8.504 Z M28.988,2.72 L28.988,7.544 C28.988,8.708 28.784,9.512 28.196,10.148 C27.62,10.772 26.72,11.132 25.52,11.132 C24.308,11.132 23.42,10.772 22.832,10.148 C22.256,9.512 22.052,8.708 22.052,7.544 L22.052,2.72 L24.008,2.72 L24.008,7.544 C24.008,8.132 24.056,8.588 24.332,8.924 C24.596,9.236 24.98,9.44 25.52,9.44 C26.06,9.44 26.444,9.236 26.708,8.924 C26.984,8.588 27.032,8.132 27.032,7.544 L27.032,2.72 L28.988,2.72 Z M34.892,7.58 L36.992,11 L34.736,11 L32.996,7.832 L32.384,7.832 L32.384,11 L30.44,11 L30.44,2.72 L33.416,2.72 C34.34,2.72 35.06,2.912 35.6,3.308 C36.152,3.716 36.512,4.376 36.512,5.204 C36.512,6.776 35.504,7.388 34.892,7.58 Z M34.556,5.276 C34.556,4.856 34.388,4.616 34.136,4.436 C33.896,4.256 33.584,4.22 33.14,4.22 L32.372,4.22 L32.372,6.344 L33.14,6.344 C33.584,6.344 33.896,6.296 34.136,6.116 C34.388,5.936 34.556,5.708 34.556,5.276 Z M39.584,2.72 L39.584,11 L37.64,11 L37.64,2.72 L39.584,2.72 Z M46.604,2.72 L46.604,4.256 L44.468,4.256 L44.468,11 L42.524,11 L42.524,4.256 L40.388,4.256 L40.388,2.72 L46.604,2.72 Z M52.064,2.72 L54.224,2.72 L51.344,7.652 L51.344,11 L49.4,11 L49.4,7.652 L46.52,2.72 L48.68,2.72 L50.372,6.02 L52.064,2.72 Z M63.476,8.504 L64.124,10.016 C63.704,10.448 62.828,11.144 61.136,11.144 C58.7,11.144 56.792,9.536 56.792,6.872 C56.792,4.196 58.724,2.6 61.136,2.6 C62.84,2.6 63.764,3.308 63.98,3.536 L63.38,5.144 C63.224,4.94 62.336,4.28 61.244,4.28 C59.84,4.28 58.76,5.216 58.76,6.836 C58.76,8.456 59.888,9.38 61.244,9.38 C62.276,9.38 63.02,8.972 63.476,8.504 Z M73.136,6.872 C73.136,9.548 71.204,11.144 68.744,11.144 C66.284,11.144 64.352,9.548 64.352,6.872 C64.352,4.196 66.284,2.588 68.744,2.588 C71.204,2.588 73.136,4.196 73.136,6.872 Z M71.168,6.824 C71.168,5.252 70.124,4.244 68.744,4.244 C67.364,4.244 66.32,5.24 66.32,6.824 C66.32,8.408 67.364,9.416 68.744,9.416 C70.124,9.416 71.168,8.408 71.168,6.824 Z M81.716,2.72 L81.716,11 L79.724,11 L76.088,5.384 C76.088,5.384 76.124,6.38 76.124,7.256 L76.124,11 L74.228,11 L74.228,2.72 L76.304,2.72 L79.856,8.288 C79.856,8.288 79.82,7.352 79.82,6.476 L79.82,2.72 L81.716,2.72 Z M88.736,2.72 L88.736,4.256 L86.6,4.256 L86.6,11 L84.656,11 L84.656,4.256 L82.52,4.256 L82.52,2.72 L88.736,2.72 Z M93.992,7.58 L96.092,11 L93.836,11 L92.096,7.832 L91.484,7.832 L91.484,11 L89.54,11 L89.54,2.72 L92.516,2.72 C93.44,2.72 94.16,2.912 94.7,3.308 C95.252,3.716 95.612,4.376 95.612,5.204 C95.612,6.776 94.604,7.388 93.992,7.58 Z M93.656,5.276 C93.656,4.856 93.488,4.616 93.236,4.436 C92.996,4.256 92.684,4.22 92.24,4.22 L91.472,4.22 L91.472,6.344 L92.24,6.344 C92.684,6.344 92.996,6.296 93.236,6.116 C93.488,5.936 93.656,5.708 93.656,5.276 Z M105.104,6.872 C105.104,9.548 103.172,11.144 100.712,11.144 C98.252,11.144 96.32,9.548 96.32,6.872 C96.32,4.196 98.252,2.588 100.712,2.588 C103.172,2.588 105.104,4.196 105.104,6.872 Z M103.136,6.824 C103.136,5.252 102.092,4.244 100.712,4.244 C99.332,4.244 98.288,5.24 98.288,6.824 C98.288,8.408 99.332,9.416 100.712,9.416 C102.092,9.416 103.136,8.408 103.136,6.824 Z M110.996,9.392 L110.996,11 L106.196,11 L106.196,2.72 L108.128,2.72 L108.128,9.392 L110.996,9.392 Z M117.464,8.48 C117.464,9.272 117.092,9.992 116.492,10.46 C115.904,10.928 115.136,11.144 114.248,11.144 C113.048,11.144 111.98,10.52 111.308,9.896 L112.268,8.48 C112.868,9.104 113.792,9.524 114.428,9.524 C115.052,9.524 115.532,9.224 115.532,8.672 C115.532,8.108 114.92,7.892 114.56,7.76 C114.2,7.628 113.576,7.412 113.3,7.292 C113.096,7.196 112.676,7.04 112.316,6.692 C111.956,6.356 111.668,5.876 111.668,5.096 C111.668,4.304 112.052,3.68 112.532,3.284 C113,2.888 113.756,2.624 114.716,2.624 C115.676,2.624 116.78,3.08 117.344,3.644 L116.516,5 C116.036,4.52 115.292,4.16 114.668,4.16 C114.044,4.16 113.588,4.4 113.588,4.904 C113.588,5.408 114.056,5.6 114.428,5.744 C114.788,5.888 115.4,6.104 115.664,6.212 C115.892,6.296 116.444,6.512 116.816,6.884 C117.164,7.232 117.464,7.736 117.464,8.48 Z" transform="translate(18.074 .858)"/>
    <path fill="#3F97FF" d="M144.014551 41.302526L145.647066 42.9350406C145.705669 42.9936437 145.782062 43.0229453 145.870229 43.0229453 145.958395 43.0229453 146.034527 42.9936437 146.093391 42.9350406L148.912095 40.1163367C148.970698 40.0517163 149 39.9813403 149 39.893174 149 39.8050077 148.970698 39.7286144 148.912095 39.6700113L148.46577 39.223686C148.406905 39.1590656 148.330774 39.1297641 148.242607 39.1297641 148.154441 39.1297641 148.078048 39.1590656 148.019445 39.223686L145.870229 41.372902 144.907202 40.4098753C144.848337 40.345255 144.772206 40.3159534 144.684039 40.3159534 144.595873 40.3159534 144.51948 40.345255 144.460877 40.4098753L144.014551 40.8562007C143.955948 40.9148038 143.926385 40.9911971 143.926385 41.0793633 143.926385 41.1675296 143.955948 41.2379056 144.014551 41.302526M144.014551 64.302526L145.647066 65.9350406C145.705669 65.9936437 145.782062 66.0229453 145.870229 66.0229453 145.958395 66.0229453 146.034527 65.9936437 146.093391 65.9350406L148.912095 63.1163367C148.970698 63.0517163 149 62.9813403 149 62.893174 149 62.8050077 148.970698 62.7286144 148.912095 62.6700113L148.46577 62.223686C148.406905 62.1590656 148.330774 62.1297641 148.242607 62.1297641 148.154441 62.1297641 148.078048 62.1590656 148.019445 62.223686L145.870229 64.372902 144.907202 63.4098753C144.848337 63.345255 144.772206 63.3159534 144.684039 63.3159534 144.595873 63.3159534 144.51948 63.345255 144.460877 63.4098753L144.014551 63.8562007C143.955948 63.9148038 143.926385 63.9911971 143.926385 64.0793633 143.926385 64.1675296 143.955948 64.2379056 144.014551 64.302526M144.014551 87.302526L145.647066 88.9350406C145.705669 88.9936437 145.782062 89.0229453 145.870229 89.0229453 145.958395 89.0229453 146.034527 88.9936437 146.093391 88.9350406L148.912095 86.1163367C148.970698 86.0517163 149 85.9813403 149 85.893174 149 85.8050077 148.970698 85.7286144 148.912095 85.6700113L148.46577 85.223686C148.406905 85.1590656 148.330774 85.1297641 148.242607 85.1297641 148.154441 85.1297641 148.078048 85.1590656 148.019445 85.223686L145.870229 87.372902 144.907202 86.4098753C144.848337 86.345255 144.772206 86.3159534 144.684039 86.3159534 144.595873 86.3159534 144.51948 86.345255 144.460877 86.4098753L144.014551 86.8562007C143.955948 86.9148038 143.926385 86.9911971 143.926385 87.0793633 143.926385 87.1675296 143.955948 87.2379056 144.014551 87.302526"/>
  </g>
</svg>
