<svg width="69px" height="74px" viewBox="0 0 69 74" id="mayo-mark">
  <path d="M54.8611226,48.143 C54.8611226,52.0074751 54.1432493,56.7976609 47.1984416,59.8805879 C46.5661546,59.5992828 45.986435,59.3044268 45.4533689,58.9969994 C45.5525898,58.1395333 45.6040073,57.2410878 45.6040073,56.2997036 L45.6040073,42.9343668 L39.5380605,42.9343668 L39.5380605,37.9105493 L54.8611226,37.9105493 L54.8611226,48.143 L54.8611226,48.143 Z M47.1984416,35.6351294 L37.2508867,35.6351294 L37.2508867,46.7715767 C37.2508867,51.881598 39.0393275,55.4399518 42.1595299,57.9183097 L42.1559159,56.3574993 C39.8744917,53.7349787 39.5377319,50.7247045 39.5377319,48.143 L39.5377319,45.2267662 L43.3040203,45.2267662 L43.3040203,57.944432 C43.3040203,62.5814756 41.9960782,68.4865959 33.6657915,72.1866634 C25.7486516,68.6714115 24.1713017,63.1633509 24.0344623,58.6454906 C27.7687174,56.1511327 29.9405714,52.4045348 29.9405714,46.7727195 L29.9405714,45.2267662 L36.045451,45.2267662 L36.045451,42.9343668 L29.9405714,42.9343668 L29.9405714,42.9325709 L27.6545476,42.9325709 L27.6545476,42.9343668 L21.7267544,42.9343668 L21.7267544,56.2997036 C21.7267544,56.7659875 21.7392391,57.2206797 21.7643729,57.6654127 L21.7643729,57.6663923 C22.6624537,57.0833741 23.4054607,56.4639479 24.0241131,55.8174197 L24.0241131,45.226603 L27.6545476,45.226603 L27.6545476,48.1428368 C27.6545476,52.0084547 26.9355244,56.7974976 19.9918666,59.8805879 C13.0493587,56.7974976 12.3303356,52.0084547 12.3303356,48.1428368 L12.3303356,37.910386 L27.6545476,37.910386 L27.6545476,41.8271057 L29.9405714,41.8271057 L29.9405714,35.6349661 L10.0443117,35.6349661 L10.0443117,46.7725563 C10.0443117,54.2033851 13.8288344,58.3571651 19.9918666,60.6734012 C20.6892057,60.4113614 21.3545116,60.1266278 21.9890984,59.8147922 C23.0527665,66.5682359 27.3030033,70.5883022 33.6657915,72.9793134 C40.0078814,70.5961389 44.2502331,66.5920725 45.3321354,59.8771593 C45.925654,60.1641787 46.5487417,60.4283409 47.198113,60.6734012 C53.3634451,58.3560223 57.1479678,54.2033851 57.1479678,46.7715767 L57.1479678,35.6349661 L47.198113,35.6349661 L47.1984416,35.6351294 L47.1984416,35.6351294 Z" id="Fill-1"></path>
  <path d="M54.9820275,0.114611808 C53.880741,0.114611808 52.8992095,0.278039756 52.0431826,0.596732418 C51.1850201,0.910853668 50.4099798,1.38840287 49.7320249,2.01452293 C49.0530844,2.64292869 48.5714358,3.33255872 48.2768942,4.1129639 C47.9825169,4.89908335 47.8489629,5.76454944 47.8489629,6.69352549 C47.8489629,7.50903258 48.003051,8.32127438 48.3054777,9.16061812 C48.6090543,10.0033904 49.0358357,10.7282856 49.6180194,11.3157119 C50.2000389,11.9033015 50.919062,12.3480345 51.7578403,12.6486048 C52.5967828,12.9356241 53.5006131,13.0739093 54.46851,13.0739093 C56.595846,13.0739093 58.3476539,12.4319526 59.7469318,11.1173453 C61.1439099,9.80600341 61.8299141,8.17613208 61.8299141,6.21140488 C61.8299141,5.59442764 61.7704473,5.02153186 61.6301581,4.48161556 C61.4943043,3.93827069 61.2956982,3.45631335 61.0594735,3.06382505 C60.7489974,2.52848015 60.3358507,2.03607387 59.8040988,1.58921843 C59.2687329,1.14122014 58.5805931,0.779262333 57.7497,0.511671518 C56.9142072,0.238203173 56.0023275,0.114611808 54.9820275,0.114611808 L54.9820275,0.114611808 Z M29.9019673,0.284733608 C29.0700885,2.16880805 28.5324228,3.37353815 28.275664,3.91459731 L25.9360872,8.87702736 C25.2398979,10.3108178 24.8484352,11.1286106 24.7377152,11.34412 C24.5458443,11.7263226 24.4124546,11.9633829 24.3096196,12.0530152 C24.206949,12.1449333 24.0870296,12.2153003 23.9672746,12.2515451 C23.8452197,12.2820756 23.5437786,12.3015041 23.0542449,12.3081979 L23.0542449,12.8471347 C23.7709683,12.8051756 24.4214896,12.7903186 25.0228932,12.7903186 C25.54676,12.7903186 26.3149008,12.8051756 27.3626344,12.8471347 L27.3626344,12.3081979 C26.7852146,12.3019939 26.392602,12.2719532 26.1642624,12.2233003 C26.0216734,12.1937494 25.9176886,12.1279537 25.8503366,12.0531785 C25.8002333,11.9986481 25.7933339,11.9317096 25.7933339,11.8546487 C25.7933339,11.6685269 25.871035,11.380528 26.0500927,10.9754683 L27.0487086,8.70690556 L32.4128809,8.70690556 L33.5826694,11.4009361 C33.6682556,11.605017 33.6968391,11.7819959 33.6968391,11.9113015 C33.6968391,11.9919543 33.6661201,12.0543214 33.6112529,12.1098314 C33.5599997,12.1643618 33.476549,12.2198718 33.3259106,12.2515451 C33.1787219,12.2788103 32.7609755,12.2935041 32.0705359,12.3083612 L32.0705359,12.8471347 L35.0379644,12.7903186 C35.4213777,12.7903186 36.0970328,12.8051756 37.0637797,12.8471347 L37.0637797,12.3083612 C36.5729318,12.3019939 36.2624557,12.2595451 36.1221665,12.1948923 C35.9840129,12.1302394 35.8700074,12.0032195 35.751238,11.7978325 C35.5389972,11.4291809 35.1132014,10.5320415 34.4672798,9.10396527 L30.5012354,0.284896872 L29.9019673,0.284733608 L29.9019673,0.284733608 Z M5.30700534,0.398202563 L5.30700534,0.993792127 C6.03752762,1.00391454 6.49059271,1.03003689 6.64813057,1.07868976 C6.80435425,1.12979161 6.91967393,1.20244439 6.99047562,1.30562767 C7.0601274,1.40881095 7.08624681,1.7479117 7.10464539,2.29811368 C7.13306463,3.05811078 7.16164814,3.83280171 7.16164814,4.62349257 L7.16164814,8.65008945 C7.13881419,10.1870632 7.11138059,11.0231416 7.10464539,11.1455901 C7.08411126,11.5924456 7.03614353,11.878322 6.96189211,11.9963624 C6.90028971,12.08126 6.80780398,12.1437904 6.64813057,12.1948923 C6.48599306,12.2481165 6.03637771,12.2685246 5.30700534,12.2797899 L5.30700534,12.8469714 L7.64674648,12.7903186 L9.87215357,12.8469714 L9.87215357,12.2797899 C9.13489609,12.2685246 8.68758056,12.2492594 8.53119261,12.1948923 C8.37365475,12.1449333 8.25964925,12.0734233 8.18884756,11.9679543 C8.11574605,11.8647711 8.06449286,11.5289356 8.04609428,10.9754683 C8.00059064,10.2223284 7.98909153,9.44649458 7.98909153,8.65008945 L7.98909153,2.52505159 L12.4116507,11.230651 L13.0679216,12.5067278 C13.1364235,12.6337477 13.1865267,12.8152981 13.2676776,13.0455013 L13.6384419,13.0455013 C14.0517529,12.0871376 14.3472802,11.3826505 14.5516358,10.9470603 C14.8379638,10.3459197 15.2499606,9.55082071 15.7498435,8.56502855 L18.9456115,2.21305278 L18.9456115,8.65008945 C18.9227776,10.1893489 18.895344,11.0231416 18.8884445,11.1455901 C18.8759598,11.5958741 18.8256922,11.878322 18.7458555,11.9963624 C18.6900027,12.0825662 18.5917674,12.1449333 18.4319297,12.1948923 C18.2676566,12.2492594 17.8247765,12.2685246 17.0909687,12.2797899 L17.0909687,12.8469714 C18.5050312,12.7970124 19.4169109,12.7903186 19.8300577,12.7903186 C20.3414397,12.7903186 21.2088014,12.7966859 22.4549768,12.8469714 L22.4549768,12.2797899 C21.7211691,12.2685246 21.2978374,12.2481165 21.1425994,12.1948923 C20.9862114,12.1437904 20.8708917,12.0711376 20.8000901,11.9679543 C20.7304383,11.8647711 20.6757354,11.5266499 20.657501,10.9754683 C20.6256321,10.2223284 20.6004983,9.44649458 20.6004983,8.65008945 L20.6004983,4.62349257 C20.6256321,3.08651884 20.6494517,2.2448894 20.657501,2.12799188 C20.6701501,1.68325888 20.7181178,1.39297428 20.8000901,1.27721962 C20.8607068,1.1853016 20.9576279,1.12979161 21.1140159,1.07868976 C21.2715537,1.03003689 21.7177194,1.00391454 22.4549768,0.993792127 L22.4549768,0.398202563 C21.5283125,0.443590145 20.8697418,0.454855408 20.457745,0.454855408 C20.0058298,0.454855408 19.4545295,0.443590145 18.8028582,0.398202563 C18.5119307,1.1252202 17.9264615,2.35035838 17.0623852,4.05631106 L13.895365,10.3232259 L10.3858354,3.48912955 C9.93277032,2.6123982 9.41908848,1.5722389 8.87353766,0.398202563 C8.32470138,0.443590145 7.76190189,0.454855408 7.16164814,0.454855408 C6.57042942,0.454855408 5.95424118,0.443590145 5.30700534,0.398202563 L5.30700534,0.398202563 Z M34.6384523,0.398202563 L34.6384523,0.965384072 C35.3757098,0.977955453 35.6244192,1.00277168 35.8082407,1.05044497 C35.9941978,1.09909785 36.1459861,1.18432201 36.2647555,1.27721962 C36.4084945,1.39411713 36.6299345,1.67770789 36.9210264,2.12799188 L39.2891868,5.44569351 C39.8312879,6.30332289 40.1452137,6.80242303 40.2307999,6.94870819 C40.3528548,7.15736045 40.4704743,7.39556362 40.6017285,7.65760344 L40.6017285,8.67849751 C40.573145,10.2108998 40.5514609,11.0242845 40.5445615,11.1455901 C40.5263272,11.5913027 40.4806592,11.8794649 40.4019725,11.9963624 C40.3471053,12.08126 40.2467344,12.1426476 40.0880466,12.1948923 C39.9295231,12.2458308 39.4946924,12.294647 38.7756692,12.3081979 L38.7756692,12.8469714 C39.9283732,12.8051756 40.840253,12.7903186 41.5431774,12.7903186 C42.2736997,12.7903186 43.1615955,12.8051756 44.1682608,12.8469714 L44.1682608,12.3081979 C43.4457879,12.294647 43.0075074,12.2458308 42.8557191,12.1948923 C42.7027809,12.1426476 42.5830258,12.0699948 42.513374,11.9679543 C42.4425724,11.8636282 42.3890193,11.5289356 42.3706208,10.9754683 C42.3330022,10.2267365 42.313618,9.47245366 42.313618,8.67849751 L42.313618,7.99784704 C42.313618,7.83229665 42.3592859,7.67017482 42.4277878,7.48748164 C42.4928399,7.30266602 42.7918169,6.79785162 43.3122339,5.98463023 L46.0229036,2.12799188 C46.3571993,1.67770789 46.6083728,1.39411713 46.7647607,1.27721962 C46.8902653,1.18415875 47.0305545,1.09909785 47.2212755,1.05044497 C47.4083826,1.00277168 47.6868254,0.977792188 48.4196475,0.965384072 L48.4196475,0.398202563 C47.2051768,0.435590175 46.8662815,0.454855408 46.2510789,0.454855408 C45.6143565,0.454855408 44.9419869,0.435590175 43.7973322,0.398202563 L43.7973322,0.965384072 C44.5117558,0.977955453 45.0459717,1.00277168 45.1668767,1.05044497 C45.287946,1.09909785 45.3403491,1.17289348 45.3380492,1.27721962 C45.3334496,1.3826886 45.1611272,1.7150955 44.7959482,2.26970563 L41.8285197,6.72193354 L39.0610115,2.26970563 C38.743636,1.7150955 38.599897,1.3826886 38.6044967,1.27721962 C38.6109033,1.17289348 38.6785838,1.09909785 38.8040884,1.05044497 C38.9309072,1.00277168 39.5459456,0.977792188 40.2593834,0.965384072 L40.2593834,0.398202563 C39.1134146,0.435590175 37.4756122,0.454855408 36.8354401,0.454855408 C36.2236873,0.454855408 35.8539086,0.435590175 34.6384523,0.398202563 L34.6384523,0.398202563 Z M54.5825155,0.851915118 C55.2594847,0.851915118 55.8802726,0.967669778 56.4657418,1.16391393 C57.050061,1.36130093 57.5248102,1.58007561 57.8924533,1.87280918 C58.2576323,2.16325705 58.5965276,2.50692921 58.8624857,2.89370325 C59.1272938,3.27933443 59.3293497,3.71721031 59.490173,4.1980248 C59.7480817,4.98528711 59.8896851,5.84961034 59.8896851,6.77858639 C59.8896851,7.87327609 59.7081633,8.83735404 59.347584,9.67098352 C58.9868404,10.5036334 58.4242051,11.1400391 57.6926972,11.5993027 C56.9587252,12.0564438 56.1164972,12.2799532 55.1247808,12.2799532 C54.410193,12.2799532 53.7437372,12.1903208 53.1559682,11.9679543 C52.5693492,11.7434654 52.0385829,11.3668138 51.5580842,10.8904074 C51.0821852,10.4162868 50.7101067,9.83555432 50.4168793,9.13221006 C50.2376574,8.71604838 50.0778197,8.23278492 49.9603645,7.65776671 C49.8450448,7.08372808 49.789192,6.51311801 49.789192,5.95622218 C49.789192,4.96373617 49.9569147,4.07557629 50.331293,3.29059969 C50.7033715,2.50578636 51.2761917,1.89093156 52.0147633,1.47574947 C52.7531707,1.06171024 53.603448,0.851915118 54.5825155,0.851915118 L54.5825155,0.851915118 Z M29.7307947,2.69517339 L32.0419524,7.96960225 L27.3626344,7.96960225 L29.7307947,2.69517339 L29.7307947,2.69517339 Z M7.70374923,16.8454868 C5.32753947,16.8454868 3.43182841,17.462464 2.05439884,18.688745 C0.681404636,19.9148628 0,21.448408 0,23.3109315 C0,24.0493776 0.108420217,24.7344363 0.31392581,25.3527196 C0.516967307,25.9708397 0.810358985,26.552715 1.19837194,27.0825089 C1.59098455,27.6109967 2.0954671,28.0784235 2.71066969,28.5002994 C3.32570802,28.9246244 4.03224643,29.2364599 4.85049052,29.4643774 C5.67563408,29.6924582 6.57387915,29.8330291 7.5325767,29.8330291 C8.34638542,29.8330291 9.09612765,29.7321315 9.7865673,29.5778464 C10.4783211,29.4247041 11.1768102,29.1865009 11.8979689,28.840543 L12.2688975,28.0181788 L12.1263084,27.819649 C11.6389103,28.1407906 11.1334421,28.3801366 10.6425942,28.5287075 C9.91667156,28.7476454 9.15214476,28.8689511 8.30301734,28.8689511 C6.42439067,28.8689511 4.90535772,28.3290348 3.76628835,27.2526307 C2.62261934,26.1772063 2.05439884,24.7424362 2.05439884,22.9706879 C2.05883421,21.9564877 2.21407225,21.1148582 2.51091366,20.4467791 C2.80874071,19.7775572 3.18656874,19.2353552 3.65211858,18.8020507 C4.12013251,18.3664605 4.66338351,18.0647474 5.27842183,17.8663808 C5.88902478,17.667851 6.62184688,17.5374025 7.50399319,17.525974 C8.68298091,17.525974 9.57777625,17.673402 10.1860794,17.9514417 C10.7989821,18.2316039 11.1528263,18.652337 11.2132788,19.2275185 L11.2132788,20.2766573 L11.7839634,20.2766573 C11.8192821,19.6188639 11.8854841,19.0436825 11.9835552,18.546868 C12.0510714,18.2371549 12.1353435,17.9037684 12.2688975,17.5827901 C12.1148093,17.5509535 11.7016626,17.4716068 11.0135228,17.2991993 C10.324233,17.1267918 9.7512486,16.9917719 9.27304973,16.9305477 C8.79140113,16.8716091 8.26638444,16.8454868 7.70374923,16.8454868 L7.70374923,16.8454868 Z M62.6573575,16.8454868 C60.2788479,16.8454868 58.4094206,17.462464 57.0364264,18.688745 C55.6611323,19.9148628 54.9820275,21.448408 54.9820275,23.3109315 C54.9820275,24.0493776 55.0618642,24.7344363 55.2673698,25.3527196 C55.4728754,25.9708397 55.7615032,26.552715 56.151816,27.0825089 C56.542293,27.6109967 57.0477612,28.0784235 57.6641137,28.5002994 C58.2804662,28.9246244 59.0154239,29.2364599 59.832518,29.4643774 C60.6578259,29.6924582 61.5286373,29.8330291 62.4860207,29.8330291 C63.2998294,29.8330291 64.0770053,29.7321315 64.7687591,29.5778464 C65.4614986,29.4247041 66.1588377,29.1865009 66.8801607,28.840543 L67.2510892,28.0181788 L67.0797525,27.819649 C66.5925186,28.1407906 66.1154696,28.3801366 65.6246217,28.5287075 C64.8988634,28.7476454 64.103289,28.8689511 63.2564613,28.8689511 C61.3778347,28.8689511 59.8611016,28.3290348 58.7198966,27.2526307 C57.5762276,26.1772063 57.0078429,24.7424362 57.0078429,22.9706879 C57.0142495,21.9564877 57.1676805,21.1148582 57.4643577,20.4467791 C57.7633346,19.7775572 58.1651465,19.2353552 58.6343104,18.8020507 C59.10216,18.3664605 59.6168275,18.0647474 60.2320301,17.8663808 C60.8426331,17.667851 61.6027245,17.5374025 62.4860207,17.525974 C63.6628729,17.525974 64.5598038,17.673402 65.1681069,17.9514417 C65.7810097,18.2316039 66.1039705,18.652337 66.1667228,19.2275185 L66.1667228,20.2766573 L66.7374074,20.2766573 C66.7761758,19.6188639 66.8390924,19.0436825 66.9371634,18.546868 C67.0045154,18.2371549 67.1152354,17.9037684 67.2510892,17.5827901 C67.0947013,17.5509535 66.6575707,17.4716068 65.967131,17.2991993 C65.277677,17.1267918 64.703707,16.9917719 64.2264937,16.9305477 C63.7450094,16.8716091 63.2199927,16.8454868 62.6573575,16.8454868 L62.6573575,16.8454868 Z M13.7526117,17.0722614 L13.7526117,17.6110349 C14.4727848,17.6224634 14.9087655,17.6474429 15.0651534,17.6960958 C15.2180916,17.7471976 15.3094274,17.8480952 15.3790792,17.9512785 C15.4474168,18.0578903 15.5034339,18.3880115 15.5216682,18.9439277 C15.5569869,19.7094758 15.578671,20.4729015 15.578671,21.2691434 L15.578671,26.0332068 C15.578671,26.1886348 15.5569869,26.6763064 15.5216682,27.4794054 C15.5034339,28.0238931 15.4635156,28.369851 15.4074985,28.5287075 C15.3858144,28.6149113 15.3539454,28.6784212 15.293493,28.7270741 C15.190658,28.8247064 14.9281497,28.9528691 14.5516358,29.1241338 L14.5516358,29.5778464 C15.1622388,29.5425812 15.7864764,29.5211935 16.3776951,29.5211935 L21.3137719,29.5778464 C21.9802277,29.5778464 22.4756752,29.5620097 22.7974861,29.5496016 C22.9469746,29.5370302 23.1444308,29.512214 23.39659,29.4645407 C23.5255443,28.2859329 23.6602482,27.2764674 23.7961021,26.4018585 L23.1968339,26.4018585 L22.8259054,27.8482203 C22.7666028,28.0749949 22.6798666,28.2939329 22.5977301,28.4720547 C21.900391,28.6852783 20.6050979,28.7838902 18.8600253,28.7838902 C18.1661359,28.7838902 18.0803853,28.7634821 17.376311,28.7272374 C17.3398424,28.3381776 17.319144,27.8447917 17.319144,27.2242227 L17.319144,21.2693066 C17.3465776,19.7174758 17.3671117,18.8918463 17.376311,18.7738059 C17.3956953,18.3223791 17.4448129,18.0399312 17.5189,17.9230337 C17.5795168,17.8301361 17.7027216,17.7473609 17.8614094,17.696259 C18.0199329,17.6474429 18.4399791,17.6224634 19.1737868,17.6111981 L19.1737868,17.0724247 C17.7984928,17.1075266 16.9140467,17.1006695 16.5202841,17.1006695 C16.1608547,17.1006695 15.2557102,17.1070368 13.7526117,17.0724247 L13.7526117,17.0722614 L13.7526117,17.0722614 Z M24.9658905,17.0722614 L24.9658905,17.6110349 C25.6826138,17.6224634 26.1243441,17.6474429 26.2784322,17.6960958 C26.4325203,17.7449119 26.5488257,17.8480952 26.6207772,17.9512785 C26.6892791,18.0578903 26.7144129,18.3880115 26.734947,18.9439277 C26.7691158,19.708333 26.7919498,20.4717586 26.7919498,21.2691434 L26.7919498,25.3525563 C26.7646804,26.9032443 26.7418465,27.7527105 26.734947,27.8764651 C26.7144129,28.3256062 26.6927288,28.6114827 26.6207772,28.7270741 C26.5580249,28.814584 26.43712,28.8735225 26.2784322,28.9256039 C26.1220443,28.9767058 25.680314,28.9982567 24.9658905,29.0106648 L24.9658905,29.5778464 L27.8191492,29.5210302 C28.231146,29.5210302 29.0791235,29.5425812 30.3870656,29.5778464 L30.3870656,29.0106648 C29.6544078,28.9982567 29.2013427,28.9767058 29.0461046,28.9256039 C28.8897167,28.8735225 28.774397,28.8020126 28.7037596,28.6988293 C28.631808,28.5922175 28.6078241,28.2632391 28.5895898,27.7063433 C28.5723412,26.947489 28.5610063,26.1567982 28.5610063,25.3525563 L28.6181733,18.7738059 C28.6352577,18.321073 28.6592416,18.0386251 28.7323431,17.9230337 C28.7927956,17.8276871 28.9183002,17.7449119 29.0746882,17.6960958 C29.2287763,17.6474429 29.6613072,17.6223001 30.3870656,17.6110349 L30.3870656,17.0722614 C29.1955931,17.1086694 28.289463,17.1006695 27.6765602,17.1006695 C27.0396735,17.1006695 26.1335434,17.1088327 24.9660548,17.0722614 L24.9658905,17.0722614 L24.9658905,17.0722614 Z M32.3558782,17.0722614 L32.3558782,17.6110349 C32.8546112,17.6156063 33.1810217,17.6417286 33.3259106,17.667851 C33.4730992,17.6960958 33.5861191,17.7449119 33.6968391,17.8379728 C33.8737612,17.9854008 33.9902308,18.1305431 34.0391842,18.2350325 C34.064318,18.2916853 34.0677677,18.4051543 34.0677677,18.6036841 L34.0677677,25.7780241 C34.0677677,26.3406342 34.0759813,27.0132847 34.0391842,27.7914042 C34.0129005,28.2893615 33.9593475,28.5819318 33.8965952,28.6988293 C33.8589766,28.7781759 33.7858751,28.8372777 33.6968391,28.8689511 C33.4936334,28.962012 33.0896859,29.0051138 32.4414644,29.0106648 L32.4414644,29.5778464 C33.2767929,29.5427444 34.0368844,29.5211935 34.7526221,29.5211935 C35.4008435,29.5211935 36.0079968,29.5427444 36.5500978,29.5778464 L36.5500978,29.0106648 C35.9018764,29.0052771 35.4716452,28.9562977 35.2661396,28.8689511 C35.1771036,28.8407063 35.1109016,28.7873188 35.0663836,28.6988293 C35.0139805,28.587646 34.9738979,28.2836472 34.9522138,27.7914042 C34.9101599,26.9984276 34.8952111,26.3043895 34.8952111,25.7213713 L34.8952111,18.8872749 L41.4577554,26.4586746 L42.6559631,27.9048731 C42.8967874,28.1917292 43.2586809,28.6183398 43.7687487,29.1809499 C43.9606197,29.3873165 44.0940094,29.488214 44.1396773,29.5211935 C44.1705606,29.546173 44.2469476,29.6562134 44.2824306,29.6629073 L44.5106059,29.8898452 L45.4236355,29.8898452 C45.3871669,27.5463439 45.3666327,25.9561459 45.3666327,25.0973736 L45.3666327,20.8438389 C45.3666327,20.2823716 45.3871669,19.6267006 45.4236355,18.8588668 C45.4454838,18.349481 45.5036365,18.0342169 45.5663888,17.9230337 C45.6017075,17.8391156 45.6508251,17.7891566 45.7375613,17.7529119 C45.9407671,17.6722591 46.3744479,17.6156063 47.0215195,17.6110349 L47.0215195,17.0722614 C46.4439354,17.1073633 45.786679,17.1006695 45.0812904,17.1006695 C44.3280985,17.1006695 43.6158105,17.1070368 42.8843026,17.0722614 L42.8843026,17.6110349 C43.5313742,17.6156063 43.934336,17.6724224 44.1396773,17.7529119 C44.2275634,17.7891566 44.2949153,17.843687 44.3394333,17.9230337 C44.3929863,18.0399312 44.4284693,18.3416443 44.4536031,18.8304588 C44.4889218,19.597313 44.5106059,20.2665349 44.5106059,20.8438389 L44.5106059,27.2526307 C44.2778309,27.0302642 43.9924886,26.7319797 43.6547432,26.3452056 C43.1170775,25.7610446 42.424338,24.9556599 41.5433416,23.9347658 L38.7756692,20.7303699 L36.8924429,18.4902152 C36.6493188,18.1805021 36.2682053,17.723361 35.751238,17.0722614 C35.2878237,17.1073633 34.8209597,17.1006695 34.35311,17.1006695 C34.0792668,17.1006695 33.4206961,17.1070368 32.3558782,17.0722614 L32.3558782,17.0722614 Z M48.6194035,17.0722614 L48.6194035,17.6110349 C49.3417122,17.6224634 49.7732575,17.6474429 49.931781,17.6960958 C50.0847192,17.7449119 50.2057884,17.8480952 50.2742903,17.9512785 C50.3439421,18.0578903 50.3689116,18.3880115 50.3882958,18.9439277 C50.4249287,19.708333 50.4454628,20.4717586 50.4454628,21.2691434 L50.4454628,25.3525563 C50.4180292,26.9032443 50.4009448,27.7527105 50.3882958,27.8764651 C50.3689116,28.3256062 50.3483774,28.6114827 50.2742903,28.7270741 C50.2125236,28.814584 50.0881689,28.8735225 49.931781,28.9256039 C49.7721076,28.9767058 49.3394123,28.9982567 48.6194035,29.0106648 L48.6194035,29.5778464 L51.4440787,29.5210302 C51.8595253,29.5210302 52.7349364,29.5425812 54.0405786,29.5778464 L54.0405786,29.0106648 C53.3077565,28.9982567 52.8558414,28.9767058 52.6994534,28.9256039 C52.5430655,28.8735225 52.4267601,28.8020126 52.3571084,28.6988293 C52.2863067,28.5922175 52.2588731,28.2632391 52.2429386,27.7063433 C52.2235544,26.947489 52.2145194,26.1567982 52.2145194,25.3525563 L52.2145194,21.2691434 C52.2417887,19.7186187 52.2339036,18.8893973 52.2429386,18.7738059 C52.260023,18.321073 52.3114405,18.0386251 52.3856919,17.9230337 C52.4472943,17.8276871 52.571649,17.7449119 52.7280369,17.6960958 C52.8821251,17.6474429 53.3158059,17.6223001 54.0405786,17.6110349 L54.0405786,17.0722614 C52.8523916,17.1086694 51.9428117,17.1006695 51.3299089,17.1006695 C50.6918724,17.1006695 49.789192,17.1088327 48.6194035,17.0722614 L48.6194035,17.0722614 Z" id="Fill-2"></path>
</svg>
