<svg xmlns="http://www.w3.org/2000/svg" width="229" height="50" viewBox="0 0 229 50">
  <g fill="#45546E" fill-rule="evenodd">
    <path d="M92.6385924 7.20882968L92.0531041 7.20882968 91.4657948 7.40415361 91.075621 7.79298026 90.8825829 8.57336539 90.7833322 9.74576427 90.7833322 18.0372423C89.8113125 19.7933365 88.1490904 20.7672243 85.9072988 20.7672243 83.6650518 20.7672243 82.1057228 19.7933365 81.2279457 18.0372423L81.2279457 7.9901254 81.0326313 7.40460891 80.447143 7.20928498 79.6649744 7.20928498 79.5652684 7.11002947 79.5652684 6.91652674 79.6649744 6.81863711 80.738066 6.81863711 82.2992162 6.91652674 83.8603664 6.81863711 84.9334579 6.81863711 85.0327087 6.91652674 85.0327087 7.11002947 84.9334579 7.20928498 84.1494682 7.20928498 83.5676222 7.40460891 83.3723078 7.9901254 83.3723078 17.4480834C83.3723078 18.7201931 84.8360283 19.8889496 86.5902166 19.8889496 88.3480472 19.8889496 90.0048058 18.7201931 90.0048058 17.4480834L90.0048058 9.74576427 89.9073762 8.57336539 89.7120618 7.79298026 89.321888 7.40415361 88.7382209 7.20882968 88.1490904 7.20882968 88.0534819 7.10957416 88.0534819 6.91607143 88.1490904 6.81818182 89.030965 6.81818182 90.3968007 6.91607143 91.7608153 6.81818182 92.6390476 6.81818182 92.7346561 6.91607143 92.7346561 7.10957416 92.6385924 7.20882968M94.5708644 20.9118002C93.790517 20.9118002 93.2050287 20.3281049 93.2050287 19.5458985 93.2050287 18.7650582 93.790517 18.1818182 94.5708644 18.1818182 95.3493907 18.1818182 95.9385212 18.7650582 95.9385212 19.5458985 95.9385212 20.3281049 95.3498461 20.9118002 94.5708644 20.9118002M101.101284 21.0590721C99.6375631 21.0590721 98.759786 20.7663138 97.9776175 19.9859286L97.8833748 19.9859286 97.1012062 20.7667691 96.9077129 20.7667691 96.8084621 20.6707007 96.6149687 16.2788717 96.7105772 16.085369 97.0033214 16.085369 97.100751 16.2788717 97.4909247 17.3538363C98.2712721 19.4983017 99.4422486 20.5714451 100.905514 20.5714451L101.100828 20.5714451C102.659702 20.5714451 103.830679 19.4026886 103.830679 17.8432843 103.830679 16.3758507 102.855017 15.3049839 100.710199 14.5223222 97.9207076 13.5083679 96.9068023 12.3778567 96.9068023 10.4264386 96.9068023 8.47729698 98.6596247 6.81818182 101.295232 6.81818182 102.368324 6.81818182 103.342165 7.20837437 103.929474 7.79206966L104.025083 7.79206966 104.709822 7.11094006 104.90286 7.11094006 105.00211 7.20882968 105.00211 10.8170864 104.90286 11.0124104 104.613758 11.0124104 104.512686 10.8170864 104.122512 9.74530897C103.596665 8.28197305 102.465754 7.30626399 101.295232 7.30626399L101.195982 7.30626399C99.7327163 7.30626399 98.7588755 8.28242834 98.7588755 9.74530897 98.7588755 11.1093893 99.4417934 11.752729 101.880721 12.5713594 104.475353 13.4528213 105.684118 14.8150805 105.684118 16.8657541 105.684573 19.3043438 103.831134 21.0590721 101.101284 21.0590721M108.210625 20.9118002C107.428456 20.9118002 106.844789 20.3281049 106.844789 19.5458985 106.844789 18.7650582 107.428456 18.1818182 108.210625 18.1818182 108.990972 18.1818182 109.578281 18.7650582 109.578281 19.5458985 109.578281 20.3281049 108.991427 20.9118002 108.210625 20.9118002M121.14107 20.4762874L119.970549 20.4762874 117.630417 20.3802189 116.069267 20.4762874 114.896925 20.4762874 114.801316 20.3802189 114.801316 20.1798867 114.896925 20.0860948 115.776978 20.0860948 116.362466 19.8889496 116.55778 19.3038884 116.55778 7.9896701 116.362466 7.40597482 115.776978 7.21065089 114.99663 7.21065089 114.896925 7.11139536 114.896925 6.91607144 114.99663 6.81818182 116.069267 6.81818182 117.630417 6.91607144 119.970549 6.81818182 121.14107 6.81818182C124.846582 6.81818182 127.580074 9.54861914 127.580074 13.2561315L127.580074 13.6449581C127.57962 17.3542916 124.652634 20.4762874 121.14107 20.4762874M120.653012 7.3067193L119.482035 7.3067193 118.897002 7.50158793 118.703508 7.89178049 118.703508 19.4008675 118.897002 19.79106 119.482035 19.986384 120.653012 19.986384C123.579997 19.986384 125.238122 17.6443179 125.238122 13.6445027 125.238577 9.64650876 123.579997 7.3067193 120.653012 7.3067193M136.729878 15.7522783L130.683323 15.7522783 130.587259 15.9512447 130.587259 16.6305531C130.587259 18.9721636 131.559279 20.3394311 133.315288 20.3394311 134.681124 20.3394311 135.754215 19.3637222 136.045138 17.8011307L136.143024 17.703241 136.336061 17.703241C136.536384 17.703241 136.729878 17.898565 136.729878 18.1913233 136.242274 20.046673 134.876438 21.1202716 133.022544 21.1202716 130.292694 21.1202716 128.441076 19.3641774 128.441076 16.4352291L128.441076 16.2399051C128.441076 13.41431 130.390123 11.3636364 133.022544 11.3636364 135.266612 11.3636364 136.729878 13.0236622 136.827307 15.6562099L136.729878 15.7522783 136.729878 15.7522783 136.729878 15.7522783zM132.829051 11.8498974C131.558823 11.8498974 130.780297 13.1197306 130.622771 15.2264061L134.58506 15.2264061 134.778553 15.0333587C134.779009 12.9244066 134.097912 11.8498974 132.829051 11.8498974L132.829051 11.8498974 132.829051 11.8498974zM143.679145 21.1202716C142.410738 21.1202716 141.72782 20.8270581 140.949294 19.949694L140.949294 24.6288175 141.142787 25.0226525 141.72782 25.2161552 142.410738 25.2161552 142.508622 25.3135895 142.508622 25.5089135 142.410738 25.6045266 141.436898 25.6045266 139.973632 25.5089135 138.509912 25.6045266 137.63168 25.6045266 137.53425 25.5089135 137.53425 25.3135895 137.63168 25.2161552 138.217167 25.2161552 138.800379 25.0226525 138.999336 24.6288175 138.999336 12.5360353 138.800379 12.1458427 138.217167 11.9486976 137.729564 11.9486976 137.63168 11.8512633 137.63168 11.6559393 137.729564 11.5616922 140.851409 11.5616922 140.948839 11.6559393 140.948839 13.3145992C141.534326 12.1458427 142.704849 11.3636364 143.874003 11.3636364 146.215501 11.3636364 147.776196 13.2189861 147.776196 16.0464024 147.776651 18.9717084 146.118071 21.1202716 143.679145 21.1202716M143.288516 12.2414558C142.314674 12.2414558 141.436898 13.0222962 140.948839 14.3863767L140.948839 18.8742741C141.534326 19.9492386 142.215423 20.33761 143.192906 20.33761 144.656172 20.33761 145.631834 18.7782057 145.631834 16.2417264 145.632289 13.6091786 144.851487 12.2414558 143.288516 12.2414558M156.216133 21.1202716C155.3379 21.1202716 154.654982 20.4354995 154.461489 19.3641774 153.972065 20.4359549 152.900793 21.1202716 151.634209 21.1202716 149.973808 21.1202716 148.900717 20.1427414 148.900717 18.6794055 148.900717 16.8295193 150.559297 15.8497126 153.77675 15.8497126L154.268451 15.8497126 154.364059 15.7522783 154.364059 13.41431C154.130956 12.5342141 153.485827 12.0465872 152.604407 12.0465872 152.023017 12.0465872 151.39974 12.2797011 151.0469 12.6352908L151.0469 13.99755C150.853862 14.4851769 150.463688 14.7765692 149.973808 14.7765692 149.390596 14.7765692 149.097852 14.4851769 149.097852 13.9019369 149.097852 12.7295381 151.0469 11.3636364 153.000044 11.3636364L153.095653 11.3636364C154.654982 11.3636364 155.829145 12.0465872 156.315383 13.312778L156.315383 19.6564803 156.508421 20.046673 156.80162 20.33761 157.19316 20.4354995 157.78047 20.2401757 157.970321 20.2401757 158.069571 20.33761 158.069571 20.5347551C157.581968 20.9249477 156.998301 21.1202716 156.216133 21.1202716M154.364059 16.4352291L154.268451 16.3391607 153.77675 16.3391607C151.925132 16.3391607 150.853862 17.1796455 150.853862 18.5837923 150.853862 19.5972914 151.437073 20.240631 152.412735 20.240631 153.290968 20.240631 153.972065 19.71658 154.364059 18.7768398L154.364059 16.4352291"/>
    <path d="M164.041355 14.288487C163.652548 14.288487 163.258732 13.9993712 163.164945 13.5099232L163.164945 13.4124889 163.847863 12.7277168C163.847863 12.3985345 163.592906 12.1458427 163.258732 12.1458427 162.482027 12.1458427 161.797287 13.350568 161.408935 15.4631624L161.408935 19.949694 161.604249 20.3380652 162.186095 20.5333892 162.970085 20.5333892 163.065694 20.6290023 163.065694 20.8279686 162.970085 20.924037 161.898815 20.924037 160.433273 20.8279686 158.967731 20.924037 158.091776 20.924037 157.99389 20.8279686 157.99389 20.6290023 158.091776 20.5333892 158.674987 20.5333892 159.260476 20.3380652 159.459432 19.949694 159.459432 12.7281722 159.260476 12.1462981 158.674987 11.9509741 158.189205 11.9509741 158.091776 11.8517186 158.091776 11.6563947 158.189205 11.5621474 161.11619 11.5621474 161.21362 11.6563947 161.21362 14.288487C161.603795 12.3375242 162.384141 11.3636364 163.652548 11.3636364 164.626388 11.3636364 165.215519 11.9887641 165.215519 12.9262278 165.215519 13.705247 164.724273 14.288487 164.041355 14.288487M169.85261 20.4379756C168.680267 20.4379756 167.899465 19.9480722 167.411862 18.9760055L167.411862 11.5591598 167.316252 11.4635466 166.046026 11.4635466 165.950417 11.3661123 165.950417 11.1689672 166.046026 11.0728988 167.216547 10.8812173 167.411862 10.6845274 167.803857 8.73310938 167.999171 8.53778544 169.169692 7.95454545 169.363185 8.14577168 169.363185 10.7801406 169.460615 10.8812173 171.898176 10.8812173 171.999704 10.9754645 171.999704 11.3656571 171.898176 11.4630914 169.460615 11.4630914 169.363185 11.5587045 169.363185 18.0954543C169.363185 19.1685977 169.655929 19.7545695 170.340213 19.7545695 170.963489 19.7545695 171.31451 19.2687638 171.31451 18.390489L171.31451 17.1202005 171.410117 17.022311C171.704228 17.022311 171.999248 17.3168904 171.999248 17.8049726L171.999248 18.2907782C171.999248 19.5597009 171.121016 20.4379756 169.85261 20.4379756M188.769696 20.9235818L187.989348 20.9235818 186.527449 20.8275133 185.062363 20.9235818 184.283836 20.9235818 184.185951 20.8275133 184.185951 20.6271811 184.283836 20.5333892 184.769618 20.5333892 185.35283 20.3344228 185.549966 19.9478727 185.549966 13.311412C185.255856 12.6321036 184.769618 12.3375242 184.0867 12.3375242 183.208468 12.3375242 182.328869 13.1179093 181.802568 14.483811L181.802568 19.9478727 181.999703 20.3344228 182.581549 20.5333892 183.072796 20.5333892 183.168403 20.6271811 183.168403 20.8275133 183.072796 20.9235818 182.328415 20.9235818 180.866515 20.8275133 179.401429 20.9235818 178.624268 20.9235818 178.526839 20.8275133 178.526839 20.6271811 178.624268 20.5333892 179.108685 20.5333892 179.695539 20.3344228 179.892674 19.9478727 179.892674 13.311412C179.598564 12.6321036 179.108685 12.3375242 178.429409 12.3375242 177.551176 12.3375242 176.674766 13.1179093 176.143455 14.483811L176.143455 19.9478727 176.342412 20.3344228 176.92608 20.5333892 177.413683 20.5333892 177.512934 20.6271811 177.512934 20.8275133 177.413683 20.9235818 176.674766 20.9235818 175.209224 20.8275133 173.745958 20.9235818 172.867726 20.9235818 172.770297 20.8275133 172.770297 20.6271811 172.867726 20.5333892 173.453215 20.5333892 174.038247 20.3344228 174.233561 19.9478727 174.233561 12.5328482 174.038247 12.1426556 173.453215 11.9491528 172.967432 11.9491528 172.867726 11.8480761 172.867726 11.6545734 172.967432 11.558505 176.047847 11.558505 176.143455 11.6545734 176.143455 13.5099232C176.864617 12.1422003 178.038779 11.3636364 179.209302 11.3636364 180.379823 11.3636364 181.35594 12.1422003 181.745658 13.5099232 182.428576 12.1422003 183.595455 11.3636364 184.768708 11.3636364 186.034838 11.3636364 187.108385 12.1422003 187.458493 13.4106676L187.458493 19.9474174 187.655629 20.3339676 188.241118 20.5329339 188.76833 20.5329339 188.864394 20.6267258 188.864394 20.8270581 188.769696 20.9235818M196.973517 15.7522783L190.928785 15.7522783 190.829078 15.9512447 190.829078 16.6305531C190.829078 18.9721636 191.80292 20.3394311 193.560749 20.3394311 194.928407 20.3394311 195.998311 19.3637222 196.292422 17.8011307L196.390306 17.703241 196.585621 17.703241C196.778659 17.703241 196.973973 17.898565 196.973973 18.1913233 196.484549 20.046673 195.120534 21.1202716 193.26664 21.1202716 190.53679 21.1202716 188.683351 19.3641774 188.683351 16.4352291L188.683351 16.2399051C188.683351 13.41431 190.634219 11.3636364 193.26664 11.3636364 195.510708 11.3636364 196.973973 13.0236622 197.070037 15.6562099L196.973517 15.7522783 196.973517 15.7522783 196.973517 15.7522783zM193.073146 11.8498974C191.80292 11.8498974 191.026214 13.1197306 190.868688 15.2264061L194.827335 15.2264061 195.02265 15.0333587C195.02265 12.9244066 194.339732 11.8498974 193.073146 11.8498974L193.073146 11.8498974 193.073146 11.8498974zM208.411376 20.9231265L207.533144 20.9231265 206.069878 20.827058 204.604336 20.9231265 203.726559 20.9231265 203.628675 20.827058 203.628675 20.6267258 203.726559 20.5329339 204.311593 20.5329339 204.895259 20.3339675 205.094216 19.9474174 205.094216 13.4106676C204.895259 12.767328 204.311593 12.3375242 203.628675 12.3375242 202.556949 12.3375242 201.681448 13.1179093 201.189747 14.5835217L201.189747 19.9478727 201.388704 20.3344228 201.972371 20.5333892 202.557403 20.5333892 202.653468 20.627181 202.653468 20.8275133 202.557403 20.9235817 201.681448 20.9235817 200.217728 20.8275133 198.752185 20.9235817 197.874409 20.9235817 197.776524 20.8275133 197.776524 20.627181 197.874409 20.5333892 198.459442 20.5333892 199.04493 20.3344228 199.240244 19.9478727 199.240244 12.5328482 199.04493 12.1426556 198.459442 11.9491528 197.971839 11.9491528 197.874409 11.8480761 197.874409 11.6545734 197.971839 11.558505 201.092318 11.558505 201.189747 11.6545734 201.189747 13.5099231C201.972371 12.0447659 203.043642 11.3636364 204.409477 11.3636364 205.679249 11.3636364 206.651268 12.1422002 207.043264 13.4106676L207.043264 19.9474174 207.240399 20.3339675 207.822245 20.5329339 208.41092 20.5329339 208.506984 20.6267258 208.506984 20.827058 208.411376 20.9231265M211.90717 20.4379756C210.736649 20.4379756 209.957668 19.9480722 209.469609 18.9760055L209.469609 11.5591598 209.374001 11.4635466 208.101952 11.4635466 208.006344 11.3661123 208.006344 11.1689672 208.101952 11.0728988 209.274294 10.8812173 209.469609 10.6845274 209.861604 8.73310938 210.051455 8.53778544 211.223798 7.95454545 211.420933 8.14577168 211.420933 10.7801406 211.516541 10.8812173 213.955469 10.8812173 214.055175 10.9754645 214.055175 11.3656571 213.955469 11.4630914 211.516541 11.4630914 211.420933 11.5587045 211.420933 18.0954543C211.420933 19.1685977 211.711856 19.7545695 212.396596 19.7545695 213.021692 19.7545695 213.370436 19.2687638 213.370436 18.390489L213.370436 17.1202005 213.470141 17.022311C213.759244 17.022311 214.05563 17.3168904 214.05563 17.8049726L214.05563 18.2907782C214.05563 19.5597009 213.177398 20.4379756 211.90717 20.4379756M83.9536984 40.4407299C81.3194567 40.4407299 79.5652684 38.5849249 79.5652684 35.8549428L79.5652684 35.6618955C79.5652684 32.7347683 81.5165923 30.6818182 84.1490129 30.6818182 86.7814336 30.6818182 88.5392642 32.5358019 88.5392642 35.2694264L88.5392642 35.4624739C88.5392642 38.3900563 86.5879402 40.4407299 83.9536984 40.4407299M84.0515833 31.1735427C82.4904331 31.1735427 81.7137279 32.6368786 81.7137279 35.5621847 81.7137279 38.4893118 82.4904331 39.9508265 84.0515833 39.9508265 85.6145546 39.9508265 86.3930809 38.4893118 86.3930809 35.5621847 86.3930809 32.6368786 85.6140993 31.1735427 84.0515833 31.1735427M96.1366637 28.9633247C95.5479886 28.9633247 95.1610018 28.5731322 95.1610018 27.9889816L95.1610018 27.889726 95.8420985 27.2067752C95.5479886 26.8147615 95.1610018 26.6212588 94.6697561 26.6212588 93.8334095 26.6212588 93.2096779 27.4020992 93.2096779 28.4747873L93.2096779 31.3026589 93.3039206 31.4019144 95.3544952 31.4019144 95.4501037 31.499804 95.4501037 31.8895413 95.3544952 31.9856097 93.3039206 31.9856097 93.2096779 32.0848652 93.2096779 39.7908268 93.402716 40.1810193 93.9882041 40.374522 94.8664365 40.374522 94.9638662 40.4737776 94.9638662 40.6691015 94.8664365 40.7651699 93.7933449 40.7651699 92.2340159 40.6691015 90.6728657 40.7651699 89.8925182 40.7651699 89.7950886 40.6691015 89.7950886 40.4737776 89.8925182 40.374522 90.4761854 40.374522 91.0634947 40.1810193 91.2569881 39.7908268 91.2569881 32.0848652 91.1613796 31.9856097 89.8929735 31.9856097 89.7955439 31.8895413 89.7955439 31.6964939 89.8929735 31.596783 91.0634947 31.4014591 91.2569881 31.204314 91.2569881 29.0598484C91.6471618 27.3051201 93.0129975 26.1363636 94.5723265 26.1363636L94.6697561 26.1363636C96.0355918 26.1363636 97.1086835 26.9131064 97.1086835 27.9880709 97.1086835 28.4752425 96.6224459 28.9633247 96.1366637 28.9633247"/>
    <polyline points="110.626 27.661 110.045 27.661 109.455 27.954 108.97 28.44 108.677 29.029 104.679 40.929 104.482 41.026 103.898 41.026 103.703 40.929 99.508 28.344 99.022 27.858 98.433 27.661 97.85 27.661 97.752 27.565 97.752 27.371 97.85 27.273 98.827 27.273 100.388 27.371 101.945 27.273 103.604 27.273 103.703 27.371 103.703 27.565 103.604 27.661 102.727 27.661 102.142 27.858 101.945 28.247 101.945 28.539 104.971 37.611 105.069 38 105.163 37.611 107.896 28.931 107.896 28.44 107.701 28.052 107.508 27.858 106.921 27.661 106.142 27.661 106.045 27.565 106.045 27.371 106.142 27.273 107.41 27.273 108.581 27.371 109.75 27.273 110.626 27.273 110.724 27.371 110.724 27.565 110.626 27.661"/>
    <path d="M117.40916,35.0722813 L111.363971,35.0722813 L111.264721,35.2694264 L111.264721,35.9523772 C111.264721,38.2903455 112.238562,39.6580682 113.996392,39.6580682 C115.362228,39.6580682 116.431678,38.6823592 116.728064,37.1234101 L116.823672,37.0259758 L117.018986,37.0259758 C117.21248,37.0259758 117.40916,37.2190233 117.40916,37.5117815 C116.923378,39.3634888 115.555721,40.4407299 113.701827,40.4407299 C110.975619,40.4407299 109.118082,38.6828144 109.118082,35.7575085 L109.118082,35.5621845 C109.118082,32.7347683 111.071227,30.6818182 113.701827,30.6818182 C115.94726,30.6818182 117.40916,32.3409333 117.50659,34.9766681 L117.40916,35.0722813 L117.40916,35.0722813 L117.40916,35.0722813 Z M113.506512,31.1730874 C112.238106,31.1730874 111.45958,32.4392782 111.30433,34.547775 L115.264343,34.547775 L115.461478,34.3529064 C115.461023,32.2444095 114.776285,31.1730874 113.506512,31.1730874 L113.506512,31.1730874 L113.506512,31.1730874 Z"/>
    <path d="M120.975435 40.8966186C119.804914 40.8966186 119.024566 40.4067153 118.538329 39.4328275L118.538329 32.017803 118.442266 31.9221898 117.172494 31.9221898 117.074609 31.8243002 117.074609 31.6294316 117.172494 31.5333632 118.343015 31.3362181 118.538329 31.1390728 118.928048 29.1899313 119.121541 28.9946074 120.292063 28.4090909 120.487377 28.606236 120.487377 31.2369625 120.585262 31.3362181 123.023734 31.3362181 123.121618 31.4341076 123.121618 31.8238449 123.023734 31.9217345 120.585262 31.9217345 120.487377 32.0173476 120.487377 38.5540974C120.487377 39.6272408 120.778755 40.2132126 121.464859 40.2132126 122.086315 40.2132126 122.440522 39.7233092 122.440522 38.8491322L122.440522 37.5788436 122.536131 37.4814093C122.830696 37.4814093 123.121618 37.7741676 123.121618 38.2617944L123.121618 38.7494214C123.122074 40.018344 122.242476 40.8966186 120.975435 40.8966186M132.185567 35.0722813L126.138557 35.0722813 126.041127 35.2694264 126.041127 35.9523772C126.041127 38.2903455 127.01679 39.6580682 128.770978 39.6580682 130.136813 39.6580682 131.20945 38.6823592 131.502649 37.1234101L131.598258 37.0259758 131.795393 37.0259758C131.990708 37.0259758 132.185567 37.2190233 132.185567 37.5117815 131.696142 39.3634888 130.333949 40.4407299 128.479599 40.4407299 125.747928 40.4407299 123.894489 38.6828144 123.894489 35.7575085L123.894489 35.5621845C123.894489 32.7347683 125.845813 30.6818182 128.479599 30.6818182 130.721846 30.6818182 132.185567 32.3409333 132.284362 34.9766681L132.185567 35.0722813 132.185567 35.0722813 132.185567 35.0722813zM128.285195 31.1730874C127.01679 31.1730874 126.234621 32.4392782 126.078915 34.547775L130.040749 34.547775 130.234243 34.3529064C130.234243 32.2444095 129.553146 31.1730874 128.285195 31.1730874L128.285195 31.1730874 128.285195 31.1730874zM139.034672 33.6089453C138.64632 33.6089453 138.256146 33.3180083 138.156896 32.8303814L138.156896 32.7324918 138.841634 32.0477198C138.841634 31.7171716 138.585312 31.466301 138.256146 31.466301 137.475799 31.466301 136.792881 32.6710263 136.402708 34.7836207L136.402708 39.2678757 136.5962 39.6580683 137.179412 39.851571 137.962036 39.851571 138.057645 39.9490053 138.057645 40.1461505 137.962036 40.24404 136.890311 40.24404 135.425224 40.1461505 133.961503 40.24404 133.085093 40.24404 132.987663 40.1461505 132.987663 39.9490053 133.085093 39.851571 133.670581 39.851571 134.253792 39.6580683 134.450928 39.2678757 134.450928 32.0481751 134.253792 31.4667564 133.670581 31.2714324 133.182977 31.2714324 133.085093 31.1739981 133.085093 30.976853 133.182977 30.8789633 136.108142 30.8789633 136.207393 30.976853 136.207393 33.6089453C136.5962 31.6579825 137.377914 30.6818182 138.64632 30.6818182 139.620161 30.6818182 140.20747 31.3069458 140.20747 32.2430438 140.20747 33.02525 139.71759 33.6089453 139.034672 33.6089453M148.259606 40.4407299C147.381373 40.4407299 146.698456 39.7559578 146.503596 38.6828145 146.014172 39.7559578 144.944266 40.4407299 143.676316 40.4407299 142.015915 40.4407299 140.94419 39.4631997 140.94419 37.9998638 140.94419 36.1458799 142.603224 35.1701709 145.818857 35.1701709L146.310102 35.1701709 146.407988 35.0727366 146.407988 32.7347683C146.170787 31.8564935 145.527933 31.3665902 144.648336 31.3665902 144.06649 31.3665902 143.441392 31.6019806 143.090828 31.9521067L143.090828 33.3198295C142.893692 33.803814 142.507161 34.0983934 142.015915 34.0983934 141.434524 34.0983934 141.139504 33.8042693 141.139504 33.2187527 141.139504 32.049541 143.090828 30.6818182 145.04033 30.6818182L145.139581 30.6818182C146.69891 30.6818182 147.871252 31.3665902 148.357035 32.6368786L148.357035 38.9751175 148.552349 39.3639441 148.845094 39.6580683 149.235267 39.7559578 149.818934 39.5624551 150.013794 39.5624551 150.111678 39.6580683 150.111678 39.851571C149.623619 40.2417635 149.039952 40.4407299 148.259606 40.4407299M146.407988 35.7570533L146.310102 35.6614401 145.818857 35.6614401C143.96906 35.6614401 142.893692 36.4996484 142.893692 37.9015188 142.893692 38.916839 143.47918 39.5619999 144.456663 39.5619999 145.333075 39.5619999 146.014172 39.0324853 146.407988 38.0963874L146.407988 35.7570533M161.807041 40.2422189L160.926988 40.2422189 159.466909 40.1443292 158.003644 40.2422189 157.12359 40.2422189 157.025705 40.1443292 157.025705 39.9471841 157.12359 39.851571 157.708622 39.851571 158.294111 39.656247 158.491247 39.2660545 158.491247 32.7306706C158.294111 32.0877863 157.708622 31.6561614 157.025705 31.6561614 155.953069 31.6561614 155.076658 32.4401889 154.587233 33.9021589L154.587233 39.2660545 154.784369 39.656247 155.369401 39.851571 155.953069 39.851571 156.048677 39.9471841 156.048677 40.1443292 155.953069 40.2422189 155.076658 40.2422189 153.612937 40.1443292 152.149672 40.2422189 151.27144 40.2422189 151.17401 40.1443292 151.17401 39.9471841 151.27144 39.851571 151.855107 39.851571 152.44014 39.656247 152.635455 39.2660545 152.635455 31.8533065 152.44014 31.4631139 151.855107 31.26779 151.369324 31.26779 151.27144 31.1721768 151.27144 30.9732106 151.369324 30.8771422 154.490714 30.8771422 154.586778 30.9732106 154.586778 32.8303814C155.368947 31.3665902 156.440217 30.6818182 157.806052 30.6818182 159.07628 30.6818182 160.046478 31.4626586 160.440295 32.7306706L160.440295 39.2660545 160.635609 39.656247 161.21882 39.851571 161.80613 39.851571 161.903559 39.9471841 161.903559 40.1443292 161.807041 40.2422189M166.049763 40.4384533C164.976672 40.4384533 164.392549 40.2431294 163.711453 39.657613L163.612202 39.657613 163.028535 40.2431294 162.83322 40.2431294 162.733969 40.1452398 162.540477 36.9276309 162.636541 36.8301966 162.93065 36.8301966 163.02808 37.0236993C163.651356 38.8754066 164.782724 40.0100156 166.049309 40.0100156L166.15038 40.0100156C167.223471 40.0100156 168.000177 39.3074868 168.000177 38.2921666 168.000177 37.4539583 167.31908 36.768731 165.658679 36.2433142 163.51204 35.5603634 162.733515 34.6820886 162.733515 33.3180083 162.733515 31.8546723 164.00192 30.6818182 166.048853 30.6818182 166.888841 30.6818182 167.651434 30.9763976 168.097606 31.4262345L168.176825 31.4262345 168.724525 30.8789633 168.877954 30.8789633 168.977661 30.9768528 168.977661 33.6107665 168.877954 33.7068349 168.585209 33.7068349 168.487325 33.5133322C168.057542 32.0495409 167.123766 31.1125325 166.048853 31.1125325L165.952789 31.1125325C164.877877 31.1125325 164.194959 31.757238 164.194959 32.7347683 164.194959 33.5133322 164.877877 34.0983934 166.439027 34.4890413 168.392172 34.9766681 169.465264 36.0484456 169.465264 37.5122368 169.466174 39.2655992 168.098517 40.4384533 166.049763 40.4384533M186.426378 39.9916143L185.546324 39.9916143 183.986996 39.8937247 182.424024 39.9916143 180.960759 39.9916143 180.866971 39.8937247 180.866971 39.6965795 180.960759 39.6009665 181.643677 39.6009665 182.232807 39.4056425 182.424024 39.2121398 182.52373 38.8205814 182.52373 38.529189 181.353209 35.1522249 181.157895 35.0170007 176.673401 35.0170007 176.478086 35.1522249 175.502424 38.1394517 175.502424 38.7226917 175.694097 39.1115184 175.988206 39.4056425 176.573694 39.6009665 177.059477 39.6009665 177.156906 39.6965795 177.156906 39.8937247 177.059477 39.9916143 175.987752 39.9916143 174.817229 39.8937247 173.644888 39.9916143 172.865906 39.9916143 172.770297 39.8937247 172.770297 39.6965795 172.865906 39.6009665 173.353509 39.6009665 173.938997 39.3082082 174.426602 38.8205814 174.719801 38.236886 178.815487 26.6267224 179.010345 26.4332197 179.695084 26.33533 180.378003 26.1363636 180.571495 26.33533 184.864318 38.8205814 185.253125 39.4056425 185.838614 39.6009665 186.425468 39.6009665 186.523353 39.6965795 186.523353 39.8937247 186.426378 39.9916143 186.426378 39.9916143 186.426378 39.9916143zM179.107319 28.4788849L178.915648 27.7977553 178.71669 28.4788849 176.7294 34.3741163 176.827285 34.4301183 181.002189 34.4301183 181.101896 34.3741163 179.107319 28.4788849 179.107319 28.4788849 179.107319 28.4788849z"/>
    <path d="M198.408468,28.9651458 C197.825257,28.9651458 197.431441,28.5749533 197.431441,27.9889815 L197.431441,27.8915472 L198.116179,27.2104176 C197.825257,26.8184039 197.431441,26.6230799 196.945658,26.6230799 C196.107036,26.6230799 195.483759,27.4039203 195.483759,28.4766084 L195.483759,31.30448 L195.581644,31.4037356 L197.630397,31.4037356 L197.726006,31.5016251 L197.726006,31.8913624 L197.630397,31.989252 L195.581644,31.989252 L195.483759,32.0866864 L195.483759,39.8308932 L195.677253,40.2229069 L196.264561,40.4177756 L197.140518,40.4177756 L197.240224,40.5156651 L197.240224,40.6709226 L197.140518,40.7688123 L196.067882,40.7688123 L194.508552,40.6709226 L192.945581,40.7688123 L192.168876,40.7688123 L192.06917,40.6709226 L192.06917,40.5156651 L192.168876,40.4177756 L192.752088,40.4177756 L193.337576,40.2229069 L193.534711,39.8308932 L193.534711,32.0866864 L193.435006,31.989252 L189.922987,31.989252 L189.825102,32.0866864 L189.825102,39.8308932 L190.020417,40.2229069 L190.605904,40.4177756 L191.190938,40.4177756 L191.290643,40.5156651 L191.290643,40.6709226 L191.190938,40.7688123 L190.408769,40.7688123 L188.84944,40.6709226 L187.28829,40.7688123 L186.511585,40.7688123 L186.410057,40.6709226 L186.410057,40.5156651 L186.511585,40.4177756 L187.092975,40.4177756 L187.680284,40.2229069 L187.873323,39.8308932 L187.873323,32.0866864 L187.775893,31.989252 L186.511585,31.989252 L186.410057,31.8913624 L186.410057,31.698315 L186.511585,31.6004253 L187.680284,31.4032802 L187.873323,31.2061351 L187.873323,29.2551723 C188.361381,27.403465 189.730859,26.3298664 191.387617,26.3298664 C192.459343,26.3298664 193.43455,26.8174932 194.018217,27.5983336 C194.701136,26.7177824 195.873478,26.1363636 196.945204,26.1363636 C198.31286,26.1363636 199.385951,26.9131064 199.385951,27.9880709 C199.386407,28.4770636 198.898348,28.9651458 198.408468,28.9651458 M193.534256,28.2799185 C193.14044,27.4039203 192.459343,26.9140169 191.581111,26.9140169 C190.509385,26.9140169 189.825102,27.6984998 189.825102,28.8690774 L189.825102,31.3049353 L189.922987,31.4041908 L193.435006,31.4041908 L193.534711,31.3049353 L193.534711,28.2799185 L193.534256,28.2799185"/>
    <path d="M205.095582 40.4407299C204.21735 40.4407299 203.534432 39.7559578 203.337751 38.6828145 202.850148 39.7559578 201.778423 40.4407299 200.511837 40.4407299 198.850071 40.4407299 197.776524 39.4631997 197.776524 37.9998638 197.776524 36.1458799 199.436469 35.1701709 202.656655 35.1701709L203.144259 35.1701709 203.241687 35.0727366 203.241687 32.7347683C203.008585 31.8564935 202.36209 31.3665902 201.482037 31.3665902 200.900645 31.3665902 200.27737 31.6019806 199.923162 31.9521067L199.923162 33.3198295C199.729669 33.803814 199.341316 34.0983934 198.850071 34.0983934 198.266404 34.0983934 197.971839 33.8042693 197.971839 33.2187527 197.971839 32.049541 199.923162 30.6818182 201.877674 30.6818182L201.973738 30.6818182C203.534888 30.6818182 204.705409 31.3665902 205.194833 32.6368786L205.194833 38.9751175 205.386506 39.3639441 205.679249 39.6580683 206.071244 39.7559578 206.654456 39.5624551 206.84977 39.5624551 206.947656 39.6580683 206.947656 39.851571C206.459597 40.2417635 205.872288 40.4407299 205.095582 40.4407299M203.241687 35.7570533L203.144259 35.6614401 202.656655 35.6614401C200.803215 35.6614401 199.729669 36.4996484 199.729669 37.9015188 199.729669 38.916839 200.315158 39.5619999 201.29082 39.5619999 202.16723 39.5619999 202.850148 39.0324853 203.241687 38.0963874L203.241687 35.7570533M212.787225 40.9271903L212.006422 40.9271903 210.445272 40.8293007 208.884122 40.9271903 208.103774 40.9271903 208.006344 40.8293007 208.006344 40.6321556 208.103774 40.5347212 208.689262 40.5347212 209.274295 40.3393973 209.46961 39.9492048 209.46961 32.538278 209.274295 32.1480853 208.689262 31.9545826 208.201204 31.9545826 208.103774 31.8553272 208.103774 31.6600032 208.201204 31.5639348 211.321684 31.5639348 211.419568 31.6600032 211.419568 39.9492048 211.616248 40.3393973 212.201737 40.5347212 212.787225 40.5347212 212.881013 40.6321556 212.881013 40.8293007 212.787225 40.9271903 212.787225 40.9271903 212.787225 40.9271903zM210.250412 29.6111508C209.607559 29.6111508 209.081712 29.0634242 209.081712 28.4382966 209.081712 27.8154455 209.607559 27.2727273 210.250412 27.2727273 210.893721 27.2727273 211.419568 27.8149901 211.419568 28.4382966 211.419568 29.0634242 210.893721 29.6111508 210.250412 29.6111508L210.250412 29.6111508 210.250412 29.6111508zM219.736587 33.6089453C219.346414 33.6089453 218.953964 33.3180083 218.860176 32.8303814L218.860176 32.7324918 219.539452 32.0477198C219.539452 31.7171716 219.288138 31.466301 218.953964 31.466301 218.175437 31.466301 217.492519 32.6710263 217.102346 34.7836207L217.102346 39.2678757 217.297661 39.6580683 217.883148 39.851571 218.665317 39.851571 218.762747 39.9490053 218.762747 40.1461505 218.665317 40.24404 217.592225 40.24404 216.12896 40.1461505 214.663418 40.24404 213.785186 40.24404 213.689578 40.1461505 213.689578 39.9490053 213.785186 39.851571 214.370674 39.851571 214.953886 39.6580683 215.151477 39.2678757 215.151477 32.0481751 214.953886 31.4667564 214.370674 31.2714324 213.88307 31.2714324 213.785186 31.1739981 213.785186 30.976853 213.88307 30.8789633 216.810057 30.8789633 216.907486 30.976853 216.907486 33.6089453C217.297661 31.6579825 218.076186 30.6818182 219.346414 30.6818182 220.322075 30.6818182 220.907564 31.3069458 220.907564 32.2430438 220.907108 33.02525 220.421326 33.6089453 219.736587 33.6089453M225.154938 40.4384533C224.081845 40.4384533 223.496358 40.2431294 222.815261 39.657613L222.719197 39.657613 222.132343 40.2431294 221.938849 40.2431294 221.839144 40.1452398 221.646105 36.9276309 221.743535 36.8301966 222.034458 36.8301966 222.132343 37.0236993C222.755164 38.8754066 223.886531 40.0100156 225.154938 40.0100156L225.252366 40.0100156C226.32728 40.0100156 227.108082 39.3074868 227.108082 38.2921666 227.108082 37.4539583 226.425164 36.768731 224.764763 36.2433142 222.61858 35.5603634 221.839598 34.6820886 221.839598 33.3180083 221.839598 31.8546723 223.108005 30.6818182 225.154938 30.6818182 225.993105 30.6818182 226.755696 30.9763976 227.203691 31.4262345L227.281543 31.4262345 227.826967 30.8789633 227.982217 30.8789633 228.080102 30.9768528 228.080102 33.6107665 227.982217 33.7068349 227.691294 33.7068349 227.593864 33.5133322C227.164081 32.0495409 226.228029 31.1125325 225.154938 31.1125325L225.059329 31.1125325C223.984415 31.1125325 223.299677 31.757238 223.299677 32.7347683 223.299677 33.5133322 223.984415 34.0983934 225.547388 34.4890413 227.496434 34.9766681 228.571803 36.0484456 228.571803 37.5122368 228.571347 39.2655992 227.203691 40.4384533 225.154938 40.4384533"/>
    <polygon points="67.062 0 67.671 0 67.671 49.742 67.062 49.742"/>
    <path d="M10.5492596 40.4553302L0 6.81818182 8.157226 6.81818182 12.1609457 21.0413153C13.2863942 25.0848393 14.310771 28.8752163 15.0915738 33.0689895L15.2377182 33.0689895C16.0690568 29.0272867 17.0952548 25.034301 18.21524 21.1929303L22.4174612 6.81818182 30.3288366 6.81818182 19.2428037 40.4553302 10.5492596 40.4553302M35.0173475 31.8205555L32.674484 40.4553301 25.0062272 40.4553301 35.0168922 6.81818182 44.7862595 6.81818182 55.0409539 40.4553301 46.9829786 40.4553301 44.4448006 31.8205555 35.0173475 31.8205555 35.0173475 31.8205555 35.0173475 31.8205555zM43.3694327 26.1324859L41.317037 18.9938288C40.7315487 16.9991571 40.1442393 14.5059314 39.6584571 12.5076173L39.5592064 12.5076173C39.071603 14.5059314 38.5817233 17.0496955 38.0449499 18.9938288L36.090439 26.1324859 43.3694327 26.1324859 43.3694327 26.1324859 43.3694327 26.1324859z"/>
  </g>
</svg>
