<svg xmlns="http://www.w3.org/2000/svg" width="66" height="68" viewBox="0 0 66 68">
  <g fill="none" fill-rule="evenodd">
    <path fill="#000000" fill-rule="nonzero" d="M33,0 C35.7731174,0 38.1087671,3.5048837 40.7416871,4.23186068 C43.3967401,4.96492312 47.1194353,3.13908809 49.5,4.55505816 C51.8607034,5.9591917 52.1899077,10.1879762 54.1507889,12.2082781 C56.1116701,14.22858 60.2160786,14.5677601 61.5789141,17 C62.953238,19.452703 61.181104,23.2881403 61.8926058,26.0237163 C62.5982011,28.7364218 66,31.1428487 66,34 C66,36.8571513 62.5982011,39.2635782 61.8926058,41.9762837 C61.181104,44.7117929 62.953238,48.547297 61.5789141,51 C60.2160786,53.4322399 56.1116701,53.77142 54.1507889,55.7917219 C52.1899077,57.8120238 51.8607034,62.0408083 49.5,63.4449418 C47.1194353,64.8609119 43.396805,63.0350769 40.7416871,63.7681393 C38.1087671,64.4951163 35.7731174,68 33,68 C30.2268826,68 27.8912329,64.4951163 25.2583129,63.7681393 C22.6032599,63.0350769 18.8805647,64.8609119 16.5,63.4449418 C14.1392966,62.0408083 13.8100923,57.8120238 11.8492111,55.7917219 C9.88832987,53.77142 5.78392136,53.4322399 4.42108586,51 C3.04676197,48.547297 4.81889597,44.7118597 4.10739419,41.9762837 C3.40179889,39.2635782 0,36.8571513 0,34 C0,31.1428487 3.40179889,28.7364218 4.10739419,26.0237163 C4.81889597,23.2882071 3.04676197,19.452703 4.42108586,17 C5.78392136,14.5677601 9.88832987,14.22858 11.8492111,12.2082781 C13.8100923,10.1879762 14.1392966,5.9591917 16.5,4.55505816 C18.8805647,3.13908809 22.603195,4.96492312 25.2583129,4.23186068 C27.8912978,3.5048837 30.2269475,0 33,0 Z"/>
    <path fill="#307AD1" d="M33,0 C35.7731174,0 38.1087671,3.5048837 40.7416871,4.23186068 C43.3967401,4.96492312 47.1194353,3.13908809 49.5,4.55505816 C51.8607034,5.9591917 52.1899077,10.1879762 54.1507889,12.2082781 C56.1116701,14.22858 60.2160786,14.5677601 61.5789141,17 C62.953238,19.452703 61.181104,23.2881403 61.8926058,26.0237163 C62.5982011,28.7364218 66,31.1428487 66,34 C66,36.8571513 62.5982011,39.2635782 61.8926058,41.9762837 C61.181104,44.7117929 62.953238,48.547297 61.5789141,51 C60.2160786,53.4322399 56.1116701,53.77142 54.1507889,55.7917219 C52.1899077,57.8120238 51.8607034,62.0408083 49.5,63.4449418 C47.1194353,64.8609119 43.396805,63.0350769 40.7416871,63.7681393 C38.1087671,64.4951163 35.7731174,68 33,68 C30.2268826,68 27.8912329,64.4951163 25.2583129,63.7681393 C22.6032599,63.0350769 18.8805647,64.8609119 16.5,63.4449418 C14.1392966,62.0408083 13.8100923,57.8120238 11.8492111,55.7917219 C9.88832987,53.77142 5.78392136,53.4322399 4.42108586,51 C3.04676197,48.547297 4.81889597,44.7118597 4.10739419,41.9762837 C3.40179889,39.2635782 0,36.8571513 0,34 C0,31.1428487 3.40179889,28.7364218 4.10739419,26.0237163 C4.81889597,23.2882071 3.04676197,19.452703 4.42108586,17 C5.78392136,14.5677601 9.88832987,14.22858 11.8492111,12.2082781 C13.8100923,10.1879762 14.1392966,5.9591917 16.5,4.55505816 C18.8805647,3.13908809 22.603195,4.96492312 25.2583129,4.23186068 C27.8912978,3.5048837 30.2269475,0 33,0 Z"/>
    <circle cx="33.5" cy="34.5" r="24.5" stroke="#FFFFFF" opacity=".77"/>
    <path fill="#FFFFFF" fill-rule="nonzero" d="M26.1396484,25.6699219 L26.1396484,31.5 L27.4990234,31.5 L27.4990234,33 L22.5068359,33 L22.5068359,31.5 L23.8369141,31.5 L23.8369141,25.6699219 L22.5068359,25.6699219 L22.5068359,24.1699219 L27.4990234,24.1699219 L27.4990234,25.6699219 L26.1396484,25.6699219 Z M32.1396484,24.9023438 L32.1396484,24.1699219 L33.6396484,24.1699219 L33.6396484,26.8417969 L32.1396484,26.8417969 C32.0771481,26.4121072 31.9375011,26.0888683 31.7207031,25.8720703 C31.5039052,25.6552724 31.2236345,25.546875 30.8798828,25.546875 C30.6376941,25.546875 30.4306649,25.6152337 30.2587891,25.7519531 C30.0869132,25.8886726 30.0009766,26.0605458 30.0009766,26.2675781 C30.0009766,26.4511728 30.0556635,26.6093743 30.1650391,26.7421875 C30.2744146,26.8750007 30.4150382,26.9873042 30.5869141,27.0791016 C30.7587899,27.1708989 31.0165998,27.292968 31.3603516,27.4453125 L31.7177734,27.5976562 C32.4951211,27.9335954 33.0820293,28.3281227 33.4785156,28.78125 C33.875002,29.2343773 34.0732422,29.8007779 34.0732422,30.4804688 C34.0732422,31.2890665 33.8408226,31.9287086 33.3759766,32.3994141 C32.9111305,32.8701195 32.2861367,33.1054688 31.5009766,33.1054688 C30.7353477,33.1054688 30.1396506,32.8183622 29.7138672,32.2441406 L29.7138672,33 L28.2138672,33 L28.2138672,30 L29.7138672,30 C29.7451173,30.5195338 29.8789051,30.9150377 30.1152344,31.1865234 C30.3515637,31.4580092 30.6708964,31.59375 31.0732422,31.59375 C31.3427748,31.59375 31.5703116,31.501954 31.7558594,31.3183594 C31.9414072,31.1347647 32.0341797,30.9121107 32.0341797,30.6503906 C32.0341797,30.3847643 31.9277354,30.1416027 31.7148438,29.9208984 C31.5019521,29.7001942 31.139651,29.4785167 30.6279297,29.2558594 C29.7568316,28.873045 29.125002,28.4609397 28.7324219,28.0195312 C28.3398418,27.5781228 28.1435547,27.0703154 28.1435547,26.4960938 C28.1435547,26.0468728 28.2470693,25.6367206 28.4541016,25.265625 C28.6611338,24.8945294 28.9472638,24.6025401 29.3125,24.3896484 C29.6777362,24.1767567 30.0751932,24.0703125 30.5048828,24.0703125 C30.8486345,24.0703125 31.1611314,24.1406243 31.4423828,24.28125 C31.7236342,24.4218757 31.9560538,24.6289049 32.1396484,24.9023438 Z M35.2041016,28.5585938 C35.2041016,27.664058 35.4091776,26.8750034 35.8193359,26.1914062 C36.2294942,25.5078091 36.8066369,24.9755878 37.5507812,24.5947266 C38.2949256,24.2138653 39.1513623,24.0234375 40.1201172,24.0234375 C41.088872,24.0234375 41.9433557,24.2138653 42.6835938,24.5947266 C43.4238318,24.9755878 43.9980448,25.5097622 44.40625,26.1972656 C44.8144552,26.8847691 45.0185547,27.6718706 45.0185547,28.5585938 C45.0185547,29.4570357 44.8144552,30.2499966 44.40625,30.9375 C43.9980448,31.6250034 43.4218787,32.1582012 42.6777344,32.5371094 C41.93359,32.9160175 41.0810595,33.1054688 40.1201172,33.1054688 C39.1787062,33.1054688 38.3339881,32.9160175 37.5859375,32.5371094 C36.8378869,32.1582012 36.2539083,31.6250034 35.8339844,30.9375 C35.4140604,30.2499966 35.2041016,29.4570357 35.2041016,28.5585938 Z M42.5576172,28.546875 C42.5576172,28.0117161 42.4599619,27.5244163 42.2646484,27.0849609 C42.069335,26.6455056 41.7871112,26.2958997 41.4179688,26.0361328 C41.0488263,25.7763659 40.6162134,25.6464844 40.1201172,25.6464844 C39.624021,25.6464844 39.1923846,25.7763659 38.8251953,26.0361328 C38.458006,26.2958997 38.1757822,26.6455056 37.9785156,27.0849609 C37.781249,27.5244163 37.6826172,28.0117161 37.6826172,28.546875 C37.6826172,29.1093778 37.7832021,29.6142556 37.984375,30.0615234 C38.1855479,30.5087913 38.4697247,30.8603503 38.8369141,31.1162109 C39.2041034,31.3720716 39.6279273,31.5 40.1083984,31.5 C40.6044947,31.5 41.0390606,31.3720716 41.4121094,31.1162109 C41.7851581,30.8603503 42.069335,30.5087913 42.2646484,30.0615234 C42.4599619,29.6142556 42.5576172,29.1093778 42.5576172,28.546875 Z M22.0585938,38.4960938 C22.0585938,38.9453147 21.9580088,39.3359358 21.7568359,39.6679688 C21.5556631,40.0000017 21.2851579,40.3017565 20.9453125,40.5732422 C20.6054671,40.8447279 20.1113314,41.1757793 19.4628906,41.5664062 C18.4081979,42.214847 17.8242193,42.8554656 17.7109375,43.4882812 L20.3769531,43.4882812 L20.3769531,42.3457031 L22.1640625,42.3457031 L22.0585938,45 L15.625,45 C15.625,44.2148398 15.7187491,43.5683619 15.90625,43.0605469 C16.0937509,42.5527318 16.3896464,42.0869162 16.7939453,41.6630859 C17.1982442,41.2392557 17.7929648,40.736331 18.578125,40.1542969 C18.9921896,39.8496079 19.3076161,39.5546889 19.5244141,39.2695312 C19.741212,38.9843736 19.8496094,38.6914078 19.8496094,38.390625 C19.8496094,38.0937485 19.7636727,37.8691414 19.5917969,37.7167969 C19.419921,37.5644524 19.1738297,37.4882812 18.8535156,37.4882812 C18.4394511,37.4882812 18.1318369,37.6318345 17.9306641,37.9189453 C17.7294912,38.2060561 17.6093752,38.6738249 17.5703125,39.3222656 L15.7363281,39.2519531 C15.7597657,38.1621039 16.0390598,37.3496121 16.5742188,36.8144531 C17.1093777,36.2792942 17.9101509,36.0117188 18.9765625,36.0117188 C19.9335985,36.0117188 20.6865207,36.2314431 21.2353516,36.6708984 C21.7841824,37.1103538 22.0585938,37.7187461 22.0585938,38.4960938 Z M27.1796875,43.4882812 L28.4511719,43.4882812 L28.4511719,45 L23.734375,45 L23.734375,43.4882812 L24.9472656,43.4882812 C25.0761725,42.4726512 25.3769508,41.4404349 25.8496094,40.3916016 C26.322268,39.3427682 26.9179652,38.4277383 27.6367188,37.6464844 L24.7304688,37.6464844 L24.7304688,38.8652344 L23.1132812,38.8652344 L23.1132812,36.1699219 L29.734375,36.1699219 L29.734375,37.3066406 C29.2812477,37.7402365 28.8603535,38.3124964 28.4716797,39.0234375 C28.0830059,39.7343786 27.7744152,40.4882773 27.5458984,41.2851562 C27.3173817,42.0820352 27.1953126,42.8164029 27.1796875,43.4882812 Z M37.3046875,40.5585938 C37.3046875,42.0468824 37.0214872,43.1787071 36.4550781,43.9541016 C35.888669,44.7294961 35.072271,45.1171875 34.0058594,45.1171875 C32.9355415,45.1171875 32.1181669,44.7294961 31.5537109,43.9541016 C30.989255,43.1787071 30.7070312,42.0468824 30.7070312,40.5585938 C30.7070312,39.1054615 30.9873019,37.9843789 31.5478516,37.1953125 C32.1084012,36.4062461 32.927729,36.0117188 34.0058594,36.0117188 C35.0957086,36.0117188 35.917966,36.3974571 36.4726562,37.1689453 C37.0273465,37.9404335 37.3046875,39.0703051 37.3046875,40.5585938 Z M32.9277344,40.5585938 C32.9277344,41.5820364 33.0156241,42.3398413 33.1914062,42.8320312 C33.3671884,43.3242212 33.6425762,43.5703125 34.0175781,43.5703125 C34.39258,43.5703125 34.6660148,43.3242212 34.8378906,42.8320312 C35.0097665,42.3398413 35.0957031,41.5820364 35.0957031,40.5585938 C35.0957031,38.5429587 34.7363317,37.5351562 34.0175781,37.5351562 C33.6425762,37.5351562 33.3671884,37.7871069 33.1914062,38.2910156 C33.0156241,38.7949244 32.9277344,39.5507762 32.9277344,40.5585938 Z M44.8632812,40.5585938 C44.8632812,42.0468824 44.580081,43.1787071 44.0136719,43.9541016 C43.4472628,44.7294961 42.6308647,45.1171875 41.5644531,45.1171875 C40.4941353,45.1171875 39.6767606,44.7294961 39.1123047,43.9541016 C38.5478487,43.1787071 38.265625,42.0468824 38.265625,40.5585938 C38.265625,39.1054615 38.5458956,37.9843789 39.1064453,37.1953125 C39.666995,36.4062461 40.4863227,36.0117188 41.5644531,36.0117188 C42.6543023,36.0117188 43.4765597,36.3974571 44.03125,37.1689453 C44.5859403,37.9404335 44.8632812,39.0703051 44.8632812,40.5585938 Z M40.4863281,40.5585938 C40.4863281,41.5820364 40.5742179,42.3398413 40.75,42.8320312 C40.9257821,43.3242212 41.20117,43.5703125 41.5761719,43.5703125 C41.9511737,43.5703125 42.2246085,43.3242212 42.3964844,42.8320312 C42.5683602,42.3398413 42.6542969,41.5820364 42.6542969,40.5585938 C42.6542969,38.5429587 42.2949255,37.5351562 41.5761719,37.5351562 C41.20117,37.5351562 40.9257821,37.7871069 40.75,38.2910156 C40.5742179,38.7949244 40.4863281,39.5507762 40.4863281,40.5585938 Z M51.4257812,43.4882812 L51.4257812,45 L46.9257812,45 L46.9257812,43.4882812 L48.1386719,43.4882812 L48.1386719,37.6816406 L46.84375,37.6816406 L46.84375,36.1699219 L50.2890625,36.1699219 L50.2890625,43.4882812 L51.4257812,43.4882812 Z"/>
    <path fill="#FFFFFF" fill-rule="nonzero" d="M50.8421966,45.7937184 C49.7135432,47.4571609 48.2873356,49.0640152 46.7301559,50.3139289 C46.6734215,50.3991221 46.5122715,50.366786 46.4609691,50.2884332 C45.7861912,49.8537617 45.0601109,49.4980648 44.4130967,49.0640152 C45.2749776,48.0025212 46.1096983,46.9404055 46.7555054,45.7644916 L45.9183704,45.7644916 C45.2496281,46.7762377 44.5482937,47.8377316 43.6610635,48.7338141 C42.4762791,48.24442 41.4007387,47.8091266 40.1900014,47.4795474 L40.0554079,47.3756988 C40.243718,46.8253636 40.5925746,46.3086083 40.6994043,45.7632479 L39.973324,45.7632479 L39.2472438,47.2351612 C37.6616969,46.8813299 35.9119822,46.6885572 34.2974645,46.5809775 C34.2159842,46.3365914 34.322814,45.9821382 34.2159842,45.7632479 L33.5164605,45.7632479 C33.4609331,46.0909616 33.5973373,46.3378351 33.4355837,46.6095825 C31.7673494,46.6885572 30.1534353,46.8813299 28.5944449,47.211531 L27.8653469,45.7632479 C27.5991778,45.7632479 27.299813,45.7110127 27.1139171,45.7924747 L27.7850736,47.3999509 L27.7048004,47.4795474 C26.4989274,47.8390014 25.3133288,48.2670752 24.1534651,48.7617972 L24.0466353,48.7058309 C23.2915843,47.8613618 22.5649004,46.9391618 21.9722065,46.0126088 C21.8388202,45.5468449 21.3004464,45.8192142 21.0040994,45.7644916 C21.6474923,46.9646575 22.5111838,48.0255296 23.3706504,49.1168722 C22.6445701,49.5540311 21.920904,50.0415597 21.1640423,50.3991221 C19.5182547,49.1077059 18.0835771,47.5533469 16.9143904,45.7949621 C16.5908833,45.7414832 16.3778273,45.7657353 16.0525095,45.7949621 C17.9899307,48.9004692 21.0040994,51.6235401 24.152258,53.2310162 C24.152258,53.2310162 24.152258,53.2067642 24.1812288,53.2067642 C24.204164,53.2067642 24.2578807,53.2571338 24.204164,53.2857388 C26.3311024,54.3484764 28.5926343,55.1108616 30.9851382,55.4391972 C39.2460366,56.5547919 47.1303149,52.933773 51.7016632,45.7949621 C51.41595,45.7646493 51.1279914,45.7642326 50.8421966,45.7937184 L50.8421966,45.7937184 Z M39.6250711,48.2450418 L39.7041372,48.1903192 C40.8641757,48.4626885 41.9650655,48.8445029 42.9880963,49.3606365 C42.1262154,50.3661641 41.0229114,51.2398601 40.0016913,51.974884 C39.3836479,52.3548329 38.7625867,52.7677397 38.1161761,53.0923442 L36.9615696,52.574967 L37.0406357,52.3865471 C38.011157,51.0526839 38.8724342,49.688972 39.6250711,48.2450418 L39.6250711,48.2450418 Z M34.322814,47.4273122 C35.857662,47.4571609 37.3919064,47.6200849 38.8156998,47.9726725 L38.844067,48.0553783 C38.0920337,49.5248043 37.148069,50.9444824 36.1274524,52.2764801 C35.6675412,52.3324464 35.239015,52.1440265 34.7821216,52.1147997 L34.3222104,52.0588334 C34.2697009,50.4513573 34.2413336,49.0347883 34.322814,47.4273122 L34.322814,47.4273122 Z M29.1322151,47.9173281 C30.5312626,47.6449588 31.9834231,47.4273122 33.4893004,47.4273122 L33.517064,52.0358251 C32.9509266,52.1676568 32.3322797,52.1676568 31.7939059,52.3075725 C30.6906019,50.9693563 29.7768151,49.5248043 28.9976217,48.0255296 L29.1322151,47.9173281 Z M24.7980651,49.3898633 C25.8500667,48.8706205 26.95156,48.4869405 28.0802135,48.1896974 L28.1894575,48.2183024 C28.9674438,49.7169552 29.9373615,51.1322804 30.9054685,52.5488494 C30.5318661,52.7683616 30.0719549,52.8995714 29.6965419,53.1209492 C27.8770222,52.1948743 26.2213724,50.9605451 24.7986686,49.4694598 L24.7986686,49.3898633 L24.7980651,49.3898633 Z M28.2703343,54.0475022 C26.0100095,53.4461755 23.9096277,52.411421 21.97281,50.9973395 L21.97281,50.9127682 C22.6186171,50.5079454 23.2668384,50.0707865 23.9639479,49.7679467 C25.4987959,51.3250532 27.0849464,52.4966142 28.8068974,53.6109651 C28.6729075,53.7745111 28.4580408,53.9386788 28.2703343,54.0475022 L28.2703343,54.0475022 Z M38.251373,54.3994679 C35.400165,55.0300215 32.2236392,55.0542735 29.3730348,54.3472327 C29.3187145,54.21167 29.5076282,54.1824431 29.5879014,54.1028466 C32.0902529,52.4394042 35.9898412,52.4394042 38.4408903,54.2353002 C38.5205599,54.3994679 38.3056933,54.3472327 38.251373,54.3994679 L38.251373,54.3994679 Z M40.8352049,53.6395701 L39.5707508,54.0468803 C39.3546771,53.938057 39.1675741,53.7745111 38.9774533,53.6103433 L39.0317735,53.5270157 C40.7543281,52.4959923 42.313922,51.2392382 43.7944498,49.7412072 C44.5211336,50.040316 45.2212609,50.4513573 45.8688787,50.9121464 C44.3605872,52.1440265 42.6108725,52.9574033 40.8352049,53.6395701 L40.8352049,53.6395701 Z M16.8618808,22.7735405 C17.5273998,21.8246318 18.2553946,20.9239422 19.0407252,20.077831 C19.7378347,19.3969078 20.386056,18.7433459 21.1405035,18.2508426 C21.8406308,18.7134972 22.6198242,19.0990428 23.2921878,19.5330924 C22.4586742,20.5902334 21.597397,21.657324 20.97875,22.7984144 C21.165853,22.8836075 21.5171237,22.8568681 21.7869142,22.7984144 C22.4586742,21.7922649 23.1829438,20.7848717 24.0472389,19.8850582 C25.2012418,20.3222171 26.3329131,20.783628 27.518301,21.1119636 L27.6227165,21.2201651 L26.9527672,22.7984144 C27.2497177,22.8568681 27.4380278,22.8282631 27.7319605,22.7984144 C27.9733837,22.3382471 28.1604867,21.8221136 28.4296736,21.3563497 C29.9922853,21.7120466 31.6339631,21.9017101 33.3021974,21.9545671 C33.5158569,22.1479618 33.3553105,22.5546501 33.4361873,22.7984144 L34.1622675,22.7984144 C34.2413336,22.5310199 34.1351074,22.2275583 34.2413336,21.9850377 C35.8033418,21.9004664 37.4438124,21.7369205 38.9557252,21.355106 L39.0866973,21.383711 L39.8133812,22.7971707 C40.0560115,22.7971707 40.3783115,22.8556244 40.5666216,22.7412044 L39.8924473,21.1654425 L39.9485782,21.1107199 C41.1840614,20.783628 42.3428928,20.2936121 43.52647,19.804218 C44.3630014,20.7027878 45.1409877,21.7649036 45.8429257,22.7965488 C46.137462,22.7965488 46.4338089,22.8263975 46.6492792,22.7405826 C46.31699,22.1324168 45.9293739,21.5581515 45.4916549,21.0255268 C45.1362979,20.5038361 44.7398275,20.013197 44.306267,19.5585882 L44.306267,19.4174288 L46.1899715,18.3024559 L46.4615726,18.1936326 C48.0997169,19.4711434 49.53328,21.0054318 50.7100174,22.7405826 C51.032921,22.7405826 51.3027114,22.8550025 51.5725018,22.7175742 C47.9632249,17.1650966 42.0181786,13.5925819 35.5908893,13.0783139 L35.5625221,13.1311709 L35.5075983,13.0783139 C34.7821216,12.9980955 33.8906664,12.9663813 33.1114731,13.0465996 C32.8163332,13.0229694 32.4674767,13.0465996 32.1168095,13.0783139 C25.6605495,13.5925819 19.7148995,16.9996851 16,22.7996581 C16.2691869,22.7735405 16.5920904,22.8842294 16.8618808,22.7735405 L16.8618808,22.7735405 Z M28.0295146,20.3800489 L27.9220813,20.4036791 C26.8175702,20.1070578 25.7402191,19.7494954 24.7177919,19.2880844 L24.7696978,19.1245385 C26.2496221,17.6812301 27.8098195,16.481686 29.5317705,15.5576204 C29.9373615,15.7211664 30.3405382,15.8561073 30.743715,16.0495019 L30.6646489,16.2621738 C29.640411,17.5730286 28.8352646,18.9864883 28.0295146,20.3800489 L28.0295146,20.3800489 Z M33.381867,21.1132073 C32.6304373,21.2220306 31.9574701,21.0889552 31.201212,21.028636 C30.4781495,20.9191908 29.5613449,20.8402162 28.8352646,20.5914771 C29.6156651,19.1002865 30.5318661,17.6538688 31.6339631,16.322493 L33.3565176,16.5643918 C33.4361873,17.9784733 33.381867,19.6139326 33.381867,21.1132073 L33.381867,21.1132073 Z M34.2153807,21.1424341 C34.1622675,19.694151 34.1900312,18.0891622 34.2153807,16.5905094 C34.7555651,16.5109129 35.3446377,16.4263416 35.8842185,16.3461232 C36.9332024,17.706104 37.9580439,19.1002865 38.6581711,20.5914771 C37.203358,20.9541261 35.7121647,21.1390512 34.2153807,21.1424341 L34.2153807,21.1424341 Z M42.8009933,19.23274 C41.7495953,19.6935291 40.6722442,20.1300662 39.5170342,20.3800489 C38.6835206,18.9361187 37.7691302,17.4928103 36.7436851,16.098006 C37.1209089,15.8847123 37.5808201,15.7211664 37.9833933,15.5041415 C39.7355222,16.4020895 41.4285024,17.6812301 42.8528993,19.1475469 L42.8009933,19.23274 Z M39.3546771,14.5751012 C41.6150018,15.175806 43.7407331,16.2093168 45.6781543,17.6258857 L45.6244377,17.734709 L43.7697039,18.7955811 L43.6326962,18.7955811 C42.2089029,17.3298862 40.5412721,16.0495019 38.844067,15.0389995 C38.8977837,14.8480923 39.1681777,14.7106639 39.3546771,14.5751012 L39.3546771,14.5751012 Z M38.2797403,14.3014882 L38.2797403,14.35932 C35.9373316,16.098006 32.1445731,16.2621738 29.6705889,14.6546977 C29.5317705,14.5458743 29.266205,14.4930173 29.2372342,14.30211 C32.0908565,13.6242961 35.452071,13.5695735 38.2797403,14.3014882 L38.2797403,14.3014882 Z M21.8659803,17.6812301 C23.5625818,16.4020895 25.4450793,15.4487971 27.4368207,14.7946134 C27.518301,14.7094202 27.570207,14.6292019 27.6764332,14.6292019 L27.6764332,14.6851682 C27.8912999,14.7386471 28.053657,14.4917736 28.2413635,14.653454 C28.4037206,14.7946134 28.5938414,14.902193 28.7266241,15.0377558 C27.0595969,16.098006 25.4173156,17.3535164 23.9102312,18.8757995 C23.1835474,18.608405 22.513598,18.1973637 21.8653767,17.734709 L21.8659803,17.6812301 L21.8659803,17.6812301 Z" opacity=".185"/>
  </g>
</svg>
